0
SECTION
2
HEADER
9
$INSUNITS
70
4
9
$ACADVER
1
AC1014
9
$HANDSEED
5
FFFF
0
ENDSEC
0
SECTION
2
TABLES
0
TABLE
2
VPORT
5
8
100
AcDbSymbolTable
0
ENDTAB
0
TABLE
2
LTYPE
5
5
100
AcDbSymbolTable
0
LTYPE
5
14
100
AcDbSymbolTableRecord
100
AcDbLinetypeTableRecord
2
BYBLOCK
70
0
0
LTYPE
5
15
100
AcDbSymbolTableRecord
100
AcDbLinetypeTableRecord
2
BYLAYER
70
0
0
ENDTAB
0
TABLE
2
LAYER
5
2
100
AcDbSymbolTable
70
2
0
LAYER
5
50
100
AcDbSymbolTableRecord
100
AcDbLayerTableRecord
2
0
70
0
6
CONTINUOUS
0
ENDTAB
0
TABLE
2
STYLE
5
3
100
AcDbSymbolTable
70
1
0
STYLE
5
11
100
AcDbSymbolTableRecord
100
AcDbTextStyleTableRecord
2
STANDARD
70
0
0
ENDTAB
0
TABLE
2
VIEW
5
6
100
AcDbSymbolTable
70
0
0
ENDTAB
0
TABLE
2
UCS
5
7
100
AcDbSymbolTable
70
0
0
ENDTAB
0
TABLE
2
APPID
5
9
100
AcDbSymbolTable
70
2
0
APPID
5
12
100
AcDbSymbolTableRecord
100
AcDbRegAppTableRecord
2
ACAD
70
0
0
ENDTAB
0
TABLE
2
DIMSTYLE
5
A
100
AcDbSymbolTable
70
1
0
ENDTAB
0
TABLE
2
BLOCK_RECORD
5
1
100
AcDbSymbolTable
70
1
0
BLOCK_RECORD
5
1F
100
AcDbSymbolTableRecord
100
AcDbBlockTableRecord
2
*MODEL_SPACE
0
BLOCK_RECORD
5
1B
100
AcDbSymbolTableRecord
100
AcDbBlockTableRecord
2
*PAPER_SPACE
0
ENDTAB
0
ENDSEC
0
SECTION
2
BLOCKS
0
BLOCK
5
20
100
AcDbEntity
100
AcDbBlockBegin
2
*MODEL_SPACE
0
ENDBLK
5
21
100
AcDbEntity
100
AcDbBlockEnd
0
BLOCK
5
1C
100
AcDbEntity
100
AcDbBlockBegin
2
*PAPER_SPACE
0
ENDBLK
5
1D
100
AcDbEntity
100
AcDbBlockEnd
0
ENDSEC
0
SECTION
2
ENTITIES
0
LWPOLYLINE
5
100
100
AcDbEntity
8
0
100
AcDbPolyline
90
8
70
1
43
0.0
10
-110.26875000000001
20
87.525000000000006
10
-110.26875000000001
20
101.72499999999999
42
0.41421356237309503
10
-110.76875000000001
20
102.22499999999999
10
-117.96875
20
102.22499999999999
42
0.41421356237309503
10
-118.46875
20
101.72499999999999
10
-118.46875
20
87.525000000000006
42
0.41421356237309503
10
-117.96875
20
87.025000000000006
10
-110.76875000000001
20
87.025000000000006
42
0.41421356237309503
0
LWPOLYLINE
5
101
100
AcDbEntity
8
0
100
AcDbPolyline
90
8
70
1
43
0.0
10
-133.89375000000001
20
87.525000000000006
10
-133.89375000000001
20
101.72499999999999
42
0.41421356237309503
10
-134.39375000000001
20
102.22499999999999
10
-141.59375
20
102.22499999999999
42
0.41421356237309503
10
-142.09375
20
101.72499999999999
10
-142.09375
20
87.525000000000006
42
0.41421356237309503
10
-141.59375
20
87.025000000000006
10
-134.39375000000001
20
87.025000000000006
42
0.41421356237309503
0
LWPOLYLINE
5
102
100
AcDbEntity
8
0
100
AcDbPolyline
90
8
70
1
43
0.0
10
-86.768750000000011
20
102.22500000000002
10
-93.96875
20
102.22500000000002
42
0.4142135623730534
10
-94.46875
20
101.72500000000001
10
-94.46875
20
87.525000000000034
42
0.4142135623730534
10
-93.96875
20
87.02500000000002
10
-86.768750000000011
20
87.02500000000002
42
0.4142135623730534
10
-86.268749999999997
20
87.525000000000034
10
-86.268749999999997
20
101.72500000000001
42
0.4142135623730534
0
LWPOLYLINE
5
103
100
AcDbEntity
8
0
100
AcDbPolyline
90
8
70
1
43
0.0
10
-158.39375000000001
20
102.22499999999999
10
-165.59375
20
102.22499999999999
42
0.41421356237314705
10
-166.09375
20
101.72499999999999
10
-166.09375
20
87.525000000000006
42
0.41421356237314705
10
-165.59375
20
87.025000000000006
10
-158.39375000000001
20
87.025000000000006
42
0.41421356237314705
10
-157.89375000000001
20
87.525000000000006
10
-157.89375000000001
20
101.72499999999999
42
0.41421356237307422
0
LWPOLYLINE
5
104
100
AcDbEntity
8
0
100
AcDbPolyline
90
8
70
1
43
0.0
10
-156.99375000000001
20
101.72500000000001
10
-156.99375000000001
20
88.725000000000009
42
0.41421356237309503
10
-156.49375000000001
20
88.225000000000023
10
-143.49375000000001
20
88.225000000000023
42
0.41421356237309503
10
-142.99375000000001
20
88.725000000000009
10
-142.99375000000001
20
101.72500000000001
42
0.41421356237309503
10
-143.49375000000001
20
102.22499999999999
10
-156.49375000000001
20
102.22499999999999
42
0.4142135623730846
0
LWPOLYLINE
5
105
100
AcDbEntity
8
0
100
AcDbPolyline
90
8
70
1
43
0.0
10
-190.33125000000001
20
101.72500000000001
10
-190.33125000000001
20
88.725000000000009
42
0.4142135623730846
10
-189.83125000000001
20
88.224999999999994
10
-176.83125000000004
20
88.225000000000023
42
0.41421356237307422
10
-176.33125000000004
20
88.725000000000009
10
-176.33125000000004
20
101.72500000000001
42
0.4142135623730846
10
-176.83125000000004
20
102.22500000000002
10
-189.83125000000001
20
102.22499999999999
42
0.41421356237304302
0
LWPOLYLINE
5
106
100
AcDbEntity
8
0
100
AcDbPolyline
90
8
70
1
43
0.0
10
-109.36875000000001
20
101.72500000000001
10
-109.36875000000001
20
88.725000000000009
42
0.41421356237307422
10
-108.86875000000001
20
88.224999999999994
10
-95.868749999999991
20
88.225000000000023
42
0.41421356237312623
10
-95.368750000000006
20
88.725000000000009
10
-95.368749999999977
20
101.72500000000001
42
0.41421356237307422
10
-95.868749999999991
20
102.22500000000002
10
-108.86875000000001
20
102.22499999999999
42
0.41421356237310542
0
LWPOLYLINE
5
107
100
AcDbEntity
8
0
100
AcDbPolyline
90
8
70
1
43
0.0
10
-14.906249999999998
20
102.22499999999999
10
-27.906250000000004
20
102.22499999999999
42
0.41421356237309764
10
-28.40625
20
101.72500000000001
10
-28.40625
20
88.725000000000009
42
0.41421356237310025
10
-27.906250000000004
20
88.225000000000023
10
-14.906249999999998
20
88.225000000000023
42
0.41421356237310153
10
-14.406249999999998
20
88.725000000000009
10
-14.406249999999996
20
101.72500000000001
42
0.41421356237308982
0
LWPOLYLINE
5
108
100
AcDbEntity
8
0
100
AcDbPolyline
90
8
70
1
43
0.0
10
-55.387500000000003
20
64.125000000000014
10
-68.387500000000017
20
64.125
42
0.41421356237311063
10
-68.887500000000003
20
63.625000000000014
10
-68.887500000000003
20
50.625000000000007
42
0.41421356237309503
10
-68.387500000000017
20
50.125000000000014
10
-55.387500000000003
20
50.125000000000014
42
0.41421356237309503
10
-54.887500000000003
20
50.625000000000007
10
-54.887500000000003
20
63.625000000000014
42
0.41421356237309503
0
LWPOLYLINE
5
109
100
AcDbEntity
8
0
100
AcDbPolyline
90
8
70
1
43
0.0
10
-83.962500000000006
20
83.175000000000026
10
-96.962500000000006
20
83.175000000000011
42
0.41421356237312623
10
-97.462500000000006
20
82.675000000000011
10
-97.462500000000006
20
69.675000000000011
42
0.41421356237309503
10
-96.962500000000006
20
69.175000000000026
10
-83.962500000000006
20
69.175000000000011
42
0.41421356237310542
10
-83.462500000000006
20
69.675000000000011
10
-83.462500000000006
20
82.675000000000011
42
0.41421356237312623
0
LWPOLYLINE
5
110
100
AcDbEntity
8
0
100
AcDbPolyline
90
8
70
1
43
0.0
10
-131.58750000000003
20
64.125000000000014
10
-144.58750000000003
20
64.125
42
0.41421356237310542
10
-145.08750000000003
20
63.625000000000014
10
-145.08750000000003
20
50.625000000000007
42
0.41421356237309503
10
-144.58750000000003
20
50.125
10
-131.58750000000003
20
50.125000000000014
42
0.41421356237306384
10
-131.08750000000003
20
50.625000000000007
10
-131.08750000000003
20
63.625000000000014
42
0.4142135623730846
0
LWPOLYLINE
5
111
100
AcDbEntity
8
0
100
AcDbPolyline
90
8
70
1
43
0.0
10
-160.16249999999999
20
83.175000000000026
10
-173.16249999999999
20
83.175000000000011
42
0.4142135623730846
10
-173.66250000000002
20
82.675000000000011
10
-173.66250000000002
20
69.675000000000011
42
0.41421356237313667
10
-173.16249999999999
20
69.175000000000011
10
-160.16249999999999
20
69.175000000000011
42
0.41421356237309503
10
-159.66249999999999
20
69.675000000000011
10
-159.66249999999999
20
82.675000000000011
42
0.41421356237309503
0
LWPOLYLINE
5
112
100
AcDbEntity
8
0
100
AcDbPolyline
90
8
70
1
43
0.0
10
-198.26250000000002
20
102.22499999999999
10
-211.26249999999999
20
102.22499999999999
42
0.41421356237311585
10
-211.76249999999999
20
101.72500000000001
10
-211.76249999999999
20
88.725000000000009
42
0.4142135623730846
10
-211.26249999999999
20
88.225000000000023
10
-198.26250000000002
20
88.225000000000023
42
0.41421356237307422
10
-197.76250000000002
20
88.725000000000009
10
-197.76250000000002
20
101.72500000000001
42
0.4142135623730846
0
LWPOLYLINE
5
113
100
AcDbEntity
8
0
100
AcDbPolyline
90
8
70
1
43
0.0
10
-217.3125
20
83.175000000000026
10
-230.3125
20
83.175000000000011
42
0.41421356237307422
10
-230.81249999999997
20
82.675000000000011
10
-230.8125
20
69.675000000000011
42
0.41421356237312623
10
-230.3125
20
69.175000000000011
10
-217.3125
20
69.175000000000011
42
0.41421356237307422
10
-216.8125
20
69.675000000000011
10
-216.8125
20
82.675000000000011
42
0.41421356237313667
0
LWPOLYLINE
5
114
100
AcDbEntity
8
0
100
AcDbPolyline
90
8
70
1
43
0.0
10
-231.59999999999999
20
64.125000000000014
10
-244.60000000000002
20
64.125
42
0.4142135623730846
10
-245.09999999999997
20
63.625000000000014
10
-245.09999999999997
20
50.625000000000007
42
0.41421356237310025
10
-244.60000000000002
20
50.125000000000014
10
-231.59999999999999
20
50.125000000000014
42
0.41421356237307422
10
-231.09999999999999
20
50.625000000000007
10
-231.09999999999999
20
63.625000000000014
42
0.41421356237315748
0
LWPOLYLINE
5
115
100
AcDbEntity
8
0
100
AcDbPolyline
90
8
70
1
43
0.0
10
-164.92500000000001
20
45.07500000000001
10
-177.92500000000001
20
45.075000000000003
42
0.41421356237307944
10
-178.42500000000001
20
44.575000000000017
10
-178.42500000000001
20
31.575000000000006
42
0.41421356237313145
10
-177.92500000000001
20
31.074999999999999
10
-164.92500000000001
20
31.07500000000001
42
0.41421356237304563
10
-164.42500000000001
20
31.575000000000006
10
-164.42499999999998
20
44.575000000000017
42
0.41421356237312623
0
LWPOLYLINE
5
116
100
AcDbEntity
8
0
100
AcDbPolyline
90
8
70
1
43
0.0
10
-88.724999999999994
20
45.07500000000001
10
-101.72499999999998
20
45.075000000000003
42
0.4142135623730846
10
-102.22499999999998
20
44.575000000000017
10
-102.22499999999998
20
31.575000000000006
42
0.41421356237307161
10
-101.72499999999998
20
31.074999999999999
10
-88.724999999999994
20
31.07500000000001
42
0.41421356237310542
10
-88.22499999999998
20
31.575000000000006
10
-88.22499999999998
20
44.575000000000017
42
0.41421356237310542
0
LWPOLYLINE
5
117
100
AcDbEntity
8
0
100
AcDbPolyline
90
8
70
1
43
0.0
10
-117.30000000000001
20
26.025000000000009
10
-130.30000000000001
20
26.024999999999999
42
0.41421356237311324
10
-130.80000000000001
20
25.525000000000013
10
-130.80000000000001
20
12.525000000000004
42
0.41421356237309631
10
-130.30000000000001
20
12.025000000000006
10
-117.30000000000001
20
12.025000000000006
42
0.41421356237310414
10
-116.80000000000001
20
12.525000000000004
10
-116.8
20
25.525000000000013
42
0.41421356237309243
0
LWPOLYLINE
5
118
100
AcDbEntity
8
0
100
AcDbPolyline
90
8
70
1
43
0.0
10
-41.099999999999994
20
26.025000000000009
10
-54.100000000000001
20
26.024999999999999
42
0.41421356237308204
10
-54.600000000000001
20
25.525000000000013
10
-54.600000000000001
20
12.525000000000004
42
0.41421356237309764
10
-54.100000000000001
20
12.025000000000006
10
-41.099999999999994
20
12.025000000000006
42
0.41421356237309764
10
-40.599999999999994
20
12.525000000000004
10
-40.599999999999994
20
25.525000000000013
42
0.41421356237309764
0
LWPOLYLINE
5
119
100
AcDbEntity
8
0
100
AcDbPolyline
90
8
70
1
43
0.0
10
-22.050000000000001
20
26.025000000000009
10
-35.050000000000011
20
26.024999999999999
42
0.4142135623730846
10
-35.550000000000004
20
25.525000000000013
10
-35.550000000000004
20
12.525000000000004
42
0.41421356237309631
10
-35.050000000000011
20
12.025000000000006
10
-22.050000000000001
20
12.025000000000006
42
0.41421356237309631
10
-21.550000000000004
20
12.525000000000004
10
-21.550000000000004
20
25.525000000000013
42
0.41421356237309503
0
LWPOLYLINE
5
120
100
AcDbEntity
8
0
100
AcDbPolyline
90
8
70
1
43
0.0
10
-98.25
20
26.025000000000009
10
-111.25
20
26.024999999999999
42
0.41421356237311324
10
-111.75
20
25.525000000000013
10
-111.75
20
12.525000000000004
42
0.41421356237309631
10
-111.25
20
12.025000000000006
10
-98.25
20
12.025000000000006
42
0.41421356237310414
10
-97.75
20
12.525000000000004
10
-97.749999999999986
20
25.525000000000013
42
0.41421356237309243
0
LWPOLYLINE
5
121
100
AcDbEntity
8
0
100
AcDbPolyline
90
8
70
1
43
0.0
10
-69.674999999999997
20
45.07500000000001
10
-82.674999999999997
20
45.075000000000003
42
0.4142135623730846
10
-83.175000000000011
20
44.575000000000017
10
-83.175000000000011
20
31.575000000000006
42
0.41421356237307161
10
-82.674999999999997
20
31.074999999999999
10
-69.674999999999997
20
31.07500000000001
42
0.41421356237309503
10
-69.175000000000011
20
31.575000000000006
10
-69.175000000000011
20
44.575000000000017
42
0.41421356237311063
0
LWPOLYLINE
5
122
100
AcDbEntity
8
0
100
AcDbPolyline
90
8
70
1
43
0.0
10
-145.875
20
45.07500000000001
10
-158.875
20
45.075000000000003
42
0.41421356237311063
10
-159.37499999999997
20
44.575000000000017
10
-159.375
20
31.575000000000006
42
0.41421356237309243
10
-158.875
20
31.074999999999999
10
-145.875
20
31.07500000000001
42
0.41421356237310542
10
-145.375
20
31.575000000000006
10
-145.375
20
44.575000000000017
42
0.41421356237311063
0
LWPOLYLINE
5
123
100
AcDbEntity
8
0
100
AcDbPolyline
90
8
70
1
43
0.0
10
-229.21875000000003
20
45.07500000000001
10
-242.21875000000006
20
45.075000000000003
42
0.41421356237307422
10
-242.71875
20
44.575000000000017
10
-242.71875
20
31.575000000000006
42
0.41421356237309764
10
-242.21875000000006
20
31.07500000000001
10
-229.21875000000003
20
31.07500000000001
42
0.41421356237307683
10
-228.71875000000003
20
31.575000000000006
10
-228.71875000000003
20
44.575000000000017
42
0.41421356237315227
0
LWPOLYLINE
5
124
100
AcDbEntity
8
0
100
AcDbPolyline
90
8
70
1
43
0.0
10
-217.31250000000003
20
102.22499999999999
10
-230.3125
20
102.22499999999999
42
0.41421356237311585
10
-230.8125
20
101.72500000000001
10
-230.8125
20
88.725000000000009
42
0.4142135623730846
10
-230.3125
20
88.225000000000023
10
-217.31250000000003
20
88.225000000000023
42
0.41421356237307422
10
-216.81250000000003
20
88.725000000000009
10
-216.81250000000003
20
101.72500000000001
42
0.4142135623730846
0
LWPOLYLINE
5
125
100
AcDbEntity
8
0
100
AcDbPolyline
90
8
70
1
43
0.0
10
-198.26250000000002
20
83.175000000000026
10
-211.26250000000002
20
83.175000000000011
42
0.4142135623730846
10
-211.76250000000005
20
82.675000000000011
10
-211.76250000000005
20
69.675000000000011
42
0.41421356237313667
10
-211.26250000000002
20
69.175000000000011
10
-198.26250000000002
20
69.175000000000011
42
0.4142135623730222
10
-197.76250000000002
20
69.675000000000011
10
-197.76250000000002
20
82.675000000000011
42
0.41421356237310542
0
LWPOLYLINE
5
126
100
AcDbEntity
8
0
100
AcDbPolyline
90
8
70
1
43
0.0
10
-150.63750000000002
20
64.125000000000014
10
-163.63749999999999
20
64.125
42
0.41421356237313667
10
-164.13749999999999
20
63.625000000000014
10
-164.13749999999999
20
50.625000000000007
42
0.41421356237313145
10
-163.63749999999999
20
50.125
10
-150.63750000000002
20
50.125000000000014
42
0.41421356237306384
10
-150.13749999999999
20
50.625000000000007
10
-150.13749999999999
20
63.625000000000014
42
0.4142135623730846
0
LWPOLYLINE
5
127
100
AcDbEntity
8
0
100
AcDbPolyline
90
8
70
1
43
0.0
10
-122.0625
20
83.175000000000026
10
-135.0625
20
83.175000000000011
42
0.41421356237313667
10
-135.5625
20
82.675000000000011
10
-135.5625
20
69.675000000000011
42
0.41421356237311063
10
-135.0625
20
69.175000000000026
10
-122.0625
20
69.175000000000011
42
0.41421356237310542
10
-121.5625
20
69.675000000000011
10
-121.5625
20
82.675000000000011
42
0.41421356237309503
0
LWPOLYLINE
5
128
100
AcDbEntity
8
0
100
AcDbPolyline
90
8
70
1
43
0.0
10
-103.01249999999997
20
83.175000000000026
10
-116.01249999999999
20
83.175000000000011
42
0.41421356237312623
10
-116.51249999999997
20
82.675000000000011
10
-116.51249999999997
20
69.675000000000011
42
0.41421356237309503
10
-116.01249999999999
20
69.175000000000026
10
-103.01249999999997
20
69.175000000000011
42
0.41421356237310542
10
-102.51249999999999
20
69.675000000000011
10
-102.51249999999999
20
82.675000000000011
42
0.41421356237312623
0
LWPOLYLINE
5
129
100
AcDbEntity
8
0
100
AcDbPolyline
90
8
70
1
43
0.0
10
-74.437500000000014
20
64.125000000000014
10
-87.437500000000028
20
64.125
42
0.41421356237311585
10
-87.937500000000014
20
63.625000000000014
10
-87.937500000000014
20
50.625000000000007
42
0.41421356237311585
10
-87.437500000000028
20
50.125000000000021
10
-74.437500000000014
20
50.125000000000014
42
0.41421356237310025
10
-73.9375
20
50.625000000000007
10
-73.9375
20
63.625000000000014
42
0.41421356237310025
0
LWPOLYLINE
5
130
100
AcDbEntity
8
0
100
AcDbPolyline
90
8
70
1
43
0.0
10
-36.337500000000006
20
102.22499999999999
10
-49.337500000000006
20
102.22499999999999
42
0.41421356237310025
10
-49.837500000000006
20
101.72500000000001
10
-49.837500000000006
20
88.725000000000009
42
0.41421356237310025
10
-49.337500000000006
20
88.225000000000023
10
-36.337500000000006
20
88.225000000000023
42
0.41421356237309764
10
-35.837500000000006
20
88.725000000000009
10
-35.837500000000006
20
101.72500000000001
42
0.41421356237308982
0
LWPOLYLINE
5
131
100
AcDbEntity
8
0
100
AcDbPolyline
90
8
70
1
43
0.0
10
-19.668749999999999
20
83.175000000000026
10
-32.668750000000003
20
83.175000000000011
42
0.41421356237311324
10
-33.168750000000003
20
82.675000000000011
10
-33.168750000000003
20
69.675000000000011
42
0.41421356237309764
10
-32.668750000000003
20
69.175000000000011
10
-19.668749999999999
20
69.175000000000011
42
0.41421356237309631
10
-19.168749999999999
20
69.675000000000011
10
-19.168749999999996
20
82.675000000000011
42
0.41421356237309503
0
LWPOLYLINE
5
132
100
AcDbEntity
8
0
100
AcDbPolyline
90
8
70
1
43
0.0
10
-36.337500000000006
20
64.125000000000014
10
-49.337500000000006
20
64.125
42
0.41421356237311063
10
-49.837500000000006
20
63.625000000000014
10
-49.837500000000006
20
50.625000000000007
42
0.41421356237309503
10
-49.337500000000006
20
50.125000000000014
10
-36.337500000000006
20
50.125000000000014
42
0.41421356237310025
10
-35.837500000000006
20
50.625000000000007
10
-35.837500000000006
20
63.625000000000014
42
0.41421356237310025
0
LWPOLYLINE
5
133
100
AcDbEntity
8
0
100
AcDbPolyline
90
8
70
1
43
0.0
10
-57.768750000000004
20
102.22499999999999
10
-70.768749999999997
20
102.22499999999999
42
0.41421356237310025
10
-71.268749999999997
20
101.72500000000001
10
-71.268749999999997
20
88.725000000000009
42
0.41421356237310025
10
-70.768749999999997
20
88.225000000000023
10
-57.768750000000004
20
88.225000000000023
42
0.41421356237310542
10
-57.268749999999997
20
88.725000000000009
10
-57.268749999999997
20
101.72500000000001
42
0.41421356237308982
0
LWPOLYLINE
5
134
100
AcDbEntity
8
0
100
AcDbPolyline
90
8
70
1
43
0.0
10
-112.53749999999999
20
64.125000000000014
10
-125.53750000000001
20
64.125
42
0.41421356237311585
10
-126.03749999999999
20
63.625000000000014
10
-126.03750000000002
20
50.625000000000007
42
0.41421356237309503
10
-125.53750000000001
20
50.125
10
-112.53749999999999
20
50.125000000000014
42
0.41421356237308982
10
-112.03749999999999
20
50.625000000000007
10
-112.03749999999999
20
63.625000000000014
42
0.41421356237309503
0
LWPOLYLINE
5
135
100
AcDbEntity
8
0
100
AcDbPolyline
90
8
70
1
43
0.0
10
-141.11250000000001
20
83.175000000000026
10
-154.11250000000001
20
83.175000000000011
42
0.41421356237313667
10
-154.61250000000001
20
82.675000000000011
10
-154.61250000000004
20
69.675000000000011
42
0.41421356237310025
10
-154.11250000000001
20
69.175000000000011
10
-141.11250000000001
20
69.175000000000011
42
0.41421356237310542
10
-140.61250000000001
20
69.675000000000011
10
-140.61250000000001
20
82.675000000000011
42
0.41421356237309503
0
LWPOLYLINE
5
136
100
AcDbEntity
8
0
100
AcDbPolyline
90
8
70
1
43
0.0
10
-179.21250000000001
20
83.175000000000026
10
-192.21250000000001
20
83.175000000000011
42
0.4142135623730846
10
-192.71250000000003
20
82.675000000000011
10
-192.71250000000003
20
69.675000000000011
42
0.41421356237313667
10
-192.21250000000001
20
69.175000000000011
10
-179.21250000000001
20
69.175000000000011
42
0.4142135623730222
10
-178.71250000000001
20
69.675000000000011
10
-178.71250000000001
20
82.675000000000011
42
0.41421356237310542
0
LWPOLYLINE
5
137
100
AcDbEntity
8
0
100
AcDbPolyline
90
8
70
1
43
0.0
10
-207.78749999999999
20
64.125000000000014
10
-220.78749999999999
20
64.125
42
0.4142135623730846
10
-221.28749999999997
20
63.625000000000014
10
-221.28749999999999
20
50.625000000000007
42
0.41421356237312101
10
-220.78749999999999
20
50.125
10
-207.78749999999999
20
50.125000000000014
42
0.41421356237307422
10
-207.28749999999997
20
50.625000000000007
10
-207.28749999999997
20
63.625000000000014
42
0.41421356237313145
0
LWPOLYLINE
5
138
100
AcDbEntity
8
0
100
AcDbPolyline
90
8
70
1
43
0.0
10
-236.36250000000004
20
83.175000000000026
10
-249.36250000000001
20
83.175000000000011
42
0.41421356237311585
10
-249.86250000000001
20
82.675000000000011
10
-249.86250000000001
20
69.675000000000011
42
0.41421356237312623
10
-249.36250000000001
20
69.175000000000011
10
-236.36250000000004
20
69.175000000000011
42
0.4142135623730222
10
-235.86250000000004
20
69.675000000000011
10
-235.86250000000004
20
82.675000000000011
42
0.41421356237310542
0
LWPOLYLINE
5
139
100
AcDbEntity
8
0
100
AcDbPolyline
90
8
70
1
43
0.0
10
-183.97500000000002
20
45.07500000000001
10
-196.97500000000002
20
45.075000000000003
42
0.41421356237307944
10
-197.47500000000002
20
44.575000000000017
10
-197.47500000000002
20
31.575000000000006
42
0.41421356237313145
10
-196.97500000000002
20
31.074999999999999
10
-183.97500000000002
20
31.07500000000001
42
0.41421356237304563
10
-183.47500000000002
20
31.575000000000006
10
-183.47499999999999
20
44.575000000000017
42
0.41421356237312623
0
LWPOLYLINE
5
140
100
AcDbEntity
8
0
100
AcDbPolyline
90
8
70
1
43
0.0
10
-107.77500000000001
20
45.07500000000001
10
-120.77500000000001
20
45.075000000000003
42
0.41421356237311063
10
-121.27499999999999
20
44.575000000000017
10
-121.27500000000001
20
31.575000000000006
42
0.41421356237309243
10
-120.77500000000001
20
31.074999999999999
10
-107.77500000000001
20
31.07500000000001
42
0.41421356237310542
10
-107.27499999999999
20
31.575000000000006
10
-107.27499999999999
20
44.575000000000017
42
0.41421356237310025
0
LWPOLYLINE
5
141
100
AcDbEntity
8
0
100
AcDbPolyline
90
8
70
1
43
0.0
10
-31.574999999999996
20
45.07500000000001
10
-44.574999999999996
20
45.075000000000003
42
0.41421356237311063
10
-45.075000000000003
20
44.575000000000017
10
-45.075000000000003
20
31.575000000000006
42
0.41421356237310025
10
-44.574999999999996
20
31.07500000000001
10
-31.574999999999996
20
31.07500000000001
42
0.41421356237309503
10
-31.074999999999999
20
31.575000000000006
10
-31.074999999999996
20
44.575000000000017
42
0.41421356237309764
0
LWPOLYLINE
5
142
100
AcDbEntity
8
0
100
AcDbPolyline
90
8
70
1
43
0.0
10
-60.150000000000006
20
26.025000000000009
10
-73.150000000000006
20
26.024999999999999
42
0.41421356237310025
10
-73.650000000000006
20
25.525000000000013
10
-73.650000000000006
20
12.525000000000004
42
0.41421356237309503
10
-73.150000000000006
20
12.025000000000006
10
-60.150000000000006
20
12.025000000000006
42
0.41421356237310802
10
-59.649999999999999
20
12.525000000000004
10
-59.649999999999999
20
25.525000000000013
42
0.41421356237310802
0
LWPOLYLINE
5
143
100
AcDbEntity
8
0
100
AcDbPolyline
90
8
70
1
43
0.0
10
-12.024999999999999
20
31.575000000000006
10
-12.024999999999997
20
44.575000000000017
42
0.41421356237309631
10
-12.524999999999999
20
45.07500000000001
10
-25.525000000000002
20
45.075000000000003
42
0.41421356237308721
10
-26.024999999999995
20
44.575000000000017
10
-26.024999999999999
20
31.575000000000006
42
0.41421356237309503
10
-25.525000000000002
20
31.07500000000001
10
-12.524999999999999
20
31.07500000000001
42
0.41421356237309503
0
LWPOLYLINE
5
144
100
AcDbEntity
8
0
100
AcDbPolyline
90
8
70
1
43
0.0
10
-79.200000000000003
20
26.025000000000009
10
-92.200000000000003
20
26.024999999999999
42
0.41421356237309764
10
-92.699999999999989
20
25.525000000000013
10
-92.699999999999989
20
12.525000000000004
42
0.41421356237309892
10
-92.200000000000003
20
12.025000000000006
10
-79.200000000000003
20
12.025000000000006
42
0.41421356237309764
10
-78.700000000000003
20
12.525000000000004
10
-78.700000000000003
20
25.525000000000013
42
0.41421356237309764
0
LWPOLYLINE
5
145
100
AcDbEntity
8
0
100
AcDbPolyline
90
8
70
1
43
0.0
10
-50.625
20
45.07500000000001
10
-63.625
20
45.075000000000003
42
0.41421356237311063
10
-64.125
20
44.575000000000017
10
-64.125
20
31.575000000000006
42
0.41421356237309503
10
-63.625
20
31.074999999999999
10
-50.625
20
31.07500000000001
42
0.41421356237309764
10
-50.125
20
31.575000000000006
10
-50.124999999999993
20
44.575000000000017
42
0.41421356237311585
0
LWPOLYLINE
5
146
100
AcDbEntity
8
0
100
AcDbPolyline
90
8
70
1
43
0.0
10
-126.82500000000002
20
45.07500000000001
10
-139.82500000000002
20
45.075000000000003
42
0.41421356237311063
10
-140.32500000000002
20
44.575000000000017
10
-140.32500000000002
20
31.575000000000006
42
0.41421356237309243
10
-139.82500000000002
20
31.074999999999999
10
-126.82500000000002
20
31.07500000000001
42
0.41421356237310542
10
-126.32500000000002
20
31.575000000000006
10
-126.32500000000002
20
44.575000000000017
42
0.41421356237311063
0
LWPOLYLINE
5
147
100
AcDbEntity
8
0
100
AcDbPolyline
90
8
70
1
43
0.0
10
-203.02499999999998
20
45.07500000000001
10
-216.02499999999998
20
45.075000000000003
42
0.41421356237307422
10
-216.52499999999998
20
44.575000000000017
10
-216.52500000000001
20
31.575000000000006
42
0.41421356237310025
10
-216.02499999999998
20
31.074999999999999
10
-203.02499999999998
20
31.07500000000001
42
0.41421356237307683
10
-202.52499999999998
20
31.575000000000006
10
-202.52499999999998
20
44.575000000000017
42
0.41421356237313667
0
LWPOLYLINE
5
148
100
AcDbEntity
8
0
100
AcDbPolyline
90
8
70
1
43
0.0
10
-236.36250000000004
20
102.22499999999999
10
-249.36250000000001
20
102.22499999999999
42
0.41421356237311585
10
-249.86250000000001
20
101.72500000000001
10
-249.86250000000001
20
88.725000000000009
42
0.4142135623730846
10
-249.36250000000001
20
88.225000000000023
10
-236.36250000000004
20
88.225000000000023
42
0.41421356237307422
10
-235.86250000000004
20
88.725000000000009
10
-235.86250000000004
20
101.72500000000001
42
0.4142135623730846
0
LWPOLYLINE
5
149
100
AcDbEntity
8
0
100
AcDbPolyline
90
8
70
1
43
0.0
10
-188.73750000000001
20
64.125000000000014
10
-201.73750000000001
20
64.125
42
0.41421356237313667
10
-202.23750000000001
20
63.625000000000014
10
-202.23750000000001
20
50.625000000000007
42
0.41421356237313145
10
-201.73750000000001
20
50.125
10
-188.73750000000001
20
50.125000000000014
42
0.4142135623730222
10
-188.23750000000004
20
50.625000000000007
10
-188.23750000000004
20
63.625000000000014
42
0.41421356237310025
0
LWPOLYLINE
5
150
100
AcDbEntity
8
0
100
AcDbPolyline
90
8
70
1
43
0.0
10
-169.6875
20
64.125000000000014
10
-182.6875
20
64.125
42
0.41421356237313667
10
-183.1875
20
63.625000000000014
10
-183.1875
20
50.625000000000007
42
0.41421356237313145
10
-182.6875
20
50.125
10
-169.6875
20
50.125000000000014
42
0.4142135623730222
10
-169.18750000000003
20
50.625000000000007
10
-169.18750000000003
20
63.625000000000014
42
0.41421356237310025
0
LWPOLYLINE
5
151
100
AcDbEntity
8
0
100
AcDbPolyline
90
8
70
1
43
0.0
10
-93.487499999999983
20
64.125000000000014
10
-106.4875
20
64.125
42
0.41421356237311585
10
-106.98749999999998
20
63.625000000000014
10
-106.98749999999998
20
50.625000000000007
42
0.41421356237311585
10
-106.4875
20
50.125000000000021
10
-93.487499999999983
20
50.125000000000014
42
0.41421356237308982
10
-92.987499999999983
20
50.625000000000007
10
-92.987499999999983
20
63.625000000000014
42
0.41421356237309503
0
LWPOLYLINE
5
152
100
AcDbEntity
8
0
100
AcDbPolyline
90
8
70
1
43
0.0
10
-64.912499999999994
20
83.175000000000026
10
-77.912500000000009
20
83.175000000000011
42
0.41421356237311585
10
-78.412499999999994
20
82.675000000000011
10
-78.412500000000009
20
69.675000000000011
42
0.41421356237309503
10
-77.912500000000009
20
69.175000000000011
10
-64.912499999999994
20
69.175000000000011
42
0.41421356237309503
10
-64.412499999999994
20
69.675000000000011
10
-64.412499999999994
20
82.675000000000011
42
0.41421356237308982
0
LWPOLYLINE
5
153
100
AcDbEntity
8
0
100
AcDbPolyline
90
8
70
1
43
0.0
10
-45.862499999999997
20
83.175000000000026
10
-58.862500000000004
20
83.175000000000011
42
0.41421356237311063
10
-59.362500000000004
20
82.675000000000011
10
-59.362500000000004
20
69.675000000000011
42
0.41421356237310542
10
-58.862500000000004
20
69.175000000000011
10
-45.862499999999997
20
69.175000000000011
42
0.41421356237310542
10
-45.362499999999997
20
69.675000000000011
10
-45.362499999999997
20
82.675000000000011
42
0.41421356237310542
0
LWPOLYLINE
5
154
100
AcDbEntity
8
0
100
AcDbPolyline
90
8
70
1
43
0.0
10
-14.906249999999998
20
64.125000000000014
10
-27.906250000000004
20
64.125
42
0.41421356237309243
10
-28.40625
20
63.625000000000014
10
-28.40625
20
50.625000000000007
42
0.41421356237309503
10
-27.906250000000004
20
50.125000000000014
10
-14.906249999999998
20
50.125000000000014
42
0.4142135623730937
10
-14.406249999999998
20
50.625000000000007
10
-14.406249999999996
20
63.625000000000014
42
0.41421356237309631
0
CIRCLE
5
155
100
AcDbEntity
8
0
100
AcDbCircle
10
-235.16575000000003
20
6.5000000000000018
30
0
40
1.25
210
0
220
-0
230
1
0
CIRCLE
5
156
100
AcDbEntity
8
0
100
AcDbCircle
10
-26.721749999999965
20
107.75000000000003
30
0
40
1.25
210
0
220
-0
230
1
0
CIRCLE
5
157
100
AcDbEntity
8
0
100
AcDbCircle
10
-26.721749999999993
20
6.4999999999999938
30
0
40
1.25
210
0
220
-0
230
1
0
CIRCLE
5
158
100
AcDbEntity
8
0
100
AcDbCircle
10
-235.16575
20
107.75000000000003
30
0
40
1.25
210
0
220
-0
230
1
0
LWPOLYLINE
5
159
100
AcDbEntity
8
0
100
AcDbPolyline
90
80
70
1
43
0.0
10
-70.721749999999986
20
6.5000000000000027
42
-0.41421356237309537
10
-71.721749999999986
20
7.5
10
-71.721749999999986
20
9.5000000000000107
10
-190.16575
20
9.5000000000000107
10
-190.16575
20
7.5
42
-0.41421356237307422
10
-191.16575
20
6.4999999999999991
10
-226.66575
20
6.5000000000000036
10
-226.66574999999997
20
5.5
42
-0.41421356237310542
10
-227.66575000000003
20
4.5000000000000009
10
-237.66575000000003
20
4.5000000000000009
42
-0.41421356237309392
10
-239.66575000000003
20
6.4999999999999858
10
-239.66575000000003
20
8.4999999999999964
10
-231.66575
20
8.4999999999999787
42
-0.41421356237310542
10
-230.66575
20
7.5
42
0.41421356237309664
10
-229.66575
20
6.4999999999999947
10
-228.66575
20
6.4999999999999947
10
-228.66575
20
7.5
42
-0.41421356237310347
10
-227.66574999999995
20
8.5
10
-193.16575
20
8.4999999999999964
10
-193.16575
20
9.5000000000000107
10
-230.38749999999999
20
9.4999999999999893
42
-0.41421356237308854
10
-233.38750000000002
20
12.5
10
-233.38750000000002
20
21.5
42
0.41421356237309825
10
-235.38749999999999
20
23.500000000000014
10
-249.38749999999999
20
23.499999999999993
42
-0.41421356237308854
10
-252.38749999999999
20
26.500000000000004
10
-252.38749999999999
20
101.75000000000003
42
-0.41421356237308815
10
-249.38749999999999
20
104.75000000000003
10
-193.16574999999997
20
104.75000000000003
10
-193.16574999999997
20
105.75000000000003
10
-227.66574999999995
20
105.75000000000003
42
-0.41421356237310542
10
-228.66574999999997
20
106.75
10
-228.66574999999997
20
107.75000000000003
10
-229.66574999999995
20
107.75000000000004
42
0.41421356237309503
10
-230.66574999999997
20
106.75000000000004
42
-0.41421356237307422
10
-231.66574999999997
20
105.75000000000003
10
-239.66575
20
105.75000000000003
10
-239.66575
20
106.74999999999999
42
-0.41421356237309331
10
-236.66574999999997
20
109.75
10
-227.66575
20
109.75000000000001
42
-0.41421356237307422
10
-226.66574999999997
20
108.75
10
-226.66574999999997
20
107.75
10
-191.16574999999997
20
107.74999999999999
42
-0.41421356237310542
10
-190.16574999999995
20
106.75
10
-190.16574999999995
20
104.75000000000003
10
-71.721749999999957
20
104.75000000000003
10
-71.721749999999986
20
106.75
42
-0.41421356237309764
10
-70.721749999999972
20
107.75000000000003
10
-35.221749999999972
20
107.75000000000003
10
-35.221749999999986
20
108.75
42
-0.41421356237309631
10
-34.221749999999972
20
109.75000000000001
10
-25.221749999999972
20
109.75000000000001
42
-0.41421356237309076
10
-22.221749999999965
20
106.75
10
-22.221749999999965
20
105.75000000000003
10
-30.221749999999972
20
105.75000000000001
42
-0.41421356237309631
10
-31.221749999999972
20
106.75
42
0.41421356237310025
10
-32.221749999999972
20
107.75000000000003
10
-33.221749999999972
20
107.75000000000003
10
-33.221749999999943
20
106.75000000000004
42
-0.41421356237309503
10
-34.221749999999957
20
105.75000000000003
10
-68.721749999999972
20
105.75000000000003
10
-68.721749999999972
20
104.75000000000003
10
-12.500000000000036
20
104.75000000000003
42
-0.41421356237309437
10
-9.4999999999999929
20
101.75000000000003
10
-9.5000000000000107
20
12.500000000000018
42
-0.4142135623730937
10
-12.5
20
9.5000000000000107
10
-68.721749999999986
20
9.5000000000000107
10
-68.721749999999986
20
8.4999999999999964
10
-34.221750000000007
20
8.4999999999999893
42
-0.41421356237309404
10
-33.221750000000014
20
7.5
10
-33.221750000000007
20
6.4999999999999947
10
-32.22175
20
6.4999999999999956
42
0.41421356237309503
10
-31.221750000000007
20
7.5
42
-0.41421356237309404
10
-30.221750000000004
20
8.5
10
-22.22175
20
8.4999999999999964
10
-22.221749999999986
20
7.5
42
-0.41421356237309725
10
-25.221750000000007
20
4.4999999999999929
10
-34.221749999999993
20
4.5000000000000053
42
-0.4142135623730947
10
-35.221749999999986
20
5.5
10
-35.221750000000007
20
6.5000000000000036
0
ENDSEC
0
SECTION
2
OBJECTS
0
DICTIONARY
5
C
100
AcDbDictionary
3
ACAD_GROUP
350
D
3
ACAD_MLINESTYLE
350
17
0
DICTIONARY
5
D
100
AcDbDictionary
0
DICTIONARY
5
1A
330
C
100
AcDbDictionary
0
DICTIONARY
5
17
100
AcDbDictionary
0
ENDSEC
0
EOF
