  0
SECTION
  2
HEADER
  9
$ACADVER
  1
AC1009
  9
$INSBASE
 10
0.0
 20
0.0
 30
0.0
  9
$EXTMIN
 10
0.0
 20
0.0
 30
0.0
  9
$EXTMAX
 10
0.0
 20
0.0
 30
0.0
  0
ENDSEC
  0
SECTION
  2
TABLES
  0
TABLE
  2
VPORT
 70
0
  0
ENDTAB
  0
TABLE
  2
LTYPE
 70
1
  0
LTYPE
  2
CONTINUOUS
 70
0
  3
Solid line
 72
65
 73
0
 40
0.0
  0
ENDTAB
  0
TABLE
  2
LAYER
 70
1
  0
LAYER
  2
0
 70
64
 62
7
  6
continuous
  0
ENDTAB
  0
TABLE
  2
STYLE
 70
1
  0
STYLE
  2
STANDARD
 70
0
 40
0
 41
1.0
 50
0.0
 71
0
 42
1
 3
ARIAL.TTF
 4

  0
ENDTAB
  0
TABLE
  2
VIEW
 70
0
  0
ENDTAB
  0
ENDSEC
  0
SECTION
  2
BLOCKS
  0
ENDSEC
  0
SECTION
  2
ENTITIES
  0
LINE
  8
0
 62
0
 10
-0.13877952755905557
 20
0.6702755971217581
 30
0.0
 11
-0.650590551181104
 21
0.6702755971217581
 31
0.0
  0
LINE
  8
0
 62
0
 10
-5.482529527559061
 20
0.6702755905511678
 30
0.0
 11
-5.994340551181108
 21
0.6702755905511678
 31
0.0
  0
LINE
  8
0
 62
0
 10
-8.76377952755906
 20
1.4202755905511646
 30
0.0
 11
-9.275590551181109
 21
1.4202755905511646
 31
0.0
  0
LINE
  8
0
 62
0
 10
-1.0762795275590575
 20
0.8690944881889705
 30
0.0
 11
-1.5880905511811048
 21
0.8690944881889705
 31
0.0
  0
LINE
  8
0
 62
0
 10
-7.806594488188981
 20
0.138779527559042
 30
0.0
 11
-7.806594488188981
 21
0.6505905511810892
 31
0.0
  0
LINE
  8
0
 62
0
 10
-9.463090551181109
 20
2.9202755905511673
 30
0.0
 11
-8.951279527559063
 21
2.9202755905511673
 31
0.0
  0
LINE
  8
0
 62
0
 10
-3.812480314960634
 20
0.6899606299212467
 30
0.0
 11
-3.812480314960634
 21
0.13877952755904177
 31
0.0
  0
LINE
  8
0
 62
0
 10
-8.837844488188983
 20
0.138779527559042
 30
0.0
 11
-8.837844488188983
 21
0.6505905511810892
 31
0.0
  0
LINE
  8
0
 62
0
 10
-0.11909422221120546
 20
0.13877953412963398
 30
0.0
 11
-0.11909422221120546
 21
0.6505905577516776
 31
0.0
  0
LINE
  8
0
 62
0
 10
-6.014025590551186
 20
0.6505905511810892
 30
0.0
 11
-6.014025590551186
 21
0.13877952755904177
 31
0.0
  0
LINE
  8
0
 62
0
 10
-8.931594488188983
 20
2.9005905511810894
 30
0.0
 11
-8.931594488188983
 21
2.388779527559042
 31
0.0
  0
LINE
  8
0
 62
0
 10
-3.8887795275590586
 20
0.6702755905511678
 30
0.0
 11
-4.400590551181107
 21
0.6702755905511678
 31
0.0
  0
LINE
  8
0
 62
0
 10
-4.476889763779533
 20
0.138779527559042
 30
0.0
 11
-4.476889763779533
 21
0.6899606299212467
 31
0.0
  0
LINE
  8
0
 62
0
 10
-5.386545275590555
 20
0.11909448818896264
 30
0.0
 11
-4.496574803149611
 21
0.11909448818896264
 31
0.0
  0
LINE
  8
0
 62
0
 10
-5.406230314960636
 20
0.6899606299212474
 30
0.0
 11
-5.406230314960636
 21
0.13877952755904027
 31
0.0
  0
LINE
  8
0
 62
0
 10
-3.792795275590556
 20
0.11909448818896264
 30
0.0
 11
-3.5565748031496107
 21
0.11909448818896264
 31
0.0
  0
LINE
  8
0
 62
0
 10
-4.400590551181107
 20
0.11909449475955275
 30
0.0
 11
-3.8887795275590586
 21
0.11909449475955275
 31
0.0
  0
LINE
  8
0
 62
0
 10
-5.994340551181108
 20
0.11909449475955275
 30
0.0
 11
-5.482529527559061
 21
0.11909449475955275
 31
0.0
  0
LINE
  8
0
 62
0
 10
-4.496574803149611
 20
0.7096456692913254
 30
0.0
 11
-4.732795275590557
 21
0.7096456692913254
 31
0.0
  0
LINE
  8
0
 62
0
 10
-0.6505905511811052
 20
0.11909449475955275
 30
0.0
 11
-0.13877952755905826
 21
0.11909449475955275
 31
0.0
  0
LINE
  8
0
 62
0
 10
-9.275590551181109
 20
0.8690944881889632
 30
0.0
 11
-8.76377952755906
 21
0.8690944881889632
 31
0.0
  0
LINE
  8
0
 62
0
 10
-9.295275590551187
 20
1.4005905511810888
 30
0.0
 11
-9.295275590551187
 21
0.8887795275590415
 31
0.0
  0
LINE
  8
0
 62
0
 10
-8.338090551181109
 20
0.11909449475955275
 30
0.0
 11
-7.826279527559062
 21
0.11909449475955275
 31
0.0
  0
LINE
  8
0
 62
0
 10
-6.79502952755906
 20
0.6702755905511678
 30
0.0
 11
-6.9872047244094535
 21
0.6702755905511678
 31
0.0
  0
LINE
  8
0
 62
0
 10
-6.77534448818898
 20
0.138779527559042
 30
0.0
 11
-6.77534448818898
 21
0.6505905511810892
 31
0.0
  0
LINE
  8
0
 62
0
 10
-7.326525590551187
 20
0.6505905511810897
 30
0.0
 11
-7.326525590551187
 21
0.13877952755904158
 31
0.0
  0
LINE
  8
0
 62
0
 10
-1.5880905511811048
 20
1.4202755905511677
 30
0.0
 11
-1.0762795275590575
 21
1.4202755905511677
 31
0.0
  0
LINE
  8
0
 62
0
 10
-2.8021653543307123
 20
0.6702755905511678
 30
0.0
 11
-3.0880905511811063
 21
0.6702755905511678
 31
0.0
  0
LINE
  8
0
 62
0
 10
-8.357775590551187
 20
0.6505905511810892
 30
0.0
 11
-8.357775590551187
 21
0.13877952755904177
 31
0.0
  0
LINE
  8
0
 62
0
 10
-2.5265748031496105
 20
0.7096456692913254
 30
0.0
 11
-2.7627952755905554
 21
0.7096456692913254
 31
0.0
  0
LINE
  8
0
 62
0
 10
-9.389025590551187
 20
0.6505905511810892
 30
0.0
 11
-9.389025590551187
 21
0.13877952755904177
 31
0.0
  0
LINE
  8
0
 62
0
 10
-8.85752952755906
 20
0.6702755905511678
 30
0.0
 11
-9.369340551181109
 21
0.6702755905511678
 31
0.0
  0
LINE
  8
0
 62
0
 10
-5.462844488188981
 20
0.13877952755904255
 30
0.0
 11
-5.462844488188981
 21
0.6505905511810882
 31
0.0
  0
LINE
  8
0
 62
0
 10
-9.482775590551189
 20
2.388779527559042
 30
0.0
 11
-9.482775590551189
 21
2.9005905511810894
 31
0.0
  0
LINE
  8
0
 62
0
 10
-9.369340551181109
 20
0.11909449475955275
 30
0.0
 11
-8.85752952755906
 21
0.11909449475955275
 31
0.0
  0
LINE
  8
0
 62
0
 10
-4.420275590551186
 20
0.6505905511810892
 30
0.0
 11
-4.420275590551186
 21
0.13877952755904177
 31
0.0
  0
LINE
  8
0
 62
0
 10
-5.150324803149611
 20
0.7096456692913254
 30
0.0
 11
-5.386545275590555
 21
0.7096456692913254
 31
0.0
  0
LINE
  8
0
 62
0
 10
-7.026574803149611
 20
0.7096456692913254
 30
0.0
 11
-7.262795275590555
 21
0.7096456692913254
 31
0.0
  0
LINE
  8
0
 62
0
 10
-8.951279527559063
 20
2.3690944881889635
 30
0.0
 11
-9.463090551181109
 21
2.3690944881889635
 31
0.0
  0
LINE
  8
0
 62
0
 10
-8.744094488188983
 20
0.888779527559042
 30
0.0
 11
-8.744094488188983
 21
1.4005905511810888
 31
0.0
  0
LINE
  8
0
 62
0
 10
-0.6702753245734104
 20
0.6505905577516796
 30
0.0
 11
-0.6702753245734104
 21
0.13877953412963145
 31
0.0
  0
LINE
  8
0
 62
0
 10
-1.0565944881889795
 20
0.888779527559042
 30
0.0
 11
-1.0565944881889795
 21
1.4005905511810888
 31
0.0
  0
LINE
  8
0
 62
0
 10
-3.86909448818898
 20
0.138779527559042
 30
0.0
 11
-3.86909448818898
 21
0.6505905511810892
 31
0.0
  0
LINE
  8
0
 62
0
 10
-7.826279527559062
 20
0.6702755905511678
 30
0.0
 11
-8.338090551181109
 21
0.6702755905511678
 31
0.0
  0
LINE
  8
0
 62
0
 10
-7.306840551181109
 20
0.11909449475955275
 30
0.0
 11
-6.79502952755906
 21
0.11909449475955275
 31
0.0
  0
LINE
  8
0
 62
0
 10
-4.772165354330713
 20
0.6702755905511678
 30
0.0
 11
-5.110954724409454
 21
0.6702755905511678
 31
0.0
  0
LINE
  8
0
 62
0
 10
-1.6077755905511846
 20
1.4005905511810888
 30
0.0
 11
-1.6077755905511846
 21
0.8887795275590415
 31
0.0
  0
LINE
  8
0
 62
0
 10
-6.482775590551185
 20
2.388779527559042
 30
0.0
 11
-6.482775590551185
 21
2.9005905511810894
 31
0.0
  0
LINE
  8
0
 62
0
 10
-0.4200295275590584
 20
2.3690944881889635
 30
0.0
 11
-0.9318405511811066
 21
2.3690944881889635
 31
0.0
  0
LINE
  8
0
 62
0
 10
-7.994094488188981
 20
1.6387795275590407
 30
0.0
 11
-7.994094488188981
 21
2.150590551181089
 31
0.0
  0
LINE
  8
0
 62
0
 10
-2.9315944881889804
 20
2.9005905511810894
 30
0.0
 11
-2.9315944881889804
 21
2.388779527559042
 31
0.0
  0
LINE
  8
0
 62
0
 10
-7.045275590551187
 20
2.150590551181089
 30
0.0
 11
-7.045275590551187
 21
1.6387795275590407
 31
0.0
  0
LINE
  8
0
 62
0
 10
-6.513779527559061
 20
2.1702755905511677
 30
0.0
 11
-7.025590551181105
 21
2.1702755905511677
 31
0.0
  0
LINE
  8
0
 62
0
 10
-2.18159448818898
 20
2.9005905511810894
 30
0.0
 11
-2.18159448818898
 21
2.388779527559042
 31
0.0
  0
LINE
  8
0
 62
0
 10
-7.451279527559061
 20
2.3690944881889635
 30
0.0
 11
-7.963090551181109
 21
2.3690944881889635
 31
0.0
  0
LINE
  8
0
 62
0
 10
-4.431594488188982
 20
2.9005905511810894
 30
0.0
 11
-4.431594488188982
 21
2.388779527559042
 31
0.0
  0
LINE
  8
0
 62
0
 10
-3.463090551181106
 20
2.9202755905511673
 30
0.0
 11
-2.951279527559058
 21
2.9202755905511673
 31
0.0
  0
LINE
  8
0
 62
0
 10
-1.982775590551185
 20
2.388779527559042
 30
0.0
 11
-1.982775590551185
 21
2.9005905511810894
 31
0.0
  0
LINE
  8
0
 62
0
 10
-4.963090551181105
 20
2.9202755905511673
 30
0.0
 11
-4.451279527559061
 21
2.9202755905511673
 31
0.0
  0
LINE
  8
0
 62
0
 10
-5.20127952755906
 20
2.3690944881889635
 30
0.0
 11
-5.713090551181106
 21
2.3690944881889635
 31
0.0
  0
LINE
  8
0
 62
0
 10
-5.732775590551187
 20
2.388779527559042
 30
0.0
 11
-5.732775590551187
 21
2.9005905511810894
 31
0.0
  0
LINE
  8
0
 62
0
 10
-5.713090551181106
 20
2.9202755905511673
 30
0.0
 11
-5.20127952755906
 21
2.9202755905511673
 31
0.0
  0
LINE
  8
0
 62
0
 10
-3.6815944881889813
 20
2.9005905511810894
 30
0.0
 11
-3.6815944881889813
 21
2.388779527559042
 31
0.0
  0
LINE
  8
0
 62
0
 10
-4.232775590551186
 20
2.388779527559042
 30
0.0
 11
-4.232775590551186
 21
2.9005905511810894
 31
0.0
  0
LINE
  8
0
 62
0
 10
-8.732775590551187
 20
2.388779527559042
 30
0.0
 11
-8.732775590551187
 21
2.9005905511810894
 31
0.0
  0
LINE
  8
0
 62
0
 10
-7.982775590551187
 20
2.388779527559042
 30
0.0
 11
-7.982775590551187
 21
2.9005905511810894
 31
0.0
  0
LINE
  8
0
 62
0
 10
-4.451279527559061
 20
2.3690944881889635
 30
0.0
 11
-4.963090551181105
 21
2.3690944881889635
 31
0.0
  0
LINE
  8
0
 62
0
 10
-7.025590551181105
 20
1.6190944881889626
 30
0.0
 11
-6.513779527559061
 21
1.6190944881889626
 31
0.0
  0
LINE
  8
0
 62
0
 10
-2.7130905511811063
 20
2.9202755905511673
 30
0.0
 11
-2.20127952755906
 21
2.9202755905511673
 31
0.0
  0
LINE
  8
0
 62
0
 10
-8.20127952755906
 20
2.3690944881889635
 30
0.0
 11
-8.713090551181109
 21
2.3690944881889635
 31
0.0
  0
LINE
  8
0
 62
0
 10
-5.931594488188981
 20
2.9005905511810894
 30
0.0
 11
-5.931594488188981
 21
2.388779527559042
 31
0.0
  0
LINE
  8
0
 62
0
 10
-1.4512795275590586
 20
2.3690944881889635
 30
0.0
 11
-1.963090551181107
 21
2.3690944881889635
 31
0.0
  0
LINE
  8
0
 62
0
 10
-3.7012795275590595
 20
2.3690944881889635
 30
0.0
 11
-4.213090551181107
 21
2.3690944881889635
 31
0.0
  0
LINE
  8
0
 62
0
 10
-7.213090551181109
 20
2.9202755905511673
 30
0.0
 11
-6.701279527559061
 21
2.9202755905511673
 31
0.0
  0
LINE
  8
0
 62
0
 10
-3.482775590551186
 20
2.388779527559042
 30
0.0
 11
-3.482775590551186
 21
2.9005905511810894
 31
0.0
  0
LINE
  8
0
 62
0
 10
-1.963090551181107
 20
2.9202755905511673
 30
0.0
 11
-1.4512795275590586
 21
2.9202755905511673
 31
0.0
  0
LINE
  8
0
 62
0
 10
-0.9318405511811066
 20
2.9202755905511673
 30
0.0
 11
-0.4200295275590584
 21
2.9202755905511673
 31
0.0
  0
LINE
  8
0
 62
0
 10
-7.963090551181109
 20
2.9202755905511673
 30
0.0
 11
-7.451279527559061
 21
2.9202755905511673
 31
0.0
  0
LINE
  8
0
 62
0
 10
-6.68159448818898
 20
2.9005905511810894
 30
0.0
 11
-6.68159448818898
 21
2.388779527559042
 31
0.0
  0
LINE
  8
0
 62
0
 10
-2.951279527559058
 20
2.3690944881889635
 30
0.0
 11
-3.463090551181106
 21
2.3690944881889635
 31
0.0
  0
LINE
  8
0
 62
0
 10
-6.463090551181105
 20
2.9202755905511673
 30
0.0
 11
-5.951279527559061
 21
2.9202755905511673
 31
0.0
  0
LINE
  8
0
 62
0
 10
-7.232775590551187
 20
2.388779527559042
 30
0.0
 11
-7.232775590551187
 21
2.9005905511810894
 31
0.0
  0
LINE
  8
0
 62
0
 10
-5.181594488188981
 20
2.9005905511810894
 30
0.0
 11
-5.181594488188981
 21
2.388779527559042
 31
0.0
  0
LINE
  8
0
 62
0
 10
-4.982775590551187
 20
2.388779527559042
 30
0.0
 11
-4.982775590551187
 21
2.9005905511810894
 31
0.0
  0
LINE
  8
0
 62
0
 10
-5.951279527559061
 20
2.3690944881889635
 30
0.0
 11
-6.463090551181105
 21
2.3690944881889635
 31
0.0
  0
LINE
  8
0
 62
0
 10
-6.701279527559061
 20
2.3690944881889635
 30
0.0
 11
-7.213090551181109
 21
2.3690944881889635
 31
0.0
  0
LINE
  8
0
 62
0
 10
-6.4940944881889795
 20
1.6387795275590407
 30
0.0
 11
-6.4940944881889795
 21
2.150590551181089
 31
0.0
  0
LINE
  8
0
 62
0
 10
-8.525590551181107
 20
1.6190944881889626
 30
0.0
 11
-8.01377952755906
 21
1.6190944881889626
 31
0.0
  0
LINE
  8
0
 62
0
 10
-8.545275590551187
 20
2.150590551181089
 30
0.0
 11
-8.545275590551187
 21
1.6387795275590407
 31
0.0
  0
LINE
  8
0
 62
0
 10
-7.43159448818898
 20
2.9005905511810894
 30
0.0
 11
-7.43159448818898
 21
2.388779527559042
 31
0.0
  0
LINE
  8
0
 62
0
 10
-4.213090551181107
 20
2.9202755905511673
 30
0.0
 11
-3.7012795275590595
 21
2.9202755905511673
 31
0.0
  0
LINE
  8
0
 62
0
 10
-8.01377952755906
 20
2.1702755905511677
 30
0.0
 11
-8.525590551181107
 21
2.1702755905511677
 31
0.0
  0
LINE
  8
0
 62
0
 10
-2.7327755905511855
 20
2.388779527559042
 30
0.0
 11
-2.7327755905511855
 21
2.9005905511810894
 31
0.0
  0
LINE
  8
0
 62
0
 10
-2.20127952755906
 20
2.3690944881889635
 30
0.0
 11
-2.7130905511811063
 21
2.3690944881889635
 31
0.0
  0
LINE
  8
0
 62
0
 10
-1.4315944881889797
 20
2.9005905511810894
 30
0.0
 11
-1.4315944881889797
 21
2.388779527559042
 31
0.0
  0
LINE
  8
0
 62
0
 10
-0.40034448818898005
 20
2.9005905511810894
 30
0.0
 11
-0.40034448818898005
 21
2.388779527559042
 31
0.0
  0
LINE
  8
0
 62
0
 10
-0.9515255905511847
 20
2.388779527559042
 30
0.0
 11
-0.9515255905511847
 21
2.9005905511810894
 31
0.0
  0
LINE
  8
0
 62
0
 10
-9.389025590551187
 20
1.6387795275590407
 30
0.0
 11
-9.389025590551187
 21
2.150590551181089
 31
0.0
  0
LINE
  8
0
 62
0
 10
-8.837844488188983
 20
2.150590551181089
 30
0.0
 11
-8.837844488188983
 21
1.6387795275590407
 31
0.0
  0
LINE
  8
0
 62
0
 10
-8.85752952755906
 20
1.6190944881889626
 30
0.0
 11
-9.369340551181109
 21
1.6190944881889626
 31
0.0
  0
LINE
  8
0
 62
0
 10
-8.357775590551187
 20
1.4005905511810888
 30
0.0
 11
-8.357775590551187
 21
0.8887795275590415
 31
0.0
  0
LINE
  8
0
 62
0
 10
-7.806594488188981
 20
0.888779527559042
 30
0.0
 11
-7.806594488188981
 21
1.4005905511810888
 31
0.0
  0
LINE
  8
0
 62
0
 10
-8.338090551181109
 20
0.8690944881889632
 30
0.0
 11
-7.826279527559062
 21
0.8690944881889632
 31
0.0
  0
LINE
  8
0
 62
0
 10
-6.090324803149611
 20
0.7096456692913254
 30
0.0
 11
-6.326545275590557
 21
0.7096456692913254
 31
0.0
  0
LINE
  8
0
 62
0
 10
-7.826279527559062
 20
1.4202755905511677
 30
0.0
 11
-8.338090551181109
 21
1.4202755905511677
 31
0.0
  0
LINE
  8
0
 62
0
 10
-6.070639763779532
 20
0.138779527559042
 30
0.0
 11
-6.070639763779532
 21
0.6899606299212467
 31
0.0
  0
LINE
  8
0
 62
0
 10
-6.326545275590554
 20
0.11909449475955275
 30
0.0
 11
-6.090324803149611
 21
0.11909449475955275
 31
0.0
  0
LINE
  8
0
 62
0
 10
-6.346230314960636
 20
0.6899606299212467
 30
0.0
 11
-6.346230314960636
 21
0.13877952755904177
 31
0.0
  0
LINE
  8
0
 62
0
 10
-3.5565748031496107
 20
0.7096456692913254
 30
0.0
 11
-3.792795275590556
 21
0.7096456692913254
 31
0.0
  0
LINE
  8
0
 62
0
 10
-3.536889763779533
 20
0.138779527559042
 30
0.0
 11
-3.536889763779533
 21
0.6899606299212467
 31
0.0
  0
LINE
  8
0
 62
0
 10
-9.369340551181109
 20
2.170275590551167
 30
0.0
 11
-8.85752952755906
 21
2.170275590551167
 31
0.0
  0
LINE
  8
0
 62
0
 10
-1.80659448818898
 20
0.888779527559042
 30
0.0
 11
-1.80659448818898
 21
1.4005905511810888
 31
0.0
  0
LINE
  8
0
 62
0
 10
-0.8887795275590556
 20
0.6702755971217581
 30
0.0
 11
-1.4005905511811036
 21
0.6702755971217581
 31
0.0
  0
LINE
  8
0
 62
0
 10
-1.4005905511811068
 20
0.11909449475955275
 30
0.0
 11
-0.8887795275590583
 21
0.11909449475955275
 31
0.0
  0
LINE
  8
0
 62
0
 10
-1.4202753245734088
 20
0.6505905577516796
 30
0.0
 11
-1.4202753245734088
 21
0.13877953412963145
 31
0.0
  0
LINE
  8
0
 62
0
 10
-8.713090551181109
 20
2.9202755905511673
 30
0.0
 11
-8.20127952755906
 21
2.9202755905511673
 31
0.0
  0
LINE
  8
0
 62
0
 10
-0.8690942222112045
 20
0.13877953412963165
 30
0.0
 11
-0.8690942222112045
 21
0.6505905577516796
 31
0.0
  0
LINE
  8
0
 62
0
 10
-8.181594488188983
 20
2.9005905511810894
 30
0.0
 11
-8.181594488188983
 21
2.388779527559042
 31
0.0
  0
LINE
  8
0
 62
0
 10
-4.806594488188981
 20
0.8887795275590427
 30
0.0
 11
-4.806594488188981
 21
1.4005905511810888
 31
0.0
  0
LINE
  8
0
 62
0
 10
-2.5452755905511855
 20
2.1505905511810908
 30
0.0
 11
-2.5452755905511855
 21
1.6387795275590389
 31
0.0
  0
LINE
  8
0
 62
0
 10
-4.025590551181107
 20
1.6190944881889626
 30
0.0
 11
-3.513779527559061
 21
1.6190944881889626
 31
0.0
  0
LINE
  8
0
 62
0
 10
-3.838090551181107
 20
0.8690944881889632
 30
0.0
 11
-3.326279527559058
 21
0.8690944881889632
 31
0.0
  0
LINE
  8
0
 62
0
 10
-5.013779527559061
 20
2.1702755905511677
 30
0.0
 11
-5.525590551181108
 21
2.1702755905511677
 31
0.0
  0
LINE
  8
0
 62
0
 10
-3.326279527559058
 20
1.4202755905511677
 30
0.0
 11
-3.838090551181107
 21
1.4202755905511677
 31
0.0
  0
LINE
  8
0
 62
0
 10
-3.3065944881889804
 20
0.888779527559042
 30
0.0
 11
-3.3065944881889804
 21
1.4005905511810888
 31
0.0
  0
LINE
  8
0
 62
0
 10
-4.826279527559061
 20
1.4202755905511677
 30
0.0
 11
-5.338090551181108
 21
1.4202755905511677
 31
0.0
  0
LINE
  8
0
 62
0
 10
-5.545275590551187
 20
2.15059055118109
 30
0.0
 11
-5.545275590551187
 21
1.6387795275590407
 31
0.0
  0
LINE
  8
0
 62
0
 10
-1.8262795275590589
 20
1.4202755905511677
 30
0.0
 11
-2.338090551181106
 21
1.4202755905511677
 31
0.0
  0
LINE
  8
0
 62
0
 10
-3.513779527559061
 20
2.1702755905511677
 30
0.0
 11
-4.025590551181107
 21
2.1702755905511677
 31
0.0
  0
LINE
  8
0
 62
0
 10
-7.056594488188981
 20
0.888779527559042
 30
0.0
 11
-7.056594488188981
 21
1.4005905511810888
 31
0.0
  0
LINE
  8
0
 62
0
 10
-1.99409448818898
 20
1.6387795275590407
 30
0.0
 11
-1.99409448818898
 21
2.150590551181089
 31
0.0
  0
LINE
  8
0
 62
0
 10
-3.494094488188981
 20
1.6387795275590407
 30
0.0
 11
-3.494094488188981
 21
2.150590551181089
 31
0.0
  0
LINE
  8
0
 62
0
 10
-2.5255905511811054
 20
1.6190944881889626
 30
0.0
 11
-2.0137795275590578
 21
1.6190944881889626
 31
0.0
  0
LINE
  8
0
 62
0
 10
-2.338090551181106
 20
0.8690944881889632
 30
0.0
 11
-1.8262795275590589
 21
0.8690944881889632
 31
0.0
  0
LINE
  8
0
 62
0
 10
-2.3577755905511855
 20
1.4005905511810888
 30
0.0
 11
-2.3577755905511855
 21
0.8887795275590415
 31
0.0
  0
LINE
  8
0
 62
0
 10
-4.99409448818898
 20
1.6387795275590407
 30
0.0
 11
-4.99409448818898
 21
2.150590551181089
 31
0.0
  0
LINE
  8
0
 62
0
 10
-5.338090551181108
 20
0.8690944881889632
 30
0.0
 11
-4.826279527559061
 21
0.8690944881889632
 31
0.0
  0
LINE
  8
0
 62
0
 10
-5.525590551181108
 20
1.6190944881889626
 30
0.0
 11
-5.013779527559061
 21
1.6190944881889626
 31
0.0
  0
LINE
  8
0
 62
0
 10
-2.0137795275590578
 20
2.1702755905511677
 30
0.0
 11
-2.5255905511811054
 21
2.1702755905511677
 31
0.0
  0
LINE
  8
0
 62
0
 10
-5.357775590551187
 20
1.4005905511810888
 30
0.0
 11
-5.357775590551187
 21
0.8887795275590415
 31
0.0
  0
LINE
  8
0
 62
0
 10
-3.857775590551186
 20
1.4005905511810888
 30
0.0
 11
-3.857775590551186
 21
0.8887795275590415
 31
0.0
  0
LINE
  8
0
 62
0
 10
-4.045275590551187
 20
2.150590551181089
 30
0.0
 11
-4.045275590551187
 21
1.6387795275590407
 31
0.0
  0
LINE
  8
0
 62
0
 10
-1.619094222211206
 20
0.13877953412963165
 30
0.0
 11
-1.619094222211206
 21
0.6505905577516796
 31
0.0
  0
LINE
  8
0
 62
0
 10
-1.63877952755906
 20
0.6702755971217581
 30
0.0
 11
-2.150590551181106
 21
0.6702755971217581
 31
0.0
  0
LINE
  8
0
 62
0
 10
-6.295275590551186
 20
2.150590551181089
 30
0.0
 11
-6.295275590551186
 21
1.6387795275590407
 31
0.0
  0
LINE
  8
0
 62
0
 10
-2.150590551181106
 20
0.11909449475955275
 30
0.0
 11
-1.63877952755906
 21
0.11909449475955275
 31
0.0
  0
LINE
  8
0
 62
0
 10
-3.107775590551186
 20
1.4005905511810908
 30
0.0
 11
-3.107775590551186
 21
0.88877952755904
 31
0.0
  0
LINE
  8
0
 62
0
 10
-2.5762795275590604
 20
1.4202755905511677
 30
0.0
 11
-3.0880905511811063
 21
1.4202755905511677
 31
0.0
  0
LINE
  8
0
 62
0
 10
-7.263779527559061
 20
2.1702755905511677
 30
0.0
 11
-7.775590551181108
 21
2.1702755905511677
 31
0.0
  0
LINE
  8
0
 62
0
 10
-4.588090551181108
 20
0.8690944881889632
 30
0.0
 11
-4.07627952755906
 21
0.8690944881889632
 31
0.0
  0
LINE
  8
0
 62
0
 10
-4.607775590551187
 20
1.4005905511810888
 30
0.0
 11
-4.607775590551187
 21
0.8887795275590415
 31
0.0
  0
LINE
  8
0
 62
0
 10
-4.07627952755906
 20
1.4202755905511677
 30
0.0
 11
-4.588090551181108
 21
1.4202755905511677
 31
0.0
  0
LINE
  8
0
 62
0
 10
-0.8033956692913425
 20
1.1677952755905396
 30
0.0
 11
-0.8033956692913425
 21
0.9315748031495912
 31
0.0
  0
LINE
  8
0
 62
0
 10
-6.107775590551185
 20
1.4005905511810888
 30
0.0
 11
-6.107775590551185
 21
0.8887795275590415
 31
0.0
  0
LINE
  8
0
 62
0
 10
-4.775590551181106
 20
1.6190944881889626
 30
0.0
 11
-4.263779527559059
 21
1.6190944881889626
 31
0.0
  0
LINE
  8
0
 62
0
 10
-4.795275590551186
 20
2.150590551181089
 30
0.0
 11
-4.795275590551186
 21
1.6387795275590407
 31
0.0
  0
LINE
  8
0
 62
0
 10
-4.263779527559059
 20
2.1702755905511677
 30
0.0
 11
-4.775590551181106
 21
2.1702755905511677
 31
0.0
  0
LINE
  8
0
 62
0
 10
-7.244094488188981
 20
1.6387795275590407
 30
0.0
 11
-7.244094488188981
 21
2.150590551181089
 31
0.0
  0
LINE
  8
0
 62
0
 10
-0.28690944881890174
 20
1.8518897637795138
 30
0.0
 11
-0.23252952755905965
 21
1.8518897637795138
 31
0.0
  0
LINE
  8
0
 62
0
 10
-0.21284448818898002
 20
1.871574803149593
 30
0.0
 11
-0.21284448818898002
 21
2.107795275590538
 31
0.0
  0
LINE
  8
0
 62
0
 10
-7.775590551181108
 20
1.6190944881889626
 30
0.0
 11
-7.263779527559061
 21
1.6190944881889626
 31
0.0
  0
LINE
  8
0
 62
0
 10
-0.21284448818898002
 20
0.888779527559042
 30
0.0
 11
-0.21284448818898002
 21
1.775590551181089
 31
0.0
  0
LINE
  8
0
 62
0
 10
-0.8577755905511847
 20
1.6387795275590407
 30
0.0
 11
-0.8577755905511847
 21
2.150590551181089
 31
0.0
  0
LINE
  8
0
 62
0
 10
-2.17027532457341
 20
0.6505905577516796
 30
0.0
 11
-2.17027532457341
 21
0.13877953412963145
 31
0.0
  0
LINE
  8
0
 62
0
 10
-6.088090551181108
 20
0.8690944881889632
 30
0.0
 11
-5.576279527559061
 21
0.8690944881889632
 31
0.0
  0
LINE
  8
0
 62
0
 10
-4.05659448818898
 20
0.888779527559042
 30
0.0
 11
-4.05659448818898
 21
1.4005905511810888
 31
0.0
  0
LINE
  8
0
 62
0
 10
-5.556594488188981
 20
0.888779527559042
 30
0.0
 11
-5.556594488188981
 21
1.4005905511810888
 31
0.0
  0
LINE
  8
0
 62
0
 10
-3.2755905511811068
 20
1.6190944881889626
 30
0.0
 11
-2.763779527559058
 21
1.6190944881889626
 31
0.0
  0
LINE
  8
0
 62
0
 10
-2.763779527559058
 20
2.1702755905511677
 30
0.0
 11
-3.2755905511811068
 21
2.1702755905511677
 31
0.0
  0
LINE
  8
0
 62
0
 10
-7.795275590551187
 20
2.150590551181089
 30
0.0
 11
-7.795275590551187
 21
1.6387795275590407
 31
0.0
  0
LINE
  8
0
 62
0
 10
-4.24409448818898
 20
1.6387795275590407
 30
0.0
 11
-4.24409448818898
 21
2.150590551181089
 31
0.0
  0
LINE
  8
0
 62
0
 10
-0.23252952755905965
 20
1.795275590551168
 30
0.0
 11
-0.28690944881890174
 21
1.795275590551168
 31
0.0
  0
LINE
  8
0
 62
0
 10
-5.576279527559061
 20
1.4202755905511677
 30
0.0
 11
-6.088090551181108
 21
1.4202755905511677
 31
0.0
  0
LINE
  8
0
 62
0
 10
-2.7440944881889804
 20
1.6387795275590438
 30
0.0
 11
-2.7440944881889804
 21
2.1505905511810868
 31
0.0
  0
LINE
  8
0
 62
0
 10
-3.107775590551186
 20
0.6505905511810915
 30
0.0
 11
-3.107775590551186
 21
0.13877952755904027
 31
0.0
  0
LINE
  8
0
 62
0
 10
-6.275590551181105
 20
1.6190944881889626
 30
0.0
 11
-5.763779527559061
 21
1.6190944881889626
 31
0.0
  0
LINE
  8
0
 62
0
 10
-3.0880905511811063
 20
0.8690944881889632
 30
0.0
 11
-2.5762795275590604
 21
0.8690944881889632
 31
0.0
  0
LINE
  8
0
 62
0
 10
-3.2952755905511855
 20
2.150590551181089
 30
0.0
 11
-3.2952755905511855
 21
1.6387795275590407
 31
0.0
  0
LINE
  8
0
 62
0
 10
-2.5565944881889804
 20
0.888779527559042
 30
0.0
 11
-2.5565944881889804
 21
1.4005905511810888
 31
0.0
  0
LINE
  8
0
 62
0
 10
-1.775590551181107
 20
1.6190944881889626
 30
0.0
 11
-1.2637795275590595
 21
1.6190944881889626
 31
0.0
  0
LINE
  8
0
 62
0
 10
-0.7640255905511848
 20
1.5994094488188837
 30
0.0
 11
-0.7640255905511848
 21
1.2071653543306955
 31
0.0
  0
LINE
  8
0
 62
0
 10
-0.7837106299212644
 20
1.6190944881889626
 30
0.0
 11
-0.8380905511811064
 21
1.6190944881889626
 31
0.0
  0
LINE
  8
0
 62
0
 10
-5.763779527559061
 20
2.1702755905511677
 30
0.0
 11
-6.275590551181105
 21
2.1702755905511677
 31
0.0
  0
LINE
  8
0
 62
0
 10
-3.0880905511811063
 20
0.11909449475955275
 30
0.0
 11
-2.5265748031496105
 21
0.11909449475955275
 31
0.0
  0
LINE
  8
0
 62
0
 10
-0.8380905511811064
 20
2.170275590551167
 30
0.0
 11
-0.32627952755905965
 21
2.170275590551167
 31
0.0
  0
LINE
  8
0
 62
0
 10
-5.744094488188981
 20
1.6387795275590427
 30
0.0
 11
-5.744094488188981
 21
2.150590551181088
 31
0.0
  0
LINE
  8
0
 62
0
 10
-0.23252952755905965
 20
0.8690944881889632
 30
0.0
 11
-0.7443405511811066
 21
0.8690944881889632
 31
0.0
  0
LINE
  8
0
 62
0
 10
-2.5068897637795304
 20
0.138779527559042
 30
0.0
 11
-2.5068897637795304
 21
0.6899606299212467
 31
0.0
  0
LINE
  8
0
 62
0
 10
-0.23252952755905965
 20
2.127480314960617
 30
0.0
 11
-0.28690944881890174
 21
2.127480314960617
 31
0.0
  0
LINE
  8
0
 62
0
 10
-6.857775590551186
 20
1.4005905511810888
 30
0.0
 11
-6.857775590551186
 21
0.8887795275590415
 31
0.0
  0
LINE
  8
0
 62
0
 10
-6.326279527559061
 20
1.4202755905511677
 30
0.0
 11
-6.838090551181105
 21
1.4202755905511677
 31
0.0
  0
LINE
  8
0
 62
0
 10
-1.2637795275590595
 20
2.1702755905511677
 30
0.0
 11
-1.775590551181107
 21
2.1702755905511677
 31
0.0
  0
LINE
  8
0
 62
0
 10
-6.838090551181105
 20
0.8690944881889632
 30
0.0
 11
-6.326279527559061
 21
0.8690944881889632
 31
0.0
  0
LINE
  8
0
 62
0
 10
-1.7952755905511846
 20
2.1505905511810908
 30
0.0
 11
-1.7952755905511846
 21
1.6387795275590389
 31
0.0
  0
LINE
  8
0
 62
0
 10
-1.2440944881889795
 20
1.6387795275590407
 30
0.0
 11
-1.2440944881889795
 21
2.150590551181089
 31
0.0
  0
LINE
  8
0
 62
0
 10
-6.3065944881889795
 20
0.888779527559042
 30
0.0
 11
-6.3065944881889795
 21
1.4005905511810888
 31
0.0
  0
ARC
  8
0
 62
0
 10
-3.2755905511811068
 20
1.6387795275590407
 30
0.0
 40
0.019685039370079593
 50
-180.0
 51
-90.0
  0
ARC
  8
0
 62
0
 10
-1.2637795275590595
 20
1.6387795275590407
 30
0.0
 40
0.019685039370079593
 50
-90.0
 51
-0.0
  0
ARC
  8
0
 62
0
 10
-2.763779527559058
 20
2.1505905511810868
 30
0.0
 40
0.019685039370079593
 50
-0.0
 51
90.0
  0
ARC
  8
0
 62
0
 10
-1.775590551181107
 20
1.6387795275590389
 30
0.0
 40
0.01968503937007826
 50
-180.0
 51
-90.0
  0
ARC
  8
0
 62
0
 10
-3.2755905511811068
 20
2.150590551181089
 30
0.0
 40
0.019685039370079593
 50
90.0
 51
-180.0
  0
ARC
  8
0
 62
0
 10
-1.2637795275590595
 20
2.150590551181089
 30
0.0
 40
0.019685039370079593
 50
-0.0
 51
90.0
  0
LINE
  8
0
 62
0
 10
-7.588090551181105
 20
0.8690944881889632
 30
0.0
 11
-7.07627952755906
 21
0.8690944881889632
 31
0.0
  0
ARC
  8
0
 62
0
 10
-4.263779527559059
 20
2.150590551181089
 30
0.0
 40
0.019685039370077817
 50
-0.0
 51
90.0
  0
ARC
  8
0
 62
0
 10
-4.775590551181106
 20
2.150590551181089
 30
0.0
 40
0.019685039370079593
 50
90.0
 51
-180.0
  0
ARC
  8
0
 62
0
 10
-2.763779527559058
 20
1.6387795275590438
 30
0.0
 40
0.019685039370079593
 50
-90.0
 51
-0.0
  0
ARC
  8
0
 62
0
 10
-6.326279527559061
 20
0.888779527559042
 30
0.0
 40
0.019685039370079593
 50
-90.0
 51
-0.0
  0
ARC
  8
0
 62
0
 10
-6.838090551181105
 20
0.888779527559042
 30
0.0
 40
0.019685039370078705
 50
-180.0
 51
-90.0
  0
ARC
  8
0
 62
0
 10
-6.326279527559061
 20
1.4005905511810888
 30
0.0
 40
0.019685039370079593
 50
-0.0
 51
90.0
  0
LINE
  8
0
 62
0
 10
-7.607775590551188
 20
1.4005905511810888
 30
0.0
 11
-7.607775590551188
 21
0.8887795275590415
 31
0.0
  0
ARC
  8
0
 62
0
 10
-6.088090551181108
 20
0.888779527559042
 30
0.0
 40
0.019685039370079593
 50
-180.0
 51
-90.0
  0
ARC
  8
0
 62
0
 10
-6.088090551181108
 20
1.4005905511810888
 30
0.0
 40
0.019685039370079593
 50
90.0
 51
-180.0
  0
ARC
  8
0
 62
0
 10
-5.576279527559061
 20
1.4005905511810888
 30
0.0
 40
0.019685039370078705
 50
-0.0
 51
90.0
  0
ARC
  8
0
 62
0
 10
-6.838090551181105
 20
1.4005905511810888
 30
0.0
 40
0.019685039370078705
 50
90.0
 51
-180.0
  0
ARC
  8
0
 62
0
 10
-4.263779527559059
 20
1.6387795275590407
 30
0.0
 40
0.019685039370077817
 50
-90.0
 51
-0.0
  0
ARC
  8
0
 62
0
 10
-4.775590551181106
 20
1.6387795275590407
 30
0.0
 40
0.019685039370079593
 50
-180.0
 51
-90.0
  0
ARC
  8
0
 62
0
 10
-1.775590551181107
 20
2.1505905511810908
 30
0.0
 40
0.01968503937007826
 50
90.0
 51
-180.0
  0
LINE
  8
0
 62
0
 10
-7.07627952755906
 20
1.4202755905511677
 30
0.0
 11
-7.588090551181105
 21
1.4202755905511677
 31
0.0
  0
ARC
  8
0
 62
0
 10
-5.576279527559061
 20
0.888779527559042
 30
0.0
 40
0.019685039370078705
 50
-90.0
 51
-0.0
  0
ARC
  8
0
 62
0
 10
-0.888779261581284
 20
0.13877953412963165
 30
0.0
 40
0.019685039370079607
 50
-89.89540688978207
 51
-0.0
  0
ARC
  8
0
 62
0
 10
-8.20127952755906
 20
2.388779527559042
 30
0.0
 40
0.019685039370077817
 50
-90.0
 51
-0.0
  0
ARC
  8
0
 62
0
 10
-8.713090551181109
 20
2.388779527559042
 30
0.0
 40
0.019685039370077817
 50
-180.0
 51
-90.0
  0
ARC
  8
0
 62
0
 10
-7.963090551181109
 20
2.9005905511810894
 30
0.0
 40
0.019685039370079593
 50
90.0
 51
-180.0
  0
ARC
  8
0
 62
0
 10
-7.451279527559061
 20
2.9005905511810894
 30
0.0
 40
0.019685039370078705
 50
-0.0
 51
90.0
  0
ARC
  8
0
 62
0
 10
-7.451279527559061
 20
2.388779527559042
 30
0.0
 40
0.019685039370078705
 50
-90.0
 51
-0.0
  0
ARC
  8
0
 62
0
 10
-6.513779527559061
 20
2.150590551181089
 30
0.0
 40
0.019685039370079593
 50
-0.0
 51
90.0
  0
ARC
  8
0
 62
0
 10
-8.01377952755906
 20
1.6387795275590407
 30
0.0
 40
0.019685039370079593
 50
-90.0
 51
-0.0
  0
ARC
  8
0
 62
0
 10
-8.525590551181107
 20
1.6387795275590407
 30
0.0
 40
0.019685039370077817
 50
-180.0
 51
-90.0
  0
ARC
  8
0
 62
0
 10
-6.701279527559061
 20
2.9005905511810894
 30
0.0
 40
0.019685039370079593
 50
-0.0
 51
90.0
  0
ARC
  8
0
 62
0
 10
-7.213090551181109
 20
2.9005905511810894
 30
0.0
 40
0.019685039370077817
 50
90.0
 51
-180.0
  0
ARC
  8
0
 62
0
 10
-2.7130905511811063
 20
2.9005905511810894
 30
0.0
 40
0.01968503937007826
 50
90.0
 51
-180.0
  0
ARC
  8
0
 62
0
 10
-8.525590551181107
 20
2.150590551181089
 30
0.0
 40
0.019685039370077817
 50
90.0
 51
-180.0
  0
ARC
  8
0
 62
0
 10
-8.01377952755906
 20
2.150590551181089
 30
0.0
 40
0.019685039370079593
 50
-0.0
 51
90.0
  0
ARC
  8
0
 62
0
 10
-6.701279527559061
 20
2.388779527559042
 30
0.0
 40
0.019685039370079593
 50
-90.0
 51
-0.0
  0
ARC
  8
0
 62
0
 10
-7.213090551181109
 20
2.388779527559042
 30
0.0
 40
0.019685039370077817
 50
-180.0
 51
-90.0
  0
ARC
  8
0
 62
0
 10
-1.8262795275590589
 20
1.4005905511810888
 30
0.0
 40
0.01968503937007826
 50
-0.0
 51
90.0
  0
ARC
  8
0
 62
0
 10
-7.963090551181109
 20
2.388779527559042
 30
0.0
 40
0.019685039370079593
 50
-180.0
 51
-90.0
  0
ARC
  8
0
 62
0
 10
-0.888779261581284
 20
0.6505905577516796
 30
0.0
 40
0.019685039370079593
 50
-0.0
 51
90.0
  0
ARC
  8
0
 62
0
 10
-1.4005902852033307
 20
0.13877953412963165
 30
0.0
 40
0.01968503937007826
 50
-180.0
 51
-89.89540689190673
  0
ARC
  8
0
 62
0
 10
-8.713090551181109
 20
2.9005905511810894
 30
0.0
 40
0.019685039370077817
 50
90.0
 51
-180.0
  0
ARC
  8
0
 62
0
 10
-8.20127952755906
 20
2.9005905511810894
 30
0.0
 40
0.019685039370077817
 50
-0.0
 51
90.0
  0
ARC
  8
0
 62
0
 10
-1.4005902852033307
 20
0.6505905577516796
 30
0.0
 40
0.01968503937007826
 50
90.0
 51
-180.0
  0
ARC
  8
0
 62
0
 10
-7.025590551181105
 20
2.150590551181089
 30
0.0
 40
0.019685039370078705
 50
90.0
 51
-180.0
  0
ARC
  8
0
 62
0
 10
-6.513779527559061
 20
1.6387795275590407
 30
0.0
 40
0.019685039370079593
 50
-90.0
 51
-0.0
  0
ARC
  8
0
 62
0
 10
-3.463090551181106
 20
2.388779527559042
 30
0.0
 40
0.01968503937007826
 50
-180.0
 51
-90.0
  0
ARC
  8
0
 62
0
 10
-3.463090551181106
 20
2.9005905511810894
 30
0.0
 40
0.01968503937007826
 50
90.0
 51
-180.0
  0
ARC
  8
0
 62
0
 10
-5.20127952755906
 20
2.388779527559042
 30
0.0
 40
0.019685039370077817
 50
-90.0
 51
-0.0
  0
ARC
  8
0
 62
0
 10
-5.713090551181106
 20
2.388779527559042
 30
0.0
 40
0.019685039370079593
 50
-180.0
 51
-90.0
  0
ARC
  8
0
 62
0
 10
-5.951279527559061
 20
2.9005905511810894
 30
0.0
 40
0.019685039370078705
 50
-0.0
 51
90.0
  0
ARC
  8
0
 62
0
 10
-4.451279527559061
 20
2.9005905511810894
 30
0.0
 40
0.019685039370077817
 50
-0.0
 51
90.0
  0
ARC
  8
0
 62
0
 10
-4.213090551181107
 20
2.9005905511810894
 30
0.0
 40
0.019685039370077817
 50
90.0
 51
-180.0
  0
ARC
  8
0
 62
0
 10
-6.463090551181105
 20
2.9005905511810894
 30
0.0
 40
0.019685039370078705
 50
90.0
 51
-180.0
  0
ARC
  8
0
 62
0
 10
-4.963090551181105
 20
2.388779527559042
 30
0.0
 40
0.019685039370079593
 50
-180.0
 51
-90.0
  0
ARC
  8
0
 62
0
 10
-4.451279527559061
 20
2.388779527559042
 30
0.0
 40
0.019685039370077817
 50
-90.0
 51
-0.0
  0
ARC
  8
0
 62
0
 10
-3.7012795275590595
 20
2.388779527559042
 30
0.0
 40
0.019685039370078705
 50
-90.0
 51
-0.0
  0
ARC
  8
0
 62
0
 10
-6.463090551181105
 20
2.388779527559042
 30
0.0
 40
0.019685039370078705
 50
-180.0
 51
-90.0
  0
ARC
  8
0
 62
0
 10
-5.951279527559061
 20
2.388779527559042
 30
0.0
 40
0.019685039370078705
 50
-90.0
 51
-0.0
  0
ARC
  8
0
 62
0
 10
-4.213090551181107
 20
2.388779527559042
 30
0.0
 40
0.019685039370077817
 50
-180.0
 51
-90.0
  0
ARC
  8
0
 62
0
 10
-3.7012795275590595
 20
2.9005905511810894
 30
0.0
 40
0.019685039370078705
 50
-0.0
 51
90.0
  0
ARC
  8
0
 62
0
 10
-5.713090551181106
 20
2.9005905511810894
 30
0.0
 40
0.019685039370079593
 50
90.0
 51
-180.0
  0
ARC
  8
0
 62
0
 10
-5.20127952755906
 20
2.9005905511810894
 30
0.0
 40
0.019685039370077817
 50
-0.0
 51
90.0
  0
ARC
  8
0
 62
0
 10
-4.963090551181105
 20
2.9005905511810894
 30
0.0
 40
0.019685039370078705
 50
90.0
 51
-180.0
  0
ARC
  8
0
 62
0
 10
-2.951279527559058
 20
2.9005905511810894
 30
0.0
 40
0.01968503937007826
 50
-0.0
 51
90.0
  0
ARC
  8
0
 62
0
 10
-2.951279527559058
 20
2.388779527559042
 30
0.0
 40
0.01968503937007826
 50
-90.0
 51
-0.0
  0
ARC
  8
0
 62
0
 10
-7.025590551181105
 20
1.6387795275590407
 30
0.0
 40
0.019685039370078705
 50
-180.0
 51
-90.0
  0
ARC
  8
0
 62
0
 10
-0.23252952755905965
 20
1.871574803149593
 30
0.0
 40
0.019685039370079593
 50
-90.00000000000033
 51
-0.0
  0
ARC
  8
0
 62
0
 10
-2.150590285203331
 20
0.6505905577516796
 30
0.0
 40
0.01968503937007826
 50
90.0
 51
-180.0
  0
ARC
  8
0
 62
0
 10
-3.0880905511811063
 20
0.88877952755904
 30
0.0
 40
0.01968503937007693
 50
-180.0
 51
-90.0
  0
ARC
  8
0
 62
0
 10
-6.275590551181105
 20
2.150590551181089
 30
0.0
 40
0.019685039370078705
 50
90.0
 51
-180.0
  0
ARC
  8
0
 62
0
 10
-0.28690944881890174
 20
2.1471653543306948
 30
0.0
 40
0.019685039370078206
 50
-180.0
 51
-90.00000000000048
  0
ARC
  8
0
 62
0
 10
-3.0880905511811063
 20
1.4005905511810908
 30
0.0
 40
0.01968503937007693
 50
90.0
 51
-180.0
  0
ARC
  8
0
 62
0
 10
-2.5762795275590604
 20
1.4005905511810888
 30
0.0
 40
0.019685039370079593
 50
-0.0
 51
90.0
  0
ARC
  8
0
 62
0
 10
-4.07627952755906
 20
0.888779527559042
 30
0.0
 40
0.019685039370078705
 50
-90.0
 51
-0.0
  0
ARC
  8
0
 62
0
 10
-4.588090551181108
 20
0.888779527559042
 30
0.0
 40
0.019685039370078705
 50
-180.0
 51
-90.0
  0
ARC
  8
0
 62
0
 10
-4.588090551181108
 20
1.4005905511810888
 30
0.0
 40
0.019685039370078705
 50
90.0
 51
-180.0
  0
ARC
  8
0
 62
0
 10
-4.07627952755906
 20
1.4005905511810888
 30
0.0
 40
0.019685039370078705
 50
-0.0
 51
90.0
  0
ARC
  8
0
 62
0
 10
-6.275590551181105
 20
1.6387795275590407
 30
0.0
 40
0.019685039370078705
 50
-180.0
 51
-90.0
  0
ARC
  8
0
 62
0
 10
-2.5762795275590604
 20
0.888779527559042
 30
0.0
 40
0.019685039370079593
 50
-90.0
 51
-0.0
  0
ARC
  8
0
 62
0
 10
-7.263779527559061
 20
1.6387795275590407
 30
0.0
 40
0.019685039370078705
 50
-90.0
 51
-0.0
  0
ARC
  8
0
 62
0
 10
-0.23252952755905965
 20
2.107795275590538
 30
0.0
 40
0.01968503937007962
 50
-0.0
 51
90.00000000000009
  0
ARC
  8
0
 62
0
 10
-7.263779527559061
 20
2.150590551181089
 30
0.0
 40
0.019685039370078705
 50
-0.0
 51
90.0
  0
ARC
  8
0
 62
0
 10
-7.775590551181108
 20
1.6387795275590407
 30
0.0
 40
0.019685039370079593
 50
-180.0
 51
-90.0
  0
ARC
  8
0
 62
0
 10
-7.775590551181108
 20
2.150590551181089
 30
0.0
 40
0.019685039370079593
 50
90.0
 51
-180.0
  0
ARC
  8
0
 62
0
 10
-5.763779527559061
 20
1.6387795275590427
 30
0.0
 40
0.019685039370079593
 50
-90.0
 51
-0.0
  0
ARC
  8
0
 62
0
 10
-5.763779527559061
 20
2.150590551181088
 30
0.0
 40
0.019685039370079593
 50
-0.0
 51
90.0
  0
ARC
  8
0
 62
0
 10
-1.6387792615812837
 20
0.6505905577516796
 30
0.0
 40
0.01968503937007826
 50
-0.0
 51
90.0
  0
ARC
  8
0
 62
0
 10
-1.6387792615812837
 20
0.13877953412963165
 30
0.0
 40
0.019685039370078303
 50
-89.89540689190738
 51
-0.0
  0
ARC
  8
0
 62
0
 10
-2.150590285203331
 20
0.13877953412963165
 30
0.0
 40
0.01968503937007826
 50
-180.0
 51
-90.0
  0
ARC
  8
0
 62
0
 10
-1.0762795275590575
 20
1.4005905511810888
 30
0.0
 40
0.01968503937007826
 50
-0.0
 51
90.0
  0
ARC
  8
0
 62
0
 10
-2.20127952755906
 20
2.9005905511810894
 30
0.0
 40
0.019685039370079593
 50
-0.0
 51
90.0
  0
ARC
  8
0
 62
0
 10
-8.338090551181109
 20
0.888779527559042
 30
0.0
 40
0.019685039370079593
 50
-180.0
 51
-90.0
  0
ARC
  8
0
 62
0
 10
-3.5565748031496107
 20
0.6899606299212467
 30
0.0
 40
0.01968503937007826
 50
-0.0
 51
90.0
  0
ARC
  8
0
 62
0
 10
-8.85752952755906
 20
1.6387795275590407
 30
0.0
 40
0.019685039370077817
 50
-90.0
 51
-0.0
  0
ARC
  8
0
 62
0
 10
-8.85752952755906
 20
2.150590551181089
 30
0.0
 40
0.019685039370077817
 50
-0.0
 51
90.0
  0
ARC
  8
0
 62
0
 10
-0.6505902852033308
 20
0.6505905577516796
 30
0.0
 40
0.01968503937007826
 50
90.0
 51
-180.0
  0
ARC
  8
0
 62
0
 10
-1.5880905511811048
 20
1.4005905511810888
 30
0.0
 40
0.01968503937007826
 50
90.0
 51
-180.0
  0
ARC
  8
0
 62
0
 10
-0.9318405511811066
 20
2.9005905511810894
 30
0.0
 40
0.019685039370079593
 50
90.0
 51
-180.0
  0
ARC
  8
0
 62
0
 10
-9.463090551181109
 20
2.388779527559042
 30
0.0
 40
0.019685039370077817
 50
-180.0
 51
-90.0
  0
ARC
  8
0
 62
0
 10
-5.994340551181108
 20
0.6505905511810892
 30
0.0
 40
0.019685039370079593
 50
90.0
 51
-180.0
  0
ARC
  8
0
 62
0
 10
-1.4512795275590586
 20
2.9005905511810894
 30
0.0
 40
0.01968503937007826
 50
-0.0
 51
90.0
  0
ARC
  8
0
 62
0
 10
-1.4512795275590586
 20
2.388779527559042
 30
0.0
 40
0.01968503937007826
 50
-90.0
 51
-0.0
  0
ARC
  8
0
 62
0
 10
-1.963090551181107
 20
2.388779527559042
 30
0.0
 40
0.019685039370079593
 50
-180.0
 51
-90.0
  0
ARC
  8
0
 62
0
 10
-9.369340551181109
 20
2.150590551181089
 30
0.0
 40
0.019685039370077817
 50
90.0
 51
-180.0
  0
ARC
  8
0
 62
0
 10
-9.369340551181109
 20
1.6387795275590407
 30
0.0
 40
0.019685039370077817
 50
-180.0
 51
-90.0
  0
ARC
  8
0
 62
0
 10
-1.963090551181107
 20
2.9005905511810894
 30
0.0
 40
0.019685039370079593
 50
90.0
 51
-180.0
  0
ARC
  8
0
 62
0
 10
-3.792795275590556
 20
0.138779527559042
 30
0.0
 40
0.01968503937007915
 50
-180.0
 51
-90.0
  0
ARC
  8
0
 62
0
 10
-0.13877926158128376
 20
0.13877953412963398
 30
0.0
 40
0.019685039370079607
 50
-89.89540689243758
 51
-0.0
  0
ARC
  8
0
 62
0
 10
-2.7130905511811063
 20
2.388779527559042
 30
0.0
 40
0.01968503937007826
 50
-180.0
 51
-90.0
  0
ARC
  8
0
 62
0
 10
-8.338090551181109
 20
1.4005905511810888
 30
0.0
 40
0.019685039370077817
 50
90.0
 51
-180.0
  0
ARC
  8
0
 62
0
 10
-3.5565748031496107
 20
0.138779527559042
 30
0.0
 40
0.019685039370078303
 50
-90.0
 51
-0.0
  0
ARC
  8
0
 62
0
 10
-8.85752952755906
 20
0.6505905511810892
 30
0.0
 40
0.019685039370077817
 50
-0.0
 51
90.0
  0
ARC
  8
0
 62
0
 10
-7.826279527559062
 20
1.4005905511810888
 30
0.0
 40
0.019685039370078705
 50
-0.0
 51
90.0
  0
ARC
  8
0
 62
0
 10
-7.826279527559062
 20
0.888779527559042
 30
0.0
 40
0.019685039370078705
 50
-90.0
 51
-0.0
  0
ARC
  8
0
 62
0
 10
-8.85752952755906
 20
0.138779527559042
 30
0.0
 40
0.019685039370077817
 50
-90.0
 51
-0.0
  0
ARC
  8
0
 62
0
 10
-6.326545275590557
 20
0.6899606299212467
 30
0.0
 40
0.019685039370078705
 50
90.0
 51
-180.0
  0
ARC
  8
0
 62
0
 10
-3.792795275590556
 20
0.6899606299212467
 30
0.0
 40
0.01968503937007926
 50
90.0
 51
-180.0
  0
ARC
  8
0
 62
0
 10
-9.369340551181109
 20
0.138779527559042
 30
0.0
 40
0.019685039370079593
 50
-180.0
 51
-90.0
  0
ARC
  8
0
 62
0
 10
-6.090324803149611
 20
0.6899606299212467
 30
0.0
 40
0.019685039370078705
 50
-0.0
 51
90.0
  0
ARC
  8
0
 62
0
 10
-2.20127952755906
 20
2.388779527559042
 30
0.0
 40
0.019685039370079593
 50
-90.0
 51
-0.0
  0
ARC
  8
0
 62
0
 10
-6.090324803149611
 20
0.138779527559042
 30
0.0
 40
0.019685039370078705
 50
-90.0
 51
-0.0
  0
ARC
  8
0
 62
0
 10
-0.9318405511811066
 20
2.388779527559042
 30
0.0
 40
0.019685039370079482
 50
-180.0
 51
-90.00000000000065
  0
ARC
  8
0
 62
0
 10
-0.4200295275590584
 20
2.388779527559042
 30
0.0
 40
0.01968503937007826
 50
-90.00000000000033
 51
-0.0
  0
ARC
  8
0
 62
0
 10
-0.6505902852033308
 20
0.13877953412963165
 30
0.0
 40
0.01968503937007826
 50
180.0
 51
-89.89540689084455
  0
ARC
  8
0
 62
0
 10
-6.326545275590554
 20
0.138779527559042
 30
0.0
 40
0.019685039370079593
 50
-180.0
 51
-90.0
  0
ARC
  8
0
 62
0
 10
-5.482529527559061
 20
0.13877952755904255
 30
0.0
 40
0.019685039370078705
 50
-90.0
 51
-0.0
  0
ARC
  8
0
 62
0
 10
-0.13877926158128376
 20
0.6505905577516776
 30
0.0
 40
0.019685039370079607
 50
-0.0
 51
90.00000000000009
  0
ARC
  8
0
 62
0
 10
-5.994340551181108
 20
0.138779527559042
 30
0.0
 40
0.019685039370079593
 50
-180.0
 51
-90.0
  0
ARC
  8
0
 62
0
 10
-9.463090551181109
 20
2.9005905511810894
 30
0.0
 40
0.019685039370077817
 50
90.0
 51
-180.0
  0
ARC
  8
0
 62
0
 10
-9.369340551181109
 20
0.6505905511810892
 30
0.0
 40
0.019685039370077817
 50
90.0
 51
-180.0
  0
ARC
  8
0
 62
0
 10
-5.482529527559061
 20
0.6505905511810882
 30
0.0
 40
0.019685039370078705
 50
-0.0
 51
90.0
  0
ARC
  8
0
 62
0
 10
-8.951279527559063
 20
2.9005905511810894
 30
0.0
 40
0.019685039370077817
 50
-0.0
 51
90.0
  0
ARC
  8
0
 62
0
 10
-8.951279527559063
 20
2.388779527559042
 30
0.0
 40
0.019685039370077817
 50
-90.0
 51
-0.0
  0
ARC
  8
0
 62
0
 10
-1.0762795275590575
 20
0.888779527559042
 30
0.0
 40
0.01968503937007826
 50
-90.0
 51
-0.0
  0
ARC
  8
0
 62
0
 10
-1.5880905511811048
 20
0.888779527559042
 30
0.0
 40
0.019685039370078483
 50
-180.0
 51
-90.0
  0
ARC
  8
0
 62
0
 10
-0.4200295275590584
 20
2.9005905511810894
 30
0.0
 40
0.019685039370078317
 50
-0.0
 51
90.0
  0
ARC
  8
0
 62
0
 10
-0.8380905511811064
 20
1.6387795275590407
 30
0.0
 40
0.01968503937007826
 50
-180.0
 51
-90.00000000000065
  0
ARC
  8
0
 62
0
 10
-0.8380905511811064
 20
2.150590551181089
 30
0.0
 40
0.01968503937007826
 50
90.0
 51
-180.0
  0
ARC
  8
0
 62
0
 10
-0.23252952755905965
 20
1.775590551181089
 30
0.0
 40
0.01968503937007962
 50
-0.0
 51
90.00000000000009
  0
ARC
  8
0
 62
0
 10
-0.7837106299212644
 20
1.2071653543306955
 30
0.0
 40
0.019685039370079593
 50
-90.00000000000033
 51
-0.0
  0
ARC
  8
0
 62
0
 10
-0.32627952755905965
 20
2.150590551181089
 30
0.0
 40
0.019685039370079593
 50
-0.0
 51
90.0
  0
ARC
  8
0
 62
0
 10
-4.400590551181107
 20
0.6505905511810892
 30
0.0
 40
0.019685039370078705
 50
90.0
 51
-180.0
  0
ARC
  8
0
 62
0
 10
-4.732795275590557
 20
0.6899606299212467
 30
0.0
 40
0.019685039370077817
 50
90.0
 51
-180.0
  0
ARC
  8
0
 62
0
 10
-8.338090551181109
 20
0.138779527559042
 30
0.0
 40
0.019685039370079593
 50
-180.0
 51
-90.0
  0
ARC
  8
0
 62
0
 10
-3.0880905511811063
 20
0.6505905511810915
 30
0.0
 40
0.01968503937007693
 50
90.0
 51
-180.0
  0
ARC
  8
0
 62
0
 10
-7.306840551181109
 20
0.6505905511810897
 30
0.0
 40
0.019685039370077817
 50
90.0
 51
-180.0
  0
ARC
  8
0
 62
0
 10
-0.7837106299212644
 20
1.5994094488188837
 30
0.0
 40
0.019685039370079593
 50
-0.0
 51
90.0
  0
ARC
  8
0
 62
0
 10
-5.386545275590555
 20
0.6899606299212474
 30
0.0
 40
0.019685039370078705
 50
90.0
 51
-180.0
  0
ARC
  8
0
 62
0
 10
-7.306840551181109
 20
0.13877952755904158
 30
0.0
 40
0.019685039370077817
 50
-180.0
 51
-90.0
  0
ARC
  8
0
 62
0
 10
-5.386545275590555
 20
0.13877952755904027
 30
0.0
 40
0.019685039370078705
 50
-180.0
 51
-90.0
  0
ARC
  8
0
 62
0
 10
-3.0880905511811063
 20
0.13877952755904027
 30
0.0
 40
0.01968503937007693
 50
-180.0
 51
-90.0
  0
ARC
  8
0
 62
0
 10
-4.772165354330713
 20
0.6899606299212467
 30
0.0
 40
0.019685039370078705
 50
-90.0
 51
-0.0
  0
ARC
  8
0
 62
0
 10
-9.275590551181109
 20
1.4005905511810888
 30
0.0
 40
0.019685039370077817
 50
90.0
 51
-180.0
  0
ARC
  8
0
 62
0
 10
-7.826279527559062
 20
0.138779527559042
 30
0.0
 40
0.019685039370078705
 50
-90.0
 51
-0.0
  0
ARC
  8
0
 62
0
 10
-7.026574803149611
 20
0.6899606299212467
 30
0.0
 40
0.019685039370077817
 50
-0.0
 51
90.0
  0
ARC
  8
0
 62
0
 10
-3.8887795275590586
 20
0.6505905511810892
 30
0.0
 40
0.01968503937007915
 50
-0.0
 51
90.0
  0
ARC
  8
0
 62
0
 10
-0.23252952755905965
 20
0.888779527559042
 30
0.0
 40
0.019685039370079593
 50
-90.00000000000033
 51
-0.0
  0
ARC
  8
0
 62
0
 10
-4.496574803149611
 20
0.6899606299212467
 30
0.0
 40
0.019685039370078705
 50
-0.0
 51
90.0
  0
ARC
  8
0
 62
0
 10
-4.400590551181107
 20
0.138779527559042
 30
0.0
 40
0.019685039370078705
 50
-180.0
 51
-90.0
  0
ARC
  8
0
 62
0
 10
-9.275590551181109
 20
0.888779527559042
 30
0.0
 40
0.019685039370079593
 50
-180.0
 51
-90.0
  0
ARC
  8
0
 62
0
 10
-7.826279527559062
 20
0.6505905511810892
 30
0.0
 40
0.019685039370078705
 50
-0.0
 51
90.0
  0
ARC
  8
0
 62
0
 10
-6.79502952755906
 20
0.6505905511810892
 30
0.0
 40
0.019685039370078705
 50
-0.0
 51
90.0
  0
ARC
  8
0
 62
0
 10
-6.9872047244094535
 20
0.6899606299212467
 30
0.0
 40
0.019685039370078705
 50
-180.0
 51
-90.0
  0
ARC
  8
0
 62
0
 10
-6.79502952755906
 20
0.138779527559042
 30
0.0
 40
0.019685039370078705
 50
-90.0
 51
-0.0
  0
ARC
  8
0
 62
0
 10
-7.302165354330715
 20
0.6899606364918371
 30
0.0
 40
0.019685039370077817
 50
-90.0
 51
-9.545479552082124e-06
  0
ARC
  8
0
 62
0
 10
-5.150324803149611
 20
0.6899606299212457
 30
0.0
 40
0.019685039370078705
 50
0.0
 51
90.0
  0
ARC
  8
0
 62
0
 10
-7.262795275590555
 20
0.6899606299212472
 30
0.0
 40
0.019685039370077817
 50
90.0
 51
179.99999045452046
  0
ARC
  8
0
 62
0
 10
-2.5265748031496105
 20
0.6899606299212467
 30
0.0
 40
0.019685039370079593
 50
-0.0
 51
90.0
  0
ARC
  8
0
 62
0
 10
-2.8021653543307123
 20
0.6899606299212467
 30
0.0
 40
0.019685039370079593
 50
-90.0
 51
-0.0
  0
ARC
  8
0
 62
0
 10
-3.8887795275590586
 20
0.138779527559042
 30
0.0
 40
0.019685039370079205
 50
-90.0
 51
-0.0
  0
ARC
  8
0
 62
0
 10
-5.110954724409454
 20
0.6899606299212467
 30
0.0
 40
0.019685039370078705
 50
-180.0
 51
-90.0
  0
ARC
  8
0
 62
0
 10
-8.76377952755906
 20
1.4005905511810888
 30
0.0
 40
0.019685039370077817
 50
-0.0
 51
90.0
  0
ARC
  8
0
 62
0
 10
-4.496574803149611
 20
0.138779527559042
 30
0.0
 40
0.019685039370078705
 50
-90.0
 51
-0.0
  0
ARC
  8
0
 62
0
 10
-2.5265748031496105
 20
0.138779527559042
 30
0.0
 40
0.019685039370079607
 50
-90.0
 51
-0.0
  0
ARC
  8
0
 62
0
 10
-0.28690944881890174
 20
1.8322047244094348
 30
0.0
 40
0.01968503937007826
 50
90.0
 51
-180.0
  0
ARC
  8
0
 62
0
 10
-0.28690944881890174
 20
1.814960629921246
 30
0.0
 40
0.019685039370078206
 50
-180.0
 51
-90.00000000000048
  0
ARC
  8
0
 62
0
 10
-0.7443405511811066
 20
0.888779527559042
 30
0.0
 40
0.01968503937007826
 50
-180.0
 51
-90.00000000000033
  0
ARC
  8
0
 62
0
 10
-0.7837106299212644
 20
0.8922047244094357
 30
0.0
 40
0.019685039370079593
 50
-0.0
 51
90.00000000000033
  0
ARC
  8
0
 62
0
 10
-8.338090551181109
 20
0.6505905511810892
 30
0.0
 40
0.019685039370077817
 50
90.0
 51
-180.0
  0
ARC
  8
0
 62
0
 10
-8.76377952755906
 20
0.888779527559042
 30
0.0
 40
0.019685039370077817
 50
-90.0
 51
-0.0
  0
ARC
  8
0
 62
0
 10
-0.7837106299212644
 20
1.1677952755905396
 30
0.0
 40
0.01968503937007826
 50
90.0
 51
-180.0
  0
ARC
  8
0
 62
0
 10
-2.7627952755905554
 20
0.6899606299212467
 30
0.0
 40
0.01968503937007826
 50
90.0
 51
-180.0
  0
ARC
  8
0
 62
0
 10
-0.7837106299212644
 20
0.9315748031495912
 30
0.0
 40
0.01968503937007826
 50
-180.0
 51
-90.00000000000065
  0
ARC
  8
0
 62
0
 10
-4.826279527559061
 20
1.4005905511810888
 30
0.0
 40
0.019685039370079593
 50
-0.0
 51
90.0
  0
ARC
  8
0
 62
0
 10
-3.326279527559058
 20
0.888779527559042
 30
0.0
 40
0.01968503937007826
 50
-90.0
 51
-0.0
  0
ARC
  8
0
 62
0
 10
-3.838090551181107
 20
0.888779527559042
 30
0.0
 40
0.01968503937007915
 50
-180.0
 51
-90.0
  0
ARC
  8
0
 62
0
 10
-3.326279527559058
 20
1.4005905511810888
 30
0.0
 40
0.01968503937007826
 50
-0.0
 51
90.0
  0
ARC
  8
0
 62
0
 10
-3.838090551181107
 20
1.4005905511810888
 30
0.0
 40
0.01968503937007915
 50
90.0
 51
-180.0
  0
POLYLINE
  8
0
 62
0
 70
0
 66
1
 10
0.0
 20
0.0
 30
0.0
  0
VERTEX
  8
0
 10
-0.3065929114818573
 20
1.832224726676941
 30
0.0
  0
VERTEX
  8
0
 10
-0.30659371614456177
 20
1.8149508237838745
 30
0.0
  0
SEQEND
  8
0
  0
ARC
  8
0
 62
0
 10
-2.338090551181106
 20
0.888779527559042
 30
0.0
 40
0.019685039370079593
 50
-180.0
 51
-90.0
  0
ARC
  8
0
 62
0
 10
-1.8262795275590589
 20
0.888779527559042
 30
0.0
 40
0.01968503937007826
 50
-90.0
 51
-0.0
  0
ARC
  8
0
 62
0
 10
-2.5255905511811054
 20
1.6387795275590389
 30
0.0
 40
0.01968503937007693
 50
-180.0
 51
-90.0
  0
ARC
  8
0
 62
0
 10
-0.9179184275800939
 20
-0.12499999999998895
 30
0.0
 40
0.14468503937008273
 50
44.99999999999985
 51
90.00000000000018
  0
ARC
  8
0
 62
0
 10
-7.588090551181105
 20
1.4005905511810888
 30
0.0
 40
0.019685039370078705
 50
90.0
 51
-180.0
  0
ARC
  8
0
 62
0
 10
-2.5255905511811054
 20
2.1505905511810908
 30
0.0
 40
0.01968503937007693
 50
90.0
 51
-180.0
  0
LINE
  8
0
 62
0
 10
-9.38834183382438
 20
-0.18568939526277298
 30
0.0
 11
-9.551339001561967
 21
-0.02269222752519051
 31
0.0
  0
ARC
  8
0
 62
0
 10
-0.5781445645458764
 20
-0.11122047244092964
 30
0.0
 40
0.10531496062991941
 50
-135.0000000000005
 51
-90.00000000000013
  0
ARC
  8
0
 62
0
 10
-2.0137795275590578
 20
2.150590551181089
 30
0.0
 40
0.01968503937007804
 50
-0.0
 51
90.0
  0
LINE
  8
0
 62
0
 10
-0.2879971677375744
 20
-0.21653543307084888
 30
0.0
 11
-0.5781445645458761
 21
-0.21653543307085
 31
0.0
  0
ARC
  8
0
 62
0
 10
-0.9179184275802086
 20
3.1643700787401805
 30
0.0
 40
0.14468503937008625
 50
-89.99999999999974
 51
-45.00000000000025
  0
ARC
  8
0
 62
0
 10
-0.12500000000000475
 20
2.9875933834435413
 30
0.0
 40
0.10531496062992116
 50
0.0
 51
44.99999999999994
  0
ARC
  8
0
 62
0
 10
-9.476870078740157
 20
0.05177669529661993
 30
0.0
 40
0.10531496062991863
 50
180.0
 51
-135.00000000000006
  0
LINE
  8
0
 62
0
 10
-0.019685039370083406
 20
2.9875933834435413
 30
0.0
 11
-0.01968503937007261
 21
0.051776695296654525
 31
0.0
  0
ARC
  8
0
 62
0
 10
-0.5781445645458886
 20
3.1505905511811205
 30
0.0
 40
0.10531496062991952
 50
90.00000000000024
 51
135.00000000000026
  0
ARC
  8
0
 62
0
 10
-0.28799716773757483
 20
-0.11122047244092896
 30
0.0
 40
0.10531496062992075
 50
-90.00000000000013
 51
-44.99999999999992
  0
ARC
  8
0
 62
0
 10
-9.02372551419427
 20
-0.11122047244095956
 30
0.0
 40
0.10531496062992105
 50
-90.0
 51
-44.99999999999902
  0
CIRCLE
  8
0
 62
0
 10
-0.43306582438839675
 20
-0.10826771653541585
 30
0.0
 40
0.04921259842519643
  0
CIRCLE
  8
0
 62
0
 10
-9.168794170845091
 20
-0.10826771653544844
 30
0.0
 40
0.04921259842519632
  0
ARC
  8
0
 62
0
 10
-9.31387291100257
 20
-0.11122047244096024
 30
0.0
 40
0.10531496062992286
 50
-135.00000000000037
 51
-90.0
  0
CIRCLE
  8
0
 62
0
 10
-0.43307590789506645
 20
3.1476377952756085
 30
0.0
 40
0.04921259842519632
  0
LINE
  8
0
 62
0
 10
-0.21352824491577252
 20
3.2250594740029315
 30
0.0
 11
-0.05053107717819302
 21
3.062062306265352
 31
0.0
  0
LINE
  8
0
 62
0
 10
-0.05053107717818172
 20
-0.02269222752515621
 30
0.0
 11
-0.2135282449157633
 21
-0.1856893952627396
 31
0.0
  0
LINE
  8
0
 62
0
 10
-8.683951651160061
 20
3.0196850393700645
 30
0.0
 11
-0.9179184275802081
 21
3.019685039370094
 31
0.0
  0
ARC
  8
0
 62
0
 10
-9.313872911002582
 20
3.150590551181087
 30
0.0
 40
0.10531496062992085
 50
90.0
 51
135.0
  0
CIRCLE
  8
0
 62
0
 10
-9.16880425435176
 20
3.1476377952755756
 30
0.0
 40
0.04921259842519632
  0
LINE
  8
0
 62
0
 10
-0.9179184275800945
 20
0.019685039370093606
 30
0.0
 11
-8.683951651160054
 21
0.019685039370065112
 31
0.0
  0
ARC
  8
0
 62
0
 10
-0.2879971677375855
 20
3.1505905511811187
 30
0.0
 40
0.10531496062992304
 50
44.9999999999999
 51
90.00000000000037
  0
LINE
  8
0
 62
0
 10
-8.78625942363488
 20
-0.02269222752518861
 30
0.0
 11
-8.949256591372459
 21
-0.18568939526277048
 31
0.0
  0
ARC
  8
0
 62
0
 10
-8.68395165116005
 20
-0.12500000000001354
 30
0.0
 40
0.14468503937007895
 50
90.00000000000071
 51
135.00000000000065
  0
ARC
  8
0
 62
0
 10
-8.683951651160061
 20
3.1643700787401445
 30
0.0
 40
0.14468503937008073
 50
-135.0000000000001
 51
-90.0
  0
ARC
  8
0
 62
0
 10
-9.02372551419428
 20
3.150590551181087
 30
0.0
 40
0.10531496062992002
 50
45.00000000000085
 51
90.0
  0
ARC
  8
0
 62
0
 10
-9.476870078740165
 20
2.9875933834435053
 30
0.0
 40
0.10531496062992096
 50
135.0
 51
-180.0
  0
LINE
  8
0
 62
0
 10
-0.5781445645458888
 20
3.255905511811041
 30
0.0
 11
-0.28799716773758594
 21
3.2559055118110414
 31
0.0
  0
LINE
  8
0
 62
0
 10
-0.8156106551053287
 20
3.0620623062653003
 30
0.0
 11
-0.6526134873676991
 21
3.22505947400293
 31
0.0
  0
LINE
  8
0
 62
0
 10
-9.02372551419427
 20
-0.2165354330708809
 30
0.0
 11
-9.31387291100257
 21
-0.21653543307088202
 31
0.0
  0
LINE
  8
0
 62
0
 10
-9.582185039370076
 20
0.05177669529661952
 30
0.0
 11
-9.582185039370085
 21
2.9875933834435044
 31
0.0
  0
LINE
  8
0
 62
0
 10
-9.551339001561976
 20
3.0620623062653154
 30
0.0
 11
-9.388341833824393
 21
3.2250594740028973
 31
0.0
  0
ARC
  8
0
 62
0
 10
-0.12499999999999266
 20
0.05177669529665392
 30
0.0
 40
0.10531496062991856
 50
-45.00000000000017
 51
0.0
  0
LINE
  8
0
 62
0
 10
-9.313872911002582
 20
3.2559055118110085
 30
0.0
 11
-9.02372551419428
 21
3.25590551181101
 31
0.0
  0
ARC
  8
0
 62
0
 10
-7.07627952755906
 20
0.888779527559042
 30
0.0
 40
0.019685039370079593
 50
-90.0
 51
-0.0
  0
ARC
  8
0
 62
0
 10
-7.588090551181105
 20
0.888779527559042
 30
0.0
 40
0.019685039370078705
 50
-180.0
 51
-90.0
  0
ARC
  8
0
 62
0
 10
-7.07627952755906
 20
1.4005905511810888
 30
0.0
 40
0.019685039370079593
 50
-0.0
 51
90.0
  0
LINE
  8
0
 62
0
 10
-8.949256591372473
 20
3.2250594740029004
 30
0.0
 11
-8.78625942363489
 21
3.0620623062653185
 31
0.0
  0
LINE
  8
0
 62
0
 10
-0.6526134873676875
 20
-0.18568939526274028
 30
0.0
 11
-0.8156106551052658
 21
-0.022692227525161212
 31
0.0
  0
ARC
  8
0
 62
0
 10
-2.0137795275590578
 20
1.6387795275590407
 30
0.0
 40
0.01968503937007804
 50
-90.0
 51
-0.0
  0
ARC
  8
0
 62
0
 10
-3.513779527559061
 20
1.6387795275590407
 30
0.0
 40
0.019685039370079593
 50
-90.0
 51
-0.0
  0
ARC
  8
0
 62
0
 10
-2.338090551181106
 20
1.4005905511810888
 30
0.0
 40
0.019685039370079593
 50
90.0
 51
-180.0
  0
ARC
  8
0
 62
0
 10
-4.826279527559061
 20
0.8887795275590427
 30
0.0
 40
0.019685039370079593
 50
-90.0
 51
-0.0
  0
ARC
  8
0
 62
0
 10
-5.338090551181108
 20
0.888779527559042
 30
0.0
 40
0.019685039370078705
 50
-180.0
 51
-90.0
  0
ARC
  8
0
 62
0
 10
-5.338090551181108
 20
1.4005905511810888
 30
0.0
 40
0.019685039370078705
 50
90.0
 51
-180.0
  0
ARC
  8
0
 62
0
 10
-4.025590551181107
 20
2.150590551181089
 30
0.0
 40
0.019685039370079593
 50
90.0
 51
-180.0
  0
ARC
  8
0
 62
0
 10
-5.013779527559061
 20
1.6387795275590407
 30
0.0
 40
0.019685039370078705
 50
-90.0
 51
-0.0
  0
ARC
  8
0
 62
0
 10
-5.525590551181108
 20
2.15059055118109
 30
0.0
 40
0.019685039370078705
 50
90.0
 51
-180.0
  0
ARC
  8
0
 62
0
 10
-4.025590551181107
 20
1.6387795275590407
 30
0.0
 40
0.019685039370079593
 50
-180.0
 51
-90.0
  0
ARC
  8
0
 62
0
 10
-3.513779527559061
 20
2.150590551181089
 30
0.0
 40
0.019685039370079593
 50
-0.0
 51
90.0
  0
ARC
  8
0
 62
0
 10
-5.525590551181108
 20
1.6387795275590407
 30
0.0
 40
0.019685039370078705
 50
-180.0
 51
-90.0
  0
ARC
  8
0
 62
0
 10
-5.013779527559061
 20
2.150590551181089
 30
0.0
 40
0.019685039370078705
 50
-0.0
 51
90.0
  0
POLYLINE
  8
0
 62
0
 70
0
 66
1
 10
0.0
 20
0.0
 30
0.0
  0
VERTEX
  8
0
 10
-0.30659448818897994
 20
2.150590551181089
 30
0.0
  0
VERTEX
  8
0
 10
-0.30659448818897983
 20
2.1471653543306948
 30
0.0
  0
SEQEND
  8
0
  0
POLYLINE
  8
0
 62
0
 70
0
 66
1
 10
0.0
 20
0.0
 30
0.0
  0
VERTEX
  8
0
 10
-0.7640255905511848
 20
0.8922047244094357
 30
0.0
  0
VERTEX
  8
0
 10
-0.7640255905511849
 20
0.8887795275590418
 30
0.0
  0
SEQEND
  8
0
  0
POLYLINE
  8
0
 62
0
 70
0
 66
1
 10
0.0
 20
0.0
 30
0.0
  0
VERTEX
  8
0
 10
-7.302098274230957
 20
0.6702808737754822
 30
0.0
  0
VERTEX
  8
0
 10
-7.306852340698242
 20
0.6702746152877808
 30
0.0
  0
SEQEND
  8
0
  0
ENDSEC
  0
EOF
