  0
SECTION
  2
HEADER
  9
$ACADVER
  1
AC1009
  9
$INSBASE
 10
0.0
 20
0.0
 30
0.0
  9
$EXTMIN
 10
0.0
 20
0.0
 30
0.0
  9
$EXTMAX
 10
0.0
 20
0.0
 30
0.0
  0
ENDSEC
  0
SECTION
  2
TABLES
  0
TABLE
  2
VPORT
 70
0
  0
ENDTAB
  0
TABLE
  2
LTYPE
 70
1
  0
LTYPE
  2
CONTINUOUS
 70
0
  3
Solid line
 72
65
 73
0
 40
0.0
  0
ENDTAB
  0
TABLE
  2
LAYER
 70
1
  0
LAYER
  2
0
 70
64
 62
7
  6
continuous
  0
ENDTAB
  0
TABLE
  2
STYLE
 70
1
  0
STYLE
  2
STANDARD
 70
0
 40
0
 41
1.0
 50
0.0
 71
0
 42
1
 3
ARIAL.TTF
 4

  0
ENDTAB
  0
TABLE
  2
VIEW
 70
0
  0
ENDTAB
  0
ENDSEC
  0
SECTION
  2
BLOCKS
  0
ENDSEC
  0
SECTION
  2
ENTITIES
  0
LINE
  8
0
 62
0
 10
-3.0880905511811365
 20
0.8690944881889654
 30
0.0
 11
-2.576279527559098
 21
0.8690944881889654
 31
0.0
  0
LINE
  8
0
 62
0
 10
-0.2325295275590982
 20
0.8690944881889654
 30
0.0
 11
-0.744340551181136
 21
0.8690944881889654
 31
0.0
  0
LINE
  8
0
 62
0
 10
-0.8577755905512101
 20
1.6387795275590398
 30
0.0
 11
-0.8577755905512101
 21
2.1505905511810557
 31
0.0
  0
LINE
  8
0
 62
0
 10
-0.2325295275590982
 20
1.7952755905511726
 30
0.0
 11
-0.28690944881892844
 21
1.7952755905511726
 31
0.0
  0
LINE
  8
0
 62
0
 10
-0.2128444881890026
 20
1.871574803149559
 30
0.0
 11
-0.2128444881890026
 21
2.1077952755905347
 31
0.0
  0
LINE
  8
0
 62
0
 10
-2.170275324573442
 20
0.6505905577516721
 30
0.0
 11
-2.170275324573442
 21
0.13877953412961286
 31
0.0
  0
LINE
  8
0
 62
0
 10
-3.1077755905512103
 20
1.4005905511810557
 30
0.0
 11
-3.1077755905512103
 21
0.8887795275590397
 31
0.0
  0
LINE
  8
0
 62
0
 10
-1.6190942222112348
 20
0.13877953412961297
 30
0.0
 11
-1.6190942222112348
 21
0.6505905577516721
 31
0.0
  0
LINE
  8
0
 62
0
 10
-4.588090551181126
 20
0.8690944881889654
 30
0.0
 11
-4.0762795275590875
 21
0.8690944881889654
 31
0.0
  0
LINE
  8
0
 62
0
 10
-0.7640255905512101
 20
1.5994094488188488
 30
0.0
 11
-0.7640255905512101
 21
1.2071653543306855
 31
0.0
  0
LINE
  8
0
 62
0
 10
-4.056594488188993
 20
0.8887795275590397
 30
0.0
 11
-4.056594488188993
 21
1.4005905511810557
 31
0.0
  0
LINE
  8
0
 62
0
 10
-7.775590551181128
 20
1.6190944881889657
 30
0.0
 11
-7.263779527559089
 21
1.6190944881889657
 31
0.0
  0
LINE
  8
0
 62
0
 10
-7.263779527559089
 20
2.1702755905511735
 30
0.0
 11
-7.775590551181128
 21
2.1702755905511735
 31
0.0
  0
LINE
  8
0
 62
0
 10
-2.576279527559098
 20
1.4202755905511726
 30
0.0
 11
-3.0880905511811365
 21
1.4202755905511726
 31
0.0
  0
LINE
  8
0
 62
0
 10
-6.088090551181127
 20
0.8690944881889654
 30
0.0
 11
-5.576279527559088
 21
0.8690944881889654
 31
0.0
  0
LINE
  8
0
 62
0
 10
-0.28690944881892844
 20
1.8518897637794838
 30
0.0
 11
-0.2325295275590982
 21
1.8518897637794838
 31
0.0
  0
LINE
  8
0
 62
0
 10
-6.295275590551201
 20
2.1505905511810557
 30
0.0
 11
-6.295275590551201
 21
1.6387795275590398
 31
0.0
  0
LINE
  8
0
 62
0
 10
-6.107775590551201
 20
1.4005905511810557
 30
0.0
 11
-6.107775590551201
 21
0.8887795275590394
 31
0.0
  0
LINE
  8
0
 62
0
 10
-0.7837106299212845
 20
1.6190944881889657
 30
0.0
 11
-0.8380905511811358
 21
1.6190944881889657
 31
0.0
  0
LINE
  8
0
 62
0
 10
-1.6387792615813086
 20
0.6702755971217463
 30
0.0
 11
-2.150590285203368
 21
0.6702755971217463
 31
0.0
  0
LINE
  8
0
 62
0
 10
-4.607775590551201
 20
1.4005905511810557
 30
0.0
 11
-4.607775590551201
 21
0.8887795275590394
 31
0.0
  0
LINE
  8
0
 62
0
 10
-5.763779527559088
 20
2.1702755905511735
 30
0.0
 11
-6.275590551181128
 21
2.1702755905511735
 31
0.0
  0
LINE
  8
0
 62
0
 10
-3.1077755905512103
 20
0.6505905511810559
 30
0.0
 11
-3.1077755905512103
 21
0.13877952755903955
 31
0.0
  0
LINE
  8
0
 62
0
 10
-0.8380905511811358
 20
2.1702755905511735
 30
0.0
 11
-0.3262795275590983
 21
2.1702755905511735
 31
0.0
  0
LINE
  8
0
 62
0
 10
-7.244094488188995
 20
1.6387795275590398
 30
0.0
 11
-7.244094488188995
 21
2.1505905511810557
 31
0.0
  0
LINE
  8
0
 62
0
 10
-4.0762795275590875
 20
1.4202755905511726
 30
0.0
 11
-4.588090551181126
 21
1.4202755905511726
 31
0.0
  0
LINE
  8
0
 62
0
 10
-4.7952755905512
 20
2.1505905511810557
 30
0.0
 11
-4.7952755905512
 21
1.6387795275590398
 31
0.0
  0
LINE
  8
0
 62
0
 10
-4.2637795275590875
 20
2.1702755905511735
 30
0.0
 11
-4.775590551181127
 21
2.1702755905511735
 31
0.0
  0
LINE
  8
0
 62
0
 10
-4.244094488188993
 20
1.6387795275590398
 30
0.0
 11
-4.244094488188993
 21
2.1505905511810557
 31
0.0
  0
LINE
  8
0
 62
0
 10
-2.744094488189003
 20
1.6387795275590398
 30
0.0
 11
-2.744094488189003
 21
2.1505905511810557
 31
0.0
  0
LINE
  8
0
 62
0
 10
-1.7755905511811358
 20
1.6190944881889657
 30
0.0
 11
-1.2637795275590977
 21
1.6190944881889657
 31
0.0
  0
LINE
  8
0
 62
0
 10
-0.8033956692913798
 20
1.1677952755905365
 30
0.0
 11
-0.8033956692913798
 21
0.9315748031495609
 31
0.0
  0
LINE
  8
0
 62
0
 10
-3.0880905511811365
 20
0.11909449475953876
 30
0.0
 11
-2.526574803149639
 21
0.11909449475953876
 31
0.0
  0
LINE
  8
0
 62
0
 10
-1.7952755905512099
 20
2.1505905511810557
 30
0.0
 11
-1.7952755905512099
 21
1.6387795275590398
 31
0.0
  0
LINE
  8
0
 62
0
 10
-0.2128444881890026
 20
0.8887795275590397
 30
0.0
 11
-0.2128444881890026
 21
1.775590551181056
 31
0.0
  0
LINE
  8
0
 62
0
 10
-6.275590551181128
 20
1.6190944881889657
 30
0.0
 11
-5.763779527559088
 21
1.6190944881889657
 31
0.0
  0
LINE
  8
0
 62
0
 10
-5.744094488188994
 20
1.6387795275590398
 30
0.0
 11
-5.744094488188994
 21
2.1505905511810557
 31
0.0
  0
LINE
  8
0
 62
0
 10
-5.576279527559088
 20
1.4202755905511726
 30
0.0
 11
-6.088090551181127
 21
1.4202755905511726
 31
0.0
  0
LINE
  8
0
 62
0
 10
-5.556594488188994
 20
0.8887795275590397
 30
0.0
 11
-5.556594488188994
 21
1.4005905511810557
 31
0.0
  0
LINE
  8
0
 62
0
 10
-4.775590551181127
 20
1.6190944881889657
 30
0.0
 11
-4.2637795275590875
 21
1.6190944881889657
 31
0.0
  0
LINE
  8
0
 62
0
 10
-3.2952755905512108
 20
2.1505905511810557
 30
0.0
 11
-3.2952755905512108
 21
1.6387795275590398
 31
0.0
  0
LINE
  8
0
 62
0
 10
-2.556594488189003
 20
0.8887795275590397
 30
0.0
 11
-2.556594488189003
 21
1.4005905511810557
 31
0.0
  0
LINE
  8
0
 62
0
 10
-3.275590551181137
 20
1.6190944881889657
 30
0.0
 11
-2.763779527559098
 21
1.6190944881889657
 31
0.0
  0
LINE
  8
0
 62
0
 10
-0.2325295275590982
 20
2.127480314960609
 30
0.0
 11
-0.28690944881892844
 21
2.127480314960609
 31
0.0
  0
LINE
  8
0
 62
0
 10
-2.763779527559098
 20
2.1702755905511735
 30
0.0
 11
-3.275590551181137
 21
2.1702755905511735
 31
0.0
  0
LINE
  8
0
 62
0
 10
-7.795275590551203
 20
2.1505905511810557
 30
0.0
 11
-7.795275590551203
 21
1.6387795275590398
 31
0.0
  0
LINE
  8
0
 62
0
 10
-2.150590285203368
 20
0.11909449475953876
 30
0.0
 11
-1.6387792615813086
 21
0.11909449475953876
 31
0.0
  0
ARC
  8
0
 62
0
 10
0.03937007874013791
 20
2.7499999999999885
 30
0.0
 40
0.059055118110236116
 50
90.0
 51
-180.0
  0
ARC
  8
0
 62
0
 10
0.13779527559050928
 20
0.12499999999998754
 30
0.0
 40
0.049212598425196326
 50
101.18805575131961
 51
-101.18805575131351
  0
ARC
  8
0
 62
0
 10
-9.739665354330736
 20
2.9143700786781204
 30
0.0
 40
0.049212598425196444
 50
-78.81194425257151
 51
78.81194436039488
  0
ARC
  8
0
 62
0
 10
0.12442707721232796
 20
0.05741171872361583
 30
0.0
 40
0.019685039370079614
 50
-52.12078032549406
 51
78.8119442486882
  0
LINE
  8
0
 62
0
 10
-6.857775590551201
 20
1.4005905511810557
 30
0.0
 11
-6.857775590551201
 21
0.8887795275590394
 31
0.0
  0
ARC
  8
0
 62
0
 10
-9.673720472440964
 20
0.12499999999998754
 30
0.0
 40
0.10531496062992121
 50
-127.8792196745185
 51
-90.0
  0
ARC
  8
0
 62
0
 10
-9.726297155957138
 20
2.8467817974008534
 30
0.0
 40
0.01968503937007969
 50
101.1880557474289
 51
-127.87921965928427
  0
ARC
  8
0
 62
0
 10
0.039370078740116624
 20
0.28937007874010773
 30
0.0
 40
0.05905511811023753
 50
-180.0
 51
-90.00000000000031
  0
ARC
  8
0
 62
0
 10
-9.673720472440964
 20
0.12499999999998754
 30
0.0
 40
0.10531496062992096
 50
90.0
 51
127.87921967453558
  0
ARC
  8
0
 62
0
 10
0.12442707721232796
 20
2.8467817974637795
 30
0.0
 40
0.019685039370078386
 50
-52.12078032547654
 51
78.81194424868134
  0
LINE
  8
0
 62
0
 10
0.07185039370076045
 20
0.2303149606298849
 30
0.0
 11
0.039370078740116624
 21
0.2303149606298849
 31
0.0
  0
LINE
  8
0
 62
0
 10
-9.582185039370097
 20
2.7499999999999885
 30
0.0
 11
-9.582185039370097
 21
0.28937007874010773
 31
0.0
  0
ARC
  8
0
 62
0
 10
-9.673720472425446
 20
2.9143700787401503
 30
0.0
 40
0.10531496062987777
 50
90.0
 51
127.87921976709167
  0
LINE
  8
0
 62
0
 10
-6.326279527559088
 20
1.4202755905511726
 30
0.0
 11
-6.838090551181127
 21
1.4202755905511726
 31
0.0
  0
ARC
  8
0
 62
0
 10
-9.726297155952553
 20
0.1925882812763167
 30
0.0
 40
0.01968503937007878
 50
127.87921967453548
 51
-101.18805575132428
  0
ARC
  8
0
 62
0
 10
0.13779527559050928
 20
2.914370078740108
 30
0.0
 40
0.049212598425197644
 50
101.18805575131272
 51
-101.18805575132053
  0
ARC
  8
0
 62
0
 10
0.12442707721232796
 20
2.9819583600164803
 30
0.0
 40
0.019685039370076946
 50
-78.81194424868774
 51
52.12078032549295
  0
ARC
  8
0
 62
0
 10
0.07185039370076045
 20
2.914370078740108
 30
0.0
 40
0.1053149606299213
 50
-90.00000000000031
 51
-52.12078032547641
  0
ARC
  8
0
 62
0
 10
-9.641240157480341
 20
0.28937007874010773
 30
0.0
 40
0.05905511811023523
 50
-90.0
 51
-0.0
  0
LINE
  8
0
 62
0
 10
-9.673720472440964
 20
0.01968503937004761
 30
0.0
 11
0.07185039370076045
 21
0.01968503937004761
 31
0.0
  0
ARC
  8
0
 62
0
 10
-9.673720472425446
 20
2.9143700787401503
 30
0.0
 40
0.10531496069196328
 50
-127.87921965928244
 51
-90.0
  0
LINE
  8
0
 62
0
 10
-1.2637795275590977
 20
2.1702755905511735
 30
0.0
 11
-1.7755905511811358
 21
2.1702755905511735
 31
0.0
  0
ARC
  8
0
 62
0
 10
0.12442707721232796
 20
0.1925882812763167
 30
0.0
 40
0.019685039370076908
 50
-78.8119442486808
 51
52.120780325475984
  0
ARC
  8
0
 62
0
 10
0.07185039370076045
 20
0.12499999999998754
 30
0.0
 40
0.10531496062992124
 50
-90.00000000000043
 51
-52.12078032549394
  0
LINE
  8
0
 62
0
 10
0.03937007874013791
 20
2.8090551181102112
 30
0.0
 11
0.07185039370076045
 21
2.8090551181102112
 31
0.0
  0
ARC
  8
0
 62
0
 10
-9.739665354330736
 20
0.12499999999998754
 30
0.0
 40
0.04921259842519707
 50
-78.81194424868838
 51
78.81194424868204
  0
LINE
  8
0
 62
0
 10
-0.01968503937010631
 20
0.2893700787401073
 30
0.0
 11
-0.01968503937010631
 21
2.7499999999999885
 31
0.0
  0
LINE
  8
0
 62
0
 10
-1.2440944881890024
 20
1.6387795275590398
 30
0.0
 11
-1.2440944881890024
 21
2.1505905511810557
 31
0.0
  0
ARC
  8
0
 62
0
 10
0.07185039370076045
 20
0.12499999999998754
 30
0.0
 40
0.10531496062991993
 50
52.12078032547594
 51
90.0
  0
LINE
  8
0
 62
0
 10
-9.673720472425446
 20
2.8090551180482235
 30
0.0
 11
-9.641240157480341
 21
2.8090551180482235
 31
0.0
  0
LINE
  8
0
 62
0
 10
0.07185039370076045
 20
3.0196850393700485
 30
0.0
 11
-9.673720472425446
 21
3.0196850393700485
 31
0.0
  0
LINE
  8
0
 62
0
 10
-6.306594488188994
 20
0.8887795275590397
 30
0.0
 11
-6.306594488188994
 21
1.4005905511810557
 31
0.0
  0
ARC
  8
0
 62
0
 10
-9.72629715608433
 20
2.98195835998054
 30
0.0
 40
0.019685039307992834
 50
127.87921976709356
 51
-101.18805563960915
  0
ARC
  8
0
 62
0
 10
-9.641240157480341
 20
2.7499999999999885
 30
0.0
 40
0.05905511811023523
 50
-0.0
 51
90.0
  0
LINE
  8
0
 62
0
 10
-9.641240157480341
 20
0.2303149606298849
 30
0.0
 11
-9.673720472440964
 21
0.2303149606298849
 31
0.0
  0
ARC
  8
0
 62
0
 10
-9.726297155952553
 20
0.05741171872361583
 30
0.0
 40
0.019685039370079312
 50
101.18805575131346
 51
-127.87921967451543
  0
LINE
  8
0
 62
0
 10
-6.838090551181127
 20
0.8690944881889654
 30
0.0
 11
-6.326279527559088
 21
0.8690944881889654
 31
0.0
  0
ARC
  8
0
 62
0
 10
0.07185039370076045
 20
2.914370078740108
 30
0.0
 40
0.10531496062992009
 50
52.12078032549345
 51
90.0
  0
ARC
  8
0
 62
0
 10
-3.275590551181137
 20
1.6387795275590398
 30
0.0
 40
0.019685039370079593
 50
-180.0
 51
-90.0
  0
ARC
  8
0
 62
0
 10
-6.838090551181127
 20
1.4005905511810557
 30
0.0
 40
0.019685039370079593
 50
90.0
 51
-180.0
  0
ARC
  8
0
 62
0
 10
-1.7755905511811358
 20
2.1505905511810557
 30
0.0
 40
0.01968503937007826
 50
90.0
 51
-180.0
  0
ARC
  8
0
 62
0
 10
-1.2637795275590977
 20
2.1505905511810557
 30
0.0
 40
0.019685039370079593
 50
-0.0
 51
90.0
  0
ARC
  8
0
 62
0
 10
-1.2637795275590977
 20
1.6387795275590398
 30
0.0
 40
0.019685039370079593
 50
-90.0
 51
-0.0
  0
LINE
  8
0
 62
0
 10
-7.076279527559089
 20
1.4202755905511726
 30
0.0
 11
-7.588090551181127
 21
1.4202755905511726
 31
0.0
  0
ARC
  8
0
 62
0
 10
-1.7755905511811358
 20
1.6387795275590398
 30
0.0
 40
0.01968503937007826
 50
-180.0
 51
-90.0
  0
ARC
  8
0
 62
0
 10
-4.2637795275590875
 20
2.1505905511810557
 30
0.0
 40
0.019685039370077817
 50
-0.0
 51
90.0
  0
ARC
  8
0
 62
0
 10
-2.763779527559098
 20
1.6387795275590398
 30
0.0
 40
0.019685039370079593
 50
-90.0
 51
-0.0
  0
ARC
  8
0
 62
0
 10
-3.275590551181137
 20
2.1505905511810557
 30
0.0
 40
0.019685039370079593
 50
90.0
 51
-180.0
  0
ARC
  8
0
 62
0
 10
-6.838090551181127
 20
0.8887795275590397
 30
0.0
 40
0.019685039370079593
 50
-180.0
 51
-90.0
  0
ARC
  8
0
 62
0
 10
-2.763779527559098
 20
2.1505905511810557
 30
0.0
 40
0.019685039370079593
 50
-0.0
 51
90.0
  0
ARC
  8
0
 62
0
 10
-6.326279527559088
 20
0.8887795275590397
 30
0.0
 40
0.019685039370079593
 50
-90.0
 51
-0.0
  0
ARC
  8
0
 62
0
 10
-6.326279527559088
 20
1.4005905511810557
 30
0.0
 40
0.019685039370079593
 50
-0.0
 51
90.0
  0
LINE
  8
0
 62
0
 10
-7.588090551181127
 20
0.8690944881889654
 30
0.0
 11
-7.076279527559089
 21
0.8690944881889654
 31
0.0
  0
LINE
  8
0
 62
0
 10
-7.607775590551201
 20
1.4005905511810557
 30
0.0
 11
-7.607775590551201
 21
0.8887795275590394
 31
0.0
  0
LINE
  8
0
 62
0
 10
-2.5452755905512103
 20
2.1505905511810557
 30
0.0
 11
-2.5452755905512103
 21
1.6387795275590398
 31
0.0
  0
LINE
  8
0
 62
0
 10
-4.994094488188994
 20
1.6387795275590398
 30
0.0
 11
-4.994094488188994
 21
2.1505905511810557
 31
0.0
  0
LINE
  8
0
 62
0
 10
-5.545275590551201
 20
2.1505905511810557
 30
0.0
 11
-5.545275590551201
 21
1.6387795275590398
 31
0.0
  0
LINE
  8
0
 62
0
 10
-4.025590551181126
 20
1.6190944881889657
 30
0.0
 11
-3.513779527559098
 21
1.6190944881889657
 31
0.0
  0
LINE
  8
0
 62
0
 10
-7.056594488188994
 20
0.8887795275590397
 30
0.0
 11
-7.056594488188994
 21
1.4005905511810557
 31
0.0
  0
LINE
  8
0
 62
0
 10
-1.9940944881890028
 20
1.6387795275590398
 30
0.0
 11
-1.9940944881890028
 21
2.1505905511810557
 31
0.0
  0
LINE
  8
0
 62
0
 10
-3.513779527559098
 20
2.1702755905511735
 30
0.0
 11
-4.025590551181126
 21
2.1702755905511735
 31
0.0
  0
LINE
  8
0
 62
0
 10
-2.525590551181136
 20
1.6190944881889657
 30
0.0
 11
-2.0137795275590977
 21
1.6190944881889657
 31
0.0
  0
LINE
  8
0
 62
0
 10
-3.494094488189004
 20
1.6387795275590398
 30
0.0
 11
-3.494094488189004
 21
2.1505905511810557
 31
0.0
  0
LINE
  8
0
 62
0
 10
-5.338090551181126
 20
0.8690944881889654
 30
0.0
 11
-4.826279527559088
 21
0.8690944881889654
 31
0.0
  0
LINE
  8
0
 62
0
 10
-5.357775590551201
 20
1.4005905511810557
 30
0.0
 11
-5.357775590551201
 21
0.8887795275590394
 31
0.0
  0
LINE
  8
0
 62
0
 10
-4.826279527559088
 20
1.4202755905511726
 30
0.0
 11
-5.338090551181126
 21
1.4202755905511726
 31
0.0
  0
LINE
  8
0
 62
0
 10
-4.806594488188993
 20
0.8887795275590397
 30
0.0
 11
-4.806594488188993
 21
1.4005905511810557
 31
0.0
  0
LINE
  8
0
 62
0
 10
-5.013779527559088
 20
2.1702755905511735
 30
0.0
 11
-5.525590551181127
 21
2.1702755905511735
 31
0.0
  0
LINE
  8
0
 62
0
 10
-3.8380905511811263
 20
0.8690944881889654
 30
0.0
 11
-3.3262795275590986
 21
0.8690944881889654
 31
0.0
  0
LINE
  8
0
 62
0
 10
-3.8577755905511997
 20
1.4005905511810557
 30
0.0
 11
-3.8577755905511997
 21
0.8887795275590394
 31
0.0
  0
LINE
  8
0
 62
0
 10
-3.3262795275590986
 20
1.4202755905511726
 30
0.0
 11
-3.8380905511811263
 21
1.4202755905511726
 31
0.0
  0
LINE
  8
0
 62
0
 10
-3.3065944881890035
 20
0.8887795275590397
 30
0.0
 11
-3.3065944881890035
 21
1.4005905511810557
 31
0.0
  0
LINE
  8
0
 62
0
 10
-2.338090551181136
 20
0.8690944881889654
 30
0.0
 11
-1.826279527559098
 21
0.8690944881889654
 31
0.0
  0
LINE
  8
0
 62
0
 10
-2.0137795275590977
 20
2.1702755905511735
 30
0.0
 11
-2.525590551181136
 21
2.1702755905511735
 31
0.0
  0
LINE
  8
0
 62
0
 10
-4.0452755905512
 20
2.1505905511810557
 30
0.0
 11
-4.0452755905512
 21
1.6387795275590398
 31
0.0
  0
LINE
  8
0
 62
0
 10
-5.525590551181127
 20
1.6190944881889657
 30
0.0
 11
-5.013779527559088
 21
1.6190944881889657
 31
0.0
  0
ARC
  8
0
 62
0
 10
-1.826279527559098
 20
1.4005905511810557
 30
0.0
 40
0.01968503937007826
 50
-0.0
 51
90.0
  0
ARC
  8
0
 62
0
 10
-4.025590551181126
 20
1.6387795275590398
 30
0.0
 40
0.019685039370079593
 50
-180.0
 51
-90.0
  0
ARC
  8
0
 62
0
 10
-7.963090551181128
 20
2.3887795275590404
 30
0.0
 40
0.019685039370079593
 50
-180.0
 51
-90.0
  0
ARC
  8
0
 62
0
 10
-6.701279527559088
 20
2.3887795275590404
 30
0.0
 40
0.019685039370079593
 50
-90.0
 51
-0.0
  0
ARC
  8
0
 62
0
 10
-6.463090551181128
 20
2.900590551181056
 30
0.0
 40
0.019685039370079593
 50
90.0
 51
-180.0
  0
ARC
  8
0
 62
0
 10
-8.713090551181129
 20
2.900590551181056
 30
0.0
 40
0.019685039370079593
 50
90.0
 51
-180.0
  0
ARC
  8
0
 62
0
 10
-6.701279527559088
 20
2.900590551181056
 30
0.0
 40
0.019685039370079593
 50
-0.0
 51
90.0
  0
ARC
  8
0
 62
0
 10
-5.201279527559088
 20
2.3887795275590404
 30
0.0
 40
0.019685039370077817
 50
-90.0
 51
-0.0
  0
ARC
  8
0
 62
0
 10
-5.013779527559088
 20
2.1505905511810557
 30
0.0
 40
0.019685039370078705
 50
-0.0
 51
90.0
  0
ARC
  8
0
 62
0
 10
-5.951279527559088
 20
2.3887795275590404
 30
0.0
 40
0.019685039370078705
 50
-90.0
 51
-0.0
  0
ARC
  8
0
 62
0
 10
-0.8887792615813092
 20
0.6505905577516721
 30
0.0
 40
0.019685039370079593
 50
-0.0
 51
90.0
  0
ARC
  8
0
 62
0
 10
-5.713090551181127
 20
2.900590551181056
 30
0.0
 40
0.019685039370078705
 50
90.0
 51
-180.0
  0
ARC
  8
0
 62
0
 10
-4.963090551181126
 20
2.3887795275590404
 30
0.0
 40
0.019685039370078705
 50
-180.0
 51
-90.0
  0
ARC
  8
0
 62
0
 10
-3.7012795275590884
 20
2.900590551181056
 30
0.0
 40
0.01968503937007915
 50
-0.0
 51
90.0
  0
ARC
  8
0
 62
0
 10
-3.8380905511811263
 20
0.8887795275590397
 30
0.0
 40
0.01968503937007915
 50
-180.0
 51
-90.0
  0
ARC
  8
0
 62
0
 10
-5.525590551181127
 20
2.1505905511810557
 30
0.0
 40
0.019685039370078705
 50
90.0
 51
-180.0
  0
ARC
  8
0
 62
0
 10
-2.0137795275590977
 20
2.1505905511810557
 30
0.0
 40
0.01968503937007804
 50
-0.0
 51
90.0
  0
ARC
  8
0
 62
0
 10
-5.338090551181126
 20
0.8887795275590397
 30
0.0
 40
0.019685039370078705
 50
-180.0
 51
-90.0
  0
ARC
  8
0
 62
0
 10
-3.3262795275590986
 20
1.4005905511810557
 30
0.0
 40
0.01968503937007826
 50
-0.0
 51
90.0
  0
ARC
  8
0
 62
0
 10
-7.076279527559089
 20
1.4005905511810557
 30
0.0
 40
0.019685039370079593
 50
-0.0
 51
90.0
  0
ARC
  8
0
 62
0
 10
-3.513779527559098
 20
1.6387795275590398
 30
0.0
 40
0.019685039370079593
 50
-90.0
 51
-0.0
  0
ARC
  8
0
 62
0
 10
-5.013779527559088
 20
1.6387795275590398
 30
0.0
 40
0.019685039370078705
 50
-90.0
 51
-0.0
  0
ARC
  8
0
 62
0
 10
-0.8887792615813092
 20
0.13877953412961297
 30
0.0
 40
0.019685039370079607
 50
-90.00000000000033
 51
-0.0
  0
ARC
  8
0
 62
0
 10
-7.588090551181127
 20
1.4005905511810557
 30
0.0
 40
0.019685039370077817
 50
90.0
 51
-180.0
  0
ARC
  8
0
 62
0
 10
-4.826279527559088
 20
0.8887795275590397
 30
0.0
 40
0.019685039370079593
 50
-90.0
 51
-0.0
  0
ARC
  8
0
 62
0
 10
-1.826279527559098
 20
0.8887795275590397
 30
0.0
 40
0.01968503937007826
 50
-90.0
 51
-0.0
  0
ARC
  8
0
 62
0
 10
-2.525590551181136
 20
2.1505905511810557
 30
0.0
 40
0.01968503937007693
 50
90.0
 51
-180.0
  0
ARC
  8
0
 62
0
 10
-4.826279527559088
 20
1.4005905511810557
 30
0.0
 40
0.019685039370079593
 50
-0.0
 51
90.0
  0
ARC
  8
0
 62
0
 10
-7.588090551181127
 20
0.8887795275590397
 30
0.0
 40
0.019685039370078705
 50
-180.0
 51
-90.0
  0
ARC
  8
0
 62
0
 10
-3.8380905511811263
 20
1.4005905511810557
 30
0.0
 40
0.019685039370078705
 50
90.0
 51
-180.0
  0
ARC
  8
0
 62
0
 10
-2.525590551181136
 20
1.6387795275590398
 30
0.0
 40
0.01968503937007693
 50
-180.0
 51
-90.0
  0
ARC
  8
0
 62
0
 10
-3.513779527559098
 20
2.1505905511810557
 30
0.0
 40
0.019685039370079593
 50
-0.0
 51
90.0
  0
ARC
  8
0
 62
0
 10
-2.338090551181136
 20
0.8887795275590397
 30
0.0
 40
0.019685039370079593
 50
-180.0
 51
-90.0
  0
ARC
  8
0
 62
0
 10
-1.4005902852033676
 20
0.6505905577516721
 30
0.0
 40
0.01968503937007826
 50
90.0
 51
-180.0
  0
ARC
  8
0
 62
0
 10
-5.338090551181126
 20
1.4005905511810557
 30
0.0
 40
0.019685039370078705
 50
90.0
 51
-180.0
  0
ARC
  8
0
 62
0
 10
-8.20127952755909
 20
2.900590551181056
 30
0.0
 40
0.019685039370077817
 50
-0.0
 51
90.0
  0
ARC
  8
0
 62
0
 10
-2.0137795275590977
 20
1.6387795275590398
 30
0.0
 40
0.01968503937007804
 50
-90.0
 51
-0.0
  0
ARC
  8
0
 62
0
 10
-2.338090551181136
 20
1.4005905511810557
 30
0.0
 40
0.019685039370079593
 50
90.0
 51
-180.0
  0
ARC
  8
0
 62
0
 10
-8.20127952755909
 20
2.3887795275590404
 30
0.0
 40
0.019685039370077817
 50
-90.0
 51
-0.0
  0
ARC
  8
0
 62
0
 10
-8.713090551181129
 20
2.3887795275590404
 30
0.0
 40
0.019685039370079593
 50
-180.0
 51
-90.0
  0
ARC
  8
0
 62
0
 10
-7.963090551181128
 20
2.900590551181056
 30
0.0
 40
0.019685039370079593
 50
90.0
 51
-180.0
  0
ARC
  8
0
 62
0
 10
-5.525590551181127
 20
1.6387795275590398
 30
0.0
 40
0.019685039370078705
 50
-180.0
 51
-90.0
  0
ARC
  8
0
 62
0
 10
-3.3262795275590986
 20
0.8887795275590397
 30
0.0
 40
0.01968503937007826
 50
-90.0
 51
-0.0
  0
ARC
  8
0
 62
0
 10
-4.025590551181126
 20
2.1505905511810557
 30
0.0
 40
0.019685039370079593
 50
90.0
 51
-180.0
  0
ARC
  8
0
 62
0
 10
-7.076279527559089
 20
0.8887795275590397
 30
0.0
 40
0.019685039370079593
 50
-90.0
 51
-0.0
  0
ARC
  8
0
 62
0
 10
-7.451279527559088
 20
2.900590551181056
 30
0.0
 40
0.019685039370078705
 50
-0.0
 51
90.0
  0
ARC
  8
0
 62
0
 10
-7.451279527559088
 20
2.3887795275590404
 30
0.0
 40
0.019685039370078705
 50
-90.0
 51
-0.0
  0
ARC
  8
0
 62
0
 10
-1.4005902852033676
 20
0.13877953412961297
 30
0.0
 40
0.01968503937007826
 50
-180.0
 51
-90.00000000000065
  0
ARC
  8
0
 62
0
 10
-7.213090551181128
 20
2.900590551181056
 30
0.0
 40
0.019685039370077817
 50
90.0
 51
-180.0
  0
ARC
  8
0
 62
0
 10
-7.213090551181128
 20
2.3887795275590404
 30
0.0
 40
0.019685039370077817
 50
-180.0
 51
-90.0
  0
ARC
  8
0
 62
0
 10
-5.951279527559088
 20
2.900590551181056
 30
0.0
 40
0.019685039370078705
 50
-0.0
 51
90.0
  0
ARC
  8
0
 62
0
 10
-6.463090551181128
 20
2.3887795275590404
 30
0.0
 40
0.019685039370079593
 50
-180.0
 51
-90.0
  0
ARC
  8
0
 62
0
 10
-5.201279527559088
 20
2.900590551181056
 30
0.0
 40
0.019685039370077817
 50
-0.0
 51
90.0
  0
ARC
  8
0
 62
0
 10
-5.713090551181127
 20
2.3887795275590404
 30
0.0
 40
0.019685039370078705
 50
-180.0
 51
-90.0
  0
ARC
  8
0
 62
0
 10
-2.951279527559098
 20
2.900590551181056
 30
0.0
 40
0.01968503937007826
 50
-0.0
 51
90.0
  0
ARC
  8
0
 62
0
 10
-4.963090551181126
 20
2.900590551181056
 30
0.0
 40
0.019685039370078705
 50
90.0
 51
-180.0
  0
ARC
  8
0
 62
0
 10
-4.4512795275590875
 20
2.900590551181056
 30
0.0
 40
0.019685039370077817
 50
-0.0
 51
90.0
  0
ARC
  8
0
 62
0
 10
-4.4512795275590875
 20
2.3887795275590404
 30
0.0
 40
0.019685039370077817
 50
-90.0
 51
-0.0
  0
ARC
  8
0
 62
0
 10
-4.213090551181126
 20
2.900590551181056
 30
0.0
 40
0.019685039370078705
 50
90.0
 51
-180.0
  0
ARC
  8
0
 62
0
 10
-3.7012795275590884
 20
2.3887795275590404
 30
0.0
 40
0.01968503937007915
 50
-90.0
 51
-0.0
  0
ARC
  8
0
 62
0
 10
-4.213090551181126
 20
2.3887795275590404
 30
0.0
 40
0.019685039370078705
 50
-180.0
 51
-90.0
  0
ARC
  8
0
 62
0
 10
-3.4630905511811365
 20
2.3887795275590404
 30
0.0
 40
0.01968503937007826
 50
-180.0
 51
-90.0
  0
ARC
  8
0
 62
0
 10
-6.513779527559089
 20
1.6387795275590398
 30
0.0
 40
0.019685039370079593
 50
-90.0
 51
-0.0
  0
ARC
  8
0
 62
0
 10
-2.951279527559098
 20
2.3887795275590404
 30
0.0
 40
0.01968503937007826
 50
-90.0
 51
-0.0
  0
ARC
  8
0
 62
0
 10
-3.4630905511811365
 20
2.900590551181056
 30
0.0
 40
0.01968503937007826
 50
90.0
 51
-180.0
  0
LINE
  8
0
 62
0
 10
-6.463090551181128
 20
2.9202755905511735
 30
0.0
 11
-5.951279527559088
 21
2.9202755905511735
 31
0.0
  0
LINE
  8
0
 62
0
 10
-5.931594488188994
 20
2.900590551181056
 30
0.0
 11
-5.931594488188994
 21
2.3887795275590404
 31
0.0
  0
LINE
  8
0
 62
0
 10
-5.951279527559088
 20
2.3690944881889653
 30
0.0
 11
-6.463090551181128
 21
2.3690944881889653
 31
0.0
  0
LINE
  8
0
 62
0
 10
-6.482775590551201
 20
2.3887795275590404
 30
0.0
 11
-6.482775590551201
 21
2.900590551181056
 31
0.0
  0
LINE
  8
0
 62
0
 10
-5.713090551181127
 20
2.9202755905511735
 30
0.0
 11
-5.201279527559088
 21
2.9202755905511735
 31
0.0
  0
LINE
  8
0
 62
0
 10
-5.201279527559088
 20
2.3690944881889653
 30
0.0
 11
-5.713090551181127
 21
2.3690944881889653
 31
0.0
  0
LINE
  8
0
 62
0
 10
-5.181594488188993
 20
2.900590551181056
 30
0.0
 11
-5.181594488188993
 21
2.3887795275590404
 31
0.0
  0
ARC
  8
0
 62
0
 10
-7.263779527559089
 20
2.1505905511810557
 30
0.0
 40
0.019685039370078705
 50
-0.0
 51
90.0
  0
ARC
  8
0
 62
0
 10
-0.7837106299212845
 20
1.2071653543306855
 30
0.0
 40
0.019685039370079593
 50
-90.00000000000033
 51
-0.0
  0
ARC
  8
0
 62
0
 10
-2.150590285203368
 20
0.13877953412961297
 30
0.0
 40
0.01968503937007826
 50
-180.0
 51
-90.0
  0
ARC
  8
0
 62
0
 10
-4.0762795275590875
 20
0.8887795275590397
 30
0.0
 40
0.019685039370078705
 50
-90.0
 51
-0.0
  0
ARC
  8
0
 62
0
 10
-4.775590551181127
 20
1.6387795275590398
 30
0.0
 40
0.019685039370078705
 50
-180.0
 51
-90.0
  0
ARC
  8
0
 62
0
 10
-4.775590551181127
 20
2.1505905511810557
 30
0.0
 40
0.019685039370078705
 50
90.0
 51
-180.0
  0
ARC
  8
0
 62
0
 10
-0.3262795275590983
 20
2.1505905511810557
 30
0.0
 40
0.019685039370079593
 50
-0.0
 51
90.0
  0
ARC
  8
0
 62
0
 10
-0.8380905511811358
 20
2.1505905511810557
 30
0.0
 40
0.01968503937007826
 50
90.0
 51
-180.0
  0
ARC
  8
0
 62
0
 10
-7.775590551181128
 20
1.6387795275590398
 30
0.0
 40
0.019685039370079593
 50
-180.0
 51
-90.0
  0
ARC
  8
0
 62
0
 10
-2.576279527559098
 20
0.8887795275590397
 30
0.0
 40
0.019685039370079593
 50
-90.0
 51
-0.0
  0
ARC
  8
0
 62
0
 10
-7.775590551181128
 20
2.1505905511810557
 30
0.0
 40
0.019685039370079593
 50
90.0
 51
-180.0
  0
ARC
  8
0
 62
0
 10
-0.7837106299212845
 20
1.5994094488188488
 30
0.0
 40
0.019685039370079593
 50
-0.0
 51
90.0
  0
ARC
  8
0
 62
0
 10
-6.275590551181128
 20
1.6387795275590398
 30
0.0
 40
0.019685039370079593
 50
-180.0
 51
-90.0
  0
ARC
  8
0
 62
0
 10
-0.28690944881892844
 20
2.147165354330683
 30
0.0
 40
0.019685039370078206
 50
-180.0
 51
-90.00000000000048
  0
ARC
  8
0
 62
0
 10
-6.088090551181127
 20
0.8887795275590397
 30
0.0
 40
0.019685039370079593
 50
-180.0
 51
-90.0
  0
ARC
  8
0
 62
0
 10
-0.2325295275590982
 20
2.1077952755905347
 30
0.0
 40
0.01968503937007962
 50
-0.0
 51
90.00000000000009
  0
ARC
  8
0
 62
0
 10
-5.763779527559088
 20
1.6387795275590398
 30
0.0
 40
0.019685039370079593
 50
-90.0
 51
-0.0
  0
ARC
  8
0
 62
0
 10
-7.263779527559089
 20
1.6387795275590398
 30
0.0
 40
0.019685039370078705
 50
-90.0
 51
-0.0
  0
ARC
  8
0
 62
0
 10
-0.8380905511811358
 20
1.6387795275590398
 30
0.0
 40
0.01968503937007826
 50
-180.0
 51
-90.00000000000065
  0
ARC
  8
0
 62
0
 10
-3.0880905511811365
 20
0.8887795275590397
 30
0.0
 40
0.01968503937007693
 50
-180.0
 51
-90.0
  0
ARC
  8
0
 62
0
 10
-5.763779527559088
 20
2.1505905511810557
 30
0.0
 40
0.019685039370079593
 50
-0.0
 51
90.0
  0
ARC
  8
0
 62
0
 10
-3.0880905511811365
 20
1.4005905511810557
 30
0.0
 40
0.01968503937007693
 50
90.0
 51
-180.0
  0
ARC
  8
0
 62
0
 10
-4.588090551181126
 20
0.8887795275590397
 30
0.0
 40
0.019685039370078705
 50
-180.0
 51
-90.0
  0
ARC
  8
0
 62
0
 10
-6.275590551181128
 20
2.1505905511810557
 30
0.0
 40
0.019685039370079593
 50
90.0
 51
-180.0
  0
ARC
  8
0
 62
0
 10
-4.0762795275590875
 20
1.4005905511810557
 30
0.0
 40
0.019685039370078705
 50
-0.0
 51
90.0
  0
ARC
  8
0
 62
0
 10
-3.0880905511811365
 20
0.6505905511810559
 30
0.0
 40
0.01968503937007693
 50
90.0
 51
-180.0
  0
ARC
  8
0
 62
0
 10
-0.28690944881892844
 20
1.8322047244094097
 30
0.0
 40
0.01968503937007826
 50
90.0
 51
-180.0
  0
ARC
  8
0
 62
0
 10
-0.7837106299212845
 20
0.9315748031495609
 30
0.0
 40
0.01968503937007826
 50
-180.0
 51
-90.00000000000065
  0
ARC
  8
0
 62
0
 10
-2.576279527559098
 20
1.4005905511810557
 30
0.0
 40
0.019685039370079593
 50
-0.0
 51
90.0
  0
ARC
  8
0
 62
0
 10
-6.088090551181127
 20
1.4005905511810557
 30
0.0
 40
0.019685039370079593
 50
90.0
 51
-180.0
  0
ARC
  8
0
 62
0
 10
-4.2637795275590875
 20
1.6387795275590398
 30
0.0
 40
0.019685039370077817
 50
-90.0
 51
-0.0
  0
ARC
  8
0
 62
0
 10
-0.28690944881892844
 20
1.8149606299212466
 30
0.0
 40
0.019685039370078206
 50
-180.0
 51
-90.00000000000048
  0
ARC
  8
0
 62
0
 10
-0.744340551181136
 20
0.8887795275590397
 30
0.0
 40
0.01968503937007826
 50
-180.0
 51
-90.00000000000033
  0
ARC
  8
0
 62
0
 10
-0.7837106299212845
 20
0.8922047244094122
 30
0.0
 40
0.019685039370079593
 50
-0.0
 51
90.00000000000033
  0
ARC
  8
0
 62
0
 10
-0.2325295275590982
 20
1.775590551181056
 30
0.0
 40
0.01968503937007962
 50
-0.0
 51
90.00000000000009
  0
ARC
  8
0
 62
0
 10
-0.7837106299212845
 20
1.1677952755905365
 30
0.0
 40
0.01968503937007826
 50
90.0
 51
-180.0
  0
ARC
  8
0
 62
0
 10
-0.2325295275590982
 20
0.8887795275590397
 30
0.0
 40
0.019685039370079593
 50
-90.00000000000033
 51
-0.0
  0
ARC
  8
0
 62
0
 10
-0.2325295275590982
 20
1.871574803149559
 30
0.0
 40
0.019685039370079593
 50
-90.00000000000033
 51
-0.0
  0
ARC
  8
0
 62
0
 10
-1.6387792615813086
 20
0.6505905577516721
 30
0.0
 40
0.01968503937007826
 50
-0.0
 51
90.0
  0
ARC
  8
0
 62
0
 10
-1.6387792615813086
 20
0.13877953412961297
 30
0.0
 40
0.019685039370078303
 50
-90.0
 51
-0.0
  0
ARC
  8
0
 62
0
 10
-2.150590285203368
 20
0.6505905577516721
 30
0.0
 40
0.01968503937007826
 50
90.0
 51
-180.0
  0
ARC
  8
0
 62
0
 10
-5.576279527559088
 20
0.8887795275590397
 30
0.0
 40
0.019685039370078705
 50
-90.0
 51
-0.0
  0
ARC
  8
0
 62
0
 10
-5.576279527559088
 20
1.4005905511810557
 30
0.0
 40
0.019685039370078705
 50
-0.0
 51
90.0
  0
ARC
  8
0
 62
0
 10
-4.588090551181126
 20
1.4005905511810557
 30
0.0
 40
0.019685039370078705
 50
90.0
 51
-180.0
  0
LINE
  8
0
 62
0
 10
-8.20127952755909
 20
2.3690944881889653
 30
0.0
 11
-8.713090551181129
 21
2.3690944881889653
 31
0.0
  0
LINE
  8
0
 62
0
 10
-7.213090551181128
 20
2.9202755905511735
 30
0.0
 11
-6.701279527559088
 21
2.9202755905511735
 31
0.0
  0
LINE
  8
0
 62
0
 10
-6.701279527559088
 20
2.3690944881889653
 30
0.0
 11
-7.213090551181128
 21
2.3690944881889653
 31
0.0
  0
LINE
  8
0
 62
0
 10
-7.232775590551202
 20
2.3887795275590404
 30
0.0
 11
-7.232775590551202
 21
2.900590551181056
 31
0.0
  0
LINE
  8
0
 62
0
 10
-1.8065944881890028
 20
0.8887795275590397
 30
0.0
 11
-1.8065944881890028
 21
1.4005905511810557
 31
0.0
  0
LINE
  8
0
 62
0
 10
-0.869094222211235
 20
0.13877953412961297
 30
0.0
 11
-0.869094222211235
 21
0.6505905577516721
 31
0.0
  0
LINE
  8
0
 62
0
 10
-7.963090551181128
 20
2.9202755905511735
 30
0.0
 11
-7.451279527559088
 21
2.9202755905511735
 31
0.0
  0
LINE
  8
0
 62
0
 10
-0.8887792615813092
 20
0.6702755971217463
 30
0.0
 11
-1.4005902852033676
 21
0.6702755971217463
 31
0.0
  0
LINE
  8
0
 62
0
 10
-7.431594488188995
 20
2.900590551181056
 30
0.0
 11
-7.431594488188995
 21
2.3887795275590404
 31
0.0
  0
LINE
  8
0
 62
0
 10
-7.451279527559088
 20
2.3690944881889653
 30
0.0
 11
-7.963090551181128
 21
2.3690944881889653
 31
0.0
  0
LINE
  8
0
 62
0
 10
-6.681594488188995
 20
2.900590551181056
 30
0.0
 11
-6.681594488188995
 21
2.3887795275590404
 31
0.0
  0
LINE
  8
0
 62
0
 10
-2.35777559055121
 20
1.4005905511810557
 30
0.0
 11
-2.35777559055121
 21
0.8887795275590394
 31
0.0
  0
LINE
  8
0
 62
0
 10
-1.826279527559098
 20
1.4202755905511726
 30
0.0
 11
-2.338090551181136
 21
1.4202755905511726
 31
0.0
  0
LINE
  8
0
 62
0
 10
-1.4005902852033676
 20
0.11909449475953876
 30
0.0
 11
-0.8887792615813092
 21
0.11909449475953876
 31
0.0
  0
LINE
  8
0
 62
0
 10
-1.4202753245734416
 20
0.6505905577516721
 30
0.0
 11
-1.4202753245734416
 21
0.13877953412961286
 31
0.0
  0
LINE
  8
0
 62
0
 10
-8.713090551181129
 20
2.9202755905511735
 30
0.0
 11
-8.20127952755909
 21
2.9202755905511735
 31
0.0
  0
LINE
  8
0
 62
0
 10
-8.181594488188994
 20
2.900590551181056
 30
0.0
 11
-8.181594488188994
 21
2.3887795275590404
 31
0.0
  0
LINE
  8
0
 62
0
 10
-8.732775590551201
 20
2.3887795275590404
 30
0.0
 11
-8.732775590551201
 21
2.900590551181056
 31
0.0
  0
LINE
  8
0
 62
0
 10
-7.982775590551202
 20
2.3887795275590404
 30
0.0
 11
-7.982775590551202
 21
2.900590551181056
 31
0.0
  0
POLYLINE
  8
0
 62
0
 70
0
 66
1
 10
0.0
 20
0.0
 30
0.0
  0
VERTEX
  8
0
 10
-0.7640255905512049
 20
0.8922047244094122
 30
0.0
  0
VERTEX
  8
0
 10
-0.7640255905512142
 20
0.8887795275590394
 30
0.0
  0
SEQEND
  8
0
  0
POLYLINE
  8
0
 62
0
 70
0
 66
1
 10
0.0
 20
0.0
 30
0.0
  0
VERTEX
  8
0
 10
-0.3065944881890066
 20
1.8322047244094097
 30
0.0
  0
VERTEX
  8
0
 10
-0.30659448818900653
 20
1.8149606299212466
 30
0.0
  0
SEQEND
  8
0
  0
POLYLINE
  8
0
 62
0
 70
0
 66
1
 10
0.0
 20
0.0
 30
0.0
  0
VERTEX
  8
0
 10
-0.3065944881890186
 20
2.1505905511810557
 30
0.0
  0
VERTEX
  8
0
 10
-0.30659448818900653
 20
2.147165354330683
 30
0.0
  0
SEQEND
  8
0
  0
POLYLINE
  8
0
 62
0
 70
0
 66
1
 10
0.0
 20
0.0
 30
0.0
  0
VERTEX
  8
0
 10
-7.302165354330734
 20
0.6702755971217405
 30
0.0
  0
VERTEX
  8
0
 10
-7.306840551181128
 20
0.6702755905511333
 30
0.0
  0
SEQEND
  8
0
  0
ARC
  8
0
 62
0
 10
-0.13877926158130904
 20
0.6505905577516721
 30
0.0
 40
0.019685039370079607
 50
-0.0
 51
90.00000000000009
  0
ARC
  8
0
 62
0
 10
-0.650590285203368
 20
0.13877953412961297
 30
0.0
 40
0.01968503937007826
 50
180.0
 51
-90.00000000000033
  0
ARC
  8
0
 62
0
 10
-9.369340551181129
 20
1.6387795275590398
 30
0.0
 40
0.019685039370077817
 50
-180.0
 51
-90.0
  0
ARC
  8
0
 62
0
 10
-6.326545275590584
 20
0.6899606299212472
 30
0.0
 40
0.019685039370079593
 50
90.0
 51
-180.0
  0
ARC
  8
0
 62
0
 10
-6.090324803149628
 20
0.13877952755903955
 30
0.0
 40
0.019685039370078705
 50
-90.0
 51
-0.0
  0
ARC
  8
0
 62
0
 10
-1.9630905511811358
 20
2.900590551181056
 30
0.0
 40
0.019685039370079593
 50
90.0
 51
-180.0
  0
ARC
  8
0
 62
0
 10
-6.326545275590584
 20
0.13877952755903955
 30
0.0
 40
0.019685039370079593
 50
-180.0
 51
-90.0
  0
ARC
  8
0
 62
0
 10
-8.951279527559091
 20
2.900590551181056
 30
0.0
 40
0.019685039370077817
 50
-0.0
 51
90.0
  0
ARC
  8
0
 62
0
 10
-9.463090551181129
 20
2.3887795275590404
 30
0.0
 40
0.019685039370077817
 50
-180.0
 51
-90.0
  0
ARC
  8
0
 62
0
 10
-6.513779527559089
 20
2.1505905511810557
 30
0.0
 40
0.019685039370079593
 50
-0.0
 51
90.0
  0
ARC
  8
0
 62
0
 10
-1.5880905511811356
 20
1.4005905511810557
 30
0.0
 40
0.01968503937007826
 50
90.0
 51
-180.0
  0
ARC
  8
0
 62
0
 10
-0.42002952755909834
 20
2.900590551181056
 30
0.0
 40
0.019685039370078317
 50
-0.0
 51
90.0
  0
ARC
  8
0
 62
0
 10
-0.9318405511811358
 20
2.900590551181056
 30
0.0
 40
0.019685039370079593
 50
90.0
 51
-180.0
  0
ARC
  8
0
 62
0
 10
-9.369340551181129
 20
0.6505905511810559
 30
0.0
 40
0.019685039370077817
 50
90.0
 51
-180.0
  0
ARC
  8
0
 62
0
 10
-8.525590551181127
 20
2.1505905511810557
 30
0.0
 40
0.019685039370079593
 50
90.0
 51
-180.0
  0
ARC
  8
0
 62
0
 10
-9.369340551181129
 20
2.1505905511810557
 30
0.0
 40
0.019685039370077817
 50
90.0
 51
-180.0
  0
ARC
  8
0
 62
0
 10
-8.857529527559091
 20
1.6387795275590398
 30
0.0
 40
0.019685039370077817
 50
-90.0
 51
-0.0
  0
ARC
  8
0
 62
0
 10
-8.525590551181127
 20
1.6387795275590398
 30
0.0
 40
0.019685039370079593
 50
-180.0
 51
-90.0
  0
ARC
  8
0
 62
0
 10
-8.01377952755909
 20
2.1505905511810557
 30
0.0
 40
0.019685039370078705
 50
-0.0
 51
90.0
  0
ARC
  8
0
 62
0
 10
-2.7130905511811365
 20
2.900590551181056
 30
0.0
 40
0.01968503937007826
 50
90.0
 51
-180.0
  0
ARC
  8
0
 62
0
 10
-1.4512795275590977
 20
2.3887795275590404
 30
0.0
 40
0.01968503937007826
 50
-90.0
 51
-0.0
  0
ARC
  8
0
 62
0
 10
-0.9318405511811358
 20
2.3887795275590404
 30
0.0
 40
0.019685039370079482
 50
-180.0
 51
-90.00000000000065
  0
ARC
  8
0
 62
0
 10
-2.7130905511811365
 20
2.3887795275590404
 30
0.0
 40
0.01968503937007826
 50
-180.0
 51
-90.0
  0
ARC
  8
0
 62
0
 10
-8.338090551181127
 20
0.8887795275590397
 30
0.0
 40
0.019685039370079593
 50
-180.0
 51
-90.0
  0
ARC
  8
0
 62
0
 10
-1.9630905511811358
 20
2.3887795275590404
 30
0.0
 40
0.019685039370079593
 50
-180.0
 51
-90.0
  0
ARC
  8
0
 62
0
 10
-8.857529527559091
 20
2.1505905511810557
 30
0.0
 40
0.019685039370077817
 50
-0.0
 51
90.0
  0
ARC
  8
0
 62
0
 10
-8.01377952755909
 20
1.6387795275590398
 30
0.0
 40
0.019685039370078705
 50
-90.0
 51
-0.0
  0
ARC
  8
0
 62
0
 10
-8.338090551181127
 20
1.4005905511810557
 30
0.0
 40
0.019685039370079593
 50
90.0
 51
-180.0
  0
ARC
  8
0
 62
0
 10
-1.4512795275590977
 20
2.900590551181056
 30
0.0
 40
0.01968503937007826
 50
-0.0
 51
90.0
  0
ARC
  8
0
 62
0
 10
-7.826279527559089
 20
0.8887795275590397
 30
0.0
 40
0.019685039370078705
 50
-90.0
 51
-0.0
  0
ARC
  8
0
 62
0
 10
-3.556574803149642
 20
0.6899606299212472
 30
0.0
 40
0.01968503937007826
 50
-0.0
 51
90.0
  0
ARC
  8
0
 62
0
 10
-3.7927952755905854
 20
0.13877952755903955
 30
0.0
 40
0.019685039370078705
 50
-180.0
 51
-90.0
  0
ARC
  8
0
 62
0
 10
-3.7927952755905854
 20
0.6899606299212472
 30
0.0
 40
0.019685039370078705
 50
90.0
 51
-180.0
  0
ARC
  8
0
 62
0
 10
-8.857529527559091
 20
0.6505905511810559
 30
0.0
 40
0.019685039370077817
 50
-0.0
 51
90.0
  0
ARC
  8
0
 62
0
 10
-2.2012795275590977
 20
2.3887795275590404
 30
0.0
 40
0.019685039370079593
 50
-90.0
 51
-0.0
  0
ARC
  8
0
 62
0
 10
-7.025590551181127
 20
2.1505905511810557
 30
0.0
 40
0.019685039370077817
 50
90.0
 51
-180.0
  0
ARC
  8
0
 62
0
 10
-7.826279527559089
 20
1.4005905511810557
 30
0.0
 40
0.019685039370078705
 50
-0.0
 51
90.0
  0
ARC
  8
0
 62
0
 10
-6.090324803149628
 20
0.6899606299212472
 30
0.0
 40
0.019685039370078705
 50
-0.0
 51
90.0
  0
ARC
  8
0
 62
0
 10
-2.2012795275590977
 20
2.900590551181056
 30
0.0
 40
0.019685039370079593
 50
-0.0
 51
90.0
  0
ARC
  8
0
 62
0
 10
-0.42002952755909834
 20
2.3887795275590404
 30
0.0
 40
0.01968503937007826
 50
-90.00000000000033
 51
-0.0
  0
ARC
  8
0
 62
0
 10
-7.025590551181127
 20
1.6387795275590398
 30
0.0
 40
0.019685039370077817
 50
-180.0
 51
-90.0
  0
ARC
  8
0
 62
0
 10
-3.556574803149642
 20
0.13877952755903955
 30
0.0
 40
0.019685039370078303
 50
-90.0
 51
-0.0
  0
ARC
  8
0
 62
0
 10
-8.857529527559091
 20
0.13877952755903955
 30
0.0
 40
0.019685039370077817
 50
-90.0
 51
-0.0
  0
ARC
  8
0
 62
0
 10
-9.369340551181129
 20
0.13877952755903955
 30
0.0
 40
0.019685039370079593
 50
-180.0
 51
-90.0
  0
ARC
  8
0
 62
0
 10
-0.13877926158130904
 20
0.13877953412961297
 30
0.0
 40
0.019685039370079607
 50
-90.00000000000033
 51
-0.0
  0
ARC
  8
0
 62
0
 10
-0.650590285203368
 20
0.6505905577516721
 30
0.0
 40
0.01968503937007826
 50
90.0
 51
-180.0
  0
ARC
  8
0
 62
0
 10
-5.482529527559088
 20
0.6505905511810559
 30
0.0
 40
0.019685039370078705
 50
-0.0
 51
90.0
  0
ARC
  8
0
 62
0
 10
-5.482529527559088
 20
0.13877952755903955
 30
0.0
 40
0.019685039370078705
 50
-90.0
 51
-0.0
  0
ARC
  8
0
 62
0
 10
-5.994340551181127
 20
0.13877952755903955
 30
0.0
 40
0.019685039370079593
 50
-180.0
 51
-90.0
  0
ARC
  8
0
 62
0
 10
-5.994340551181127
 20
0.6505905511810559
 30
0.0
 40
0.019685039370079593
 50
90.0
 51
-180.0
  0
ARC
  8
0
 62
0
 10
-9.463090551181129
 20
2.900590551181056
 30
0.0
 40
0.019685039370077817
 50
90.0
 51
-180.0
  0
ARC
  8
0
 62
0
 10
-8.951279527559091
 20
2.3887795275590404
 30
0.0
 40
0.019685039370077817
 50
-90.0
 51
-0.0
  0
ARC
  8
0
 62
0
 10
-1.0762795275590975
 20
0.8887795275590397
 30
0.0
 40
0.01968503937007826
 50
-90.0
 51
-0.0
  0
ARC
  8
0
 62
0
 10
-1.5880905511811356
 20
0.8887795275590397
 30
0.0
 40
0.019685039370078483
 50
-180.0
 51
-90.0
  0
ARC
  8
0
 62
0
 10
-1.0762795275590975
 20
1.4005905511810557
 30
0.0
 40
0.01968503937007826
 50
-0.0
 51
90.0
  0
ARC
  8
0
 62
0
 10
-3.888779527559089
 20
0.13877952755903955
 30
0.0
 40
0.019685039370079205
 50
-90.0
 51
-0.0
  0
ARC
  8
0
 62
0
 10
-4.400590551181126
 20
0.13877952755903955
 30
0.0
 40
0.019685039370079593
 50
-180.0
 51
-90.0
  0
ARC
  8
0
 62
0
 10
-4.400590551181126
 20
0.6505905511810559
 30
0.0
 40
0.019685039370079593
 50
90.0
 51
-180.0
  0
ARC
  8
0
 62
0
 10
-3.888779527559089
 20
0.6505905511810559
 30
0.0
 40
0.01968503937007915
 50
-0.0
 51
90.0
  0
ARC
  8
0
 62
0
 10
-9.275590551181129
 20
0.8887795275590397
 30
0.0
 40
0.019685039370079593
 50
-180.0
 51
-90.0
  0
ARC
  8
0
 62
0
 10
-7.262795275590586
 20
0.6899606299212472
 30
0.0
 40
0.019685039370077817
 50
90.0
 51
179.99999045452046
  0
ARC
  8
0
 62
0
 10
-2.7627952755905953
 20
0.6899606299212472
 30
0.0
 40
0.01968503937007826
 50
90.0
 51
-180.0
  0
ARC
  8
0
 62
0
 10
-4.4965748031496275
 20
0.6899606299212472
 30
0.0
 40
0.019685039370078705
 50
-0.0
 51
90.0
  0
ARC
  8
0
 62
0
 10
-8.76377952755909
 20
0.8887795275590397
 30
0.0
 40
0.019685039370077817
 50
-90.0
 51
-0.0
  0
ARC
  8
0
 62
0
 10
-5.110954724409483
 20
0.6899606299212472
 30
0.0
 40
0.019685039370078705
 50
-180.0
 51
-90.0
  0
ARC
  8
0
 62
0
 10
-2.8021653543307434
 20
0.6899606299212472
 30
0.0
 40
0.019685039370079593
 50
-90.0
 51
-0.0
  0
ARC
  8
0
 62
0
 10
-8.338090551181127
 20
0.6505905511810559
 30
0.0
 40
0.019685039370079593
 50
90.0
 51
-180.0
  0
ARC
  8
0
 62
0
 10
-4.772165354330732
 20
0.6899606299212472
 30
0.0
 40
0.019685039370078705
 50
-90.0
 51
-0.0
  0
ARC
  8
0
 62
0
 10
-8.76377952755909
 20
1.4005905511810557
 30
0.0
 40
0.019685039370077817
 50
-0.0
 51
90.0
  0
ARC
  8
0
 62
0
 10
-5.386545275590587
 20
0.6899606299212472
 30
0.0
 40
0.019685039370078705
 50
90.0
 51
-180.0
  0
ARC
  8
0
 62
0
 10
-7.826279527559089
 20
0.13877952755903955
 30
0.0
 40
0.019685039370078705
 50
-90.0
 51
-0.0
  0
ARC
  8
0
 62
0
 10
-6.795029527559088
 20
0.13877952755903955
 30
0.0
 40
0.019685039370078705
 50
-90.0
 51
-0.0
  0
ARC
  8
0
 62
0
 10
-4.4965748031496275
 20
0.13877952755903955
 30
0.0
 40
0.019685039370078705
 50
-90.0
 51
-0.0
  0
ARC
  8
0
 62
0
 10
-2.526574803149639
 20
0.6899606299212472
 30
0.0
 40
0.019685039370079593
 50
-0.0
 51
90.0
  0
ARC
  8
0
 62
0
 10
-3.0880905511811365
 20
0.13877952755903955
 30
0.0
 40
0.01968503937007693
 50
-180.0
 51
-90.0
  0
ARC
  8
0
 62
0
 10
-2.526574803149639
 20
0.13877952755903955
 30
0.0
 40
0.019685039370079607
 50
-90.0
 51
-0.0
  0
ARC
  8
0
 62
0
 10
-5.150324803149631
 20
0.6899606299212472
 30
0.0
 40
0.019685039370077817
 50
-0.0
 51
90.0
  0
ARC
  8
0
 62
0
 10
-8.338090551181127
 20
0.13877952755903955
 30
0.0
 40
0.019685039370079593
 50
-180.0
 51
-90.0
  0
ARC
  8
0
 62
0
 10
-7.0265748031496305
 20
0.6899606299212472
 30
0.0
 40
0.019685039370078705
 50
-0.0
 51
90.0
  0
ARC
  8
0
 62
0
 10
-4.732795275590583
 20
0.6899606299212472
 30
0.0
 40
0.019685039370078705
 50
90.0
 51
-180.0
  0
ARC
  8
0
 62
0
 10
-9.275590551181129
 20
1.4005905511810557
 30
0.0
 40
0.019685039370077817
 50
90.0
 51
-180.0
  0
ARC
  8
0
 62
0
 10
-6.795029527559088
 20
0.6505905511810559
 30
0.0
 40
0.019685039370078705
 50
-0.0
 51
90.0
  0
ARC
  8
0
 62
0
 10
-5.386545275590587
 20
0.13877952755903955
 30
0.0
 40
0.019685039370078705
 50
-180.0
 51
-90.0
  0
ARC
  8
0
 62
0
 10
-6.987204724409483
 20
0.6899606299212472
 30
0.0
 40
0.019685039370079593
 50
-180.0
 51
-90.0
  0
ARC
  8
0
 62
0
 10
-7.826279527559089
 20
0.6505905511810559
 30
0.0
 40
0.019685039370078705
 50
-0.0
 51
90.0
  0
ARC
  8
0
 62
0
 10
-7.306840551181128
 20
0.13877952755903955
 30
0.0
 40
0.019685039370077817
 50
-180.0
 51
-90.0
  0
ARC
  8
0
 62
0
 10
-7.306840551181128
 20
0.6505905511810559
 30
0.0
 40
0.019685039370077817
 50
90.0
 51
-180.0
  0
ARC
  8
0
 62
0
 10
-7.302165354330734
 20
0.6899606364918205
 30
0.0
 40
0.019685039370079593
 50
-90.0
 51
-9.545479552082124e-06
  0
LINE
  8
0
 62
0
 10
-8.837844488188995
 20
2.1505905511810557
 30
0.0
 11
-8.837844488188995
 21
1.6387795275590398
 31
0.0
  0
LINE
  8
0
 62
0
 10
-8.338090551181127
 20
0.8690944881889654
 30
0.0
 11
-7.826279527559089
 21
0.8690944881889654
 31
0.0
  0
LINE
  8
0
 62
0
 10
-6.34623031496066
 20
0.6899606299212472
 30
0.0
 11
-6.34623031496066
 21
0.13877952755903936
 31
0.0
  0
LINE
  8
0
 62
0
 10
-3.4630905511811365
 20
2.9202755905511735
 30
0.0
 11
-2.951279527559098
 21
2.9202755905511735
 31
0.0
  0
LINE
  8
0
 62
0
 10
-0.9515255905512101
 20
2.3887795275590404
 30
0.0
 11
-0.9515255905512101
 21
2.900590551181056
 31
0.0
  0
LINE
  8
0
 62
0
 10
-8.837844488188995
 20
0.13877952755903955
 30
0.0
 11
-8.837844488188995
 21
0.6505905511810559
 31
0.0
  0
LINE
  8
0
 62
0
 10
-8.857529527559091
 20
1.6190944881889657
 30
0.0
 11
-9.369340551181129
 21
1.6190944881889657
 31
0.0
  0
LINE
  8
0
 62
0
 10
-4.963090551181126
 20
2.9202755905511735
 30
0.0
 11
-4.4512795275590875
 21
2.9202755905511735
 31
0.0
  0
LINE
  8
0
 62
0
 10
-0.650590285203368
 20
0.11909449475953876
 30
0.0
 11
-0.13877926158130904
 21
0.11909449475953876
 31
0.0
  0
LINE
  8
0
 62
0
 10
-3.6815944881889933
 20
2.900590551181056
 30
0.0
 11
-3.6815944881889933
 21
2.3887795275590404
 31
0.0
  0
LINE
  8
0
 62
0
 10
-3.4827755905512103
 20
2.3887795275590404
 30
0.0
 11
-3.4827755905512103
 21
2.900590551181056
 31
0.0
  0
LINE
  8
0
 62
0
 10
-1.4315944881890026
 20
2.900590551181056
 30
0.0
 11
-1.4315944881890026
 21
2.3887795275590404
 31
0.0
  0
LINE
  8
0
 62
0
 10
-8.525590551181127
 20
1.6190944881889657
 30
0.0
 11
-8.01377952755909
 21
1.6190944881889657
 31
0.0
  0
LINE
  8
0
 62
0
 10
-6.090324803149628
 20
0.7096456692913214
 30
0.0
 11
-6.326545275590584
 21
0.7096456692913214
 31
0.0
  0
LINE
  8
0
 62
0
 10
-0.9318405511811358
 20
2.9202755905511735
 30
0.0
 11
-0.42002952755909834
 21
2.9202755905511735
 31
0.0
  0
LINE
  8
0
 62
0
 10
-9.369340551181129
 20
0.11909449475953876
 30
0.0
 11
-8.857529527559091
 21
0.11909449475953876
 31
0.0
  0
LINE
  8
0
 62
0
 10
-4.2327755905512
 20
2.3887795275590404
 30
0.0
 11
-4.2327755905512
 21
2.900590551181056
 31
0.0
  0
LINE
  8
0
 62
0
 10
-6.513779527559089
 20
2.1702755905511735
 30
0.0
 11
-7.025590551181127
 21
2.1702755905511735
 31
0.0
  0
LINE
  8
0
 62
0
 10
-2.181594488189003
 20
2.900590551181056
 30
0.0
 11
-2.181594488189003
 21
2.3887795275590404
 31
0.0
  0
LINE
  8
0
 62
0
 10
-1.4512795275590977
 20
2.3690944881889653
 30
0.0
 11
-1.9630905511811358
 21
2.3690944881889653
 31
0.0
  0
LINE
  8
0
 62
0
 10
-3.556574803149642
 20
0.7096456692913214
 30
0.0
 11
-3.7927952755905854
 21
0.7096456692913214
 31
0.0
  0
LINE
  8
0
 62
0
 10
-4.213090551181126
 20
2.9202755905511735
 30
0.0
 11
-3.7012795275590884
 21
2.9202755905511735
 31
0.0
  0
LINE
  8
0
 62
0
 10
-4.4512795275590875
 20
2.3690944881889653
 30
0.0
 11
-4.963090551181126
 21
2.3690944881889653
 31
0.0
  0
LINE
  8
0
 62
0
 10
-3.5368897637795667
 20
0.13877952755903955
 30
0.0
 11
-3.5368897637795667
 21
0.6899606299212472
 31
0.0
  0
LINE
  8
0
 62
0
 10
-8.545275590551201
 20
2.1505905511810557
 30
0.0
 11
-8.545275590551201
 21
1.6387795275590398
 31
0.0
  0
LINE
  8
0
 62
0
 10
-6.070639763779555
 20
0.13877952755903955
 30
0.0
 11
-6.070639763779555
 21
0.6899606299212472
 31
0.0
  0
LINE
  8
0
 62
0
 10
-6.494094488188994
 20
1.6387795275590398
 30
0.0
 11
-6.494094488188994
 21
2.1505905511810557
 31
0.0
  0
LINE
  8
0
 62
0
 10
-2.9315944881890035
 20
2.900590551181056
 30
0.0
 11
-2.9315944881890035
 21
2.3887795275590404
 31
0.0
  0
LINE
  8
0
 62
0
 10
-2.951279527559098
 20
2.3690944881889653
 30
0.0
 11
-3.4630905511811365
 21
2.3690944881889653
 31
0.0
  0
LINE
  8
0
 62
0
 10
-2.2012795275590977
 20
2.3690944881889653
 30
0.0
 11
-2.7130905511811365
 21
2.3690944881889653
 31
0.0
  0
LINE
  8
0
 62
0
 10
-0.4003444881890027
 20
2.900590551181056
 30
0.0
 11
-0.4003444881890027
 21
2.3887795275590404
 31
0.0
  0
LINE
  8
0
 62
0
 10
-9.369340551181129
 20
2.1702755905511735
 30
0.0
 11
-8.857529527559091
 21
2.1702755905511735
 31
0.0
  0
LINE
  8
0
 62
0
 10
-7.826279527559089
 20
1.4202755905511726
 30
0.0
 11
-8.338090551181127
 21
1.4202755905511726
 31
0.0
  0
LINE
  8
0
 62
0
 10
-9.389025590551203
 20
1.6387795275590398
 30
0.0
 11
-9.389025590551203
 21
2.1505905511810557
 31
0.0
  0
LINE
  8
0
 62
0
 10
-1.9827755905512099
 20
2.3887795275590404
 30
0.0
 11
-1.9827755905512099
 21
2.900590551181056
 31
0.0
  0
LINE
  8
0
 62
0
 10
-2.7327755905512103
 20
2.3887795275590404
 30
0.0
 11
-2.7327755905512103
 21
2.900590551181056
 31
0.0
  0
LINE
  8
0
 62
0
 10
-0.42002952755909834
 20
2.3690944881889653
 30
0.0
 11
-0.9318405511811358
 21
2.3690944881889653
 31
0.0
  0
LINE
  8
0
 62
0
 10
-7.806594488188994
 20
0.8887795275590397
 30
0.0
 11
-7.806594488188994
 21
1.4005905511810557
 31
0.0
  0
LINE
  8
0
 62
0
 10
-7.025590551181127
 20
1.6190944881889657
 30
0.0
 11
-6.513779527559089
 21
1.6190944881889657
 31
0.0
  0
LINE
  8
0
 62
0
 10
-7.045275590551201
 20
2.1505905511810557
 30
0.0
 11
-7.045275590551201
 21
1.6387795275590398
 31
0.0
  0
LINE
  8
0
 62
0
 10
-3.7012795275590884
 20
2.3690944881889653
 30
0.0
 11
-4.213090551181126
 21
2.3690944881889653
 31
0.0
  0
LINE
  8
0
 62
0
 10
-4.431594488188993
 20
2.900590551181056
 30
0.0
 11
-4.431594488188993
 21
2.3887795275590404
 31
0.0
  0
LINE
  8
0
 62
0
 10
-5.732775590551201
 20
2.3887795275590404
 30
0.0
 11
-5.732775590551201
 21
2.900590551181056
 31
0.0
  0
LINE
  8
0
 62
0
 10
-8.01377952755909
 20
2.1702755905511735
 30
0.0
 11
-8.525590551181127
 21
2.1702755905511735
 31
0.0
  0
LINE
  8
0
 62
0
 10
-4.982775590551201
 20
2.3887795275590404
 30
0.0
 11
-4.982775590551201
 21
2.900590551181056
 31
0.0
  0
LINE
  8
0
 62
0
 10
-7.994094488188995
 20
1.6387795275590398
 30
0.0
 11
-7.994094488188995
 21
2.1505905511810557
 31
0.0
  0
LINE
  8
0
 62
0
 10
-2.7130905511811365
 20
2.9202755905511735
 30
0.0
 11
-2.2012795275590977
 21
2.9202755905511735
 31
0.0
  0
LINE
  8
0
 62
0
 10
-1.9630905511811358
 20
2.9202755905511735
 30
0.0
 11
-1.4512795275590977
 21
2.9202755905511735
 31
0.0
  0
LINE
  8
0
 62
0
 10
-8.357775590551201
 20
1.4005905511810557
 30
0.0
 11
-8.357775590551201
 21
0.8887795275590394
 31
0.0
  0
LINE
  8
0
 62
0
 10
-6.326545275590584
 20
0.11909449475953876
 30
0.0
 11
-6.090324803149628
 21
0.11909449475953876
 31
0.0
  0
LINE
  8
0
 62
0
 10
-3.7927952755905854
 20
0.11909448818896536
 30
0.0
 11
-3.556574803149642
 21
0.11909448818896536
 31
0.0
  0
LINE
  8
0
 62
0
 10
-3.81248031496066
 20
0.6899606299212472
 30
0.0
 11
-3.81248031496066
 21
0.13877952755903936
 31
0.0
  0
LINE
  8
0
 62
0
 10
-8.857529527559091
 20
0.6702755905511728
 30
0.0
 11
-9.369340551181129
 21
0.6702755905511728
 31
0.0
  0
LINE
  8
0
 62
0
 10
-9.389025590551203
 20
0.6505905511810559
 30
0.0
 11
-9.389025590551203
 21
0.13877952755903936
 31
0.0
  0
LINE
  8
0
 62
0
 10
-0.13877926158130904
 20
0.6702755971217463
 30
0.0
 11
-0.650590285203368
 21
0.6702755971217463
 31
0.0
  0
LINE
  8
0
 62
0
 10
-0.11909422221123485
 20
0.13877953412961297
 30
0.0
 11
-0.11909422221123485
 21
0.6505905577516721
 31
0.0
  0
LINE
  8
0
 62
0
 10
-0.6702753245734423
 20
0.6505905577516721
 30
0.0
 11
-0.6702753245734423
 21
0.13877953412961286
 31
0.0
  0
LINE
  8
0
 62
0
 10
-5.462844488188994
 20
0.13877952755903955
 30
0.0
 11
-5.462844488188994
 21
0.6505905511810559
 31
0.0
  0
LINE
  8
0
 62
0
 10
-5.994340551181127
 20
0.11909449475953876
 30
0.0
 11
-5.482529527559088
 21
0.11909449475953876
 31
0.0
  0
LINE
  8
0
 62
0
 10
-6.014025590551201
 20
0.6505905511810559
 30
0.0
 11
-6.014025590551201
 21
0.13877952755903936
 31
0.0
  0
LINE
  8
0
 62
0
 10
-5.482529527559088
 20
0.6702755905511728
 30
0.0
 11
-5.994340551181127
 21
0.6702755905511728
 31
0.0
  0
LINE
  8
0
 62
0
 10
-9.463090551181129
 20
2.9202755905511735
 30
0.0
 11
-8.951279527559091
 21
2.9202755905511735
 31
0.0
  0
LINE
  8
0
 62
0
 10
-8.931594488188995
 20
2.900590551181056
 30
0.0
 11
-8.931594488188995
 21
2.3887795275590404
 31
0.0
  0
LINE
  8
0
 62
0
 10
-8.951279527559091
 20
2.3690944881889653
 30
0.0
 11
-9.463090551181129
 21
2.3690944881889653
 31
0.0
  0
LINE
  8
0
 62
0
 10
-2.8021653543307434
 20
0.6702755905511728
 30
0.0
 11
-3.0880905511811365
 21
0.6702755905511728
 31
0.0
  0
LINE
  8
0
 62
0
 10
-8.744094488188994
 20
0.8887795275590397
 30
0.0
 11
-8.744094488188994
 21
1.4005905511810557
 31
0.0
  0
LINE
  8
0
 62
0
 10
-3.888779527559089
 20
0.6702755905511728
 30
0.0
 11
-4.400590551181126
 21
0.6702755905511728
 31
0.0
  0
LINE
  8
0
 62
0
 10
-5.150324803149631
 20
0.7096456692913214
 30
0.0
 11
-5.386545275590587
 21
0.7096456692913214
 31
0.0
  0
LINE
  8
0
 62
0
 10
-9.295275590551201
 20
1.4005905511810557
 30
0.0
 11
-9.295275590551201
 21
0.8887795275590394
 31
0.0
  0
LINE
  8
0
 62
0
 10
-4.476889763779554
 20
0.13877952755903955
 30
0.0
 11
-4.476889763779554
 21
0.6899606299212472
 31
0.0
  0
LINE
  8
0
 62
0
 10
-1.6077755905512097
 20
1.4005905511810557
 30
0.0
 11
-1.6077755905512097
 21
0.8887795275590394
 31
0.0
  0
LINE
  8
0
 62
0
 10
-2.526574803149639
 20
0.7096456692913214
 30
0.0
 11
-2.7627952755905953
 21
0.7096456692913214
 31
0.0
  0
LINE
  8
0
 62
0
 10
-1.0565944881890024
 20
0.8887795275590397
 30
0.0
 11
-1.0565944881890024
 21
1.4005905511810557
 31
0.0
  0
LINE
  8
0
 62
0
 10
-4.400590551181126
 20
0.11909449475953876
 30
0.0
 11
-3.888779527559089
 21
0.11909449475953876
 31
0.0
  0
LINE
  8
0
 62
0
 10
-4.772165354330732
 20
0.6702755905511728
 30
0.0
 11
-5.110954724409483
 21
0.6702755905511728
 31
0.0
  0
LINE
  8
0
 62
0
 10
-9.482775590551203
 20
2.3887795275590404
 30
0.0
 11
-9.482775590551203
 21
2.900590551181056
 31
0.0
  0
LINE
  8
0
 62
0
 10
-5.386545275590587
 20
0.11909448818896536
 30
0.0
 11
-4.4965748031496275
 21
0.11909448818896536
 31
0.0
  0
LINE
  8
0
 62
0
 10
-1.5880905511811356
 20
1.4202755905511726
 30
0.0
 11
-1.0762795275590975
 21
1.4202755905511726
 31
0.0
  0
LINE
  8
0
 62
0
 10
-7.826279527559089
 20
0.6702755905511728
 30
0.0
 11
-8.338090551181127
 21
0.6702755905511728
 31
0.0
  0
LINE
  8
0
 62
0
 10
-8.338090551181127
 20
0.11909449475953876
 30
0.0
 11
-7.826279527559089
 21
0.11909449475953876
 31
0.0
  0
LINE
  8
0
 62
0
 10
-7.0265748031496305
 20
0.7096456692913214
 30
0.0
 11
-7.262795275590586
 21
0.7096456692913214
 31
0.0
  0
LINE
  8
0
 62
0
 10
-6.795029527559088
 20
0.6702755905511728
 30
0.0
 11
-6.987204724409483
 21
0.6702755905511728
 31
0.0
  0
LINE
  8
0
 62
0
 10
-2.5068897637795655
 20
0.13877952755903955
 30
0.0
 11
-2.5068897637795655
 21
0.6899606299212472
 31
0.0
  0
LINE
  8
0
 62
0
 10
-9.275590551181129
 20
0.8690944881889654
 30
0.0
 11
-8.76377952755909
 21
0.8690944881889654
 31
0.0
  0
LINE
  8
0
 62
0
 10
-8.76377952755909
 20
1.4202755905511297
 30
0.0
 11
-9.275590551181129
 21
1.4202755905511297
 31
0.0
  0
LINE
  8
0
 62
0
 10
-7.326525590551202
 20
0.6505905511810559
 30
0.0
 11
-7.326525590551202
 21
0.13877952755903955
 31
0.0
  0
LINE
  8
0
 62
0
 10
-4.4202755905512
 20
0.6505905511810559
 30
0.0
 11
-4.4202755905512
 21
0.13877952755903936
 31
0.0
  0
LINE
  8
0
 62
0
 10
-5.40623031496066
 20
0.6899606299212472
 30
0.0
 11
-5.40623031496066
 21
0.13877952755903955
 31
0.0
  0
LINE
  8
0
 62
0
 10
-4.4965748031496275
 20
0.7096456692913214
 30
0.0
 11
-4.732795275590583
 21
0.7096456692913214
 31
0.0
  0
LINE
  8
0
 62
0
 10
-1.0762795275590975
 20
0.8690944881889654
 30
0.0
 11
-1.5880905511811356
 21
0.8690944881889654
 31
0.0
  0
LINE
  8
0
 62
0
 10
-3.869094488188993
 20
0.13877952755903955
 30
0.0
 11
-3.869094488188993
 21
0.6505905511810559
 31
0.0
  0
LINE
  8
0
 62
0
 10
-7.806594488188994
 20
0.13877952755903955
 30
0.0
 11
-7.806594488188994
 21
0.6505905511810559
 31
0.0
  0
LINE
  8
0
 62
0
 10
-8.357775590551201
 20
0.6505905511810559
 30
0.0
 11
-8.357775590551201
 21
0.13877952755903936
 31
0.0
  0
LINE
  8
0
 62
0
 10
-6.775344488188995
 20
0.13877952755903955
 30
0.0
 11
-6.775344488188995
 21
0.6505905511810559
 31
0.0
  0
LINE
  8
0
 62
0
 10
-7.306840551181128
 20
0.11909449475953876
 30
0.0
 11
-6.795029527559088
 21
0.11909449475953876
 31
0.0
  0
ENDSEC
  0
EOF
