0
SECTION
2
HEADER
9
$INSUNITS
70
4
9
$ACADVER
1
AC1014
9
$HANDSEED
5
FFFF
0
ENDSEC
0
SECTION
2
TABLES
0
TABLE
2
VPORT
5
8
100
AcDbSymbolTable
0
ENDTAB
0
TABLE
2
LTYPE
5
5
100
AcDbSymbolTable
0
LTYPE
5
14
100
AcDbSymbolTableRecord
100
AcDbLinetypeTableRecord
2
BYBLOCK
70
0
0
LTYPE
5
15
100
AcDbSymbolTableRecord
100
AcDbLinetypeTableRecord
2
BYLAYER
70
0
0
ENDTAB
0
TABLE
2
LAYER
5
2
100
AcDbSymbolTable
70
2
0
LAYER
5
50
100
AcDbSymbolTableRecord
100
AcDbLayerTableRecord
2
0
70
0
6
CONTINUOUS
0
ENDTAB
0
TABLE
2
STYLE
5
3
100
AcDbSymbolTable
70
1
0
STYLE
5
11
100
AcDbSymbolTableRecord
100
AcDbTextStyleTableRecord
2
STANDARD
70
0
0
ENDTAB
0
TABLE
2
VIEW
5
6
100
AcDbSymbolTable
70
0
0
ENDTAB
0
TABLE
2
UCS
5
7
100
AcDbSymbolTable
70
0
0
ENDTAB
0
TABLE
2
APPID
5
9
100
AcDbSymbolTable
70
2
0
APPID
5
12
100
AcDbSymbolTableRecord
100
AcDbRegAppTableRecord
2
ACAD
70
0
0
ENDTAB
0
TABLE
2
DIMSTYLE
5
A
100
AcDbSymbolTable
70
1
0
ENDTAB
0
TABLE
2
BLOCK_RECORD
5
1
100
AcDbSymbolTable
70
1
0
BLOCK_RECORD
5
1F
100
AcDbSymbolTableRecord
100
AcDbBlockTableRecord
2
*MODEL_SPACE
0
BLOCK_RECORD
5
1B
100
AcDbSymbolTableRecord
100
AcDbBlockTableRecord
2
*PAPER_SPACE
0
ENDTAB
0
ENDSEC
0
SECTION
2
BLOCKS
0
BLOCK
5
20
100
AcDbEntity
100
AcDbBlockBegin
2
*MODEL_SPACE
0
ENDBLK
5
21
100
AcDbEntity
100
AcDbBlockEnd
0
BLOCK
5
1C
100
AcDbEntity
100
AcDbBlockBegin
2
*PAPER_SPACE
0
ENDBLK
5
1D
100
AcDbEntity
100
AcDbBlockEnd
0
ENDSEC
0
SECTION
2
ENTITIES
0
LWPOLYLINE
5
100
100
AcDbEntity
8
0
100
AcDbPolyline
90
4
70
1
43
0.0
10
-91.971250000295328
20
-93.374999999999986
10
-91.971250000295328
20
-79.374999999999929
10
-105.97125000029536
20
-79.374999999999929
10
-105.97125000029536
20
-93.374999999999986
0
LWPOLYLINE
5
101
100
AcDbEntity
8
0
100
AcDbPolyline
90
4
70
1
43
0.0
10
-110.65125000029536
20
-93.374999999999986
10
-110.65125000029536
20
-79.374999999999929
10
-124.65125000029538
20
-79.375
10
-124.65125000029538
20
-93.374999999999986
0
LWPOLYLINE
5
102
100
AcDbEntity
8
0
100
AcDbPolyline
90
4
70
1
43
0.0
10
-162.01125000029535
20
-79.375
10
-162.01125000029535
20
-93.374999999999986
10
-148.01125000029541
20
-93.374999999999986
10
-148.01125000029541
20
-79.375
0
LWPOLYLINE
5
103
100
AcDbEntity
8
0
100
AcDbPolyline
90
4
70
1
43
0.0
10
-73.291250000295335
20
-93.374999999999986
10
-73.291250000295335
20
-79.374999999999929
10
-87.291250000295378
20
-79.374999999999929
10
-87.291250000295378
20
-93.374999999999986
0
LWPOLYLINE
5
104
100
AcDbEntity
8
0
100
AcDbPolyline
90
4
70
1
43
0.0
10
38.788749999704642
20
-98.42499999999994
10
24.788749999704692
20
-98.425000000000011
10
24.788749999704692
20
-112.425
10
38.788749999704642
20
-112.42499999999993
0
LWPOLYLINE
5
105
100
AcDbEntity
8
0
100
AcDbPolyline
90
4
70
1
43
0.0
10
-124.65125000029538
20
-112.425
10
-110.65125000029536
20
-112.425
10
-110.65125000029536
20
-98.42499999999994
10
-124.65125000029538
20
-98.425000000000011
0
LWPOLYLINE
5
106
100
AcDbEntity
8
0
100
AcDbPolyline
90
4
70
1
43
0.0
10
-143.33125000029537
20
-112.425
10
-129.33125000029534
20
-112.425
10
-129.33125000029534
20
-98.425000000000011
10
-143.33125000029537
20
-98.425000000000011
0
LWPOLYLINE
5
107
100
AcDbEntity
8
0
100
AcDbPolyline
90
4
70
1
43
0.0
10
-91.971250000295328
20
-98.42499999999994
10
-105.97125000029536
20
-98.42499999999994
10
-105.97125000029536
20
-112.425
10
-91.971250000295328
20
-112.42499999999993
0
LWPOLYLINE
5
108
100
AcDbEntity
8
0
100
AcDbPolyline
90
4
70
1
43
0.0
10
-87.291250000295378
20
-112.42499999999993
10
-73.291250000295335
20
-112.425
10
-73.291250000295335
20
-98.425000000000011
10
-87.291250000295378
20
-98.42499999999994
0
LWPOLYLINE
5
109
100
AcDbEntity
8
0
100
AcDbPolyline
90
4
70
1
43
0.0
10
-54.611250000295371
20
-79.375
10
-68.611250000295328
20
-79.374999999999929
10
-68.611250000295328
20
-93.374999999999986
10
-54.611250000295371
20
-93.374999999999986
0
LWPOLYLINE
5
110
100
AcDbEntity
8
0
100
AcDbPolyline
90
4
70
1
43
0.0
10
-148.01125000029541
20
-112.425
10
-148.01125000029541
20
-98.425000000000011
10
-162.01125000029535
20
-98.42499999999994
10
-162.01125000029538
20
-112.425
0
LWPOLYLINE
5
111
100
AcDbEntity
8
0
100
AcDbPolyline
90
4
70
1
43
0.0
10
-129.33125000029534
20
-93.374999999999986
10
-129.33125000029534
20
-79.375
10
-143.33125000029537
20
-79.375
10
-143.33125000029537
20
-93.374999999999986
0
LWPOLYLINE
5
112
100
AcDbEntity
8
0
100
AcDbPolyline
90
4
70
1
43
0.0
10
62.148749999704663
20
-117.47499999999995
10
62.148749999704663
20
-131.47499999999999
10
76.148749999704691
20
-131.47499999999999
10
76.148749999704691
20
-117.47499999999995
0
LWPOLYLINE
5
113
100
AcDbEntity
8
0
100
AcDbPolyline
90
4
70
1
43
0.0
10
43.468749999704677
20
-112.42499999999993
10
57.468749999704698
20
-112.42499999999993
10
57.468749999704698
20
-98.42499999999994
10
43.468749999704677
20
-98.42499999999994
0
LWPOLYLINE
5
114
100
AcDbEntity
8
0
100
AcDbPolyline
90
4
70
1
43
0.0
10
-12.571250000295349
20
-79.375
10
-12.571250000295313
20
-93.374999999999986
10
1.4287499997046726
20
-93.374999999999986
10
1.4287499997046726
20
-79.375
0
LWPOLYLINE
5
115
100
AcDbEntity
8
0
100
AcDbPolyline
90
4
70
1
43
0.0
10
43.468749999704677
20
-131.47499999999999
10
57.468749999704698
20
-131.47499999999999
10
57.468749999704698
20
-117.47499999999995
10
43.468749999704677
20
-117.47499999999995
0
LWPOLYLINE
5
116
100
AcDbEntity
8
0
100
AcDbPolyline
90
4
70
1
43
0.0
10
-49.931250000295357
20
-93.374999999999986
10
-35.93125000029535
20
-93.374999999999986
10
-35.93125000029535
20
-79.375
10
-49.931250000295357
20
-79.375
0
LWPOLYLINE
5
117
100
AcDbEntity
8
0
100
AcDbPolyline
90
4
70
1
43
0.0
10
76.148749999704691
20
-93.374999999999986
10
76.148749999704691
20
-79.374999999999929
10
62.148749999704663
20
-79.374999999999929
10
62.148749999704663
20
-93.374999999999986
0
LWPOLYLINE
5
118
100
AcDbEntity
8
0
100
AcDbPolyline
90
4
70
1
43
0.0
10
43.468749999704677
20
-93.374999999999986
10
57.468749999704698
20
-93.374999999999986
10
57.468749999704698
20
-79.374999999999929
10
43.468749999704677
20
-79.374999999999929
0
LWPOLYLINE
5
119
100
AcDbEntity
8
0
100
AcDbPolyline
90
4
70
1
43
0.0
10
24.788749999704692
20
-117.47500000000002
10
24.788749999704692
20
-131.47499999999999
10
38.788749999704642
20
-131.47499999999999
10
38.788749999704642
20
-117.47499999999995
0
LWPOLYLINE
5
120
100
AcDbEntity
8
0
100
AcDbPolyline
90
4
70
1
43
0.0
10
24.788749999704692
20
-79.375
10
24.788749999704692
20
-93.374999999999986
10
38.788749999704642
20
-93.374999999999986
10
38.788749999704642
20
-79.374999999999929
0
LWPOLYLINE
5
121
100
AcDbEntity
8
0
100
AcDbPolyline
90
4
70
1
43
0.0
10
-17.251250000295315
20
-93.374999999999986
10
-17.251250000295315
20
-79.375
10
-31.251250000295336
20
-79.375
10
-31.251250000295336
20
-93.374999999999986
0
LWPOLYLINE
5
122
100
AcDbEntity
8
0
100
AcDbPolyline
90
8
70
1
43
0.0
10
56.972749999704753
20
-136.52859999999998
42
-0.41421356237309503
10
57.472749999704725
20
-137.02859999999995
10
57.472749999704725
20
-150.029
42
-0.41421356237313667
10
56.972749999704682
20
-150.52900000000002
10
43.97274999970471
20
-150.529
42
-0.41421356237313667
10
43.472749999704668
20
-150.02900000000002
10
43.472749999704668
20
-137.02859999999998
42
-0.41421356237313667
10
43.97274999970471
20
-136.52860000000001
0
LWPOLYLINE
5
123
100
AcDbEntity
8
0
100
AcDbPolyline
90
4
70
1
43
0.0
10
62.148749999704663
20
-98.42499999999994
10
62.148749999704663
20
-112.425
10
76.148749999704691
20
-112.425
10
76.148749999704691
20
-98.42499999999994
0
LWPOLYLINE
5
124
100
AcDbEntity
8
0
100
AcDbPolyline
90
4
70
1
43
0.0
10
20.108749999704656
20
-93.374999999999986
10
20.108749999704656
20
-79.375
10
6.1087499997046368
20
-79.375
10
6.1087499997046368
20
-93.374999999999986
0
LWPOLYLINE
5
125
100
AcDbEntity
8
0
100
AcDbPolyline
90
4
70
1
43
0.0
10
-68.611250000295328
20
-98.42499999999994
10
-68.611250000295328
20
-112.425
10
-54.611250000295371
20
-112.425
10
-54.611250000295371
20
-98.425000000000011
0
LWPOLYLINE
5
126
100
AcDbEntity
8
0
100
AcDbPolyline
90
8
70
1
43
0.0
10
38.792749999704704
20
-150.029
10
38.792749999704704
20
-137.02859999999998
42
0.41421356237303258
10
38.292749999704661
20
-136.52860000000001
10
25.292749999704725
20
-136.52859999999998
42
0.41421356237307422
10
24.792749999704718
20
-137.02859999999998
10
24.792749999704753
20
-150.029
42
0.41421356237315748
10
25.292749999704689
20
-150.529
10
38.292749999704661
20
-150.529
42
0.41421356237315748
0
LWPOLYLINE
5
127
100
AcDbEntity
8
0
100
AcDbPolyline
90
4
70
1
43
0.0
10
20.108749999704656
20
-112.425
10
20.108749999704656
20
-98.425000000000011
10
6.1087499997046368
20
-98.425000000000011
10
6.1087499997046368
20
-112.425
0
LWPOLYLINE
5
128
100
AcDbEntity
8
0
100
AcDbPolyline
90
4
70
1
43
0.0
10
6.1087499997046368
20
-117.47500000000002
10
6.1087499997046368
20
-131.47499999999999
10
20.108749999704656
20
-131.47499999999999
10
20.108749999704656
20
-117.47500000000002
0
LWPOLYLINE
5
129
100
AcDbEntity
8
0
100
AcDbPolyline
90
20
70
1
43
0.0
10
19.612749999704711
20
-136.52859999999995
10
17.722749999704675
20
-136.52859999999998
10
17.722749999704639
20
-136.02860000000001
42
0.4142135623730534
10
17.222749999704668
20
-135.52859999999998
10
16.482749999704723
20
-135.52860000000001
10
11.222749999704691
20
-135.52860000000001
10
10.48274999970471
20
-135.52860000000001
42
0.41421356237311585
10
9.9827499997046676
20
-136.02860000000001
10
9.9827499997046676
20
-136.52860000000001
10
6.6127499997047057
20
-136.52860000000001
42
0.41421356237309503
10
6.1127499997047341
20
-137.02859999999998
10
6.1127499997046986
20
-150.02899999999994
42
0.41421356237311585
10
6.6127499997047412
20
-150.52899999999997
10
10.48274999970471
20
-150.529
10
11.222749999704726
20
-150.529
10
16.482749999704758
20
-150.529
10
17.222749999704668
20
-150.529
10
19.612749999704711
20
-150.52899999999997
42
0.41421356237311585
10
20.112749999704718
20
-150.029
10
20.112749999704754
20
-137.02859999999995
42
0.41421356237311585
0
LWPOLYLINE
5
130
100
AcDbEntity
8
0
100
AcDbPolyline
90
39
70
1
43
0.0
10
-21.407250000295328
20
-150.529
10
-20.877250000295319
20
-150.529
10
-17.747250000295331
20
-150.529
10
-12.067250000295315
20
-150.529
10
-8.4072500002953188
20
-150.529
10
-5.9692500002953164
20
-150.529
10
0.030749999704662301
20
-150.529
10
0.93274999970469175
20
-150.529
42
0.41421356237311585
10
1.4327499997046989
20
-150.029
10
1.4327499997047344
20
-137.02859999999995
42
0.41421356237311585
10
0.93274999970469175
20
-136.52859999999995
10
0.53074999970466941
20
-136.52859999999998
10
0.53074999970463388
20
-136.02860000000001
42
0.4142135623730534
10
0.030749999704662301
20
-135.52860000000001
10
-5.9692500002953164
20
-135.52860000000001
42
0.41421356237309503
10
-6.469250000295288
20
-136.02859999999998
10
-6.469250000295288
20
-136.52859999999998
10
-8.4072500002953188
20
-136.52859999999998
10
-12.067250000295315
20
-136.52859999999998
10
-17.747250000295331
20
-136.52859999999998
10
-20.377250000295312
20
-136.52859999999998
10
-20.377250000295312
20
-136.02859999999998
42
0.41421356237307422
10
-20.877250000295319
20
-135.52860000000001
10
-21.617250000295336
20
-135.52860000000001
10
-23.845250000295366
20
-135.52860000000001
10
-26.877250000295312
20
-135.52860000000001
10
-27.617250000295279
20
-135.52860000000001
10
-29.845250000295344
20
-135.52860000000001
42
0.41421356237311585
10
-30.34525000029533
20
-136.02859999999995
10
-30.34525000029533
20
-136.52859999999998
10
-30.747250000295338
20
-136.52859999999995
42
0.41421356237307422
10
-31.247250000295324
20
-137.02859999999998
10
-31.24725000029531
20
-150.02899999999994
42
0.4142135623730846
10
-30.747250000295317
20
-150.52899999999997
10
-29.845250000295344
20
-150.529
10
-27.617250000295279
20
-150.529
10
-26.877250000295312
20
-150.529
10
-23.845250000295366
20
-150.529
10
-21.617250000295336
20
-150.529
0
LWPOLYLINE
5
131
100
AcDbEntity
8
0
100
AcDbPolyline
90
8
70
1
43
0.0
10
-35.927250000295359
20
-150.02900000000002
42
-0.41421356237310542
10
-36.427250000295352
20
-150.529
10
-49.427250000295373
20
-150.529
42
-0.41421356237309503
10
-49.927250000295345
20
-150.02900000000002
10
-49.927250000295402
20
-137.02859999999998
42
-0.41421356237307422
10
-49.427250000295395
20
-136.52859999999995
10
-36.427250000295352
20
-136.52860000000001
42
-0.41421356237309503
10
-35.927250000295381
20
-137.02859999999998
0
LWPOLYLINE
5
132
100
AcDbEntity
8
0
100
AcDbPolyline
90
4
70
1
43
0.0
10
-12.571250000295313
20
-117.47499999999995
10
-12.571250000295313
20
-131.47499999999999
10
1.4287499997046726
20
-131.47499999999999
10
1.4287499997046726
20
-117.47500000000002
0
LWPOLYLINE
5
133
100
AcDbEntity
8
0
100
AcDbPolyline
90
4
70
1
43
0.0
10
-17.251250000295315
20
-98.425000000000011
10
-31.251250000295336
20
-98.425000000000011
10
-31.251250000295336
20
-112.425
10
-17.251250000295315
20
-112.425
0
LWPOLYLINE
5
134
100
AcDbEntity
8
0
100
AcDbPolyline
90
4
70
1
43
0.0
10
-12.571250000295313
20
-98.42499999999994
10
-12.571250000295313
20
-112.425
10
1.4287499997046726
20
-112.425
10
1.4287499997046726
20
-98.425000000000011
0
LWPOLYLINE
5
135
100
AcDbEntity
8
0
100
AcDbPolyline
90
4
70
1
43
0.0
10
-35.93125000029535
20
-112.425
10
-35.93125000029535
20
-98.425000000000011
10
-49.931250000295357
20
-98.425000000000011
10
-49.931250000295357
20
-112.425
0
LWPOLYLINE
5
136
100
AcDbEntity
8
0
100
AcDbPolyline
90
4
70
1
43
0.0
10
-54.611250000295371
20
-117.47499999999995
10
-68.611250000295328
20
-117.47499999999995
10
-68.611250000295371
20
-131.47499999999999
10
-54.611250000295371
20
-131.47499999999999
0
LWPOLYLINE
5
137
100
AcDbEntity
8
0
100
AcDbPolyline
90
39
70
1
43
0.0
10
-86.385250000295386
20
-136.52859999999998
10
-86.787250000295415
20
-136.52859999999995
42
0.41421356237307422
10
-87.287250000295387
20
-137.02859999999998
10
-87.287250000295344
20
-150.029
42
0.41421356237309503
10
-86.787250000295373
20
-150.52899999999991
10
-85.885250000295343
20
-150.529
10
-79.885250000295343
20
-150.529
10
-77.447250000295384
20
-150.529
10
-73.787250000295344
20
-150.529
10
-68.107250000295366
20
-150.529
10
-64.977250000295371
20
-150.529
10
-64.447250000295369
20
-150.529
10
-64.237250000295333
20
-150.529
10
-62.00925000029536
20
-150.529
10
-58.977250000295378
20
-150.529
10
-58.237250000295361
20
-150.529
10
-56.009250000295367
20
-150.529
10
-55.107250000295373
20
-150.529
42
0.41421356237307422
10
-54.60725000029533
20
-150.029
10
-54.60725000029533
20
-137.02859999999998
42
0.41421356237309503
10
-55.107250000295373
20
-136.52859999999995
10
-55.50925000029536
20
-136.52859999999998
10
-55.50925000029536
20
-136.02860000000001
42
0.41421356237309503
10
-56.009250000295367
20
-135.52860000000001
10
-58.237250000295361
20
-135.52860000000001
10
-58.977250000295378
20
-135.52860000000001
10
-62.00925000029536
20
-135.52860000000001
10
-64.237250000295333
20
-135.52860000000001
10
-64.977250000295371
20
-135.52860000000001
42
0.41421356237309503
10
-65.477250000295356
20
-136.02859999999998
10
-65.477250000295356
20
-136.52859999999998
10
-68.107250000295366
20
-136.52859999999998
10
-73.787250000295344
20
-136.52859999999998
10
-77.447250000295384
20
-136.52859999999998
10
-79.385250000295343
20
-136.52859999999998
10
-79.385250000295343
20
-136.02859999999998
42
0.41421356237309503
10
-79.885250000295343
20
-135.52859999999998
10
-85.885250000295343
20
-135.52859999999998
42
0.41421356237311585
10
-86.385250000295343
20
-136.02859999999998
0
LWPOLYLINE
5
138
100
AcDbEntity
8
0
100
AcDbPolyline
90
4
70
1
43
0.0
10
-17.251250000295315
20
-117.47499999999995
10
-31.251250000295336
20
-117.47499999999995
10
-31.251250000295336
20
-131.47499999999999
10
-17.251250000295315
20
-131.47499999999999
0
LWPOLYLINE
5
139
100
AcDbEntity
8
0
100
AcDbPolyline
90
4
70
1
43
0.0
10
-35.93125000029535
20
-131.47499999999999
10
-35.93125000029535
20
-117.47499999999995
10
-49.931250000295357
20
-117.47499999999995
10
-49.931250000295357
20
-131.47499999999999
0
LWPOLYLINE
5
140
100
AcDbEntity
8
0
100
AcDbPolyline
90
20
70
1
43
0.0
10
-102.33765000029535
20
-150.529
10
-97.077650000295364
20
-150.529
10
-96.337650000295298
20
-150.529
10
-92.467650000295379
20
-150.529
42
0.41369540073146643
10
-91.96725000029538
20
-150.029
10
-91.96725000029538
20
-137.02859999999998
42
0.41441667598498788
10
-92.467650000295379
20
-136.52859999999998
10
-95.837650000295326
20
-136.52859999999998
10
-95.837650000295326
20
-136.02859999999998
42
0.41421356237309503
10
-96.337650000295298
20
-135.52860000000001
10
-97.077650000295364
20
-135.52860000000001
10
-102.33765000029535
20
-135.52860000000001
10
-103.07765000029536
20
-135.52860000000001
42
0.41421356237310542
10
-103.57765000029538
20
-136.02859999999998
10
-103.57765000029538
20
-136.52859999999998
10
-105.46765000029538
20
-136.52859999999998
42
0.41421356237311585
10
-105.96765000029535
20
-137.02859999999998
10
-105.96765000029536
20
-150.029
42
0.41421356237312623
10
-105.46765000029536
20
-150.529
10
-103.07765000029535
20
-150.529
0
LWPOLYLINE
5
141
100
AcDbEntity
8
0
100
AcDbPolyline
90
4
70
1
43
0.0
10
-73.291250000295364
20
-131.47499999999999
10
-73.291250000295335
20
-117.47499999999995
10
-87.291250000295378
20
-117.47499999999995
10
-87.291250000295378
20
-131.47499999999999
0
LWPOLYLINE
5
142
100
AcDbEntity
8
0
100
AcDbPolyline
90
4
70
1
43
0.0
10
-105.97125000029536
20
-131.47499999999999
10
-91.971250000295328
20
-131.47499999999999
10
-91.971250000295328
20
-117.47499999999995
10
-105.97125000029536
20
-117.47499999999995
0
LWPOLYLINE
5
143
100
AcDbEntity
8
0
100
AcDbPolyline
90
4
70
1
43
0.0
10
-124.65125000029538
20
-117.47499999999995
10
-124.65125000029538
20
-131.47499999999997
10
-110.65125000029539
20
-131.47499999999999
10
-110.65125000029536
20
-117.47499999999995
0
LWPOLYLINE
5
144
100
AcDbEntity
8
0
100
AcDbPolyline
90
8
70
1
43
0.0
10
-124.14765000029536
20
-150.52899999999997
42
-0.41421356237309503
10
-124.64765000029537
20
-150.02899999999994
10
-124.64765000029537
20
-137.02859999999995
42
-0.41421356237309503
10
-124.14765000029536
20
-136.52859999999995
10
-111.14765000029536
20
-136.52860000000001
42
-0.41421356237309503
10
-110.64765000029539
20
-137.02859999999998
10
-110.64765000029531
20
-150.029
42
-0.41421356237311585
10
-111.14765000029536
20
-150.529
0
LWPOLYLINE
5
145
100
AcDbEntity
8
0
100
AcDbPolyline
90
4
70
1
43
0.0
10
-162.01125000029538
20
-117.47499999999995
10
-162.01125000029538
20
-131.47499999999997
10
-148.01125000029541
20
-131.47499999999997
10
-148.01125000029541
20
-117.47499999999995
0
LWPOLYLINE
5
146
100
AcDbEntity
8
0
100
AcDbPolyline
90
8
70
1
43
0.0
10
-129.32765000029534
20
-150.029
10
-129.32765000029534
20
-137.02859999999998
42
0.41421356237313667
10
-129.82765000029536
20
-136.52859999999995
10
-142.82765000029536
20
-136.52859999999998
42
0.41421356237309503
10
-143.32765000029536
20
-137.02859999999995
10
-143.32765000029536
20
-150.02899999999994
42
0.41421356237309503
10
-142.82765000029536
20
-150.529
10
-129.82765000029536
20
-150.529
42
0.41421356237307422
0
LWPOLYLINE
5
147
100
AcDbEntity
8
0
100
AcDbPolyline
90
4
70
1
43
0.0
10
-129.33125000029534
20
-117.47499999999995
10
-143.33125000029537
20
-117.47499999999995
10
-143.33125000029537
20
-131.47499999999997
10
-129.33125000029534
20
-131.47499999999997
0
LWPOLYLINE
5
148
100
AcDbEntity
8
0
100
AcDbPolyline
90
8
70
1
43
0.0
10
-148.00765000029537
20
-150.029
10
-148.00765000029537
20
-137.02859999999998
42
0.41421356237309503
10
-148.50765000029537
20
-136.52859999999995
10
-161.50765000029537
20
-136.52859999999998
42
0.41421356237309503
10
-162.00765000029537
20
-137.02859999999995
10
-162.00765000029537
20
-150.02899999999994
42
0.41421356237309503
10
-161.50765000029537
20
-150.529
10
-148.50765000029537
20
-150.52899999999997
42
0.41421356237307422
0
LWPOLYLINE
5
149
100
AcDbEntity
8
0
100
AcDbPolyline
90
4
70
1
43
0.0
10
62.148749999704663
20
-150.52499999999998
10
76.148749999704691
20
-150.52499999999998
10
76.148749999704691
20
-136.52499999999998
10
62.148749999704663
20
-136.52499999999998
0
ARC
5
150
100
AcDbEntity
8
0
100
AcDbCircle
10
80.837500000000119
20
-79.524999999999949
30
0
40
2.6749999999999989
210
0
220
-0
230
1
100
AcDbArc
50
52.120780325479124
51
90.000000000000611
0
ARC
5
151
100
AcDbEntity
8
0
100
AcDbCircle
10
82.172947761194138
20
-152.09174234441915
30
0
40
0.49999999999997902
210
-0
220
0
230
1
100
AcDbArc
50
-52.120780325477966
51
78.81194424867796
0
ARC
5
152
100
AcDbEntity
8
0
100
AcDbCircle
10
-166.69999999999993
20
-150.37499999999997
30
0
40
2.6749999999999918
210
0
220
-0
230
1
100
AcDbArc
50
90
51
127.87921967452199
0
LINE
5
153
100
AcDbEntity
8
0
100
AcDbLine
10
78.512500000000074
20
-146.19999999999999
30
0
11
78.512500000000145
21
-83.699999999999932
31
0
0
ARC
5
154
100
AcDbEntity
8
0
100
AcDbCircle
10
82.51250000000006
20
-150.37499999999991
30
0
40
1.2499999999999964
210
0
220
0
230
1
100
AcDbArc
50
101.18805575132033
51
258.81194424868016
0
LINE
5
155
100
AcDbEntity
8
0
100
AcDbLine
10
80.01250000000006
20
-82.199999999999932
30
0
11
80.837500000000119
21
-82.199999999999932
31
0
0
LINE
5
156
100
AcDbEntity
8
0
100
AcDbLine
10
80.837500000000119
20
-147.69999999999993
30
0
11
80.012500000000131
21
-147.69999999999999
31
0
0
ARC
5
157
100
AcDbEntity
8
0
100
AcDbCircle
10
80.837500000000119
20
-150.37499999999997
30
0
40
2.6749999999999989
210
0
220
-0
230
1
100
AcDbArc
50
52.1207803254784
51
90
0
ARC
5
158
100
AcDbEntity
8
0
100
AcDbCircle
10
-166.69999999960569
20
-79.524999999998883
30
0
40
2.6750000015758935
210
0
220
0
230
1
100
AcDbArc
50
232.1207803407149
51
270
0
ARC
5
159
100
AcDbEntity
8
0
100
AcDbCircle
10
82.172947761194138
20
-81.241742344419123
30
0
40
0.49999999999998668
210
-0
220
0
230
1
100
AcDbArc
50
-52.120780325476083
51
78.81194424867796
0
LINE
5
160
100
AcDbEntity
8
0
100
AcDbLine
10
-166.69999999960569
20
-82.200000001574779
30
0
11
-165.87499999999994
21
-82.199999999999989
31
0
0
ARC
5
161
100
AcDbEntity
8
0
100
AcDbCircle
10
-165.87499999999991
20
-146.20000000000002
30
0
40
1.4999999999999858
210
0
220
0
230
1
100
AcDbArc
50
-90
51
0
0
ARC
5
162
100
AcDbEntity
8
0
100
AcDbCircle
10
-168.03544776119398
20
-152.09174234441917
30
0
40
0.49999999999998612
210
0
220
0
230
1
100
AcDbArc
50
101.18805575132366
51
232.12078032547868
0
ARC
5
163
100
AcDbEntity
8
0
100
AcDbCircle
10
82.51250000000006
20
-79.524999999999935
30
0
40
1.2500000000000209
210
0
220
0
230
1
100
AcDbArc
50
101.18805575132339
51
258.81194424867977
0
ARC
5
164
100
AcDbEntity
8
0
100
AcDbCircle
10
82.172947761194138
20
-148.65825765558077
30
0
40
0.49999999999999573
210
-0
220
0
230
1
100
AcDbArc
50
-78.811944248677335
51
52.120780325476083
0
ARC
5
165
100
AcDbEntity
8
0
100
AcDbCircle
10
-168.37499999999994
20
-150.37499999999997
30
0
40
1.2499999999999953
210
-0
220
0
230
1
100
AcDbArc
50
-78.811944248678657
51
78.811944248676866
0
ARC
5
166
100
AcDbEntity
8
0
100
AcDbCircle
10
-168.03544776131079
20
-81.241742346017077
30
0
40
0.50000000000000144
210
0
220
0
230
1
100
AcDbArc
50
101.18805574742228
51
232.12078034071385
0
LINE
5
167
100
AcDbEntity
8
0
100
AcDbLine
10
-166.69999999999993
20
-153.05000000000001
30
0
11
80.837500000000119
21
-153.04999999999995
31
0
0
ARC
5
168
100
AcDbEntity
8
0
100
AcDbCircle
10
-168.03544776454115
20
-77.808257656493566
30
0
40
0.49999999999999711
210
0
220
0
230
1
100
AcDbArc
50
127.87921976709742
51
258.81194436039084
0
ARC
5
169
100
AcDbEntity
8
0
100
AcDbCircle
10
-165.87499999999994
20
-83.699999999999974
30
0
40
1.4999999999999969
210
0
220
-0
230
1
100
AcDbArc
50
0
51
90
0
LINE
5
170
100
AcDbEntity
8
0
100
AcDbLine
10
-165.87499999999991
20
-147.69999999999999
30
0
11
-166.69999999999993
21
-147.69999999999999
31
0
0
ARC
5
171
100
AcDbEntity
8
0
100
AcDbCircle
10
80.837500000000119
20
-150.37499999999997
30
0
40
2.6750000000000007
210
-0
220
0
230
1
100
AcDbArc
50
270
51
307.87921967452166
0
ARC
5
172
100
AcDbEntity
8
0
100
AcDbCircle
10
80.012500000000131
20
-146.19999999999993
30
0
40
1.5000000000000568
210
0
220
0
230
1
100
AcDbArc
50
180
51
270
0
ARC
5
173
100
AcDbEntity
8
0
100
AcDbCircle
10
-166.69999999960569
20
-79.524999999998883
30
0
40
2.6749999999988994
210
0
220
0
230
1
100
AcDbArc
50
90.000000033754148
51
127.87921976709701
0
ARC
5
174
100
AcDbEntity
8
0
100
AcDbCircle
10
-168.03544776119395
20
-148.6582576555808
30
0
40
0.49999999999999623
210
0
220
0
230
1
100
AcDbArc
50
127.87921967452391
51
258.81194424867698
0
ARC
5
175
100
AcDbEntity
8
0
100
AcDbCircle
10
82.172947761194095
20
-77.808257655580761
30
0
40
0.49999999999997147
210
-0
220
0
230
1
100
AcDbArc
50
-78.811944248680845
51
52.120780325477085
0
ARC
5
176
100
AcDbEntity
8
0
100
AcDbCircle
10
80.837500000000119
20
-79.524999999999949
30
0
40
2.6750000000000007
210
-0
220
0
230
1
100
AcDbArc
50
270
51
307.87921967452201
0
LINE
5
177
100
AcDbEntity
8
0
100
AcDbLine
10
-164.37499999999994
20
-83.699999999999974
30
0
11
-164.37499999999994
21
-146.20000000000002
31
0
0
ARC
5
178
100
AcDbEntity
8
0
100
AcDbCircle
10
80.012500000000131
20
-83.699999999999974
30
0
40
1.5000000000000391
210
0
220
0
230
1
100
AcDbArc
50
90.000000000002714
51
180
0
ARC
5
179
100
AcDbEntity
8
0
100
AcDbCircle
10
-166.69999999999993
20
-150.37499999999997
30
0
40
2.6749999999999821
210
0
220
0
230
1
100
AcDbArc
50
232.12078032547836
51
270
0
LINE
5
180
100
AcDbEntity
8
0
100
AcDbLine
10
80.837500000000091
20
-76.849999999999966
30
0
11
-166.70000000118159
21
-76.849999999999994
31
0
0
ARC
5
181
100
AcDbEntity
8
0
100
AcDbCircle
10
-168.37499999999994
20
-79.525000001574782
30
0
40
1.2500000000000042
210
-0
220
0
230
1
100
AcDbArc
50
-78.811944252576083
51
78.811944360387756
0
ENDSEC
0
SECTION
2
OBJECTS
0
DICTIONARY
5
C
100
AcDbDictionary
3
ACAD_GROUP
350
D
3
ACAD_MLINESTYLE
350
17
0
DICTIONARY
5
D
100
AcDbDictionary
0
DICTIONARY
5
1A
330
C
100
AcDbDictionary
0
DICTIONARY
5
17
100
AcDbDictionary
0
ENDSEC
0
EOF
