0
SECTION
2
HEADER
9
$INSUNITS
70
4
9
$ACADVER
1
AC1014
9
$HANDSEED
5
FFFF
0
ENDSEC
0
SECTION
2
TABLES
0
TABLE
2
VPORT
5
8
100
AcDbSymbolTable
0
ENDTAB
0
TABLE
2
LTYPE
5
5
100
AcDbSymbolTable
0
LTYPE
5
14
100
AcDbSymbolTableRecord
100
AcDbLinetypeTableRecord
2
BYBLOCK
70
0
0
LTYPE
5
15
100
AcDbSymbolTableRecord
100
AcDbLinetypeTableRecord
2
BYLAYER
70
0
0
ENDTAB
0
TABLE
2
LAYER
5
2
100
AcDbSymbolTable
70
2
0
LAYER
5
50
100
AcDbSymbolTableRecord
100
AcDbLayerTableRecord
2
0
70
0
6
CONTINUOUS
0
ENDTAB
0
TABLE
2
STYLE
5
3
100
AcDbSymbolTable
70
1
0
STYLE
5
11
100
AcDbSymbolTableRecord
100
AcDbTextStyleTableRecord
2
STANDARD
70
0
0
ENDTAB
0
TABLE
2
VIEW
5
6
100
AcDbSymbolTable
70
0
0
ENDTAB
0
TABLE
2
UCS
5
7
100
AcDbSymbolTable
70
0
0
ENDTAB
0
TABLE
2
APPID
5
9
100
AcDbSymbolTable
70
2
0
APPID
5
12
100
AcDbSymbolTableRecord
100
AcDbRegAppTableRecord
2
ACAD
70
0
0
ENDTAB
0
TABLE
2
DIMSTYLE
5
A
100
AcDbSymbolTable
70
1
0
ENDTAB
0
TABLE
2
BLOCK_RECORD
5
1
100
AcDbSymbolTable
70
1
0
BLOCK_RECORD
5
1F
100
AcDbSymbolTableRecord
100
AcDbBlockTableRecord
2
*MODEL_SPACE
0
BLOCK_RECORD
5
1B
100
AcDbSymbolTableRecord
100
AcDbBlockTableRecord
2
*PAPER_SPACE
0
ENDTAB
0
ENDSEC
0
SECTION
2
BLOCKS
0
BLOCK
5
20
100
AcDbEntity
100
AcDbBlockBegin
2
*MODEL_SPACE
0
ENDBLK
5
21
100
AcDbEntity
100
AcDbBlockEnd
0
BLOCK
5
1C
100
AcDbEntity
100
AcDbBlockBegin
2
*PAPER_SPACE
0
ENDBLK
5
1D
100
AcDbEntity
100
AcDbBlockEnd
0
ENDSEC
0
SECTION
2
ENTITIES
0
LWPOLYLINE
5
100
100
AcDbEntity
8
0
100
AcDbPolyline
90
40
70
1
43
0.0
10
232.63611879874219
20
4.4750000000000121
42
-9.9498743710626005
10
232.13862508018872
20
4.4750000000000121
10
229.68260161513803
20
4.4750000000000068
10
227.37320053837905
20
0.4749999999999388
42
-0.26794919243111581
10
225.64114973081004
20
-0.5249999999999968
10
17.246350269189605
20
-0.52500000000000102
42
-0.2679491924311298
10
15.514299461620734
20
0.47500000000002207
10
13.204898384862318
20
4.4750000000000068
10
10.748618798742186
20
4.4750000000000059
42
-9.9498743710618029
10
10.251125080188661
20
4.4750000000000059
10
5.133101615137754
20
4.4749999999999979
10
2.8237005383792551
20
0.47500000000000808
42
-0.26794919243113047
10
1.0916497308103206
20
-0.52500000000000013
10
1.0249999999999915
20
-0.52499999999999325
42
0.4142135623730902
10
0.52499999999999702
20
-1.0250000000000004
10
0.52499999999998437
20
-75.174999999999983
42
0.41421356237339124
10
1.0250000000005299
20
-75.675000000000026
10
1.0916497308103597
20
-75.674999999999983
42
-0.26794919243112558
10
2.8237005383792502
20
-76.675000000000026
10
5.133101615137754
20
-80.675000000000026
10
10.251381201258113
20
-80.675000000000026
42
-9.9498743710743263
10
10.748874919811023
20
-80.675000000000026
10
13.204898384862211
20
-80.675000000000026
10
15.514299461620704
20
-76.67500000000004
42
-0.26794919243113102
10
17.246350269189605
20
-75.675000000000026
10
225.64114973081004
20
-75.674999999999997
42
-0.26794919243113247
10
227.37320053837891
20
-76.675000000000068
10
229.68260161513803
20
-80.675000000000026
10
232.13888120125807
20
-80.675000000000026
42
-9.9498743710742144
10
232.636374919811
20
-80.675000000000026
10
237.75439838486199
20
-80.675000000000026
10
240.06379946162099
20
-76.675000000000026
42
-0.26794919243100146
10
241.795850269189
20
-75.674999999999983
10
241.86250000000001
20
-75.674999999999969
42
0.41421356237312629
10
242.36250000000001
20
-75.174999999999983
10
242.36250000000001
20
-1.0250000000000004
42
0.41421356237310197
10
241.86250000000001
20
-0.52499999999999281
10
241.79585026919
20
-0.52500000000000391
42
-0.2679491924311399
10
240.06379946162113
20
0.47500000000006481
10
237.75439838486199
20
4.4750000000000156
0
LWPOLYLINE
5
101
100
AcDbEntity
8
0
100
AcDbPolyline
90
8
70
1
43
0.0
10
226.36250000000007
20
-60.174999999999997
10
226.36250000000004
20
-73.174999999999983
42
0.41421356237304818
10
226.86250000000001
20
-73.674999999999997
10
239.86250000000001
20
-73.674999999999983
42
0.41421356237316787
10
240.36250000000001
20
-73.174999999999983
10
240.36250000000001
20
-60.174999999999997
42
0.41421356237311585
10
239.86250000000001
20
-59.674999999999983
10
226.86250000000004
20
-59.675000000000004
42
0.41421356237309509
0
LWPOLYLINE
5
102
100
AcDbEntity
8
0
100
AcDbPolyline
90
8
70
1
43
0.0
10
96.987500000000011
20
-21.575000000000006
42
-0.41421356237310802
10
97.487500000000011
20
-22.074999999999999
10
97.487500000000011
20
-35.075000000000003
42
-0.41421356237309243
10
96.987500000000011
20
-35.57500000000001
10
83.987499999999997
20
-35.575000000000017
42
-0.41421356237308982
10
83.487499999999983
20
-35.075000000000003
10
83.487500000000026
20
-22.074999999999996
42
-0.41421356237308982
10
83.987499999999983
20
-21.575000000000006
0
LWPOLYLINE
5
103
100
AcDbEntity
8
0
100
AcDbPolyline
90
8
70
1
43
0.0
10
18.40625
20
-59.675000000000004
42
-0.41421356237309637
10
18.906250000000004
20
-60.174999999999997
10
18.906250000000004
20
-73.174999999999983
42
-0.41421356237309637
10
18.40625
20
-73.674999999999983
10
5.4062499999999858
20
-73.674999999999983
42
-0.41421356237308982
10
4.90625
20
-73.174999999999983
10
4.9062499999999973
20
-60.174999999999997
42
-0.41421356237309698
10
5.4062499999999991
20
-59.675000000000004
0
LWPOLYLINE
5
104
100
AcDbEntity
8
0
100
AcDbPolyline
90
8
70
1
43
0.0
10
61.768749999999997
20
-73.174999999999983
42
-0.41421356237310542
10
61.268749999999997
20
-73.674999999999983
10
48.268750000000011
20
-73.674999999999983
42
-0.41421356237310542
10
47.768749999999997
20
-73.174999999999983
10
47.768749999999997
20
-60.174999999999997
42
-0.4142135623731002
10
48.268750000000004
20
-59.675000000000004
10
61.268749999999983
20
-59.675000000000004
42
-0.41421356237311585
10
61.768749999999997
20
-60.174999999999997
0
LWPOLYLINE
5
105
100
AcDbEntity
8
0
100
AcDbPolyline
90
8
70
1
43
0.0
10
79.706249999999997
20
-74.175000000000026
42
-0.41421356237307422
10
79.206249999999983
20
-74.674999999999983
10
73.206249999999997
20
-74.674999999999983
42
-0.41421356237308982
10
72.706249999999983
20
-74.175000000000026
10
72.706249999999983
20
-58.174999999999997
42
-0.41421356237309509
10
73.206249999999983
20
-57.674999999999997
10
79.206249999999983
20
-57.674999999999997
42
-0.4142135623731002
10
79.706249999999983
20
-58.174999999999997
0
LWPOLYLINE
5
106
100
AcDbEntity
8
0
100
AcDbPolyline
90
8
70
1
43
0.0
10
87.462500000000034
20
-40.625
42
-0.41421356237305862
10
87.96250000000002
20
-41.125
10
87.962500000000006
20
-54.125000000000014
42
-0.41421356237311585
10
87.46250000000002
20
-54.625
10
74.462500000000006
20
-54.625
42
-0.41421356237311063
10
73.962500000000006
20
-54.125000000000014
10
73.962500000000006
20
-41.125
42
-0.41421356237309509
10
74.462500000000006
20
-40.625
0
LWPOLYLINE
5
107
100
AcDbEntity
8
0
100
AcDbPolyline
90
8
70
1
43
0.0
10
3.0249999999999844
20
-16.524999999999999
10
16.024999999999991
20
-16.524999999999999
42
0.41421356237309892
10
16.524999999999999
20
-16.024999999999999
10
16.525000000000002
20
-3.0249999999999999
42
0.41421356237309859
10
16.024999999999991
20
-2.524999999999995
10
3.0249999999999999
20
-2.5249999999999999
42
0.4142135623730957
10
2.5250000000000128
20
-3.0250000000000021
10
2.5249999999999999
20
-16.024999999999999
42
0.41421356237308654
0
LWPOLYLINE
5
108
100
AcDbEntity
8
0
100
AcDbPolyline
90
8
70
1
43
0.0
10
97.775000000000034
20
-3.0250000000000021
10
97.77500000000002
20
-16.024999999999999
42
0.41421356237312101
10
98.275000000000006
20
-16.524999999999999
10
111.27500000000001
20
-16.525000000000002
42
0.41421356237309243
10
111.77500000000002
20
-16.024999999999999
10
111.77500000000002
20
-3.0249999999999999
42
0.41421356237310608
10
111.27500000000001
20
-2.5250000000000128
10
98.275000000000006
20
-2.5249999999999999
42
0.41421356237307616
0
LWPOLYLINE
5
109
100
AcDbEntity
8
0
100
AcDbPolyline
90
8
70
1
43
0.0
10
93.012499999999989
20
-41.125
42
-0.41421356237313145
10
93.512500000000003
20
-40.625000000000007
10
106.51250000000003
20
-40.624999999999993
42
-0.41421356237310542
10
107.01250000000002
20
-41.125
10
107.01250000000002
20
-54.125000000000014
42
-0.41421356237309509
10
106.51250000000003
20
-54.625
10
93.512500000000003
20
-54.625000000000021
42
-0.41421356237312629
10
93.012500000000017
20
-54.125000000000014
0
LWPOLYLINE
5
110
100
AcDbEntity
8
0
100
AcDbPolyline
90
8
70
1
43
0.0
10
77.937500000000014
20
-21.575000000000006
10
64.937499999999986
20
-21.575000000000006
42
0.41421356237309243
10
64.437500000000014
20
-22.074999999999996
10
64.4375
20
-35.075000000000003
42
0.41421356237308204
10
64.937499999999986
20
-35.57500000000001
10
77.9375
20
-35.57500000000001
42
0.41421356237308982
10
78.4375
20
-35.075000000000003
10
78.4375
20
-22.074999999999999
42
0.41421356237307944
0
LWPOLYLINE
5
111
100
AcDbEntity
8
0
100
AcDbPolyline
90
8
70
1
43
0.0
10
131.11250000000001
20
-41.125
42
-0.41421356237308982
10
131.61250000000001
20
-40.625
10
144.61250000000004
20
-40.625
42
-0.41421356237305862
10
145.11250000000001
20
-41.125
10
145.11250000000001
20
-54.125000000000014
42
-0.41421356237306384
10
144.61250000000001
20
-54.625
10
131.61250000000001
20
-54.625
42
-0.41421356237310542
10
131.11250000000001
20
-54.125000000000014
0
LWPOLYLINE
5
112
100
AcDbEntity
8
0
100
AcDbPolyline
90
8
70
1
43
0.0
10
35.075000000000003
20
-2.5249999999999924
42
-0.41421356237309009
10
35.57500000000001
20
-3.0249999999999999
10
35.57500000000001
20
-16.024999999999999
42
-0.41421356237308204
10
35.075000000000003
20
-16.525000000000002
10
22.074999999999996
20
-16.525000000000002
42
-0.41421356237308071
10
21.575000000000006
20
-16.024999999999999
10
21.575000000000003
20
-3.0250000000000021
42
-0.41421356237310153
10
22.074999999999999
20
-2.5249999999999999
0
LWPOLYLINE
5
113
100
AcDbEntity
8
0
100
AcDbPolyline
90
8
70
1
43
0.0
10
211.78750000000002
20
-35.075000000000003
10
211.78750000000002
20
-22.074999999999996
42
0.41421356237315488
10
211.28749999999999
20
-21.575000000000017
10
198.28749999999999
20
-21.575000000000006
42
0.41421356237308982
10
197.78750000000005
20
-22.074999999999996
10
197.78750000000002
20
-35.075000000000003
42
0.41421356237302998
10
198.28749999999999
20
-35.575000000000038
10
211.28749999999999
20
-35.57500000000001
42
0.41421356237314444
0
LWPOLYLINE
5
114
100
AcDbEntity
8
0
100
AcDbPolyline
90
8
70
1
43
0.0
10
26.337499999999995
20
-60.174999999999997
42
-0.4142135623730977
10
26.837499999999999
20
-59.675000000000004
10
39.837500000000006
20
-59.675000000000004
42
-0.41421356237312101
10
40.337500000000013
20
-60.174999999999997
10
40.337500000000013
20
-73.174999999999983
42
-0.41421356237309243
10
39.837499999999999
20
-73.674999999999983
10
26.837499999999999
20
-73.674999999999983
42
-0.41421356237310281
10
26.337499999999999
20
-73.174999999999983
0
LWPOLYLINE
5
115
100
AcDbEntity
8
0
100
AcDbPolyline
90
8
70
1
43
0.0
10
59.387500000000003
20
-35.075000000000003
42
-0.41421356237309509
10
58.887500000000017
20
-35.57500000000001
10
45.88750000000001
20
-35.57500000000001
42
-0.41421356237309509
10
45.387500000000003
20
-35.075000000000003
10
45.387500000000003
20
-22.074999999999996
42
-0.41421356237308726
10
45.887500000000003
20
-21.575000000000006
10
58.887500000000017
20
-21.574999999999996
42
-0.41421356237307161
10
59.387500000000003
20
-22.074999999999999
0
LWPOLYLINE
5
116
100
AcDbEntity
8
0
100
AcDbPolyline
90
8
70
1
43
0.0
10
154.92500000000001
20
-3.0249999999999999
42
-0.41421356237306772
10
155.42500000000001
20
-2.5249999999999999
10
168.42500000000001
20
-2.5250000000000075
42
-0.41421356237312817
10
168.92500000000001
20
-3.0249999999999999
10
168.92500000000001
20
-16.024999999999999
42
-0.41421356237304952
10
168.42500000000001
20
-16.525000000000002
10
155.42500000000004
20
-16.525000000000016
42
-0.41421356237305862
10
154.92500000000001
20
-16.024999999999999
0
LWPOLYLINE
5
117
100
AcDbEntity
8
0
100
AcDbPolyline
90
8
70
1
43
0.0
10
187.47499999999999
20
-2.5249999999999861
10
174.47500000000005
20
-2.5250000000000039
42
0.41421356237310869
10
173.97500000000002
20
-3.0250000000000021
10
173.97500000000005
20
-16.024999999999999
42
0.41421356237312756
10
174.47500000000005
20
-16.524999999999981
10
187.47499999999999
20
-16.525000000000002
42
0.41421356237318735
10
187.97499999999997
20
-16.024999999999999
10
187.97499999999999
20
-3.0249999999999999
42
0.41421356237313506
0
LWPOLYLINE
5
118
100
AcDbEntity
8
0
100
AcDbPolyline
90
8
70
1
43
0.0
10
149.375
20
-2.5250000000000092
42
-0.41421356237310608
10
149.875
20
-3.0249999999999999
10
149.875
20
-16.024999999999999
42
-0.41421356237309243
10
149.375
20
-16.525000000000002
10
136.37500000000003
20
-16.525000000000016
42
-0.41421356237305862
10
135.875
20
-16.024999999999999
10
135.875
20
-3.0250000000000021
42
-0.414213562373069
10
136.375
20
-2.5249999999999999
0
LWPOLYLINE
5
119
100
AcDbEntity
8
0
100
AcDbPolyline
90
8
70
1
43
0.0
10
179.23750000000001
20
-35.575000000000017
10
192.23750000000001
20
-35.57500000000001
42
0.41421356237307422
10
192.73750000000007
20
-35.075000000000003
10
192.73750000000007
20
-22.074999999999999
42
0.41421356237307422
10
192.23750000000001
20
-21.574999999999989
10
179.23750000000001
20
-21.575000000000006
42
0.41421356237316265
10
178.73750000000001
20
-22.074999999999996
10
178.73750000000001
20
-35.075000000000003
42
0.414213562373134
0
LWPOLYLINE
5
120
100
AcDbEntity
8
0
100
AcDbPolyline
90
8
70
1
43
0.0
10
164.16250000000005
20
-54.125000000000014
42
-0.41421356237317308
10
163.66250000000005
20
-54.625
10
150.66249999999999
20
-54.625
42
-0.41421356237310542
10
150.16249999999999
20
-54.125000000000014
10
150.16249999999999
20
-41.125
42
-0.41421356237308982
10
150.66249999999999
20
-40.625
10
163.66250000000008
20
-40.624999999999943
42
-0.41421356237305862
10
164.16250000000005
20
-41.125
0
LWPOLYLINE
5
121
100
AcDbEntity
8
0
100
AcDbPolyline
90
8
70
1
43
0.0
10
188.26249999999993
20
-41.125
42
-0.41421356237311063
10
188.76249999999999
20
-40.625
10
201.76250000000005
20
-40.624999999999943
42
-0.41421356237305862
10
202.26249999999999
20
-41.125
10
202.26249999999999
20
-54.125000000000014
42
-0.41421356237317308
10
201.76249999999999
20
-54.625
10
188.76249999999999
20
-54.624999999999986
42
-0.41421356237315754
10
188.26249999999999
20
-54.125000000000014
0
LWPOLYLINE
5
122
100
AcDbEntity
8
0
100
AcDbPolyline
90
8
70
1
43
0.0
10
92.725000000000009
20
-16.024999999999999
42
-0.41421356237309509
10
92.224999999999994
20
-16.525000000000002
10
79.224999999999994
20
-16.524999999999991
42
-0.41421356237310675
10
78.724999999999994
20
-16.024999999999999
10
78.724999999999994
20
-3.0250000000000021
42
-0.41421356237307422
10
79.22499999999998
20
-2.5249999999999999
10
92.224999999999994
20
-2.5250000000000004
42
-0.41421356237310092
10
92.725000000000023
20
-3.0249999999999999
0
LWPOLYLINE
5
123
100
AcDbEntity
8
0
100
AcDbPolyline
90
8
70
1
43
0.0
10
220.8125
20
-59.674999999999955
42
-0.41421356237311585
10
221.3125
20
-60.174999999999997
10
221.3125
20
-73.174999999999983
42
-0.41421356237316787
10
220.8125
20
-73.674999999999983
10
207.8125
20
-73.675000000000026
42
-0.41421356237304818
10
207.31250000000003
20
-73.174999999999983
10
207.31250000000003
20
-60.174999999999997
42
-0.41421356237309509
10
207.81250000000003
20
-59.675000000000004
0
LWPOLYLINE
5
124
100
AcDbEntity
8
0
100
AcDbPolyline
90
8
70
1
43
0.0
10
219.21875000000003
20
-3.0250000000000021
10
219.21875
20
-16.024999999999999
42
0.41421356237311457
10
219.71875
20
-16.525000000000016
10
232.71874999999997
20
-16.525000000000002
42
0.41421356237310802
10
233.21875000000006
20
-16.024999999999999
10
233.21875000000006
20
-3.0249999999999999
42
0.41421356237307327
10
232.71875
20
-2.524999999999995
10
219.71875
20
-2.5249999999999999
42
0.41421356237318707
0
LWPOLYLINE
5
125
100
AcDbEntity
8
0
100
AcDbPolyline
90
8
70
1
43
0.0
10
5.4062499999999991
20
-35.57500000000001
42
-0.4142135623730937
10
4.9062499999999964
20
-35.075000000000003
10
4.9062500000000018
20
-22.074999999999996
42
-0.41421356237309959
10
5.4062499999999991
20
-21.575000000000006
10
18.406249999999993
20
-21.574999999999996
42
-0.41421356237309637
10
18.906250000000004
20
-22.074999999999999
10
18.906250000000004
20
-35.075000000000003
42
-0.41421356237309637
10
18.40625
20
-35.57500000000001
0
LWPOLYLINE
5
126
100
AcDbEntity
8
0
100
AcDbPolyline
90
8
70
1
43
0.0
10
173.20625000000001
20
-74.674999999999983
10
179.20625000000001
20
-74.674999999999983
42
0.41421356237306384
10
179.70624999999998
20
-74.175000000000026
10
179.70624999999995
20
-58.174999999999997
42
0.41421356237307944
10
179.20625000000001
20
-57.674999999999976
10
173.20625000000004
20
-57.675000000000018
42
0.41421356237316265
10
172.70625000000001
20
-58.174999999999997
10
172.70625000000001
20
-74.175000000000026
42
0.41421356237300661
0
LWPOLYLINE
5
127
100
AcDbEntity
8
0
100
AcDbPolyline
90
8
70
1
43
0.0
10
173.1875
20
-21.575000000000006
10
160.1875
20
-21.575000000000006
42
0.41421356237308465
10
159.6875
20
-22.074999999999996
10
159.6875
20
-35.075000000000003
42
0.41421356237309243
10
160.1875
20
-35.575000000000003
10
173.1875
20
-35.57500000000001
42
0.41421356237302742
10
173.68750000000003
20
-35.075000000000003
10
173.68750000000003
20
-22.074999999999999
42
0.41421356237313145
0
LWPOLYLINE
5
128
100
AcDbEntity
8
0
100
AcDbPolyline
90
8
70
1
43
0.0
10
182.71250000000006
20
-40.625
10
169.71250000000001
20
-40.625
42
0.41421356237313667
10
169.21250000000001
20
-41.125
10
169.21250000000001
20
-54.125000000000014
42
0.41421356237315754
10
169.71250000000001
20
-54.624999999999993
10
182.71250000000006
20
-54.625
42
0.41421356237307944
10
183.21250000000006
20
-54.125000000000014
10
183.21250000000003
20
-41.125
42
0.4142135623731002
0
LWPOLYLINE
5
129
100
AcDbEntity
8
0
100
AcDbPolyline
90
8
70
1
43
0.0
10
26.337499999999999
20
-22.074999999999999
42
-0.41421356237308726
10
26.837499999999999
20
-21.575000000000006
10
39.837500000000006
20
-21.575000000000006
42
-0.41421356237309243
10
40.337500000000013
20
-22.074999999999999
10
40.337500000000013
20
-35.075000000000003
42
-0.41421356237309509
10
39.837499999999999
20
-35.57500000000001
10
26.837499999999999
20
-35.57500000000001
42
-0.41421356237308982
10
26.337499999999999
20
-35.075000000000003
0
LWPOLYLINE
5
130
100
AcDbEntity
8
0
100
AcDbPolyline
90
8
70
1
43
0.0
10
235.10000000000002
20
-21.575000000000017
10
222.10000000000002
20
-21.575000000000006
42
0.41421356237303525
10
221.60000000000002
20
-22.074999999999996
10
221.59999999999999
20
-35.075000000000003
42
0.41421356237310802
10
222.10000000000002
20
-35.575000000000017
10
235.10000000000002
20
-35.57500000000001
42
0.41421356237314444
10
235.60000000000002
20
-35.075000000000003
10
235.60000000000002
20
-22.074999999999999
42
0.41421356237315754
0
LWPOLYLINE
5
131
100
AcDbEntity
8
0
100
AcDbPolyline
90
8
70
1
43
0.0
10
193.52500000000006
20
-16.524999999999981
10
206.52500000000003
20
-16.524999999999999
42
0.41421356237309637
10
207.02499999999998
20
-16.024999999999999
10
207.02500000000001
20
-3.0249999999999999
42
0.41421356237305701
10
206.52500000000003
20
-2.5249999999999773
10
193.52500000000006
20
-2.5249999999999999
42
0.41421356237310869
10
193.02500000000003
20
-3.0250000000000021
10
193.02500000000006
20
-16.024999999999999
42
0.41421356237312756
0
LWPOLYLINE
5
132
100
AcDbEntity
8
0
100
AcDbPolyline
90
8
70
1
43
0.0
10
73.674999999999997
20
-16.024999999999999
10
73.674999999999997
20
-3.0250000000000021
42
0.41421356237309859
10
73.174999999999983
20
-2.524999999999995
10
60.174999999999997
20
-2.5249999999999999
42
0.41421356237309925
10
59.675000000000011
20
-3.0250000000000021
10
59.675000000000004
20
-16.024999999999999
42
0.41421356237308593
10
60.174999999999983
20
-16.524999999999999
10
73.174999999999983
20
-16.525000000000002
42
0.41421356237309637
0
LWPOLYLINE
5
133
100
AcDbEntity
8
0
100
AcDbPolyline
90
8
70
1
43
0.0
10
49.362500000000011
20
-40.625
10
36.362500000000004
20
-40.625
42
0.41421356237309509
10
35.862499999999997
20
-41.125
10
35.862500000000011
20
-54.125000000000014
42
0.41421356237307683
10
36.362500000000004
20
-54.625
10
49.362500000000004
20
-54.625
42
0.41421356237307422
10
49.862500000000018
20
-54.125000000000014
10
49.862499999999997
20
-41.125
42
0.41421356237308982
0
LWPOLYLINE
5
134
100
AcDbEntity
8
0
100
AcDbPolyline
90
8
70
1
43
0.0
10
202.26249999999999
20
-73.174999999999983
42
-0.41421356237316787
10
201.76249999999999
20
-73.674999999999983
10
188.76249999999999
20
-73.674999999999983
42
-0.41421356237313145
10
188.26249999999999
20
-73.174999999999983
10
188.26250000000002
20
-60.174999999999997
42
-0.41421356237303786
10
188.76249999999999
20
-59.675000000000004
10
201.76249999999999
20
-59.674999999999955
42
-0.41421356237311585
10
202.26249999999999
20
-60.174999999999997
0
LWPOLYLINE
5
135
100
AcDbEntity
8
0
100
AcDbPolyline
90
8
70
1
43
0.0
10
116.03750000000002
20
-21.575000000000006
10
103.03750000000001
20
-21.575000000000006
42
0.41421356237308465
10
102.53749999999999
20
-22.074999999999996
10
102.53749999999999
20
-35.075000000000003
42
0.41421356237309243
10
103.03750000000001
20
-35.575000000000003
10
116.03749999999999
20
-35.57500000000001
42
0.41421356237305862
10
116.53750000000001
20
-35.075000000000003
10
116.53750000000001
20
-22.074999999999999
42
0.41421356237305862
0
LWPOLYLINE
5
136
100
AcDbEntity
8
0
100
AcDbPolyline
90
8
70
1
43
0.0
10
130.32499999999999
20
-2.5250000000000092
42
-0.41421356237310608
10
130.82499999999999
20
-3.0249999999999999
10
130.82499999999999
20
-16.024999999999999
42
-0.41421356237309243
10
130.32499999999999
20
-16.525000000000002
10
117.32500000000002
20
-16.524999999999999
42
-0.41421356237312101
10
116.82500000000003
20
-16.024999999999999
10
116.82500000000003
20
-3.0250000000000021
42
-0.41421356237304296
10
117.32500000000002
20
-2.5249999999999999
0
LWPOLYLINE
5
137
100
AcDbEntity
8
0
100
AcDbPolyline
90
8
70
1
43
0.0
10
68.412499999999994
20
-40.625
10
55.412500000000016
20
-40.625
42
0.41421356237307944
10
54.912500000000009
20
-41.125
10
54.912500000000009
20
-54.125000000000014
42
0.41421356237309509
10
55.412500000000016
20
-54.625
10
68.412499999999994
20
-54.625
42
0.41421356237307422
10
68.912499999999994
20
-54.125000000000014
10
68.912499999999994
20
-41.125
42
0.4142135623731002
0
LWPOLYLINE
5
138
100
AcDbEntity
8
0
100
AcDbPolyline
90
8
70
1
43
0.0
10
40.625
20
-3.0250000000000021
10
40.625
20
-16.024999999999999
42
0.41421356237310675
10
41.125000000000007
20
-16.524999999999991
10
54.125000000000014
20
-16.525000000000002
42
0.41421356237307161
10
54.624999999999986
20
-16.024999999999999
10
54.625
20
-3.0249999999999999
42
0.41421356237311135
10
54.125000000000014
20
-2.5250000000000039
10
41.125
20
-2.5249999999999999
42
0.41421356237307422
0
LWPOLYLINE
5
139
100
AcDbEntity
8
0
100
AcDbPolyline
90
8
70
1
43
0.0
10
125.56250000000003
20
-40.625
10
112.56250000000001
20
-40.625
42
0.41421356237308982
10
112.0625
20
-41.125
10
112.0625
20
-54.125000000000014
42
0.41421356237310542
10
112.56250000000001
20
-54.625
10
125.5625
20
-54.625
42
0.41421356237306384
10
126.06250000000001
20
-54.125000000000014
10
126.06250000000001
20
-41.125
42
0.41421356237305862
0
LWPOLYLINE
5
140
100
AcDbEntity
8
0
100
AcDbPolyline
90
8
70
1
43
0.0
10
119.70624999999998
20
-73.675000000000011
42
-0.4142135623731002
10
119.20625000000001
20
-73.174999999999983
10
119.20625000000001
20
-60.174999999999997
42
-0.41421356237307944
10
119.70625
20
-59.675000000000004
10
132.70625000000001
20
-59.675000000000018
42
-0.41421356237313145
10
133.20625000000004
20
-60.174999999999997
10
133.20625000000004
20
-73.174999999999983
42
-0.41421356237302742
10
132.70625000000001
20
-73.674999999999983
0
LWPOLYLINE
5
141
100
AcDbEntity
8
0
100
AcDbPolyline
90
8
70
1
43
0.0
10
154.13749999999999
20
-21.575000000000006
10
141.13749999999999
20
-21.575000000000006
42
0.41421356237308465
10
140.63749999999999
20
-22.074999999999996
10
140.63749999999999
20
-35.075000000000003
42
0.41421356237309243
10
141.13749999999999
20
-35.575000000000003
10
154.13749999999999
20
-35.57500000000001
42
0.41421356237308465
10
154.63749999999999
20
-35.075000000000003
10
154.63750000000005
20
-22.074999999999999
42
0.41421356237308982
0
LWPOLYLINE
5
142
100
AcDbEntity
8
0
100
AcDbPolyline
90
8
70
1
43
0.0
10
207.31250000000006
20
-41.125
10
207.31250000000003
20
-54.125000000000014
42
0.41421356237307422
10
207.8125
20
-54.625000000000014
10
220.8125
20
-54.625
42
0.41421356237317308
10
221.3125
20
-54.125000000000014
10
221.3125
20
-41.125
42
0.41421356237305862
10
220.81250000000006
20
-40.624999999999972
10
207.81250000000003
20
-40.625
42
0.4142135623731002
0
LWPOLYLINE
5
143
100
AcDbEntity
8
0
100
AcDbPolyline
90
8
70
1
43
0.0
10
9.6687499999999815
20
-41.124999999999986
10
9.6687500000000171
20
-54.125000000000014
42
0.41421356237306517
10
10.168749999999989
20
-54.625
10
23.168749999999999
20
-54.625
42
0.414213562373069
10
23.668750000000003
20
-54.125000000000014
10
23.668749999999999
20
-41.125
42
0.41421356237307944
10
23.168749999999996
20
-40.625
10
10.168749999999999
20
-40.625
42
0.41421356237307549
0
LWPOLYLINE
5
144
100
AcDbEntity
8
0
100
AcDbPolyline
90
8
70
1
43
0.0
10
240.36250000000001
20
-54.125000000000014
10
240.36250000000001
20
-41.125
42
0.41421356237305862
10
239.86250000000007
20
-40.624999999999972
10
226.86250000000004
20
-40.625
42
0.4142135623731002
10
226.36250000000007
20
-41.125
10
226.36250000000004
20
-54.125000000000014
42
0.41421356237307422
10
226.86250000000001
20
-54.625000000000014
10
239.86250000000001
20
-54.625
42
0.41421356237317308
0
LWPOLYLINE
5
145
100
AcDbEntity
8
0
100
AcDbPolyline
90
8
70
1
43
0.0
10
135.08750000000003
20
-21.575000000000006
10
122.08750000000002
20
-21.575000000000006
42
0.41421356237308465
10
121.58750000000001
20
-22.074999999999996
10
121.58750000000001
20
-35.075000000000003
42
0.41421356237309243
10
122.08750000000002
20
-35.575000000000003
10
135.08750000000001
20
-35.57500000000001
42
0.41421356237305862
10
135.58750000000001
20
-35.075000000000003
10
135.58750000000001
20
-22.074999999999999
42
0.41421356237305862
0
ENDSEC
0
SECTION
2
OBJECTS
0
DICTIONARY
5
C
100
AcDbDictionary
3
ACAD_GROUP
350
D
3
ACAD_MLINESTYLE
350
17
0
DICTIONARY
5
D
100
AcDbDictionary
0
DICTIONARY
5
1A
330
C
100
AcDbDictionary
0
DICTIONARY
5
17
100
AcDbDictionary
0
ENDSEC
0
EOF
