0
SECTION
2
HEADER
9
$INSUNITS
70
4
9
$ACADVER
1
AC1014
9
$HANDSEED
5
FFFF
0
ENDSEC
0
SECTION
2
TABLES
0
TABLE
2
VPORT
5
8
100
AcDbSymbolTable
0
ENDTAB
0
TABLE
2
LTYPE
5
5
100
AcDbSymbolTable
0
LTYPE
5
14
100
AcDbSymbolTableRecord
100
AcDbLinetypeTableRecord
2
BYBLOCK
70
0
0
LTYPE
5
15
100
AcDbSymbolTableRecord
100
AcDbLinetypeTableRecord
2
BYLAYER
70
0
0
ENDTAB
0
TABLE
2
LAYER
5
2
100
AcDbSymbolTable
70
2
0
LAYER
5
50
100
AcDbSymbolTableRecord
100
AcDbLayerTableRecord
2
0
70
0
6
CONTINUOUS
0
ENDTAB
0
TABLE
2
STYLE
5
3
100
AcDbSymbolTable
70
1
0
STYLE
5
11
100
AcDbSymbolTableRecord
100
AcDbTextStyleTableRecord
2
STANDARD
70
0
0
ENDTAB
0
TABLE
2
VIEW
5
6
100
AcDbSymbolTable
70
0
0
ENDTAB
0
TABLE
2
UCS
5
7
100
AcDbSymbolTable
70
0
0
ENDTAB
0
TABLE
2
APPID
5
9
100
AcDbSymbolTable
70
2
0
APPID
5
12
100
AcDbSymbolTableRecord
100
AcDbRegAppTableRecord
2
ACAD
70
0
0
ENDTAB
0
TABLE
2
DIMSTYLE
5
A
100
AcDbSymbolTable
70
1
0
ENDTAB
0
TABLE
2
BLOCK_RECORD
5
1
100
AcDbSymbolTable
70
1
0
BLOCK_RECORD
5
1F
100
AcDbSymbolTableRecord
100
AcDbBlockTableRecord
2
*MODEL_SPACE
0
BLOCK_RECORD
5
1B
100
AcDbSymbolTableRecord
100
AcDbBlockTableRecord
2
*PAPER_SPACE
0
ENDTAB
0
ENDSEC
0
SECTION
2
BLOCKS
0
BLOCK
5
20
100
AcDbEntity
100
AcDbBlockBegin
2
*MODEL_SPACE
0
ENDBLK
5
21
100
AcDbEntity
100
AcDbBlockEnd
0
BLOCK
5
1C
100
AcDbEntity
100
AcDbBlockBegin
2
*PAPER_SPACE
0
ENDBLK
5
1D
100
AcDbEntity
100
AcDbBlockEnd
0
ENDSEC
0
SECTION
2
ENTITIES
0
LINE
5
100
100
AcDbEntity
8
0
100
AcDbLine
10
44.359749999999977
20
-35.576999999999984
30
0
11
30.35974999999997
21
-35.576999999999984
31
0
0
LINE
5
101
100
AcDbEntity
8
0
100
AcDbLine
10
30.35974999999997
20
-35.576999999999984
30
0
11
30.35974999999997
21
-21.57699999999997
31
0
0
LINE
5
102
100
AcDbEntity
8
0
100
AcDbLine
10
44.359749999999977
20
-21.576999999999977
30
0
11
44.359749999999977
21
-35.576999999999984
31
0
0
LINE
5
103
100
AcDbEntity
8
0
100
AcDbLine
10
30.35974999999997
20
-21.57699999999997
30
0
11
44.359749999999977
21
-21.576999999999977
31
0
0
LINE
5
104
100
AcDbEntity
8
0
100
AcDbLine
10
63.039749999999977
20
-35.576999999999984
30
0
11
49.03974999999997
21
-35.576999999999984
31
0
0
LINE
5
105
100
AcDbEntity
8
0
100
AcDbLine
10
49.03974999999997
20
-35.576999999999984
30
0
11
49.03974999999997
21
-21.576999999999977
31
0
0
LINE
5
106
100
AcDbEntity
8
0
100
AcDbLine
10
63.039749999999977
20
-21.576999999999977
30
0
11
63.039749999999977
21
-35.576999999999984
31
0
0
LINE
5
107
100
AcDbEntity
8
0
100
AcDbLine
10
49.03974999999997
20
-21.576999999999977
30
0
11
63.039749999999977
21
-21.576999999999977
31
0
0
LINE
5
108
100
AcDbEntity
8
0
100
AcDbLine
10
81.719750000000005
20
-35.576999999999984
30
0
11
67.719749999999976
21
-35.576999999999984
31
0
0
LINE
5
109
100
AcDbEntity
8
0
100
AcDbLine
10
67.719749999999976
20
-35.576999999999984
30
0
11
67.719749999999976
21
-21.576999999999977
31
0
0
LINE
5
110
100
AcDbEntity
8
0
100
AcDbLine
10
81.719750000000005
20
-21.576999999999977
30
0
11
81.719750000000005
21
-35.576999999999984
31
0
0
LINE
5
111
100
AcDbEntity
8
0
100
AcDbLine
10
67.719749999999976
20
-21.576999999999977
30
0
11
81.719750000000005
21
-21.576999999999977
31
0
0
LINE
5
112
100
AcDbEntity
8
0
100
AcDbLine
10
100.39974999999998
20
-35.576999999999984
30
0
11
86.399749999999955
21
-35.576999999999984
31
0
0
LINE
5
113
100
AcDbEntity
8
0
100
AcDbLine
10
86.399749999999955
20
-35.576999999999984
30
0
11
86.399749999999997
21
-21.576999999999977
31
0
0
LINE
5
114
100
AcDbEntity
8
0
100
AcDbLine
10
100.39974999999998
20
-21.576999999999977
30
0
11
100.39974999999998
21
-35.576999999999984
31
0
0
LINE
5
115
100
AcDbEntity
8
0
100
AcDbLine
10
86.399749999999997
20
-21.576999999999977
30
0
11
100.39974999999998
21
-21.576999999999977
31
0
0
LINE
5
116
100
AcDbEntity
8
0
100
AcDbLine
10
119.07974999999996
20
-35.576999999999984
30
0
11
105.07974999999999
21
-35.576999999999984
31
0
0
LINE
5
117
100
AcDbEntity
8
0
100
AcDbLine
10
105.07974999999999
20
-35.576999999999984
30
0
11
105.07974999999999
21
-21.576999999999977
31
0
0
LINE
5
118
100
AcDbEntity
8
0
100
AcDbLine
10
119.07974999999996
20
-21.576999999999991
30
0
11
119.07974999999996
21
-35.576999999999984
31
0
0
LINE
5
119
100
AcDbEntity
8
0
100
AcDbLine
10
105.07974999999999
20
-21.576999999999977
30
0
11
119.07974999999996
21
-21.576999999999991
31
0
0
LINE
5
120
100
AcDbEntity
8
0
100
AcDbLine
10
119.07975
20
-2.5269999999999859
30
0
11
119.07974999999996
21
-16.52699999999999
31
0
0
LINE
5
121
100
AcDbEntity
8
0
100
AcDbLine
10
119.07974999999996
20
-16.52699999999999
30
0
11
105.07974999999999
21
-16.526999999999976
31
0
0
LINE
5
122
100
AcDbEntity
8
0
100
AcDbLine
10
105.07974999999999
20
-2.5269999999999815
30
0
11
119.07975
21
-2.5269999999999859
31
0
0
LINE
5
123
100
AcDbEntity
8
0
100
AcDbLine
10
105.07974999999999
20
-16.526999999999976
30
0
11
105.07974999999999
21
-2.5269999999999815
31
0
0
LINE
5
124
100
AcDbEntity
8
0
100
AcDbLine
10
100.39974999999998
20
-2.5269999999999815
30
0
11
100.39974999999998
21
-16.526999999999976
31
0
0
LINE
5
125
100
AcDbEntity
8
0
100
AcDbLine
10
100.39974999999998
20
-16.526999999999976
30
0
11
86.399749999999997
21
-16.526999999999976
31
0
0
LINE
5
126
100
AcDbEntity
8
0
100
AcDbLine
10
86.399749999999997
20
-2.5269999999999815
30
0
11
100.39974999999998
21
-2.5269999999999815
31
0
0
LINE
5
127
100
AcDbEntity
8
0
100
AcDbLine
10
86.399749999999997
20
-16.526999999999976
30
0
11
86.399749999999997
21
-2.5269999999999815
31
0
0
LINE
5
128
100
AcDbEntity
8
0
100
AcDbLine
10
81.719750000000005
20
-2.5269999999999815
30
0
11
81.719750000000005
21
-16.526999999999976
31
0
0
LINE
5
129
100
AcDbEntity
8
0
100
AcDbLine
10
81.719750000000005
20
-16.526999999999976
30
0
11
67.719749999999976
21
-16.526999999999976
31
0
0
LINE
5
130
100
AcDbEntity
8
0
100
AcDbLine
10
67.719749999999976
20
-2.5269999999999815
30
0
11
81.719750000000005
21
-2.5269999999999815
31
0
0
LINE
5
131
100
AcDbEntity
8
0
100
AcDbLine
10
67.719749999999976
20
-16.526999999999976
30
0
11
67.719749999999976
21
-2.5269999999999815
31
0
0
LINE
5
132
100
AcDbEntity
8
0
100
AcDbLine
10
63.039749999999977
20
-2.5269999999999815
30
0
11
63.039749999999977
21
-16.526999999999976
31
0
0
LINE
5
133
100
AcDbEntity
8
0
100
AcDbLine
10
63.039749999999977
20
-16.526999999999976
30
0
11
49.03974999999997
21
-16.526999999999976
31
0
0
LINE
5
134
100
AcDbEntity
8
0
100
AcDbLine
10
49.03974999999997
20
-2.5269999999999815
30
0
11
63.039749999999977
21
-2.5269999999999815
31
0
0
LINE
5
135
100
AcDbEntity
8
0
100
AcDbLine
10
49.03974999999997
20
-16.526999999999976
30
0
11
49.03974999999997
21
-2.5269999999999815
31
0
0
LINE
5
136
100
AcDbEntity
8
0
100
AcDbLine
10
44.359749999999977
20
-2.5269999999999815
30
0
11
44.359749999999977
21
-16.526999999999976
31
0
0
LINE
5
137
100
AcDbEntity
8
0
100
AcDbLine
10
44.359749999999977
20
-16.526999999999976
30
0
11
30.35974999999997
21
-16.526999999999965
31
0
0
LINE
5
138
100
AcDbEntity
8
0
100
AcDbLine
10
30.35974999999997
20
-2.5269999999999637
30
0
11
44.359749999999977
21
-2.5269999999999815
31
0
0
LINE
5
139
100
AcDbEntity
8
0
100
AcDbLine
10
30.35974999999997
20
-16.526999999999965
30
0
11
30.35974999999997
21
-2.5269999999999637
31
0
0
LINE
5
140
100
AcDbEntity
8
0
100
AcDbLine
10
25.679749999999952
20
-2.5269999999999637
30
0
11
25.679749999999952
21
-16.526999999999965
31
0
0
LINE
5
141
100
AcDbEntity
8
0
100
AcDbLine
10
25.679749999999952
20
-16.526999999999965
30
0
11
11.679750000000002
21
-16.526999999999965
31
0
0
LINE
5
142
100
AcDbEntity
8
0
100
AcDbLine
10
11.679750000000002
20
-2.5269999999999637
30
0
11
25.679749999999952
21
-2.5269999999999637
31
0
0
LINE
5
143
100
AcDbEntity
8
0
100
AcDbLine
10
11.679750000000002
20
-16.526999999999965
30
0
11
11.679750000000002
21
-2.5269999999999637
31
0
0
LINE
5
144
100
AcDbEntity
8
0
100
AcDbLine
10
25.679749999999952
20
-21.57699999999997
30
0
11
25.679749999999952
21
-35.576999999999984
31
0
0
LINE
5
145
100
AcDbEntity
8
0
100
AcDbLine
10
25.679749999999952
20
-35.576999999999984
30
0
11
11.679750000000002
21
-35.576999999999977
31
0
0
LINE
5
146
100
AcDbEntity
8
0
100
AcDbLine
10
11.679750000000002
20
-21.57699999999997
30
0
11
25.679749999999952
21
-21.57699999999997
31
0
0
LINE
5
147
100
AcDbEntity
8
0
100
AcDbLine
10
11.679750000000002
20
-35.576999999999977
30
0
11
11.679750000000002
21
-21.57699999999997
31
0
0
LINE
5
148
100
AcDbEntity
8
0
100
AcDbLine
10
6.9997499999999846
20
-21.57699999999997
30
0
11
6.9997499999999846
21
-35.576999999999977
31
0
0
LINE
5
149
100
AcDbEntity
8
0
100
AcDbLine
10
6.9997499999999846
20
-35.576999999999977
30
0
11
-7.000250000000019
21
-35.576999999999977
31
0
0
LINE
5
150
100
AcDbEntity
8
0
100
AcDbLine
10
-7.000250000000019
20
-21.57699999999997
30
0
11
6.9997499999999846
21
-21.57699999999997
31
0
0
LINE
5
151
100
AcDbEntity
8
0
100
AcDbLine
10
-7.000250000000019
20
-35.576999999999977
30
0
11
-7.000250000000019
21
-21.57699999999997
31
0
0
LINE
5
152
100
AcDbEntity
8
0
100
AcDbLine
10
-11.680250000000036
20
-21.57699999999997
30
0
11
-11.680250000000036
21
-35.576999999999977
31
0
0
LINE
5
153
100
AcDbEntity
8
0
100
AcDbLine
10
-11.680250000000036
20
-35.576999999999977
30
0
11
-25.680250000000058
21
-35.576999999999963
31
0
0
LINE
5
154
100
AcDbEntity
8
0
100
AcDbLine
10
-25.680250000000058
20
-21.57699999999997
30
0
11
-11.680250000000036
21
-21.57699999999997
31
0
0
LINE
5
155
100
AcDbEntity
8
0
100
AcDbLine
10
-25.680250000000058
20
-35.576999999999963
30
0
11
-25.680250000000058
21
-21.57699999999997
31
0
0
LINE
5
156
100
AcDbEntity
8
0
100
AcDbLine
10
-30.36025000000004
20
-21.57699999999997
30
0
11
-30.36025000000004
21
-35.576999999999963
31
0
0
LINE
5
157
100
AcDbEntity
8
0
100
AcDbLine
10
-30.36025000000004
20
-35.576999999999963
30
0
11
-44.360250000000043
21
-35.576999999999963
31
0
0
LINE
5
158
100
AcDbEntity
8
0
100
AcDbLine
10
-44.360250000000043
20
-21.576999999999966
30
0
11
-30.36025000000004
21
-21.57699999999997
31
0
0
LINE
5
159
100
AcDbEntity
8
0
100
AcDbLine
10
-44.360250000000043
20
-35.576999999999963
30
0
11
-44.360250000000043
21
-21.576999999999966
31
0
0
LINE
5
160
100
AcDbEntity
8
0
100
AcDbLine
10
-49.040250000000007
20
-21.576999999999966
30
0
11
-49.040250000000007
21
-35.576999999999963
31
0
0
LINE
5
161
100
AcDbEntity
8
0
100
AcDbLine
10
-49.040250000000007
20
-35.576999999999963
30
0
11
-63.040250000000029
21
-35.576999999999963
31
0
0
LINE
5
162
100
AcDbEntity
8
0
100
AcDbLine
10
-63.040250000000029
20
-21.576999999999966
30
0
11
-49.040250000000007
21
-21.576999999999966
31
0
0
LINE
5
163
100
AcDbEntity
8
0
100
AcDbLine
10
-63.040250000000029
20
-35.576999999999963
30
0
11
-63.040250000000029
21
-21.576999999999966
31
0
0
LINE
5
164
100
AcDbEntity
8
0
100
AcDbLine
10
-67.720250000000064
20
-21.576999999999966
30
0
11
-67.720250000000064
21
-35.576999999999963
31
0
0
LINE
5
165
100
AcDbEntity
8
0
100
AcDbLine
10
-67.720250000000064
20
-35.576999999999963
30
0
11
-81.720250000000021
21
-35.576999999999963
31
0
0
LINE
5
166
100
AcDbEntity
8
0
100
AcDbLine
10
-81.720250000000021
20
-21.576999999999966
30
0
11
-67.720250000000064
21
-21.576999999999966
31
0
0
LINE
5
167
100
AcDbEntity
8
0
100
AcDbLine
10
-81.720250000000021
20
-35.576999999999963
30
0
11
-81.720250000000021
21
-21.576999999999966
31
0
0
LINE
5
168
100
AcDbEntity
8
0
100
AcDbLine
10
-86.400250000000057
20
-21.576999999999966
30
0
11
-86.400250000000057
21
-35.576999999999963
31
0
0
LINE
5
169
100
AcDbEntity
8
0
100
AcDbLine
10
-86.400250000000057
20
-35.576999999999963
30
0
11
-100.40025000000007
21
-35.576999999999963
31
0
0
LINE
5
170
100
AcDbEntity
8
0
100
AcDbLine
10
-100.40025000000007
20
-21.576999999999966
30
0
11
-86.400250000000057
21
-21.576999999999966
31
0
0
LINE
5
171
100
AcDbEntity
8
0
100
AcDbLine
10
-100.40025000000007
20
-35.576999999999963
30
0
11
-100.40025000000007
21
-21.576999999999966
31
0
0
LINE
5
172
100
AcDbEntity
8
0
100
AcDbLine
10
-105.08025000000004
20
-21.576999999999952
30
0
11
-105.08025000000004
21
-35.576999999999963
31
0
0
LINE
5
173
100
AcDbEntity
8
0
100
AcDbLine
10
-105.08025000000004
20
-35.576999999999963
30
0
11
-119.08025000000006
21
-35.576999999999963
31
0
0
LINE
5
174
100
AcDbEntity
8
0
100
AcDbLine
10
-119.08025000000006
20
-21.576999999999952
30
0
11
-105.08025000000004
21
-21.576999999999952
31
0
0
LINE
5
175
100
AcDbEntity
8
0
100
AcDbLine
10
-119.08025000000006
20
-35.576999999999963
30
0
11
-119.08025000000006
21
-21.576999999999952
31
0
0
LINE
5
176
100
AcDbEntity
8
0
100
AcDbLine
10
-105.08025000000004
20
-2.5269999999999504
30
0
11
-105.08025000000004
21
-16.526999999999951
31
0
0
LINE
5
177
100
AcDbEntity
8
0
100
AcDbLine
10
-105.08025000000004
20
-16.526999999999951
30
0
11
-119.08025000000006
21
-16.526999999999951
31
0
0
LINE
5
178
100
AcDbEntity
8
0
100
AcDbLine
10
-119.08025000000006
20
-2.5269999999999504
30
0
11
-105.08025000000004
21
-2.5269999999999504
31
0
0
LINE
5
179
100
AcDbEntity
8
0
100
AcDbLine
10
-105.08025000000004
20
16.523000000000046
30
0
11
-105.08025000000004
21
2.5230000000000441
31
0
0
LINE
5
180
100
AcDbEntity
8
0
100
AcDbLine
10
-105.08025000000004
20
2.5230000000000441
30
0
11
-119.08025000000006
21
2.5230000000000441
31
0
0
LINE
5
181
100
AcDbEntity
8
0
100
AcDbLine
10
-119.08025000000006
20
16.523000000000046
30
0
11
-105.08025000000004
21
16.523000000000046
31
0
0
LINE
5
182
100
AcDbEntity
8
0
100
AcDbLine
10
-119.08025000000006
20
2.5230000000000441
30
0
11
-119.08025000000006
21
16.523000000000046
31
0
0
LINE
5
183
100
AcDbEntity
8
0
100
AcDbLine
10
-119.08025000000006
20
-16.526999999999951
30
0
11
-119.08025000000006
21
-2.5269999999999504
31
0
0
LINE
5
184
100
AcDbEntity
8
0
100
AcDbLine
10
-86.400250000000057
20
16.523000000000046
30
0
11
-86.400250000000057
21
2.5230000000000441
31
0
0
LINE
5
185
100
AcDbEntity
8
0
100
AcDbLine
10
-86.400250000000057
20
2.5230000000000441
30
0
11
-100.40025000000007
21
2.5230000000000441
31
0
0
LINE
5
186
100
AcDbEntity
8
0
100
AcDbLine
10
-100.40025000000007
20
16.523000000000046
30
0
11
-86.400250000000057
21
16.523000000000046
31
0
0
LINE
5
187
100
AcDbEntity
8
0
100
AcDbLine
10
-100.40025000000007
20
2.5230000000000441
30
0
11
-100.40025000000007
21
16.523000000000046
31
0
0
LINE
5
188
100
AcDbEntity
8
0
100
AcDbLine
10
-86.400250000000057
20
-2.5269999999999637
30
0
11
-86.400250000000057
21
-16.526999999999962
31
0
0
LINE
5
189
100
AcDbEntity
8
0
100
AcDbLine
10
-86.400250000000057
20
-16.526999999999962
30
0
11
-100.40025000000007
21
-16.526999999999962
31
0
0
LINE
5
190
100
AcDbEntity
8
0
100
AcDbLine
10
-100.40025000000007
20
-2.5269999999999637
30
0
11
-86.400250000000057
21
-2.5269999999999637
31
0
0
LINE
5
191
100
AcDbEntity
8
0
100
AcDbLine
10
-100.40025000000007
20
-16.526999999999962
30
0
11
-100.40025000000007
21
-2.5269999999999637
31
0
0
LINE
5
192
100
AcDbEntity
8
0
100
AcDbLine
10
-67.720250000000064
20
-2.5269999999999637
30
0
11
-67.720250000000064
21
-16.526999999999962
31
0
0
LINE
5
193
100
AcDbEntity
8
0
100
AcDbLine
10
-67.720250000000064
20
-16.526999999999962
30
0
11
-81.720250000000021
21
-16.526999999999962
31
0
0
LINE
5
194
100
AcDbEntity
8
0
100
AcDbLine
10
-81.720250000000021
20
-2.5269999999999637
30
0
11
-67.720250000000064
21
-2.5269999999999637
31
0
0
LINE
5
195
100
AcDbEntity
8
0
100
AcDbLine
10
-81.720250000000021
20
-16.526999999999962
30
0
11
-81.720250000000021
21
-2.5269999999999637
31
0
0
LINE
5
196
100
AcDbEntity
8
0
100
AcDbLine
10
-67.720250000000064
20
16.523000000000032
30
0
11
-67.720250000000064
21
2.5230000000000441
31
0
0
LINE
5
197
100
AcDbEntity
8
0
100
AcDbLine
10
-67.720250000000064
20
2.5230000000000441
30
0
11
-81.720250000000021
21
2.5230000000000441
31
0
0
LINE
5
198
100
AcDbEntity
8
0
100
AcDbLine
10
-81.720250000000021
20
16.523000000000046
30
0
11
-67.720250000000064
21
16.523000000000032
31
0
0
LINE
5
199
100
AcDbEntity
8
0
100
AcDbLine
10
-81.720250000000021
20
2.5230000000000441
30
0
11
-81.720250000000021
21
16.523000000000046
31
0
0
LINE
5
200
100
AcDbEntity
8
0
100
AcDbLine
10
-118.58425000000008
20
35.577000000000083
30
0
11
-105.58425
21
35.577000000000048
31
0
0
ARC
5
201
100
AcDbEntity
8
0
100
AcDbCircle
10
-105.58424999999997
20
35.077000000000076
30
0
40
0.49999999999997158
210
0
220
0
230
1
100
AcDbArc
50
0
51
90.000000000003254
0
LINE
5
202
100
AcDbEntity
8
0
100
AcDbLine
10
-105.08425
20
35.077000000000055
30
0
11
-105.08425
21
22.076600000000049
31
0
0
ARC
5
203
100
AcDbEntity
8
0
100
AcDbCircle
10
-105.58425
20
22.076600000000042
30
0
40
0.50000000000000711
210
0
220
0
230
1
100
AcDbArc
50
-90.000000000001634
51
0
0
LINE
5
204
100
AcDbEntity
8
0
100
AcDbLine
10
-105.58425
20
21.576600000000035
30
0
11
-118.58425000000008
21
21.576600000000052
31
0
0
ARC
5
205
100
AcDbEntity
8
0
100
AcDbCircle
10
-118.58425000000005
20
22.076600000000003
30
0
40
0.49999999999995381
210
0
220
0
230
1
100
AcDbArc
50
180
51
269.99999999999676
0
ARC
5
206
100
AcDbEntity
8
0
100
AcDbCircle
10
-118.58425
20
35.077000000000041
30
0
40
0.50000000000004263
210
0
220
0
230
1
100
AcDbArc
50
90.000000000011397
51
180
0
LINE
5
207
100
AcDbEntity
8
0
100
AcDbLine
10
-119.08425000000005
20
22.076600000000049
30
0
11
-119.08425000000005
21
35.077000000000055
31
0
0
LINE
5
208
100
AcDbEntity
8
0
100
AcDbLine
10
-99.90425000000009
20
35.577000000000048
30
0
11
-86.904250000000047
21
35.577000000000048
31
0
0
ARC
5
209
100
AcDbEntity
8
0
100
AcDbCircle
10
-86.904250000000019
20
35.077000000000076
30
0
40
0.49999999999997158
210
0
220
0
230
1
100
AcDbArc
50
0
51
90.000000000003254
0
LINE
5
210
100
AcDbEntity
8
0
100
AcDbLine
10
-86.404250000000047
20
35.077000000000055
30
0
11
-86.404250000000047
21
22.076600000000049
31
0
0
ARC
5
211
100
AcDbEntity
8
0
100
AcDbCircle
10
-86.904250000000019
20
22.076600000000042
30
0
40
0.49999999999997158
210
0
220
0
230
1
100
AcDbArc
50
-90.000000000003254
51
0
0
LINE
5
212
100
AcDbEntity
8
0
100
AcDbLine
10
-86.904250000000047
20
21.57660000000007
30
0
11
-99.90425000000009
21
21.576600000000052
31
0
0
ARC
5
213
100
AcDbEntity
8
0
100
AcDbCircle
10
-99.904250000000133
20
22.076600000000013
30
0
40
0.49999999999995381
210
0
220
0
230
1
100
AcDbArc
50
180
51
270.00000000000489
0
ARC
5
214
100
AcDbEntity
8
0
100
AcDbCircle
10
-99.904250000000104
20
35.077000000000076
30
0
40
0.49999999999999822
210
0
220
-0
230
1
100
AcDbArc
50
89.99999999999838
51
180
0
LINE
5
215
100
AcDbEntity
8
0
100
AcDbLine
10
-100.4042500000001
20
22.076600000000049
30
0
11
-100.4042500000001
21
35.077000000000055
31
0
0
LINE
5
216
100
AcDbEntity
8
0
100
AcDbLine
10
-81.22425000000004
20
35.577000000000048
30
0
11
-68.224250000000069
21
35.577000000000048
31
0
0
ARC
5
217
100
AcDbEntity
8
0
100
AcDbCircle
10
-68.224250000000012
20
35.077000000000112
30
0
40
0.49999999999992717
210
0
220
0
230
1
100
AcDbArc
50
0
51
90.000000000006523
0
LINE
5
218
100
AcDbEntity
8
0
100
AcDbLine
10
-67.724250000000097
20
35.077000000000027
30
0
11
-67.724250000000097
21
22.076600000000035
31
0
0
ARC
5
219
100
AcDbEntity
8
0
100
AcDbCircle
10
-68.224250000000097
20
22.076600000000042
30
0
40
0.50000000000000711
210
0
220
0
230
1
100
AcDbArc
50
270.00000000000324
51
360
0
LINE
5
220
100
AcDbEntity
8
0
100
AcDbLine
10
-68.224250000000069
20
21.576600000000035
30
0
11
-81.22425000000004
21
21.576600000000052
31
0
0
ARC
5
221
100
AcDbEntity
8
0
100
AcDbCircle
10
-81.224249999999984
20
22.076600000000077
30
0
40
0.50000000000002487
210
0
220
0
230
1
100
AcDbArc
50
180
51
269.99999999999346
0
ARC
5
222
100
AcDbEntity
8
0
100
AcDbCircle
10
-81.224250000000069
20
35.077000000000062
30
0
40
0.49999999999997158
210
0
220
-0
230
1
100
AcDbArc
50
89.999999999996746
51
180
0
LINE
5
223
100
AcDbEntity
8
0
100
AcDbLine
10
-81.72425000000004
20
22.076600000000049
30
0
11
-81.72425000000004
21
35.077000000000055
31
0
0
LINE
5
224
100
AcDbEntity
8
0
100
AcDbLine
10
-49.040250000000007
20
16.523000000000032
30
0
11
-49.040250000000007
21
2.5230000000000441
31
0
0
LINE
5
225
100
AcDbEntity
8
0
100
AcDbLine
10
-49.040250000000007
20
2.5230000000000441
30
0
11
-63.040250000000029
21
2.5230000000000441
31
0
0
LINE
5
226
100
AcDbEntity
8
0
100
AcDbLine
10
-63.040250000000029
20
16.523000000000032
30
0
11
-49.040250000000007
21
16.523000000000032
31
0
0
LINE
5
227
100
AcDbEntity
8
0
100
AcDbLine
10
-63.040250000000029
20
2.5230000000000441
30
0
11
-63.040250000000029
21
16.523000000000032
31
0
0
LINE
5
228
100
AcDbEntity
8
0
100
AcDbLine
10
-49.040250000000007
20
-16.526999999999962
30
0
11
-63.040250000000029
21
-16.526999999999962
31
0
0
LINE
5
229
100
AcDbEntity
8
0
100
AcDbLine
10
-63.040250000000029
20
-16.526999999999962
30
0
11
-63.040250000000029
21
-2.5269999999999637
31
0
0
LINE
5
230
100
AcDbEntity
8
0
100
AcDbLine
10
-49.040250000000007
20
-2.5269999999999637
30
0
11
-49.040250000000007
21
-16.526999999999962
31
0
0
LINE
5
231
100
AcDbEntity
8
0
100
AcDbLine
10
-63.040250000000029
20
-2.5269999999999637
30
0
11
-49.040250000000007
21
-2.5269999999999637
31
0
0
LINE
5
232
100
AcDbEntity
8
0
100
AcDbLine
10
-49.544250000000076
20
21.576600000000063
30
0
11
-52.914250000000038
21
21.576600000000052
31
0
0
LINE
5
233
100
AcDbEntity
8
0
100
AcDbLine
10
-52.914250000000038
20
21.576600000000052
30
0
11
-52.914250000000038
21
21.076600000000035
31
0
0
ARC
5
234
100
AcDbEntity
8
0
100
AcDbCircle
10
-53.414250000000045
20
21.076600000000067
30
0
40
0.50000000000001155
210
0
220
0
230
1
100
AcDbArc
50
269.99999999999591
51
360
0
LINE
5
235
100
AcDbEntity
8
0
100
AcDbLine
10
-53.414250000000081
20
20.576600000000038
30
0
11
-54.154250000000062
21
20.576600000000038
31
0
0
LINE
5
236
100
AcDbEntity
8
0
100
AcDbLine
10
-54.154250000000062
20
20.576600000000038
30
0
11
-59.414250000000095
21
20.576600000000038
31
0
0
LINE
5
237
100
AcDbEntity
8
0
100
AcDbLine
10
-59.414250000000095
20
20.576600000000038
30
0
11
-60.15425000000004
21
20.576600000000038
31
0
0
ARC
5
238
100
AcDbEntity
8
0
100
AcDbCircle
10
-60.154249999999976
20
21.076600000000081
30
0
40
0.50000000000004263
210
0
220
0
230
1
100
AcDbArc
50
180
51
269.99999999999267
0
LINE
5
239
100
AcDbEntity
8
0
100
AcDbLine
10
-60.654250000000012
20
21.076600000000035
30
0
11
-60.654250000000047
21
21.576600000000052
31
0
0
LINE
5
240
100
AcDbEntity
8
0
100
AcDbLine
10
-60.654250000000047
20
21.576600000000052
30
0
11
-62.544250000000083
21
21.576600000000028
31
0
0
ARC
5
241
100
AcDbEntity
8
0
100
AcDbCircle
10
-62.544250000000119
20
22.07660000000001
30
0
40
0.49999999999998934
210
0
220
0
230
1
100
AcDbArc
50
180
51
270.00000000000409
0
LINE
5
242
100
AcDbEntity
8
0
100
AcDbLine
10
-63.044250000000126
20
22.076600000000035
30
0
11
-63.04425000000009
21
35.077000000000027
31
0
0
ARC
5
243
100
AcDbEntity
8
0
100
AcDbCircle
10
-62.544250000000119
20
35.077000000000041
30
0
40
0.49999999999997602
210
0
220
-0
230
1
100
AcDbArc
50
89.999999999995936
51
180
0
LINE
5
244
100
AcDbEntity
8
0
100
AcDbLine
10
-62.544250000000083
20
35.577000000000034
30
0
11
-60.15425000000004
21
35.577000000000034
31
0
0
LINE
5
245
100
AcDbEntity
8
0
100
AcDbLine
10
-60.15425000000004
20
35.577000000000034
30
0
11
-59.414250000000095
21
35.577000000000034
31
0
0
LINE
5
246
100
AcDbEntity
8
0
100
AcDbLine
10
-59.414250000000095
20
35.577000000000034
30
0
11
-54.154250000000062
21
35.577000000000034
31
0
0
LINE
5
247
100
AcDbEntity
8
0
100
AcDbLine
10
-54.154250000000062
20
35.577000000000034
30
0
11
-53.414250000000081
21
35.577000000000034
31
0
0
LINE
5
248
100
AcDbEntity
8
0
100
AcDbLine
10
-53.414250000000081
20
35.577000000000034
30
0
11
-49.544250000000076
21
35.577000000000034
31
0
0
ARC
5
249
100
AcDbEntity
8
0
100
AcDbCircle
10
-49.544250000000069
20
35.077000000000012
30
0
40
0.50000000000001599
210
0
220
-0
230
1
100
AcDbArc
50
0
51
90.00000000000081
0
ARC
5
250
100
AcDbEntity
8
0
100
AcDbCircle
10
-49.544250000000069
20
22.076600000000028
30
0
40
0.49999999999996714
210
0
220
0
230
1
100
AcDbArc
50
-90.00000000000081
51
0
0
LINE
5
251
100
AcDbEntity
8
0
100
AcDbLine
10
-49.044250000000034
20
35.077000000000027
30
0
11
-49.044250000000105
21
22.076600000000035
31
0
0
LINE
5
252
100
AcDbEntity
8
0
100
AcDbLine
10
-43.864250000000062
20
35.577000000000034
30
0
11
-42.962250000000033
21
35.577000000000034
31
0
0
LINE
5
253
100
AcDbEntity
8
0
100
AcDbLine
10
-42.962250000000033
20
35.577000000000034
30
0
11
-36.962250000000054
21
35.577000000000034
31
0
0
LINE
5
254
100
AcDbEntity
8
0
100
AcDbLine
10
-36.962250000000054
20
35.577000000000034
30
0
11
-34.524250000000052
21
35.577000000000034
31
0
0
LINE
5
255
100
AcDbEntity
8
0
100
AcDbLine
10
-34.524250000000052
20
35.577000000000034
30
0
11
-30.864250000000055
21
35.577000000000034
31
0
0
LINE
5
256
100
AcDbEntity
8
0
100
AcDbLine
10
-30.864250000000055
20
35.577000000000034
30
0
11
-25.184250000000041
21
35.577000000000034
31
0
0
LINE
5
257
100
AcDbEntity
8
0
100
AcDbLine
10
-25.184250000000041
20
35.577000000000034
30
0
11
-22.054250000000053
21
35.577000000000034
31
0
0
LINE
5
258
100
AcDbEntity
8
0
100
AcDbLine
10
-22.054250000000053
20
35.577000000000034
30
0
11
-21.524250000000045
21
35.577000000000034
31
0
0
LINE
5
259
100
AcDbEntity
8
0
100
AcDbLine
10
-21.524250000000045
20
35.577000000000034
30
0
11
-21.314250000000037
21
35.577000000000034
31
0
0
LINE
5
260
100
AcDbEntity
8
0
100
AcDbLine
10
-21.314250000000037
20
35.577000000000034
30
0
11
-19.086250000000007
21
35.577000000000034
31
0
0
LINE
5
261
100
AcDbEntity
8
0
100
AcDbLine
10
-19.086250000000007
20
35.577000000000034
30
0
11
-16.054250000000057
21
35.577000000000034
31
0
0
LINE
5
262
100
AcDbEntity
8
0
100
AcDbLine
10
-16.054250000000057
20
35.577000000000034
30
0
11
-15.314250000000094
21
35.577000000000034
31
0
0
LINE
5
263
100
AcDbEntity
8
0
100
AcDbLine
10
-15.314250000000094
20
35.577000000000034
30
0
11
-13.086250000000028
21
35.577000000000034
31
0
0
LINE
5
264
100
AcDbEntity
8
0
100
AcDbLine
10
-13.086250000000028
20
35.577000000000034
30
0
11
-12.184250000000052
21
35.577000000000034
31
0
0
ARC
5
265
100
AcDbEntity
8
0
100
AcDbCircle
10
-12.184250000000068
20
35.077000000000012
30
0
40
0.50000000000001377
210
0
220
-0
230
1
100
AcDbArc
50
0
51
89.999999999998181
0
LINE
5
266
100
AcDbEntity
8
0
100
AcDbLine
10
-11.684250000000045
20
35.077000000000027
30
0
11
-11.684250000000045
21
22.076600000000035
31
0
0
ARC
5
267
100
AcDbEntity
8
0
100
AcDbCircle
10
-12.184250000000072
20
22.076600000000042
30
0
40
0.50000000000002487
210
0
220
0
230
1
100
AcDbArc
50
270.00000000000426
51
360
0
LINE
5
268
100
AcDbEntity
8
0
100
AcDbLine
10
-12.184250000000034
20
21.576600000000017
30
0
11
-12.586250000000039
21
21.576600000000052
31
0
0
LINE
5
269
100
AcDbEntity
8
0
100
AcDbLine
10
-12.586250000000039
20
21.576600000000052
30
0
11
-12.586250000000039
21
21.076600000000035
31
0
0
ARC
5
270
100
AcDbEntity
8
0
100
AcDbCircle
10
-13.086249999999993
20
21.076599999999992
30
0
40
0.49999999999995381
210
0
220
0
230
1
100
AcDbArc
50
-90.000000000004079
51
0
0
LINE
5
271
100
AcDbEntity
8
0
100
AcDbLine
10
-13.086250000000028
20
20.576600000000038
30
0
11
-15.314250000000094
21
20.576600000000038
31
0
0
LINE
5
272
100
AcDbEntity
8
0
100
AcDbLine
10
-15.314250000000094
20
20.576600000000038
30
0
11
-16.054250000000057
21
20.576600000000038
31
0
0
LINE
5
273
100
AcDbEntity
8
0
100
AcDbLine
10
-16.054250000000057
20
20.576600000000038
30
0
11
-19.086250000000007
21
20.576600000000038
31
0
0
LINE
5
274
100
AcDbEntity
8
0
100
AcDbLine
10
-19.086250000000007
20
20.576600000000038
30
0
11
-21.314250000000037
21
20.576600000000038
31
0
0
LINE
5
275
100
AcDbEntity
8
0
100
AcDbLine
10
-21.314250000000037
20
20.576600000000038
30
0
11
-22.054250000000053
21
20.576600000000038
31
0
0
ARC
5
276
100
AcDbEntity
8
0
100
AcDbCircle
10
-22.05425000000006
20
21.076600000000045
30
0
40
0.50000000000000711
210
0
220
0
230
1
100
AcDbArc
50
180
51
270.0000000000008
0
LINE
5
277
100
AcDbEntity
8
0
100
AcDbLine
10
-22.55425000000006
20
21.076600000000035
30
0
11
-22.55425000000006
21
21.576600000000052
31
0
0
LINE
5
278
100
AcDbEntity
8
0
100
AcDbLine
10
-22.55425000000006
20
21.576600000000052
30
0
11
-25.184250000000041
21
21.576600000000052
31
0
0
LINE
5
279
100
AcDbEntity
8
0
100
AcDbLine
10
-25.184250000000041
20
21.576600000000052
30
0
11
-30.864250000000055
21
21.576600000000052
31
0
0
LINE
5
280
100
AcDbEntity
8
0
100
AcDbLine
10
-30.864250000000055
20
21.576600000000052
30
0
11
-34.524250000000052
21
21.576600000000052
31
0
0
LINE
5
281
100
AcDbEntity
8
0
100
AcDbLine
10
-34.524250000000052
20
21.576600000000052
30
0
11
-36.462250000000083
21
21.576600000000052
31
0
0
LINE
5
282
100
AcDbEntity
8
0
100
AcDbLine
10
-36.462250000000083
20
21.576600000000052
30
0
11
-36.462250000000083
21
21.076600000000035
31
0
0
ARC
5
283
100
AcDbEntity
8
0
100
AcDbCircle
10
-36.962250000000047
20
21.076600000000031
30
0
40
0.49999999999996714
210
0
220
0
230
1
100
AcDbArc
50
-90.00000000000081
51
0
0
LINE
5
284
100
AcDbEntity
8
0
100
AcDbLine
10
-36.962250000000054
20
20.576600000000038
30
0
11
-42.962250000000033
21
20.576600000000038
31
0
0
ARC
5
285
100
AcDbEntity
8
0
100
AcDbCircle
10
-42.962249999999969
20
21.076600000000081
30
0
40
0.50000000000004263
210
0
220
0
230
1
100
AcDbArc
50
180
51
269.99999999999267
0
LINE
5
286
100
AcDbEntity
8
0
100
AcDbLine
10
-43.46225000000004
20
21.076600000000035
30
0
11
-43.46225000000004
21
21.576600000000052
31
0
0
LINE
5
287
100
AcDbEntity
8
0
100
AcDbLine
10
-43.46225000000004
20
21.576600000000052
30
0
11
-43.864250000000062
21
21.576600000000028
31
0
0
ARC
5
288
100
AcDbEntity
8
0
100
AcDbCircle
10
-43.864250000000098
20
22.07660000000001
30
0
40
0.49999999999998934
210
0
220
0
230
1
100
AcDbArc
50
180
51
270.00000000000409
0
ARC
5
289
100
AcDbEntity
8
0
100
AcDbCircle
10
-43.864250000000098
20
35.077000000000041
30
0
40
0.49999999999997602
210
0
220
-0
230
1
100
AcDbArc
50
89.999999999995936
51
180
0
LINE
5
290
100
AcDbEntity
8
0
100
AcDbLine
10
-44.364250000000105
20
22.076600000000035
30
0
11
-44.364250000000069
21
35.077000000000027
31
0
0
LINE
5
291
100
AcDbEntity
8
0
100
AcDbLine
10
-30.36025000000004
20
16.523000000000032
30
0
11
-30.36025000000004
21
2.5230000000000263
31
0
0
LINE
5
292
100
AcDbEntity
8
0
100
AcDbLine
10
-30.36025000000004
20
2.5230000000000263
30
0
11
-44.360250000000043
21
2.5230000000000441
31
0
0
LINE
5
293
100
AcDbEntity
8
0
100
AcDbLine
10
-44.360250000000043
20
16.523000000000032
30
0
11
-30.36025000000004
21
16.523000000000032
31
0
0
LINE
5
294
100
AcDbEntity
8
0
100
AcDbLine
10
-44.360250000000043
20
2.5230000000000441
30
0
11
-44.360250000000043
21
16.523000000000032
31
0
0
LINE
5
295
100
AcDbEntity
8
0
100
AcDbLine
10
-11.680250000000036
20
16.523000000000032
30
0
11
-11.680250000000036
21
2.5230000000000263
31
0
0
LINE
5
296
100
AcDbEntity
8
0
100
AcDbLine
10
-11.680250000000036
20
2.5230000000000263
30
0
11
-25.680250000000058
21
2.5230000000000263
31
0
0
LINE
5
297
100
AcDbEntity
8
0
100
AcDbLine
10
-25.680250000000058
20
16.523000000000032
30
0
11
-11.680250000000036
21
16.523000000000032
31
0
0
LINE
5
298
100
AcDbEntity
8
0
100
AcDbLine
10
-25.680250000000058
20
2.5230000000000263
30
0
11
-25.680250000000058
21
16.523000000000032
31
0
0
LINE
5
299
100
AcDbEntity
8
0
100
AcDbLine
10
-6.5042500000000203
20
35.577000000000034
30
0
11
6.4957500000000046
21
35.577000000000034
31
0
0
ARC
5
300
100
AcDbEntity
8
0
100
AcDbCircle
10
6.4957500000000055
20
35.077000000000055
30
0
40
0.49999999999997935
210
0
220
0
230
1
100
AcDbArc
50
0
51
90.000000000000099
0
LINE
5
301
100
AcDbEntity
8
0
100
AcDbLine
10
6.9957499999999939
20
35.077000000000027
30
0
11
6.9957499999999939
21
22.076600000000035
31
0
0
ARC
5
302
100
AcDbEntity
8
0
100
AcDbCircle
10
6.4957499999999886
20
22.076600000000024
30
0
40
0.50000000000000711
210
0
220
0
230
1
100
AcDbArc
50
-89.999999999996135
51
0
0
LINE
5
303
100
AcDbEntity
8
0
100
AcDbLine
10
6.4957500000000223
20
21.576600000000017
30
0
11
-6.5042500000000203
21
21.576600000000052
31
0
0
ARC
5
304
100
AcDbEntity
8
0
100
AcDbCircle
10
-6.5042500000000167
20
22.076600000000028
30
0
40
0.49999999999997491
210
0
220
0
230
1
100
AcDbArc
50
180
51
269.9999999999996
0
ARC
5
305
100
AcDbEntity
8
0
100
AcDbCircle
10
-6.5042500000000363
20
35.077000000000062
30
0
40
0.49999999999997158
210
0
220
-0
230
1
100
AcDbArc
50
89.999999999998181
51
180
0
LINE
5
306
100
AcDbEntity
8
0
100
AcDbLine
10
-7.0042499999999919
20
22.076600000000035
30
0
11
-7.0042500000000096
21
35.077000000000027
31
0
0
LINE
5
307
100
AcDbEntity
8
0
100
AcDbLine
10
-30.36025000000004
20
-16.526999999999965
30
0
11
-44.360250000000043
21
-16.526999999999962
31
0
0
LINE
5
308
100
AcDbEntity
8
0
100
AcDbLine
10
-44.360250000000043
20
-16.526999999999962
30
0
11
-44.360250000000043
21
-2.5269999999999637
31
0
0
LINE
5
309
100
AcDbEntity
8
0
100
AcDbLine
10
-30.36025000000004
20
-2.5269999999999637
30
0
11
-30.36025000000004
21
-16.526999999999965
31
0
0
LINE
5
310
100
AcDbEntity
8
0
100
AcDbLine
10
-44.360250000000043
20
-2.5269999999999637
30
0
11
-30.36025000000004
21
-2.5269999999999637
31
0
0
LINE
5
311
100
AcDbEntity
8
0
100
AcDbLine
10
-25.680250000000058
20
-16.526999999999965
30
0
11
-25.680250000000058
21
-2.5269999999999637
31
0
0
LINE
5
312
100
AcDbEntity
8
0
100
AcDbLine
10
-25.680250000000058
20
-2.5269999999999637
30
0
11
-11.680250000000036
21
-2.5269999999999637
31
0
0
LINE
5
313
100
AcDbEntity
8
0
100
AcDbLine
10
-11.680250000000036
20
-16.526999999999965
30
0
11
-25.680250000000058
21
-16.526999999999965
31
0
0
LINE
5
314
100
AcDbEntity
8
0
100
AcDbLine
10
-11.680250000000036
20
-2.5269999999999637
30
0
11
-11.680250000000036
21
-16.526999999999965
31
0
0
LINE
5
315
100
AcDbEntity
8
0
100
AcDbLine
10
-7.000250000000019
20
-16.526999999999965
30
0
11
-7.000250000000019
21
-2.5269999999999637
31
0
0
LINE
5
316
100
AcDbEntity
8
0
100
AcDbLine
10
-7.000250000000019
20
-2.5269999999999637
30
0
11
6.9997499999999846
21
-2.5269999999999637
31
0
0
LINE
5
317
100
AcDbEntity
8
0
100
AcDbLine
10
6.9997499999999846
20
-16.526999999999965
30
0
11
-7.000250000000019
21
-16.526999999999965
31
0
0
LINE
5
318
100
AcDbEntity
8
0
100
AcDbLine
10
6.9997499999999846
20
-2.5269999999999637
30
0
11
6.9997499999999846
21
-16.526999999999965
31
0
0
LINE
5
319
100
AcDbEntity
8
0
100
AcDbLine
10
-7.000250000000019
20
2.5230000000000263
30
0
11
-7.000250000000019
21
16.523000000000032
31
0
0
LINE
5
320
100
AcDbEntity
8
0
100
AcDbLine
10
-7.000250000000019
20
16.523000000000032
30
0
11
6.9997499999999846
21
16.523000000000032
31
0
0
LINE
5
321
100
AcDbEntity
8
0
100
AcDbLine
10
6.9997499999999846
20
2.5230000000000263
30
0
11
-7.000250000000019
21
2.5230000000000263
31
0
0
LINE
5
322
100
AcDbEntity
8
0
100
AcDbLine
10
6.9997499999999846
20
16.523000000000032
30
0
11
6.9997499999999846
21
2.5230000000000263
31
0
0
LINE
5
323
100
AcDbEntity
8
0
100
AcDbLine
10
11.679750000000002
20
2.5230000000000263
30
0
11
11.679750000000002
21
16.523000000000032
31
0
0
LINE
5
324
100
AcDbEntity
8
0
100
AcDbLine
10
11.679750000000002
20
16.523000000000032
30
0
11
25.679750000000006
21
16.523000000000032
31
0
0
LINE
5
325
100
AcDbEntity
8
0
100
AcDbLine
10
25.679749999999952
20
2.5230000000000263
30
0
11
11.679750000000002
21
2.5230000000000263
31
0
0
LINE
5
326
100
AcDbEntity
8
0
100
AcDbLine
10
25.679750000000006
20
16.523000000000032
30
0
11
25.679749999999952
21
2.5230000000000263
31
0
0
LINE
5
327
100
AcDbEntity
8
0
100
AcDbLine
10
43.855750000000029
20
21.576600000000017
30
0
11
43.453750000000028
21
21.576600000000052
31
0
0
LINE
5
328
100
AcDbEntity
8
0
100
AcDbLine
10
43.453750000000028
20
21.576600000000052
30
0
11
43.453749999999971
21
21.076600000000035
31
0
0
ARC
5
329
100
AcDbEntity
8
0
100
AcDbCircle
10
42.953749999999985
20
21.076600000000028
30
0
40
0.49999999999999822
210
0
220
0
230
1
100
AcDbArc
50
-90.000000000002444
51
0
0
LINE
5
330
100
AcDbEntity
8
0
100
AcDbLine
10
42.953749999999964
20
20.576600000000028
30
0
11
36.953749999999971
21
20.576600000000038
31
0
0
ARC
5
331
100
AcDbEntity
8
0
100
AcDbCircle
10
36.953749999999971
20
21.07660000000002
30
0
40
0.49999999999998046
210
0
220
0
230
1
100
AcDbArc
50
180
51
270
0
LINE
5
332
100
AcDbEntity
8
0
100
AcDbLine
10
36.453749999999978
20
21.076600000000035
30
0
11
36.453749999999978
21
21.576600000000052
31
0
0
LINE
5
333
100
AcDbEntity
8
0
100
AcDbLine
10
36.453749999999978
20
21.576600000000052
30
0
11
34.515750000000018
21
21.576600000000052
31
0
0
LINE
5
334
100
AcDbEntity
8
0
100
AcDbLine
10
34.515750000000018
20
21.576600000000052
30
0
11
30.855749999999968
21
21.576600000000052
31
0
0
LINE
5
335
100
AcDbEntity
8
0
100
AcDbLine
10
30.855749999999968
20
21.576600000000052
30
0
11
25.17574999999999
21
21.576600000000052
31
0
0
LINE
5
336
100
AcDbEntity
8
0
100
AcDbLine
10
25.17574999999999
20
21.576600000000052
30
0
11
22.545749999999991
21
21.576600000000052
31
0
0
LINE
5
337
100
AcDbEntity
8
0
100
AcDbLine
10
22.545749999999991
20
21.576600000000052
30
0
11
22.545749999999991
21
21.076600000000035
31
0
0
ARC
5
338
100
AcDbEntity
8
0
100
AcDbCircle
10
22.045750000000002
20
21.07660000000002
30
0
40
0.49999999999998934
210
0
220
0
230
1
100
AcDbArc
50
-90
51
0
0
LINE
5
339
100
AcDbEntity
8
0
100
AcDbLine
10
22.045750000000002
20
20.576600000000038
30
0
11
21.305749999999986
21
20.576600000000038
31
0
0
LINE
5
340
100
AcDbEntity
8
0
100
AcDbLine
10
21.305749999999986
20
20.576600000000038
30
0
11
19.077749999999991
21
20.576600000000038
31
0
0
LINE
5
341
100
AcDbEntity
8
0
100
AcDbLine
10
19.077749999999991
20
20.576600000000038
30
0
11
16.045750000000005
21
20.576600000000038
31
0
0
LINE
5
342
100
AcDbEntity
8
0
100
AcDbLine
10
16.045750000000005
20
20.576600000000038
30
0
11
15.305749999999989
21
20.576600000000038
31
0
0
LINE
5
343
100
AcDbEntity
8
0
100
AcDbLine
10
15.305749999999989
20
20.576600000000038
30
0
11
13.077749999999995
21
20.576600000000049
31
0
0
ARC
5
344
100
AcDbEntity
8
0
100
AcDbCircle
10
13.077749999999993
20
21.076600000000049
30
0
40
0.50000000000000488
210
0
220
0
230
1
100
AcDbArc
50
180
51
270.00000000000023
0
LINE
5
345
100
AcDbEntity
8
0
100
AcDbLine
10
12.577749999999988
20
21.076600000000035
30
0
11
12.577749999999988
21
21.576600000000052
31
0
0
LINE
5
346
100
AcDbEntity
8
0
100
AcDbLine
10
12.577749999999988
20
21.576600000000052
30
0
11
12.175750000000001
21
21.576600000000028
31
0
0
ARC
5
347
100
AcDbEntity
8
0
100
AcDbCircle
10
12.175749999999997
20
22.076600000000056
30
0
40
0.50000000000002931
210
0
220
0
230
1
100
AcDbArc
50
180
51
270.0000000000004
0
LINE
5
348
100
AcDbEntity
8
0
100
AcDbLine
10
11.675749999999958
20
22.076600000000035
30
0
11
11.675749999999958
21
35.077000000000027
31
0
0
ARC
5
349
100
AcDbEntity
8
0
100
AcDbCircle
10
12.175749999999999
20
35.077000000000005
30
0
40
0.50000000000003819
210
0
220
-0
230
1
100
AcDbArc
50
89.999999999999801
51
180
0
LINE
5
350
100
AcDbEntity
8
0
100
AcDbLine
10
12.175750000000001
20
35.577000000000041
30
0
11
13.077749999999995
21
35.577000000000034
31
0
0
LINE
5
351
100
AcDbEntity
8
0
100
AcDbLine
10
13.077749999999995
20
35.577000000000034
30
0
11
15.305749999999989
21
35.577000000000034
31
0
0
LINE
5
352
100
AcDbEntity
8
0
100
AcDbLine
10
15.305749999999989
20
35.577000000000034
30
0
11
16.045750000000005
21
35.577000000000034
31
0
0
LINE
5
353
100
AcDbEntity
8
0
100
AcDbLine
10
16.045750000000005
20
35.577000000000034
30
0
11
19.077749999999991
21
35.577000000000034
31
0
0
LINE
5
354
100
AcDbEntity
8
0
100
AcDbLine
10
19.077749999999991
20
35.577000000000034
30
0
11
21.305749999999986
21
35.577000000000034
31
0
0
LINE
5
355
100
AcDbEntity
8
0
100
AcDbLine
10
21.305749999999986
20
35.577000000000034
30
0
11
21.515749999999993
21
35.577000000000034
31
0
0
LINE
5
356
100
AcDbEntity
8
0
100
AcDbLine
10
21.515749999999993
20
35.577000000000034
30
0
11
22.045750000000002
21
35.577000000000034
31
0
0
LINE
5
357
100
AcDbEntity
8
0
100
AcDbLine
10
22.045750000000002
20
35.577000000000034
30
0
11
25.17574999999999
21
35.577000000000034
31
0
0
LINE
5
358
100
AcDbEntity
8
0
100
AcDbLine
10
25.17574999999999
20
35.577000000000034
30
0
11
30.855749999999968
21
35.577000000000034
31
0
0
LINE
5
359
100
AcDbEntity
8
0
100
AcDbLine
10
30.855749999999968
20
35.577000000000034
30
0
11
34.515750000000018
21
35.577000000000034
31
0
0
LINE
5
360
100
AcDbEntity
8
0
100
AcDbLine
10
34.515750000000018
20
35.577000000000034
30
0
11
36.953749999999971
21
35.577000000000034
31
0
0
LINE
5
361
100
AcDbEntity
8
0
100
AcDbLine
10
36.953749999999971
20
35.577000000000034
30
0
11
42.953749999999964
21
35.577000000000034
31
0
0
LINE
5
362
100
AcDbEntity
8
0
100
AcDbLine
10
42.953749999999964
20
35.577000000000034
30
0
11
43.855750000000015
21
35.576999999999977
31
0
0
ARC
5
363
100
AcDbEntity
8
0
100
AcDbCircle
10
43.855750000000029
20
35.077000000000027
30
0
40
0.49999999999994493
210
0
220
0
230
1
100
AcDbArc
50
0
51
90.000000000001634
0
ARC
5
364
100
AcDbEntity
8
0
100
AcDbCircle
10
43.855749999999986
20
22.076600000000045
30
0
40
0.50000000000002931
210
0
220
0
230
1
100
AcDbArc
50
270.00000000000489
51
360
0
LINE
5
365
100
AcDbEntity
8
0
100
AcDbLine
10
44.355749999999965
20
35.077000000000027
30
0
11
44.355750000000015
21
22.076600000000035
31
0
0
LINE
5
366
100
AcDbEntity
8
0
100
AcDbLine
10
62.536149999999999
20
21.576600000000052
30
0
11
60.646149999999999
21
21.576600000000052
31
0
0
LINE
5
367
100
AcDbEntity
8
0
100
AcDbLine
10
60.646149999999999
20
21.576600000000052
30
0
11
60.646149999999999
21
21.076600000000035
31
0
0
ARC
5
368
100
AcDbEntity
8
0
100
AcDbCircle
10
60.146150000000006
20
21.07660000000002
30
0
40
0.49999999999998934
210
0
220
0
230
1
100
AcDbArc
50
-90.000000000002444
51
0
0
LINE
5
369
100
AcDbEntity
8
0
100
AcDbLine
10
60.146149999999984
20
20.576600000000038
30
0
11
59.406149999999975
21
20.576600000000038
31
0
0
LINE
5
370
100
AcDbEntity
8
0
100
AcDbLine
10
59.406149999999975
20
20.576600000000038
30
0
11
54.146149999999992
21
20.576600000000038
31
0
0
LINE
5
371
100
AcDbEntity
8
0
100
AcDbLine
10
54.146149999999992
20
20.576600000000038
30
0
11
53.40614999999994
21
20.576600000000063
31
0
0
ARC
5
372
100
AcDbEntity
8
0
100
AcDbCircle
10
53.406149999999933
20
21.076600000000031
30
0
40
0.4999999999999627
210
0
220
0
230
1
100
AcDbArc
50
180
51
270.0000000000008
0
LINE
5
373
100
AcDbEntity
8
0
100
AcDbLine
10
52.906149999999968
20
21.076600000000035
30
0
11
52.906149999999968
21
21.576600000000052
31
0
0
LINE
5
374
100
AcDbEntity
8
0
100
AcDbLine
10
52.906149999999968
20
21.576600000000052
30
0
11
49.536149999999992
21
21.576600000000028
31
0
0
ARC
5
375
100
AcDbEntity
8
0
100
AcDbCircle
10
49.535776704215323
20
22.076626565578724
30
0
40
0.50002670492101842
210
0
220
0
230
1
100
AcDbArc
50
180.00304402849562
51
270.04277426534986
0
LINE
5
376
100
AcDbEntity
8
0
100
AcDbLine
10
49.03575
20
22.076600000000035
30
0
11
49.035750000000007
21
35.077000000000027
31
0
0
ARC
5
377
100
AcDbEntity
8
0
100
AcDbCircle
10
49.536392751462841
20
35.076356894336037
30
0
40
0.50064316451657276
210
0
220
0
230
1
100
AcDbArc
50
90.027781533480692
51
179.92640017267485
0
LINE
5
378
100
AcDbEntity
8
0
100
AcDbLine
10
49.536149999999992
20
35.577000000000034
30
0
11
53.40614999999994
21
35.577000000000034
31
0
0
LINE
5
379
100
AcDbEntity
8
0
100
AcDbLine
10
53.40614999999994
20
35.577000000000034
30
0
11
54.146149999999992
21
35.577000000000034
31
0
0
LINE
5
380
100
AcDbEntity
8
0
100
AcDbLine
10
54.146149999999992
20
35.577000000000034
30
0
11
59.406149999999975
21
35.577000000000034
31
0
0
LINE
5
381
100
AcDbEntity
8
0
100
AcDbLine
10
59.406149999999975
20
35.577000000000034
30
0
11
60.146149999999984
21
35.577000000000034
31
0
0
LINE
5
382
100
AcDbEntity
8
0
100
AcDbLine
10
60.146149999999984
20
35.577000000000034
30
0
11
62.536149999999999
21
35.577000000000034
31
0
0
ARC
5
383
100
AcDbEntity
8
0
100
AcDbCircle
10
62.536150000000028
20
35.077000000000062
30
0
40
0.49999999999997158
210
0
220
0
230
1
100
AcDbArc
50
0
51
90.000000000003254
0
ARC
5
384
100
AcDbEntity
8
0
100
AcDbCircle
10
62.536150000000006
20
22.07660000000002
30
0
40
0.49999999999996714
210
0
220
0
230
1
100
AcDbArc
50
-90.00000000000081
51
0
0
LINE
5
385
100
AcDbEntity
8
0
100
AcDbLine
10
63.036149999999999
20
35.077000000000027
30
0
11
63.036149999999978
21
22.076600000000035
31
0
0
LINE
5
386
100
AcDbEntity
8
0
100
AcDbLine
10
30.35974999999997
20
2.5230000000000263
30
0
11
30.359749999999988
21
16.523000000000032
31
0
0
LINE
5
387
100
AcDbEntity
8
0
100
AcDbLine
10
30.359749999999988
20
16.523000000000032
30
0
11
44.359749999999991
21
16.523000000000032
31
0
0
LINE
5
388
100
AcDbEntity
8
0
100
AcDbLine
10
44.359749999999977
20
2.5230000000000263
30
0
11
30.35974999999997
21
2.5230000000000263
31
0
0
LINE
5
389
100
AcDbEntity
8
0
100
AcDbLine
10
44.359749999999991
20
16.523000000000032
30
0
11
44.359749999999977
21
2.5230000000000263
31
0
0
LINE
5
390
100
AcDbEntity
8
0
100
AcDbLine
10
49.03974999999997
20
2.5230000000000263
30
0
11
49.03974999999997
21
16.523000000000032
31
0
0
LINE
5
391
100
AcDbEntity
8
0
100
AcDbLine
10
49.03974999999997
20
16.523000000000032
30
0
11
63.039749999999977
21
16.523000000000032
31
0
0
LINE
5
392
100
AcDbEntity
8
0
100
AcDbLine
10
63.039749999999977
20
2.5230000000000263
30
0
11
49.03974999999997
21
2.5230000000000263
31
0
0
LINE
5
393
100
AcDbEntity
8
0
100
AcDbLine
10
63.039749999999977
20
16.523000000000032
30
0
11
63.039749999999977
21
2.5230000000000263
31
0
0
LINE
5
394
100
AcDbEntity
8
0
100
AcDbLine
10
81.216149999999985
20
21.576600000000028
30
0
11
68.216149999999971
21
21.576600000000063
31
0
0
ARC
5
395
100
AcDbEntity
8
0
100
AcDbCircle
10
68.216149999999971
20
22.076600000000042
30
0
40
0.49999999999998046
210
0
220
0
230
1
100
AcDbArc
50
180
51
270
0
LINE
5
396
100
AcDbEntity
8
0
100
AcDbLine
10
67.716149999999999
20
22.076600000000035
30
0
11
67.716149999999971
21
35.077000000000027
31
0
0
ARC
5
397
100
AcDbEntity
8
0
100
AcDbCircle
10
68.216149999999956
20
35.077000000000034
30
0
40
0.49999999999999822
210
0
220
-0
230
1
100
AcDbArc
50
89.99999999999838
51
180
0
LINE
5
398
100
AcDbEntity
8
0
100
AcDbLine
10
68.216149999999971
20
35.577000000000034
30
0
11
81.216149999999985
21
35.577000000000027
31
0
0
ARC
5
399
100
AcDbEntity
8
0
100
AcDbCircle
10
81.216149999999985
20
35.077000000000012
30
0
40
0.50000000000000711
210
0
220
0
230
1
100
AcDbArc
50
0
51
90
0
ARC
5
400
100
AcDbEntity
8
0
100
AcDbCircle
10
81.216149999999999
20
22.076600000000013
30
0
40
0.49999999999998934
210
0
220
0
230
1
100
AcDbArc
50
-90
51
0
0
LINE
5
401
100
AcDbEntity
8
0
100
AcDbLine
10
81.716149999999999
20
35.077000000000005
30
0
11
81.716149999999999
21
22.076600000000024
31
0
0
LINE
5
402
100
AcDbEntity
8
0
100
AcDbLine
10
99.896149999999977
20
21.576600000000028
30
0
11
86.896150000000006
21
21.576600000000006
31
0
0
ARC
5
403
100
AcDbEntity
8
0
100
AcDbCircle
10
86.896149999999977
20
22.076600000000006
30
0
40
0.49999999999998934
210
0
220
0
230
1
100
AcDbArc
50
180
51
270.00000000000324
0
LINE
5
404
100
AcDbEntity
8
0
100
AcDbLine
10
86.396149999999992
20
22.076600000000024
30
0
11
86.396149999999992
21
35.077000000000005
31
0
0
ARC
5
405
100
AcDbEntity
8
0
100
AcDbCircle
10
86.896150000000006
20
35.077000000000012
30
0
40
0.50000000000000711
210
0
220
-0
230
1
100
AcDbArc
50
89.99999999999838
51
180
0
LINE
5
406
100
AcDbEntity
8
0
100
AcDbLine
10
86.896150000000006
20
35.577000000000027
30
0
11
99.896149999999977
21
35.577000000000027
31
0
0
ARC
5
407
100
AcDbEntity
8
0
100
AcDbCircle
10
99.896149999999977
20
35.077000000000012
30
0
40
0.50000000000000711
210
0
220
0
230
1
100
AcDbArc
50
0
51
90
0
ARC
5
408
100
AcDbEntity
8
0
100
AcDbCircle
10
99.896149999999977
20
22.07660000000001
30
0
40
0.49999999999999378
210
0
220
0
230
1
100
AcDbArc
50
-90
51
0
0
LINE
5
409
100
AcDbEntity
8
0
100
AcDbLine
10
100.39614999999998
20
35.077000000000005
30
0
11
100.39614999999996
21
22.076600000000024
31
0
0
LINE
5
410
100
AcDbEntity
8
0
100
AcDbLine
10
67.719749999999976
20
2.5230000000000263
30
0
11
67.719750000000005
21
16.523000000000032
31
0
0
LINE
5
411
100
AcDbEntity
8
0
100
AcDbLine
10
67.719750000000005
20
16.523000000000032
30
0
11
81.719750000000005
21
16.523000000000021
31
0
0
LINE
5
412
100
AcDbEntity
8
0
100
AcDbLine
10
81.719750000000005
20
2.5230000000000263
30
0
11
67.719749999999976
21
2.5230000000000263
31
0
0
LINE
5
413
100
AcDbEntity
8
0
100
AcDbLine
10
81.719750000000005
20
16.523000000000021
30
0
11
81.719750000000005
21
2.5230000000000263
31
0
0
LINE
5
414
100
AcDbEntity
8
0
100
AcDbLine
10
86.399749999999997
20
2.5230000000000263
30
0
11
86.399749999999997
21
16.523000000000021
31
0
0
LINE
5
415
100
AcDbEntity
8
0
100
AcDbLine
10
86.399749999999997
20
16.523000000000021
30
0
11
100.39974999999998
21
16.523000000000021
31
0
0
LINE
5
416
100
AcDbEntity
8
0
100
AcDbLine
10
100.39974999999998
20
2.5230000000000263
30
0
11
86.399749999999997
21
2.5230000000000263
31
0
0
LINE
5
417
100
AcDbEntity
8
0
100
AcDbLine
10
100.39974999999998
20
16.523000000000021
30
0
11
100.39974999999998
21
2.5230000000000263
31
0
0
LINE
5
418
100
AcDbEntity
8
0
100
AcDbLine
10
105.07974999999999
20
2.5230000000000263
30
0
11
105.07974999999999
21
16.523000000000021
31
0
0
LINE
5
419
100
AcDbEntity
8
0
100
AcDbLine
10
105.07974999999999
20
16.523000000000021
30
0
11
119.07975
21
16.523000000000021
31
0
0
LINE
5
420
100
AcDbEntity
8
0
100
AcDbLine
10
119.07975
20
2.5230000000000086
30
0
11
105.07974999999999
21
2.5230000000000263
31
0
0
LINE
5
421
100
AcDbEntity
8
0
100
AcDbLine
10
119.07975
20
16.523000000000021
30
0
11
119.07975
21
2.5230000000000086
31
0
0
LINE
5
422
100
AcDbEntity
8
0
100
AcDbLine
10
118.57614999999998
20
21.576600000000028
30
0
11
105.57614999999998
21
21.576600000000006
31
0
0
ARC
5
423
100
AcDbEntity
8
0
100
AcDbCircle
10
105.57615
20
22.076600000000038
30
0
40
0.50000000000002487
210
0
220
0
230
1
100
AcDbArc
50
180
51
269.99999999999835
0
LINE
5
424
100
AcDbEntity
8
0
100
AcDbLine
10
105.07614999999998
20
22.076600000000024
30
0
11
105.07614999999998
21
35.077000000000005
31
0
0
ARC
5
425
100
AcDbEntity
8
0
100
AcDbCircle
10
105.57614999999998
20
35.077000000000005
30
0
40
0.50000000000001155
210
0
220
-0
230
1
100
AcDbArc
50
90
51
180
0
LINE
5
426
100
AcDbEntity
8
0
100
AcDbLine
10
105.57614999999998
20
35.577000000000027
30
0
11
118.57614999999998
21
35.577000000000027
31
0
0
ARC
5
427
100
AcDbEntity
8
0
100
AcDbCircle
10
118.57614999999998
20
35.077000000000012
30
0
40
0.50000000000000711
210
0
220
0
230
1
100
AcDbArc
50
0
51
90
0
ARC
5
428
100
AcDbEntity
8
0
100
AcDbCircle
10
118.57615000000001
20
22.07660000000001
30
0
40
0.49999999999997602
210
0
220
0
230
1
100
AcDbArc
50
-90.000000000003254
51
0
0
LINE
5
429
100
AcDbEntity
8
0
100
AcDbLine
10
119.07615
20
35.077000000000005
30
0
11
119.07614999999998
21
22.076600000000024
31
0
0
LINE
5
430
100
AcDbEntity
8
0
100
AcDbLine
10
98.62862193946539
20
-38.099999999999973
30
0
11
-98.62862193946286
21
-38.100000000000001
31
0
0
ARC
5
431
100
AcDbEntity
8
0
100
AcDbCircle
10
-98.62862193946286
20
-41.77500000000024
30
0
40
3.6750000000002414
210
0
220
-0
230
1
100
AcDbArc
50
90
51
134.29624874210327
0
LINE
5
432
100
AcDbEntity
8
0
100
AcDbLine
10
-101.19521148900708
20
-39.144354707820526
30
0
11
-105.36736742086057
21
-43.316510639674021
31
0
0
LINE
5
433
100
AcDbEntity
8
0
100
AcDbLine
10
-107.25887806053458
20
-44.100000000000009
30
0
11
-114.62862193946548
21
-44.100000000000009
31
0
0
ARC
5
434
100
AcDbEntity
8
0
100
AcDbCircle
10
-107.25887806053461
20
-41.424999999999976
30
0
40
2.6750000000000362
210
0
220
0
230
1
100
AcDbArc
50
270.00000000000063
51
315
0
CIRCLE
5
435
100
AcDbEntity
8
0
100
AcDbCircle
10
-110.94362193946546
20
-41.350000000000009
30
0
40
1.25
210
0
220
-0
230
1
0
LINE
5
436
100
AcDbEntity
8
0
100
AcDbLine
10
-116.52013257913951
20
-43.316510639674028
30
0
11
-120.66026063967401
21
-39.176382579139499
31
0
0
ARC
5
437
100
AcDbEntity
8
0
100
AcDbCircle
10
-114.62862193946556
20
-41.425000000000118
30
0
40
2.6749999999998932
210
0
220
0
230
1
100
AcDbArc
50
224.99999999999946
51
270.00000000000182
0
ARC
5
438
100
AcDbEntity
8
0
100
AcDbCircle
10
-118.76874999999981
20
-37.284871939465368
30
0
40
2.6750000000002139
210
0
220
0
230
1
100
AcDbArc
50
180
51
224.99999999999895
0
LINE
5
439
100
AcDbEntity
8
0
100
AcDbLine
10
-121.44375000000002
20
-37.284871939465475
30
0
11
-121.44375000000002
21
37.284871939465411
31
0
0
ARC
5
440
100
AcDbEntity
8
0
100
AcDbCircle
10
-118.76874999999991
20
37.28487193946539
30
0
40
2.6750000000001068
210
0
220
0
230
1
100
AcDbArc
50
135.00000000000236
51
180
0
LINE
5
441
100
AcDbEntity
8
0
100
AcDbLine
10
-120.66026063967408
20
39.176382579139393
30
0
11
-116.52013257913944
21
43.316510639674
31
0
0
ARC
5
442
100
AcDbEntity
8
0
100
AcDbCircle
10
-114.62862193946546
20
41.425000000000139
30
0
40
2.6749999999998675
210
0
220
0
230
1
100
AcDbArc
50
90.000000000000313
51
135.00000000000185
0
LINE
5
443
100
AcDbEntity
8
0
100
AcDbLine
10
-114.62862193946548
20
44.100000000000009
30
0
11
-107.25887806053458
21
44.099999999999973
31
0
0
CIRCLE
5
444
100
AcDbEntity
8
0
100
AcDbCircle
10
-110.94387806053456
20
41.350000000000009
30
0
40
1.25
210
0
220
-0
230
1
0
ARC
5
445
100
AcDbEntity
8
0
100
AcDbCircle
10
-107.25887806053463
20
41.424999999999869
30
0
40
2.6750000000001068
210
0
220
-0
230
1
100
AcDbArc
50
45.000000000001187
51
89.999999999999091
0
LINE
5
446
100
AcDbEntity
8
0
100
AcDbLine
10
-105.36736742086057
20
43.316510639674
30
0
11
-101.22723936032612
21
39.176382579139471
31
0
0
ARC
5
447
100
AcDbEntity
8
0
100
AcDbCircle
10
-98.628621939465489
20
41.775000000000063
30
0
40
3.6750000000000673
210
0
220
0
230
1
100
AcDbArc
50
224.99999999999952
51
270
0
LINE
5
448
100
AcDbEntity
8
0
100
AcDbLine
10
-98.628621939465489
20
38.100000000000009
30
0
11
98.628621939465461
21
38.100000000000009
31
0
0
ARC
5
449
100
AcDbEntity
8
0
100
AcDbCircle
10
98.628621939465432
20
41.775000000000027
30
0
40
3.6750000000000238
210
-0
220
0
230
1
100
AcDbArc
50
270
51
315.00000000000028
0
LINE
5
450
100
AcDbEntity
8
0
100
AcDbLine
10
101.22723936032602
20
39.176382579139457
30
0
11
105.36736742086055
21
43.316510639674
31
0
0
ARC
5
451
100
AcDbEntity
8
0
100
AcDbCircle
10
107.25887806053458
20
41.42499999999999
30
0
40
2.6750000000000274
210
0
220
0
230
1
100
AcDbArc
50
90.000000000000313
51
135.00000000000077
0
LINE
5
452
100
AcDbEntity
8
0
100
AcDbLine
10
107.25887806053457
20
44.100000000000009
30
0
11
114.62862193946542
21
44.100000000000009
31
0
0
CIRCLE
5
453
100
AcDbEntity
8
0
100
AcDbCircle
10
110.94362193946543
20
41.350000000000009
30
0
40
1.25
210
0
220
-0
230
1
0
LINE
5
454
100
AcDbEntity
8
0
100
AcDbLine
10
116.52013257913944
20
43.316510639674
30
0
11
120.66026063967401
21
39.176382579139457
31
0
0
ARC
5
455
100
AcDbEntity
8
0
100
AcDbCircle
10
114.62862193946536
20
41.424999999999912
30
0
40
2.6750000000001068
210
0
220
-0
230
1
100
AcDbArc
50
45.00000000000022
51
89.999999999998792
0
ARC
5
456
100
AcDbEntity
8
0
100
AcDbCircle
10
118.76875000000001
20
37.284871939465475
30
0
40
2.6749999999999652
210
0
220
0
230
1
100
AcDbArc
50
0
51
44.999999999999787
0
LINE
5
457
100
AcDbEntity
8
0
100
AcDbLine
10
121.44374999999999
20
37.284871939465454
30
0
11
121.44374999999998
21
-37.284871939465425
31
0
0
ARC
5
458
100
AcDbEntity
8
0
100
AcDbCircle
10
118.76875
20
-37.28487193946544
30
0
40
2.6749999999999838
210
0
220
0
230
1
100
AcDbArc
50
-44.999999999999794
51
0
0
LINE
5
459
100
AcDbEntity
8
0
100
AcDbLine
10
120.66026063967401
20
-39.176382579139442
30
0
11
116.52013257913943
21
-43.316510639674021
31
0
0
LINE
5
460
100
AcDbEntity
8
0
100
AcDbLine
10
114.62862193946542
20
-44.100000000000001
30
0
11
107.25887806053456
21
-44.100000000000001
31
0
0
ARC
5
461
100
AcDbEntity
8
0
100
AcDbCircle
10
114.62862193946538
20
-41.424999999999976
30
0
40
2.6750000000000362
210
0
220
0
230
1
100
AcDbArc
50
270.00000000000091
51
315.00000000000011
0
ARC
5
462
100
AcDbEntity
8
0
100
AcDbCircle
10
107.25887806053458
20
-41.42499999999994
30
0
40
2.6750000000000691
210
0
220
0
230
1
100
AcDbArc
50
225.00000000000065
51
269.99999999999937
0
LINE
5
463
100
AcDbEntity
8
0
100
AcDbLine
10
105.36736742086055
20
-43.316510639674021
30
0
11
101.22723936032597
21
-39.176382579139421
31
0
0
CIRCLE
5
464
100
AcDbEntity
8
0
100
AcDbCircle
10
110.94387806053456
20
-41.350000000000009
30
0
40
1.25
210
0
220
-0
230
1
0
ARC
5
465
100
AcDbEntity
8
0
100
AcDbCircle
10
98.62862193946539
20
-41.775000000000013
30
0
40
3.6750000000000291
210
0
220
-0
230
1
100
AcDbArc
50
45.000000000000156
51
90
0
ENDSEC
0
SECTION
2
OBJECTS
0
DICTIONARY
5
C
100
AcDbDictionary
3
ACAD_GROUP
350
D
3
ACAD_MLINESTYLE
350
17
0
DICTIONARY
5
D
100
AcDbDictionary
0
DICTIONARY
5
1A
330
C
100
AcDbDictionary
0
DICTIONARY
5
17
100
AcDbDictionary
0
ENDSEC
0
EOF
