0
SECTION
2
HEADER
9
$INSUNITS
70
4
9
$ACADVER
1
AC1014
9
$HANDSEED
5
FFFF
0
ENDSEC
0
SECTION
2
TABLES
0
TABLE
2
VPORT
5
8
100
AcDbSymbolTable
0
ENDTAB
0
TABLE
2
LTYPE
5
5
100
AcDbSymbolTable
0
LTYPE
5
14
100
AcDbSymbolTableRecord
100
AcDbLinetypeTableRecord
2
BYBLOCK
70
0
0
LTYPE
5
15
100
AcDbSymbolTableRecord
100
AcDbLinetypeTableRecord
2
BYLAYER
70
0
0
ENDTAB
0
TABLE
2
LAYER
5
2
100
AcDbSymbolTable
70
2
0
LAYER
5
50
100
AcDbSymbolTableRecord
100
AcDbLayerTableRecord
2
0
70
0
6
CONTINUOUS
0
ENDTAB
0
TABLE
2
STYLE
5
3
100
AcDbSymbolTable
70
1
0
STYLE
5
11
100
AcDbSymbolTableRecord
100
AcDbTextStyleTableRecord
2
STANDARD
70
0
0
ENDTAB
0
TABLE
2
VIEW
5
6
100
AcDbSymbolTable
70
0
0
ENDTAB
0
TABLE
2
UCS
5
7
100
AcDbSymbolTable
70
0
0
ENDTAB
0
TABLE
2
APPID
5
9
100
AcDbSymbolTable
70
2
0
APPID
5
12
100
AcDbSymbolTableRecord
100
AcDbRegAppTableRecord
2
ACAD
70
0
0
ENDTAB
0
TABLE
2
DIMSTYLE
5
A
100
AcDbSymbolTable
70
1
0
ENDTAB
0
TABLE
2
BLOCK_RECORD
5
1
100
AcDbSymbolTable
70
1
0
BLOCK_RECORD
5
1F
100
AcDbSymbolTableRecord
100
AcDbBlockTableRecord
2
*MODEL_SPACE
0
BLOCK_RECORD
5
1B
100
AcDbSymbolTableRecord
100
AcDbBlockTableRecord
2
*PAPER_SPACE
0
ENDTAB
0
ENDSEC
0
SECTION
2
BLOCKS
0
BLOCK
5
20
100
AcDbEntity
100
AcDbBlockBegin
2
*MODEL_SPACE
0
ENDBLK
5
21
100
AcDbEntity
100
AcDbBlockEnd
0
BLOCK
5
1C
100
AcDbEntity
100
AcDbBlockBegin
2
*PAPER_SPACE
0
ENDBLK
5
1D
100
AcDbEntity
100
AcDbBlockEnd
0
ENDSEC
0
SECTION
2
ENTITIES
0
LWPOLYLINE
5
100
100
AcDbEntity
8
0
100
AcDbPolyline
90
26
70
1
43
0.0
10
-124.96272505064779
20
59.690000000000019
42
-0.40545250413816469
10
-124.46295010129558
20
60.175000000000026
10
-119.40625
20
60.175000000000026
42
0.41421356237310542
10
-118.90625000000001
20
60.675000000000026
10
-118.90625000000001
20
64.175000000000026
42
0.41421356237311063
10
-119.40625
20
64.675000000000026
10
-119.70625000000001
20
64.675000000000026
10
-119.70625000000001
20
69.675000000000026
10
-119.40625
20
69.675000000000026
42
0.41421356237308982
10
-118.90625000000001
20
70.175000000000026
10
-118.90625000000001
20
73.675000000000026
42
0.414213562373069
10
-119.40625000000003
20
74.175000000000026
10
-145.91249999999999
20
74.175000000000026
42
0.41421356237310025
10
-146.41249999999999
20
73.675000000000026
10
-146.41250000000002
20
70.175000000000026
42
0.41421356237307422
10
-145.91249999999999
20
69.675000000000026
10
-145.61250000000001
20
69.675000000000026
10
-145.61250000000001
20
64.675000000000026
10
-145.91249999999999
20
64.675000000000026
42
0.41421356237307944
10
-146.41250000000002
20
64.175000000000026
10
-146.41249999999999
20
60.675000000000026
42
0.41421356237309503
10
-145.91249999999999
20
60.175000000000026
10
-128.76204989870442
20
60.175000000000026
42
-0.40545250413816436
10
-128.26227494935222
20
59.690000000000026
42
0.4054525041381139
10
-127.76249999999999
20
59.205000000000005
10
-125.46250000000001
20
59.205000000000013
42
0.40545250413816986
0
LWPOLYLINE
5
101
100
AcDbEntity
8
0
100
AcDbPolyline
90
21
70
1
43
0.0
10
-180.08125000000004
20
72.705000000000013
10
-180.08125000000004
20
60.175000000000026
10
-178.85579989870445
20
60.175000000000054
42
-0.40545250413819056
10
-178.35602494935219
20
59.690000000000012
42
0.40545250413819506
10
-177.85624999999999
20
59.205000000000013
10
-175.55625000000003
20
59.205000000000013
42
0.40545250413819567
10
-175.0564750506478
20
59.690000000000012
42
-0.4054525041381899
10
-174.55670010129558
20
60.175000000000018
10
-162.26875000000001
20
60.175000000000026
42
0.4142135623730222
10
-161.76874999999998
20
60.675000000000026
10
-161.76874999999998
20
64.175000000000026
42
0.41421356237312623
10
-162.26875000000001
20
64.675000000000026
10
-162.56875000000002
20
64.675000000000026
10
-162.56875000000002
20
69.675000000000026
10
-162.26875000000001
20
69.675000000000026
42
0.4142135623730222
10
-161.76874999999998
20
70.175000000000026
10
-161.76874999999998
20
73.675000000000026
42
0.41421356237312101
10
-162.26875000000001
20
74.175000000000026
10
-179.25000000000006
20
74.175000000000026
42
0.41421356237307944
10
-179.75
20
73.675000000000026
10
-179.74999999999997
20
73.175662764089125
42
-0.31662024927386373
0
LWPOLYLINE
5
102
100
AcDbEntity
8
0
100
AcDbPolyline
90
12
70
1
43
0.0
10
-151.76249999999999
20
59.205000000000027
10
-149.46250000000001
20
59.205000000000013
42
0.41421356237307944
10
-148.96250000000003
20
59.705000000000013
10
-148.96250000000001
20
59.905000000000015
42
-0.41421356237305862
10
-148.46250000000001
20
60.405000000000015
10
-147.23750000000001
20
60.405000000000015
10
-147.23750000000001
20
72.705000000000013
10
-153.98750000000001
20
72.705000000000013
10
-153.98750000000001
20
60.405000000000015
10
-152.76250000000002
20
60.405000000000015
42
-0.41421356237307944
10
-152.26249999999999
20
59.905000000000015
10
-152.26249999999999
20
59.705000000000013
42
0.41421356237310542
0
LWPOLYLINE
5
103
100
AcDbEntity
8
0
100
AcDbPolyline
90
12
70
1
43
0.0
10
-87.281249999999986
20
59.205000000000027
10
-84.981249999999989
20
59.205000000000027
42
0.41421356237308982
10
-84.481249999999974
20
59.70500000000002
10
-84.481249999999974
20
59.90500000000003
42
-0.41421356237310542
10
-83.98124999999996
20
60.405000000000015
10
-82.75624999999998
20
60.405000000000022
10
-82.75624999999998
20
72.705000000000027
10
-89.506249999999994
20
72.705000000000027
10
-89.506249999999994
20
60.405000000000022
10
-88.281249999999986
20
60.40500000000003
42
-0.41421356237307422
10
-87.781249999999972
20
59.90500000000003
10
-87.781249999999972
20
59.70500000000002
42
0.41421356237305862
0
LWPOLYLINE
5
104
100
AcDbEntity
8
0
100
AcDbPolyline
90
12
70
1
43
0.0
10
-111.28124999999997
20
59.205000000000005
10
-108.98124999999999
20
59.205000000000005
42
0.4142135623730534
10
-108.48124999999997
20
59.705000000000005
10
-108.48124999999997
20
59.905000000000008
42
-0.41421356237307422
10
-107.98124999999997
20
60.405000000000015
10
-106.75624999999998
20
60.405000000000008
10
-106.75624999999998
20
72.705000000000013
10
-113.50624999999999
20
72.705000000000013
10
-113.50624999999999
20
60.405000000000008
10
-112.28124999999999
20
60.405000000000001
42
-0.41421356237310542
10
-111.78124999999997
20
59.905000000000008
10
-111.78124999999997
20
59.705000000000005
42
0.41421356237308982
0
LWPOLYLINE
5
105
100
AcDbEntity
8
0
100
AcDbPolyline
90
33
70
1
43
0.0
10
-14.684871939465431
20
-5.5
42
-0.19891236737965742
10
-16.576382579139441
20
-4.7165106396740146
10
-20.71651063967402
20
-0.57638257913941671
42
0.19891236737965765
10
-23.315128060534605
20
0.50000000000002687
10
-220.57237193946546
20
0.49999999999999989
42
0.19572211633001269
10
-223.13887590590096
20
-0.54466116436345535
42
-2.9736678956998484e-05
10
-223.13896148900704
20
-0.54435470782052409
10
-227.31111742086057
20
-4.7165106396740182
42
-0.19891236737965753
10
-229.20262806053458
20
-5.5
10
-236.57237193946546
20
-5.5000000000000036
42
-0.19891236737965706
10
-238.46388257913947
20
-4.7165106396740244
10
-242.60401063967402
20
-0.5763825791394972
42
-0.19891236737966159
10
-243.38750000000002
20
1.3151280605345317
10
-243.38750000000002
20
75.884871939465398
42
-0.19891236737965801
10
-242.60401063967404
20
77.776382579139408
10
-238.46388257913944
20
81.916510639674001
42
-0.19891236737965801
10
-236.57237193946543
20
82.699999999999989
10
-229.20262806053458
20
82.699999999999974
42
-0.19891236737965801
10
-227.31111742086057
20
81.916510639674001
10
-223.17098936032608
20
77.776382579139465
42
0.19891236737965459
10
-220.57237193946548
20
76.700000000000003
10
-23.315128060534533
20
76.700000000000003
42
0.19891236737965814
10
-20.716510639673963
20
77.776382579139451
10
-16.576382579139445
20
81.916510639674001
42
-0.19891236737965812
10
-14.684871939465429
20
82.699999999999989
10
-7.3151280605345619
20
82.699999999999989
42
-0.19891236737965859
10
-5.423617420860543
20
81.916510639674001
10
-1.2834893603259858
20
77.776382579139465
42
-0.19891236737965845
10
-0.49999999999999711
20
75.884871939465455
10
-0.49999999999999906
20
1.3151280605345756
42
-0.19891236737965776
10
-1.283489360325984
20
-0.5763825791394378
10
-5.4236174208605616
20
-4.7165106396740146
42
-0.19891236737965859
10
-7.3151280605345814
20
-5.5
0
CIRCLE
5
106
100
AcDbEntity
8
0
100
AcDbCircle
10
-10.999871939465429
20
-2.75
30
0
40
1.25
210
0
220
-0
230
1
0
CIRCLE
5
107
100
AcDbEntity
8
0
100
AcDbCircle
10
-232.88762806053458
20
79.949999999999989
30
0
40
1.25
210
0
220
-0
230
1
0
CIRCLE
5
108
100
AcDbEntity
8
0
100
AcDbCircle
10
-11.000128060534564
20
79.949999999999989
30
0
40
1.25
210
0
220
-0
230
1
0
CIRCLE
5
109
100
AcDbEntity
8
0
100
AcDbCircle
10
-232.88737193946545
20
-2.7500000000000013
30
0
40
1.25
210
0
220
-0
230
1
0
LWPOLYLINE
5
110
100
AcDbEntity
8
0
100
AcDbPolyline
90
20
70
1
43
0.0
10
-234.51875000000001
20
7.0250000000000279
10
-234.51875000000001
20
3.5250000000000266
42
0.41421356237307355
10
-234.01875000000004
20
3.0250000000000266
10
-219.41875000000005
20
3.0250000000000266
42
0.41421356237302509
10
-218.91875000000002
20
3.5250000000000274
10
-218.91875000000002
20
7.0250000000000279
42
0.41421356237310153
10
-219.41875000000005
20
7.525000000000035
10
-219.71875
20
7.5250000000000288
10
-219.71875
20
12.525000000000029
10
-219.41875000000005
20
12.525000000000029
42
0.41421356237312101
10
-218.91875000000002
20
13.025000000000029
10
-218.91875000000002
20
16.525000000000027
42
0.41421356237312235
10
-219.41875000000005
20
17.025000000000034
10
-234.01875000000004
20
17.025000000000027
42
0.41421356237307422
10
-234.51875000000001
20
16.525000000000027
10
-234.51875000000001
20
13.025000000000029
42
0.41421356237305212
10
-234.01875000000004
20
12.525000000000029
10
-233.71875000000003
20
12.525000000000029
10
-233.71875000000003
20
7.5250000000000288
10
-234.01875000000004
20
7.5250000000000288
42
0.41421356237307355
0
LWPOLYLINE
5
111
100
AcDbEntity
8
0
100
AcDbPolyline
90
20
70
1
43
0.0
10
-151.17500000000001
20
7.0250000000000279
10
-151.17500000000001
20
3.5250000000000266
42
0.41421356237309892
10
-150.67500000000001
20
3.0250000000000266
10
-136.07499999999999
20
3.0250000000000266
42
0.41421356237307422
10
-135.57499999999999
20
3.5250000000000274
10
-135.57500000000002
20
7.0250000000000279
42
0.41421356237308854
10
-136.07499999999999
20
7.525000000000035
10
-136.375
20
7.5250000000000288
10
-136.375
20
12.525000000000029
10
-136.07499999999999
20
12.525000000000029
42
0.41421356237306384
10
-135.57500000000002
20
13.025000000000029
10
-135.57500000000002
20
16.525000000000027
42
0.4142135623730937
10
-136.07500000000002
20
17.025000000000034
10
-150.67500000000001
20
17.025000000000027
42
0.41421356237307422
10
-151.17500000000001
20
16.525000000000027
10
-151.17500000000001
20
13.025000000000029
42
0.41421356237307294
10
-150.67500000000001
20
12.525000000000029
10
-150.375
20
12.525000000000029
10
-150.375
20
7.5250000000000288
10
-150.67500000000001
20
7.5250000000000288
42
0.41421356237307294
0
LWPOLYLINE
5
112
100
AcDbEntity
8
0
100
AcDbPolyline
90
20
70
1
43
0.0
10
-74.975000000000009
20
7.0250000000000279
10
-74.974999999999994
20
3.5250000000000266
42
0.41421356237309664
10
-74.474999999999994
20
3.0250000000000266
10
-59.875
20
3.0250000000000266
42
0.41421356237309437
10
-59.375
20
3.5250000000000274
10
-59.375
20
7.0250000000000279
42
0.41421356237309503
10
-59.875
20
7.5250000000000261
10
-60.174999999999997
20
7.5250000000000288
10
-60.174999999999997
20
12.525000000000029
10
-59.875
20
12.525000000000029
42
0.4142135623730937
10
-59.375
20
13.025000000000029
10
-59.375
20
16.525000000000027
42
0.41421356237309243
10
-59.875
20
17.025000000000023
10
-74.474999999999994
20
17.025000000000027
42
0.41421356237308982
10
-74.974999999999994
20
16.525000000000027
10
-74.974999999999994
20
13.025000000000029
42
0.41421356237309631
10
-74.474999999999994
20
12.525000000000029
10
-74.174999999999997
20
12.525000000000029
10
-74.174999999999997
20
7.5250000000000288
10
-74.474999999999994
20
7.5250000000000288
42
0.41421356237308854
0
LWPOLYLINE
5
113
100
AcDbEntity
8
0
100
AcDbPolyline
90
20
70
1
43
0.0
10
-20.206249999999997
20
26.075000000000035
10
-20.206249999999997
20
22.575000000000031
42
0.41421356237309631
10
-19.706250000000001
20
22.075000000000031
10
-5.1062499999999993
20
22.075000000000031
42
0.41421356237310281
10
-4.6062500000000011
20
22.575000000000035
10
-4.6062499999999993
20
26.075000000000035
42
0.4142135623730957
10
-5.1062499999999993
20
26.575000000000031
10
-5.4062499999999991
20
26.575000000000031
10
-5.4062499999999991
20
31.575000000000031
10
-5.1062499999999993
20
31.575000000000031
42
0.41421356237309243
10
-4.6062499999999975
20
32.075000000000031
10
-4.6062499999999993
20
35.575000000000031
42
0.41421356237309309
10
-5.1062500000000011
20
36.075000000000031
10
-19.706249999999997
20
36.075000000000031
42
0.41421356237309503
10
-20.206249999999997
20
35.575000000000031
10
-20.206249999999997
20
32.075000000000031
42
0.41421356237308982
10
-19.706249999999997
20
31.575000000000031
10
-19.40625
20
31.575000000000031
10
-19.40625
20
26.575000000000031
10
-19.706249999999997
20
26.575000000000031
42
0.41421356237308982
0
LWPOLYLINE
5
114
100
AcDbEntity
8
0
100
AcDbPolyline
90
20
70
1
43
0.0
10
-98.787500000000023
20
26.075000000000035
10
-98.787499999999994
20
22.575000000000031
42
0.41421356237310025
10
-98.287500000000009
20
22.075000000000031
10
-83.6875
20
22.075000000000031
42
0.41421356237308982
10
-83.187500000000014
20
22.575000000000035
10
-83.187500000000014
20
26.075000000000035
42
0.41421356237308721
10
-83.6875
20
26.575000000000042
10
-83.987500000000011
20
26.575000000000031
10
-83.987500000000011
20
31.575000000000031
10
-83.6875
20
31.575000000000031
42
0.41421356237307683
10
-83.187500000000014
20
32.075000000000031
10
-83.187500000000014
20
35.575000000000031
42
0.41421356237310802
10
-83.687500000000028
20
36.075000000000031
10
-98.287500000000009
20
36.075000000000031
42
0.41421356237307683
10
-98.787499999999994
20
35.575000000000031
10
-98.787500000000023
20
32.075000000000031
42
0.41421356237307161
10
-98.287500000000009
20
31.575000000000031
10
-97.987500000000011
20
31.575000000000031
10
-97.987500000000011
20
26.575000000000031
10
-98.287500000000009
20
26.575000000000031
42
0.41421356237307161
0
LWPOLYLINE
5
115
100
AcDbEntity
8
0
100
AcDbPolyline
90
20
70
1
43
0.0
10
-174.98750000000001
20
26.075000000000035
10
-174.98750000000001
20
22.575000000000031
42
0.41421356237313145
10
-174.48750000000001
20
22.075000000000031
10
-159.88749999999999
20
22.075000000000031
42
0.41421356237310802
10
-159.38749999999999
20
22.575000000000035
10
-159.38750000000002
20
26.075000000000035
42
0.41421356237311324
10
-159.88749999999999
20
26.575000000000024
10
-160.1875
20
26.575000000000031
10
-160.1875
20
31.575000000000031
10
-159.88749999999999
20
31.575000000000031
42
0.41421356237306123
10
-159.38750000000002
20
32.075000000000031
10
-159.38750000000002
20
35.575000000000031
42
0.41421356237307683
10
-159.88750000000002
20
36.075000000000031
10
-174.48750000000001
20
36.075000000000031
42
0.41421356237313406
10
-174.98750000000001
20
35.575000000000031
10
-174.98750000000001
20
32.075000000000031
42
0.41421356237313145
10
-174.48750000000001
20
31.575000000000031
10
-174.1875
20
31.575000000000031
10
-174.1875
20
26.575000000000031
10
-174.48750000000001
20
26.575000000000031
42
0.41421356237307422
0
LWPOLYLINE
5
116
100
AcDbEntity
8
0
100
AcDbPolyline
90
20
70
1
43
0.0
10
-241.66250000000002
20
45.125000000000028
10
-241.66250000000002
20
41.625000000000028
42
0.414213562373069
10
-241.16250000000005
20
41.125000000000036
10
-226.56250000000003
20
41.125000000000036
42
0.41421356237307422
10
-226.06250000000003
20
41.625000000000028
10
-226.06250000000003
20
45.125000000000028
42
0.41421356237313667
10
-226.56250000000003
20
45.625000000000036
10
-226.86250000000001
20
45.625000000000036
10
-226.86250000000001
20
50.625000000000036
10
-226.56250000000003
20
50.625000000000036
42
0.41421356237307422
10
-226.06250000000003
20
51.125000000000036
10
-226.06250000000003
20
54.625000000000028
42
0.41421356237313145
10
-226.56250000000003
20
55.125000000000036
10
-241.16250000000002
20
55.125000000000028
42
0.4142135623730222
10
-241.66250000000002
20
54.625000000000028
10
-241.66250000000002
20
51.125000000000036
42
0.41421356237312101
10
-241.16250000000002
20
50.625000000000036
10
-240.86250000000004
20
50.625000000000036
10
-240.86250000000004
20
45.625000000000036
10
-241.16250000000002
20
45.625000000000036
42
0.41421356237312623
0
LWPOLYLINE
5
117
100
AcDbEntity
8
0
100
AcDbPolyline
90
20
70
1
43
0.0
10
-165.46250000000001
20
45.125000000000028
10
-165.46250000000001
20
41.625000000000028
42
0.41421356237313667
10
-164.96250000000001
20
41.125000000000036
10
-150.36249999999998
20
41.125000000000036
42
0.41421356237310542
10
-149.86249999999998
20
41.625000000000028
10
-149.86250000000001
20
45.125000000000028
42
0.41421356237311063
10
-150.36249999999998
20
45.625000000000014
10
-150.66249999999999
20
45.625000000000036
10
-150.66249999999999
20
50.625000000000036
10
-150.36249999999998
20
50.625000000000036
42
0.41421356237308982
10
-149.86250000000001
20
51.125000000000036
10
-149.86250000000001
20
54.625000000000028
42
0.41421356237307422
10
-150.36250000000001
20
55.125000000000036
10
-164.96250000000001
20
55.125000000000028
42
0.41421356237307422
10
-165.46250000000001
20
54.625000000000028
10
-165.46250000000001
20
51.125000000000036
42
0.41421356237313145
10
-164.96250000000001
20
50.625000000000036
10
-164.66249999999999
20
50.625000000000036
10
-164.66249999999999
20
45.625000000000036
10
-164.96250000000001
20
45.625000000000036
42
0.41421356237313667
0
LWPOLYLINE
5
118
100
AcDbEntity
8
0
100
AcDbPolyline
90
20
70
1
43
0.0
10
-89.262500000000017
20
45.125000000000028
10
-89.262499999999989
20
41.625000000000028
42
0.41421356237309503
10
-88.762500000000003
20
41.125000000000036
10
-74.162500000000009
20
41.125000000000036
42
0.41421356237309503
10
-73.662500000000009
20
41.625000000000028
10
-73.662500000000009
20
45.125000000000028
42
0.41421356237309503
10
-74.162500000000009
20
45.625000000000028
10
-74.462500000000006
20
45.625000000000036
10
-74.462500000000006
20
50.625000000000036
10
-74.162500000000009
20
50.625000000000036
42
0.41421356237309503
10
-73.662500000000009
20
51.125000000000036
10
-73.662500000000009
20
54.625000000000028
42
0.41421356237309503
10
-74.162500000000009
20
55.125000000000028
10
-88.762500000000003
20
55.125000000000028
42
0.41421356237310025
10
-89.262499999999989
20
54.625000000000028
10
-89.262500000000017
20
51.125000000000036
42
0.41421356237307422
10
-88.762500000000003
20
50.625000000000036
10
-88.462500000000006
20
50.625000000000036
10
-88.462500000000006
20
45.625000000000036
10
-88.762500000000003
20
45.625000000000036
42
0.41421356237307944
0
LWPOLYLINE
5
119
100
AcDbEntity
8
0
100
AcDbPolyline
90
20
70
1
43
0.0
10
-105.93125000000001
20
64.175000000000026
10
-105.93125000000001
20
60.675000000000026
42
0.41421356237310025
10
-105.43125000000001
20
60.175000000000026
10
-90.831249999999983
20
60.175000000000026
42
0.41421356237310542
10
-90.331249999999983
20
60.675000000000026
10
-90.331249999999997
20
64.175000000000026
42
0.41421356237311063
10
-90.831249999999983
20
64.675000000000011
10
-91.131249999999994
20
64.675000000000026
10
-91.131249999999994
20
69.675000000000026
10
-90.831249999999983
20
69.675000000000026
42
0.41421356237308982
10
-90.331249999999997
20
70.175000000000026
10
-90.331249999999997
20
73.675000000000026
42
0.41421356237307422
10
-90.831250000000011
20
74.175000000000026
10
-105.43125000000001
20
74.175000000000026
42
0.41421356237308982
10
-105.93125000000001
20
73.675000000000026
10
-105.93125000000001
20
70.175000000000026
42
0.41421356237309503
10
-105.43125000000001
20
69.675000000000026
10
-105.13125000000001
20
69.675000000000026
10
-105.13125000000001
20
64.675000000000026
10
-105.43125000000001
20
64.675000000000026
42
0.41421356237310025
0
LWPOLYLINE
5
120
100
AcDbEntity
8
0
100
AcDbPolyline
90
20
70
1
43
0.0
10
-207.51250000000002
20
74.175000000000026
10
-241.16250000000002
20
74.175000000000026
42
0.4142135623730222
10
-241.66250000000002
20
73.675000000000026
10
-241.66250000000002
20
70.175000000000026
42
0.41421356237312101
10
-241.16250000000002
20
69.675000000000026
10
-240.86250000000004
20
69.675000000000026
10
-240.86250000000004
20
64.675000000000026
10
-241.16250000000002
20
64.675000000000026
42
0.41421356237312623
10
-241.66250000000002
20
64.175000000000026
10
-241.66250000000002
20
60.675000000000026
42
0.414213562373069
10
-241.16250000000005
20
60.175000000000026
10
-207.51250000000002
20
60.175000000000026
42
0.41421356237307422
10
-207.01250000000002
20
60.675000000000026
10
-207.01250000000002
20
64.175000000000026
42
0.41421356237313667
10
-207.51250000000002
20
64.675000000000026
10
-207.8125
20
64.675000000000026
10
-207.8125
20
69.675000000000026
10
-207.51250000000002
20
69.675000000000026
42
0.41421356237307422
10
-207.01250000000002
20
70.175000000000026
10
-207.01250000000002
20
73.675000000000026
42
0.41421356237313145
0
LWPOLYLINE
5
121
100
AcDbEntity
8
0
100
AcDbPolyline
90
20
70
1
43
0.0
10
-203.5625
20
64.175000000000026
10
-203.5625
20
60.675000000000026
42
0.414213562373069
10
-203.06250000000003
20
60.175000000000026
10
-188.46250000000001
20
60.175000000000026
42
0.41421356237307422
10
-187.96250000000001
20
60.675000000000026
10
-187.96250000000001
20
64.175000000000026
42
0.41421356237313667
10
-188.46250000000001
20
64.675000000000026
10
-188.76249999999999
20
64.675000000000026
10
-188.76249999999999
20
69.675000000000026
10
-188.46250000000001
20
69.675000000000026
42
0.41421356237307422
10
-187.96250000000001
20
70.175000000000026
10
-187.96250000000001
20
73.675000000000026
42
0.41421356237313145
10
-188.46250000000001
20
74.175000000000026
10
-203.0625
20
74.175000000000026
42
0.4142135623730222
10
-203.5625
20
73.675000000000026
10
-203.5625
20
70.175000000000026
42
0.41421356237312101
10
-203.0625
20
69.675000000000026
10
-202.76250000000002
20
69.675000000000026
10
-202.76250000000002
20
64.675000000000026
10
-203.0625
20
64.675000000000026
42
0.41421356237312623
0
LWPOLYLINE
5
122
100
AcDbEntity
8
0
100
AcDbPolyline
90
20
70
1
43
0.0
10
-24.96875
20
45.125000000000028
10
-24.968749999999996
20
41.625000000000028
42
0.41421356237308982
10
-24.468750000000004
20
41.125000000000036
10
-9.8687499999999986
20
41.125000000000036
42
0.41421356237309764
10
-9.3687500000000021
20
41.625000000000028
10
-9.3687499999999986
20
45.125000000000028
42
0.41421356237309631
10
-9.8687499999999986
20
45.625000000000028
10
-10.168749999999999
20
45.625000000000036
10
-10.168749999999999
20
50.625000000000036
10
-9.8687499999999986
20
50.625000000000036
42
0.41421356237309503
10
-9.3687499999999968
20
51.125000000000036
10
-9.3687499999999986
20
54.625000000000028
42
0.41421356237308854
10
-9.8687500000000021
20
55.125000000000028
10
-24.46875
20
55.125000000000028
42
0.41421356237308982
10
-24.968749999999996
20
54.625000000000028
10
-24.96875
20
51.125000000000036
42
0.41421356237309243
10
-24.46875
20
50.625000000000036
10
-24.168750000000003
20
50.625000000000036
10
-24.168750000000003
20
45.625000000000036
10
-24.46875
20
45.625000000000036
42
0.41421356237309243
0
LWPOLYLINE
5
123
100
AcDbEntity
8
0
100
AcDbPolyline
90
20
70
1
43
0.0
10
-108.3125
20
45.125000000000028
10
-108.3125
20
41.625000000000028
42
0.41421356237310025
10
-107.8125
20
41.125000000000036
10
-93.212499999999991
20
41.125000000000036
42
0.41421356237310542
10
-92.712499999999977
20
41.625000000000028
10
-92.712500000000006
20
45.125000000000028
42
0.41421356237311063
10
-93.212499999999991
20
45.625000000000014
10
-93.512500000000003
20
45.625000000000036
10
-93.512500000000003
20
50.625000000000036
10
-93.212499999999991
20
50.625000000000036
42
0.41421356237308982
10
-92.712500000000006
20
51.125000000000036
10
-92.712500000000006
20
54.625000000000028
42
0.41421356237307422
10
-93.212500000000006
20
55.125000000000036
10
-107.8125
20
55.125000000000028
42
0.41421356237308982
10
-108.3125
20
54.625000000000028
10
-108.3125
20
51.125000000000036
42
0.41421356237309503
10
-107.8125
20
50.625000000000036
10
-107.5125
20
50.625000000000036
10
-107.5125
20
45.625000000000036
10
-107.8125
20
45.625000000000036
42
0.41421356237310025
0
LWPOLYLINE
5
124
100
AcDbEntity
8
0
100
AcDbPolyline
90
20
70
1
43
0.0
10
-184.51249999999999
20
45.125000000000028
10
-184.51249999999999
20
41.625000000000028
42
0.414213562373069
10
-184.01250000000002
20
41.125000000000036
10
-169.41249999999999
20
41.125000000000036
42
0.41421356237307422
10
-168.91249999999999
20
41.625000000000028
10
-168.91249999999999
20
45.125000000000028
42
0.41421356237313667
10
-169.41249999999999
20
45.625000000000036
10
-169.71249999999998
20
45.625000000000036
10
-169.71249999999998
20
50.625000000000036
10
-169.41249999999999
20
50.625000000000036
42
0.41421356237307422
10
-168.91249999999999
20
51.125000000000036
10
-168.91249999999999
20
54.625000000000028
42
0.41421356237313145
10
-169.41249999999999
20
55.125000000000036
10
-184.01249999999999
20
55.125000000000028
42
0.4142135623730222
10
-184.51249999999999
20
54.625000000000028
10
-184.51249999999999
20
51.125000000000036
42
0.41421356237312101
10
-184.01249999999999
20
50.625000000000036
10
-183.71250000000001
20
50.625000000000036
10
-183.71250000000001
20
45.625000000000036
10
-184.01249999999999
20
45.625000000000036
42
0.41421356237312623
0
LWPOLYLINE
5
125
100
AcDbEntity
8
0
100
AcDbPolyline
90
20
70
1
43
0.0
10
-236.89999999999998
20
26.075000000000035
10
-236.89999999999998
20
22.575000000000031
42
0.41421356237307422
10
-236.40000000000001
20
22.075000000000031
10
-221.80000000000001
20
22.075000000000031
42
0.41421356237302737
10
-221.29999999999998
20
22.575000000000035
10
-221.29999999999998
20
26.075000000000035
42
0.41421356237310025
10
-221.80000000000001
20
26.575000000000042
10
-222.09999999999997
20
26.575000000000031
10
-222.09999999999997
20
31.575000000000031
10
-221.80000000000001
20
31.575000000000031
42
0.4142135623730222
10
-221.29999999999998
20
32.075000000000031
10
-221.29999999999998
20
35.575000000000031
42
0.41421356237312362
10
-221.80000000000001
20
36.075000000000031
10
-236.40000000000001
20
36.075000000000031
42
0.41421356237307422
10
-236.89999999999998
20
35.575000000000031
10
-236.89999999999998
20
32.075000000000031
42
0.41421356237307422
10
-236.40000000000001
20
31.575000000000031
10
-236.09999999999999
20
31.575000000000031
10
-236.09999999999999
20
26.575000000000031
10
-236.40000000000001
20
26.575000000000031
42
0.414213562373069
0
LWPOLYLINE
5
126
100
AcDbEntity
8
0
100
AcDbPolyline
90
20
70
1
43
0.0
10
-155.93750000000003
20
26.075000000000035
10
-155.9375
20
22.575000000000031
42
0.41421356237310025
10
-155.4375
20
22.075000000000031
10
-140.83750000000001
20
22.075000000000031
42
0.41421356237308982
10
-140.33750000000001
20
22.575000000000035
10
-140.33750000000001
20
26.075000000000035
42
0.41421356237308721
10
-140.83750000000001
20
26.575000000000042
10
-141.13750000000002
20
26.575000000000031
10
-141.13750000000002
20
31.575000000000031
10
-140.83750000000001
20
31.575000000000031
42
0.41421356237307683
10
-140.33750000000001
20
32.075000000000031
10
-140.33750000000001
20
35.575000000000031
42
0.41421356237310802
10
-140.83750000000003
20
36.075000000000031
10
-155.4375
20
36.075000000000031
42
0.41421356237307683
10
-155.9375
20
35.575000000000031
10
-155.93750000000003
20
32.075000000000031
42
0.41421356237307161
10
-155.4375
20
31.575000000000031
10
-155.13750000000002
20
31.575000000000031
10
-155.13750000000002
20
26.575000000000031
10
-155.4375
20
26.575000000000031
42
0.41421356237307161
0
LWPOLYLINE
5
127
100
AcDbEntity
8
0
100
AcDbPolyline
90
20
70
1
43
0.0
10
-79.737500000000011
20
26.075000000000035
10
-79.737499999999997
20
22.575000000000031
42
0.41421356237309764
10
-79.237499999999997
20
22.075000000000031
10
-64.637500000000003
20
22.075000000000031
42
0.41421356237310025
10
-64.137500000000003
20
22.575000000000035
10
-64.137500000000003
20
26.075000000000035
42
0.41421356237309503
10
-64.637500000000003
20
26.575000000000031
10
-64.9375
20
26.575000000000031
10
-64.9375
20
31.575000000000031
10
-64.637500000000003
20
31.575000000000031
42
0.41421356237309503
10
-64.137500000000003
20
32.075000000000031
10
-64.137500000000003
20
35.575000000000031
42
0.41421356237307944
10
-64.637499999999989
20
36.075000000000024
10
-79.237499999999997
20
36.075000000000031
42
0.41421356237309243
10
-79.737499999999997
20
35.575000000000031
10
-79.737499999999997
20
32.075000000000031
42
0.41421356237309764
10
-79.237499999999997
20
31.575000000000031
10
-78.9375
20
31.575000000000031
10
-78.9375
20
26.575000000000031
10
-79.237499999999997
20
26.575000000000031
42
0.41421356237308721
0
LWPOLYLINE
5
128
100
AcDbEntity
8
0
100
AcDbPolyline
90
20
70
1
43
0.0
10
-17.824999999999999
20
7.0250000000000279
10
-17.824999999999996
20
3.5250000000000266
42
0.41421356237309148
10
-17.325000000000003
20
3.0250000000000279
10
-2.7249999999999992
20
3.0250000000000266
42
0.4142135623730957
10
-2.2249999999999992
20
3.5250000000000274
10
-2.2249999999999992
20
7.0250000000000279
42
0.4142135623730947
10
-2.7249999999999992
20
7.5250000000000288
10
-3.0249999999999995
20
7.5250000000000288
10
-3.0249999999999995
20
12.525000000000029
10
-2.7249999999999992
20
12.525000000000029
42
0.41421356237309276
10
-2.2249999999999974
20
13.025000000000029
10
-2.2249999999999992
20
16.525000000000027
42
0.41421356237309631
10
-2.7250000000000019
20
17.025000000000027
10
-17.324999999999999
20
17.025000000000027
42
0.4142135623730937
10
-17.824999999999996
20
16.525000000000027
10
-17.824999999999999
20
13.025000000000029
42
0.41421356237309243
10
-17.324999999999999
20
12.525000000000029
10
-17.024999999999999
20
12.525000000000029
10
-17.024999999999999
20
7.5250000000000288
10
-17.324999999999999
20
7.5250000000000288
42
0.41421356237309176
0
LWPOLYLINE
5
129
100
AcDbEntity
8
0
100
AcDbPolyline
90
20
70
1
43
0.0
10
-94.02500000000002
20
7.0250000000000279
10
-94.025000000000006
20
3.5250000000000266
42
0.41421356237309892
10
-93.525000000000006
20
3.0250000000000266
10
-78.925000000000011
20
3.0250000000000266
42
0.41421356237309437
10
-78.425000000000011
20
3.5250000000000274
10
-78.425000000000011
20
7.0250000000000279
42
0.41421356237309503
10
-78.925000000000011
20
7.5250000000000261
10
-79.225000000000009
20
7.5250000000000288
10
-79.225000000000009
20
12.525000000000029
10
-78.925000000000011
20
12.525000000000029
42
0.4142135623730937
10
-78.425000000000011
20
13.025000000000029
10
-78.425000000000011
20
16.525000000000027
42
0.41421356237309243
10
-78.925000000000011
20
17.025000000000023
10
-93.525000000000006
20
17.025000000000027
42
0.41421356237307422
10
-94.025000000000006
20
16.525000000000027
10
-94.02500000000002
20
13.025000000000029
42
0.41421356237307294
10
-93.525000000000006
20
12.525000000000029
10
-93.225000000000023
20
12.525000000000029
10
-93.225000000000023
20
7.5250000000000288
10
-93.525000000000006
20
7.5250000000000288
42
0.41421356237307294
0
LWPOLYLINE
5
130
100
AcDbEntity
8
0
100
AcDbPolyline
90
20
70
1
43
0.0
10
-170.22500000000002
20
7.0250000000000279
10
-170.22500000000002
20
3.5250000000000266
42
0.41421356237307355
10
-169.72500000000002
20
3.0250000000000266
10
-155.125
20
3.0250000000000266
42
0.41421356237307422
10
-154.625
20
3.5250000000000274
10
-154.62500000000003
20
7.0250000000000279
42
0.41421356237308854
10
-155.125
20
7.525000000000035
10
-155.42500000000001
20
7.5250000000000288
10
-155.42500000000001
20
12.525000000000029
10
-155.125
20
12.525000000000029
42
0.41421356237306384
10
-154.62500000000003
20
13.025000000000029
10
-154.62500000000003
20
16.525000000000027
42
0.4142135623730937
10
-155.12500000000003
20
17.025000000000034
10
-169.72500000000002
20
17.025000000000027
42
0.41421356237307422
10
-170.22500000000002
20
16.525000000000027
10
-170.22500000000002
20
13.025000000000029
42
0.41421356237305212
10
-169.72500000000002
20
12.525000000000029
10
-169.42500000000001
20
12.525000000000029
10
-169.42500000000001
20
7.5250000000000288
10
-169.72500000000002
20
7.5250000000000288
42
0.41421356237307355
0
LWPOLYLINE
5
131
100
AcDbEntity
8
0
100
AcDbPolyline
90
20
70
1
43
0.0
10
-208.32499999999999
20
7.0250000000000279
10
-208.32499999999999
20
3.5250000000000266
42
0.41421356237309437
10
-207.82500000000002
20
3.0250000000000266
10
-193.22500000000002
20
3.0250000000000266
42
0.41421356237307716
10
-192.72500000000002
20
3.5250000000000274
10
-192.72500000000002
20
7.0250000000000279
42
0.41421356237313273
10
-193.22500000000002
20
7.525000000000035
10
-193.52499999999998
20
7.5250000000000288
10
-193.52499999999998
20
12.525000000000029
10
-193.22500000000002
20
12.525000000000029
42
0.41421356237313145
10
-192.72500000000002
20
13.025000000000029
10
-192.72500000000002
20
16.525000000000027
42
0.41421356237313273
10
-193.22500000000002
20
17.025000000000034
10
-207.82499999999999
20
17.025000000000027
42
0.41421356237312235
10
-208.32499999999999
20
16.525000000000027
10
-208.32499999999999
20
13.025000000000029
42
0.41421356237312235
10
-207.82499999999999
20
12.525000000000029
10
-207.52500000000001
20
12.525000000000029
10
-207.52500000000001
20
7.5250000000000288
10
-207.82499999999999
20
7.5250000000000288
42
0.41421356237312168
0
LWPOLYLINE
5
132
100
AcDbEntity
8
0
100
AcDbPolyline
90
20
70
1
43
0.0
10
-132.125
20
7.0250000000000279
10
-132.125
20
3.5250000000000266
42
0.41421356237309892
10
-131.625
20
3.0250000000000266
10
-117.02499999999999
20
3.0250000000000266
42
0.41421356237307422
10
-116.52499999999998
20
3.5250000000000274
10
-116.52500000000001
20
7.0250000000000279
42
0.41421356237308854
10
-117.02499999999999
20
7.525000000000035
10
-117.325
20
7.5250000000000288
10
-117.325
20
12.525000000000029
10
-117.02499999999999
20
12.525000000000029
42
0.41421356237306384
10
-116.52500000000001
20
13.025000000000029
10
-116.52500000000001
20
16.525000000000027
42
0.4142135623730937
10
-117.02500000000001
20
17.025000000000034
10
-131.625
20
17.025000000000027
42
0.41421356237307422
10
-132.125
20
16.525000000000027
10
-132.125
20
13.025000000000029
42
0.41421356237307294
10
-131.625
20
12.525000000000029
10
-131.32499999999999
20
12.525000000000029
10
-131.32499999999999
20
7.5250000000000288
10
-131.625
20
7.5250000000000288
42
0.41421356237307294
0
LWPOLYLINE
5
133
100
AcDbEntity
8
0
100
AcDbPolyline
90
20
70
1
43
0.0
10
-55.925000000000011
20
7.0250000000000279
10
-55.925000000000011
20
3.5250000000000266
42
0.41421356237308821
10
-55.425000000000011
20
3.0250000000000266
10
-40.825000000000003
20
3.0250000000000266
42
0.41421356237309437
10
-40.325000000000003
20
3.5250000000000274
10
-40.325000000000003
20
7.0250000000000279
42
0.41421356237308787
10
-40.825000000000003
20
7.525000000000035
10
-41.125000000000007
20
7.5250000000000288
10
-41.125000000000007
20
12.525000000000029
10
-40.825000000000003
20
12.525000000000029
42
0.41421356237308204
10
-40.325000000000003
20
13.025000000000029
10
-40.325000000000003
20
16.525000000000027
42
0.41421356237310281
10
-40.825000000000017
20
17.025000000000034
10
-55.425000000000004
20
17.025000000000027
42
0.41421356237308982
10
-55.925000000000011
20
16.525000000000027
10
-55.925000000000011
20
13.025000000000029
42
0.41421356237310281
10
-55.425000000000004
20
12.525000000000029
10
-55.125000000000014
20
12.525000000000029
10
-55.125000000000014
20
7.5250000000000288
10
-55.425000000000004
20
7.5250000000000288
42
0.41421356237308854
0
LWPOLYLINE
5
134
100
AcDbEntity
8
0
100
AcDbPolyline
90
20
70
1
43
0.0
10
-41.637500000000003
20
26.075000000000035
10
-41.637500000000003
20
22.575000000000031
42
0.41421356237308721
10
-41.137500000000003
20
22.075000000000031
10
-26.537500000000001
20
22.075000000000031
42
0.41421356237310281
10
-26.037500000000001
20
22.575000000000035
10
-26.037499999999998
20
26.075000000000035
42
0.41421356237310281
10
-26.537500000000001
20
26.575000000000038
10
-26.837499999999999
20
26.575000000000031
10
-26.837499999999999
20
31.575000000000031
10
-26.537500000000001
20
31.575000000000031
42
0.41421356237309243
10
-26.037499999999998
20
32.075000000000031
10
-26.037499999999998
20
35.575000000000031
42
0.41421356237309503
10
-26.537500000000005
20
36.075000000000031
10
-41.137499999999996
20
36.075000000000031
42
0.41421356237309243
10
-41.637500000000003
20
35.575000000000031
10
-41.637500000000003
20
32.075000000000031
42
0.41421356237308204
10
-41.137499999999996
20
31.575000000000031
10
-40.837500000000006
20
31.575000000000031
10
-40.837500000000006
20
26.575000000000031
10
-41.137499999999996
20
26.575000000000031
42
0.41421356237308721
0
LWPOLYLINE
5
135
100
AcDbEntity
8
0
100
AcDbPolyline
90
20
70
1
43
0.0
10
-117.83750000000001
20
26.075000000000035
10
-117.83750000000001
20
22.575000000000031
42
0.41421356237309243
10
-117.33750000000001
20
22.075000000000031
10
-102.7375
20
22.075000000000031
42
0.41421356237310802
10
-102.23749999999998
20
22.575000000000035
10
-102.23750000000001
20
26.075000000000035
42
0.41421356237311324
10
-102.7375
20
26.575000000000024
10
-103.03750000000001
20
26.575000000000031
10
-103.03750000000001
20
31.575000000000031
10
-102.7375
20
31.575000000000031
42
0.41421356237306123
10
-102.23750000000001
20
32.075000000000031
10
-102.23750000000001
20
35.575000000000031
42
0.41421356237307683
10
-102.73750000000001
20
36.075000000000031
10
-117.33750000000001
20
36.075000000000031
42
0.41421356237310802
10
-117.83750000000001
20
35.575000000000031
10
-117.83750000000001
20
32.075000000000031
42
0.41421356237309243
10
-117.33750000000001
20
31.575000000000031
10
-117.03750000000001
20
31.575000000000031
10
-117.03750000000001
20
26.575000000000031
10
-117.33750000000001
20
26.575000000000031
42
0.41421356237309243
0
LWPOLYLINE
5
136
100
AcDbEntity
8
0
100
AcDbPolyline
90
20
70
1
43
0.0
10
-194.03749999999999
20
26.075000000000035
10
-194.03749999999999
20
22.575000000000031
42
0.41421356237309503
10
-193.53750000000002
20
22.075000000000031
10
-178.9375
20
22.075000000000031
42
0.41421356237307944
10
-178.4375
20
22.575000000000035
10
-178.4375
20
26.075000000000035
42
0.41421356237313145
10
-178.9375
20
26.575000000000042
10
-179.23749999999998
20
26.575000000000031
10
-179.23749999999998
20
31.575000000000031
10
-178.9375
20
31.575000000000031
42
0.41421356237307422
10
-178.4375
20
32.075000000000031
10
-178.4375
20
35.575000000000031
42
0.41421356237313406
10
-178.9375
20
36.075000000000031
10
-193.53749999999997
20
36.075000000000031
42
0.41421356237312362
10
-194.03749999999999
20
35.575000000000031
10
-194.03749999999999
20
32.075000000000031
42
0.41421356237312101
10
-193.53749999999997
20
31.575000000000031
10
-193.23750000000001
20
31.575000000000031
10
-193.23750000000001
20
26.575000000000031
10
-193.53749999999997
20
26.575000000000031
42
0.4142135623730222
0
LWPOLYLINE
5
137
100
AcDbEntity
8
0
100
AcDbPolyline
90
20
70
1
43
0.0
10
-222.61250000000001
20
45.125000000000028
10
-222.61250000000001
20
41.625000000000028
42
0.414213562373069
10
-222.11250000000004
20
41.125000000000036
10
-207.51250000000002
20
41.125000000000036
42
0.41421356237307422
10
-207.01250000000002
20
41.625000000000028
10
-207.01250000000002
20
45.125000000000028
42
0.41421356237313667
10
-207.51250000000002
20
45.625000000000036
10
-207.8125
20
45.625000000000036
10
-207.8125
20
50.625000000000036
10
-207.51250000000002
20
50.625000000000036
42
0.41421356237307422
10
-207.01250000000002
20
51.125000000000036
10
-207.01250000000002
20
54.625000000000028
42
0.41421356237313145
10
-207.51250000000002
20
55.125000000000036
10
-222.11250000000001
20
55.125000000000028
42
0.4142135623730222
10
-222.61250000000001
20
54.625000000000028
10
-222.61250000000001
20
51.125000000000036
42
0.41421356237312101
10
-222.11250000000001
20
50.625000000000036
10
-221.81250000000003
20
50.625000000000036
10
-221.81250000000003
20
45.625000000000036
10
-222.11250000000001
20
45.625000000000036
42
0.41421356237312623
0
LWPOLYLINE
5
138
100
AcDbEntity
8
0
100
AcDbPolyline
90
20
70
1
43
0.0
10
-146.41250000000002
20
45.125000000000028
10
-146.41249999999999
20
41.625000000000028
42
0.41421356237309503
10
-145.91249999999999
20
41.125000000000036
10
-131.3125
20
41.125000000000036
42
0.41421356237310542
10
-130.8125
20
41.625000000000028
10
-130.8125
20
45.125000000000028
42
0.41421356237308982
10
-131.3125
20
45.625000000000036
10
-131.61250000000001
20
45.625000000000036
10
-131.61250000000001
20
50.625000000000036
10
-131.3125
20
50.625000000000036
42
0.41421356237307944
10
-130.8125
20
51.125000000000036
10
-130.8125
20
54.625000000000028
42
0.41421356237309503
10
-131.3125
20
55.125000000000036
10
-145.91249999999999
20
55.125000000000028
42
0.41421356237310025
10
-146.41249999999999
20
54.625000000000028
10
-146.41250000000002
20
51.125000000000036
42
0.41421356237307422
10
-145.91249999999999
20
50.625000000000036
10
-145.61250000000001
20
50.625000000000036
10
-145.61250000000001
20
45.625000000000036
10
-145.91249999999999
20
45.625000000000036
42
0.41421356237307944
0
LWPOLYLINE
5
139
100
AcDbEntity
8
0
100
AcDbPolyline
90
20
70
1
43
0.0
10
-70.212500000000006
20
45.125000000000028
10
-70.212499999999991
20
41.625000000000028
42
0.41421356237310542
10
-69.712499999999991
20
41.125000000000036
10
-55.112499999999997
20
41.125000000000036
42
0.41421356237309503
10
-54.612499999999997
20
41.625000000000028
10
-54.612499999999997
20
45.125000000000028
42
0.41421356237309503
10
-55.112499999999997
20
45.625000000000028
10
-55.412499999999994
20
45.625000000000036
10
-55.412499999999994
20
50.625000000000036
10
-55.112499999999997
20
50.625000000000036
42
0.41421356237309503
10
-54.612499999999997
20
51.125000000000036
10
-54.612499999999997
20
54.625000000000028
42
0.41421356237309503
10
-55.112499999999997
20
55.125000000000028
10
-69.712499999999991
20
55.125000000000028
42
0.41421356237309503
10
-70.212499999999991
20
54.625000000000028
10
-70.212499999999991
20
51.125000000000036
42
0.41421356237309503
10
-69.712499999999991
20
50.625000000000036
10
-69.412499999999994
20
50.625000000000036
10
-69.412499999999994
20
45.625000000000036
10
-69.712499999999991
20
45.625000000000036
42
0.41421356237311585
0
LWPOLYLINE
5
140
100
AcDbEntity
8
0
100
AcDbPolyline
90
20
70
1
43
0.0
10
-51.162500000000009
20
45.125000000000028
10
-51.162500000000001
20
41.625000000000028
42
0.41421356237310542
10
-50.662500000000001
20
41.125000000000036
10
-36.0625
20
41.125000000000036
42
0.41421356237309764
10
-35.5625
20
41.625000000000028
10
-35.5625
20
45.125000000000028
42
0.41421356237309764
10
-36.0625
20
45.625000000000028
10
-36.362499999999997
20
45.625000000000036
10
-36.362499999999997
20
50.625000000000036
10
-36.0625
20
50.625000000000036
42
0.41421356237309503
10
-35.5625
20
51.125000000000036
10
-35.5625
20
54.625000000000028
42
0.41421356237309503
10
-36.0625
20
55.125000000000028
10
-50.662500000000001
20
55.125000000000028
42
0.41421356237309503
10
-51.162500000000001
20
54.625000000000028
10
-51.162500000000001
20
51.125000000000036
42
0.41421356237309503
10
-50.662500000000001
20
50.625000000000036
10
-50.362499999999997
20
50.625000000000036
10
-50.362499999999997
20
45.625000000000036
10
-50.662500000000001
20
45.625000000000036
42
0.41421356237311585
0
LWPOLYLINE
5
141
100
AcDbEntity
8
0
100
AcDbPolyline
90
20
70
1
43
0.0
10
-127.3625
20
45.125000000000028
10
-127.36249999999998
20
41.625000000000028
42
0.41421356237309503
10
-126.8625
20
41.125000000000036
10
-112.26249999999999
20
41.125000000000036
42
0.41421356237310542
10
-111.76249999999999
20
41.625000000000028
10
-111.76249999999999
20
45.125000000000028
42
0.41421356237308982
10
-112.26249999999999
20
45.625000000000036
10
-112.5625
20
45.625000000000036
10
-112.5625
20
50.625000000000036
10
-112.26249999999999
20
50.625000000000036
42
0.41421356237307944
10
-111.76249999999999
20
51.125000000000036
10
-111.76249999999999
20
54.625000000000028
42
0.41421356237309503
10
-112.2625
20
55.125000000000036
10
-126.8625
20
55.125000000000028
42
0.41421356237310025
10
-127.36249999999998
20
54.625000000000028
10
-127.3625
20
51.125000000000036
42
0.41421356237307422
10
-126.8625
20
50.625000000000036
10
-126.5625
20
50.625000000000036
10
-126.5625
20
45.625000000000036
10
-126.8625
20
45.625000000000036
42
0.41421356237307944
0
LWPOLYLINE
5
142
100
AcDbEntity
8
0
100
AcDbPolyline
90
20
70
1
43
0.0
10
-203.5625
20
45.125000000000028
10
-203.5625
20
41.625000000000028
42
0.414213562373069
10
-203.06250000000003
20
41.125000000000036
10
-188.46250000000001
20
41.125000000000036
42
0.41421356237307422
10
-187.96250000000001
20
41.625000000000028
10
-187.96250000000001
20
45.125000000000028
42
0.41421356237313667
10
-188.46250000000001
20
45.625000000000036
10
-188.76249999999999
20
45.625000000000036
10
-188.76249999999999
20
50.625000000000036
10
-188.46250000000001
20
50.625000000000036
42
0.41421356237307422
10
-187.96250000000001
20
51.125000000000036
10
-187.96250000000001
20
54.625000000000028
42
0.41421356237313145
10
-188.46250000000001
20
55.125000000000036
10
-203.0625
20
55.125000000000028
42
0.4142135623730222
10
-203.5625
20
54.625000000000028
10
-203.5625
20
51.125000000000036
42
0.41421356237312101
10
-203.0625
20
50.625000000000036
10
-202.76250000000002
20
50.625000000000036
10
-202.76250000000002
20
45.625000000000036
10
-203.0625
20
45.625000000000036
42
0.41421356237312623
0
LWPOLYLINE
5
143
100
AcDbEntity
8
0
100
AcDbPolyline
90
20
70
1
43
0.0
10
-213.08750000000001
20
26.075000000000035
10
-213.08750000000001
20
22.575000000000031
42
0.41421356237309503
10
-212.58750000000003
20
22.075000000000031
10
-197.98750000000001
20
22.075000000000031
42
0.41421356237307944
10
-197.48750000000001
20
22.575000000000035
10
-197.48750000000001
20
26.075000000000035
42
0.41421356237313145
10
-197.98750000000001
20
26.575000000000042
10
-198.28749999999999
20
26.575000000000031
10
-198.28749999999999
20
31.575000000000031
10
-197.98750000000001
20
31.575000000000031
42
0.41421356237307422
10
-197.48750000000001
20
32.075000000000031
10
-197.48750000000001
20
35.575000000000031
42
0.41421356237313406
10
-197.98750000000001
20
36.075000000000031
10
-212.58749999999998
20
36.075000000000031
42
0.41421356237312362
10
-213.08750000000001
20
35.575000000000031
10
-213.08750000000001
20
32.075000000000031
42
0.41421356237312101
10
-212.58749999999998
20
31.575000000000031
10
-212.28750000000002
20
31.575000000000031
10
-212.28750000000002
20
26.575000000000031
10
-212.58749999999998
20
26.575000000000031
42
0.4142135623730222
0
LWPOLYLINE
5
144
100
AcDbEntity
8
0
100
AcDbPolyline
90
20
70
1
43
0.0
10
-136.88750000000002
20
26.075000000000035
10
-136.88749999999999
20
22.575000000000031
42
0.41421356237310025
10
-136.38749999999999
20
22.075000000000031
10
-121.78749999999999
20
22.075000000000031
42
0.41421356237308982
10
-121.28749999999999
20
22.575000000000035
10
-121.28749999999999
20
26.075000000000035
42
0.41421356237308721
10
-121.78749999999999
20
26.575000000000042
10
-122.08750000000001
20
26.575000000000031
10
-122.08750000000001
20
31.575000000000031
10
-121.78749999999999
20
31.575000000000031
42
0.41421356237307683
10
-121.28749999999999
20
32.075000000000031
10
-121.28749999999999
20
35.575000000000031
42
0.41421356237310802
10
-121.78750000000001
20
36.075000000000031
10
-136.38749999999999
20
36.075000000000031
42
0.41421356237307683
10
-136.88749999999999
20
35.575000000000031
10
-136.88750000000002
20
32.075000000000031
42
0.41421356237307161
10
-136.38749999999999
20
31.575000000000031
10
-136.08750000000001
20
31.575000000000031
10
-136.08750000000001
20
26.575000000000031
10
-136.38749999999999
20
26.575000000000031
42
0.41421356237307161
0
LWPOLYLINE
5
145
100
AcDbEntity
8
0
100
AcDbPolyline
90
20
70
1
43
0.0
10
-60.6875
20
26.075000000000035
10
-60.6875
20
22.575000000000031
42
0.41421356237309503
10
-60.1875
20
22.075000000000031
10
-45.587499999999999
20
22.075000000000031
42
0.41421356237310281
10
-45.087499999999999
20
22.575000000000035
10
-45.087499999999999
20
26.075000000000035
42
0.41421356237309764
10
-45.587499999999999
20
26.575000000000031
10
-45.887500000000003
20
26.575000000000031
10
-45.887500000000003
20
31.575000000000031
10
-45.587499999999999
20
31.575000000000031
42
0.41421356237308721
10
-45.087499999999999
20
32.075000000000031
10
-45.087499999999999
20
35.575000000000031
42
0.41421356237309243
10
-45.587499999999999
20
36.075000000000024
10
-60.1875
20
36.075000000000031
42
0.41421356237308721
10
-60.6875
20
35.575000000000031
10
-60.6875
20
32.075000000000031
42
0.41421356237309503
10
-60.1875
20
31.575000000000031
10
-59.887499999999996
20
31.575000000000031
10
-59.887499999999996
20
26.575000000000031
10
-60.1875
20
26.575000000000031
42
0.41421356237309503
0
LWPOLYLINE
5
146
100
AcDbEntity
8
0
100
AcDbPolyline
90
20
70
1
43
0.0
10
-36.875
20
7.0250000000000279
10
-36.875
20
3.5250000000000266
42
0.41421356237309243
10
-36.375
20
3.0250000000000266
10
-21.774999999999999
20
3.0250000000000266
42
0.4142135623730957
10
-21.274999999999999
20
3.5250000000000274
10
-21.274999999999999
20
7.0250000000000279
42
0.41421356237309243
10
-21.774999999999999
20
7.5250000000000306
10
-22.074999999999999
20
7.5250000000000288
10
-22.074999999999999
20
12.525000000000029
10
-21.774999999999999
20
12.525000000000029
42
0.41421356237309503
10
-21.274999999999999
20
13.025000000000029
10
-21.274999999999999
20
16.525000000000027
42
0.4142135623730937
10
-21.775000000000002
20
17.025000000000027
10
-36.375
20
17.025000000000027
42
0.41421356237308721
10
-36.875
20
16.525000000000027
10
-36.875
20
13.025000000000029
42
0.41421356237309503
10
-36.375
20
12.525000000000029
10
-36.075000000000003
20
12.525000000000029
10
-36.075000000000003
20
7.5250000000000288
10
-36.375
20
7.5250000000000288
42
0.41421356237309503
0
LWPOLYLINE
5
147
100
AcDbEntity
8
0
100
AcDbPolyline
90
20
70
1
43
0.0
10
-113.07500000000002
20
7.0250000000000279
10
-113.07500000000002
20
3.5250000000000266
42
0.41421356237309404
10
-112.575
20
3.0250000000000266
10
-97.974999999999994
20
3.0250000000000266
42
0.41421356237310542
10
-97.474999999999994
20
3.5250000000000274
10
-97.475000000000009
20
7.0250000000000279
42
0.41421356237311519
10
-97.974999999999994
20
7.5250000000000172
10
-98.275000000000006
20
7.5250000000000288
10
-98.275000000000006
20
12.525000000000029
10
-97.974999999999994
20
12.525000000000029
42
0.41421356237305862
10
-97.475000000000009
20
13.025000000000029
10
-97.475000000000009
20
16.525000000000027
42
0.41421356237307294
10
-97.975000000000009
20
17.025000000000034
10
-112.575
20
17.025000000000027
42
0.41421356237309503
10
-113.07500000000002
20
16.525000000000027
10
-113.07500000000002
20
13.025000000000029
42
0.4142135623730937
10
-112.575
20
12.525000000000029
10
-112.27500000000001
20
12.525000000000029
10
-112.27500000000001
20
7.5250000000000288
10
-112.575
20
7.5250000000000288
42
0.4142135623730937
0
LWPOLYLINE
5
148
100
AcDbEntity
8
0
100
AcDbPolyline
90
20
70
1
43
0.0
10
-189.27499999999998
20
7.0250000000000279
10
-189.27499999999998
20
3.5250000000000266
42
0.41421356237309437
10
-188.77500000000001
20
3.0250000000000266
10
-174.17500000000001
20
3.0250000000000266
42
0.41421356237307716
10
-173.67500000000001
20
3.5250000000000274
10
-173.67500000000001
20
7.0250000000000279
42
0.41421356237313273
10
-174.17500000000001
20
7.525000000000035
10
-174.47499999999997
20
7.5250000000000288
10
-174.47499999999997
20
12.525000000000029
10
-174.17500000000001
20
12.525000000000029
42
0.41421356237313145
10
-173.67500000000001
20
13.025000000000029
10
-173.67500000000001
20
16.525000000000027
42
0.41421356237313273
10
-174.17500000000001
20
17.025000000000034
10
-188.77499999999998
20
17.025000000000027
42
0.41421356237312235
10
-189.27499999999998
20
16.525000000000027
10
-189.27499999999998
20
13.025000000000029
42
0.41421356237312235
10
-188.77499999999998
20
12.525000000000029
10
-188.47499999999999
20
12.525000000000029
10
-188.47499999999999
20
7.5250000000000288
10
-188.77499999999998
20
7.5250000000000288
42
0.41421356237312168
0
CIRCLE
5
149
100
AcDbEntity
8
0
100
AcDbCircle
10
-191
20
8.7750000000000288
30
0
40
0.74999999999999289
210
0
220
-0
230
1
0
CIRCLE
5
150
100
AcDbEntity
8
0
100
AcDbCircle
10
-114.80000000000001
20
8.7750000000000288
30
0
40
0.74999999999999289
210
0
220
-0
230
1
0
CIRCLE
5
151
100
AcDbEntity
8
0
100
AcDbCircle
10
-38.600000000000001
20
8.7750000000000288
30
0
40
0.75000000000000178
210
0
220
-0
230
1
0
CIRCLE
5
152
100
AcDbEntity
8
0
100
AcDbCircle
10
-57.650000000000006
20
8.7750000000000288
30
0
40
0.75000000000000178
210
0
220
-0
230
1
0
CIRCLE
5
153
100
AcDbEntity
8
0
100
AcDbCircle
10
-133.84999999999999
20
8.7750000000000288
30
0
40
0.74999999999999289
210
0
220
-0
230
1
0
CIRCLE
5
154
100
AcDbEntity
8
0
100
AcDbCircle
10
-171.94999999999999
20
8.7750000000000288
30
0
40
0.74999999999999289
210
0
220
-0
230
1
0
CIRCLE
5
155
100
AcDbEntity
8
0
100
AcDbCircle
10
-95.750000000000014
20
8.7750000000000288
30
0
40
0.74999999999999289
210
0
220
-0
230
1
0
CIRCLE
5
156
100
AcDbEntity
8
0
100
AcDbCircle
10
-19.550000000000001
20
8.7750000000000288
30
0
40
0.74999999999999956
210
0
220
-0
230
1
0
CIRCLE
5
157
100
AcDbEntity
8
0
100
AcDbCircle
10
-76.700000000000003
20
8.7750000000000288
30
0
40
0.75000000000000178
210
0
220
-0
230
1
0
CIRCLE
5
158
100
AcDbEntity
8
0
100
AcDbCircle
10
-152.90000000000001
20
8.7750000000000288
30
0
40
0.74999999999999289
210
0
220
-0
230
1
0
LWPOLYLINE
5
159
100
AcDbEntity
8
0
100
AcDbPolyline
90
20
70
1
43
0.0
10
-2.7250000000000019
20
74.175000000000026
10
-19.706249999999997
20
74.175000000000026
42
0.41421356237309892
10
-20.206249999999997
20
73.675000000000026
10
-20.206249999999997
20
70.175000000000026
42
0.41421356237308593
10
-19.706249999999997
20
69.675000000000026
10
-19.40625
20
69.675000000000026
10
-19.40625
20
64.675000000000026
10
-19.706249999999997
20
64.675000000000026
42
0.41421356237311197
10
-20.206250000000004
20
64.175000000000026
10
-20.206249999999997
20
60.675000000000026
42
0.41421356237309764
10
-19.706250000000001
20
60.175000000000026
10
-2.7249999999999992
20
60.175000000000026
42
0.41421356237309664
10
-2.225000000000001
20
60.675000000000026
10
-2.2249999999999992
20
64.175000000000026
42
0.41421356237309664
10
-2.7249999999999992
20
64.675000000000026
10
-3.0249999999999995
20
64.675000000000026
10
-3.0249999999999995
20
69.675000000000026
10
-2.7249999999999992
20
69.675000000000026
42
0.41421356237309404
10
-2.2249999999999974
20
70.175000000000026
10
-2.2249999999999992
20
73.675000000000026
42
0.41421356237308887
0
LWPOLYLINE
5
160
100
AcDbEntity
8
0
100
AcDbPolyline
90
23
70
1
43
0.0
10
-74.974999999999994
20
73.205000000000013
42
-0.41421356237309503
10
-75.474999999999994
20
72.705000000000013
10
-80.081250000000011
20
72.705000000000013
10
-80.081250000000011
20
60.405000000000015
10
-78.856250000000017
20
60.405000000000015
42
-0.41421356237309503
10
-78.356250000000017
20
59.905000000000015
10
-78.356250000000017
20
59.705000000000013
42
0.41421356237309503
10
-77.856250000000017
20
59.205000000000013
10
-75.55625000000002
20
59.205000000000013
42
0.40545250413815953
10
-75.056475050647805
20
59.690000000000019
42
-0.40545250413815931
10
-74.556700101295604
20
60.175000000000026
10
-21.774999999999999
20
60.175000000000026
42
0.41421356237309764
10
-21.274999999999999
20
60.675000000000026
10
-21.274999999999999
20
64.175000000000026
42
0.41421356237308721
10
-21.774999999999999
20
64.675000000000026
10
-22.074999999999999
20
64.675000000000026
10
-22.074999999999999
20
69.675000000000026
10
-21.774999999999999
20
69.675000000000026
42
0.41421356237308982
10
-21.274999999999999
20
70.175000000000026
10
-21.274999999999999
20
73.675000000000026
42
0.41421356237308721
10
-21.775000000000002
20
74.175000000000026
10
-74.474999999999994
20
74.175000000000026
42
0.41421356237309503
10
-74.974999999999994
20
73.675000000000026
0
ENDSEC
0
SECTION
2
OBJECTS
0
DICTIONARY
5
C
100
AcDbDictionary
3
ACAD_GROUP
350
D
3
ACAD_MLINESTYLE
350
17
0
DICTIONARY
5
D
100
AcDbDictionary
0
DICTIONARY
5
1A
330
C
100
AcDbDictionary
0
DICTIONARY
5
17
100
AcDbDictionary
0
ENDSEC
0
EOF
