0
SECTION
2
HEADER
9
$INSUNITS
70
4
9
$ACADVER
1
AC1014
9
$HANDSEED
5
FFFF
0
ENDSEC
0
SECTION
2
TABLES
0
TABLE
2
VPORT
5
8
100
AcDbSymbolTable
0
ENDTAB
0
TABLE
2
LTYPE
5
5
100
AcDbSymbolTable
0
LTYPE
5
14
100
AcDbSymbolTableRecord
100
AcDbLinetypeTableRecord
2
BYBLOCK
70
0
0
LTYPE
5
15
100
AcDbSymbolTableRecord
100
AcDbLinetypeTableRecord
2
BYLAYER
70
0
0
ENDTAB
0
TABLE
2
LAYER
5
2
100
AcDbSymbolTable
70
2
0
LAYER
5
50
100
AcDbSymbolTableRecord
100
AcDbLayerTableRecord
2
0
70
0
6
CONTINUOUS
0
ENDTAB
0
TABLE
2
STYLE
5
3
100
AcDbSymbolTable
70
1
0
STYLE
5
11
100
AcDbSymbolTableRecord
100
AcDbTextStyleTableRecord
2
STANDARD
70
0
0
ENDTAB
0
TABLE
2
VIEW
5
6
100
AcDbSymbolTable
70
0
0
ENDTAB
0
TABLE
2
UCS
5
7
100
AcDbSymbolTable
70
0
0
ENDTAB
0
TABLE
2
APPID
5
9
100
AcDbSymbolTable
70
2
0
APPID
5
12
100
AcDbSymbolTableRecord
100
AcDbRegAppTableRecord
2
ACAD
70
0
0
ENDTAB
0
TABLE
2
DIMSTYLE
5
A
100
AcDbSymbolTable
70
1
0
ENDTAB
0
TABLE
2
BLOCK_RECORD
5
1
100
AcDbSymbolTable
70
1
0
BLOCK_RECORD
5
1F
100
AcDbSymbolTableRecord
100
AcDbBlockTableRecord
2
*MODEL_SPACE
0
BLOCK_RECORD
5
1B
100
AcDbSymbolTableRecord
100
AcDbBlockTableRecord
2
*PAPER_SPACE
0
ENDTAB
0
ENDSEC
0
SECTION
2
BLOCKS
0
BLOCK
5
20
100
AcDbEntity
100
AcDbBlockBegin
2
*MODEL_SPACE
0
ENDBLK
5
21
100
AcDbEntity
100
AcDbBlockEnd
0
BLOCK
5
1C
100
AcDbEntity
100
AcDbBlockBegin
2
*PAPER_SPACE
0
ENDBLK
5
1D
100
AcDbEntity
100
AcDbBlockEnd
0
ENDSEC
0
SECTION
2
ENTITIES
0
LWPOLYLINE
5
100
100
AcDbEntity
8
0
100
AcDbPolyline
90
8
70
1
43
0.0
10
73.174849999999978
20
80.556248400000001
10
58.974849999999996
20
80.556248400000001
42
0.41421356237309503
10
58.474849999999996
20
80.056248400000015
10
58.474849999999996
20
72.856248400000013
42
0.41421356237309503
10
58.974849999999996
20
72.356248400000013
10
73.174849999999978
20
72.356248400000013
42
0.41421356237307422
10
73.674849999999992
20
72.856248399999998
10
73.674849999999992
20
80.05624840000003
42
0.41421356237307944
0
LWPOLYLINE
5
101
100
AcDbEntity
8
0
100
AcDbPolyline
90
12
70
1
43
0.0
10
63.049901000000077
20
180.55624840000004
10
58.974849999999996
20
180.55624840000002
42
0.41421356237309503
10
58.474849999999996
20
180.05624840000002
10
58.474849999999996
20
172.85624840000003
42
0.41421356237309503
10
58.974849999999996
20
172.35624840000003
10
73.174849999999978
20
172.35624840000008
42
0.41421356237300139
10
73.674850000000006
20
172.85624840000003
10
73.674849999999978
20
180.05624840000007
42
0.41421356237311063
10
73.174849999999978
20
180.55624840000004
10
68.049901000000062
20
180.55624840000004
10
68.049901000000048
20
182.58729340000005
42
0.99999999999999989
10
63.049901000000048
20
182.58729340000005
0
LWPOLYLINE
5
102
100
AcDbEntity
8
0
100
AcDbPolyline
90
8
70
1
43
0.0
10
40.624500000000047
20
221.86329369561352
10
40.624500000000047
20
207.26229340000006
42
0.41421356237313145
10
41.12450000000004
20
206.76229340000006
10
54.125300000000045
20
206.76229340000006
42
0.41421356237313145
10
54.625300000000045
20
207.26229340000006
10
54.625300000000045
20
221.86329369561352
42
0.41421356237313145
10
54.125300000000045
20
222.36329369561355
10
41.12450000000004
20
222.36329369561355
42
0.41421356237313145
0
LWPOLYLINE
5
103
100
AcDbEntity
8
0
100
AcDbPolyline
90
24
70
1
43
0.0
10
16.76987731145989
20
108.87520267518398
10
16.525200000000027
20
108.87520267518398
10
16.525200000000023
20
112.32430680122076
42
0.41421356237308854
10
16.025200000000027
20
112.82430680122076
10
3.0245000000000277
20
112.82430680122076
42
0.41421356237308982
10
2.5245000000000295
20
112.32430680122076
10
2.5245000000000295
20
97.725189632031331
42
0.41421356237308982
10
3.0245000000000277
20
97.225189632031316
10
16.025200000000027
20
97.225189632031316
42
0.41421356237308854
10
16.525200000000023
20
97.725189632031331
10
16.525200000000027
20
106.82479732481598
10
16.769877311459894
20
106.82479732481598
42
0.64680612680549909
10
21.330122688540193
20
106.82479732481598
10
21.57450000000004
20
106.82479732481598
10
21.574500000000036
20
102.48629343799094
42
0.41421356237305601
10
22.074500000000047
20
101.98629343799092
10
35.075200000000038
20
101.98629343799092
42
0.41421356237305862
10
35.575200000000038
20
102.48629343799092
10
35.575200000000038
20
117.0872932390505
42
0.41421356237308982
10
35.075200000000038
20
117.58729323905051
10
22.074500000000047
20
117.58729323905051
42
0.41421356237308721
10
21.57450000000005
20
117.0872932390505
10
21.574500000000043
20
108.87520267518398
10
21.3301226885402
20
108.87520267518398
42
0.64680612680549954
0
LWPOLYLINE
5
104
100
AcDbEntity
8
0
100
AcDbPolyline
90
8
70
1
43
0.0
10
41.124500000000062
20
187.71228876533212
10
54.125300000000038
20
187.71228876533212
42
0.41421356237312101
10
54.625300000000017
20
188.21228876533212
10
54.625300000000038
20
202.81331165351563
42
0.41421356237313145
10
54.125300000000038
20
203.31331165351565
10
41.124500000000062
20
203.31331165351565
42
0.41421356237313145
10
40.624500000000062
20
202.81331165351563
10
40.624500000000083
20
188.21228876533212
42
0.41421356237312101
0
LWPOLYLINE
5
105
100
AcDbEntity
8
0
100
AcDbPolyline
90
12
70
1
43
0.0
10
40.624500000000012
20
139.51163654738656
10
40.357015671033281
20
139.51163654738656
42
4.0082114682650749
10
40.357015671033281
20
137.16295025261348
10
40.624500000000012
20
137.16295025261348
10
40.624500000000019
20
131.06129340000001
42
0.41421356237310542
10
41.124500000000012
20
130.56129340000001
10
54.125300000000038
20
130.56129340000001
42
0.41421356237310542
10
54.625300000000024
20
131.06129340000001
10
54.625300000000038
20
145.66228705006051
42
0.41421356237307422
10
54.125300000000038
20
146.16228705006051
10
41.124500000000012
20
146.16228705006054
42
0.41420984266953309
10
40.624500000040328
20
145.66229340000001
0
LWPOLYLINE
5
106
100
AcDbEntity
8
0
100
AcDbPolyline
90
8
70
1
43
0.0
10
54.625300000000038
20
226.31229340000002
10
54.625300000000038
20
240.91329809446432
42
0.41421356237313145
10
54.125300000000038
20
241.41329809446432
10
41.124500000000062
20
241.41329809446432
42
0.41421356237313145
10
40.624500000000062
20
240.91329809446432
10
40.624500000000062
20
226.31229340000002
42
0.41421356237313145
10
41.124500000000062
20
225.81229339999999
10
54.125300000000038
20
225.81229339999999
42
0.41421356237313145
0
LWPOLYLINE
5
107
100
AcDbEntity
8
0
100
AcDbPolyline
90
8
70
1
43
0.0
10
35.075200000000038
20
155.68828113593753
10
22.07450000000005
20
155.68828113593753
42
0.41421356237308982
10
21.57450000000005
20
155.18828113593753
10
21.574500000009024
20
140.58729340000002
42
0.41421180810394859
10
22.074500000000047
20
140.08729639472662
10
35.075200000000038
20
140.08729639472662
42
0.41421180810394076
10
35.575199999991071
20
140.58729340000002
10
35.575200000000038
20
155.18828113593753
42
0.41421356237308982
0
LWPOLYLINE
5
108
100
AcDbEntity
8
0
100
AcDbPolyline
90
8
70
1
43
0.0
10
35.575200000000038
20
121.53729373691625
10
35.575200000000038
20
136.13829340000001
42
0.41421356237308982
10
35.075200000000038
20
136.63829340000004
10
22.074500000000047
20
136.63829340000004
42
0.41421356237308721
10
21.57450000000005
20
136.13829340000001
10
21.57450000000005
20
121.53729373691625
42
0.41421356237308982
10
22.07450000000005
20
121.03729373691624
10
35.075200000000038
20
121.03729373691624
42
0.41421356237308982
0
LWPOLYLINE
5
109
100
AcDbEntity
8
0
100
AcDbPolyline
90
8
70
1
43
0.0
10
35.075200000000073
20
212.83827961005866
10
22.07450000000005
20
212.83827961005866
42
0.41421356237309764
10
21.57450000000004
20
212.33827961005863
10
21.574500000002217
20
197.73729340000003
42
0.41421270194232829
10
22.074500000000047
20
197.2372948688477
10
35.075200000000073
20
197.2372948688477
42
0.41421270194233345
10
35.575199999997913
20
197.73729340000003
10
35.575200000000073
20
212.33827961005863
42
0.41421356237309764
0
LWPOLYLINE
5
110
100
AcDbEntity
8
0
100
AcDbPolyline
90
8
70
1
43
0.0
10
73.199901000000054
20
243.3872934
42
-0.41421356237309681
10
76.19990100000004
20
240.38729339999998
10
76.199901000000025
20
3.0000000000000036
42
-0.41421356237309748
10
73.199901000000025
20
0
10
3.0000000000000075
20
-3.8857805861880479e-15
42
-0.41421356237309576
10
0
20
3.0000000000000071
10
7.8825834748386114e-14
20
240.3872934
42
-0.41421356237309431
10
3.0000000000000782
20
243.3872934
0
LINE
5
111
100
AcDbEntity
8
0
100
AcDbLine
10
40.624500000000026
20
112.01129340000001
30
0
11
40.624500000000019
21
126.61229340000003
31
-2.2204460492503131e-15
0
ARC
5
112
100
AcDbEntity
8
0
100
AcDbCircle
10
41.124500000000026
20
126.61229340000003
30
-2.2204460492503131e-15
40
0.50000000000000711
210
0
220
-0
230
1
100
AcDbArc
50
90
51
180
0
LINE
5
113
100
AcDbEntity
8
0
100
AcDbLine
10
41.124500000000026
20
127.11229340000003
30
-2.2204460492503131e-15
11
54.125300000000038
21
127.11229340000003
31
-2.2204460492503131e-15
0
ARC
5
114
100
AcDbEntity
8
0
100
AcDbCircle
10
54.125300000000038
20
126.61229340000003
30
-2.2204460492503131e-15
40
0.49999999999999822
210
0
220
0
230
1
100
AcDbArc
50
0
51
90
0
LINE
5
115
100
AcDbEntity
8
0
100
AcDbLine
10
54.625300000000038
20
126.61229340000003
30
-2.2204460492503131e-15
11
54.625300000000045
21
112.01129340000001
31
0
0
ARC
5
116
100
AcDbEntity
8
0
100
AcDbCircle
10
54.125300000000038
20
112.01129340000001
30
0
40
0.50000442104492393
210
0
220
0
230
1
100
AcDbArc
50
-90
51
0
0
LINE
5
117
100
AcDbEntity
8
0
100
AcDbLine
10
54.125300000000038
20
111.51128897895509
30
0
11
41.124500000000026
21
111.51128897895506
31
0
0
ARC
5
118
100
AcDbEntity
8
0
100
AcDbCircle
10
41.124500000000026
20
112.01129340000001
30
0
40
0.49999999999999822
210
0
220
0
230
1
100
AcDbArc
50
180
51
270
0
LINE
5
119
100
AcDbEntity
8
0
100
AcDbLine
10
2.5245000000000317
20
116.7752934
30
0
11
2.5245000000000317
21
131.3742934
31
0
0
ARC
5
120
100
AcDbEntity
8
0
100
AcDbCircle
10
3.0245000000000348
20
131.3742934
30
0
40
0.50000000000000711
210
0
220
0
230
1
100
AcDbArc
50
90.000000000000057
51
180
0
LINE
5
121
100
AcDbEntity
8
0
100
AcDbLine
10
3.0245000000000344
20
131.8742934
30
0
11
16.025200000000027
21
131.87429039802248
31
0
0
ARC
5
122
100
AcDbEntity
8
0
100
AcDbCircle
10
16.025200000000027
20
131.3742934
30
0
40
0.50000000000000044
210
0
220
0
230
1
100
AcDbArc
50
0
51
90
0
LINE
5
123
100
AcDbEntity
8
0
100
AcDbLine
10
16.52520000000003
20
131.3742934
30
0
11
16.525200000000027
21
116.7752934
31
-2.2204460492503131e-15
0
ARC
5
124
100
AcDbEntity
8
0
100
AcDbCircle
10
16.025200000000027
20
116.7752934
30
0
40
0.49999592189939435
210
0
220
-4.4409283196055661e-15
230
1
100
AcDbArc
50
-90
51
0
0
LINE
5
125
100
AcDbEntity
8
0
100
AcDbLine
10
16.025200000000027
20
116.2752974781006
30
-2.2204460492503131e-15
11
3.0245000000000322
21
116.27529747810058
31
-2.2204460492503131e-15
0
ARC
5
126
100
AcDbEntity
8
0
100
AcDbCircle
10
3.0245000000000322
20
116.7752934
30
0
40
0.50000000000000044
210
0
220
0
230
1
100
AcDbArc
50
180
51
270
0
LINE
5
127
100
AcDbEntity
8
0
100
AcDbLine
10
2.5245000000000317
20
135.82529340000002
30
-2.2204460492503131e-15
11
2.5245000000000317
21
150.42429340000001
31
0
0
ARC
5
128
100
AcDbEntity
8
0
100
AcDbCircle
10
3.0245000000000348
20
150.42429340000001
30
0
40
0.50000000000000711
210
0
220
0
230
1
100
AcDbArc
50
90.000000000000057
51
180
0
LINE
5
129
100
AcDbEntity
8
0
100
AcDbLine
10
3.0245000000000344
20
150.92429340000001
30
0
11
16.025200000000027
21
150.92429340000001
31
0
0
ARC
5
130
100
AcDbEntity
8
0
100
AcDbCircle
10
16.025200000000027
20
150.42429340000001
30
0
40
0.50000000000000044
210
0
220
0
230
1
100
AcDbArc
50
0
51
90
0
LINE
5
131
100
AcDbEntity
8
0
100
AcDbLine
10
16.52520000000003
20
150.42429340000001
30
0
11
16.525200000000027
21
135.82529340000002
31
-2.2204460492503131e-15
0
ARC
5
132
100
AcDbEntity
8
0
100
AcDbCircle
10
16.025200000000027
20
135.82529340000002
30
-2.2204460492503131e-15
40
0.50000278835449663
210
0
220
0
230
1
100
AcDbArc
50
-90
51
0
0
LINE
5
133
100
AcDbEntity
8
0
100
AcDbLine
10
16.025200000000027
20
135.32529061164553
30
-2.2204460492503131e-15
11
3.0245000000000322
21
135.3252906116455
31
-2.2204460492503131e-15
0
ARC
5
134
100
AcDbEntity
8
0
100
AcDbCircle
10
3.0245000000000322
20
135.82529340000002
30
-2.2204460492503131e-15
40
0.50000000000000044
210
0
220
0
230
1
100
AcDbArc
50
180
51
270
0
LINE
5
135
100
AcDbEntity
8
0
100
AcDbLine
10
40.624500000000026
20
150.11129340000005
30
0
11
40.624500000000019
21
164.71329340000005
31
0
0
ARC
5
136
100
AcDbEntity
8
0
100
AcDbCircle
10
41.124500000000026
20
164.71329340000005
30
0
40
0.50000000000000711
210
0
220
-0
230
1
100
AcDbArc
50
90
51
180
0
LINE
5
137
100
AcDbEntity
8
0
100
AcDbLine
10
41.124500000000026
20
165.21329340000005
30
0
11
54.125300000000038
21
165.21328995551761
31
-2.2204460492503131e-15
0
ARC
5
138
100
AcDbEntity
8
0
100
AcDbCircle
10
54.125300000000038
20
164.71329340000005
30
0
40
0.49999999999999822
210
0
220
0
230
1
100
AcDbArc
50
0
51
90
0
LINE
5
139
100
AcDbEntity
8
0
100
AcDbLine
10
54.625300000000038
20
164.71329340000005
30
0
11
54.625299080468785
21
150.11129340000005
31
0
0
ARC
5
140
100
AcDbEntity
8
0
100
AcDbCircle
10
54.125300000000038
20
150.11129340000005
30
0
40
0.49999908046874708
210
0
220
0
230
1
100
AcDbArc
50
-90
51
0
0
LINE
5
141
100
AcDbEntity
8
0
100
AcDbLine
10
54.125300000000038
20
149.61129431953131
30
0
11
41.124500000000026
21
149.61129340000008
31
0
0
ARC
5
142
100
AcDbEntity
8
0
100
AcDbCircle
10
41.124500000000026
20
150.11129340000005
30
0
40
0.49999999999999822
210
0
220
0
230
1
100
AcDbArc
50
180
51
270
0
LINE
5
143
100
AcDbEntity
8
0
100
AcDbLine
10
2.5245000000000317
20
154.87529340000003
30
0
11
2.5245000000000317
21
169.47429339999999
31
0
0
ARC
5
144
100
AcDbEntity
8
0
100
AcDbCircle
10
3.0245000000000348
20
169.47429339999999
30
0
40
0.50000000000000711
210
0
220
0
230
1
100
AcDbArc
50
90.000000000000057
51
180
0
LINE
5
145
100
AcDbEntity
8
0
100
AcDbLine
10
3.0245000000000344
20
169.97429339999999
30
0
11
16.025200000000027
21
169.97428620185556
31
0
0
ARC
5
146
100
AcDbEntity
8
0
100
AcDbCircle
10
16.025200000000027
20
169.47429339999999
30
0
40
0.50000000000000044
210
0
220
0
230
1
100
AcDbArc
50
0
51
90
0
LINE
5
147
100
AcDbEntity
8
0
100
AcDbLine
10
16.52520000000003
20
169.47429339999999
30
0
11
16.525200118066429
21
154.87529340000003
31
0
0
ARC
5
148
100
AcDbEntity
8
0
100
AcDbCircle
10
16.025200000000027
20
154.87529340000003
30
0
40
0.50000011806639932
210
0
220
0
230
1
100
AcDbArc
50
-90
51
0
0
LINE
5
149
100
AcDbEntity
8
0
100
AcDbLine
10
16.025200000000027
20
154.37529328193364
30
0
11
3.0245000000000299
21
154.37529340000003
31
0
0
ARC
5
150
100
AcDbEntity
8
0
100
AcDbCircle
10
3.0245000000000322
20
154.87529340000003
30
0
40
0.50000000000000044
210
0
220
0
230
1
100
AcDbArc
50
180
51
269.99999999999972
0
LINE
5
151
100
AcDbEntity
8
0
100
AcDbLine
10
21.574500000000043
20
159.6372934
30
0
11
21.574500000000043
21
174.23829340000003
31
0
0
ARC
5
152
100
AcDbEntity
8
0
100
AcDbCircle
10
22.074500000000047
20
174.23829340000003
30
0
40
0.50000000000000711
210
0
220
-0
230
1
100
AcDbArc
50
90
51
180
0
LINE
5
153
100
AcDbEntity
8
0
100
AcDbLine
10
22.074500000000047
20
174.73829340000006
30
0
11
35.075200000000038
21
174.73829340000006
31
0
0
ARC
5
154
100
AcDbEntity
8
0
100
AcDbCircle
10
35.075200000000038
20
174.23829340000003
30
0
40
0.49999999999999822
210
0
220
0
230
1
100
AcDbArc
50
0
51
90
0
LINE
5
155
100
AcDbEntity
8
0
100
AcDbLine
10
35.575200000000038
20
174.23829340000003
30
0
11
35.575200000000038
21
159.6372934
31
0
0
ARC
5
156
100
AcDbEntity
8
0
100
AcDbCircle
10
35.075200000000038
20
159.6372934
30
0
40
0.50000387172850935
210
0
220
0
230
1
100
AcDbArc
50
-90
51
0
0
LINE
5
157
100
AcDbEntity
8
0
100
AcDbLine
10
35.075200000000038
20
159.13728952827148
30
0
11
22.074500000000047
21
159.13728952827145
31
0
0
ARC
5
158
100
AcDbEntity
8
0
100
AcDbCircle
10
22.074500000000047
20
159.6372934
30
0
40
0.50000000000000266
210
0
220
0
230
1
100
AcDbArc
50
180
51
270
0
LINE
5
159
100
AcDbEntity
8
0
100
AcDbLine
10
40.624500000000062
20
169.16129340000003
30
0
11
40.624500000000054
21
183.76329340000009
31
0
0
ARC
5
160
100
AcDbEntity
8
0
100
AcDbCircle
10
41.124500000000062
20
183.76329340000009
30
0
40
0.50000000000000711
210
0
220
-0
230
1
100
AcDbArc
50
90
51
180
0
LINE
5
161
100
AcDbEntity
8
0
100
AcDbLine
10
41.124500000000062
20
184.26329340000009
30
0
11
54.125300000000038
21
184.2632994464845
31
0
0
ARC
5
162
100
AcDbEntity
8
0
100
AcDbCircle
10
54.125300000000038
20
183.76329340000009
30
0
40
0.49999999999999822
210
0
220
0
230
1
100
AcDbArc
50
0
51
90
0
LINE
5
163
100
AcDbEntity
8
0
100
AcDbLine
10
54.625300000000038
20
183.76329340000009
30
0
11
54.625297768212917
21
169.16129340000003
31
0
0
ARC
5
164
100
AcDbEntity
8
0
100
AcDbCircle
10
54.125300000000038
20
169.16129340000003
30
0
40
0.49999776821287867
210
0
220
0
230
1
100
AcDbArc
50
-90
51
0
0
LINE
5
165
100
AcDbEntity
8
0
100
AcDbLine
10
54.125300000000038
20
168.66129563178717
30
0
11
41.124500000000062
21
168.66129563178714
31
0
0
ARC
5
166
100
AcDbEntity
8
0
100
AcDbCircle
10
41.124500000000062
20
169.16129340000003
30
0
40
0.49999999999999822
210
0
220
0
230
1
100
AcDbArc
50
180
51
270
0
LINE
5
167
100
AcDbEntity
8
0
100
AcDbLine
10
2.5245000000000317
20
173.92529340000007
30
0
11
2.5245000000000317
21
188.5242934
31
0
0
ARC
5
168
100
AcDbEntity
8
0
100
AcDbCircle
10
3.0245000000000348
20
188.5242934
30
0
40
0.50000000000000711
210
0
220
0
230
1
100
AcDbArc
50
90.000000000000057
51
180
0
LINE
5
169
100
AcDbEntity
8
0
100
AcDbLine
10
3.0245000000000344
20
189.0242934
30
0
11
16.025200000000048
21
189.02429840888684
31
0
0
ARC
5
170
100
AcDbEntity
8
0
100
AcDbCircle
10
16.025200000000048
20
188.5242934
30
0
40
0.50000000000000044
210
0
220
0
230
1
100
AcDbArc
50
0
51
90
0
LINE
5
171
100
AcDbEntity
8
0
100
AcDbLine
10
16.525200000000048
20
188.5242934
30
0
11
16.525200000000044
21
173.92529340000007
31
0
0
ARC
5
172
100
AcDbEntity
8
0
100
AcDbCircle
10
16.025200000000037
20
173.92529340000007
30
0
40
0.50000698452144832
210
0
220
0
230
1
100
AcDbArc
50
-90
51
0
0
LINE
5
173
100
AcDbEntity
8
0
100
AcDbLine
10
16.025200000000037
20
173.42528641547861
30
0
11
3.0245000000000322
21
173.42528641547858
31
0
0
ARC
5
174
100
AcDbEntity
8
0
100
AcDbCircle
10
3.0245000000000322
20
173.92529340000007
30
0
40
0.50000000000000044
210
0
220
0
230
1
100
AcDbArc
50
180
51
270
0
LINE
5
175
100
AcDbEntity
8
0
100
AcDbLine
10
21.574500000000043
20
178.68729340000004
30
0
11
21.574500000000043
21
193.28829340000004
31
0
0
ARC
5
176
100
AcDbEntity
8
0
100
AcDbCircle
10
22.074500000000047
20
193.28829340000004
30
0
40
0.50000000000000711
210
0
220
-0
230
1
100
AcDbArc
50
90
51
180
0
LINE
5
177
100
AcDbEntity
8
0
100
AcDbLine
10
22.074500000000047
20
193.78829340000007
30
0
11
35.075200000000038
21
193.78828647651375
31
0
0
ARC
5
178
100
AcDbEntity
8
0
100
AcDbCircle
10
35.075200000000038
20
193.28829340000004
30
0
40
0.49999999999999822
210
0
220
0
230
1
100
AcDbArc
50
0
51
90
0
LINE
5
179
100
AcDbEntity
8
0
100
AcDbLine
10
35.575200000000038
20
193.28829340000004
30
0
11
35.575200000000038
21
178.68729340000004
31
0
0
ARC
5
180
100
AcDbEntity
8
0
100
AcDbCircle
10
35.075200000000038
20
178.68729340000004
30
0
40
0.49999166469724798
210
0
220
0
230
1
100
AcDbArc
50
-90
51
0
0
LINE
5
181
100
AcDbEntity
8
0
100
AcDbLine
10
35.075200000000038
20
178.18730173530281
30
0
11
22.074500000000047
21
178.18730173530273
31
0
0
ARC
5
182
100
AcDbEntity
8
0
100
AcDbCircle
10
22.074500000000047
20
178.68729340000004
30
0
40
0.50000000000000266
210
0
220
0
230
1
100
AcDbArc
50
180
51
270
0
LINE
5
183
100
AcDbEntity
8
0
100
AcDbLine
10
2.5245000000000495
20
192.97529340000011
30
0
11
2.5245000000000495
21
207.57429340000002
31
0
0
ARC
5
184
100
AcDbEntity
8
0
100
AcDbCircle
10
3.0245000000000526
20
207.57429340000002
30
0
40
0.50000000000000711
210
0
220
0
230
1
100
AcDbArc
50
90.000000000000057
51
180
0
LINE
5
185
100
AcDbEntity
8
0
100
AcDbLine
10
3.0245000000000521
20
208.07429340000002
30
0
11
16.025200000000048
21
208.07430134257828
31
0
0
ARC
5
186
100
AcDbEntity
8
0
100
AcDbCircle
10
16.025200000000048
20
207.57429340000002
30
0
40
0.50000000000000044
210
0
220
0
230
1
100
AcDbArc
50
0
51
90
0
LINE
5
187
100
AcDbEntity
8
0
100
AcDbLine
10
16.525200000000048
20
207.57429340000002
30
0
11
16.525200000000044
21
192.97529340000011
31
0
0
ARC
5
188
100
AcDbEntity
8
0
100
AcDbCircle
10
16.025200000000037
20
192.97529340000011
30
0
40
0.49999477749018695
210
0
220
0
230
1
100
AcDbArc
50
-90
51
0
0
LINE
5
189
100
AcDbEntity
8
0
100
AcDbLine
10
16.025200000000037
20
192.47529862250991
30
0
11
3.0245000000000499
21
192.47529862250985
31
0
0
ARC
5
190
100
AcDbEntity
8
0
100
AcDbCircle
10
3.0245000000000499
20
192.97529340000011
30
0
40
0.50000000000000044
210
0
220
0
230
1
100
AcDbArc
50
180
51
270
0
LINE
5
191
100
AcDbEntity
8
0
100
AcDbLine
10
21.574500000000061
20
221.55029339999999
30
0
11
21.574500000000043
21
236.1492934
31
0
0
ARC
5
192
100
AcDbEntity
8
0
100
AcDbCircle
10
22.074500000000054
20
236.1492934
30
0
40
0.50000000000000711
210
0
220
-0
230
1
100
AcDbArc
50
90
51
180
0
LINE
5
193
100
AcDbEntity
8
0
100
AcDbLine
10
22.074500000000054
20
236.6492934
30
0
11
35.075200000000073
21
236.64929981669928
31
0
0
ARC
5
194
100
AcDbEntity
8
0
100
AcDbCircle
10
35.075200000000073
20
236.1492934
30
0
40
0.49999999999999822
210
0
220
0
230
1
100
AcDbArc
50
0
51
90
0
LINE
5
195
100
AcDbEntity
8
0
100
AcDbLine
10
35.575200000000073
20
236.1492934
30
0
11
35.575200000000073
21
221.55029339999999
31
0
0
ARC
5
196
100
AcDbEntity
8
0
100
AcDbCircle
10
35.075200000000073
20
221.55029339999999
30
0
40
0.49999554042965855
210
0
220
0
230
1
100
AcDbArc
50
-90
51
0
0
LINE
5
197
100
AcDbEntity
8
0
100
AcDbLine
10
35.075200000000073
20
221.05029785957032
30
0
11
22.074500000000054
21
221.05029785957041
31
0
0
ARC
5
198
100
AcDbEntity
8
0
100
AcDbCircle
10
22.074500000000054
20
221.55029339999999
30
0
40
0.49999999999999378
210
0
220
0
230
1
100
AcDbArc
50
180
51
270
0
LINE
5
199
100
AcDbEntity
8
0
100
AcDbLine
10
12.0245000000003
20
219.16929339999999
30
0
11
12.0245000000003
21
219.46929159758807
31
0
0
LINE
5
200
100
AcDbEntity
8
0
100
AcDbLine
10
12.0245000000003
20
219.46929159758807
30
0
11
7.0245000000002911
21
219.46929159758807
31
0
0
LINE
5
201
100
AcDbEntity
8
0
100
AcDbLine
10
7.0245000000002911
20
219.46929159758807
30
0
11
7.0245000000002999
21
219.16929339999999
31
0
0
ARC
5
202
100
AcDbEntity
8
0
100
AcDbCircle
10
6.5245000000002928
20
219.16929339999999
30
0
40
0.50000000000000711
210
0
220
0
230
1
100
AcDbArc
50
-90
51
0
0
LINE
5
203
100
AcDbEntity
8
0
100
AcDbLine
10
6.5245000000002928
20
218.66929339999999
30
0
11
3.0245000000000681
21
218.66928748359379
31
0
0
ARC
5
204
100
AcDbEntity
8
0
100
AcDbCircle
10
3.0245000000000681
20
219.16929339999999
30
0
40
0.49999999999999989
210
0
220
0
230
1
100
AcDbArc
50
180
51
270
0
LINE
5
205
100
AcDbEntity
8
0
100
AcDbLine
10
2.5245000000000681
20
219.16929339999999
30
0
11
2.5245000000000672
21
233.7682934
31
0
0
ARC
5
206
100
AcDbEntity
8
0
100
AcDbCircle
10
3.0245000000000704
20
233.7682934
30
0
40
0.50000000000000711
210
0
220
0
230
1
100
AcDbArc
50
90.000000000000057
51
180
0
LINE
5
207
100
AcDbEntity
8
0
100
AcDbLine
10
3.0245000000000699
20
234.2682934
30
0
11
6.5245000000002928
21
234.2682934
31
0
0
ARC
5
208
100
AcDbEntity
8
0
100
AcDbCircle
10
6.5245000000002928
20
233.7682934
30
0
40
0.50000000000000044
210
0
220
0
230
1
100
AcDbArc
50
0
51
90
0
LINE
5
209
100
AcDbEntity
8
0
100
AcDbLine
10
7.0245000000002928
20
233.7682934
30
0
11
7.0245000000002911
21
233.4682927533552
31
0
0
LINE
5
210
100
AcDbEntity
8
0
100
AcDbLine
10
7.0245000000002911
20
233.4682927533552
30
0
11
12.024500000000291
21
233.4682927533552
31
0
0
LINE
5
211
100
AcDbEntity
8
0
100
AcDbLine
10
12.024500000000291
20
233.4682927533552
30
0
11
12.024500000000291
21
233.7682934
31
0
0
ARC
5
212
100
AcDbEntity
8
0
100
AcDbCircle
10
12.524500000000298
20
233.7682934
30
0
40
0.50000000000000711
210
0
220
-0
230
1
100
AcDbArc
50
90
51
180
0
LINE
5
213
100
AcDbEntity
8
0
100
AcDbLine
10
12.524500000000298
20
234.2682934
30
0
11
16.025200000000062
21
234.26829129829102
31
0
0
ARC
5
214
100
AcDbEntity
8
0
100
AcDbCircle
10
16.025200000000062
20
233.7682934
30
0
40
0.50000000000000044
210
0
220
0
230
1
100
AcDbArc
50
0
51
90
0
LINE
5
215
100
AcDbEntity
8
0
100
AcDbLine
10
16.525200000000066
20
233.7682934
30
0
11
16.525200000000062
21
219.16929339999999
31
0
0
ARC
5
216
100
AcDbEntity
8
0
100
AcDbCircle
10
16.025200000000059
20
219.16929339999999
30
0
40
0.50000591640625203
210
0
220
0
230
1
100
AcDbArc
50
-90
51
0
0
LINE
5
217
100
AcDbEntity
8
0
100
AcDbLine
10
16.025200000000059
20
218.66928748359373
30
0
11
12.524500000000298
21
218.66929339999999
31
0
0
ARC
5
218
100
AcDbEntity
8
0
100
AcDbCircle
10
12.524500000000298
20
219.16929339999999
30
0
40
0.49999999999999822
210
0
220
0
230
1
100
AcDbArc
50
180
51
270
0
LWPOLYLINE
5
219
100
AcDbEntity
8
0
100
AcDbPolyline
90
20
70
1
43
0.0
10
69.174849999999992
20
226.61249840000008
10
69.174849999999992
20
226.31249840000007
42
0.41421356237314705
10
69.674849999999992
20
225.81249840000004
10
73.174849999999978
20
225.81249840000004
42
0.41421356237309503
10
73.674849999999992
20
226.31249840000007
10
73.674849999999992
20
240.91249840000003
42
0.41421356237308982
10
73.174849999999978
20
241.41249839999998
10
69.674849999999992
20
241.41249840000003
42
0.41421356237312623
10
69.174850000000006
20
240.91249840000003
10
69.174850000000006
20
240.61249840000002
10
64.174850000000006
20
240.61249840000002
10
64.174850000000006
20
240.91249840000003
42
0.4142135623730846
10
63.674850000000013
20
241.41249839999998
10
60.174849999999999
20
241.4124984
42
0.41421356237304818
10
59.674849999999964
20
240.91249840000003
10
59.674849999999999
20
226.31249840000007
42
0.41421356237313667
10
60.174849999999999
20
225.81249840000004
10
63.674849999999992
20
225.81249840000001
42
0.414213562373069
10
64.174849999999992
20
226.31249840000007
10
64.174849999999992
20
226.61249840000008
0
LWPOLYLINE
5
220
100
AcDbEntity
8
0
100
AcDbPolyline
90
8
70
1
43
0.0
10
59.674849999999964
20
221.86249840000002
10
59.674849999999999
20
207.26249840000006
42
0.41421356237313667
10
60.174849999999999
20
206.76249840000003
10
73.174849999999978
20
206.76249840000003
42
0.41421356237309503
10
73.674849999999992
20
207.26249840000006
10
73.674849999999992
20
221.86249840000002
42
0.41421356237308982
10
73.174849999999978
20
222.36249839999996
10
60.174849999999999
20
222.36249839999999
42
0.41421356237304818
0
LWPOLYLINE
5
221
100
AcDbEntity
8
0
100
AcDbPolyline
90
8
70
1
43
0.0
10
73.674850000000006
20
119.1562484
10
73.674849999999992
20
133.7562484
42
0.41421356237310025
10
73.174849999999978
20
134.2562484
10
60.174849999999999
20
134.2562484
42
0.41421356237310542
10
59.674849999999978
20
133.7562484
10
59.674849999999999
20
119.1562484
42
0.41421356237308982
10
60.174849999999999
20
118.65624840000002
10
73.174849999999978
20
118.65624839999998
42
0.41421356237309503
0
LINE
5
222
100
AcDbEntity
8
0
100
AcDbLine
10
41.124500000000026
20
108.06229340000002
30
0
11
54.125300000000003
21
108.0622914813965
31
0
0
ARC
5
223
100
AcDbEntity
8
0
100
AcDbCircle
10
54.125300000000003
20
107.56229340000002
30
0
40
0.49999999999999822
210
0
220
0
230
1
100
AcDbArc
50
0
51
90
0
LINE
5
224
100
AcDbEntity
8
0
100
AcDbLine
10
54.625300000000003
20
107.56229340000002
30
0
11
54.62530000000001
21
92.961293400000002
31
0
0
ARC
5
225
100
AcDbEntity
8
0
100
AcDbCircle
10
54.125300000000003
20
92.961293400000002
30
0
40
0.49999728298340429
210
0
220
0
230
1
100
AcDbArc
50
-90
51
0
0
LINE
5
226
100
AcDbEntity
8
0
100
AcDbLine
10
54.125300000000003
20
92.461296117016602
30
0
11
41.124500000000026
21
92.461296117016602
31
0
0
ARC
5
227
100
AcDbEntity
8
0
100
AcDbCircle
10
41.124500000000026
20
92.961293400000002
30
0
40
0.49999999999999822
210
0
220
0
230
1
100
AcDbArc
50
180
51
270
0
LINE
5
228
100
AcDbEntity
8
0
100
AcDbLine
10
40.624500000000026
20
92.961293400000002
30
0
11
40.624500000000019
21
107.56229340000002
31
0
0
ARC
5
229
100
AcDbEntity
8
0
100
AcDbCircle
10
41.124500000000026
20
107.56229340000002
30
0
40
0.50000000000000711
210
0
220
-0
230
1
100
AcDbArc
50
90
51
180
0
LINE
5
230
100
AcDbEntity
8
0
100
AcDbLine
10
35.575200000000038
20
98.037193400000021
30
0
11
35.575200000000038
21
83.437693400000001
31
0
0
ARC
5
231
100
AcDbEntity
8
0
100
AcDbCircle
10
35.075200000000038
20
83.437693400000001
30
0
40
0.50000338649903497
210
0
220
0
230
1
100
AcDbArc
50
-90
51
0
0
LINE
5
232
100
AcDbEntity
8
0
100
AcDbLine
10
35.075200000000038
20
82.937690013500969
30
0
11
22.074500000000029
21
82.937690013500983
31
0
0
ARC
5
233
100
AcDbEntity
8
0
100
AcDbCircle
10
22.074500000000029
20
83.437693400000001
30
0
40
0.49999999999999822
210
0
220
0
230
1
100
AcDbArc
50
180
51
270
0
LINE
5
234
100
AcDbEntity
8
0
100
AcDbLine
10
21.574500000000029
20
83.437693400000001
30
0
11
21.574500000000025
21
98.037193400000021
31
0
0
ARC
5
235
100
AcDbEntity
8
0
100
AcDbCircle
10
22.074500000000029
20
98.037193400000021
30
0
40
0.50000000000000711
210
0
220
-0
230
1
100
AcDbArc
50
90
51
180
0
LINE
5
236
100
AcDbEntity
8
0
100
AcDbLine
10
22.074500000000029
20
98.537193400000035
30
0
11
35.075200000000038
21
98.537190010449237
31
0
0
ARC
5
237
100
AcDbEntity
8
0
100
AcDbCircle
10
35.075200000000038
20
98.037193400000021
30
0
40
0.49999999999999822
210
0
220
0
230
1
100
AcDbArc
50
0
51
90
0
LINE
5
238
100
AcDbEntity
8
0
100
AcDbLine
10
16.525200000000027
20
93.274693400000004
30
0
11
16.525200000000027
21
78.675193399999998
31
0
0
ARC
5
239
100
AcDbEntity
8
0
100
AcDbCircle
10
16.025200000000027
20
78.675193399999998
30
0
40
0.49999690151365961
210
0
220
0
230
1
100
AcDbArc
50
-90
51
0
0
LINE
5
240
100
AcDbEntity
8
0
100
AcDbLine
10
16.025200000000027
20
78.175196498486343
30
0
11
3.0245000000000322
21
78.175196498486343
31
0
0
ARC
5
241
100
AcDbEntity
8
0
100
AcDbCircle
10
3.0245000000000322
20
78.675193399999998
30
0
40
0.49999999999999989
210
0
220
0
230
1
100
AcDbArc
50
180
51
270
0
LINE
5
242
100
AcDbEntity
8
0
100
AcDbLine
10
2.5245000000000322
20
78.675193399999998
30
0
11
2.5245000000000317
21
93.274693400000004
31
0
0
ARC
5
243
100
AcDbEntity
8
0
100
AcDbCircle
10
3.0245000000000348
20
93.274693400000004
30
0
40
0.50000000000000711
210
0
220
0
230
1
100
AcDbArc
50
90.000000000000057
51
180
0
LINE
5
244
100
AcDbEntity
8
0
100
AcDbLine
10
3.0245000000000344
20
93.774693400000018
30
0
11
16.025200000000027
21
93.774694594189498
31
0
0
ARC
5
245
100
AcDbEntity
8
0
100
AcDbCircle
10
16.025200000000027
20
93.274693400000004
30
0
40
0.49999999999999822
210
0
220
0
230
1
100
AcDbArc
50
0
51
90
0
LINE
5
246
100
AcDbEntity
8
0
100
AcDbLine
10
54.625300000000003
20
88.512193399999987
30
0
11
54.62530000000001
21
73.911293399999991
31
0
0
ARC
5
247
100
AcDbEntity
8
0
100
AcDbCircle
10
54.125300000000003
20
73.911293400000005
30
0
40
0.49999995327149271
210
0
220
0
230
1
100
AcDbArc
50
270
51
360
0
LINE
5
248
100
AcDbEntity
8
0
100
AcDbLine
10
54.125300000000003
20
73.411293446728521
30
0
11
41.124500000000026
21
73.411293446728507
31
0
0
ARC
5
249
100
AcDbEntity
8
0
100
AcDbCircle
10
41.124500000000026
20
73.911293400000005
30
0
40
0.49999999999999822
210
0
220
0
230
1
100
AcDbArc
50
180
51
270
0
LINE
5
250
100
AcDbEntity
8
0
100
AcDbLine
10
40.624500000000026
20
73.911293400000005
30
0
11
40.624500000000019
21
88.512193399999987
31
0
0
ARC
5
251
100
AcDbEntity
8
0
100
AcDbCircle
10
41.124500000000026
20
88.512193399999987
30
0
40
0.50000000000000711
210
0
220
-0
230
1
100
AcDbArc
50
90
51
180
0
LINE
5
252
100
AcDbEntity
8
0
100
AcDbLine
10
41.124500000000026
20
89.012193399999987
30
0
11
54.125300000000003
21
89.012193443676765
31
0
0
ARC
5
253
100
AcDbEntity
8
0
100
AcDbCircle
10
54.125300000000003
20
88.512193399999987
30
0
40
0.49999999999999822
210
0
220
0
230
1
100
AcDbArc
50
0
51
90
0
LINE
5
254
100
AcDbEntity
8
0
100
AcDbLine
10
35.575200000000038
20
78.987193399999995
30
0
11
35.575200000000038
21
64.387693400000003
31
0
0
ARC
5
255
100
AcDbEntity
8
0
100
AcDbCircle
10
35.075200000000038
20
64.387693400000003
30
0
40
0.49999842128904959
210
0
220
0
230
1
100
AcDbArc
50
-90
51
0
0
LINE
5
256
100
AcDbEntity
8
0
100
AcDbLine
10
35.075200000000038
20
63.887694978710954
30
0
11
22.074500000000032
21
63.887694978710954
31
0
0
ARC
5
257
100
AcDbEntity
8
0
100
AcDbCircle
10
22.074500000000029
20
64.387693400000003
30
0
40
0.49999999999999822
210
0
220
0
230
1
100
AcDbArc
50
180
51
270.0000000000004
0
LINE
5
258
100
AcDbEntity
8
0
100
AcDbLine
10
21.574500000000029
20
64.387693400000003
30
0
11
21.574500000000025
21
78.987193399999995
31
0
0
ARC
5
259
100
AcDbEntity
8
0
100
AcDbCircle
10
22.074500000000029
20
78.987193399999981
30
0
40
0.49999999999999822
210
0
220
-0
230
1
100
AcDbArc
50
90
51
180
0
LINE
5
260
100
AcDbEntity
8
0
100
AcDbLine
10
22.074500000000029
20
79.487193399999981
30
0
11
35.075200000000038
21
79.487194975659179
31
0
0
ARC
5
261
100
AcDbEntity
8
0
100
AcDbCircle
10
35.075200000000038
20
78.987193399999981
30
0
40
0.49999999999999822
210
0
220
-0
230
1
100
AcDbArc
50
0
51
90
0
LINE
5
262
100
AcDbEntity
8
0
100
AcDbLine
10
16.525200000000027
20
74.224693399999992
30
0
11
16.525200000000027
21
59.625193400000001
31
0
0
ARC
5
263
100
AcDbEntity
8
0
100
AcDbCircle
10
16.025200000000027
20
59.625193400000001
30
0
40
0.49999957180175691
210
0
220
0
230
1
100
AcDbArc
50
-90
51
0
0
LINE
5
264
100
AcDbEntity
8
0
100
AcDbLine
10
16.025200000000027
20
59.125193828198242
30
0
11
3.0245000000000299
21
59.125193828198235
31
0
0
ARC
5
265
100
AcDbEntity
8
0
100
AcDbCircle
10
3.0245000000000322
20
59.625193400000001
30
0
40
0.49999999999999989
210
0
220
0
230
1
100
AcDbArc
50
180
51
269.99999999999972
0
LINE
5
266
100
AcDbEntity
8
0
100
AcDbLine
10
2.5245000000000322
20
59.625193400000001
30
0
11
2.5245000000000406
21
74.224693399999992
31
0
0
ARC
5
267
100
AcDbEntity
8
0
100
AcDbCircle
10
3.0245000000000348
20
74.224693400000007
30
0
40
0.49999999999999822
210
0
220
0
230
1
100
AcDbArc
50
90.000000000000057
51
180
0
LINE
5
268
100
AcDbEntity
8
0
100
AcDbLine
10
3.0245000000000344
20
74.724693400000007
30
0
11
16.025200000000027
21
74.724691923901361
31
0
0
ARC
5
269
100
AcDbEntity
8
0
100
AcDbCircle
10
16.025200000000027
20
74.224693400000007
30
0
40
0.49999999999999822
210
0
220
0
230
1
100
AcDbArc
50
0
51
90
0
LINE
5
270
100
AcDbEntity
8
0
100
AcDbLine
10
54.625300000000003
20
69.46219339999999
30
0
11
54.62530000000001
21
54.861293400000008
31
0
0
ARC
5
271
100
AcDbEntity
8
0
100
AcDbCircle
10
54.125300000000003
20
54.861293400000008
30
0
40
0.50000262355956338
210
0
220
0
230
1
100
AcDbArc
50
-90
51
0
0
LINE
5
272
100
AcDbEntity
8
0
100
AcDbLine
10
54.125300000000003
20
54.361290776440441
30
0
11
41.124500000000026
21
54.361290776440434
31
0
0
ARC
5
273
100
AcDbEntity
8
0
100
AcDbCircle
10
41.124500000000026
20
54.861293400000008
30
0
40
0.49999999999999822
210
0
220
0
230
1
100
AcDbArc
50
180
51
270
0
LINE
5
274
100
AcDbEntity
8
0
100
AcDbLine
10
40.624500000000026
20
54.861293400000008
30
0
11
40.624500000000026
21
69.46219339999999
31
0
0
ARC
5
275
100
AcDbEntity
8
0
100
AcDbCircle
10
41.124500000000026
20
69.46219339999999
30
0
40
0.49999999999999822
210
0
220
-0
230
1
100
AcDbArc
50
90
51
180
0
LINE
5
276
100
AcDbEntity
8
0
100
AcDbLine
10
41.124500000000026
20
69.96219339999999
30
0
11
54.125300000000003
21
69.962190773388656
31
0
0
ARC
5
277
100
AcDbEntity
8
0
100
AcDbCircle
10
54.125300000000003
20
69.46219339999999
30
0
40
0.49999999999999822
210
0
220
0
230
1
100
AcDbArc
50
0
51
90
0
LINE
5
278
100
AcDbEntity
8
0
100
AcDbLine
10
35.575200000000002
20
59.938593400000002
30
0
11
35.575200000000002
21
45.337693399999992
31
-2.2204460492503131e-15
0
ARC
5
279
100
AcDbEntity
8
0
100
AcDbCircle
10
35.075200000000002
20
45.337693400000006
30
-2.2204460492503131e-15
40
0.50000109157715578
210
0
220
0
230
1
100
AcDbArc
50
270
51
360
0
LINE
5
280
100
AcDbEntity
8
0
100
AcDbLine
10
35.075200000000002
20
44.837692308422852
30
-2.2204460492503131e-15
11
22.074500000000015
21
44.837692308422845
31
0
0
ARC
5
281
100
AcDbEntity
8
0
100
AcDbCircle
10
22.074500000000011
20
45.337693400000006
30
-2.2204460492503131e-15
40
0.49999999999999822
210
0
220
0
230
1
100
AcDbArc
50
180
51
270.0000000000004
0
LINE
5
282
100
AcDbEntity
8
0
100
AcDbLine
10
21.574500000000011
20
45.337693400000006
30
-2.2204460492503131e-15
11
21.574500000000008
21
59.938593400000002
31
0
0
ARC
5
283
100
AcDbEntity
8
0
100
AcDbCircle
10
22.074500000000011
20
59.938593400000002
30
0
40
0.49999999999999822
210
0
220
-0
230
1
100
AcDbArc
50
90
51
180
0
LINE
5
284
100
AcDbEntity
8
0
100
AcDbLine
10
22.074500000000011
20
60.438593400000002
30
0
11
35.075200000000002
21
60.438597073742677
31
0
0
ARC
5
285
100
AcDbEntity
8
0
100
AcDbCircle
10
35.075200000000002
20
59.938593400000002
30
0
40
0.49999999999999822
210
0
220
0
230
1
100
AcDbArc
50
0
51
90
0
LINE
5
286
100
AcDbEntity
8
0
100
AcDbLine
10
16.525200000000009
20
55.174693400000017
30
-2.2204460492503131e-15
11
16.525200000000009
21
40.575193399999989
31
0
0
ARC
5
287
100
AcDbEntity
8
0
100
AcDbCircle
10
16.025200000000005
20
40.575193400000003
30
0
40
0.50000224208981869
210
0
220
0
230
1
100
AcDbArc
50
270
51
360
0
LINE
5
288
100
AcDbEntity
8
0
100
AcDbLine
10
16.025200000000005
20
40.07519115791019
30
0
11
3.0245000000000122
21
40.075191157910197
31
0
0
ARC
5
289
100
AcDbEntity
8
0
100
AcDbCircle
10
3.0245000000000144
20
40.575193400000003
30
0
40
0.49999999999999989
210
0
220
0
230
1
100
AcDbArc
50
180
51
269.99999999999972
0
LINE
5
290
100
AcDbEntity
8
0
100
AcDbLine
10
2.5245000000000144
20
40.575193400000003
30
0
11
2.524500000000014
21
55.174693400000017
31
-2.2204460492503131e-15
0
ARC
5
291
100
AcDbEntity
8
0
100
AcDbCircle
10
3.0245000000000166
20
55.174693400000017
30
-2.2204460492503131e-15
40
0.49999999999999822
210
0
220
-0
230
1
100
AcDbArc
50
90
51
180
0
LINE
5
292
100
AcDbEntity
8
0
100
AcDbLine
10
3.0245000000000166
20
55.674693400000017
30
-2.2204460492503131e-15
11
16.025200000000012
21
55.674694021984905
31
-2.2204460492503131e-15
0
ARC
5
293
100
AcDbEntity
8
0
100
AcDbCircle
10
16.025200000000012
20
55.174693400000017
30
-2.2204460492503131e-15
40
0.49999999999999822
210
0
220
0
230
1
100
AcDbArc
50
0
51
90
0
LINE
5
294
100
AcDbEntity
8
0
100
AcDbLine
10
54.625300000000003
20
50.412193400000014
30
0
11
54.62530000000001
21
35.8113934
31
-2.2204460492503131e-15
0
ARC
5
295
100
AcDbEntity
8
0
100
AcDbCircle
10
54.125300000000003
20
35.811393399999986
30
-2.2204460492503131e-15
40
0.50000052547606089
210
0
220
0
230
1
100
AcDbArc
50
-90
51
0
0
LINE
5
296
100
AcDbEntity
8
0
100
AcDbLine
10
54.125300000000003
20
35.311392874523925
30
-2.2204460492503131e-15
11
41.124500000000026
21
35.311392874523904
31
-2.2204460492503131e-15
0
ARC
5
297
100
AcDbEntity
8
0
100
AcDbCircle
10
41.124500000000026
20
35.811393399999993
30
-2.2204460492503131e-15
40
0.49999999999999822
210
0
220
0
230
1
100
AcDbArc
50
180
51
270
0
LINE
5
298
100
AcDbEntity
8
0
100
AcDbLine
10
40.624500000000026
20
35.811393399999986
30
-2.2204460492503131e-15
11
40.624500000000026
21
50.412193400000014
31
0
0
ARC
5
299
100
AcDbEntity
8
0
100
AcDbCircle
10
41.124500000000026
20
50.412193400000021
30
0
40
0.49999999999999822
210
0
220
-0
230
1
100
AcDbArc
50
90
51
180
0
LINE
5
300
100
AcDbEntity
8
0
100
AcDbLine
10
41.124500000000026
20
50.912193400000021
30
0
11
54.125300000000003
21
50.912192871472186
31
0
0
ARC
5
301
100
AcDbEntity
8
0
100
AcDbCircle
10
54.125300000000003
20
50.412193400000021
30
0
40
0.49999999999999822
210
0
220
0
230
1
100
AcDbArc
50
0
51
90
0
LINE
5
302
100
AcDbEntity
8
0
100
AcDbLine
10
16.856601164819622
20
30.45041609304338
30
2.2204460492503131e-15
11
16.525200000000009
21
30.45041609304338
31
2.2204460492503131e-15
0
LINE
5
303
100
AcDbEntity
8
0
100
AcDbLine
10
16.525200000000009
20
30.45041609304338
30
2.2204460492503131e-15
11
16.525200000000009
21
21.52529340000001
31
2.2204460492503131e-15
0
ARC
5
304
100
AcDbEntity
8
0
100
AcDbCircle
10
16.025200000000005
20
21.525293399999995
30
0
40
0.50000014400634285
210
0
220
0
230
1
100
AcDbArc
50
-90
51
0
0
LINE
5
305
100
AcDbEntity
8
0
100
AcDbLine
10
16.025200000000005
20
21.025293255993653
30
0
11
3.0245000000000122
21
21.025293255993667
31
0
0
ARC
5
306
100
AcDbEntity
8
0
100
AcDbCircle
10
3.0245000000000144
20
21.525293400000002
30
0
40
0.49999999999999989
210
0
220
0
230
1
100
AcDbArc
50
180
51
269.99999999999972
0
LINE
5
307
100
AcDbEntity
8
0
100
AcDbLine
10
2.5245000000000144
20
21.525293399999995
30
0
11
2.524500000000014
21
36.124693400000005
31
0
0
ARC
5
308
100
AcDbEntity
8
0
100
AcDbCircle
10
3.0245000000000166
20
36.124693400000012
30
0
40
0.49999999999999822
210
0
220
-0
230
1
100
AcDbArc
50
90
51
180
0
LINE
5
309
100
AcDbEntity
8
0
100
AcDbLine
10
3.0245000000000166
20
36.624693400000012
30
0
11
16.025200000000012
21
36.624691351696796
31
0
0
ARC
5
310
100
AcDbEntity
8
0
100
AcDbCircle
10
16.025200000000012
20
36.124693400000012
30
0
40
0.50000000000000044
210
0
220
0
230
1
100
AcDbArc
50
0
51
90
0
LINE
5
311
100
AcDbEntity
8
0
100
AcDbLine
10
16.525200000000012
20
36.124693400000012
30
0
11
16.525200000000009
21
32.849583906956603
31
2.2204460492503131e-15
0
LINE
5
312
100
AcDbEntity
8
0
100
AcDbLine
10
16.525200000000009
20
32.849583906956603
30
2.2204460492503131e-15
11
16.856601164819622
21
32.849583906956603
31
2.2204460492503131e-15
0
ARC
5
313
100
AcDbEntity
8
0
100
AcDbCircle
10
19.050000000000008
20
31.649999999999991
30
2.2204460492503131e-15
40
2.4999999999999969
210
0
220
-0
230
1
100
AcDbArc
50
28.674532302750006
51
151.32546769724991
0
LINE
5
314
100
AcDbEntity
8
0
100
AcDbLine
10
21.2433988351804
20
32.849583906956603
30
2.2204460492503131e-15
11
21.574500000000008
21
32.849583906956603
31
2.2204460492503131e-15
0
LINE
5
315
100
AcDbEntity
8
0
100
AcDbLine
10
21.574500000000008
20
32.849583906956603
30
2.2204460492503131e-15
11
21.574500000000008
21
40.887193400000008
31
0
0
ARC
5
316
100
AcDbEntity
8
0
100
AcDbCircle
10
22.074500000000011
20
40.887193400000008
30
0
40
0.49999999999999822
210
0
220
-0
230
1
100
AcDbArc
50
90
51
180
0
LINE
5
317
100
AcDbEntity
8
0
100
AcDbLine
10
22.074500000000011
20
41.387193400000008
30
0
11
35.075200000000002
21
41.387191536328132
31
0
0
ARC
5
318
100
AcDbEntity
8
0
100
AcDbCircle
10
35.075200000000002
20
40.887193400000008
30
0
40
0.49999999999999822
210
0
220
0
230
1
100
AcDbArc
50
0
51
90
0
LINE
5
319
100
AcDbEntity
8
0
100
AcDbLine
10
35.575200000000002
20
40.887193400000008
30
0
11
35.575200000000002
21
26.28639340000003
31
-2.2204460492503131e-15
0
ARC
5
320
100
AcDbEntity
8
0
100
AcDbCircle
10
35.075200000000002
20
26.286393400000016
30
-2.2204460492503131e-15
40
0.49999999999999822
210
0
220
0
230
1
100
AcDbArc
50
-90
51
0
0
LINE
5
321
100
AcDbEntity
8
0
100
AcDbLine
10
35.075200000000002
20
25.786393400000019
30
-2.2204460492503131e-15
11
22.074500000000015
21
25.786393923565711
31
-2.2204460492503131e-15
0
ARC
5
322
100
AcDbEntity
8
0
100
AcDbCircle
10
22.074500000000011
20
26.286393400000026
30
-2.2204460492503131e-15
40
0.49999999999999822
210
0
220
0
230
1
100
AcDbArc
50
180
51
270.0000000000004
0
LINE
5
323
100
AcDbEntity
8
0
100
AcDbLine
10
21.574500000000011
20
26.286393400000016
30
-2.2204460492503131e-15
11
21.574500000000008
21
30.45041609304338
31
2.2204460492503131e-15
0
LINE
5
324
100
AcDbEntity
8
0
100
AcDbLine
10
21.574500000000008
20
30.45041609304338
30
2.2204460492503131e-15
11
21.2433988351804
21
30.45041609304338
31
2.2204460492503131e-15
0
ARC
5
325
100
AcDbEntity
8
0
100
AcDbCircle
10
19.050000000000008
20
31.649999999999991
30
2.2204460492503131e-15
40
2.4999999999999929
210
0
220
0
230
1
100
AcDbArc
50
208.67453230275009
51
331.32546769724996
0
LINE
5
326
100
AcDbEntity
8
0
100
AcDbLine
10
16.525199999999991
20
17.074693399999994
30
0
11
16.525199999999991
21
2.4753034000000085
31
0
0
ARC
5
327
100
AcDbEntity
8
0
100
AcDbCircle
10
16.025199999999987
20
2.475303399999996
30
0
40
0.50000003173981211
210
0
220
0
230
1
100
AcDbArc
50
-90
51
0
0
LINE
5
328
100
AcDbEntity
8
0
100
AcDbLine
10
16.025199999999987
20
1.9753033682601842
30
0
11
12.524499999999996
21
1.9753033682601995
31
0
0
ARC
5
329
100
AcDbEntity
8
0
100
AcDbCircle
10
12.524499999999998
20
2.4753033999999974
30
0
40
0.50000000000000044
210
0
220
0
230
1
100
AcDbArc
50
180
51
269.99999999999983
0
LINE
5
330
100
AcDbEntity
8
0
100
AcDbLine
10
12.024499999999998
20
2.4753033999999974
30
0
11
12.024499999999998
21
2.7753033902344271
31
0
0
LINE
5
331
100
AcDbEntity
8
0
100
AcDbLine
10
12.024499999999998
20
2.7753033902344271
30
0
11
7.024499999999998
21
2.7753033902344271
31
0
0
LINE
5
332
100
AcDbEntity
8
0
100
AcDbLine
10
7.024499999999998
20
2.7753033902344271
30
0
11
7.024499999999998
21
2.4753034000000085
31
0
0
ARC
5
333
100
AcDbEntity
8
0
100
AcDbCircle
10
6.5244999999999962
20
2.4753033999999987
30
0
40
0.50000000000000022
210
0
220
0
230
1
100
AcDbArc
50
-90.000000000000099
51
0
0
LINE
5
334
100
AcDbEntity
8
0
100
AcDbLine
10
6.5244999999999953
20
1.9753033999999987
30
0
11
3.0244999999999944
21
1.9753034000000014
31
0
0
ARC
5
335
100
AcDbEntity
8
0
100
AcDbCircle
10
3.0244999999999966
20
2.4753034
30
0
40
0.49999999999999989
210
0
220
0
230
1
100
AcDbArc
50
180
51
269.99999999999972
0
LINE
5
336
100
AcDbEntity
8
0
100
AcDbLine
10
2.5244999999999966
20
2.4753034000000023
30
0
11
2.5244999999999962
21
17.074693399999994
31
0
0
ARC
5
337
100
AcDbEntity
8
0
100
AcDbCircle
10
3.0244999999999997
20
17.074693399999994
30
0
40
0.50000000000000044
210
0
220
0
230
1
100
AcDbArc
50
90.000000000000099
51
180
0
LINE
5
338
100
AcDbEntity
8
0
100
AcDbLine
10
3.0244999999999989
20
17.574693399999994
30
0
11
6.5244999999999997
21
17.574693178173852
31
0
0
ARC
5
339
100
AcDbEntity
8
0
100
AcDbCircle
10
6.5244999999999962
20
17.074693399999994
30
0
40
0.50000000000000044
210
0
220
0
230
1
100
AcDbArc
50
0
51
89.999999999999588
0
LINE
5
340
100
AcDbEntity
8
0
100
AcDbLine
10
7.0244999999999971
20
17.074693399999994
30
0
11
7.024499999999998
21
16.774693246436314
31
0
0
LINE
5
341
100
AcDbEntity
8
0
100
AcDbLine
10
7.024499999999998
20
16.774693246436314
30
0
11
12.024499999999998
21
16.774693246436314
31
0
0
LINE
5
342
100
AcDbEntity
8
0
100
AcDbLine
10
12.024499999999998
20
16.774693246436314
30
0
11
12.024499999999998
21
17.074693399999994
31
0
0
ARC
5
343
100
AcDbEntity
8
0
100
AcDbCircle
10
12.524499999999998
20
17.074693399999994
30
0
40
0.50000000000000044
210
0
220
-0
230
1
100
AcDbArc
50
90
51
180
0
LINE
5
344
100
AcDbEntity
8
0
100
AcDbLine
10
12.524499999999998
20
17.574693399999994
30
0
11
16.025199999999991
21
17.574693178173852
31
0
0
ARC
5
345
100
AcDbEntity
8
0
100
AcDbCircle
10
16.025199999999995
20
17.074693399999994
30
0
40
0.499999999999996
210
0
220
0
230
1
100
AcDbArc
50
0
51
90.000000000000398
0
LINE
5
346
100
AcDbEntity
8
0
100
AcDbLine
10
35.575200000000002
20
19.455993400000011
30
0
11
35.575200000000002
21
4.8565734000000305
31
0
0
ARC
5
347
100
AcDbEntity
8
0
100
AcDbCircle
10
35.075200000000002
20
4.8565734000000198
30
0
40
0.49999983074340226
210
0
220
0
230
1
100
AcDbArc
50
-90
51
0
0
LINE
5
348
100
AcDbEntity
8
0
100
AcDbLine
10
35.075200000000002
20
4.3565735692566179
30
0
11
22.074500000000015
21
4.3565735692566321
31
0
0
ARC
5
349
100
AcDbEntity
8
0
100
AcDbCircle
10
22.074500000000011
20
4.8565734000000216
30
0
40
0.49999999999999822
210
0
220
0
230
1
100
AcDbArc
50
180
51
270.0000000000004
0
LINE
5
350
100
AcDbEntity
8
0
100
AcDbLine
10
21.574500000000011
20
4.8565734000000242
30
0
11
21.574500000000008
21
19.455993400000011
31
0
0
ARC
5
351
100
AcDbEntity
8
0
100
AcDbCircle
10
22.074500000000011
20
19.455993400000011
30
0
40
0.50000000000000044
210
0
220
-0
230
1
100
AcDbArc
50
90
51
180
0
LINE
5
352
100
AcDbEntity
8
0
100
AcDbLine
10
22.074500000000011
20
19.955993400000011
30
0
11
35.075200000000002
21
19.955992387768582
31
0
0
ARC
5
353
100
AcDbEntity
8
0
100
AcDbCircle
10
35.075200000000002
20
19.455993400000008
30
0
40
0.49999999999999822
210
0
220
-0
230
1
100
AcDbArc
50
0
51
90
0
LWPOLYLINE
5
354
100
AcDbEntity
8
0
100
AcDbPolyline
90
8
70
1
43
0.0
10
73.674850000000006
20
188.21249840000002
42
-0.41421356237300139
10
73.174849999999978
20
187.71249840000002
10
60.174849999999999
20
187.71249839999999
42
-0.41421356237312101
10
59.674850000000021
20
188.21249840000002
10
59.674849999999978
20
202.81249840000001
42
-0.41421356237301699
10
60.174849999999999
20
203.31249840000001
10
73.174849999999978
20
203.31249840000001
42
-0.41421356237312623
10
73.674849999999964
20
202.81249840000001
0
LWPOLYLINE
5
355
100
AcDbEntity
8
0
100
AcDbPolyline
90
8
70
1
43
0.0
10
60.174849999999999
20
47.218748399999981
42
-0.41421356237307944
10
59.674849999999999
20
47.718748399999988
10
59.674849999999999
20
62.318748399999997
42
-0.41421356237307944
10
60.174849999999999
20
62.818748400000004
10
73.174849999999978
20
62.818748400000004
42
-0.41421356237311585
10
73.674849999999992
20
62.318748399999997
10
73.674849999999992
20
47.718748399999988
42
-0.41421356237311585
10
73.174849999999978
20
47.218748399999981
0
LWPOLYLINE
5
356
100
AcDbEntity
8
0
100
AcDbPolyline
90
8
70
1
43
0.0
10
60.174849999999992
20
25.78749839999999
42
-0.41421356237307683
10
59.674849999999999
20
26.287498400000004
10
59.674849999999999
20
40.887498399999984
42
-0.41421356237309503
10
60.174849999999999
20
41.387498399999998
10
73.174849999999978
20
41.387498399999991
42
-0.41421356237309503
10
73.674849999999992
20
40.887498399999998
10
73.674849999999992
20
26.287498400000011
42
-0.41421356237311063
10
73.174849999999978
20
25.78749839999999
0
LINE
5
357
100
AcDbEntity
8
0
100
AcDbLine
10
40.624500000000026
20
9.6190734000000333
30
0
11
40.624500000000026
21
24.218493400000014
31
0
0
ARC
5
358
100
AcDbEntity
8
0
100
AcDbCircle
10
41.124500000000026
20
24.218493400000014
30
0
40
0.49999999999999822
210
0
220
-0
230
1
100
AcDbArc
50
90
51
180
0
LINE
5
359
100
AcDbEntity
8
0
100
AcDbLine
10
41.124500000000026
20
24.718493400000014
30
0
11
54.125300000000003
21
24.718490671154804
31
0
0
ARC
5
360
100
AcDbEntity
8
0
100
AcDbCircle
10
54.125300000000003
20
24.218493400000014
30
0
40
0.49999999999999822
210
0
220
0
230
1
100
AcDbArc
50
0
51
90
0
LINE
5
361
100
AcDbEntity
8
0
100
AcDbLine
10
54.625300000000003
20
24.218493400000014
30
0
11
54.625299606744377
21
9.6190734000000333
31
0
0
ARC
5
362
100
AcDbEntity
8
0
100
AcDbCircle
10
54.125300000000003
20
9.6190734000000226
30
0
40
0.49999960674437904
210
0
220
0
230
1
100
AcDbArc
50
-90
51
0
0
LINE
5
363
100
AcDbEntity
8
0
100
AcDbLine
10
54.125300000000003
20
9.1190737932556445
30
0
11
41.124500000000026
21
9.1190734000000262
31
0
0
ARC
5
364
100
AcDbEntity
8
0
100
AcDbCircle
10
41.124500000000026
20
9.6190734000000262
30
0
40
0.49999999999999822
210
0
220
0
230
1
100
AcDbArc
50
180
51
270
0
LWPOLYLINE
5
365
100
AcDbEntity
8
0
100
AcDbPolyline
90
20
70
1
43
0.0
10
73.174849999999978
20
19.9562484
42
-0.41421356237311063
10
73.674849999999992
20
19.4562484
10
73.674849999999992
20
4.8562483999999984
42
-0.41421356237308138
10
73.174849999999978
20
4.3562483999999992
10
69.674849999999992
20
4.3562484000000028
42
-0.41421356237310869
10
69.174849999999992
20
4.8562483999999975
10
69.174849999999992
20
5.1562484000000097
10
64.174849999999992
20
5.1562484000000097
10
64.174849999999992
20
4.8562483999999984
42
-0.41421356237307488
10
63.674849999999992
20
4.3562483999999984
10
60.174849999999999
20
4.3562483999999992
42
-0.41421356237309698
10
59.674849999999999
20
4.8562484000000001
10
59.674849999999999
20
19.456248400000007
42
-0.41421356237307033
10
60.174849999999999
20
19.9562484
10
63.674850000000013
20
19.956248399999996
42
-0.41421356237310414
10
64.174850000000006
20
19.4562484
10
64.174850000000006
20
19.156248399999996
10
69.174850000000006
20
19.156248399999996
10
69.174850000000006
20
19.456248400000007
42
-0.41421356237307555
10
69.674849999999992
20
19.9562484
0
CIRCLE
5
366
100
AcDbEntity
8
0
100
AcDbCircle
10
16.750000000000046
20
210.8872934
30
1.5543122344752192e-14
40
2.5
210
0
220
0
230
1
0
CIRCLE
5
367
100
AcDbEntity
8
0
100
AcDbCircle
10
53.799901000000013
20
30.09999999999998
30
2.2204460492503131e-15
40
2.5
210
0
220
0
230
1
0
ENDSEC
0
SECTION
2
OBJECTS
0
DICTIONARY
5
C
100
AcDbDictionary
3
ACAD_GROUP
350
D
3
ACAD_MLINESTYLE
350
17
0
DICTIONARY
5
D
100
AcDbDictionary
0
DICTIONARY
5
1A
330
C
100
AcDbDictionary
0
DICTIONARY
5
17
100
AcDbDictionary
0
ENDSEC
0
EOF
