0
SECTION
2
HEADER
9
$INSUNITS
70
4
9
$ACADVER
1
AC1014
9
$HANDSEED
5
FFFF
0
ENDSEC
0
SECTION
2
TABLES
0
TABLE
2
VPORT
5
8
100
AcDbSymbolTable
0
ENDTAB
0
TABLE
2
LTYPE
5
5
100
AcDbSymbolTable
0
LTYPE
5
14
100
AcDbSymbolTableRecord
100
AcDbLinetypeTableRecord
2
BYBLOCK
70
0
0
LTYPE
5
15
100
AcDbSymbolTableRecord
100
AcDbLinetypeTableRecord
2
BYLAYER
70
0
0
ENDTAB
0
TABLE
2
LAYER
5
2
100
AcDbSymbolTable
70
2
0
LAYER
5
50
100
AcDbSymbolTableRecord
100
AcDbLayerTableRecord
2
0
70
0
6
CONTINUOUS
0
ENDTAB
0
TABLE
2
STYLE
5
3
100
AcDbSymbolTable
70
1
0
STYLE
5
11
100
AcDbSymbolTableRecord
100
AcDbTextStyleTableRecord
2
STANDARD
70
0
0
ENDTAB
0
TABLE
2
VIEW
5
6
100
AcDbSymbolTable
70
0
0
ENDTAB
0
TABLE
2
UCS
5
7
100
AcDbSymbolTable
70
0
0
ENDTAB
0
TABLE
2
APPID
5
9
100
AcDbSymbolTable
70
2
0
APPID
5
12
100
AcDbSymbolTableRecord
100
AcDbRegAppTableRecord
2
ACAD
70
0
0
ENDTAB
0
TABLE
2
DIMSTYLE
5
A
100
AcDbSymbolTable
70
1
0
ENDTAB
0
TABLE
2
BLOCK_RECORD
5
1
100
AcDbSymbolTable
70
1
0
BLOCK_RECORD
5
1F
100
AcDbSymbolTableRecord
100
AcDbBlockTableRecord
2
*MODEL_SPACE
0
BLOCK_RECORD
5
1B
100
AcDbSymbolTableRecord
100
AcDbBlockTableRecord
2
*PAPER_SPACE
0
ENDTAB
0
ENDSEC
0
SECTION
2
BLOCKS
0
BLOCK
5
20
100
AcDbEntity
100
AcDbBlockBegin
2
*MODEL_SPACE
0
ENDBLK
5
21
100
AcDbEntity
100
AcDbBlockEnd
0
BLOCK
5
1C
100
AcDbEntity
100
AcDbBlockBegin
2
*PAPER_SPACE
0
ENDBLK
5
1D
100
AcDbEntity
100
AcDbBlockEnd
0
ENDSEC
0
SECTION
2
ENTITIES
0
LWPOLYLINE
5
100
100
AcDbEntity
8
0
100
AcDbPolyline
90
8
70
1
43
0.0
10
3.0250070634112136
20
-73.675000000000011
42
-0.41421356237309503
10
2.5250070634112136
20
-73.175000000000011
10
2.5250070634112154
20
-60.175000000000018
42
-0.41421356237309503
10
3.0250070634112136
20
-59.675000000000018
10
16.025007063411213
20
-59.675000000000018
42
-0.41421356237309503
10
16.525007063411213
20
-60.175000000000018
10
16.525007063411213
20
-73.175000000000011
42
-0.41421356237309503
10
16.025007063411213
20
-73.675000000000011
0
LWPOLYLINE
5
101
100
AcDbEntity
8
0
100
AcDbPolyline
90
8
70
1
43
0.0
10
54.91320000000001
20
-41.125
10
54.91320000000001
20
-54.125000000000007
42
0.41421356237309503
10
55.413200000000003
20
-54.625
10
68.413199999999989
20
-54.625
42
0.41421356237309503
10
68.913199999999989
20
-54.125000000000007
10
68.913199999999989
20
-41.125
42
0.41421356237309503
10
68.413199999999989
20
-40.625
10
55.413200000000003
20
-40.625
42
0.41421356237309503
0
LWPOLYLINE
5
102
100
AcDbEntity
8
0
100
AcDbPolyline
90
8
70
1
43
0.0
10
45.388200000000005
20
-22.074999999999999
10
45.388200000000005
20
-35.075000000000003
42
0.41421356237309503
10
45.888199999999998
20
-35.575000000000003
10
58.888200000000012
20
-35.575000000000003
42
0.41421356237309503
10
59.388200000000005
20
-35.075000000000003
10
59.388200000000005
20
-22.074999999999999
42
0.41421356237309503
10
58.888200000000012
20
-21.575000000000003
10
45.888199999999998
20
-21.575000000000003
42
0.41421356237309503
0
LWPOLYLINE
5
103
100
AcDbEntity
8
0
100
AcDbPolyline
90
8
70
1
43
0.0
10
78.725699999999989
20
-3.0249999999999999
10
78.725699999999989
20
-16.024999999999999
42
0.41421356237309503
10
79.225699999999989
20
-16.524999999999999
10
92.225700000000018
20
-16.524999999999999
42
0.41421356237309503
10
92.725700000000018
20
-16.024999999999999
10
92.725700000000018
20
-3.0249999999999999
42
0.41421356237309503
10
92.225700000000018
20
-2.5249999999999999
10
79.225699999999989
20
-2.5249999999999999
42
0.41421356237309503
0
LWPOLYLINE
5
104
100
AcDbEntity
8
0
100
AcDbPolyline
90
8
70
1
43
0.0
10
81.606257063411221
20
-73.675000000000026
10
94.606257063411221
20
-73.675000000000011
42
0.4142135623730846
10
95.106257063411192
20
-73.175000000000011
10
95.106257063411221
20
-60.175000000000018
42
0.41421356237309503
10
94.606257063411206
20
-59.675000000000018
10
81.606257063411221
20
-59.675000000000026
42
0.41421356237309503
10
81.106257063411221
20
-60.175000000000026
10
81.106257063411221
20
-73.175000000000026
42
0.41421356237308982
0
LWPOLYLINE
5
105
100
AcDbEntity
8
0
100
AcDbPolyline
90
8
70
1
43
0.0
10
144.66925706341124
20
-72.67500000000004
10
150.66925706341121
20
-72.675000000000026
42
0.41421356237309503
10
151.16925706341124
20
-72.175000000000026
10
151.16925706341124
20
-58.175000000000026
42
0.41421356237309503
10
150.66925706341121
20
-57.675000000000026
10
144.66925706341124
20
-57.675000000000026
42
0.41421356237309503
10
144.16925706341121
20
-58.175000000000026
10
144.16925706341121
20
-72.175000000000026
42
0.41421356237309503
0
LWPOLYLINE
5
106
100
AcDbEntity
8
0
100
AcDbPolyline
90
8
70
1
43
0.0
10
130.32569999999998
20
-2.5249999999999928
10
117.32570000000003
20
-2.5249999999999999
42
0.41421356237309503
10
116.82570000000001
20
-3.0249999999999999
10
116.82570000000001
20
-16.024999999999999
42
0.41421356237309503
10
117.32570000000003
20
-16.525000000000006
10
130.32569999999998
20
-16.524999999999999
42
0.41421356237309503
10
130.82570000000001
20
-16.024999999999999
10
130.82570000000001
20
-3.0249999999999999
42
0.41421356237309503
0
LWPOLYLINE
5
107
100
AcDbEntity
8
0
100
AcDbPolyline
90
8
70
1
43
0.0
10
141.13820000000001
20
-35.57500000000001
42
-0.41421356237309503
10
140.63819999999998
20
-35.075000000000003
10
140.63819999999998
20
-22.074999999999999
42
-0.41421356237309503
10
141.13820000000001
20
-21.575000000000003
10
154.13820000000001
20
-21.57500000000001
42
-0.41421356237309503
10
154.63820000000001
20
-22.074999999999999
10
154.63820000000001
20
-35.075000000000003
42
-0.41421356237309503
10
154.13820000000001
20
-35.575000000000003
0
LWPOLYLINE
5
108
100
AcDbEntity
8
0
100
AcDbPolyline
90
8
70
1
43
0.0
10
173.97570000000002
20
-3.0249999999999999
10
173.97570000000002
20
-16.024999999999999
42
0.41421356237309503
10
174.47570000000002
20
-16.525000000000002
10
187.47569999999999
20
-16.525000000000002
42
0.41421356237309503
10
187.97570000000002
20
-16.024999999999999
10
187.97570000000002
20
-3.0249999999999999
42
0.41421356237309503
10
187.47569999999999
20
-2.5249999999999928
10
174.47570000000002
20
-2.5249999999999999
42
0.41421356237309503
0
LWPOLYLINE
5
109
100
AcDbEntity
8
0
100
AcDbPolyline
90
8
70
1
43
0.0
10
197.78819999999999
20
-22.074999999999999
10
197.78820000000002
20
-35.075000000000003
42
0.41421356237309503
10
198.28820000000002
20
-35.574999999999974
10
211.28820000000002
20
-35.575000000000003
42
0.41421356237309503
10
211.78820000000002
20
-35.075000000000003
10
211.78820000000002
20
-22.074999999999999
42
0.41421356237309503
10
211.28820000000002
20
-21.574999999999992
10
198.28820000000002
20
-21.575000000000003
42
0.41421356237309503
0
LWPOLYLINE
5
110
100
AcDbEntity
8
0
100
AcDbPolyline
90
8
70
1
43
0.0
10
188.26319999999998
20
-41.125
10
188.26319999999998
20
-54.125000000000007
42
0.41421356237309503
10
188.76319999999998
20
-54.625000000000014
10
201.76320000000001
20
-54.625
42
0.41421356237309503
10
202.26320000000001
20
-54.125000000000007
10
202.26320000000001
20
-41.125
42
0.41421356237309503
10
201.76320000000001
20
-40.624999999999993
10
188.76319999999998
20
-40.625
42
0.41421356237309503
0
LWPOLYLINE
5
111
100
AcDbEntity
8
0
100
AcDbPolyline
90
8
70
1
43
0.0
10
226.36250706341121
20
-60.175000000000018
10
226.36250706341121
20
-73.175000000000011
42
0.41421356237309503
10
226.86250706341124
20
-73.675000000000026
10
239.86250706341124
20
-73.675000000000011
42
0.41421356237309503
10
240.36250706341124
20
-73.175000000000011
10
240.36250706341124
20
-60.175000000000018
42
0.41421356237309503
10
239.86250706341124
20
-59.675000000000011
10
226.86250706341124
20
-59.675000000000018
42
0.41421356237309503
0
LWPOLYLINE
5
112
100
AcDbEntity
8
0
100
AcDbPolyline
90
8
70
1
43
0.0
10
188.26250706341119
20
-60.175000000000018
10
188.26250706341119
20
-73.175000000000011
42
0.41421356237309503
10
188.76250706341122
20
-73.675000000000026
10
201.76250706341122
20
-73.675000000000011
42
0.41421356237309503
10
202.26250706341122
20
-73.175000000000011
10
202.26250706341122
20
-60.175000000000018
42
0.41421356237309503
10
201.76250706341122
20
-59.675000000000011
10
188.76250706341122
20
-59.675000000000018
42
0.41421356237309503
0
LWPOLYLINE
5
113
100
AcDbEntity
8
0
100
AcDbPolyline
90
8
70
1
43
0.0
10
178.73820000000001
20
-22.074999999999999
10
178.73820000000001
20
-35.075000000000003
42
0.41421356237309503
10
179.23820000000003
20
-35.575000000000003
10
192.23820000000003
20
-35.575000000000003
42
0.41421356237309503
10
192.73820000000003
20
-35.075000000000003
10
192.73820000000003
20
-22.074999999999999
42
0.41421356237309503
10
192.23820000000003
20
-21.574999999999992
10
179.23820000000003
20
-21.575000000000003
42
0.41421356237309503
0
LWPOLYLINE
5
114
100
AcDbEntity
8
0
100
AcDbPolyline
90
8
70
1
43
0.0
10
193.02570000000003
20
-3.0249999999999999
10
193.02570000000003
20
-16.024999999999999
42
0.41421356237309503
10
193.52570000000003
20
-16.525000000000006
10
206.52570000000003
20
-16.524999999999999
42
0.41421356237309503
10
207.02570000000003
20
-16.024999999999999
10
207.02570000000003
20
-3.0249999999999999
42
0.41421356237309503
10
206.52570000000003
20
-2.5249999999999999
10
193.52570000000003
20
-2.5249999999999999
42
0.41421356237309503
0
LWPOLYLINE
5
115
100
AcDbEntity
8
0
100
AcDbPolyline
90
8
70
1
43
0.0
10
135.87570000000002
20
-3.0249999999999999
10
135.87570000000002
20
-16.024999999999999
42
0.41421356237309503
10
136.37570000000002
20
-16.525000000000002
10
149.37569999999999
20
-16.524999999999999
42
0.41421356237309503
10
149.87570000000002
20
-16.024999999999999
10
149.87570000000002
20
-3.0249999999999999
42
0.41421356237309503
10
149.37569999999999
20
-2.5249999999999999
10
136.37570000000002
20
-2.5249999999999999
42
0.41421356237309503
0
LWPOLYLINE
5
116
100
AcDbEntity
8
0
100
AcDbPolyline
90
8
70
1
43
0.0
10
97.775700000000001
20
-3.0249999999999999
10
97.775700000000029
20
-16.024999999999999
42
0.41421356237309503
10
98.275700000000015
20
-16.525000000000002
10
111.27570000000003
20
-16.525000000000002
42
0.41421356237309503
10
111.77570000000003
20
-16.024999999999999
10
111.77570000000003
20
-3.0249999999999999
42
0.41421356237309503
10
111.27570000000003
20
-2.5249999999999999
10
98.275700000000015
20
-2.5249999999999999
42
0.41421356237309503
0
LWPOLYLINE
5
117
100
AcDbEntity
8
0
100
AcDbPolyline
90
8
70
1
43
0.0
10
150.66320000000002
20
-54.625000000000014
42
-0.41421356237309503
10
150.16320000000002
20
-54.125000000000007
10
150.16320000000002
20
-41.125
42
-0.41421356237309503
10
150.66320000000002
20
-40.625
10
163.66320000000002
20
-40.624999999999993
42
-0.41421356237309503
10
164.16320000000002
20
-41.125
10
164.16320000000002
20
-54.125000000000007
42
-0.41421356237309503
10
163.66320000000002
20
-54.625
0
LWPOLYLINE
5
118
100
AcDbEntity
8
0
100
AcDbPolyline
90
8
70
1
43
0.0
10
97.044257063411209
20
-72.675000000000026
10
103.04425706341122
20
-72.675000000000026
42
0.41421356237309503
10
103.54425706341121
20
-72.175000000000026
10
103.54425706341124
20
-58.175000000000026
42
0.41421356237309503
10
103.04425706341122
20
-57.675000000000026
10
97.044257063411209
20
-57.675000000000026
42
0.41421356237309503
10
96.544257063411223
20
-58.175000000000026
10
96.544257063411223
20
-72.175000000000026
42
0.41421356237309503
0
LWPOLYLINE
5
119
100
AcDbEntity
8
0
100
AcDbPolyline
90
8
70
1
43
0.0
10
83.488200000000006
20
-22.074999999999999
10
83.488200000000006
20
-35.075000000000003
42
0.41421356237309503
10
83.988200000000006
20
-35.57500000000001
10
96.988200000000006
20
-35.575000000000003
42
0.41421356237309503
10
97.48820000000002
20
-35.075000000000003
10
97.48820000000002
20
-22.074999999999999
42
0.41421356237309503
10
96.988200000000006
20
-21.574999999999992
10
83.988200000000006
20
-21.575000000000003
42
0.41421356237309503
0
LWPOLYLINE
5
120
100
AcDbEntity
8
0
100
AcDbPolyline
90
8
70
1
43
0.0
10
40.625700000000002
20
-3.0249999999999999
10
40.625700000000002
20
-16.024999999999999
42
0.41421356237309503
10
41.125699999999995
20
-16.524999999999999
10
54.125700000000009
20
-16.525000000000002
42
0.41421356237309503
10
54.625700000000002
20
-16.024999999999999
10
54.625700000000002
20
-3.0249999999999999
42
0.41421356237309503
10
54.125700000000009
20
-2.5250000000000017
10
41.125699999999995
20
-2.5249999999999999
42
0.41421356237309503
0
LWPOLYLINE
5
121
100
AcDbEntity
8
0
100
AcDbPolyline
90
8
70
1
43
0.0
10
35.863199999999999
20
-41.125
10
35.863199999999999
20
-54.125000000000007
42
0.41421356237309503
10
36.363199999999999
20
-54.625
10
49.363200000000006
20
-54.625
42
0.41421356237309503
10
49.863199999999999
20
-54.125000000000007
10
49.863199999999999
20
-41.125
42
0.41421356237309503
10
49.363200000000006
20
-40.625
10
36.363199999999999
20
-40.625
42
0.41421356237309503
0
LWPOLYLINE
5
122
100
AcDbEntity
8
0
100
AcDbPolyline
90
8
70
1
43
0.0
10
9.6694500000000012
20
-41.125
10
9.6694500000000012
20
-54.125000000000007
42
0.41421356237309503
10
10.169450000000001
20
-54.625
10
23.169450000000001
20
-54.625
42
0.41421356237309503
10
23.669449999999998
20
-54.125000000000007
10
23.669449999999998
20
-41.125
42
0.41421356237309503
10
23.169450000000001
20
-40.625
10
10.169450000000001
20
-40.625
42
0.41421356237309503
0
LWPOLYLINE
5
123
100
AcDbEntity
8
0
100
AcDbPolyline
90
8
70
1
43
0.0
10
4.9069500000000019
20
-22.074999999999999
10
4.9069500000000019
20
-35.075000000000003
42
0.41421356237309503
10
5.4069500000000019
20
-35.575000000000003
10
18.406950000000005
20
-35.575000000000003
42
0.4142135623730937
10
18.906950000000002
20
-35.075000000000003
10
18.906950000000002
20
-22.074999999999999
42
0.4142135623730937
10
18.406950000000005
20
-21.575000000000003
10
5.4069500000000019
20
-21.575000000000003
42
0.41421356237309503
0
LWPOLYLINE
5
124
100
AcDbEntity
8
0
100
AcDbPolyline
90
8
70
1
43
0.0
10
45.387507063411221
20
-60.175000000000018
10
45.387507063411221
20
-73.175000000000011
42
0.41421356237309503
10
45.887507063411221
20
-73.675000000000011
10
58.887507063411221
20
-73.675000000000011
42
0.41421356237309503
10
59.387507063411221
20
-73.175000000000011
10
59.387507063411221
20
-60.175000000000018
42
0.41421356237309503
10
58.887507063411221
20
-59.675000000000018
10
45.887507063411221
20
-59.675000000000018
42
0.41421356237309503
0
LWPOLYLINE
5
125
100
AcDbEntity
8
0
100
AcDbPolyline
90
8
70
1
43
0.0
10
22.075700000000001
20
-16.524999999999999
42
-0.41421356237309503
10
21.575700000000001
20
-16.024999999999999
10
21.575700000000001
20
-3.0249999999999999
42
-0.41421356237309503
10
22.075700000000001
20
-2.5249999999999999
10
35.075700000000005
20
-2.5250000000000017
42
-0.41421356237309503
10
35.575699999999998
20
-3.0249999999999999
10
35.575699999999998
20
-16.024999999999999
42
-0.41421356237309503
10
35.075700000000005
20
-16.524999999999999
0
LWPOLYLINE
5
126
100
AcDbEntity
8
0
100
AcDbPolyline
90
8
70
1
43
0.0
10
59.675700000000006
20
-3.0249999999999999
10
59.675700000000006
20
-16.024999999999999
42
0.41421356237309503
10
60.175699999999999
20
-16.524999999999999
10
73.175700000000006
20
-16.524999999999999
42
0.41421356237309503
10
73.675699999999992
20
-16.024999999999999
10
73.675699999999992
20
-3.0249999999999999
42
0.41421356237309503
10
73.175700000000006
20
-2.5250000000000017
10
60.175699999999999
20
-2.5249999999999999
42
0.41421356237309503
0
LWPOLYLINE
5
127
100
AcDbEntity
8
0
100
AcDbPolyline
90
8
70
1
43
0.0
10
68.443757063411212
20
-72.675000000000026
10
79.168257063411218
20
-72.675000000000026
42
0.41421356237309503
10
79.668257063411218
20
-72.175000000000026
10
79.668257063411218
20
-58.175000000000026
42
0.41421356237309503
10
79.168257063411218
20
-57.675000000000026
10
68.443757063411212
20
-57.675000000000026
42
0.41421356237309503
10
67.943757063411212
20
-58.175000000000026
10
67.943757063411212
20
-72.175000000000026
42
0.41421356237309503
0
LWPOLYLINE
5
128
100
AcDbEntity
8
0
100
AcDbPolyline
90
14
70
1
43
0.0
10
114.44375706341121
20
-60.175000000000018
10
114.44375706341121
20
-73.175000000000011
42
0.41421356237309503
10
114.9437570634112
20
-73.675000000000011
10
142.23125706341119
20
-73.675000000000026
42
0.41421356237309503
10
142.73125706341119
20
-73.175000000000026
10
142.73125706341122
20
-60.175000000000026
42
0.41421356237309503
10
142.23125706341119
20
-59.675000000000018
10
127.29325706341122
20
-59.675000000000018
10
127.29325706341122
20
-58.175000000000026
42
0.41421356237309503
10
126.7932570634112
20
-57.675000000000018
10
120.79325706341122
20
-57.675000000000026
42
0.41421356237309503
10
120.2932570634112
20
-58.175000000000026
10
120.2932570634112
20
-59.675000000000018
10
114.9437570634112
20
-59.675000000000026
42
0.41421356237308982
0
LWPOLYLINE
5
129
100
AcDbEntity
8
0
100
AcDbPolyline
90
8
70
1
43
0.0
10
125.56320000000001
20
-40.624999999999993
10
112.56320000000002
20
-40.625
42
0.41421356237309503
10
112.06320000000002
20
-41.125
10
112.06320000000002
20
-54.125000000000007
42
0.41421356237309503
10
112.56320000000002
20
-54.625000000000014
10
125.56320000000001
20
-54.625
42
0.41421356237309503
10
126.06320000000002
20
-54.125000000000007
10
126.06320000000002
20
-41.125
42
0.41421356237309503
0
LWPOLYLINE
5
130
100
AcDbEntity
8
0
100
AcDbPolyline
90
8
70
1
43
0.0
10
121.58820000000003
20
-22.074999999999999
10
121.58820000000003
20
-35.075000000000003
42
0.41421356237309503
10
122.08820000000003
20
-35.57500000000001
10
135.08820000000003
20
-35.575000000000003
42
0.41421356237309503
10
135.58820000000003
20
-35.075000000000003
10
135.58820000000003
20
-22.074999999999999
42
0.41421356237309503
10
135.08820000000003
20
-21.574999999999992
10
122.08820000000003
20
-21.575000000000003
42
0.41421356237309503
0
LWPOLYLINE
5
131
100
AcDbEntity
8
0
100
AcDbPolyline
90
8
70
1
43
0.0
10
154.92570000000003
20
-3.0249999999999999
10
154.92570000000003
20
-16.024999999999999
42
0.41421356237309503
10
155.42570000000003
20
-16.524999999999999
10
168.42570000000001
20
-16.524999999999999
42
0.41421356237309503
10
168.92570000000003
20
-16.024999999999999
10
168.92570000000003
20
-3.0249999999999999
42
0.41421356237309503
10
168.42570000000001
20
-2.5249999999999928
10
155.42570000000003
20
-2.5249999999999999
42
0.41421356237309503
0
LWPOLYLINE
5
132
100
AcDbEntity
8
0
100
AcDbPolyline
90
8
70
1
43
0.0
10
221.60070000000002
20
-22.074999999999999
10
221.60070000000002
20
-35.075000000000003
42
0.41421356237309503
10
222.10070000000002
20
-35.575000000000003
10
235.10070000000002
20
-35.575000000000003
42
0.41421356237309503
10
235.60070000000002
20
-35.075000000000003
10
235.60070000000002
20
-22.074999999999999
42
0.41421356237309503
10
235.10070000000002
20
-21.574999999999992
10
222.10070000000002
20
-21.575000000000003
42
0.41421356237309503
0
LWPOLYLINE
5
133
100
AcDbEntity
8
0
100
AcDbPolyline
90
14
70
1
43
0.0
10
174.44375706341123
20
-57.675000000000018
42
-0.41421356237309503
10
174.94375706341123
20
-58.175000000000026
10
174.94375706341123
20
-59.675000000000018
10
177.95000706341116
20
-59.675000000000011
42
-0.41421356237311585
10
178.45000706341122
20
-60.175000000000018
10
178.45000706341122
20
-73.175000000000011
42
-0.41421356237309503
10
177.95000706341119
20
-73.675000000000011
10
162.5687570634112
20
-73.674999999999983
42
-0.41421356237309503
10
162.06875706341123
20
-73.175000000000011
10
162.0687570634112
20
-60.175000000000018
42
-0.41421356237308982
10
162.5687570634112
20
-59.675000000000026
10
167.94375706341123
20
-59.675000000000018
10
167.94375706341123
20
-58.175000000000026
42
-0.41421356237309503
10
168.44375706341123
20
-57.675000000000026
0
LWPOLYLINE
5
134
100
AcDbEntity
8
0
100
AcDbPolyline
90
8
70
1
43
0.0
10
207.3125070634112
20
-60.175000000000018
10
207.31250706341126
20
-73.175000000000011
42
0.41421356237309503
10
207.81250706341123
20
-73.675000000000011
10
220.81250706341123
20
-73.675000000000011
42
0.41421356237309503
10
221.31250706341123
20
-73.175000000000011
10
221.31250706341123
20
-60.175000000000018
42
0.41421356237309503
10
220.81250706341123
20
-59.675000000000018
10
207.81250706341123
20
-59.675000000000018
42
0.41421356237309503
0
LWPOLYLINE
5
135
100
AcDbEntity
8
0
100
AcDbPolyline
90
20
70
1
43
0.0
10
207.31319999999999
20
-41.125
42
-0.41421356237309503
10
207.81319999999999
20
-40.625
10
239.86320000000003
20
-40.624999999999993
42
-0.41421356237309503
10
240.36320000000003
20
-41.125
10
240.36320000000003
20
-54.125000000000007
42
-0.41421356237309503
10
239.86320000000003
20
-54.625
10
239.27620000000002
20
-54.625
10
239.27620000000002
20
-56.125000000000007
42
-0.41421356237309503
10
238.77620000000002
20
-56.625000000000007
10
232.77620000000002
20
-56.625000000000014
42
-0.41421356237309503
10
232.27620000000002
20
-56.125000000000007
10
232.27620000000002
20
-54.625
10
215.40020000000001
20
-54.625
10
215.40020000000001
20
-56.125000000000007
42
-0.41421356237309503
10
214.90020000000001
20
-56.625000000000007
10
208.90019999999998
20
-56.625000000000014
42
-0.41421356237309503
10
208.40019999999998
20
-56.125000000000007
10
208.40019999999998
20
-54.625
10
207.81319999999999
20
-54.625000000000014
42
-0.41421356237309503
10
207.31319999999999
20
-54.125000000000007
0
LWPOLYLINE
5
136
100
AcDbEntity
8
0
100
AcDbPolyline
90
8
70
1
43
0.0
10
169.21320000000003
20
-41.125
10
169.21320000000003
20
-54.125000000000007
42
0.41421356237309503
10
169.71320000000003
20
-54.625000000000014
10
182.71320000000003
20
-54.625
42
0.41421356237309503
10
183.21320000000003
20
-54.125000000000007
10
183.21320000000003
20
-41.125
42
0.41421356237309503
10
182.71320000000003
20
-40.624999999999993
10
169.71320000000003
20
-40.625
42
0.41421356237309503
0
LINE
5
137
100
AcDbEntity
8
0
100
AcDbLine
10
219.71875
20
-2.525000000000019
30
0
11
232.71875
21
-2.5250000000000012
31
0
0
ARC
5
138
100
AcDbEntity
8
0
100
AcDbCircle
10
232.71875706341123
20
-3.0250000000000177
30
0
40
0.4999999992897165
210
0
220
-0
230
1
100
AcDbArc
50
0.0030540262624245023
51
90.000809407305056
0
LINE
5
139
100
AcDbEntity
8
0
100
AcDbLine
10
233.21875000000003
20
-3.0249999999999999
30
0
11
233.21875
21
-16.024999999999999
31
0
0
ARC
5
140
100
AcDbEntity
8
0
100
AcDbCircle
10
232.71874999999994
20
-16.024999999999949
30
0
40
0.5000000000000524
210
0
220
0
230
1
100
AcDbArc
50
270.08021403892246
51
360
0
LINE
5
141
100
AcDbEntity
8
0
100
AcDbLine
10
232.71944999931404
20
-16.524999510000722
30
0
11
219.71875706341123
21
-16.525000000000016
31
0
0
ARC
5
142
100
AcDbEntity
8
0
100
AcDbCircle
10
219.71875706341123
20
-16.02500000000002
30
0
40
0.50000000000000711
210
0
220
0
230
1
100
AcDbArc
50
180
51
270
0
LINE
5
143
100
AcDbEntity
8
0
100
AcDbLine
10
219.21875706341123
20
-16.02500000000002
30
0
11
219.21875706341123
21
-3.0250000000000177
31
0
0
ARC
5
144
100
AcDbEntity
8
0
100
AcDbCircle
10
219.71875706341123
20
-3.0250000000000177
30
0
40
0.50000000004989054
210
0
220
0
230
1
100
AcDbArc
50
90.000809407305056
51
180
0
LWPOLYLINE
5
145
100
AcDbEntity
8
0
100
AcDbPolyline
90
8
70
1
43
0.0
10
160.18820000000002
20
-35.57500000000001
42
-0.41421356237309503
10
159.68819999999999
20
-35.075000000000003
10
159.68819999999999
20
-22.074999999999999
42
-0.41421356237309503
10
160.18820000000002
20
-21.575000000000003
10
173.18820000000002
20
-21.574999999999992
42
-0.41421356237309503
10
173.68820000000002
20
-22.074999999999999
10
173.68820000000002
20
-35.075000000000003
42
-0.41421356237309503
10
173.18820000000002
20
-35.575000000000003
0
LWPOLYLINE
5
146
100
AcDbEntity
8
0
100
AcDbPolyline
90
8
70
1
43
0.0
10
102.53820000000002
20
-22.074999999999999
10
102.53820000000002
20
-35.075000000000003
42
0.41421356237309503
10
103.03820000000002
20
-35.575000000000003
10
116.0382
20
-35.575000000000003
42
0.41421356237309503
10
116.53820000000002
20
-35.075000000000003
10
116.53820000000002
20
-22.074999999999999
42
0.41421356237309503
10
116.0382
20
-21.575000000000003
10
103.03820000000002
20
-21.575000000000003
42
0.41421356237309503
0
LWPOLYLINE
5
147
100
AcDbEntity
8
0
100
AcDbPolyline
90
8
70
1
43
0.0
10
144.61320000000003
20
-40.625
10
131.61320000000003
20
-40.625
42
0.41421356237309503
10
131.11320000000003
20
-41.125
10
131.11320000000003
20
-54.125000000000007
42
0.41421356237309503
10
131.61320000000003
20
-54.625
10
144.61320000000003
20
-54.625
42
0.41421356237309503
10
145.11320000000001
20
-54.125000000000007
10
145.11320000000003
20
-41.125
42
0.41421356237309503
0
LWPOLYLINE
5
148
100
AcDbEntity
8
0
100
AcDbPolyline
90
8
70
1
43
0.0
10
93.013200000000012
20
-41.125
10
93.013200000000026
20
-54.125000000000007
42
0.41421356237309503
10
93.513200000000012
20
-54.625
10
106.51320000000001
20
-54.625
42
0.41421356237309503
10
107.01320000000003
20
-54.125000000000007
10
107.01320000000003
20
-41.125
42
0.41421356237309503
10
106.51320000000001
20
-40.624999999999993
10
93.513200000000012
20
-40.625
42
0.41421356237309503
0
LWPOLYLINE
5
149
100
AcDbEntity
8
0
100
AcDbPolyline
90
8
70
1
43
0.0
10
73.963200000000015
20
-41.125
10
73.963200000000015
20
-54.125000000000007
42
0.41421356237309503
10
74.463200000000015
20
-54.625
10
87.463200000000029
20
-54.625
42
0.41421356237309503
10
87.963200000000015
20
-54.125000000000007
10
87.963200000000029
20
-41.125
42
0.41421356237309503
10
87.463200000000029
20
-40.625
10
74.463200000000015
20
-40.625
42
0.41421356237309503
0
LWPOLYLINE
5
150
100
AcDbEntity
8
0
100
AcDbPolyline
90
8
70
1
43
0.0
10
77.938199999999995
20
-21.575000000000003
10
64.938200000000009
20
-21.575000000000003
42
0.41421356237309503
10
64.438200000000009
20
-22.074999999999999
10
64.438200000000009
20
-35.075000000000003
42
0.41421356237309503
10
64.938200000000009
20
-35.575000000000003
10
77.938199999999995
20
-35.575000000000003
42
0.41421356237309503
10
78.438199999999995
20
-35.075000000000003
10
78.438199999999995
20
-22.074999999999999
42
0.41421356237309503
0
LWPOLYLINE
5
151
100
AcDbEntity
8
0
100
AcDbPolyline
90
8
70
1
43
0.0
10
26.838200000000001
20
-35.575000000000003
42
-0.41421356237309503
10
26.338200000000001
20
-35.075000000000003
10
26.338200000000001
20
-22.074999999999999
42
-0.41421356237309503
10
26.838200000000001
20
-21.575000000000003
10
39.838200000000001
20
-21.574999999999996
42
-0.41421356237309503
10
40.338200000000001
20
-22.074999999999999
10
40.338200000000001
20
-35.075000000000003
42
-0.41421356237309503
10
39.838200000000001
20
-35.575000000000003
0
LWPOLYLINE
5
152
100
AcDbEntity
8
0
100
AcDbPolyline
90
8
70
1
43
0.0
10
24.456257063411215
20
-73.675000000000011
42
-0.41421356237309503
10
23.956257063411215
20
-73.175000000000011
10
23.956257063411215
20
-60.175000000000018
42
-0.41421356237309503
10
24.456257063411215
20
-59.675000000000018
10
37.456257063411215
20
-59.675000000000018
42
-0.41421356237309503
10
37.956257063411208
20
-60.175000000000018
10
37.956257063411208
20
-73.175000000000011
42
-0.41421356237309503
10
37.456257063411215
20
-73.675000000000011
0
LWPOLYLINE
5
153
100
AcDbEntity
8
0
100
AcDbPolyline
90
8
70
1
43
0.0
10
2.5257000000000014
20
-3.0249999999999999
10
2.5257000000000014
20
-16.024999999999999
42
0.4142135623730957
10
3.0257000000000023
20
-16.524999999999999
10
16.025700000000001
20
-16.524999999999999
42
0.41421356237309503
10
16.525700000000001
20
-16.024999999999999
10
16.525700000000001
20
-3.0249999999999999
42
0.41421356237309503
10
16.025700000000001
20
-2.5249999999999999
10
3.0257000000000014
20
-2.5249999999999999
42
0.41421356237309503
0
LWPOLYLINE
5
154
100
AcDbEntity
8
0
100
AcDbPolyline
90
32
70
1
43
0.0
10
17.246350269189605
20
-0.52500000000000002
10
225.64114973081004
20
-0.52499999999999714
42
0.26794919243113058
10
227.37320053837902
20
0.47499999999997211
10
229.682601615138
20
4.4750000000000103
10
237.75439838486199
20
4.4750000000000112
10
240.0637994616211
20
0.47500000000006509
42
0.26794919243113197
10
241.79585026919
20
-0.52499999999999503
10
241.86250000000001
20
-0.52499999999999281
42
-0.41421356237309531
10
242.36250000000001
20
-1.0250000000000004
10
242.36250000000001
20
-75.174999999999997
42
-0.41421356237309503
10
241.86250000000001
20
-75.674999999999997
10
241.795850269189
20
-75.674999999999997
42
0.26794919243099874
10
240.06379946162099
20
-76.675000000000011
10
237.75439838486199
20
-80.675000000000011
10
229.682601615138
20
-80.675000000000011
10
227.37320053837891
20
-76.675000000000068
42
0.26794919243113069
10
225.64114973081004
20
-75.674999999999997
10
17.246350269189598
20
-75.675000000000026
42
0.26794919243112442
10
15.514299461620702
20
-76.675000000000011
10
13.204898384862203
20
-80.675000000000011
10
5.1331016151377504
20
-80.675000000000011
10
2.8237005383792502
20
-76.675000000000011
42
0.26794919243112331
10
1.0916497308103701
20
-75.674999999999997
10
1.0250000000005299
20
-75.675000000000011
42
-0.41421356237339968
10
0.52500000000000002
20
-75.174999999999997
10
0.52499999999999702
20
-1.0250000000000001
42
-0.41421356237309515
10
1.0249999999999999
20
-0.52499999999999702
10
1.0916497308103199
20
-0.52500000000000013
42
0.26794919243112963
10
2.8237005383792502
20
0.47499999999999987
10
5.1331016151377504
20
4.4749999999999996
10
13.2048983848623
20
4.4750000000000103
10
15.51429946162073
20
0.47500000000002263
42
0.26794919243113025
0
LWPOLYLINE
5
155
100
AcDbEntity
8
0
100
AcDbPolyline
90
8
70
1
43
0.0
10
3.0250070634112136
20
-73.675000000000011
42
-0.41421356237309404
10
2.5250070634112136
20
-73.175000000000011
10
2.5250070634112118
20
-60.175000000000018
42
-0.41421356237309698
10
3.0250070634112136
20
-59.675000000000018
10
16.025007063411213
20
-59.675000000000026
42
-0.41421356237309764
10
16.525007063411213
20
-60.175000000000018
10
16.525007063411213
20
-73.175000000000011
42
-0.41421356237309503
10
16.025007063411213
20
-73.675000000000011
0
LWPOLYLINE
5
156
100
AcDbEntity
8
0
100
AcDbPolyline
90
8
70
1
43
0.0
10
54.91320000000001
20
-41.125
10
54.91320000000001
20
-54.125000000000007
42
0.41421356237309503
10
55.413200000000003
20
-54.625
10
68.413199999999989
20
-54.625
42
0.41421356237309503
10
68.913199999999989
20
-54.125000000000007
10
68.913199999999989
20
-41.125
42
0.41421356237309503
10
68.413199999999989
20
-40.625
10
55.413200000000003
20
-40.625
42
0.41421356237309503
0
LWPOLYLINE
5
157
100
AcDbEntity
8
0
100
AcDbPolyline
90
8
70
1
43
0.0
10
45.388200000000005
20
-22.074999999999999
10
45.388200000000005
20
-35.075000000000003
42
0.41421356237309764
10
45.888199999999998
20
-35.575000000000003
10
58.888200000000012
20
-35.575000000000003
42
0.41421356237308204
10
59.388200000000005
20
-35.075000000000003
10
59.388200000000005
20
-22.074999999999999
42
0.41421356237309764
10
58.888200000000012
20
-21.575000000000003
10
45.888199999999998
20
-21.575000000000003
42
0.41421356237309764
0
LWPOLYLINE
5
158
100
AcDbEntity
8
0
100
AcDbPolyline
90
8
70
1
43
0.0
10
78.725699999999989
20
-3.0249999999999999
10
78.725699999999989
20
-16.024999999999999
42
0.41421356237309503
10
79.225699999999989
20
-16.524999999999999
10
92.225700000000018
20
-16.524999999999999
42
0.41421356237310414
10
92.725700000000018
20
-16.024999999999999
10
92.725700000000018
20
-3.0249999999999999
42
0.41421356237309437
10
92.225700000000018
20
-2.5249999999999999
10
79.225699999999989
20
-2.5249999999999999
42
0.41421356237309404
0
LWPOLYLINE
5
159
100
AcDbEntity
8
0
100
AcDbPolyline
90
8
70
1
43
0.0
10
81.606257063411221
20
-73.675000000000026
10
94.606257063411221
20
-73.675000000000011
42
0.41421356237308982
10
95.106257063411192
20
-73.175000000000011
10
95.106257063411221
20
-60.175000000000018
42
0.41421356237307944
10
94.606257063411206
20
-59.675000000000018
10
81.606257063411221
20
-59.675000000000026
42
0.41421356237308982
10
81.106257063411221
20
-60.175000000000026
10
81.106257063411221
20
-73.175000000000026
42
0.41421356237310542
0
LWPOLYLINE
5
160
100
AcDbEntity
8
0
100
AcDbPolyline
90
8
70
1
43
0.0
10
144.66925706341124
20
-72.67500000000004
10
150.66925706341121
20
-72.675000000000026
42
0.41421356237310542
10
151.16925706341124
20
-72.175000000000026
10
151.16925706341124
20
-58.175000000000026
42
0.41421356237307944
10
150.66925706341121
20
-57.675000000000026
10
144.66925706341124
20
-57.675000000000026
42
0.41421356237310542
10
144.16925706341121
20
-58.175000000000026
10
144.16925706341121
20
-72.175000000000026
42
0.41421356237310025
0
LWPOLYLINE
5
161
100
AcDbEntity
8
0
100
AcDbPolyline
90
8
70
1
43
0.0
10
130.32569999999998
20
-2.5249999999999928
10
117.32570000000003
20
-2.5249999999999999
42
0.41421356237310542
10
116.82570000000001
20
-3.0249999999999999
10
116.82570000000001
20
-16.024999999999999
42
0.41421356237309631
10
117.32570000000003
20
-16.525000000000006
10
130.32569999999998
20
-16.524999999999999
42
0.41421356237310414
10
130.82570000000001
20
-16.024999999999999
10
130.82570000000001
20
-3.0249999999999999
42
0.41421356237309437
0
LWPOLYLINE
5
162
100
AcDbEntity
8
0
100
AcDbPolyline
90
8
70
1
43
0.0
10
141.13820000000001
20
-35.575000000000003
42
-0.41421356237309243
10
140.63819999999998
20
-35.075000000000003
10
140.63819999999998
20
-22.074999999999999
42
-0.41421356237310802
10
141.13820000000001
20
-21.575000000000003
10
154.13820000000001
20
-21.575000000000017
42
-0.41421356237311324
10
154.63820000000001
20
-22.074999999999999
10
154.63820000000001
20
-35.075000000000003
42
-0.41421356237310542
10
154.13820000000001
20
-35.575000000000003
0
LWPOLYLINE
5
163
100
AcDbEntity
8
0
100
AcDbPolyline
90
8
70
1
43
0.0
10
173.97570000000002
20
-3.0249999999999999
10
173.97570000000002
20
-16.024999999999999
42
0.41421356237313406
10
174.47570000000002
20
-16.525000000000002
10
187.47569999999999
20
-16.525000000000002
42
0.4142135623730781
10
187.97570000000002
20
-16.024999999999999
10
187.97570000000002
20
-3.0249999999999999
42
0.41421356237313273
10
187.47569999999999
20
-2.5249999999999928
10
174.47570000000002
20
-2.5249999999999999
42
0.41421356237307749
0
LWPOLYLINE
5
164
100
AcDbEntity
8
0
100
AcDbPolyline
90
8
70
1
43
0.0
10
197.78819999999999
20
-22.074999999999999
10
197.78820000000002
20
-35.075000000000003
42
0.41421356237309764
10
198.28820000000002
20
-35.574999999999974
10
211.28820000000002
20
-35.575000000000003
42
0.41421356237307683
10
211.78820000000002
20
-35.075000000000003
10
211.78820000000002
20
-22.074999999999999
42
0.41421356237313406
10
211.28820000000002
20
-21.574999999999992
10
198.28820000000002
20
-21.575000000000003
42
0.41421356237305079
0
LWPOLYLINE
5
165
100
AcDbEntity
8
0
100
AcDbPolyline
90
8
70
1
43
0.0
10
188.26319999999998
20
-41.125
10
188.26319999999998
20
-54.125000000000007
42
0.41421356237312101
10
188.76319999999998
20
-54.625000000000014
10
201.76320000000001
20
-54.625
42
0.41421356237307422
10
202.26320000000001
20
-54.125000000000007
10
202.26320000000001
20
-41.125
42
0.41421356237313145
10
201.76320000000001
20
-40.624999999999993
10
188.76319999999998
20
-40.625
42
0.4142135623730222
0
LWPOLYLINE
5
166
100
AcDbEntity
8
0
100
AcDbPolyline
90
8
70
1
43
0.0
10
226.36250706341121
20
-60.175000000000018
10
226.36250706341121
20
-73.175000000000011
42
0.41421356237313145
10
226.86250706341124
20
-73.675000000000026
10
239.86250706341124
20
-73.675000000000011
42
0.4142135623730222
10
240.36250706341124
20
-73.175000000000011
10
240.36250706341124
20
-60.175000000000018
42
0.41421356237312623
10
239.86250706341124
20
-59.675000000000011
10
226.86250706341124
20
-59.675000000000018
42
0.41421356237307422
0
LWPOLYLINE
5
167
100
AcDbEntity
8
0
100
AcDbPolyline
90
8
70
1
43
0.0
10
188.26250706341119
20
-60.175000000000018
10
188.26250706341119
20
-73.175000000000011
42
0.41421356237313145
10
188.76250706341122
20
-73.675000000000026
10
201.76250706341122
20
-73.675000000000011
42
0.4142135623730222
10
202.26250706341122
20
-73.175000000000011
10
202.26250706341122
20
-60.175000000000018
42
0.41421356237312623
10
201.76250706341122
20
-59.675000000000011
10
188.76250706341122
20
-59.675000000000018
42
0.41421356237307422
0
LWPOLYLINE
5
168
100
AcDbEntity
8
0
100
AcDbPolyline
90
8
70
1
43
0.0
10
178.73820000000001
20
-22.074999999999999
10
178.73820000000001
20
-35.075000000000003
42
0.41421356237313145
10
179.23820000000003
20
-35.575000000000003
10
192.23820000000003
20
-35.575000000000003
42
0.41421356237312101
10
192.73820000000003
20
-35.075000000000003
10
192.73820000000003
20
-22.074999999999999
42
0.41421356237310281
10
192.23820000000003
20
-21.574999999999992
10
179.23820000000003
20
-21.575000000000003
42
0.41421356237308204
0
LWPOLYLINE
5
169
100
AcDbEntity
8
0
100
AcDbPolyline
90
8
70
1
43
0.0
10
193.02570000000003
20
-3.0249999999999999
10
193.02570000000003
20
-16.024999999999999
42
0.41421356237313406
10
193.52570000000003
20
-16.525000000000006
10
206.52570000000003
20
-16.524999999999999
42
0.41421356237304563
10
207.02570000000003
20
-16.024999999999999
10
207.02570000000003
20
-3.0249999999999999
42
0.41421356237309631
10
206.52570000000003
20
-2.5249999999999999
10
193.52570000000003
20
-2.5249999999999999
42
0.41421356237307749
0
LWPOLYLINE
5
170
100
AcDbEntity
8
0
100
AcDbPolyline
90
8
70
1
43
0.0
10
135.87570000000002
20
-3.0249999999999999
10
135.87570000000002
20
-16.024999999999999
42
0.41421356237307555
10
136.37570000000002
20
-16.525000000000002
10
149.37569999999999
20
-16.524999999999999
42
0.41421356237310414
10
149.87570000000002
20
-16.024999999999999
10
149.87570000000002
20
-3.0249999999999999
42
0.41421356237309437
10
149.37569999999999
20
-2.5249999999999999
10
136.37570000000002
20
-2.5249999999999999
42
0.41421356237307422
0
LWPOLYLINE
5
171
100
AcDbEntity
8
0
100
AcDbPolyline
90
8
70
1
43
0.0
10
97.775700000000001
20
-3.0249999999999999
10
97.775700000000029
20
-16.024999999999999
42
0.41421356237311452
10
98.275700000000015
20
-16.525000000000002
10
111.27570000000003
20
-16.525000000000002
42
0.41421356237310675
10
111.77570000000003
20
-16.024999999999999
10
111.77570000000003
20
-3.0249999999999999
42
0.41421356237309437
10
111.27570000000003
20
-2.5249999999999999
10
98.275700000000015
20
-2.5249999999999999
42
0.41421356237310542
0
LWPOLYLINE
5
172
100
AcDbEntity
8
0
100
AcDbPolyline
90
8
70
1
43
0.0
10
150.66320000000002
20
-54.625000000000014
42
-0.41421356237309503
10
150.16320000000002
20
-54.125000000000007
10
150.16320000000002
20
-41.125
42
-0.41421356237308982
10
150.66320000000002
20
-40.625
10
163.66320000000002
20
-40.625000000000014
42
-0.41421356237312101
10
164.16320000000002
20
-41.125
10
164.16319999999999
20
-54.125000000000007
42
-0.4142135623730222
10
163.66320000000002
20
-54.625
0
LWPOLYLINE
5
173
100
AcDbEntity
8
0
100
AcDbPolyline
90
8
70
1
43
0.0
10
97.044257063411209
20
-72.675000000000026
10
103.04425706341122
20
-72.675000000000026
42
0.41421356237310542
10
103.54425706341121
20
-72.175000000000026
10
103.54425706341124
20
-58.175000000000026
42
0.41421356237307944
10
103.04425706341122
20
-57.675000000000026
10
97.044257063411209
20
-57.675000000000026
42
0.41421356237310542
10
96.544257063411223
20
-58.175000000000026
10
96.544257063411223
20
-72.175000000000026
42
0.41421356237309503
0
LWPOLYLINE
5
174
100
AcDbEntity
8
0
100
AcDbPolyline
90
8
70
1
43
0.0
10
83.488200000000006
20
-22.074999999999999
10
83.488200000000006
20
-35.075000000000003
42
0.41421356237309243
10
83.988200000000006
20
-35.57500000000001
10
96.988200000000006
20
-35.575000000000003
42
0.41421356237310542
10
97.48820000000002
20
-35.075000000000003
10
97.48820000000002
20
-22.074999999999999
42
0.41421356237309503
10
96.988200000000006
20
-21.574999999999992
10
83.988200000000006
20
-21.575000000000003
42
0.41421356237310802
0
LWPOLYLINE
5
175
100
AcDbEntity
8
0
100
AcDbPolyline
90
8
70
1
43
0.0
10
40.625700000000002
20
-3.0249999999999999
10
40.625700000000002
20
-16.024999999999999
42
0.41421356237309764
10
41.125699999999995
20
-16.524999999999999
10
54.125700000000009
20
-16.525000000000002
42
0.41421356237309631
10
54.625700000000002
20
-16.024999999999999
10
54.625700000000002
20
-3.0249999999999999
42
0.41421356237309698
10
54.125700000000009
20
-2.5250000000000017
10
41.125699999999995
20
-2.5249999999999999
42
0.41421356237309664
0
LWPOLYLINE
5
176
100
AcDbEntity
8
0
100
AcDbPolyline
90
8
70
1
43
0.0
10
35.863199999999999
20
-41.125
10
35.863199999999999
20
-54.125000000000007
42
0.41421356237308721
10
36.363199999999999
20
-54.625
10
49.363200000000006
20
-54.625
42
0.41421356237309503
10
49.863199999999999
20
-54.125000000000007
10
49.863199999999999
20
-41.125
42
0.41421356237309503
10
49.363200000000006
20
-40.625
10
36.363199999999999
20
-40.625
42
0.41421356237309503
0
LWPOLYLINE
5
177
100
AcDbEntity
8
0
100
AcDbPolyline
90
8
70
1
43
0.0
10
9.6694500000000012
20
-41.125
10
9.6694500000000012
20
-54.125000000000007
42
0.4142135623730937
10
10.169450000000001
20
-54.625
10
23.169450000000001
20
-54.625
42
0.41421356237309503
10
23.669449999999998
20
-54.125000000000007
10
23.669449999999998
20
-41.125
42
0.41421356237309503
10
23.169450000000001
20
-40.625
10
10.169450000000001
20
-40.625
42
0.41421356237309503
0
LWPOLYLINE
5
178
100
AcDbEntity
8
0
100
AcDbPolyline
90
8
70
1
43
0.0
10
4.9069500000000019
20
-22.074999999999999
10
4.9069500000000019
20
-35.075000000000003
42
0.4142135623730957
10
5.4069500000000019
20
-35.575000000000003
10
18.406950000000005
20
-35.575000000000003
42
0.4142135623730937
10
18.906950000000002
20
-35.075000000000003
10
18.906950000000002
20
-22.075000000000003
42
0.41421356237309503
10
18.406950000000005
20
-21.575000000000003
10
5.4069500000000019
20
-21.575000000000003
42
0.41421356237309631
0
LWPOLYLINE
5
179
100
AcDbEntity
8
0
100
AcDbPolyline
90
8
70
1
43
0.0
10
45.387507063411221
20
-60.175000000000018
10
45.387507063411221
20
-73.175000000000011
42
0.41421356237309503
10
45.887507063411221
20
-73.675000000000011
10
58.887507063411221
20
-73.675000000000011
42
0.41421356237309503
10
59.387507063411221
20
-73.175000000000011
10
59.387507063411221
20
-60.175000000000018
42
0.41421356237310542
10
58.887507063411221
20
-59.675000000000018
10
45.887507063411221
20
-59.675000000000018
42
0.41421356237310542
0
LWPOLYLINE
5
180
100
AcDbEntity
8
0
100
AcDbPolyline
90
8
70
1
43
0.0
10
22.075699999999998
20
-16.525000000000002
42
-0.4142135623730937
10
21.575700000000001
20
-16.024999999999999
10
21.575700000000001
20
-3.0249999999999999
42
-0.41421356237309537
10
22.075700000000001
20
-2.5249999999999999
10
35.075700000000005
20
-2.5250000000000004
42
-0.4142135623730957
10
35.575699999999998
20
-3.0249999999999999
10
35.575699999999998
20
-16.024999999999999
42
-0.41421356237309631
10
35.075700000000005
20
-16.524999999999999
0
LWPOLYLINE
5
181
100
AcDbEntity
8
0
100
AcDbPolyline
90
8
70
1
43
0.0
10
59.675700000000006
20
-3.0249999999999999
10
59.675700000000006
20
-16.024999999999999
42
0.41421356237309503
10
60.175699999999999
20
-16.524999999999999
10
73.175700000000006
20
-16.524999999999999
42
0.41421356237309764
10
73.675699999999992
20
-16.024999999999999
10
73.675699999999992
20
-3.0249999999999999
42
0.41421356237309698
10
73.175700000000006
20
-2.5250000000000017
10
60.175699999999999
20
-2.5249999999999999
42
0.41421356237309404
0
LWPOLYLINE
5
182
100
AcDbEntity
8
0
100
AcDbPolyline
90
8
70
1
43
0.0
10
68.443757063411212
20
-72.675000000000026
10
79.168257063411218
20
-72.675000000000026
42
0.41421356237310542
10
79.668257063411218
20
-72.175000000000026
10
79.668257063411218
20
-58.175000000000026
42
0.41421356237310542
10
79.168257063411218
20
-57.675000000000026
10
68.443757063411212
20
-57.675000000000026
42
0.41421356237309503
10
67.943757063411212
20
-58.175000000000026
10
67.943757063411212
20
-72.175000000000026
42
0.41421356237309503
0
LWPOLYLINE
5
183
100
AcDbEntity
8
0
100
AcDbPolyline
90
14
70
1
43
0.0
10
114.44375706341121
20
-60.175000000000018
10
114.44375706341121
20
-73.175000000000011
42
0.41421356237311585
10
114.9437570634112
20
-73.675000000000011
10
142.23125706341119
20
-73.675000000000026
42
0.41421356237310542
10
142.73125706341119
20
-73.175000000000026
10
142.73125706341122
20
-60.175000000000026
42
0.41421356237307422
10
142.23125706341119
20
-59.675000000000018
10
127.29325706341122
20
-59.675000000000018
10
127.29325706341122
20
-58.175000000000026
42
0.41421356237310025
10
126.7932570634112
20
-57.675000000000018
10
120.79325706341122
20
-57.675000000000026
42
0.41421356237310542
10
120.2932570634112
20
-58.175000000000026
10
120.2932570634112
20
-59.675000000000018
10
114.94375706341123
20
-59.675000000000026
42
0.41421356237305862
0
LWPOLYLINE
5
184
100
AcDbEntity
8
0
100
AcDbPolyline
90
8
70
1
43
0.0
10
125.56320000000001
20
-40.624999999999993
10
112.56320000000002
20
-40.625
42
0.41421356237308982
10
112.06320000000002
20
-41.125
10
112.06320000000002
20
-54.125000000000007
42
0.41421356237309503
10
112.56320000000002
20
-54.625000000000014
10
125.56320000000001
20
-54.625
42
0.41421356237310025
10
126.06320000000002
20
-54.125000000000007
10
126.06320000000002
20
-41.125
42
0.41421356237307422
0
LWPOLYLINE
5
185
100
AcDbEntity
8
0
100
AcDbPolyline
90
8
70
1
43
0.0
10
121.58820000000003
20
-22.074999999999999
10
121.58820000000003
20
-35.075000000000003
42
0.41421356237309243
10
122.08820000000003
20
-35.57500000000001
10
135.08820000000003
20
-35.575000000000003
42
0.41421356237307161
10
135.58820000000003
20
-35.075000000000003
10
135.58820000000003
20
-22.074999999999999
42
0.41421356237307422
10
135.08820000000003
20
-21.574999999999992
10
122.08820000000003
20
-21.575000000000003
42
0.41421356237310802
0
LWPOLYLINE
5
186
100
AcDbEntity
8
0
100
AcDbPolyline
90
8
70
1
43
0.0
10
154.92570000000003
20
-3.0249999999999999
10
154.92570000000003
20
-16.024999999999999
42
0.41421356237307555
10
155.42570000000003
20
-16.524999999999999
10
168.42570000000001
20
-16.524999999999999
42
0.41421356237304563
10
168.92570000000003
20
-16.024999999999999
10
168.92570000000003
20
-3.0249999999999999
42
0.41421356237310153
10
168.42570000000001
20
-2.5249999999999928
10
155.42570000000003
20
-2.5249999999999999
42
0.41421356237307422
0
LWPOLYLINE
5
187
100
AcDbEntity
8
0
100
AcDbPolyline
90
8
70
1
43
0.0
10
221.60070000000002
20
-22.074999999999999
10
221.60070000000002
20
-35.075000000000003
42
0.41421356237310025
10
222.10070000000002
20
-35.575000000000003
10
235.10070000000002
20
-35.575000000000003
42
0.41421356237307683
10
235.60070000000002
20
-35.075000000000003
10
235.60070000000002
20
-22.074999999999999
42
0.41421356237313406
10
235.10070000000002
20
-21.574999999999992
10
222.10070000000002
20
-21.575000000000003
42
0.41421356237305079
0
LWPOLYLINE
5
188
100
AcDbEntity
8
0
100
AcDbPolyline
90
14
70
1
43
0.0
10
174.44375706341123
20
-57.675000000000018
42
-0.41421356237313667
10
174.94375706341123
20
-58.175000000000026
10
174.94375706341123
20
-59.675000000000018
10
177.95000706341114
20
-59.674999999999997
42
-0.4142135623730846
10
178.45000706341122
20
-60.175000000000018
10
178.45000706341119
20
-73.175000000000011
42
-0.4142135623730222
10
177.95000706341119
20
-73.675000000000011
10
162.5687570634112
20
-73.674999999999997
42
-0.41421356237310025
10
162.06875706341123
20
-73.175000000000011
10
162.0687570634112
20
-60.175000000000018
42
-0.41421356237304818
10
162.5687570634112
20
-59.675000000000026
10
167.94375706341123
20
-59.675000000000018
10
167.94375706341117
20
-58.175000000000026
42
-0.41421356237307422
10
168.44375706341123
20
-57.675000000000026
0
LWPOLYLINE
5
189
100
AcDbEntity
8
0
100
AcDbPolyline
90
8
70
1
43
0.0
10
207.3125070634112
20
-60.175000000000018
10
207.31250706341126
20
-73.175000000000011
42
0.41421356237312101
10
207.81250706341123
20
-73.675000000000011
10
220.81250706341123
20
-73.675000000000011
42
0.4142135623730222
10
221.31250706341123
20
-73.175000000000011
10
221.31250706341123
20
-60.175000000000018
42
0.41421356237312623
10
220.81250706341123
20
-59.675000000000018
10
207.81250706341123
20
-59.675000000000018
42
0.41421356237307422
0
LWPOLYLINE
5
190
100
AcDbEntity
8
0
100
AcDbPolyline
90
20
70
1
43
0.0
10
207.31320000000005
20
-41.125
42
-0.4142135623730222
10
207.81319999999999
20
-40.625
10
239.86320000000003
20
-40.625
42
-0.41421356237313145
10
240.36320000000003
20
-41.125
10
240.36320000000006
20
-54.125000000000007
42
-0.41421356237307422
10
239.86320000000003
20
-54.625
10
239.27620000000002
20
-54.625
10
239.27619999999996
20
-56.125000000000007
42
-0.4142135623730222
10
238.77620000000002
20
-56.625000000000007
10
232.77620000000002
20
-56.625000000000014
42
-0.41421356237313667
10
232.27620000000002
20
-56.125000000000007
10
232.27620000000002
20
-54.625
10
215.40020000000001
20
-54.625
10
215.40019999999998
20
-56.125000000000007
42
-0.4142135623730222
10
214.90020000000001
20
-56.625000000000007
10
208.90019999999998
20
-56.625
42
-0.41421356237312623
10
208.40019999999998
20
-56.125000000000007
10
208.40019999999998
20
-54.625
10
207.81319999999999
20
-54.624999999999986
42
-0.41421356237312101
10
207.31319999999999
20
-54.125000000000007
0
LWPOLYLINE
5
191
100
AcDbEntity
8
0
100
AcDbPolyline
90
8
70
1
43
0.0
10
169.21320000000003
20
-41.125
10
169.21320000000003
20
-54.125000000000007
42
0.41421356237313145
10
169.71320000000003
20
-54.625000000000014
10
182.71320000000003
20
-54.625
42
0.4142135623730222
10
183.21320000000003
20
-54.125000000000007
10
183.21320000000003
20
-41.125
42
0.41421356237312101
10
182.71320000000003
20
-40.624999999999993
10
169.71320000000003
20
-40.625
42
0.41421356237307422
0
LINE
5
192
100
AcDbEntity
8
0
100
AcDbLine
10
219.71875
20
-2.525000000000019
30
0
11
232.71875
21
-2.5250000000000012
31
0
0
ARC
5
193
100
AcDbEntity
8
0
100
AcDbCircle
10
232.71875706341126
20
-3.0249999999999906
30
0
40
0.49999999928968092
210
0
220
-0
230
1
100
AcDbArc
50
0.0030540262624245023
51
90.00080940730831
0
LINE
5
194
100
AcDbEntity
8
0
100
AcDbLine
10
233.21875000000003
20
-3.0249999999999999
30
0
11
233.21875
21
-16.024999999999999
31
0
0
ARC
5
195
100
AcDbEntity
8
0
100
AcDbCircle
10
232.71874999999994
20
-16.024999999999949
30
0
40
0.50000000000005462
210
0
220
0
230
1
100
AcDbArc
50
270.08021403892246
51
360
0
LINE
5
196
100
AcDbEntity
8
0
100
AcDbLine
10
232.71944999931404
20
-16.524999510000722
30
0
11
219.71875706341123
21
-16.525000000000016
31
0
0
ARC
5
197
100
AcDbEntity
8
0
100
AcDbCircle
10
219.7187570634112
20
-16.025000000000031
30
0
40
0.49999999999997158
210
0
220
0
230
1
100
AcDbArc
50
180
51
270.00000000000324
0
LINE
5
198
100
AcDbEntity
8
0
100
AcDbLine
10
219.21875706341123
20
-16.02500000000002
30
0
11
219.21875706341123
21
-3.0250000000000177
31
0
0
ARC
5
199
100
AcDbEntity
8
0
100
AcDbCircle
10
219.71875706341123
20
-3.0250000000000328
30
0
40
0.50000000004990552
210
0
220
0
230
1
100
AcDbArc
50
90.000809407305056
51
180
0
LWPOLYLINE
5
200
100
AcDbEntity
8
0
100
AcDbPolyline
90
8
70
1
43
0.0
10
160.18820000000002
20
-35.575000000000003
42
-0.41421356237309243
10
159.68819999999999
20
-35.075000000000003
10
159.68819999999999
20
-22.074999999999999
42
-0.41421356237311846
10
160.18820000000002
20
-21.575000000000003
10
173.18820000000002
20
-21.574999999999982
42
-0.41421356237310281
10
173.68820000000002
20
-22.074999999999999
10
173.68820000000005
20
-35.075000000000003
42
-0.41421356237312101
10
173.18820000000002
20
-35.575000000000003
0
LWPOLYLINE
5
201
100
AcDbEntity
8
0
100
AcDbPolyline
90
8
70
1
43
0.0
10
102.53820000000002
20
-22.074999999999999
10
102.53820000000002
20
-35.075000000000003
42
0.41421356237309243
10
103.03820000000002
20
-35.575000000000003
10
116.0382
20
-35.575000000000003
42
0.41421356237307161
10
116.53820000000002
20
-35.075000000000003
10
116.53820000000002
20
-22.074999999999999
42
0.41421356237307422
10
116.0382
20
-21.575000000000003
10
103.03820000000002
20
-21.575000000000003
42
0.41421356237310802
0
LWPOLYLINE
5
202
100
AcDbEntity
8
0
100
AcDbPolyline
90
8
70
1
43
0.0
10
144.61320000000003
20
-40.625
10
131.61320000000003
20
-40.625
42
0.41421356237308982
10
131.11320000000003
20
-41.125
10
131.11320000000003
20
-54.125000000000007
42
0.41421356237309503
10
131.61320000000003
20
-54.625
10
144.61320000000003
20
-54.625
42
0.41421356237310025
10
145.11320000000001
20
-54.125000000000007
10
145.11320000000003
20
-41.125
42
0.41421356237307422
0
LWPOLYLINE
5
203
100
AcDbEntity
8
0
100
AcDbPolyline
90
8
70
1
43
0.0
10
93.013200000000012
20
-41.125
10
93.013200000000026
20
-54.125000000000007
42
0.41421356237311585
10
93.513200000000012
20
-54.625
10
106.51320000000001
20
-54.625
42
0.41421356237308982
10
107.01320000000003
20
-54.125000000000007
10
107.01320000000003
20
-41.125
42
0.41421356237309503
10
106.51320000000001
20
-40.624999999999993
10
93.513200000000012
20
-40.625
42
0.41421356237308982
0
LWPOLYLINE
5
204
100
AcDbEntity
8
0
100
AcDbPolyline
90
8
70
1
43
0.0
10
73.963200000000015
20
-41.125
10
73.963200000000015
20
-54.125000000000007
42
0.41421356237309503
10
74.463200000000015
20
-54.625
10
87.463200000000029
20
-54.625
42
0.41421356237310025
10
87.963200000000015
20
-54.125000000000007
10
87.963200000000029
20
-41.125
42
0.41421356237307422
10
87.463200000000029
20
-40.625
10
74.463200000000015
20
-40.625
42
0.41421356237309503
0
LWPOLYLINE
5
205
100
AcDbEntity
8
0
100
AcDbPolyline
90
8
70
1
43
0.0
10
77.938199999999995
20
-21.575000000000003
10
64.938200000000009
20
-21.575000000000003
42
0.41421356237309503
10
64.438200000000009
20
-22.074999999999999
10
64.438200000000009
20
-35.075000000000003
42
0.41421356237309503
10
64.938200000000009
20
-35.575000000000003
10
77.938199999999995
20
-35.575000000000003
42
0.41421356237308204
10
78.438199999999995
20
-35.075000000000003
10
78.438199999999995
20
-22.074999999999999
42
0.41421356237309764
0
LWPOLYLINE
5
206
100
AcDbEntity
8
0
100
AcDbPolyline
90
8
70
1
43
0.0
10
26.838200000000001
20
-35.575000000000003
42
-0.41421356237309503
10
26.338200000000001
20
-35.075000000000003
10
26.338200000000001
20
-22.074999999999999
42
-0.41421356237309503
10
26.838200000000001
20
-21.575000000000003
10
39.838200000000001
20
-21.574999999999996
42
-0.41421356237310542
10
40.338200000000001
20
-22.074999999999999
10
40.338200000000001
20
-35.075000000000003
42
-0.41421356237310281
10
39.838200000000001
20
-35.575000000000003
0
LWPOLYLINE
5
207
100
AcDbEntity
8
0
100
AcDbPolyline
90
8
70
1
43
0.0
10
24.456257063411215
20
-73.675000000000011
42
-0.41421356237309503
10
23.956257063411215
20
-73.175000000000011
10
23.956257063411211
20
-60.175000000000018
42
-0.41421356237309764
10
24.456257063411215
20
-59.675000000000018
10
37.456257063411215
20
-59.675000000000026
42
-0.41421356237309764
10
37.956257063411208
20
-60.175000000000018
10
37.956257063411208
20
-73.175000000000011
42
-0.41421356237309503
10
37.456257063411215
20
-73.675000000000011
0
LWPOLYLINE
5
208
100
AcDbEntity
8
0
100
AcDbPolyline
90
8
70
1
43
0.0
10
2.5257000000000014
20
-3.0249999999999999
10
2.5257000000000014
20
-16.024999999999999
42
0.41421356237309537
10
3.0257000000000023
20
-16.524999999999999
10
16.025700000000001
20
-16.524999999999999
42
0.41421356237309764
10
16.525700000000001
20
-16.024999999999999
10
16.525700000000001
20
-3.0249999999999999
42
0.41421356237309309
10
16.025700000000001
20
-2.5249999999999999
10
3.0257000000000014
20
-2.5249999999999999
42
0.41421356237309437
0
LWPOLYLINE
5
209
100
AcDbEntity
8
0
100
AcDbPolyline
90
32
70
1
43
0.0
10
17.246350269189605
20
-0.52500000000000002
10
225.64114973081004
20
-0.52499999999999714
42
0.26794919243113757
10
227.37320053837902
20
0.47499999999997211
10
229.682601615138
20
4.4750000000000103
10
237.75439838486199
20
4.4750000000000112
10
240.0637994616211
20
0.47500000000006426
42
0.26794919243112275
10
241.79585026919
20
-0.52499999999999503
10
241.86250000000001
20
-0.52499999999999281
42
-0.41421356237309531
10
242.36250000000001
20
-1.0250000000000004
10
242.36250000000001
20
-75.174999999999997
42
-0.41421356237309503
10
241.86250000000001
20
-75.674999999999997
10
241.795850269189
20
-75.674999999999997
42
0.2679491924310114
10
240.06379946162099
20
-76.675000000000011
10
237.75439838486199
20
-80.675000000000011
10
229.682601615138
20
-80.675000000000011
10
227.37320053837891
20
-76.675000000000068
42
0.2679491924311212
10
225.64114973081004
20
-75.674999999999997
10
17.246350269189595
20
-75.67500000000004
42
0.26794919243112708
10
15.514299461620702
20
-76.675000000000011
10
13.204898384862203
20
-80.675000000000011
10
5.1331016151377504
20
-80.675000000000011
10
2.8237005383792502
20
-76.675000000000011
42
0.26794919243112325
10
1.0916497308103701
20
-75.674999999999997
10
1.0250000000005299
20
-75.675000000000011
42
-0.41421356237339968
10
0.52500000000000002
20
-75.174999999999997
10
0.52499999999999702
20
-1.0250000000000001
42
-0.41421356237309515
10
1.0249999999999999
20
-0.52499999999999702
10
1.0916497308103206
20
-0.52499999999999991
42
0.26794919243112941
10
2.8237005383792502
20
0.47499999999999987
10
5.1331016151377504
20
4.4749999999999996
10
13.2048983848623
20
4.4750000000000103
10
15.51429946162073
20
0.47500000000002196
42
0.26794919243112997
0
ENDSEC
0
SECTION
2
OBJECTS
0
DICTIONARY
5
C
100
AcDbDictionary
3
ACAD_GROUP
350
D
3
ACAD_MLINESTYLE
350
17
0
DICTIONARY
5
D
100
AcDbDictionary
0
DICTIONARY
5
1A
330
C
100
AcDbDictionary
0
DICTIONARY
5
17
100
AcDbDictionary
0
ENDSEC
0
EOF
