0
SECTION
2
HEADER
9
$INSUNITS
70
4
9
$ACADVER
1
AC1014
9
$HANDSEED
5
FFFF
0
ENDSEC
0
SECTION
2
TABLES
0
TABLE
2
VPORT
5
8
100
AcDbSymbolTable
0
ENDTAB
0
TABLE
2
LTYPE
5
5
100
AcDbSymbolTable
0
LTYPE
5
14
100
AcDbSymbolTableRecord
100
AcDbLinetypeTableRecord
2
BYBLOCK
70
0
0
LTYPE
5
15
100
AcDbSymbolTableRecord
100
AcDbLinetypeTableRecord
2
BYLAYER
70
0
0
ENDTAB
0
TABLE
2
LAYER
5
2
100
AcDbSymbolTable
70
2
0
LAYER
5
50
100
AcDbSymbolTableRecord
100
AcDbLayerTableRecord
2
0
70
0
6
CONTINUOUS
0
ENDTAB
0
TABLE
2
STYLE
5
3
100
AcDbSymbolTable
70
1
0
STYLE
5
11
100
AcDbSymbolTableRecord
100
AcDbTextStyleTableRecord
2
STANDARD
70
0
0
ENDTAB
0
TABLE
2
VIEW
5
6
100
AcDbSymbolTable
70
0
0
ENDTAB
0
TABLE
2
UCS
5
7
100
AcDbSymbolTable
70
0
0
ENDTAB
0
TABLE
2
APPID
5
9
100
AcDbSymbolTable
70
2
0
APPID
5
12
100
AcDbSymbolTableRecord
100
AcDbRegAppTableRecord
2
ACAD
70
0
0
ENDTAB
0
TABLE
2
DIMSTYLE
5
A
100
AcDbSymbolTable
70
1
0
ENDTAB
0
TABLE
2
BLOCK_RECORD
5
1
100
AcDbSymbolTable
70
1
0
BLOCK_RECORD
5
1F
100
AcDbSymbolTableRecord
100
AcDbBlockTableRecord
2
*MODEL_SPACE
0
BLOCK_RECORD
5
1B
100
AcDbSymbolTableRecord
100
AcDbBlockTableRecord
2
*PAPER_SPACE
0
ENDTAB
0
ENDSEC
0
SECTION
2
BLOCKS
0
BLOCK
5
20
100
AcDbEntity
100
AcDbBlockBegin
2
*MODEL_SPACE
0
ENDBLK
5
21
100
AcDbEntity
100
AcDbBlockEnd
0
BLOCK
5
1C
100
AcDbEntity
100
AcDbBlockBegin
2
*PAPER_SPACE
0
ENDBLK
5
1D
100
AcDbEntity
100
AcDbBlockEnd
0
ENDSEC
0
SECTION
2
ENTITIES
0
LWPOLYLINE
5
100
100
AcDbEntity
8
0
100
AcDbPolyline
90
20
70
1
43
0.0
10
-64.925000000000011
20
82.674999851319171
10
-64.925000000000011
20
79.174999851319171
42
0.41421356237311585
10
-64.425000000000011
20
78.674999851319171
10
-64.125000000000014
20
78.674999851319171
10
-64.125000000000014
20
73.674999851319171
10
-64.425000000000011
20
73.674999851319171
42
0.41421356237310542
10
-64.925000000000011
20
73.174999851319171
10
-64.925000000000011
20
69.674999851319171
42
0.41421356237310025
10
-64.425000000000011
20
69.174999851319171
10
-30.775000000000009
20
69.174999851319171
42
0.41421356237308721
10
-30.275000000000006
20
69.674999851319171
10
-30.275000000000006
20
73.174999851319171
42
0.41421356237309503
10
-30.775000000000009
20
73.674999851319171
10
-31.07500000000001
20
73.674999851319171
10
-31.07500000000001
20
78.674999851319157
10
-30.775000000000009
20
78.674999851319157
42
0.41421356237311063
10
-30.275000000000013
20
79.174999851319171
10
-30.275000000000006
20
82.674999851319171
42
0.41421356237309764
10
-30.775000000000013
20
83.174999851319171
10
-64.425000000000011
20
83.174999851319171
42
0.41421356237310025
0
LWPOLYLINE
5
101
100
AcDbEntity
8
0
100
AcDbPolyline
90
20
70
1
43
0.0
10
-98.262500000000017
20
54.124999851319174
10
-98.262500000000017
20
50.624999851319174
42
0.41421356237309503
10
-97.762500000000017
20
50.124999851319167
10
-83.162500000000023
20
50.124999851319174
42
0.414213562373069
10
-82.662500000000009
20
50.624999851319174
10
-82.662500000000009
20
54.124999851319174
42
0.41421356237307422
10
-83.162500000000023
20
54.624999851319174
10
-83.462500000000006
20
54.624999851319174
10
-83.462500000000006
20
59.624999851319167
10
-83.162500000000023
20
59.624999851319167
42
0.41421356237312623
10
-82.662500000000009
20
60.124999851319174
10
-82.662500000000009
20
63.624999851319181
42
0.4142135623730846
10
-83.162500000000023
20
64.124999851319174
10
-97.762500000000017
20
64.124999851319174
42
0.41421356237308982
10
-98.262500000000017
20
63.624999851319181
10
-98.262500000000017
20
60.124999851319174
42
0.41421356237310025
10
-97.762500000000017
20
59.624999851319174
10
-97.46250000000002
20
59.624999851319174
10
-97.46250000000002
20
54.624999851319174
10
-97.762500000000017
20
54.624999851319174
42
0.41421356237310542
0
LWPOLYLINE
5
102
100
AcDbEntity
8
0
100
AcDbPolyline
90
20
70
1
43
0.0
10
-29.206250000000004
20
35.074999851319177
10
-29.206250000000011
20
31.574999851319173
42
0.41421356237310802
10
-28.706250000000004
20
31.07499985131917
10
-14.106250000000005
20
31.07499985131917
42
0.41421356237308982
10
-13.606250000000005
20
31.574999851319173
10
-13.606250000000003
20
35.074999851319177
42
0.41421356237308593
10
-14.106250000000005
20
35.574999851319177
10
-14.406250000000005
20
35.574999851319177
10
-14.406250000000005
20
40.574999851319177
10
-14.106250000000005
20
40.574999851319177
42
0.41421356237310153
10
-13.606250000000006
20
41.07499985131917
10
-13.606250000000003
20
44.574999851319177
42
0.41421356237309892
10
-14.106250000000006
20
45.074999851319177
10
-28.706250000000004
20
45.074999851319177
42
0.41421356237309764
10
-29.206250000000004
20
44.574999851319177
10
-29.206250000000004
20
41.07499985131917
42
0.41421356237309503
10
-28.706250000000004
20
40.574999851319177
10
-28.40625
20
40.574999851319177
10
-28.40625
20
35.574999851319177
10
-28.706250000000004
20
35.574999851319177
42
0.41421356237309503
0
LWPOLYLINE
5
103
100
AcDbEntity
8
0
100
AcDbPolyline
90
20
70
1
43
0.0
10
-107.78750000000002
20
35.074999851319177
10
-107.78750000000002
20
31.574999851319173
42
0.41421356237309503
10
-107.28750000000002
20
31.074999851319163
10
-92.687500000000028
20
31.07499985131917
42
0.41421356237307683
10
-92.187500000000014
20
31.574999851319173
10
-92.187500000000014
20
35.074999851319177
42
0.41421356237307161
10
-92.687500000000028
20
35.574999851319177
10
-92.987500000000011
20
35.574999851319177
10
-92.987500000000011
20
40.574999851319177
10
-92.687500000000028
20
40.574999851319177
42
0.41421356237308982
10
-92.187500000000014
20
41.07499985131917
10
-92.187500000000014
20
44.574999851319177
42
0.4142135623730846
10
-92.687500000000028
20
45.074999851319177
10
-107.28750000000002
20
45.074999851319177
42
0.41421356237310542
10
-107.78750000000002
20
44.574999851319177
10
-107.78750000000002
20
41.07499985131917
42
0.41421356237309503
10
-107.28750000000002
20
40.574999851319177
10
-106.98750000000003
20
40.574999851319177
10
-106.98750000000003
20
35.574999851319177
10
-107.28750000000002
20
35.574999851319177
42
0.41421356237310542
0
LWPOLYLINE
5
104
100
AcDbEntity
8
0
100
AcDbPolyline
90
20
70
1
43
0.0
10
-83.975000000000009
20
16.024999851319169
10
-83.975000000000009
20
12.524999851319169
42
0.41421356237309631
10
-83.474999999999994
20
12.024999851319158
10
-68.875
20
12.024999851319169
42
0.4142135623730937
10
-68.375
20
12.524999851319169
10
-68.375
20
16.024999851319169
42
0.41421356237308721
10
-68.875
20
16.524999851319169
10
-69.175000000000011
20
16.524999851319169
10
-69.175000000000011
20
21.524999851319166
10
-68.875
20
21.524999851319166
42
0.41421356237309503
10
-68.375
20
22.024999851319166
10
-68.375
20
25.524999851319173
42
0.41421356237310802
10
-68.875000000000014
20
26.024999851319173
10
-83.474999999999994
20
26.024999851319173
42
0.41421356237310542
10
-83.975000000000009
20
25.524999851319173
10
-83.975000000000009
20
22.024999851319169
42
0.41421356237309243
10
-83.474999999999994
20
21.524999851319173
10
-83.175000000000011
20
21.524999851319173
10
-83.175000000000011
20
16.524999851319169
10
-83.474999999999994
20
16.524999851319169
42
0.41421356237310675
0
LWPOLYLINE
5
105
100
AcDbEntity
8
0
100
AcDbPolyline
90
20
70
1
43
0.0
10
-26.825000000000006
20
16.024999851319169
10
-26.82500000000001
20
12.524999851319169
42
0.41421356237310414
10
-26.325000000000006
20
12.024999851319167
10
-11.725000000000005
20
12.024999851319169
42
0.41421356237308982
10
-11.225000000000005
20
12.524999851319169
10
-11.225000000000003
20
16.024999851319169
42
0.4142135623730937
10
-11.725000000000005
20
16.524999851319169
10
-12.025000000000006
20
16.524999851319169
10
-12.025000000000006
20
21.524999851319166
10
-11.725000000000005
20
21.524999851319166
42
0.41421356237309631
10
-11.225000000000007
20
22.024999851319166
10
-11.225000000000003
20
25.524999851319173
42
0.41421356237309764
10
-11.725000000000009
20
26.024999851319173
10
-26.325000000000006
20
26.024999851319173
42
0.41421356237309503
10
-26.825000000000006
20
25.524999851319173
10
-26.825000000000006
20
22.024999851319169
42
0.41421356237309503
10
-26.325000000000006
20
21.524999851319173
10
-26.025000000000006
20
21.524999851319173
10
-26.025000000000006
20
16.524999851319169
10
-26.325000000000006
20
16.524999851319169
42
0.41421356237309503
0
LWPOLYLINE
5
106
100
AcDbEntity
8
0
100
AcDbPolyline
90
20
70
1
43
0.0
10
-103.02500000000002
20
16.024999851319169
10
-103.02500000000002
20
12.524999851319169
42
0.41421356237309631
10
-102.52500000000001
20
12.024999851319158
10
-87.925000000000026
20
12.024999851319169
42
0.41421356237307422
10
-87.425000000000011
20
12.524999851319169
10
-87.425000000000011
20
16.024999851319169
42
0.41421356237307161
10
-87.925000000000026
20
16.524999851319169
10
-88.225000000000023
20
16.524999851319169
10
-88.225000000000023
20
21.524999851319166
10
-87.925000000000026
20
21.524999851319166
42
0.41421356237313145
10
-87.425000000000011
20
22.024999851319166
10
-87.425000000000011
20
25.524999851319173
42
0.4142135623730846
10
-87.925000000000026
20
26.024999851319173
10
-102.52500000000001
20
26.024999851319173
42
0.41421356237310542
10
-103.02500000000002
20
25.524999851319173
10
-103.02500000000002
20
22.024999851319169
42
0.41421356237309243
10
-102.52500000000001
20
21.524999851319173
10
-102.22500000000002
20
21.524999851319173
10
-102.22500000000002
20
16.524999851319169
10
-102.52500000000001
20
16.524999851319169
42
0.41421356237310675
0
LWPOLYLINE
5
107
100
AcDbEntity
8
0
100
AcDbPolyline
90
20
70
1
43
0.0
10
-88.737500000000011
20
35.074999851319177
10
-88.737500000000011
20
31.574999851319173
42
0.41421356237309503
10
-88.237500000000011
20
31.074999851319163
10
-73.637500000000003
20
31.07499985131917
42
0.41421356237308721
10
-73.137500000000003
20
31.574999851319173
10
-73.137500000000003
20
35.074999851319177
42
0.41421356237309243
10
-73.637500000000003
20
35.574999851319177
10
-73.9375
20
35.574999851319177
10
-73.9375
20
40.574999851319177
10
-73.637500000000003
20
40.574999851319177
42
0.41421356237311063
10
-73.137500000000003
20
41.07499985131917
10
-73.137500000000003
20
44.574999851319177
42
0.41421356237310542
10
-73.637500000000017
20
45.074999851319177
10
-88.237500000000011
20
45.074999851319177
42
0.41421356237310542
10
-88.737500000000011
20
44.574999851319177
10
-88.737500000000011
20
41.07499985131917
42
0.41421356237309503
10
-88.237500000000011
20
40.574999851319177
10
-87.937500000000014
20
40.574999851319177
10
-87.937500000000014
20
35.574999851319177
10
-88.237500000000011
20
35.574999851319177
42
0.41421356237310542
0
LWPOLYLINE
5
108
100
AcDbEntity
8
0
100
AcDbPolyline
90
20
70
1
43
0.0
10
-33.968750000000007
20
54.124999851319174
10
-33.968750000000007
20
50.624999851319174
42
0.41421356237309503
10
-33.468750000000007
20
50.124999851319174
10
-18.868750000000006
20
50.124999851319174
42
0.41421356237308721
10
-18.368750000000006
20
50.624999851319174
10
-18.368750000000002
20
54.124999851319174
42
0.41421356237308982
10
-18.868750000000006
20
54.624999851319174
10
-19.168750000000006
20
54.624999851319174
10
-19.168750000000006
20
59.624999851319167
10
-18.868750000000006
20
59.624999851319167
42
0.41421356237310936
10
-18.368750000000006
20
60.124999851319174
10
-18.368750000000002
20
63.624999851319181
42
0.41421356237309631
10
-18.868750000000006
20
64.124999851319174
10
-33.468750000000007
20
64.124999851319174
42
0.41421356237309503
10
-33.968750000000007
20
63.624999851319181
10
-33.968750000000007
20
60.124999851319174
42
0.41421356237309764
10
-33.468750000000007
20
59.624999851319174
10
-33.168750000000003
20
59.624999851319174
10
-33.168750000000003
20
54.624999851319174
10
-33.468750000000007
20
54.624999851319174
42
0.41421356237309764
0
LWPOLYLINE
5
109
100
AcDbEntity
8
0
100
AcDbPolyline
90
20
70
1
43
0.0
10
-117.31250000000001
20
54.124999851319174
10
-117.31250000000001
20
50.624999851319174
42
0.4142135623730846
10
-116.8125
20
50.124999851319181
10
-102.21250000000001
20
50.124999851319174
42
0.41421356237308982
10
-101.71250000000001
20
50.624999851319174
10
-101.71250000000001
20
54.124999851319174
42
0.41421356237310542
10
-102.21250000000001
20
54.624999851319174
10
-102.5125
20
54.624999851319174
10
-102.5125
20
59.624999851319167
10
-102.21250000000001
20
59.624999851319167
42
0.41421356237312101
10
-101.71250000000001
20
60.124999851319174
10
-101.71250000000001
20
63.624999851319181
42
0.41421356237310542
10
-102.21250000000001
20
64.124999851319174
10
-116.8125
20
64.124999851319174
42
0.41421356237310025
10
-117.31250000000001
20
63.624999851319181
10
-117.31250000000001
20
60.124999851319174
42
0.41421356237307944
10
-116.8125
20
59.624999851319174
10
-116.51250000000002
20
59.624999851319174
10
-116.51250000000002
20
54.624999851319174
10
-116.8125
20
54.624999851319174
42
0.41421356237310542
0
LWPOLYLINE
5
110
100
AcDbEntity
8
0
100
AcDbPolyline
90
20
70
1
43
0.0
10
-83.975000000000009
20
82.674999851319171
10
-83.975000000000009
20
79.174999851319171
42
0.41421356237310025
10
-83.474999999999994
20
78.674999851319171
10
-83.175000000000011
20
78.674999851319171
10
-83.175000000000011
20
73.674999851319171
10
-83.474999999999994
20
73.674999851319171
42
0.41421356237310542
10
-83.975000000000009
20
73.174999851319171
10
-83.975000000000009
20
69.674999851319171
42
0.41421356237309503
10
-83.474999999999994
20
69.174999851319157
10
-66.493750000000006
20
69.174999851319171
42
0.41421356237309503
10
-65.993750000000006
20
69.674999851319171
10
-65.993750000000006
20
73.174999851319171
42
0.41421356237309503
10
-66.493750000000006
20
73.674999851319171
10
-66.793750000000003
20
73.674999851319171
10
-66.793750000000003
20
78.674999851319157
10
-66.493750000000006
20
78.674999851319157
42
0.41421356237310025
10
-65.993750000000006
20
79.174999851319171
10
-65.993750000000006
20
82.674999851319171
42
0.41421356237310025
10
-66.493750000000006
20
83.174999851319171
10
-83.474999999999994
20
83.174999851319171
42
0.41421356237309503
0
LWPOLYLINE
5
111
100
AcDbEntity
8
0
100
AcDbPolyline
90
20
70
1
43
0.0
10
-29.206250000000004
20
73.174999851319171
10
-29.206250000000011
20
69.674999851319171
42
0.41421356237308982
10
-28.706250000000004
20
69.174999851319171
10
-11.725000000000005
20
69.174999851319171
42
0.41421356237308721
10
-11.225000000000005
20
69.674999851319171
10
-11.225000000000003
20
73.174999851319171
42
0.41421356237308982
10
-11.725000000000005
20
73.674999851319171
10
-12.025000000000006
20
73.674999851319171
10
-12.025000000000006
20
78.674999851319157
10
-11.725000000000005
20
78.674999851319157
42
0.41421356237310936
10
-11.225000000000007
20
79.174999851319171
10
-11.225000000000003
20
82.674999851319171
42
0.41421356237309764
10
-11.725000000000009
20
83.174999851319171
10
-28.706250000000004
20
83.174999851319171
42
0.41421356237309243
10
-29.206250000000004
20
82.674999851319171
10
-29.206250000000004
20
79.174999851319171
42
0.41421356237309764
10
-28.706250000000004
20
78.674999851319171
10
-28.40625
20
78.674999851319171
10
-28.40625
20
73.674999851319171
10
-28.706250000000004
20
73.674999851319171
42
0.41421356237309764
0
LWPOLYLINE
5
112
100
AcDbEntity
8
0
100
AcDbPolyline
90
20
70
1
43
0.0
10
-79.212500000000006
20
54.124999851319174
10
-79.21250000000002
20
50.624999851319174
42
0.41421356237309503
10
-78.71250000000002
20
50.124999851319174
10
-64.112500000000011
20
50.124999851319174
42
0.41421356237309503
10
-63.612500000000011
20
50.624999851319174
10
-63.612500000000011
20
54.124999851319174
42
0.41421356237308982
10
-64.112500000000011
20
54.624999851319174
10
-64.412500000000009
20
54.624999851319174
10
-64.412500000000009
20
59.624999851319167
10
-64.112500000000011
20
59.624999851319167
42
0.41421356237310542
10
-63.612500000000011
20
60.124999851319174
10
-63.612500000000011
20
63.624999851319181
42
0.41421356237309503
10
-64.112500000000011
20
64.124999851319174
10
-78.71250000000002
20
64.124999851319174
42
0.41421356237309503
10
-79.212500000000006
20
63.624999851319181
10
-79.212500000000006
20
60.124999851319174
42
0.41421356237307422
10
-78.71250000000002
20
59.624999851319174
10
-78.412500000000009
20
59.624999851319174
10
-78.412500000000009
20
54.624999851319174
10
-78.71250000000002
20
54.624999851319174
42
0.41421356237310542
0
LWPOLYLINE
5
113
100
AcDbEntity
8
0
100
AcDbPolyline
90
20
70
1
43
0.0
10
-50.637500000000003
20
35.074999851319177
10
-50.637500000000003
20
31.574999851319173
42
0.41421356237311063
10
-50.137500000000003
20
31.07499985131917
10
-35.537500000000001
20
31.07499985131917
42
0.41421356237309243
10
-35.037500000000001
20
31.574999851319173
10
-35.037500000000001
20
35.074999851319177
42
0.41421356237309243
10
-35.537500000000001
20
35.574999851319177
10
-35.837500000000006
20
35.574999851319177
10
-35.837500000000006
20
40.574999851319177
10
-35.537500000000001
20
40.574999851319177
42
0.41421356237310025
10
-35.037500000000001
20
41.07499985131917
10
-35.037500000000001
20
44.574999851319177
42
0.41421356237310281
10
-35.537500000000001
20
45.074999851319177
10
-50.137500000000003
20
45.074999851319177
42
0.41421356237310542
10
-50.637500000000003
20
44.574999851319177
10
-50.637500000000003
20
41.07499985131917
42
0.41421356237311063
10
-50.137500000000003
20
40.574999851319177
10
-49.837500000000006
20
40.574999851319177
10
-49.837500000000006
20
35.574999851319177
10
-50.137500000000003
20
35.574999851319177
42
0.41421356237309764
0
LWPOLYLINE
5
114
100
AcDbEntity
8
0
100
AcDbPolyline
90
20
70
1
43
0.0
10
-126.83750000000002
20
35.074999851319177
10
-126.83750000000002
20
31.574999851319173
42
0.41421356237308982
10
-126.33750000000001
20
31.074999851319181
10
-111.73750000000001
20
31.07499985131917
42
0.41421356237310802
10
-111.23750000000001
20
31.574999851319173
10
-111.23750000000001
20
35.074999851319177
42
0.41421356237309243
10
-111.73750000000001
20
35.574999851319177
10
-112.03750000000001
20
35.574999851319177
10
-112.03750000000001
20
40.574999851319177
10
-111.73750000000001
20
40.574999851319177
42
0.41421356237311063
10
-111.23750000000001
20
41.07499985131917
10
-111.23750000000001
20
44.574999851319177
42
0.41421356237310542
10
-111.73750000000001
20
45.074999851319177
10
-126.33750000000001
20
45.074999851319177
42
0.41421356237310542
10
-126.83750000000002
20
44.574999851319177
10
-126.83750000000002
20
41.07499985131917
42
0.41421356237307422
10
-126.33750000000001
20
40.574999851319177
10
-126.03750000000002
20
40.574999851319177
10
-126.03750000000002
20
35.574999851319177
10
-126.33750000000001
20
35.574999851319177
42
0.41421356237310025
0
LWPOLYLINE
5
115
100
AcDbEntity
8
0
100
AcDbPolyline
90
20
70
1
43
0.0
10
-64.925000000000011
20
16.024999851319169
10
-64.925000000000011
20
12.524999851319169
42
0.41421356237310936
10
-64.425000000000011
20
12.024999851319167
10
-49.82500000000001
20
12.024999851319169
42
0.4142135623730937
10
-49.32500000000001
20
12.524999851319169
10
-49.32500000000001
20
16.024999851319169
42
0.41421356237308721
10
-49.82500000000001
20
16.524999851319169
10
-50.125000000000014
20
16.524999851319169
10
-50.125000000000014
20
21.524999851319166
10
-49.82500000000001
20
21.524999851319166
42
0.41421356237309503
10
-49.32500000000001
20
22.024999851319166
10
-49.32500000000001
20
25.524999851319173
42
0.41421356237310802
10
-49.825000000000017
20
26.024999851319173
10
-64.425000000000011
20
26.024999851319173
42
0.41421356237309764
10
-64.925000000000011
20
25.524999851319173
10
-64.925000000000011
20
22.024999851319169
42
0.41421356237310025
10
-64.425000000000011
20
21.524999851319173
10
-64.125000000000014
20
21.524999851319173
10
-64.125000000000014
20
16.524999851319169
10
-64.425000000000011
20
16.524999851319169
42
0.41421356237309631
0
LWPOLYLINE
5
116
100
AcDbEntity
8
0
100
AcDbPolyline
90
20
70
1
43
0.0
10
-45.875000000000014
20
16.024999851319169
10
-45.875000000000014
20
12.524999851319169
42
0.41421356237309892
10
-45.375000000000014
20
12.024999851319167
10
-30.775000000000009
20
12.024999851319169
42
0.41421356237308854
10
-30.275000000000006
20
12.524999851319169
10
-30.275000000000006
20
16.024999851319169
42
0.41421356237308982
10
-30.775000000000009
20
16.524999851319169
10
-31.07500000000001
20
16.524999851319169
10
-31.07500000000001
20
21.524999851319166
10
-30.775000000000009
20
21.524999851319166
42
0.41421356237309503
10
-30.275000000000013
20
22.024999851319166
10
-30.275000000000006
20
25.524999851319173
42
0.41421356237309764
10
-30.775000000000013
20
26.024999851319173
10
-45.375000000000014
20
26.024999851319173
42
0.41421356237309764
10
-45.875000000000014
20
25.524999851319173
10
-45.875000000000014
20
22.024999851319169
42
0.41421356237309764
10
-45.375000000000014
20
21.524999851319173
10
-45.07500000000001
20
21.524999851319173
10
-45.07500000000001
20
16.524999851319169
10
-45.375000000000014
20
16.524999851319169
42
0.41421356237309631
0
LWPOLYLINE
5
117
100
AcDbEntity
8
0
100
AcDbPolyline
90
20
70
1
43
0.0
10
-122.07500000000002
20
16.024999851319169
10
-122.07500000000002
20
12.524999851319169
42
0.41421356237308721
10
-121.575
20
12.024999851319176
10
-106.97500000000002
20
12.024999851319169
42
0.41421356237309503
10
-106.47500000000001
20
12.524999851319169
10
-106.47500000000001
20
16.024999851319169
42
0.41421356237309243
10
-106.97500000000002
20
16.524999851319169
10
-107.27500000000001
20
16.524999851319169
10
-107.27500000000001
20
21.524999851319166
10
-106.97500000000002
20
21.524999851319166
42
0.41421356237313145
10
-106.47500000000001
20
22.024999851319166
10
-106.47500000000001
20
25.524999851319173
42
0.41421356237310542
10
-106.97500000000002
20
26.024999851319173
10
-121.575
20
26.024999851319173
42
0.41421356237310025
10
-122.07500000000002
20
25.524999851319173
10
-122.07500000000002
20
22.024999851319169
42
0.41421356237307161
10
-121.575
20
21.524999851319173
10
-121.27500000000001
20
21.524999851319173
10
-121.27500000000001
20
16.524999851319169
10
-121.575
20
16.524999851319169
42
0.41421356237308982
0
LWPOLYLINE
5
118
100
AcDbEntity
8
0
100
AcDbPolyline
90
20
70
1
43
0.0
10
-69.6875
20
35.074999851319177
10
-69.687500000000014
20
31.574999851319173
42
0.41421356237310281
10
-69.187500000000014
20
31.07499985131917
10
-54.587500000000006
20
31.07499985131917
42
0.41421356237309503
10
-54.087500000000006
20
31.574999851319173
10
-54.087500000000006
20
35.074999851319177
42
0.41421356237310281
10
-54.587500000000006
20
35.574999851319177
10
-54.887500000000003
20
35.574999851319177
10
-54.887500000000003
20
40.574999851319177
10
-54.587500000000006
20
40.574999851319177
42
0.41421356237311063
10
-54.087500000000006
20
41.07499985131917
10
-54.087500000000006
20
44.574999851319177
42
0.41421356237310542
10
-54.587500000000006
20
45.074999851319177
10
-69.187500000000014
20
45.074999851319177
42
0.41421356237310542
10
-69.6875
20
44.574999851319177
10
-69.6875
20
41.07499985131917
42
0.4142135623730846
10
-69.187500000000014
20
40.574999851319177
10
-68.887500000000003
20
40.574999851319177
10
-68.887500000000003
20
35.574999851319177
10
-69.187500000000014
20
35.574999851319177
42
0.41421356237309764
0
LWPOLYLINE
5
119
100
AcDbEntity
8
0
100
AcDbPolyline
90
20
70
1
43
0.0
10
-60.162500000000009
20
54.124999851319174
10
-60.162500000000009
20
50.624999851319174
42
0.41421356237310025
10
-59.662500000000009
20
50.124999851319174
10
-45.062500000000007
20
50.124999851319174
42
0.41421356237309503
10
-44.562500000000007
20
50.624999851319174
10
-44.562500000000007
20
54.124999851319174
42
0.41421356237309503
10
-45.062500000000007
20
54.624999851319174
10
-45.362500000000011
20
54.624999851319174
10
-45.362500000000011
20
59.624999851319167
10
-45.062500000000007
20
59.624999851319167
42
0.41421356237310025
10
-44.562500000000007
20
60.124999851319174
10
-44.562500000000007
20
63.624999851319181
42
0.41421356237310025
10
-45.062500000000014
20
64.124999851319174
10
-59.662500000000009
20
64.124999851319174
42
0.41421356237309503
10
-60.162500000000009
20
63.624999851319181
10
-60.162500000000009
20
60.124999851319174
42
0.41421356237311585
10
-59.662500000000009
20
59.624999851319174
10
-59.362500000000011
20
59.624999851319174
10
-59.362500000000011
20
54.624999851319174
10
-59.662500000000009
20
54.624999851319174
42
0.41421356237310542
0
LWPOLYLINE
5
120
100
AcDbEntity
8
0
100
AcDbPolyline
90
20
70
1
43
0.0
10
-136.36250000000001
20
54.124999851319174
10
-136.36250000000001
20
50.624999851319174
42
0.41421356237309503
10
-135.86250000000001
20
50.124999851319167
10
-121.2625
20
50.124999851319174
42
0.414213562373069
10
-120.7625
20
50.624999851319174
10
-120.7625
20
54.124999851319174
42
0.41421356237307422
10
-121.2625
20
54.624999851319174
10
-121.5625
20
54.624999851319174
10
-121.5625
20
59.624999851319167
10
-121.2625
20
59.624999851319167
42
0.41421356237312623
10
-120.7625
20
60.124999851319174
10
-120.7625
20
63.624999851319181
42
0.4142135623730846
10
-121.2625
20
64.124999851319174
10
-135.86250000000001
20
64.124999851319174
42
0.41421356237308982
10
-136.36250000000001
20
63.624999851319181
10
-136.36250000000001
20
60.124999851319174
42
0.41421356237310025
10
-135.86250000000001
20
59.624999851319174
10
-135.5625
20
59.624999851319174
10
-135.5625
20
54.624999851319174
10
-135.86250000000001
20
54.624999851319174
42
0.41421356237310542
0
LWPOLYLINE
5
121
100
AcDbEntity
8
0
100
AcDbPolyline
90
14
70
1
43
0.0
10
-98.531250000000028
20
67.174999999999997
10
-91.531250000000028
20
67.174999999999997
42
0.41421356237309503
10
-91.031250000000028
20
67.674999999999997
10
-91.031250000000028
20
82.674999999999997
42
0.41421356237309503
10
-91.531250000000028
20
83.175000000000011
10
-122.73125000000002
20
83.175000000000011
42
0.41421356237309503
10
-123.23125000000003
20
82.674999999999997
10
-123.23125000000003
20
67.674999999999997
42
0.41421356237309503
10
-122.73125000000002
20
67.174999999999997
10
-115.73125000000003
20
67.174999999999997
42
0.41421356237309503
10
-115.23125000000002
20
67.674999999999997
10
-115.23125000000002
20
69.174999999999997
10
-99.031250000000028
20
69.174999999999997
10
-99.031250000000028
20
67.674999999999997
42
0.41421356237309503
0
CIRCLE
5
122
100
AcDbEntity
8
0
100
AcDbCircle
10
-12.175000000000002
20
89.025000000000034
30
0
40
1.25
210
0
220
-0
230
1
0
CIRCLE
5
123
100
AcDbEntity
8
0
100
AcDbCircle
10
-135.41249988517561
20
89.02499999658113
30
0
40
1.25
210
0
220
-0
230
1
0
CIRCLE
5
124
100
AcDbEntity
8
0
100
AcDbCircle
10
-12.175000000000002
20
6.1750000000000078
30
0
40
1.25
210
0
220
-0
230
1
0
CIRCLE
5
125
100
AcDbEntity
8
0
100
AcDbCircle
10
-135.41250000258631
20
6.1749999965811195
30
0
40
1.25
210
0
220
-0
230
1
0
LWPOLYLINE
5
126
100
AcDbEntity
8
0
100
AcDbPolyline
90
16
70
1
43
0.0
10
-14.850000000000001
20
89.025000000000048
42
-0.99999999999999989
10
-9.5000000000000036
20
89.02500000000002
10
-9.5000000000000036
20
6.1750000000000016
42
-0.99999999999999989
10
-14.850000000000001
20
6.1750000000000149
10
-14.850000000000003
20
6.9999998498532268
42
0.41421355634459456
10
-17.34999994854352
20
9.4999998498532268
10
-130.23750001071303
20
9.4999999486510802
42
0.41421356142098764
10
-132.7375000025863
20
6.9999999486510767
10
-132.7375000025863
20
6.1749999965811249
42
-0.99999999999999989
10
-138.0875000025863
20
6.1749999965811142
10
-138.08749988517562
20
89.024999995613854
42
-0.99999999999999989
10
-132.73749988517562
20
89.024999997548406
10
-132.73749988781222
20
88.200000007989729
42
0.41421356330914844
10
-130.23749988781222
20
85.700000000000003
10
-17.350000000000001
20
85.700000000000017
42
0.41421356237309997
10
-14.850000000000001
20
88.200000000000003
0
ENDSEC
0
SECTION
2
OBJECTS
0
DICTIONARY
5
C
100
AcDbDictionary
3
ACAD_GROUP
350
D
3
ACAD_MLINESTYLE
350
17
0
DICTIONARY
5
D
100
AcDbDictionary
0
DICTIONARY
5
1A
330
C
100
AcDbDictionary
0
DICTIONARY
5
17
100
AcDbDictionary
0
ENDSEC
0
EOF
