0
SECTION
2
HEADER
9
$INSUNITS
70
4
9
$ACADVER
1
AC1014
9
$HANDSEED
5
FFFF
0
ENDSEC
0
SECTION
2
TABLES
0
TABLE
2
VPORT
5
8
100
AcDbSymbolTable
0
ENDTAB
0
TABLE
2
LTYPE
5
5
100
AcDbSymbolTable
0
LTYPE
5
14
100
AcDbSymbolTableRecord
100
AcDbLinetypeTableRecord
2
BYBLOCK
70
0
0
LTYPE
5
15
100
AcDbSymbolTableRecord
100
AcDbLinetypeTableRecord
2
BYLAYER
70
0
0
ENDTAB
0
TABLE
2
LAYER
5
2
100
AcDbSymbolTable
70
2
0
LAYER
5
50
100
AcDbSymbolTableRecord
100
AcDbLayerTableRecord
2
0
70
0
6
CONTINUOUS
0
ENDTAB
0
TABLE
2
STYLE
5
3
100
AcDbSymbolTable
70
1
0
STYLE
5
11
100
AcDbSymbolTableRecord
100
AcDbTextStyleTableRecord
2
STANDARD
70
0
0
ENDTAB
0
TABLE
2
VIEW
5
6
100
AcDbSymbolTable
70
0
0
ENDTAB
0
TABLE
2
UCS
5
7
100
AcDbSymbolTable
70
0
0
ENDTAB
0
TABLE
2
APPID
5
9
100
AcDbSymbolTable
70
2
0
APPID
5
12
100
AcDbSymbolTableRecord
100
AcDbRegAppTableRecord
2
ACAD
70
0
0
ENDTAB
0
TABLE
2
DIMSTYLE
5
A
100
AcDbSymbolTable
70
1
0
ENDTAB
0
TABLE
2
BLOCK_RECORD
5
1
100
AcDbSymbolTable
70
1
0
BLOCK_RECORD
5
1F
100
AcDbSymbolTableRecord
100
AcDbBlockTableRecord
2
*MODEL_SPACE
0
BLOCK_RECORD
5
1B
100
AcDbSymbolTableRecord
100
AcDbBlockTableRecord
2
*PAPER_SPACE
0
ENDTAB
0
ENDSEC
0
SECTION
2
BLOCKS
0
BLOCK
5
20
100
AcDbEntity
100
AcDbBlockBegin
2
*MODEL_SPACE
0
ENDBLK
5
21
100
AcDbEntity
100
AcDbBlockEnd
0
BLOCK
5
1C
100
AcDbEntity
100
AcDbBlockBegin
2
*PAPER_SPACE
0
ENDBLK
5
1D
100
AcDbEntity
100
AcDbBlockEnd
0
ENDSEC
0
SECTION
2
ENTITIES
0
LWPOLYLINE
5
100
100
AcDbEntity
8
0
100
AcDbPolyline
90
52
70
1
43
0.0
10
13.605400000000001
20
15.368100000000005
10
13.605400000000001
20
16.488599999999998
10
10.306300000000002
20
16.488599999999998
10
10.306300000000002
20
15.368100000000005
10
8.6306399999999996
20
15.368100000000005
10
8.6306399999999996
20
11.937899999999999
10
7.7556100000000017
20
11.937899999999999
10
7.7556100000000017
20
9.1377600000000037
10
8.6306399999999996
20
9.1377600000000037
10
8.6306399999999996
20
2.6676999999999973
10
10.306300000000002
20
2.6676999999999973
10
10.306300000000002
20
1.8879100000000015
10
13.605400000000001
20
1.8879100000000015
10
13.605400000000001
20
2.6676999999999973
10
15.2811
20
2.6676999999999973
10
15.2811
20
7.338060000000004
10
16.1051
20
7.338060000000004
10
16.1051
20
3.2383900000000043
10
16.905799999999999
20
3.2383900000000043
10
16.905799999999999
20
2.6375599999999988
10
30.905300000000004
20
2.6375599999999988
10
30.905300000000004
20
3.2383900000000043
10
31.705900000000003
20
3.2383900000000043
10
31.705900000000003
20
7.338060000000004
10
32.531300000000002
20
7.338060000000004
10
32.531300000000002
20
2.6676999999999973
10
34.2057
20
2.6676999999999973
10
34.2057
20
1.8879100000000015
10
37.505899999999997
20
1.8879100000000015
10
37.505899999999997
20
2.6676999999999973
10
39.180599999999998
20
2.6676999999999973
10
39.180599999999998
20
9.1377600000000037
10
40.055399999999999
20
9.1377600000000037
10
40.055399999999999
20
11.937899999999999
10
39.180599999999998
20
11.937899999999999
10
39.180599999999998
20
15.368100000000005
10
37.505899999999997
20
15.368100000000005
10
37.505899999999997
20
16.488599999999998
10
34.2057
20
16.488599999999998
10
34.2057
20
15.368100000000005
10
32.531300000000002
20
15.368100000000005
10
32.531300000000002
20
11.937899999999999
10
31.705900000000003
20
11.937899999999999
10
31.705900000000003
20
16.039000000000001
10
30.905300000000004
20
16.039000000000001
10
30.905300000000004
20
16.638400000000004
10
16.905799999999999
20
16.638400000000004
10
16.905799999999999
20
16.039000000000001
10
16.1051
20
16.039000000000001
10
16.1051
20
11.937899999999999
10
15.2811
20
11.937899999999999
10
15.2811
20
15.368100000000005
0
LWPOLYLINE
5
101
100
AcDbEntity
8
0
100
AcDbPolyline
90
12
70
1
43
0.0
10
119.01100000000001
20
73.788399999999996
10
105.012
20
73.788399999999996
10
105.012
20
73.187600000000003
10
104.21100000000001
20
73.187600000000003
10
104.21100000000001
20
60.388500000000001
10
105.012
20
60.388500000000001
10
105.012
20
59.787700000000008
10
119.01100000000001
20
59.787700000000008
10
119.01100000000001
20
60.388500000000001
10
119.81200000000001
20
60.388500000000001
10
119.81200000000001
20
73.187600000000003
10
119.01100000000001
20
73.187600000000003
0
LWPOLYLINE
5
102
100
AcDbEntity
8
0
100
AcDbPolyline
90
12
70
1
43
0.0
10
92.819000000000003
20
73.788399999999996
10
78.818299999999979
20
73.788399999999996
10
78.818299999999979
20
73.187600000000003
10
78.018900000000002
20
73.187600000000003
10
78.018900000000002
20
60.388500000000001
10
78.818299999999979
20
60.388500000000001
10
78.818299999999979
20
59.787700000000008
10
92.819000000000003
20
59.787700000000008
10
92.819000000000003
20
60.388500000000001
10
93.618399999999994
20
60.388500000000001
10
93.618399999999994
20
73.187600000000003
10
92.819000000000003
20
73.187600000000003
0
LWPOLYLINE
5
103
100
AcDbEntity
8
0
100
AcDbPolyline
90
12
70
1
43
0.0
10
73.769000000000034
20
73.788399999999996
10
59.768300000000004
20
73.788399999999996
10
59.768300000000004
20
73.187600000000003
10
58.968899999999998
20
73.187600000000003
10
58.968899999999998
20
60.388500000000001
10
59.768300000000004
20
60.388500000000001
10
59.768300000000004
20
59.787700000000008
10
73.769000000000034
20
59.787700000000008
10
73.769000000000034
20
60.388500000000001
10
74.568399999999997
20
60.388500000000001
10
74.568399999999997
20
73.187600000000003
10
73.769000000000034
20
73.187600000000003
0
LWPOLYLINE
5
104
100
AcDbEntity
8
0
100
AcDbPolyline
90
12
70
1
43
0.0
10
54.718999999999994
20
73.788399999999996
10
40.718299999999999
20
73.788399999999996
10
40.718299999999999
20
73.187600000000003
10
39.918900000000001
20
73.187600000000003
10
39.918900000000001
20
60.388500000000001
10
40.718299999999999
20
60.388500000000001
10
40.718299999999999
20
59.787700000000008
10
54.718999999999994
20
59.787700000000008
10
54.718999999999994
20
60.388500000000001
10
55.5184
20
60.388500000000001
10
55.5184
20
73.187600000000003
10
54.718999999999994
20
73.187600000000003
0
LWPOLYLINE
5
105
100
AcDbEntity
8
0
100
AcDbPolyline
90
12
70
1
43
0.0
10
35.669000000000004
20
73.788399999999996
10
21.668300000000002
20
73.788399999999996
10
21.668300000000002
20
73.187600000000003
10
20.869
20
73.187600000000003
10
20.869
20
60.388500000000001
10
21.668300000000002
20
60.388500000000001
10
21.668300000000002
20
59.787700000000008
10
35.669000000000004
20
59.787700000000008
10
35.669000000000004
20
60.388500000000001
10
36.468400000000003
20
60.388500000000001
10
36.468400000000003
20
73.187600000000003
10
35.669000000000004
20
73.187600000000003
0
LWPOLYLINE
5
106
100
AcDbEntity
8
0
100
AcDbPolyline
90
12
70
1
43
0.0
10
16.619199999999999
20
73.788399999999996
10
2.6182700000000003
20
73.788399999999996
10
2.6182699999999999
20
73.187600000000003
10
1.8190099999999998
20
73.187600000000003
10
1.8190099999999998
20
60.388500000000001
10
2.6182699999999999
20
60.388500000000001
10
2.6182700000000003
20
59.787700000000008
10
16.619199999999999
20
59.787700000000008
10
16.619199999999999
20
60.388500000000001
10
17.418399999999998
20
60.388500000000001
10
17.418399999999998
20
73.187600000000003
10
16.619199999999999
20
73.187600000000003
0
LWPOLYLINE
5
107
100
AcDbEntity
8
0
100
AcDbPolyline
90
12
70
1
43
0.0
10
121.39400000000001
20
54.738399999999999
10
107.393
20
54.738399999999999
10
107.393
20
54.137599999999999
10
106.59399999999999
20
54.137599999999999
10
106.59399999999999
20
41.33850000000001
10
107.393
20
41.33850000000001
10
107.393
20
40.737699999999997
10
121.39400000000001
20
40.737699999999997
10
121.39400000000001
20
41.33850000000001
10
122.19300000000001
20
41.33850000000001
10
122.19300000000001
20
54.137599999999999
10
121.39400000000001
20
54.137599999999999
0
LWPOLYLINE
5
108
100
AcDbEntity
8
0
100
AcDbPolyline
90
12
70
1
43
0.0
10
97.580100000000002
20
54.738399999999999
10
83.580799999999996
20
54.738399999999999
10
83.580799999999996
20
54.137599999999999
10
82.780000000000001
20
54.137599999999999
10
82.780000000000001
20
41.33850000000001
10
83.580799999999996
20
41.33850000000001
10
83.580799999999996
20
40.737699999999997
10
97.580100000000002
20
40.737699999999997
10
97.580100000000002
20
41.33850000000001
10
98.380900000000011
20
41.33850000000001
10
98.380900000000011
20
54.137599999999999
10
97.580100000000002
20
54.137599999999999
0
LWPOLYLINE
5
109
100
AcDbEntity
8
0
100
AcDbPolyline
90
12
70
1
43
0.0
10
78.530100000000004
20
54.738399999999999
10
64.530799999999999
20
54.738399999999999
10
64.530799999999999
20
54.137599999999999
10
63.730000000000004
20
54.137599999999999
10
63.730000000000004
20
41.33850000000001
10
64.530799999999999
20
41.33850000000001
10
64.530799999999999
20
40.737699999999997
10
78.530100000000004
20
40.737699999999997
10
78.530100000000004
20
41.33850000000001
10
79.3309
20
41.33850000000001
10
79.3309
20
54.137599999999999
10
78.530100000000004
20
54.137599999999999
0
LWPOLYLINE
5
110
100
AcDbEntity
8
0
100
AcDbPolyline
90
12
70
1
43
0.0
10
59.4801
20
54.738399999999999
10
45.480800000000002
20
54.738399999999999
10
45.480800000000002
20
54.137599999999999
10
44.68
20
54.137599999999999
10
44.68
20
41.33850000000001
10
45.480800000000002
20
41.33850000000001
10
45.480800000000002
20
40.737699999999997
10
59.4801
20
40.737699999999997
10
59.4801
20
41.33850000000001
10
60.280900000000003
20
41.33850000000001
10
60.280900000000003
20
54.137599999999999
10
59.4801
20
54.137599999999999
0
LWPOLYLINE
5
111
100
AcDbEntity
8
0
100
AcDbPolyline
90
12
70
1
43
0.0
10
40.43010000000001
20
54.738399999999999
10
26.430800000000005
20
54.738399999999999
10
26.430800000000005
20
54.137599999999999
10
25.630100000000002
20
54.137599999999999
10
25.630100000000002
20
41.33850000000001
10
26.430800000000005
20
41.33850000000001
10
26.430800000000005
20
40.737699999999997
10
40.43010000000001
20
40.737699999999997
10
40.43010000000001
20
41.33850000000001
10
41.230900000000005
20
41.33850000000001
10
41.230900000000005
20
54.137599999999999
10
40.43010000000001
20
54.137599999999999
0
LWPOLYLINE
5
112
100
AcDbEntity
8
0
100
AcDbPolyline
90
14
70
1
43
0.0
10
17.407700000000169
20
55.644805039201884
10
17.407700000000176
20
54.738399999999999
10
7.3807800000000023
20
54.738399999999999
10
7.3807800000000015
20
54.137599999999999
10
6.5801200000000009
20
54.137599999999999
10
6.5801200000000009
20
41.33850000000001
10
7.3807800000000015
20
41.33850000000001
10
7.3807800000000023
20
40.737699999999997
10
21.380300000000002
20
40.737699999999997
10
21.380300000000002
20
41.33850000000001
10
22.180900000000001
20
41.33850000000001
10
22.180900000000001
20
54.137599999999999
10
21.380300000000002
20
54.137599999999999
10
21.380299999999849
20
55.644805039201884
42
2.0229043753705098
0
LWPOLYLINE
5
113
100
AcDbEntity
8
0
100
AcDbPolyline
90
12
70
1
43
0.0
10
126.155
20
35.688400000000001
10
112.15600000000002
20
35.688400000000001
10
112.15600000000002
20
35.087600000000009
10
111.355
20
35.087600000000009
10
111.355
20
22.288399999999999
10
112.15600000000002
20
22.288399999999999
10
112.15600000000002
20
21.687600000000007
10
126.155
20
21.687600000000007
10
126.155
20
22.288399999999999
10
126.956
20
22.288399999999999
10
126.956
20
35.087600000000009
10
126.155
20
35.087600000000009
0
LWPOLYLINE
5
114
100
AcDbEntity
8
0
100
AcDbPolyline
90
28
70
1
43
0.0
10
105.012
20
17.157948819523195
10
105.012
20
16.039000000000001
10
104.21100000000001
20
16.039000000000001
10
104.21100000000001
20
3.2383899999999954
10
105.012
20
3.2383900000000043
10
105.012
20
2.6375599999999988
10
119.01100000000001
20
2.6375599999999988
10
119.01100000000001
20
3.2383900000000043
10
119.81200000000001
20
3.2383900000000043
10
119.81200000000001
20
16.039000000000001
10
119.01100000000001
20
16.039000000000001
10
119.01100000000001
20
16.638400000000004
10
108.18976022690316
20
16.638400000000004
10
108.18976022690316
20
17.108349781912764
42
0.64012984804884132
10
107.10500000000002
20
21.517553539707798
10
107.10500000000002
20
22.288399999999999
10
107.90600000000001
20
22.288399999999999
10
107.90600000000001
20
35.087600000000009
10
107.10500000000002
20
35.087600000000009
10
107.10500000000002
20
35.688400000000001
10
93.105800000000002
20
35.688400000000001
10
93.105800000000002
20
35.087600000000009
10
92.305000000000007
20
35.087600000000009
10
92.305000000000007
20
22.288399999999999
10
93.105800000000002
20
22.288399999999999
10
93.105800000000002
20
21.687600000000007
10
105.012
20
21.687600000000007
10
105.012
20
20.96785118047681
42
0.46247904357290642
0
LWPOLYLINE
5
115
100
AcDbEntity
8
0
100
AcDbPolyline
90
12
70
1
43
0.0
10
88.055099999999996
20
35.688400000000001
10
74.055800000000005
20
35.688400000000001
10
74.055800000000005
20
35.087600000000009
10
73.254999999999995
20
35.087600000000009
10
73.254999999999995
20
22.288399999999999
10
74.055800000000005
20
22.288399999999999
10
74.055800000000005
20
21.687600000000007
10
88.055099999999996
20
21.687600000000007
10
88.055099999999996
20
22.288399999999999
10
88.85590000000002
20
22.288399999999999
10
88.85590000000002
20
35.087600000000009
10
88.055099999999996
20
35.087600000000009
0
LWPOLYLINE
5
116
100
AcDbEntity
8
0
100
AcDbPolyline
90
12
70
1
43
0.0
10
69.005099999999999
20
35.688400000000001
10
55.005800000000001
20
35.688400000000001
10
55.005800000000001
20
35.087600000000009
10
54.205000000000005
20
35.087600000000009
10
54.205000000000005
20
22.288399999999999
10
55.005800000000001
20
22.288399999999999
10
55.005800000000001
20
21.687600000000007
10
69.005099999999999
20
21.687600000000007
10
69.005099999999999
20
22.288399999999999
10
69.805899999999994
20
22.288399999999999
10
69.805899999999994
20
35.087600000000009
10
69.005099999999999
20
35.087600000000009
0
LWPOLYLINE
5
117
100
AcDbEntity
8
0
100
AcDbPolyline
90
12
70
1
43
0.0
10
49.955100000000002
20
35.688400000000001
10
35.955800000000004
20
35.688400000000001
10
35.955800000000004
20
35.087600000000009
10
35.155099999999997
20
35.087600000000009
10
35.155099999999997
20
22.288399999999999
10
35.955800000000004
20
22.288399999999999
10
35.955800000000004
20
21.687600000000007
10
49.955100000000002
20
21.687600000000007
10
49.955100000000002
20
22.288399999999999
10
50.755899999999997
20
22.288399999999999
10
50.755899999999997
20
35.087600000000009
10
49.955100000000002
20
35.087600000000009
0
LWPOLYLINE
5
118
100
AcDbEntity
8
0
100
AcDbPolyline
90
12
70
1
43
0.0
10
30.905300000000004
20
35.688400000000001
10
16.905799999999999
20
35.688400000000001
10
16.905799999999999
20
35.087600000000009
10
16.1051
20
35.087600000000009
10
16.1051
20
22.288399999999999
10
16.905799999999999
20
22.288399999999999
10
16.905799999999999
20
21.687600000000007
10
30.905300000000004
20
21.687600000000007
10
30.905300000000004
20
22.288399999999999
10
31.705900000000003
20
22.288399999999999
10
31.705900000000003
20
35.087600000000009
10
30.905300000000004
20
35.087600000000009
0
LWPOLYLINE
5
119
100
AcDbEntity
8
0
100
AcDbPolyline
90
12
70
1
43
0.0
10
88.055099999999996
20
16.638400000000004
10
74.055800000000005
20
16.638400000000004
10
74.055800000000005
20
16.039000000000001
10
73.254999999999995
20
16.039000000000001
10
73.254999999999995
20
3.2383899999999954
10
74.055800000000005
20
3.2383900000000043
10
74.055800000000005
20
2.6375599999999988
10
88.055099999999996
20
2.6375599999999988
10
88.055099999999996
20
3.2383900000000043
10
88.85590000000002
20
3.2383900000000043
10
88.85590000000002
20
16.039000000000001
10
88.055099999999996
20
16.039000000000001
0
LWPOLYLINE
5
120
100
AcDbEntity
8
0
100
AcDbPolyline
90
12
70
1
43
0.0
10
61.8613
20
16.638400000000004
10
47.862099999999998
20
16.638400000000004
10
47.862099999999998
20
16.039000000000001
10
47.06130000000001
20
16.039000000000001
10
47.06130000000001
20
3.2383899999999954
10
47.862099999999998
20
3.2383900000000043
10
47.862099999999998
20
2.6375599999999988
10
61.8613
20
2.6375599999999988
10
61.8613
20
3.2383900000000043
10
62.662200000000006
20
3.2383900000000043
10
62.662200000000006
20
16.039000000000001
10
61.8613
20
16.039000000000001
0
LWPOLYLINE
5
121
100
AcDbEntity
8
0
100
AcDbPolyline
90
19
70
1
43
0.0
10
128.93100000000001
20
2.8629990000000038
42
-0.41421356237309537
10
125.93100000000001
20
-0.13700100000000048
10
7.8561099999999939
20
-0.13700099999999882
42
-0.4142135623730942
10
4.8561100000000046
20
2.8629989999999994
10
4.8561100000000055
20
15.912900000000004
42
-0.41421356237309498
10
7.8561100000000028
20
18.912900000000004
10
11.3796
20
18.912900000000004
42
0.41421356237309503
10
14.379600000000003
20
21.912900000000004
10
14.379600000000002
20
35.463200000000001
42
0.41421356237309503
10
11.3796
20
38.463199999999993
10
7.8546200000000042
20
38.463199999999993
42
-0.41421356237309531
10
4.8546200000000006
20
41.463199999999993
10
4.8546200000000015
20
54.392538674586966
42
0.35452046338328158
10
2.4741632999999998
20
57.327869337293492
42
-0.35452046338328147
10
0.093706600000000861
20
60.263200000000012
10
0.093706600000009743
20
73.562900000000013
42
-0.4142135623730942
10
3.0937065999999902
20
76.562899999999999
10
125.93100000000004
20
76.562899999999999
42
-0.41421356237309503
10
128.93100000000001
20
73.562899999999999
0
CIRCLE
5
122
100
AcDbEntity
8
0
100
AcDbCircle
10
33.680000000000021
20
19.062900000000003
30
0
40
2.5
210
0
220
0
230
1
0
CIRCLE
5
123
100
AcDbEntity
8
0
100
AcDbCircle
10
98.39100000000002
20
59.447900000000004
30
0
40
2.5
210
0
220
0
230
1
0
ENDSEC
0
SECTION
2
OBJECTS
0
DICTIONARY
5
C
100
AcDbDictionary
3
ACAD_GROUP
350
D
3
ACAD_MLINESTYLE
350
17
0
DICTIONARY
5
D
100
AcDbDictionary
0
DICTIONARY
5
1A
330
C
100
AcDbDictionary
0
DICTIONARY
5
17
100
AcDbDictionary
0
ENDSEC
0
EOF
