  0
SECTION
  2
HEADER
  9
$ACADVER
  1
AC1009
  9
$INSBASE
 10
0.0
 20
0.0
 30
0.0
  9
$EXTMIN
 10
0.0
 20
0.0
 30
0.0
  9
$EXTMAX
 10
0.0
 20
0.0
 30
0.0
  0
ENDSEC
  0
SECTION
  2
TABLES
  0
TABLE
  2
VPORT
 70
0
  0
ENDTAB
  0
TABLE
  2
LTYPE
 70
1
  0
LTYPE
  2
CONTINUOUS
 70
0
  3
Solid line
 72
65
 73
0
 40
0.0
  0
ENDTAB
  0
TABLE
  2
LAYER
 70
1
  0
LAYER
  2
0
 70
64
 62
7
  6
continuous
  0
ENDTAB
  0
TABLE
  2
STYLE
 70
1
  0
STYLE
  2
STANDARD
 70
0
 40
0
 41
1.0
 50
0.0
 71
0
 42
1
 3
ARIAL.TTF
 4

  0
ENDTAB
  0
TABLE
  2
VIEW
 70
0
  0
ENDTAB
  0
ENDSEC
  0
SECTION
  2
BLOCKS
  0
ENDSEC
  0
SECTION
  2
ENTITIES
  0
LINE
  8
0
 62
0
 10
-0.1562933999999938
 20
73.5629
 30
0.0
 11
-0.1562933999999988
 21
2.862999000000004
 31
0.0
  0
ARC
  8
0
 62
0
 10
2.843706600000015
 20
73.56289999999998
 30
0.0
 40
3.000000000000014
 50
90.0000000000002
 51
180.0
  0
LINE
  8
0
 62
0
 10
111.3935
 20
76.56290000000001
 30
0.0
 11
2.843706600000005
 21
76.5629
 31
0.0
  0
ARC
  8
0
 62
0
 10
111.39350000000005
 20
73.56290000000004
 30
0.0
 40
2.9999999999999716
 50
-0.0
 51
90.00000000000081
  0
LINE
  8
0
 62
0
 10
114.39350000000003
 20
60.01289999999999
 30
0.0
 11
114.39350000000002
 21
73.5629
 31
0.0
  0
LINE
  8
0
 62
0
 10
125.68100000000001
 20
38.21290000000001
 30
0.0
 11
122.1565
 21
38.212900000000005
 31
0.0
  0
ARC
  8
0
 62
0
 10
122.15650000000001
 20
41.21290000000002
 30
0.0
 40
3.000000000000014
 50
-180.0
 51
-90.00000000000028
  0
ARC
  8
0
 62
0
 10
116.15550000000002
 20
2.8629990000000167
 30
0.0
 40
3.0000000000000107
 50
-90.00000000000028
 51
-0.0
  0
LINE
  8
0
 62
0
 10
104.2248
 20
2.6379800000000007
 30
0.0
 11
91.22479999999999
 21
2.6379800000000007
 31
0.0
  0
LINE
  8
0
 62
0
 10
89.9252
 20
7.338060000000004
 30
0.0
 11
89.0997
 21
7.338060000000004
 31
0.0
  0
LINE
  8
0
 62
0
 10
119.1565
 20
41.21290000000001
 30
0.0
 11
119.15649999999998
 21
54.14179865527771
 31
0.0
  0
ARC
  8
0
 62
0
 10
2.843706600000001
 20
2.862999000000003
 30
0.0
 40
2.9999999999999996
 50
180.0
 51
-89.99999999999993
  0
ARC
  8
0
 62
0
 10
122.15550000000003
 20
16.163100000000004
 30
0.0
 40
3.000000000000014
 50
90.00000000000054
 51
180.0
  0
LINE
  8
0
 62
0
 10
2.8437066000000044
 20
-0.1370009999999966
 30
0.0
 11
116.1555
 21
-0.13700099999999382
 31
0.0
  0
LINE
  8
0
 62
0
 10
104.72480000000002
 20
7.338060000000004
 30
0.0
 11
104.72480000000002
 21
3.13798
 31
0.0
  0
LINE
  8
0
 62
0
 10
119.15550000000002
 20
2.8629990000000016
 30
0.0
 11
119.15550000000002
 21
16.163100000000007
 31
0.0
  0
LINE
  8
0
 62
0
 10
84.12520000000002
 20
1.8879100000000015
 30
0.0
 11
84.12520000000002
 21
2.6676999999999973
 31
0.0
  0
LINE
  8
0
 62
0
 10
81.5742
 20
11.9379
 30
0.0
 11
82.44950000000001
 21
11.9379
 31
0.0
  0
LINE
  8
0
 62
0
 10
87.42400000000002
 20
2.6676999999999973
 30
0.0
 11
87.42400000000002
 21
1.8879100000000015
 31
0.0
  0
LINE
  8
0
 62
0
 10
82.44950000000001
 20
15.368100000000007
 30
0.0
 11
84.12520000000002
 21
15.368100000000007
 31
0.0
  0
LINE
  8
0
 62
0
 10
84.12520000000002
 20
15.368100000000007
 30
0.0
 11
84.12520000000002
 21
16.488599999999998
 31
0.0
  0
LINE
  8
0
 62
0
 10
87.42400000000002
 20
16.488599999999998
 30
0.0
 11
87.42400000000002
 21
15.368100000000007
 31
0.0
  0
LINE
  8
0
 62
0
 10
122.1555
 20
19.163100000000007
 30
0.0
 11
125.68100000000001
 21
19.16310000000002
 31
0.0
  0
LINE
  8
0
 62
0
 10
82.44950000000001
 20
11.9379
 30
0.0
 11
82.44950000000001
 21
15.368100000000007
 31
0.0
  0
LINE
  8
0
 62
0
 10
89.0997
 20
15.368100000000007
 30
0.0
 11
89.0997
 21
11.9379
 31
0.0
  0
LINE
  8
0
 62
0
 10
89.0997
 20
11.9379
 30
0.0
 11
89.9252
 21
11.9379
 31
0.0
  0
ARC
  8
0
 62
0
 10
116.1565
 20
54.14179865527774
 30
0.0
 40
2.999999999999986
 50
-0.0
 51
78.10219686914235
  0
LINE
  8
0
 62
0
 10
81.5742
 20
9.137760000000004
 30
0.0
 11
81.5742
 21
11.9379
 31
0.0
  0
LINE
  8
0
 62
0
 10
90.72479999999999
 20
11.9379
 30
0.0
 11
90.72479999999999
 21
16.137980000000002
 31
0.0
  0
ARC
  8
0
 62
0
 10
91.22479999999999
 20
16.137979999999995
 30
0.0
 40
0.5
 50
90.0
 51
180.0
  0
LINE
  8
0
 62
0
 10
91.22479999999999
 20
16.637980000000002
 30
0.0
 11
104.2248
 21
16.63798
 31
0.0
  0
ARC
  8
0
 62
0
 10
104.22480000000002
 20
16.137979999999985
 30
0.0
 40
0.5000000000000142
 50
0.0
 51
90.00000000000163
  0
LINE
  8
0
 62
0
 10
128.681
 20
22.163100000000014
 30
0.0
 11
128.681
 21
35.21290000000001
 31
0.0
  0
LINE
  8
0
 62
0
 10
104.72480000000002
 20
11.9379
 30
0.0
 11
105.52500000000002
 21
11.9379
 31
0.0
  0
LINE
  8
0
 62
0
 10
104.72480000000002
 20
16.137980000000002
 30
0.0
 11
104.72480000000002
 21
11.9379
 31
0.0
  0
LINE
  8
0
 62
0
 10
105.52500000000002
 20
11.9379
 30
0.0
 11
106.35
 21
11.9379
 31
0.0
  0
LINE
  8
0
 62
0
 10
90.72479999999999
 20
7.338060000000004
 30
0.0
 11
89.9252
 21
7.338060000000004
 31
0.0
  0
ARC
  8
0
 62
0
 10
104.22480000000002
 20
3.1379800000000118
 30
0.0
 40
0.5
 50
-90.00000000000163
 51
-0.0
  0
ARC
  8
0
 62
0
 10
117.39350000000003
 20
60.01290000000002
 30
0.0
 40
3.000000000000005
 50
-180.0
 51
-101.89780313085731
  0
LINE
  8
0
 62
0
 10
89.0997
 20
7.338060000000004
 30
0.0
 11
89.0997
 21
2.6676999999999973
 31
0.0
  0
LINE
  8
0
 62
0
 10
87.42400000000002
 20
1.8879100000000015
 30
0.0
 11
84.12520000000002
 21
1.8879100000000015
 31
0.0
  0
LINE
  8
0
 62
0
 10
106.35
 20
7.338060000000004
 30
0.0
 11
105.52500000000002
 21
7.338060000000004
 31
0.0
  0
LINE
  8
0
 62
0
 10
84.12520000000002
 20
2.6676999999999973
 30
0.0
 11
82.44950000000001
 21
2.6676999999999973
 31
0.0
  0
LINE
  8
0
 62
0
 10
84.12520000000002
 20
16.488599999999998
 30
0.0
 11
87.42400000000002
 21
16.488599999999998
 31
0.0
  0
LINE
  8
0
 62
0
 10
89.9252
 20
11.9379
 30
0.0
 11
90.72479999999999
 21
11.9379
 31
0.0
  0
LINE
  8
0
 62
0
 10
105.52500000000002
 20
7.338060000000004
 30
0.0
 11
104.72480000000002
 21
7.338060000000004
 31
0.0
  0
LINE
  8
0
 62
0
 10
82.44950000000001
 20
2.6676999999999973
 30
0.0
 11
82.44950000000001
 21
9.137760000000004
 31
0.0
  0
ARC
  8
0
 62
0
 10
125.681
 20
35.21289999999999
 30
0.0
 40
3.000000000000014
 50
0.0
 51
89.99999999999973
  0
LINE
  8
0
 62
0
 10
106.35
 20
11.9379
 30
0.0
 11
106.35
 21
15.368100000000007
 31
0.0
  0
ARC
  8
0
 62
0
 10
125.68100000000004
 20
22.16309999999999
 30
0.0
 40
2.999999999999968
 50
-90.00000000000054
 51
0.0
  0
LINE
  8
0
 62
0
 10
106.35
 20
15.368100000000007
 30
0.0
 11
108.024
 21
15.368100000000007
 31
0.0
  0
ARC
  8
0
 62
0
 10
91.22479999999999
 20
3.137980000000004
 30
0.0
 40
0.5000000000000036
 50
-180.0
 51
-90.0
  0
LINE
  8
0
 62
0
 10
89.0997
 20
2.6676999999999973
 30
0.0
 11
87.42400000000002
 21
2.6676999999999973
 31
0.0
  0
LINE
  8
0
 62
0
 10
90.72479999999999
 20
3.1379799999999998
 30
0.0
 11
90.72479999999999
 21
7.338060000000004
 31
0.0
  0
LINE
  8
0
 62
0
 10
82.44950000000001
 20
9.137760000000004
 30
0.0
 11
81.5742
 21
9.137760000000004
 31
0.0
  0
LINE
  8
0
 62
0
 10
87.42400000000002
 20
15.368100000000007
 30
0.0
 11
89.0997
 21
15.368100000000007
 31
0.0
  0
LINE
  8
0
 62
0
 10
112.99900000000001
 20
15.368100000000007
 30
0.0
 11
112.99900000000001
 21
11.9379
 31
0.0
  0
ARC
  8
0
 62
0
 10
16.118735000000008
 20
73.28805
 30
0.0
 40
0.49999999999999645
 50
-0.0
 51
90.0
  0
LINE
  8
0
 62
0
 10
106.35
 20
2.6676999999999973
 30
0.0
 11
106.35
 21
7.338060000000004
 31
0.0
  0
LINE
  8
0
 62
0
 10
108.024
 20
15.368100000000007
 30
0.0
 11
108.024
 21
16.488599999999998
 31
0.0
  0
ARC
  8
0
 62
0
 10
3.1187350000000054
 20
73.28805
 30
0.0
 40
0.5
 50
90.0
 51
-180.0
  0
LINE
  8
0
 62
0
 10
2.6187350000000063
 20
73.28805
 30
0.0
 11
2.6187350000000063
 21
60.28804999999999
 31
0.0
  0
LINE
  8
0
 62
0
 10
3.118735000000006
 20
59.78805
 30
0.0
 11
16.118735000000004
 21
59.78805
 31
0.0
  0
LINE
  8
0
 62
0
 10
16.118735000000008
 20
73.78805
 30
0.0
 11
3.1187350000000054
 21
73.78805
 31
0.0
  0
LINE
  8
0
 62
0
 10
111.325
 20
15.368100000000007
 30
0.0
 11
112.99900000000001
 21
15.368100000000007
 31
0.0
  0
CIRCLE
  8
0
 62
0
 10
76.85370660000002
 20
11.097899999999996
 30
0.0
 40
2.5
  0
CIRCLE
  8
0
 62
0
 10
29.903706600000003
 20
22.5479
 30
0.0
 40
2.5000000000000036
  0
LINE
  8
0
 62
0
 10
112.99900000000001
 20
9.137760000000004
 30
0.0
 11
112.99900000000001
 21
2.6676999999999973
 31
0.0
  0
LINE
  8
0
 62
0
 10
108.024
 20
2.6676999999999973
 30
0.0
 11
106.35
 21
2.6676999999999973
 31
0.0
  0
LINE
  8
0
 62
0
 10
112.99900000000001
 20
11.9379
 30
0.0
 11
113.874
 21
11.9379
 31
0.0
  0
LINE
  8
0
 62
0
 10
113.874
 20
9.137760000000004
 30
0.0
 11
112.99900000000001
 21
9.137760000000004
 31
0.0
  0
LINE
  8
0
 62
0
 10
111.325
 20
1.8879100000000015
 30
0.0
 11
108.024
 21
1.8879100000000015
 31
0.0
  0
LINE
  8
0
 62
0
 10
108.024
 20
16.488599999999998
 30
0.0
 11
111.325
 21
16.488599999999998
 31
0.0
  0
LINE
  8
0
 62
0
 10
108.024
 20
1.8879100000000015
 30
0.0
 11
108.024
 21
2.6676999999999973
 31
0.0
  0
LINE
  8
0
 62
0
 10
16.618735000000004
 20
60.28804999999999
 30
0.0
 11
16.618735000000004
 21
73.28805
 31
0.0
  0
LINE
  8
0
 62
0
 10
112.99900000000001
 20
2.6676999999999973
 30
0.0
 11
111.325
 21
2.6676999999999973
 31
0.0
  0
LINE
  8
0
 62
0
 10
111.325
 20
16.488599999999998
 30
0.0
 11
111.325
 21
15.368100000000007
 31
0.0
  0
LINE
  8
0
 62
0
 10
113.874
 20
11.9379
 30
0.0
 11
113.874
 21
9.137760000000004
 31
0.0
  0
LINE
  8
0
 62
0
 10
111.325
 20
2.6676999999999973
 30
0.0
 11
111.325
 21
1.8879100000000015
 31
0.0
  0
ARC
  8
0
 62
0
 10
16.118735000000008
 20
60.28805
 30
0.0
 40
0.5
 50
-90.00000000000041
 51
-0.0
  0
ARC
  8
0
 62
0
 10
54.218650000000004
 20
73.28805
 30
0.0
 40
0.5
 50
-0.0
 51
90.0
  0
ARC
  8
0
 62
0
 10
3.1187350000000023
 20
60.28805
 30
0.0
 40
0.499999999999996
 50
-180.0
 51
-89.99999999999959
  0
LINE
  8
0
 62
0
 10
21.668650000000007
 20
73.28805
 30
0.0
 11
21.668650000000007
 21
60.28804999999999
 31
0.0
  0
ARC
  8
0
 62
0
 10
22.168650000000003
 20
60.28805
 30
0.0
 40
0.49999999999999645
 50
-180.0
 51
-90.0
  0
LINE
  8
0
 62
0
 10
31.915831849408242
 20
59.78805
 30
0.0
 11
35.16865
 21
59.78805
 31
0.0
  0
ARC
  8
0
 62
0
 10
31.50390660000001
 20
57.32222
 30
0.0
 40
2.5000000000000036
 50
99.48387936105604
 51
80.51612063894396
  0
ARC
  8
0
 62
0
 10
22.168650000000007
 20
73.28805
 30
0.0
 40
0.5
 50
90.00000000000041
 51
-180.0
  0
LINE
  8
0
 62
0
 10
54.218650000000004
 20
59.78805
 30
0.0
 11
41.21865
 21
59.78805
 31
0.0
  0
ARC
  8
0
 62
0
 10
41.21864999999999
 20
60.28805
 30
0.0
 40
0.5
 50
-180.0
 51
-89.99999999999919
  0
ARC
  8
0
 62
0
 10
41.21865
 20
73.28805
 30
0.0
 40
0.5
 50
90.0
 51
-180.0
  0
ARC
  8
0
 62
0
 10
35.16865000000001
 20
60.28805
 30
0.0
 40
0.5
 50
-90.00000000000081
 51
-0.0
  0
LINE
  8
0
 62
0
 10
41.21865
 20
73.78805
 30
0.0
 11
54.218650000000004
 21
73.78805
 31
0.0
  0
ARC
  8
0
 62
0
 10
54.21865000000001
 20
60.28805
 30
0.0
 40
0.4999999999999929
 50
-90.00000000000081
 51
-0.0
  0
LINE
  8
0
 62
0
 10
60.268650000000015
 20
59.78805
 30
0.0
 11
73.26865000000002
 21
59.78805
 31
0.0
  0
LINE
  8
0
 62
0
 10
35.16865
 20
73.78805
 30
0.0
 11
22.168650000000003
 21
73.78805
 31
0.0
  0
LINE
  8
0
 62
0
 10
22.168650000000003
 20
59.78805
 30
0.0
 11
31.09198135059178
 21
59.78805
 31
0.0
  0
LINE
  8
0
 62
0
 10
40.71865
 20
60.28804999999999
 30
0.0
 11
40.71865
 21
73.28805
 31
0.0
  0
ARC
  8
0
 62
0
 10
35.16865
 20
73.28805
 30
0.0
 40
0.5
 50
-0.0
 51
90.0
  0
LINE
  8
0
 62
0
 10
54.718650000000004
 20
73.28805
 30
0.0
 11
54.718650000000004
 21
60.28804999999999
 31
0.0
  0
LINE
  8
0
 62
0
 10
35.66865
 20
60.28804999999999
 30
0.0
 11
35.66865
 21
73.28805
 31
0.0
  0
LINE
  8
0
 62
0
 10
108.1158318494083
 20
59.78805
 30
0.0
 11
111.36814999999999
 21
59.78805
 31
0.0
  0
LINE
  8
0
 62
0
 10
5.4999649999999995
 20
40.738049999999994
 30
0.0
 11
18.499965000000003
 21
40.738049999999994
 31
0.0
  0
LINE
  8
0
 62
0
 10
92.81864999999999
 20
60.28804999999999
 30
0.0
 11
92.81864999999999
 21
73.28805
 31
0.0
  0
LINE
  8
0
 62
0
 10
79.31864999999998
 20
59.78805
 30
0.0
 11
92.31864999999999
 21
59.78805
 31
0.0
  0
ARC
  8
0
 62
0
 10
60.268650000000015
 20
60.28804999999999
 30
0.0
 40
0.4999999999999929
 50
-180.0
 51
-90.0
  0
ARC
  8
0
 62
0
 10
111.36814999999999
 20
73.28805
 30
0.0
 40
0.5
 50
-0.0
 51
90.0
  0
LINE
  8
0
 62
0
 10
73.26865000000002
 20
73.78805
 30
0.0
 11
60.268650000000015
 21
73.78805
 31
0.0
  0
ARC
  8
0
 62
0
 10
107.70390660000001
 20
57.322220000000016
 30
0.0
 40
2.500000000000001
 50
99.48387936105763
 51
80.51612063894271
  0
ARC
  8
0
 62
0
 10
18.499965000000014
 20
54.238049999999994
 30
0.0
 40
0.49999999999998934
 50
0.0
 51
90.00000000000163
  0
ARC
  8
0
 62
0
 10
98.36815000000001
 20
60.288050000000005
 30
0.0
 40
0.5
 50
-180.0
 51
-90.0
  0
LINE
  8
0
 62
0
 10
111.36814999999999
 20
73.78805
 30
0.0
 11
98.36815000000001
 21
73.78805
 31
0.0
  0
LINE
  8
0
 62
0
 10
18.499965
 20
54.73804999999999
 30
0.0
 11
5.499964999999999
 21
54.738049999999994
 31
0.0
  0
ARC
  8
0
 62
0
 10
5.499964999999991
 20
54.23805
 30
0.0
 40
0.4999999999999929
 50
89.99999999999909
 51
-180.0
  0
ARC
  8
0
 62
0
 10
5.499964999999991
 20
41.23804999999999
 30
0.0
 40
0.49999999999999556
 50
-180.0
 51
-89.99999999999898
  0
ARC
  8
0
 62
0
 10
111.36814999999999
 20
60.288050000000005
 30
0.0
 40
0.5000000000000071
 50
-90.0
 51
-0.0
  0
LINE
  8
0
 62
0
 10
26.930449999999997
 20
40.738049999999994
 30
0.0
 11
39.930450000000015
 21
40.738049999999994
 31
0.0
  0
LINE
  8
0
 62
0
 10
92.31864999999999
 20
73.78805
 30
0.0
 11
79.31864999999998
 21
73.78805
 31
0.0
  0
ARC
  8
0
 62
0
 10
39.930450000000015
 20
41.23804999999998
 30
0.0
 40
0.4999999999999858
 50
-90.0
 51
0.0
  0
ARC
  8
0
 62
0
 10
92.31864999999999
 20
60.288050000000005
 30
0.0
 40
0.5000000000000071
 50
-90.0
 51
-0.0
  0
LINE
  8
0
 62
0
 10
18.999965000000007
 20
41.23804999999999
 30
0.0
 11
18.999965000000003
 21
54.23805
 31
0.0
  0
LINE
  8
0
 62
0
 10
40.43045000000001
 20
41.23804999999999
 30
0.0
 11
40.43045000000001
 21
54.23805
 31
0.0
  0
LINE
  8
0
 62
0
 10
39.930450000000015
 20
54.738049999999994
 30
0.0
 11
26.930449999999997
 21
54.738049999999994
 31
0.0
  0
LINE
  8
0
 62
0
 10
26.430449999999993
 20
54.23805
 30
0.0
 11
26.430449999999993
 21
41.23804999999999
 31
0.0
  0
ARC
  8
0
 62
0
 10
26.930449999999986
 20
41.23804999999999
 30
0.0
 40
0.4999999999999929
 50
-180.0
 51
-89.99999999999878
  0
ARC
  8
0
 62
0
 10
73.26865000000002
 20
60.28805
 30
0.0
 40
0.5
 50
-90.0
 51
-0.0
  0
LINE
  8
0
 62
0
 10
45.98045
 20
40.738049999999994
 30
0.0
 11
58.980450000000005
 21
40.738049999999994
 31
0.0
  0
LINE
  8
0
 62
0
 10
98.36815000000001
 20
59.78805
 30
0.0
 11
107.29198135059171
 21
59.78805
 31
0.0
  0
LINE
  8
0
 62
0
 10
78.81864999999998
 20
73.28805
 30
0.0
 11
78.81864999999998
 21
60.28804999999999
 31
0.0
  0
ARC
  8
0
 62
0
 10
18.49996500000001
 20
41.23804999999999
 30
0.0
 40
0.4999999999999929
 50
-90.00000000000081
 51
-0.0
  0
LINE
  8
0
 62
0
 10
4.999964999999995
 20
54.23805
 30
0.0
 11
4.999964999999995
 21
41.23804999999999
 31
0.0
  0
ARC
  8
0
 62
0
 10
39.930450000000015
 20
54.23805000000001
 30
0.0
 40
0.4999999999999929
 50
-0.0
 51
90.0
  0
ARC
  8
0
 62
0
 10
26.930449999999986
 20
54.23805
 30
0.0
 40
0.4999999999999929
 50
89.99999999999878
 51
-180.0
  0
ARC
  8
0
 62
0
 10
73.26865000000002
 20
73.28805
 30
0.0
 40
0.5
 50
-0.0
 51
90.0
  0
LINE
  8
0
 62
0
 10
73.76865000000002
 20
60.28804999999999
 30
0.0
 11
73.76865000000002
 21
73.28805
 31
0.0
  0
ARC
  8
0
 62
0
 10
60.26865000000002
 20
73.28805
 30
0.0
 40
0.5
 50
90.00000000000081
 51
-180.0
  0
ARC
  8
0
 62
0
 10
92.31864999999999
 20
73.28805
 30
0.0
 40
0.5
 50
-0.0
 51
90.0
  0
ARC
  8
0
 62
0
 10
79.31864999999998
 20
73.28805
 30
0.0
 40
0.5
 50
90.0
 51
-180.0
  0
LINE
  8
0
 62
0
 10
111.86814999999999
 20
60.28804999999999
 30
0.0
 11
111.86814999999999
 21
73.28805
 31
0.0
  0
ARC
  8
0
 62
0
 10
79.31864999999998
 20
60.28805
 30
0.0
 40
0.5
 50
-180.0
 51
-90.0
  0
LINE
  8
0
 62
0
 10
97.86815000000001
 20
73.28805
 30
0.0
 11
97.86815000000001
 21
60.28804999999999
 31
0.0
  0
ARC
  8
0
 62
0
 10
98.36815000000001
 20
73.28805
 30
0.0
 40
0.5
 50
90.0
 51
-180.0
  0
LINE
  8
0
 62
0
 10
59.76865000000002
 20
73.28805
 30
0.0
 11
59.76865000000002
 21
60.28804999999999
 31
0.0
  0
ARC
  8
0
 62
0
 10
84.08045
 20
54.23805000000001
 30
0.0
 40
0.4999999999999858
 50
89.99999999999837
 51
-180.0
  0
LINE
  8
0
 62
0
 10
23.761765000000004
 20
22.188000000000002
 30
0.0
 11
23.761765000000004
 21
35.18800000000001
 31
0.0
  0
LINE
  8
0
 62
0
 10
23.261765000000008
 20
35.68800000000001
 30
0.0
 11
10.261765000000002
 21
35.68800000000001
 31
0.0
  0
ARC
  8
0
 62
0
 10
10.261765
 20
35.18800000000002
 30
0.0
 40
0.4999999999999929
 50
89.9999999999998
 51
-180.0
  0
ARC
  8
0
 62
0
 10
103.1305
 20
41.23804999999999
 30
0.0
 40
0.5
 50
-180.0
 51
-89.99999999999837
  0
ARC
  8
0
 62
0
 10
23.261765000000004
 20
35.18800000000001
 30
0.0
 40
0.5
 50
-0.0
 51
89.99999999999959
  0
ARC
  8
0
 62
0
 10
45.98045
 20
54.23805000000001
 30
0.0
 40
0.4999999999999858
 50
90.0
 51
-180.0
  0
LINE
  8
0
 62
0
 10
9.761765000000002
 20
35.18800000000002
 30
0.0
 11
9.761765000000002
 21
22.188000000000002
 31
0.0
  0
LINE
  8
0
 62
0
 10
103.13050000000001
 20
40.738049999999994
 30
0.0
 11
116.13050000000001
 21
40.738049999999994
 31
0.0
  0
LINE
  8
0
 62
0
 10
36.45545
 20
21.688000000000006
 30
0.0
 11
49.45545000000001
 21
21.688000000000006
 31
0.0
  0
ARC
  8
0
 62
0
 10
49.45545000000001
 20
22.18799999999999
 30
0.0
 40
0.4999999999999858
 50
-90.0
 51
0.0
  0
LINE
  8
0
 62
0
 10
49.95545
 20
22.188000000000002
 30
0.0
 11
49.955450000000006
 21
35.18800000000001
 31
0.0
  0
ARC
  8
0
 62
0
 10
65.03044999999999
 20
41.23804999999998
 30
0.0
 40
0.4999999999999858
 50
180.0
 51
-89.99999999999837
  0
LINE
  8
0
 62
0
 10
84.08045000000001
 20
40.73805
 30
0.0
 11
97.08044999999998
 21
40.738049999999994
 31
0.0
  0
ARC
  8
0
 62
0
 10
78.03045000000002
 20
54.23805000000001
 30
0.0
 40
0.4999999999999858
 50
-0.0
 51
90.00000000000163
  0
ARC
  8
0
 62
0
 10
116.13050000000003
 20
41.23804999999998
 30
0.0
 40
0.4999999999999858
 50
-90.00000000000163
 51
0.0
  0
LINE
  8
0
 62
0
 10
10.261765000000002
 20
21.688000000000006
 30
0.0
 11
23.261765000000008
 21
21.688000000000006
 31
0.0
  0
ARC
  8
0
 62
0
 10
10.261764999999999
 20
22.188000000000002
 30
0.0
 40
0.49999999999999645
 50
-180.0
 51
-89.99999999999959
  0
LINE
  8
0
 62
0
 10
59.480450000000005
 20
41.23804999999999
 30
0.0
 11
59.480450000000005
 21
54.23805
 31
0.0
  0
LINE
  8
0
 62
0
 10
97.58044999999998
 20
41.23804999999999
 30
0.0
 11
97.58044999999998
 21
54.23805
 31
0.0
  0
ARC
  8
0
 62
0
 10
97.08045
 20
54.23805000000001
 30
0.0
 40
0.4999999999999858
 50
-0.0
 51
90.00000000000163
  0
LINE
  8
0
 62
0
 10
116.63050000000001
 20
41.23804999999999
 30
0.0
 11
116.63050000000001
 21
54.23805
 31
0.0
  0
ARC
  8
0
 62
0
 10
103.1305
 20
54.23805
 30
0.0
 40
0.4999999999999929
 50
89.99999999999837
 51
-180.0
  0
ARC
  8
0
 62
0
 10
58.98045000000001
 20
54.23805
 30
0.0
 40
0.4999999999999929
 50
-0.0
 51
90.00000000000081
  0
LINE
  8
0
 62
0
 10
58.980450000000005
 20
54.738049999999994
 30
0.0
 11
45.98045
 21
54.738049999999994
 31
0.0
  0
LINE
  8
0
 62
0
 10
65.03045
 20
40.738049999999994
 30
0.0
 11
78.03045
 21
40.738049999999994
 31
0.0
  0
LINE
  8
0
 62
0
 10
97.08044999999998
 20
54.738049999999994
 30
0.0
 11
84.08045000000001
 21
54.738049999999994
 31
0.0
  0
ARC
  8
0
 62
0
 10
84.08045
 20
41.23804999999999
 30
0.0
 40
0.4999999999999858
 50
-180.0
 51
-89.99999999999837
  0
LINE
  8
0
 62
0
 10
102.6305
 20
54.23805
 30
0.0
 11
102.6305
 21
41.23804999999999
 31
0.0
  0
LINE
  8
0
 62
0
 10
45.480450000000005
 20
54.23805
 30
0.0
 11
45.480450000000005
 21
41.23804999999999
 31
0.0
  0
ARC
  8
0
 62
0
 10
116.13050000000003
 20
54.23805
 30
0.0
 40
0.4999999999999858
 50
-0.0
 51
90.00000000000163
  0
LINE
  8
0
 62
0
 10
116.13050000000001
 20
54.73804999999999
 30
0.0
 11
103.13050000000001
 21
54.738049999999994
 31
0.0
  0
ARC
  8
0
 62
0
 10
23.261765000000008
 20
22.188
 30
0.0
 40
0.4999999999999929
 50
-90.0
 51
0.0
  0
ARC
  8
0
 62
0
 10
78.03045000000002
 20
41.23804999999998
 30
0.0
 40
0.4999999999999858
 50
-90.00000000000163
 51
0.0
  0
ARC
  8
0
 62
0
 10
65.03044999999999
 20
54.23805000000001
 30
0.0
 40
0.4999999999999858
 50
89.99999999999837
 51
-180.0
  0
LINE
  8
0
 62
0
 10
64.53045
 20
54.23805
 30
0.0
 11
64.53045
 21
41.23804999999999
 31
0.0
  0
ARC
  8
0
 62
0
 10
58.98045000000001
 20
41.23804999999999
 30
0.0
 40
0.4999999999999929
 50
-90.00000000000081
 51
-0.0
  0
LINE
  8
0
 62
0
 10
83.58045000000001
 20
54.23805
 30
0.0
 11
83.58045000000001
 21
41.23804999999999
 31
0.0
  0
LINE
  8
0
 62
0
 10
78.03045
 20
54.738049999999994
 30
0.0
 11
65.03045
 21
54.738049999999994
 31
0.0
  0
ARC
  8
0
 62
0
 10
97.08045
 20
41.23804999999998
 30
0.0
 40
0.4999999999999858
 50
-90.00000000000163
 51
0.0
  0
ARC
  8
0
 62
0
 10
45.98045
 20
41.23804999999998
 30
0.0
 40
0.4999999999999929
 50
180.0
 51
-90.0
  0
LINE
  8
0
 62
0
 10
78.53045
 20
41.23804999999999
 30
0.0
 11
78.53045
 21
54.23805
 31
0.0
  0
LINE
  8
0
 62
0
 10
70.88670000000002
 20
16.637980000000002
 30
0.0
 11
57.88670000000002
 21
16.637980000000002
 31
0.0
  0
LINE
  8
0
 62
0
 10
112.1555
 20
35.188
 30
0.0
 11
112.1555
 21
22.18800000000001
 31
0.0
  0
LINE
  8
0
 62
0
 10
112.65550000000002
 20
21.68800000000001
 30
0.0
 11
125.65550000000002
 21
21.68800000000001
 31
0.0
  0
ARC
  8
0
 62
0
 10
87.55544999999998
 20
22.188000000000013
 30
0.0
 40
0.5000000000000036
 50
-90.0
 51
-0.0
  0
ARC
  8
0
 62
0
 10
93.60540000000003
 20
22.18800000000001
 30
0.0
 40
0.5
 50
-180.0
 51
-90.0
  0
LINE
  8
0
 62
0
 10
68.50545
 20
35.688
 30
0.0
 11
55.505449999999996
 21
35.688
 31
0.0
  0
ARC
  8
0
 62
0
 10
93.60540000000003
 20
35.188
 30
0.0
 40
0.5000000000000071
 50
90.0
 51
180.0
  0
ARC
  8
0
 62
0
 10
68.50545
 20
22.188000000000006
 30
0.0
 40
0.49999999999999645
 50
-90.0
 51
0.0
  0
ARC
  8
0
 62
0
 10
125.65550000000002
 20
35.187999999999995
 30
0.0
 40
0.5
 50
0.0
 51
90.0
  0
LINE
  8
0
 62
0
 10
93.10540000000003
 20
35.18800000000001
 30
0.0
 11
93.10540000000003
 21
22.188000000000002
 31
0.0
  0
LINE
  8
0
 62
0
 10
49.45545000000001
 20
35.68800000000002
 30
0.0
 11
36.45545
 21
35.68800000000001
 31
0.0
  0
LINE
  8
0
 62
0
 10
69.00545
 20
22.18800000000001
 30
0.0
 11
69.00545
 21
35.188
 31
0.0
  0
LINE
  8
0
 62
0
 10
125.65550000000002
 20
35.688
 30
0.0
 11
112.65550000000002
 21
35.688
 31
0.0
  0
LINE
  8
0
 62
0
 10
74.55545
 20
21.688000000000006
 30
0.0
 11
87.55544999999998
 21
21.68800000000001
 31
0.0
  0
LINE
  8
0
 62
0
 10
55.00545000000001
 20
35.188
 30
0.0
 11
55.00545000000001
 21
22.18800000000001
 31
0.0
  0
LINE
  8
0
 62
0
 10
71.38670000000002
 20
3.13798
 30
0.0
 11
71.38670000000002
 21
16.137980000000002
 31
0.0
  0
ARC
  8
0
 62
0
 10
106.6054
 20
22.188000000000017
 30
0.0
 40
0.5000000000000107
 50
-90.0
 51
-0.0
  0
ARC
  8
0
 62
0
 10
18.499965
 20
16.137979999999995
 30
0.0
 40
0.5000000000000036
 50
0.0
 51
89.99999999999959
  0
ARC
  8
0
 62
0
 10
74.55545000000001
 20
22.187999999999995
 30
0.0
 40
0.5
 50
180.0
 51
-90.00000000000163
  0
LINE
  8
0
 62
0
 10
55.505449999999996
 20
21.68800000000001
 30
0.0
 11
68.50545
 21
21.68800000000001
 31
0.0
  0
ARC
  8
0
 62
0
 10
68.50545
 20
35.188
 30
0.0
 40
0.5
 50
-0.0
 51
90.0
  0
ARC
  8
0
 62
0
 10
49.45545000000001
 20
35.188000000000024
 30
0.0
 40
0.4999999999999929
 50
-0.0
 51
90.0
  0
LINE
  8
0
 62
0
 10
93.60540000000003
 20
21.688000000000006
 30
0.0
 11
106.6054
 21
21.688000000000006
 31
0.0
  0
LINE
  8
0
 62
0
 10
107.10540000000002
 20
22.188000000000002
 30
0.0
 11
107.10540000000002
 21
35.18800000000001
 31
0.0
  0
ARC
  8
0
 62
0
 10
36.45545
 20
22.188
 30
0.0
 40
0.4999999999999929
 50
180.0
 51
-90.0
  0
ARC
  8
0
 62
0
 10
106.6054
 20
35.18799999999999
 30
0.0
 40
0.5000000000000142
 50
0.0
 51
90.0
  0
ARC
  8
0
 62
0
 10
125.65550000000002
 20
22.188000000000013
 30
0.0
 40
0.5000000000000036
 50
-90.0
 51
-0.0
  0
LINE
  8
0
 62
0
 10
87.55544999999998
 20
35.68800000000001
 30
0.0
 11
74.55545
 21
35.68800000000001
 31
0.0
  0
LINE
  8
0
 62
0
 10
126.15550000000002
 20
22.18800000000001
 30
0.0
 11
126.15550000000002
 21
35.188
 31
0.0
  0
LINE
  8
0
 62
0
 10
88.05544999999998
 20
22.188000000000002
 30
0.0
 11
88.05544999999998
 21
35.18800000000001
 31
0.0
  0
LINE
  8
0
 62
0
 10
35.955450000000006
 20
35.18800000000001
 30
0.0
 11
35.955450000000006
 21
22.188000000000002
 31
0.0
  0
LINE
  8
0
 62
0
 10
74.05545000000001
 20
35.18800000000001
 30
0.0
 11
74.05545000000001
 21
22.188000000000002
 31
0.0
  0
ARC
  8
0
 62
0
 10
55.50545
 20
35.18800000000001
 30
0.0
 40
0.4999999999999929
 50
90.00000000000081
 51
-180.0
  0
ARC
  8
0
 62
0
 10
55.50545
 20
22.188
 30
0.0
 40
0.4999999999999929
 50
180.0
 51
-90.00000000000081
  0
ARC
  8
0
 62
0
 10
87.55544999999998
 20
35.188
 30
0.0
 40
0.5
 50
0.0
 51
90.0
  0
LINE
  8
0
 62
0
 10
106.6054
 20
35.688
 30
0.0
 11
93.60540000000003
 21
35.68800000000001
 31
0.0
  0
ARC
  8
0
 62
0
 10
112.65550000000002
 20
35.18799999999999
 30
0.0
 40
0.5000000000000142
 50
90.0
 51
180.0
  0
ARC
  8
0
 62
0
 10
36.45545
 20
35.18800000000002
 30
0.0
 40
0.4999999999999929
 50
90.0
 51
-180.0
  0
ARC
  8
0
 62
0
 10
112.65550000000002
 20
22.18800000000002
 30
0.0
 40
0.5000000000000142
 50
-180.0
 51
-90.0
  0
ARC
  8
0
 62
0
 10
74.55545000000001
 20
35.18800000000002
 30
0.0
 40
0.4999999999999929
 50
90.00000000000163
 51
-180.0
  0
LINE
  8
0
 62
0
 10
57.88670000000002
 20
2.637979999999996
 30
0.0
 11
70.88670000000002
 21
2.637979999999996
 31
0.0
  0
ARC
  8
0
 62
0
 10
70.88670000000002
 20
3.1379799999999953
 30
0.0
 40
0.4999999999999991
 50
-90.0
 51
0.0
  0
ARC
  8
0
 62
0
 10
70.88670000000002
 20
16.137980000000006
 30
0.0
 40
0.5
 50
-0.0
 51
90.0
  0
ARC
  8
0
 62
0
 10
57.88670000000002
 20
16.13798000000001
 30
0.0
 40
0.4999999999999929
 50
90.0
 51
-180.0
  0
LINE
  8
0
 62
0
 10
57.386700000000026
 20
16.137980000000002
 30
0.0
 11
57.38670000000002
 21
3.13798
 31
0.0
  0
ARC
  8
0
 62
0
 10
57.88670000000002
 20
3.1379799999999953
 30
0.0
 40
0.5
 50
180.0
 51
-90.0
  0
LINE
  8
0
 62
0
 10
5.4999649999999995
 20
2.637980000000002
 30
0.0
 11
18.499965000000003
 21
2.637980000000002
 31
0.0
  0
ARC
  8
0
 62
0
 10
18.499965
 20
3.1379800000000047
 30
0.0
 40
0.5000000000000027
 50
-89.99999999999959
 51
-0.0
  0
LINE
  8
0
 62
0
 10
18.999965000000003
 20
3.13798
 30
0.0
 11
18.999965000000003
 21
16.13798
 31
0.0
  0
LINE
  8
0
 62
0
 10
18.499965000000003
 20
16.63798
 30
0.0
 11
5.4999649999999995
 21
16.637980000000002
 31
0.0
  0
ARC
  8
0
 62
0
 10
5.499965000000004
 20
16.137979999999995
 30
0.0
 40
0.5000000000000071
 50
90.00000000000051
 51
180.0
  0
LINE
  8
0
 62
0
 10
4.9999649999999995
 20
16.13798
 30
0.0
 11
4.9999649999999995
 21
3.137980000000002
 31
0.0
  0
ARC
  8
0
 62
0
 10
44.693650000000005
 20
16.137980000000002
 30
0.0
 40
0.5
 50
-0.0
 51
90.0
  0
ARC
  8
0
 62
0
 10
5.4999649999999995
 20
3.1379800000000024
 30
0.0
 40
0.5
 50
-180.0
 51
-90.0
  0
ARC
  8
0
 62
0
 10
31.693649999999995
 20
16.13798000000001
 30
0.0
 40
0.4999999999999929
 50
89.99999999999959
 51
-180.0
  0
LINE
  8
0
 62
0
 10
31.693649999999998
 20
2.6379799999999998
 30
0.0
 11
44.693650000000005
 21
2.6379800000000007
 31
0.0
  0
LINE
  8
0
 62
0
 10
31.19365
 20
16.137980000000002
 30
0.0
 11
31.19365
 21
3.1379799999999998
 31
0.0
  0
ARC
  8
0
 62
0
 10
31.693649999999998
 20
3.1379799999999967
 30
0.0
 40
0.49999999999999645
 50
180.0
 51
-90.0
  0
CIRCLE
  8
0
 62
0
 10
29.903706600000003
 20
22.5479
 30
0.0
 40
2.4999999999999964
  0
LINE
  8
0
 62
0
 10
44.693650000000005
 20
16.637980000000002
 30
0.0
 11
31.693649999999998
 21
16.637980000000002
 31
0.0
  0
LINE
  8
0
 62
0
 10
45.193650000000005
 20
3.13798
 30
0.0
 11
45.193650000000005
 21
16.137980000000002
 31
0.0
  0
ARC
  8
0
 62
0
 10
44.693650000000005
 20
3.13798
 30
0.0
 40
0.49999999999999956
 50
-90.0
 51
-0.0
  0
ENDSEC
  0
EOF
