  0
SECTION
  2
HEADER
  9
$ACADVER
  1
AC1009
  9
$INSBASE
 10
0.0
 20
0.0
 30
0.0
  9
$EXTMIN
 10
0.0
 20
0.0
 30
0.0
  9
$EXTMAX
 10
0.0
 20
0.0
 30
0.0
  0
ENDSEC
  0
SECTION
  2
TABLES
  0
TABLE
  2
VPORT
 70
0
  0
ENDTAB
  0
TABLE
  2
LTYPE
 70
1
  0
LTYPE
  2
CONTINUOUS
 70
0
  3
Solid line
 72
65
 73
0
 40
0.0
  0
ENDTAB
  0
TABLE
  2
LAYER
 70
1
  0
LAYER
  2
0
 70
64
 62
7
  6
continuous
  0
ENDTAB
  0
TABLE
  2
STYLE
 70
1
  0
STYLE
  2
STANDARD
 70
0
 40
0
 41
1.0
 50
0.0
 71
0
 42
1
 3
ARIAL.TTF
 4

  0
ENDTAB
  0
TABLE
  2
VIEW
 70
0
  0
ENDTAB
  0
ENDSEC
  0
SECTION
  2
BLOCKS
  0
ENDSEC
  0
SECTION
  2
ENTITIES
  0
ARC
  8
0
 62
0
 10
3.0937065999999978
 20
73.56290000000001
 30
0.0
 40
2.999999999999986
 50
90.00000000000016
 51
-180.0
  0
ARC
  8
0
 62
0
 10
7.856110000000003
 20
15.912900000000011
 30
0.0
 40
2.9999999999999964
 50
90.0
 51
-180.0
  0
LINE
  8
0
 62
0
 10
4.8561100000000055
 20
15.912900000000006
 30
0.0
 11
4.856110000000005
 21
2.8629989999999994
 31
0.0
  0
LINE
  8
0
 62
0
 10
0.09370660000000974
 20
73.56290000000001
 30
0.0
 11
0.09370659999999642
 21
60.26320000000002
 31
0.0
  0
LINE
  8
0
 62
0
 10
120.89349999999999
 20
54.738050000000015
 30
0.0
 11
107.89350000000002
 21
54.738050000000015
 31
0.0
  0
ARC
  8
0
 62
0
 10
11.37960000000001
 20
21.912900000000004
 30
0.0
 40
2.999999999999993
 50
-90.0000000000002
 51
-0.0
  0
LINE
  8
0
 62
0
 10
78.81864999999998
 20
73.28805000000001
 30
0.0
 11
78.81864999999998
 21
60.28805
 31
0.0
  0
LINE
  8
0
 62
0
 10
14.379600000000003
 20
35.4632
 30
0.0
 11
14.379600000000003
 21
21.912900000000004
 31
0.0
  0
LINE
  8
0
 62
0
 10
15.2811
 20
11.9379
 30
0.0
 11
16.1051
 21
11.9379
 31
0.0
  0
LINE
  8
0
 62
0
 10
16.1051
 20
11.9379
 30
0.0
 11
16.90555
 21
11.9379
 31
0.0
  0
LINE
  8
0
 62
0
 10
8.630639999999998
 20
15.368100000000007
 30
0.0
 11
10.306300000000002
 21
15.368100000000007
 31
0.0
  0
LINE
  8
0
 62
0
 10
13.605400000000001
 20
15.368100000000007
 30
0.0
 11
15.2811
 21
15.368100000000007
 31
0.0
  0
LINE
  8
0
 62
0
 10
15.2811
 20
15.368100000000007
 30
0.0
 11
15.2811
 21
11.9379
 31
0.0
  0
LINE
  8
0
 62
0
 10
16.90555
 20
11.9379
 30
0.0
 11
16.90555
 21
16.137980000000002
 31
0.0
  0
LINE
  8
0
 62
0
 10
34.2057
 20
2.6676999999999973
 30
0.0
 11
32.5313
 21
2.6676999999999973
 31
0.0
  0
LINE
  8
0
 62
0
 10
16.90555
 20
7.338060000000004
 30
0.0
 11
16.1051
 21
7.338060000000004
 31
0.0
  0
LINE
  8
0
 62
0
 10
20.880540000000003
 20
54.73805
 30
0.0
 11
20.002360483184102
 21
54.738050000000015
 31
0.0
  0
LINE
  8
0
 62
0
 10
13.605400000000001
 20
16.488599999999998
 30
0.0
 11
13.605400000000001
 21
15.368100000000007
 31
0.0
  0
LINE
  8
0
 62
0
 10
31.705900000000007
 20
11.9379
 30
0.0
 11
32.5313
 21
11.9379
 31
0.0
  0
LINE
  8
0
 62
0
 10
32.5313
 20
15.368100000000007
 30
0.0
 11
34.2057
 21
15.368100000000007
 31
0.0
  0
LINE
  8
0
 62
0
 10
39.1806
 20
2.6676999999999973
 30
0.0
 11
37.5059
 21
2.6676999999999973
 31
0.0
  0
LINE
  8
0
 62
0
 10
30.905550000000005
 20
11.9379
 30
0.0
 11
31.705900000000007
 21
11.9379
 31
0.0
  0
LINE
  8
0
 62
0
 10
37.5059
 20
16.488599999999998
 30
0.0
 11
37.5059
 21
15.368100000000007
 31
0.0
  0
LINE
  8
0
 62
0
 10
32.5313
 20
11.9379
 30
0.0
 11
32.5313
 21
15.368100000000007
 31
0.0
  0
LINE
  8
0
 62
0
 10
37.5059
 20
2.6676999999999973
 30
0.0
 11
37.5059
 21
1.8879100000000015
 31
0.0
  0
LINE
  8
0
 62
0
 10
21.380540000000003
 20
41.23805000000001
 30
0.0
 11
21.380540000000003
 21
54.238050000000015
 31
0.0
  0
LINE
  8
0
 62
0
 10
69.00545
 20
22.188000000000002
 30
0.0
 11
69.00545
 21
35.188
 31
0.0
  0
LINE
  8
0
 62
0
 10
30.40555000000001
 20
35.688
 30
0.0
 11
17.40555
 21
35.688
 31
0.0
  0
LINE
  8
0
 62
0
 10
16.90555
 20
3.1379799999999998
 30
0.0
 11
16.90555
 21
7.338060000000004
 31
0.0
  0
LINE
  8
0
 62
0
 10
45.98045
 20
40.73805000000001
 30
0.0
 11
58.980450000000005
 21
40.73805000000001
 31
0.0
  0
ARC
  8
0
 62
0
 10
45.980450000000005
 20
54.23805000000002
 30
0.0
 40
0.4999999999999929
 50
90.00000000000081
 51
-180.0
  0
LINE
  8
0
 62
0
 10
55.505449999999996
 20
21.688000000000006
 30
0.0
 11
68.50545
 21
21.688000000000006
 31
0.0
  0
ARC
  8
0
 62
0
 10
73.26865000000002
 20
60.28805
 30
0.0
 40
0.4999999999999929
 50
-90.0
 51
-0.0
  0
ARC
  8
0
 62
0
 10
3.118734999999993
 20
60.28805
 30
0.0
 40
0.49999999999999556
 50
-180.0
 51
-89.99999999999903
  0
ARC
  8
0
 62
0
 10
87.55544999999998
 20
22.188000000000006
 30
0.0
 40
0.5000000000000036
 50
-90.0
 51
-0.0
  0
LINE
  8
0
 62
0
 10
88.05544999999998
 20
22.188
 30
0.0
 11
88.05544999999998
 21
35.188
 31
0.0
  0
ARC
  8
0
 62
0
 10
39.930450000000015
 20
54.238050000000015
 30
0.0
 40
0.4999999999999929
 50
-0.0
 51
90.0
  0
ARC
  8
0
 62
0
 10
39.930450000000015
 20
41.23805000000001
 30
0.0
 40
0.4999999999999929
 50
-90.0
 51
-0.0
  0
LINE
  8
0
 62
0
 10
8.630639999999998
 20
9.137760000000004
 30
0.0
 11
7.755610000000002
 21
9.137760000000004
 31
0.0
  0
ARC
  8
0
 62
0
 10
65.03044999999999
 20
41.23805
 30
0.0
 40
0.4999999999999858
 50
180.0
 51
-89.99999999999837
  0
LINE
  8
0
 62
0
 10
26.930450000000008
 20
40.738050000000015
 30
0.0
 11
39.930450000000015
 21
40.738050000000015
 31
0.0
  0
ARC
  8
0
 62
0
 10
92.31865
 20
60.28804999999999
 30
0.0
 40
0.4999999999999858
 50
-90.00000000000163
 51
0.0
  0
LINE
  8
0
 62
0
 10
105.5115
 20
59.78805000000001
 30
0.0
 11
118.51150000000001
 21
59.788050000000005
 31
0.0
  0
LINE
  8
0
 62
0
 10
34.2057
 20
15.368100000000007
 30
0.0
 11
34.2057
 21
16.488599999999998
 31
0.0
  0
LINE
  8
0
 62
0
 10
3.1187350000000014
 20
59.788050000000005
 30
0.0
 11
16.118735
 21
59.78805000000001
 31
0.0
  0
LINE
  8
0
 62
0
 10
40.43045000000001
 20
41.23805000000001
 30
0.0
 11
40.43045000000001
 21
54.238050000000015
 31
0.0
  0
LINE
  8
0
 62
0
 10
35.168650000000014
 20
73.78805
 30
0.0
 11
22.168650000000003
 21
73.78805000000001
 31
0.0
  0
LINE
  8
0
 62
0
 10
10.306300000000002
 20
1.8879100000000015
 30
0.0
 11
10.306300000000002
 21
2.6676999999999973
 31
0.0
  0
LINE
  8
0
 62
0
 10
128.931
 20
2.862999000000004
 30
0.0
 11
128.93100000000004
 21
73.5629
 31
0.0
  0
ARC
  8
0
 62
0
 10
1.854619999999987
 20
54.39253867458696
 30
0.0
 40
3.0000000000000213
 50
0.0
 51
78.08183308294943
  0
ARC
  8
0
 62
0
 10
125.93100000000001
 20
73.56289999999998
 30
0.0
 40
3.0000000000000284
 50
0.0
 51
89.99999999999919
  0
LINE
  8
0
 62
0
 10
13.605400000000001
 20
2.6676999999999973
 30
0.0
 11
13.605400000000001
 21
1.8879100000000015
 31
0.0
  0
LINE
  8
0
 62
0
 10
125.93100000000005
 20
76.5629
 30
0.0
 11
3.09370659999999
 21
76.5629
 31
0.0
  0
LINE
  8
0
 62
0
 10
50.2427
 20
16.138695
 30
0.0
 11
50.2427
 21
3.138695
 31
0.0
  0
LINE
  8
0
 62
0
 10
49.955450000000006
 20
22.188
 30
0.0
 11
49.95545
 21
35.188
 31
0.0
  0
ARC
  8
0
 62
0
 10
93.60540000000003
 20
3.138000000000007
 30
0.0
 40
0.5
 50
-180.0
 51
-90.0
  0
ARC
  8
0
 62
0
 10
30.405550000000005
 20
35.188
 30
0.0
 40
0.5
 50
-0.0
 51
89.99999999999959
  0
ARC
  8
0
 62
0
 10
55.505449999999996
 20
22.18799999999999
 30
0.0
 40
0.4999999999999858
 50
180.0
 51
-90.0
  0
ARC
  8
0
 62
0
 10
112.65540000000004
 20
16.13799999999999
 30
0.0
 40
0.5000000000000071
 50
90.0
 51
180.0
  0
LINE
  8
0
 62
0
 10
49.45545000000001
 20
35.688
 30
0.0
 11
36.45545
 21
35.688
 31
0.0
  0
LINE
  8
0
 62
0
 10
32.5313
 20
7.338060000000004
 30
0.0
 11
31.705900000000007
 21
7.338060000000004
 31
0.0
  0
LINE
  8
0
 62
0
 10
31.705900000000007
 20
7.338060000000004
 30
0.0
 11
30.905550000000005
 21
7.338060000000004
 31
0.0
  0
LINE
  8
0
 62
0
 10
119.01150000000001
 20
60.28805
 30
0.0
 11
119.01150000000001
 21
73.28805000000001
 31
0.0
  0
LINE
  8
0
 62
0
 10
37.5059
 20
1.8879100000000015
 30
0.0
 11
34.2057
 21
1.8879100000000015
 31
0.0
  0
ARC
  8
0
 62
0
 10
78.03045000000002
 20
41.23805
 30
0.0
 40
0.4999999999999929
 50
-90.00000000000163
 51
0.0
  0
LINE
  8
0
 62
0
 10
7.88054
 20
40.73805000000001
 30
0.0
 11
20.880540000000003
 21
40.738050000000015
 31
0.0
  0
LINE
  8
0
 62
0
 10
7.856109999999994
 20
-0.13700099999999882
 30
0.0
 11
125.931
 21
-0.13700099999999493
 31
0.0
  0
ARC
  8
0
 62
0
 10
93.60540000000003
 20
35.187999999999995
 30
0.0
 40
0.5000000000000071
 50
90.0
 51
180.0
  0
ARC
  8
0
 62
0
 10
87.55544999999998
 20
35.187999999999995
 30
0.0
 40
0.5
 50
0.0
 51
90.0
  0
LINE
  8
0
 62
0
 10
87.55544999999998
 20
35.688
 30
0.0
 11
74.55545
 21
35.688
 31
0.0
  0
LINE
  8
0
 62
0
 10
21.66865
 20
73.28805000000001
 30
0.0
 11
21.66865
 21
60.28805
 31
0.0
  0
LINE
  8
0
 62
0
 10
112.1555
 20
35.188
 30
0.0
 11
112.1555
 21
22.188
 31
0.0
  0
ARC
  8
0
 62
0
 10
7.856110000000003
 20
2.862998999999999
 30
0.0
 40
2.9999999999999982
 50
180.0
 51
-90.00000000000018
  0
CIRCLE
  8
0
 62
0
 10
33.68000000000002
 20
19.062900000000006
 30
0.0
 40
2.5
  0
LINE
  8
0
 62
0
 10
93.10540000000003
 20
35.188
 30
0.0
 11
93.10540000000003
 21
22.188
 31
0.0
  0
ARC
  8
0
 62
0
 10
11.379600000000002
 20
35.46319999999999
 30
0.0
 40
3.0
 50
0.0
 51
90.00000000000004
  0
CIRCLE
  8
0
 62
0
 10
98.39100000000002
 20
59.447900000000004
 30
0.0
 40
2.5
  0
ARC
  8
0
 62
0
 10
112.65550000000002
 20
22.188000000000013
 30
0.0
 40
0.5000000000000142
 50
-180.0
 51
-90.0
  0
LINE
  8
0
 62
0
 10
40.0554
 20
9.137760000000004
 30
0.0
 11
39.1806
 21
9.137760000000004
 31
0.0
  0
ARC
  8
0
 62
0
 10
54.21865000000002
 20
60.28804999999999
 30
0.0
 40
0.4999999999999858
 50
-90.00000000000163
 51
0.0
  0
LINE
  8
0
 62
0
 10
34.2057
 20
16.488599999999998
 30
0.0
 11
37.5059
 21
16.488599999999998
 31
0.0
  0
ARC
  8
0
 62
0
 10
105.51149999999997
 20
60.288050000000005
 30
0.0
 40
0.4999999999999858
 50
-180.0
 51
-89.99999999999675
  0
ARC
  8
0
 62
0
 10
20.88054000000001
 20
41.238050000000015
 30
0.0
 40
0.5
 50
-90.00000000000081
 51
-0.0
  0
LINE
  8
0
 62
0
 10
74.55545
 20
21.688000000000002
 30
0.0
 11
87.55544999999998
 21
21.688000000000002
 31
0.0
  0
LINE
  8
0
 62
0
 10
39.1806
 20
9.137760000000004
 30
0.0
 11
39.1806
 21
2.6676999999999973
 31
0.0
  0
ARC
  8
0
 62
0
 10
7.854620000000004
 20
41.46319999999999
 30
0.0
 40
3.0
 50
-180.0
 51
-90.00000000000003
  0
ARC
  8
0
 62
0
 10
79.31864999999998
 20
73.28805000000001
 30
0.0
 40
0.5
 50
90.0
 51
-180.0
  0
LINE
  8
0
 62
0
 10
7.854620000000003
 20
38.46319999999999
 30
0.0
 11
11.3796
 21
38.46319999999999
 31
0.0
  0
ARC
  8
0
 62
0
 10
118.51150000000003
 20
73.28805000000003
 30
0.0
 40
0.4999999999999858
 50
-0.0
 51
90.00000000000163
  0
ARC
  8
0
 62
0
 10
125.93100000000001
 20
2.8629990000000074
 30
0.0
 40
3.000000000000002
 50
-90.00000000000028
 51
-0.0
  0
LINE
  8
0
 62
0
 10
8.630639999999998
 20
11.9379
 30
0.0
 11
8.630639999999998
 21
15.368100000000007
 31
0.0
  0
LINE
  8
0
 62
0
 10
10.306300000000002
 20
2.6676999999999973
 30
0.0
 11
8.630639999999998
 21
2.6676999999999973
 31
0.0
  0
LINE
  8
0
 62
0
 10
13.605400000000001
 20
1.8879100000000015
 30
0.0
 11
10.306300000000002
 21
1.8879100000000015
 31
0.0
  0
LINE
  8
0
 62
0
 10
8.630639999999998
 20
2.6676999999999973
 30
0.0
 11
8.630639999999998
 21
9.137760000000004
 31
0.0
  0
LINE
  8
0
 62
0
 10
11.3796
 20
18.912900000000008
 30
0.0
 11
7.856110000000003
 21
18.912900000000008
 31
0.0
  0
LINE
  8
0
 62
0
 10
7.755610000000002
 20
9.137760000000004
 30
0.0
 11
7.755610000000002
 21
11.9379
 31
0.0
  0
ARC
  8
0
 62
0
 10
118.51150000000003
 20
60.28804999999999
 30
0.0
 40
0.4999999999999858
 50
-90.00000000000163
 51
0.0
  0
LINE
  8
0
 62
0
 10
30.905550000000005
 20
7.338060000000004
 30
0.0
 11
30.905550000000005
 21
3.13798
 31
0.0
  0
ARC
  8
0
 62
0
 10
30.405550000000005
 20
3.137979999999996
 30
0.0
 40
0.5
 50
-89.99999999999959
 51
0.0
  0
ARC
  8
0
 62
0
 10
16.11873500000001
 20
60.288050000000005
 30
0.0
 40
0.4999999999999929
 50
-90.00000000000122
 51
-0.0
  0
ARC
  8
0
 62
0
 10
58.980450000000005
 20
41.23805000000001
 30
0.0
 40
0.5
 50
-90.0
 51
-0.0
  0
LINE
  8
0
 62
0
 10
92.81864999999999
 20
60.28805
 30
0.0
 11
92.81864999999999
 21
73.28805000000001
 31
0.0
  0
LINE
  8
0
 62
0
 10
15.2811
 20
2.6676999999999973
 30
0.0
 11
13.605400000000001
 21
2.6676999999999973
 31
0.0
  0
LINE
  8
0
 62
0
 10
34.2057
 20
1.8879100000000015
 30
0.0
 11
34.2057
 21
2.6676999999999973
 31
0.0
  0
ARC
  8
0
 62
0
 10
73.26865000000002
 20
73.28805000000001
 30
0.0
 40
0.5
 50
-0.0
 51
90.0
  0
LINE
  8
0
 62
0
 10
15.2811
 20
7.338060000000004
 30
0.0
 11
15.2811
 21
2.6676999999999973
 31
0.0
  0
LINE
  8
0
 62
0
 10
16.1051
 20
7.338060000000004
 30
0.0
 11
15.2811
 21
7.338060000000004
 31
0.0
  0
LINE
  8
0
 62
0
 10
7.755610000000002
 20
11.9379
 30
0.0
 11
8.630639999999998
 21
11.9379
 31
0.0
  0
LINE
  8
0
 62
0
 10
10.306300000000002
 20
16.488599999999998
 30
0.0
 11
13.605400000000001
 21
16.488599999999998
 31
0.0
  0
LINE
  8
0
 62
0
 10
10.306300000000002
 20
15.368100000000007
 30
0.0
 11
10.306300000000002
 21
16.488599999999998
 31
0.0
  0
ARC
  8
0
 62
0
 10
3.0937066000000053
 20
60.26320000000003
 30
0.0
 40
3.000000000000009
 50
-180.0
 51
-101.91816691705043
  0
LINE
  8
0
 62
0
 10
4.8546200000000015
 20
54.39253867458697
 30
0.0
 11
4.854620000000004
 21
41.46319999999999
 31
0.0
  0
LINE
  8
0
 62
0
 10
73.26865000000002
 20
73.78805000000001
 30
0.0
 11
60.268650000000015
 21
73.78805000000001
 31
0.0
  0
ARC
  8
0
 62
0
 10
60.26865000000002
 20
73.28805000000001
 30
0.0
 40
0.5
 50
90.00000000000081
 51
-180.0
  0
LINE
  8
0
 62
0
 10
59.480450000000005
 20
41.23805000000001
 30
0.0
 11
59.480450000000005
 21
54.238050000000015
 31
0.0
  0
LINE
  8
0
 62
0
 10
60.268650000000015
 20
59.788050000000005
 30
0.0
 11
73.26865000000002
 21
59.788050000000005
 31
0.0
  0
LINE
  8
0
 62
0
 10
59.76865000000002
 20
73.28805000000001
 30
0.0
 11
59.76865000000002
 21
60.28805
 31
0.0
  0
ARC
  8
0
 62
0
 10
60.268650000000015
 20
60.28804999999999
 30
0.0
 40
0.4999999999999929
 50
180.0
 51
-90.0
  0
LINE
  8
0
 62
0
 10
45.480450000000005
 20
54.238050000000015
 30
0.0
 11
45.480450000000005
 21
41.23805000000001
 31
0.0
  0
LINE
  8
0
 62
0
 10
58.980450000000005
 20
54.738050000000015
 30
0.0
 11
45.98045
 21
54.738050000000015
 31
0.0
  0
ARC
  8
0
 62
0
 10
58.980450000000005
 20
54.238050000000015
 30
0.0
 40
0.5
 50
-0.0
 51
90.0
  0
LINE
  8
0
 62
0
 10
26.430450000000008
 20
54.238050000000015
 30
0.0
 11
26.430450000000008
 21
41.23805000000001
 31
0.0
  0
ARC
  8
0
 62
0
 10
45.980450000000005
 20
41.23805
 30
0.0
 40
0.5
 50
180.0
 51
-90.00000000000081
  0
ARC
  8
0
 62
0
 10
17.405550000000005
 20
16.13798
 30
0.0
 40
0.5000000000000036
 50
90.00000000000041
 51
180.0
  0
LINE
  8
0
 62
0
 10
17.40555
 20
16.637980000000002
 30
0.0
 11
30.405550000000005
 21
16.637980000000002
 31
0.0
  0
LINE
  8
0
 62
0
 10
30.90555
 20
16.137980000000002
 30
0.0
 11
30.905550000000005
 21
11.9379
 31
0.0
  0
LINE
  8
0
 62
0
 10
37.5059
 20
15.368100000000007
 30
0.0
 11
39.1806
 21
15.368100000000007
 31
0.0
  0
LINE
  8
0
 62
0
 10
39.1806
 20
15.368100000000007
 30
0.0
 11
39.1806
 21
11.9379
 31
0.0
  0
ARC
  8
0
 62
0
 10
30.40555000000001
 20
16.13798000000001
 30
0.0
 40
0.4999999999999929
 50
-0.0
 51
90.00000000000041
  0
ARC
  8
0
 62
0
 10
7.880539999999998
 20
54.238050000000015
 30
0.0
 40
0.5
 50
89.9999999999998
 51
-180.0
  0
LINE
  8
0
 62
0
 10
7.380539999999999
 20
54.238050000000015
 30
0.0
 11
7.38054
 21
41.23805000000001
 31
0.0
  0
ARC
  8
0
 62
0
 10
7.880539999999998
 20
41.23805000000001
 30
0.0
 40
0.4999999999999982
 50
-180.0
 51
-89.9999999999998
  0
LINE
  8
0
 62
0
 10
16.618735
 20
60.28805
 30
0.0
 11
16.618735000000004
 21
73.28805000000001
 31
0.0
  0
LINE
  8
0
 62
0
 10
40.0554
 20
11.9379
 30
0.0
 11
40.0554
 21
9.137760000000004
 31
0.0
  0
LINE
  8
0
 62
0
 10
32.5313
 20
2.6676999999999973
 30
0.0
 11
32.5313
 21
7.338060000000004
 31
0.0
  0
LINE
  8
0
 62
0
 10
30.40555000000001
 20
2.6379799999999998
 30
0.0
 11
17.40555
 21
2.6379799999999993
 31
0.0
  0
ARC
  8
0
 62
0
 10
20.880540000000014
 20
54.23805000000001
 30
0.0
 40
0.49999999999998934
 50
0.0
 51
90.00000000000122
  0
ARC
  8
0
 62
0
 10
17.405550000000005
 20
3.137980000000002
 30
0.0
 40
0.5000000000000027
 50
-180.0
 51
-90.00000000000041
  0
LINE
  8
0
 62
0
 10
18.785639516815912
 20
54.738050000000015
 30
0.0
 11
7.88054
 21
54.738050000000015
 31
0.0
  0
LINE
  8
0
 62
0
 10
39.1806
 20
11.9379
 30
0.0
 11
40.0554
 21
11.9379
 31
0.0
  0
ARC
  8
0
 62
0
 10
19.394000000000005
 20
57.162900000000015
 30
0.0
 40
2.499999999999997
 50
-75.91599820761034
 51
-104.08400179238959
  0
ARC
  8
0
 62
0
 10
35.16865000000002
 20
60.28805
 30
0.0
 40
0.4999999999999929
 50
-90.00000000000081
 51
-0.0
  0
ARC
  8
0
 62
0
 10
26.93045
 20
41.238050000000015
 30
0.0
 40
0.4999999999999929
 50
-180.0
 51
-89.99999999999919
  0
LINE
  8
0
 62
0
 10
73.76865000000002
 20
60.28805
 30
0.0
 11
73.76865000000002
 21
73.28805000000001
 31
0.0
  0
ARC
  8
0
 62
0
 10
107.8935
 20
54.23805000000002
 30
0.0
 40
0.4999999999999929
 50
89.99999999999837
 51
-180.0
  0
ARC
  8
0
 62
0
 10
22.168649999999996
 20
73.28805000000001
 30
0.0
 40
0.5
 50
89.99999999999919
 51
-180.0
  0
ARC
  8
0
 62
0
 10
35.16865000000002
 20
73.28805
 30
0.0
 40
0.4999999999999858
 50
0.0
 51
90.00000000000081
  0
ARC
  8
0
 62
0
 10
105.51149999999997
 20
73.28805000000001
 30
0.0
 40
0.5
 50
89.99999999999675
 51
-180.0
  0
LINE
  8
0
 62
0
 10
107.39350000000002
 20
54.238050000000015
 30
0.0
 11
107.39350000000002
 21
41.23805000000001
 31
0.0
  0
LINE
  8
0
 62
0
 10
126.15550000000002
 20
22.188
 30
0.0
 11
126.15550000000002
 21
35.188
 31
0.0
  0
ARC
  8
0
 62
0
 10
125.65550000000002
 20
35.187999999999995
 30
0.0
 40
0.5
 50
0.0
 51
90.0
  0
LINE
  8
0
 62
0
 10
35.668650000000014
 20
60.28805
 30
0.0
 11
35.66865000000001
 21
73.28805000000001
 31
0.0
  0
ARC
  8
0
 62
0
 10
16.118735000000004
 20
73.28805000000001
 30
0.0
 40
0.5
 50
-0.0
 51
90.00000000000041
  0
LINE
  8
0
 62
0
 10
2.6187349999999974
 20
73.28805000000001
 30
0.0
 11
2.6187349999999974
 21
60.28805
 31
0.0
  0
ARC
  8
0
 62
0
 10
3.1187349999999965
 20
73.28805000000001
 30
0.0
 40
0.5
 50
89.99999999999949
 51
-180.0
  0
LINE
  8
0
 62
0
 10
16.118735
 20
73.78805000000001
 30
0.0
 11
3.118735000000001
 21
73.78805000000001
 31
0.0
  0
LINE
  8
0
 62
0
 10
22.168650000000003
 20
59.788050000000005
 30
0.0
 11
35.168650000000014
 21
59.788050000000005
 31
0.0
  0
LINE
  8
0
 62
0
 10
41.21865
 20
59.788050000000005
 30
0.0
 11
54.218650000000004
 21
59.788050000000005
 31
0.0
  0
LINE
  8
0
 62
0
 10
54.718650000000004
 20
60.28805
 30
0.0
 11
54.718650000000004
 21
73.28805000000001
 31
0.0
  0
ARC
  8
0
 62
0
 10
54.21865000000001
 20
73.28805000000003
 30
0.0
 40
0.4999999999999929
 50
-0.0
 51
90.00000000000081
  0
ARC
  8
0
 62
0
 10
22.168649999999992
 20
60.28805
 30
0.0
 40
0.4999999999999929
 50
-180.0
 51
-89.99999999999878
  0
ARC
  8
0
 62
0
 10
26.930449999999997
 20
54.23805000000001
 30
0.0
 40
0.4999999999999929
 50
89.99999999999878
 51
180.0
  0
LINE
  8
0
 62
0
 10
54.218650000000004
 20
73.78805000000001
 30
0.0
 11
41.21865
 21
73.78805000000001
 31
0.0
  0
LINE
  8
0
 62
0
 10
40.71865
 20
73.28805000000001
 30
0.0
 11
40.71865
 21
60.28805
 31
0.0
  0
ARC
  8
0
 62
0
 10
41.21864999999998
 20
60.28804999999999
 30
0.0
 40
0.4999999999999858
 50
180.0
 51
-89.99999999999837
  0
LINE
  8
0
 62
0
 10
39.930450000000015
 20
54.73805
 30
0.0
 11
26.930450000000008
 21
54.73805
 31
0.0
  0
ARC
  8
0
 62
0
 10
41.21864999999999
 20
73.28805000000003
 30
0.0
 40
0.4999999999999858
 50
89.99999999999919
 51
-180.0
  0
ARC
  8
0
 62
0
 10
50.7427
 20
16.138695000000006
 30
0.0
 40
0.4999999999999929
 50
90.00000000000081
 51
-180.0
  0
ARC
  8
0
 62
0
 10
106.6054
 20
22.188000000000013
 30
0.0
 40
0.5000000000000107
 50
-90.0
 51
-0.0
  0
LINE
  8
0
 62
0
 10
121.3935
 20
41.23805000000001
 30
0.0
 11
121.3935
 21
54.238050000000015
 31
0.0
  0
LINE
  8
0
 62
0
 10
79.31864999999998
 20
59.788050000000005
 30
0.0
 11
92.31864999999999
 21
59.788050000000005
 31
0.0
  0
ARC
  8
0
 62
0
 10
120.8935
 20
54.238050000000015
 30
0.0
 40
0.5
 50
-0.0
 51
90.00000000000163
  0
LINE
  8
0
 62
0
 10
118.51150000000001
 20
73.78805000000001
 30
0.0
 11
105.5115
 21
73.78805000000001
 31
0.0
  0
LINE
  8
0
 62
0
 10
105.01149999999998
 20
73.28805000000001
 30
0.0
 11
105.01149999999998
 21
60.28805
 31
0.0
  0
ARC
  8
0
 62
0
 10
92.31865
 20
73.28805000000001
 30
0.0
 40
0.4999999999999858
 50
-0.0
 51
90.00000000000163
  0
ARC
  8
0
 62
0
 10
79.31864999999998
 20
60.28805
 30
0.0
 40
0.5
 50
-180.0
 51
-90.0
  0
LINE
  8
0
 62
0
 10
92.31864999999999
 20
73.78805
 30
0.0
 11
79.31864999999998
 21
73.78805000000001
 31
0.0
  0
ARC
  8
0
 62
0
 10
120.8935
 20
41.238050000000015
 30
0.0
 40
0.5
 50
-90.00000000000163
 51
-0.0
  0
LINE
  8
0
 62
0
 10
107.89350000000002
 20
40.73805000000001
 30
0.0
 11
120.89349999999999
 21
40.738050000000015
 31
0.0
  0
LINE
  8
0
 62
0
 10
84.08045000000001
 20
40.738050000000015
 30
0.0
 11
97.08044999999998
 21
40.73805000000001
 31
0.0
  0
LINE
  8
0
 62
0
 10
97.58044999999998
 20
41.23805000000001
 30
0.0
 11
97.58044999999998
 21
54.238050000000015
 31
0.0
  0
ARC
  8
0
 62
0
 10
97.08045
 20
41.23805
 30
0.0
 40
0.4999999999999929
 50
-90.00000000000163
 51
0.0
  0
ARC
  8
0
 62
0
 10
107.8935
 20
41.23805
 30
0.0
 40
0.4999999999999858
 50
180.0
 51
-89.99999999999837
  0
ARC
  8
0
 62
0
 10
97.08045
 20
54.238050000000015
 30
0.0
 40
0.4999999999999858
 50
-0.0
 51
90.00000000000163
  0
LINE
  8
0
 62
0
 10
78.53045
 20
41.23805000000001
 30
0.0
 11
78.53045
 21
54.238050000000015
 31
0.0
  0
ARC
  8
0
 62
0
 10
78.03045000000002
 20
54.23805000000002
 30
0.0
 40
0.4999999999999858
 50
-0.0
 51
90.00000000000163
  0
ARC
  8
0
 62
0
 10
65.03044999999999
 20
54.23805000000002
 30
0.0
 40
0.4999999999999929
 50
89.99999999999837
 51
-180.0
  0
LINE
  8
0
 62
0
 10
74.05545000000001
 20
35.188
 30
0.0
 11
74.05545000000001
 21
22.188
 31
0.0
  0
ARC
  8
0
 62
0
 10
74.55545000000001
 20
35.18800000000001
 30
0.0
 40
0.4999999999999929
 50
90.00000000000163
 51
-180.0
  0
LINE
  8
0
 62
0
 10
78.03045
 20
54.738050000000015
 30
0.0
 11
65.03045
 21
54.738050000000015
 31
0.0
  0
ARC
  8
0
 62
0
 10
87.55544999999998
 20
16.138694999999995
 30
0.0
 40
0.5
 50
0.0
 51
90.0
  0
LINE
  8
0
 62
0
 10
125.65540000000001
 20
16.638
 30
0.0
 11
112.65540000000004
 21
16.637999999999998
 31
0.0
  0
LINE
  8
0
 62
0
 10
93.60540000000003
 20
2.6380000000000026
 30
0.0
 11
106.6054
 21
2.6380000000000026
 31
0.0
  0
ARC
  8
0
 62
0
 10
125.65540000000001
 20
16.137999999999987
 30
0.0
 40
0.5000000000000142
 50
0.0
 51
90.0
  0
ARC
  8
0
 62
0
 10
36.45545
 20
35.18800000000001
 30
0.0
 40
0.4999999999999929
 50
90.0
 51
-180.0
  0
LINE
  8
0
 62
0
 10
74.55545
 20
2.6386949999999976
 30
0.0
 11
87.55544999999998
 21
2.6386949999999976
 31
0.0
  0
ARC
  8
0
 62
0
 10
93.60540000000003
 20
22.188000000000006
 30
0.0
 40
0.5
 50
-180.0
 51
-90.0
  0
LINE
  8
0
 62
0
 10
64.53045
 20
54.238050000000015
 30
0.0
 11
64.53045
 21
41.23805000000001
 31
0.0
  0
LINE
  8
0
 62
0
 10
112.65550000000002
 20
21.688000000000002
 30
0.0
 11
125.65550000000002
 21
21.688000000000002
 31
0.0
  0
LINE
  8
0
 62
0
 10
125.65550000000002
 20
35.688
 30
0.0
 11
112.65550000000002
 21
35.688
 31
0.0
  0
LINE
  8
0
 62
0
 10
65.03045
 20
40.73805000000001
 30
0.0
 11
78.03045
 21
40.73805000000001
 31
0.0
  0
LINE
  8
0
 62
0
 10
83.58045000000001
 20
54.238050000000015
 30
0.0
 11
83.58045000000001
 21
41.23805000000001
 31
0.0
  0
ARC
  8
0
 62
0
 10
84.08045
 20
54.238050000000015
 30
0.0
 40
0.4999999999999858
 50
89.99999999999837
 51
-180.0
  0
LINE
  8
0
 62
0
 10
93.60540000000003
 20
21.688000000000002
 30
0.0
 11
106.6054
 21
21.688000000000002
 31
0.0
  0
ARC
  8
0
 62
0
 10
84.08045
 20
41.23805000000001
 30
0.0
 40
0.4999999999999858
 50
-180.0
 51
-89.99999999999837
  0
ARC
  8
0
 62
0
 10
112.65550000000002
 20
35.18799999999999
 30
0.0
 40
0.5000000000000142
 50
90.0
 51
180.0
  0
LINE
  8
0
 62
0
 10
97.08044999999998
 20
54.73805
 30
0.0
 11
84.08045000000001
 21
54.73805
 31
0.0
  0
ARC
  8
0
 62
0
 10
106.6054
 20
35.18799999999999
 30
0.0
 40
0.5000000000000142
 50
0.0
 51
90.0
  0
LINE
  8
0
 62
0
 10
107.10540000000002
 20
3.138000000000003
 30
0.0
 11
107.10540000000002
 21
16.608323735142864
 31
0.0
  0
ARC
  8
0
 62
0
 10
125.65550000000002
 20
22.188000000000006
 30
0.0
 40
0.5000000000000036
 50
-90.0
 51
-0.0
  0
ARC
  8
0
 62
0
 10
55.50545
 20
35.18800000000001
 30
0.0
 40
0.4999999999999929
 50
90.00000000000081
 51
-180.0
  0
ARC
  8
0
 62
0
 10
49.455450000000006
 20
35.18800000000001
 30
0.0
 40
0.4999999999999929
 50
-0.0
 51
89.99999999999919
  0
LINE
  8
0
 62
0
 10
106.6054
 20
35.688
 30
0.0
 11
93.60540000000003
 21
35.688
 31
0.0
  0
LINE
  8
0
 62
0
 10
55.00545000000001
 20
35.188
 30
0.0
 11
55.00545000000001
 21
22.188000000000002
 31
0.0
  0
LINE
  8
0
 62
0
 10
68.50545
 20
35.688
 30
0.0
 11
55.505449999999996
 21
35.688
 31
0.0
  0
ARC
  8
0
 62
0
 10
36.45545
 20
22.188
 30
0.0
 40
0.4999999999999929
 50
-180.0
 51
-90.0
  0
ARC
  8
0
 62
0
 10
74.55545000000001
 20
16.13869500000001
 30
0.0
 40
0.4999999999999929
 50
90.00000000000163
 51
-180.0
  0
LINE
  8
0
 62
0
 10
35.955450000000006
 20
35.188
 30
0.0
 11
35.955450000000006
 21
22.188
 31
0.0
  0
LINE
  8
0
 62
0
 10
88.05544999999998
 20
3.138694999999998
 30
0.0
 11
88.05544999999998
 21
16.138695000000002
 31
0.0
  0
ARC
  8
0
 62
0
 10
50.7427
 20
3.138694999999994
 30
0.0
 40
0.5
 50
180.0
 51
-90.00000000000081
  0
ARC
  8
0
 62
0
 10
68.50545
 20
35.188
 30
0.0
 40
0.5
 50
-0.0
 51
90.0
  0
LINE
  8
0
 62
0
 10
107.10540000000002
 20
22.188
 30
0.0
 11
107.10540000000002
 21
35.188
 31
0.0
  0
ARC
  8
0
 62
0
 10
68.50545
 20
22.188
 30
0.0
 40
0.4999999999999929
 50
-90.0
 51
0.0
  0
LINE
  8
0
 62
0
 10
36.45545
 20
21.688000000000002
 30
0.0
 11
49.45545000000001
 21
21.687999999999995
 31
0.0
  0
ARC
  8
0
 62
0
 10
49.45545000000001
 20
22.187999999999988
 30
0.0
 40
0.4999999999999929
 50
-90.0
 51
0.0
  0
ARC
  8
0
 62
0
 10
17.40555
 20
35.18800000000001
 30
0.0
 40
0.4999999999999929
 50
90.0
 51
-180.0
  0
LINE
  8
0
 62
0
 10
30.905550000000005
 20
22.188
 30
0.0
 11
30.905550000000005
 21
35.188
 31
0.0
  0
LINE
  8
0
 62
0
 10
17.40555
 20
21.688000000000002
 30
0.0
 11
30.40555000000001
 21
21.688000000000002
 31
0.0
  0
ARC
  8
0
 62
0
 10
30.40555000000001
 20
22.188
 30
0.0
 40
0.49999999999999645
 50
-90.0
 51
-0.0
  0
LINE
  8
0
 62
0
 10
16.905550000000005
 20
35.188
 30
0.0
 11
16.90555
 21
22.188
 31
0.0
  0
ARC
  8
0
 62
0
 10
74.55545000000001
 20
22.187999999999995
 30
0.0
 40
0.5
 50
180.0
 51
-90.00000000000163
  0
LINE
  8
0
 62
0
 10
87.55544999999998
 20
16.638695000000002
 30
0.0
 11
74.55545
 21
16.638695000000002
 31
0.0
  0
ARC
  8
0
 62
0
 10
63.7427
 20
16.138695000000002
 30
0.0
 40
0.5
 50
-0.0
 51
90.0
  0
LINE
  8
0
 62
0
 10
74.05545000000001
 20
16.138695000000002
 30
0.0
 11
74.05545000000001
 21
3.1386949999999976
 31
0.0
  0
ARC
  8
0
 62
0
 10
74.55545000000001
 20
3.13869499999999
 30
0.0
 40
0.5
 50
180.0
 51
-90.00000000000163
  0
ARC
  8
0
 62
0
 10
17.405549999999995
 20
22.188
 30
0.0
 40
0.4999999999999929
 50
-180.0
 51
-89.99999999999919
  0
LINE
  8
0
 62
0
 10
63.7427
 20
16.638695
 30
0.0
 11
50.74269999999999
 21
16.638695
 31
0.0
  0
ARC
  8
0
 62
0
 10
63.7427
 20
3.138694999999997
 30
0.0
 40
0.49999999999999734
 50
-90.0
 51
0.0
  0
LINE
  8
0
 62
0
 10
50.74269999999999
 20
2.638695
 30
0.0
 11
63.7427
 21
2.638695
 31
0.0
  0
LINE
  8
0
 62
0
 10
64.2427
 20
3.138694999999998
 30
0.0
 11
64.2427
 21
16.138695
 31
0.0
  0
ARC
  8
0
 62
0
 10
87.55544999999998
 20
3.1386950000000016
 30
0.0
 40
0.500000000000004
 50
-90.0
 51
-0.0
  0
LINE
  8
0
 62
0
 10
126.15540000000003
 20
3.138000000000001
 30
0.0
 11
126.15540000000003
 21
16.138
 31
0.0
  0
ARC
  8
0
 62
0
 10
106.63100000000003
 20
19.062899999999992
 30
0.0
 40
2.4999999999999916
 50
-79.06122159128897
 51
-104.07929198882333
  0
LINE
  8
0
 62
0
 10
106.02283884537079
 20
16.638
 30
0.0
 11
93.60540000000003
 21
16.638
 31
0.0
  0
LINE
  8
0
 62
0
 10
112.15540000000004
 20
16.138
 30
0.0
 11
112.15540000000004
 21
3.1380000000000026
 31
0.0
  0
ARC
  8
0
 62
0
 10
112.65540000000004
 20
3.138000000000007
 30
0.0
 40
0.5
 50
-180.0
 51
-90.0
  0
LINE
  8
0
 62
0
 10
93.10540000000003
 20
16.138
 30
0.0
 11
93.10540000000003
 21
3.1380000000000026
 31
0.0
  0
ARC
  8
0
 62
0
 10
106.6054
 20
3.1380000000000137
 30
0.0
 40
0.5000000000000111
 50
-90.0
 51
-0.0
  0
ARC
  8
0
 62
0
 10
93.60540000000003
 20
16.137999999999995
 30
0.0
 40
0.5000000000000071
 50
90.0
 51
180.0
  0
ARC
  8
0
 62
0
 10
125.65540000000001
 20
3.138000000000014
 30
0.0
 40
0.5000000000000107
 50
-90.0
 51
-0.0
  0
LINE
  8
0
 62
0
 10
112.65540000000004
 20
2.6380000000000035
 30
0.0
 11
125.65540000000001
 21
2.6380000000000035
 31
0.0
  0
ENDSEC
  0
EOF
