0
SECTION
2
HEADER
9
$INSUNITS
70
4
9
$ACADVER
1
AC1014
9
$HANDSEED
5
FFFF
0
ENDSEC
0
SECTION
2
TABLES
0
TABLE
2
VPORT
5
8
100
AcDbSymbolTable
0
ENDTAB
0
TABLE
2
LTYPE
5
5
100
AcDbSymbolTable
0
LTYPE
5
14
100
AcDbSymbolTableRecord
100
AcDbLinetypeTableRecord
2
BYBLOCK
70
0
0
LTYPE
5
15
100
AcDbSymbolTableRecord
100
AcDbLinetypeTableRecord
2
BYLAYER
70
0
0
ENDTAB
0
TABLE
2
LAYER
5
2
100
AcDbSymbolTable
70
2
0
LAYER
5
50
100
AcDbSymbolTableRecord
100
AcDbLayerTableRecord
2
0
70
0
6
CONTINUOUS
0
ENDTAB
0
TABLE
2
STYLE
5
3
100
AcDbSymbolTable
70
1
0
STYLE
5
11
100
AcDbSymbolTableRecord
100
AcDbTextStyleTableRecord
2
STANDARD
70
0
0
ENDTAB
0
TABLE
2
VIEW
5
6
100
AcDbSymbolTable
70
0
0
ENDTAB
0
TABLE
2
UCS
5
7
100
AcDbSymbolTable
70
0
0
ENDTAB
0
TABLE
2
APPID
5
9
100
AcDbSymbolTable
70
2
0
APPID
5
12
100
AcDbSymbolTableRecord
100
AcDbRegAppTableRecord
2
ACAD
70
0
0
ENDTAB
0
TABLE
2
DIMSTYLE
5
A
100
AcDbSymbolTable
70
1
0
ENDTAB
0
TABLE
2
BLOCK_RECORD
5
1
100
AcDbSymbolTable
70
1
0
BLOCK_RECORD
5
1F
100
AcDbSymbolTableRecord
100
AcDbBlockTableRecord
2
*MODEL_SPACE
0
BLOCK_RECORD
5
1B
100
AcDbSymbolTableRecord
100
AcDbBlockTableRecord
2
*PAPER_SPACE
0
ENDTAB
0
ENDSEC
0
SECTION
2
BLOCKS
0
BLOCK
5
20
100
AcDbEntity
100
AcDbBlockBegin
2
*MODEL_SPACE
0
ENDBLK
5
21
100
AcDbEntity
100
AcDbBlockEnd
0
BLOCK
5
1C
100
AcDbEntity
100
AcDbBlockBegin
2
*PAPER_SPACE
0
ENDBLK
5
1D
100
AcDbEntity
100
AcDbBlockEnd
0
ENDSEC
0
SECTION
2
ENTITIES
0
LWPOLYLINE
5
100
100
AcDbEntity
8
0
100
AcDbPolyline
90
32
70
1
43
0.0
10
-2.8237005383792502
20
-0.47499999999999987
10
-5.1331016151377504
20
-4.4749999999999996
10
-13.2048983848623
20
-4.4750000000000103
10
-15.51429946162073
20
-0.47500000000002263
42
0.26794919243113025
10
-17.246350269189605
20
0.52500000000000002
10
-225.64114973081004
20
0.52500000000000013
42
0.26794919243113058
10
-227.37320053837902
20
-0.47499999999997211
10
-229.682601615138
20
-4.4750000000000103
10
-237.75439838486199
20
-4.4750000000000112
10
-240.0637994616211
20
-0.47500000000006509
42
0.26794919243113197
10
-241.79585026919
20
0.52499999999999503
10
-241.86250000000001
20
0.52499999999999281
42
-0.41421356237309531
10
-242.36250000000001
20
1.0250000000000004
10
-242.36250000000001
20
75.174999999999997
42
-0.41421356237309503
10
-241.86250000000001
20
75.674999999999997
10
-241.795850269189
20
75.674999999999997
42
0.26794919243099874
10
-240.06379946162099
20
76.675000000000011
10
-237.75439838486199
20
80.675000000000011
10
-229.682601615138
20
80.675000000000011
10
-227.37320053837891
20
76.675000000000068
42
0.26794919243113069
10
-225.64114973081004
20
75.674999999999997
10
-17.246350269189598
20
75.675000000000026
42
0.26794919243112442
10
-15.514299461620702
20
76.675000000000011
10
-13.204898384862203
20
80.675000000000011
10
-5.1331016151377504
20
80.675000000000011
10
-2.8237005383792502
20
76.675000000000011
42
0.26794919243112331
10
-1.0916497308103701
20
75.674999999999997
10
-1.0250000000005299
20
75.675000000000011
42
-0.41421356237339968
10
-0.52500000000000002
20
75.174999999999997
10
-0.52499999999999702
20
1.0250000000000001
42
-0.41421356237309515
10
-1.0249999999999999
20
0.52499999999999702
10
-1.0916497308103199
20
0.52500000000000013
42
0.26794919243112963
0
LWPOLYLINE
5
101
100
AcDbEntity
8
0
100
AcDbPolyline
90
8
70
1
43
0.0
10
-220.8125
20
59.675000000000004
10
-207.8125
20
59.675000000000004
42
0.41421356237309503
10
-207.31250000000003
20
60.174999999999997
10
-207.3125
20
73.174999999999997
42
0.41421356237309503
10
-207.8125
20
73.674999999999997
10
-220.8125
20
73.674999999999997
42
0.41421356237309503
10
-221.3125
20
73.174999999999997
10
-221.3125
20
60.174999999999997
42
0.41421356237309503
0
LWPOLYLINE
5
102
100
AcDbEntity
8
0
100
AcDbPolyline
90
8
70
1
43
0.0
10
-201.76249999999999
20
59.675000000000004
10
-188.76249999999999
20
59.675000000000004
42
0.41421356237309503
10
-188.26249999999999
20
60.174999999999997
10
-188.26249999999999
20
73.174999999999997
42
0.41421356237309503
10
-188.76249999999999
20
73.674999999999997
10
-201.76249999999999
20
73.674999999999997
42
0.41421356237309503
10
-202.26249999999999
20
73.174999999999997
10
-202.26249999999999
20
60.174999999999997
42
0.41421356237309503
0
LWPOLYLINE
5
103
100
AcDbEntity
8
0
100
AcDbPolyline
90
8
70
1
43
0.0
10
-239.86250000000001
20
59.675000000000004
10
-226.86250000000001
20
59.675000000000004
42
0.41421356237309503
10
-226.36250000000004
20
60.174999999999997
10
-226.36250000000001
20
73.174999999999997
42
0.41421356237309503
10
-226.86250000000001
20
73.674999999999997
10
-239.86250000000001
20
73.674999999999997
42
0.41421356237309503
10
-240.36250000000001
20
73.174999999999997
10
-240.36250000000001
20
60.174999999999997
42
0.41421356237309503
0
LWPOLYLINE
5
104
100
AcDbEntity
8
0
100
AcDbPolyline
90
8
70
1
43
0.0
10
-132.70625000000001
20
59.675000000000004
10
-119.70625
20
59.675000000000004
42
0.41421356237309503
10
-119.20625000000001
20
60.174999999999997
10
-119.20625
20
73.174999999999997
42
0.41421356237309503
10
-119.70625
20
73.674999999999997
10
-132.70625000000001
20
73.674999999999997
42
0.41421356237309503
10
-133.20625000000001
20
73.174999999999997
10
-133.20625000000004
20
60.174999999999997
42
0.41421356237309503
0
LWPOLYLINE
5
105
100
AcDbEntity
8
0
100
AcDbPolyline
90
8
70
1
43
0.0
10
-18.40625
20
59.675000000000004
10
-5.40625
20
59.675000000000004
42
0.41421356237309503
10
-4.90625
20
60.174999999999997
10
-4.90625
20
73.174999999999997
42
0.41421356237309437
10
-5.4062499999999991
20
73.674999999999997
10
-18.40625
20
73.674999999999997
42
0.41421356237309503
10
-18.90625
20
73.174999999999997
10
-18.906250000000004
20
60.174999999999997
42
0.41421356237309503
0
LWPOLYLINE
5
106
100
AcDbEntity
8
0
100
AcDbPolyline
90
8
70
1
43
0.0
10
-39.837499999999999
20
59.675000000000004
10
-26.837499999999999
20
59.675000000000004
42
0.41421356237309503
10
-26.337499999999999
20
60.174999999999997
10
-26.337499999999999
20
73.174999999999997
42
0.41421356237309503
10
-26.837499999999999
20
73.674999999999997
10
-39.837499999999999
20
73.674999999999997
42
0.41421356237309503
10
-40.337500000000006
20
73.174999999999997
10
-40.337500000000006
20
60.174999999999997
42
0.41421356237309503
0
LWPOLYLINE
5
107
100
AcDbEntity
8
0
100
AcDbPolyline
90
8
70
1
43
0.0
10
-239.86250000000001
20
40.625
10
-226.86250000000001
20
40.625
42
0.41421356237309503
10
-226.36250000000004
20
41.125
10
-226.36250000000001
20
54.125000000000007
42
0.41421356237309503
10
-226.86250000000001
20
54.625
10
-239.86250000000001
20
54.625
42
0.41421356237309503
10
-240.36250000000001
20
54.125000000000007
10
-240.36250000000001
20
41.125
42
0.41421356237309503
0
LWPOLYLINE
5
108
100
AcDbEntity
8
0
100
AcDbPolyline
90
8
70
1
43
0.0
10
-47.768750000000004
20
60.174999999999997
42
-0.41421356237309503
10
-48.268750000000004
20
59.675000000000004
10
-61.268749999999997
20
59.675000000000004
42
-0.41421356237309503
10
-61.768749999999997
20
60.174999999999997
10
-61.768749999999997
20
73.174999999999997
42
-0.41421356237309503
10
-61.268749999999997
20
73.674999999999997
10
-48.268750000000004
20
73.674999999999997
42
-0.41421356237309503
10
-47.768750000000004
20
73.174999999999997
0
LWPOLYLINE
5
109
100
AcDbEntity
8
0
100
AcDbPolyline
90
8
70
1
43
0.0
10
-221.3125
20
54.125000000000007
10
-221.3125
20
41.125
42
0.41421356237309503
10
-220.8125
20
40.625
10
-207.8125
20
40.625
42
0.41421356237309503
10
-207.31250000000003
20
41.125
10
-207.3125
20
54.125000000000007
42
0.41421356237309503
10
-207.8125
20
54.625
10
-220.8125
20
54.625
42
0.41421356237309503
0
LWPOLYLINE
5
110
100
AcDbEntity
8
0
100
AcDbPolyline
90
8
70
1
43
0.0
10
-23.168749999999999
20
40.625
10
-10.168749999999999
20
40.625
42
0.41421356237309503
10
-9.6687499999999993
20
41.125
10
-9.6687499999999993
20
54.125000000000007
42
0.41421356237309503
10
-10.168749999999999
20
54.625
10
-23.168749999999999
20
54.625
42
0.41421356237309503
10
-23.668749999999999
20
54.125000000000007
10
-23.668749999999999
20
41.125
42
0.41421356237309503
0
LWPOLYLINE
5
111
100
AcDbEntity
8
0
100
AcDbPolyline
90
8
70
1
43
0.0
10
-235.10000000000002
20
21.575000000000003
10
-222.10000000000002
20
21.575000000000003
42
0.41421356237309503
10
-221.59999999999999
20
22.074999999999999
10
-221.59999999999999
20
35.075000000000003
42
0.41421356237309503
10
-222.10000000000002
20
35.575000000000003
10
-235.10000000000002
20
35.575000000000003
42
0.41421356237309503
10
-235.60000000000002
20
35.075000000000003
10
-235.60000000000002
20
22.074999999999999
42
0.41421356237309503
0
LWPOLYLINE
5
112
100
AcDbEntity
8
0
100
AcDbPolyline
90
8
70
1
43
0.0
10
-4.9062500000000018
20
22.074999999999999
42
-0.41421356237309503
10
-5.4062499999999991
20
21.575000000000003
10
-18.40625
20
21.574999999999996
42
-0.41421356237309503
10
-18.906250000000004
20
22.074999999999999
10
-18.90625
20
35.075000000000003
42
-0.41421356237309503
10
-18.40625
20
35.575000000000003
10
-5.4062499999999991
20
35.575000000000003
42
-0.41421356237309437
10
-4.90625
20
35.075000000000003
0
LWPOLYLINE
5
113
100
AcDbEntity
8
0
100
AcDbPolyline
90
8
70
1
43
0.0
10
-232.71875
20
2.5249999999999999
10
-219.71875
20
2.5249999999999999
42
0.41421356237309503
10
-219.21875
20
3.0249999999999999
10
-219.21875
20
16.024999999999999
42
0.41421356237309503
10
-219.71875
20
16.524999999999999
10
-232.71875
20
16.525000000000002
42
0.41421356237309503
10
-233.21875000000003
20
16.024999999999999
10
-233.21875000000003
20
3.0249999999999999
42
0.41421356237309503
0
LWPOLYLINE
5
114
100
AcDbEntity
8
0
100
AcDbPolyline
90
8
70
1
43
0.0
10
-16.024999999999999
20
2.5249999999999999
10
-3.0249999999999999
20
2.5249999999999999
42
0.41421356237309503
10
-2.5249999999999999
20
3.0249999999999999
10
-2.5249999999999999
20
16.024999999999999
42
0.41421356237309503
10
-3.0249999999999999
20
16.524999999999999
10
-16.024999999999999
20
16.525000000000002
42
0.41421356237309503
10
-16.524999999999999
20
16.024999999999999
10
-16.525000000000002
20
3.0249999999999999
42
0.41421356237309503
0
LWPOLYLINE
5
115
100
AcDbEntity
8
0
100
AcDbPolyline
90
20
70
1
43
0.0
10
-36.362500000000004
20
54.625
10
-201.76249999999999
20
54.625
42
0.41421356237309503
10
-202.26249999999999
20
54.125000000000007
10
-202.26249999999999
20
35.575000000000003
10
-211.28749999999999
20
35.575000000000003
42
0.41421356237309503
10
-211.78750000000002
20
35.075000000000003
10
-211.78750000000002
20
22.074999999999999
42
0.41421356237309503
10
-211.28749999999999
20
21.575000000000003
10
-207.02500000000001
20
21.575000000000003
10
-207.02500000000003
20
3.0249999999999999
42
0.41421356237309503
10
-206.52500000000003
20
2.5249999999999901
10
-22.074999999999999
20
2.5249999999999999
42
0.41421356237309503
10
-21.575000000000003
20
3.0249999999999999
10
-21.575000000000003
20
16.024999999999999
42
0.41421356237309503
10
-22.074999999999999
20
16.524999999999999
10
-26.337499999999999
20
16.524999999999999
10
-26.337499999999999
20
35.075000000000003
42
0.41421356237309503
10
-26.837499999999999
20
35.575000000000003
10
-35.862499999999997
20
35.575000000000003
10
-35.862500000000004
20
54.125000000000007
42
0.41421356237309764
0
LWPOLYLINE
5
116
100
AcDbEntity
8
0
100
AcDbPolyline
90
8
70
1
43
0.0
10
-172.70625000000001
20
58.174999999999997
10
-172.70625000000001
20
74.175000000000011
42
0.41421356237309503
10
-173.20625000000004
20
74.674999999999997
10
-179.20625000000001
20
74.674999999999997
42
0.41421356237309503
10
-179.70625000000001
20
74.175000000000011
10
-179.70624999999998
20
58.174999999999997
42
0.41421356237309503
10
-179.20625000000001
20
57.674999999999997
10
-173.20625000000004
20
57.675000000000026
42
0.41421356237309503
0
LWPOLYLINE
5
117
100
AcDbEntity
8
0
100
AcDbPolyline
90
8
70
1
43
0.0
10
-73.206249999999997
20
74.674999999999997
10
-79.206249999999997
20
74.674999999999997
42
0.41421356237309503
10
-79.706249999999997
20
74.175000000000011
10
-79.706249999999997
20
58.174999999999997
42
0.41421356237309503
10
-79.206249999999997
20
57.674999999999997
10
-73.206249999999997
20
57.674999999999997
42
0.41421356237309503
10
-72.706249999999997
20
58.174999999999997
10
-72.706249999999997
20
74.175000000000011
42
0.41421356237309503
0
ENDSEC
0
SECTION
2
OBJECTS
0
DICTIONARY
5
C
100
AcDbDictionary
3
ACAD_GROUP
350
D
3
ACAD_MLINESTYLE
350
17
0
DICTIONARY
5
D
100
AcDbDictionary
0
DICTIONARY
5
1A
330
C
100
AcDbDictionary
0
DICTIONARY
5
17
100
AcDbDictionary
0
ENDSEC
0
EOF
