0
SECTION
2
HEADER
9
$INSUNITS
70
4
9
$ACADVER
1
AC1014
9
$HANDSEED
5
FFFF
0
ENDSEC
0
SECTION
2
TABLES
0
TABLE
2
VPORT
5
8
100
AcDbSymbolTable
0
ENDTAB
0
TABLE
2
LTYPE
5
5
100
AcDbSymbolTable
0
LTYPE
5
14
100
AcDbSymbolTableRecord
100
AcDbLinetypeTableRecord
2
BYBLOCK
70
0
0
LTYPE
5
15
100
AcDbSymbolTableRecord
100
AcDbLinetypeTableRecord
2
BYLAYER
70
0
0
ENDTAB
0
TABLE
2
LAYER
5
2
100
AcDbSymbolTable
70
2
0
LAYER
5
50
100
AcDbSymbolTableRecord
100
AcDbLayerTableRecord
2
0
70
0
6
CONTINUOUS
0
ENDTAB
0
TABLE
2
STYLE
5
3
100
AcDbSymbolTable
70
1
0
STYLE
5
11
100
AcDbSymbolTableRecord
100
AcDbTextStyleTableRecord
2
STANDARD
70
0
0
ENDTAB
0
TABLE
2
VIEW
5
6
100
AcDbSymbolTable
70
0
0
ENDTAB
0
TABLE
2
UCS
5
7
100
AcDbSymbolTable
70
0
0
ENDTAB
0
TABLE
2
APPID
5
9
100
AcDbSymbolTable
70
2
0
APPID
5
12
100
AcDbSymbolTableRecord
100
AcDbRegAppTableRecord
2
ACAD
70
0
0
ENDTAB
0
TABLE
2
DIMSTYLE
5
A
100
AcDbSymbolTable
70
1
0
ENDTAB
0
TABLE
2
BLOCK_RECORD
5
1
100
AcDbSymbolTable
70
1
0
BLOCK_RECORD
5
1F
100
AcDbSymbolTableRecord
100
AcDbBlockTableRecord
2
*MODEL_SPACE
0
BLOCK_RECORD
5
1B
100
AcDbSymbolTableRecord
100
AcDbBlockTableRecord
2
*PAPER_SPACE
0
ENDTAB
0
ENDSEC
0
SECTION
2
BLOCKS
0
BLOCK
5
20
100
AcDbEntity
100
AcDbBlockBegin
2
*MODEL_SPACE
0
ENDBLK
5
21
100
AcDbEntity
100
AcDbBlockEnd
0
BLOCK
5
1C
100
AcDbEntity
100
AcDbBlockBegin
2
*PAPER_SPACE
0
ENDBLK
5
1D
100
AcDbEntity
100
AcDbBlockEnd
0
ENDSEC
0
SECTION
2
ENTITIES
0
LWPOLYLINE
5
100
100
AcDbEntity
8
0
100
AcDbPolyline
90
32
70
1
43
0.0
10
208.91689838486201
20
135.34999999999999
10
211.22629946162104
20
131.34999999999999
42
0.26794919243099635
10
212.958350269189
20
130.34999999999999
10
213.02500000000003
20
130.34999999999999
42
-0.41421356237309503
10
213.52500000000003
20
129.84999999999999
10
213.52500000000003
20
55.700000000000003
42
-0.41421356237367774
10
213.02499999999901
20
55.200000000000003
10
212.95835026919002
20
55.199999999999889
42
0.26794919243112858
10
211.22629946162104
20
54.19999999999991
10
208.91689838486201
20
50.199999999999903
10
200.84510161513802
20
50.199999999999903
10
198.53570053837893
20
54.199999999999882
42
0.26794919243113824
10
196.80364973081001
20
55.199999999999903
10
-11.5911497308105
20
55.199999999999953
42
0.26794919243111703
10
-13.3232005383793
20
54.20000000000001
10
-15.6326016151378
20
50.200000000000003
10
-23.704398384862305
20
50.200000000000003
10
-26.01379946162082
20
54.200000000000003
42
0.26794919243110965
10
-27.745850269189599
20
55.200000000000003
10
-27.8125
20
55.199999999999996
42
-0.4142135623730378
10
-28.312500000000004
20
55.699999999999903
10
-28.312500000000007
20
129.84999999999999
42
-0.4142135623732095
10
-27.812499999999805
20
130.34999999999999
10
-27.745850269189702
20
130.34999999999999
42
0.26794919243112486
10
-26.013799461620799
20
131.34999999999999
10
-23.704398384862305
20
135.34999999999999
10
-15.6326016151378
20
135.34999999999999
10
-13.323200538379323
20
131.34999999999997
42
0.26794919243111831
10
-11.591149730810493
20
130.34999999999999
10
196.80364973081001
20
130.35000000000002
42
0.26794919243112963
10
198.53570053837899
20
131.34999999999999
10
200.84510161513802
20
135.34999999999999
0
LWPOLYLINE
5
101
100
AcDbEntity
8
0
100
AcDbPolyline
90
8
70
1
43
0.0
10
101.48075
20
56.20000000000001
10
107.48075
20
56.20000000000001
42
0.41421356237309503
10
107.98075
20
56.70000000000001
10
107.98075
20
72.700000000000003
42
0.41421356237309503
10
107.48075
20
73.200000000000003
10
101.48075000000003
20
73.199999999999932
42
0.41421356237304818
10
100.98075000000001
20
72.700000000000003
10
100.98075000000001
20
56.70000000000001
42
0.41421356237309503
0
LWPOLYLINE
5
102
100
AcDbEntity
8
0
100
AcDbPolyline
90
8
70
1
43
0.0
10
84.875500000000002
20
56.20000000000001
10
90.875500000000002
20
56.20000000000001
42
0.41421356237309503
10
91.375500000000017
20
56.70000000000001
10
91.375500000000017
20
72.700000000000003
42
0.41421356237309503
10
90.875500000000002
20
73.200000000000003
10
84.875500000000017
20
73.199999999999932
42
0.41421356237304818
10
84.375500000000002
20
72.700000000000003
10
84.375500000000017
20
56.70000000000001
42
0.41421356237309503
0
LWPOLYLINE
5
103
100
AcDbEntity
8
0
100
AcDbPolyline
90
8
70
1
43
0.0
10
60.999499999999998
20
56.20000000000001
10
66.999499999999998
20
56.20000000000001
42
0.41421356237309503
10
67.499499999999998
20
56.70000000000001
10
67.499500000000026
20
72.700000000000003
42
0.41421356237309503
10
66.999499999999998
20
73.200000000000003
10
60.999499999999998
20
73.199999999999989
42
0.41421356237309503
10
60.499499999999998
20
72.700000000000003
10
60.499499999999998
20
56.70000000000001
42
0.41421356237309503
0
LWPOLYLINE
5
104
100
AcDbEntity
8
0
100
AcDbPolyline
90
8
70
1
43
0.0
10
124.85675000000001
20
72.700000000000003
10
124.85675000000001
20
56.70000000000001
42
0.41421356237309503
10
125.35675000000001
20
56.20000000000001
10
131.35675000000001
20
56.199999999999918
42
0.41421356237309503
10
131.85675000000001
20
56.69999999999991
10
131.85675000000003
20
72.700000000000003
42
0.4142135623730378
10
131.35675000000001
20
73.200000000000003
10
125.35675000000001
20
73.200000000000017
42
0.41421356237309503
0
LWPOLYLINE
5
105
100
AcDbEntity
8
0
100
AcDbPolyline
90
8
70
1
43
0.0
10
25.287500000000005
20
71.200000000000017
10
12.2875
20
71.200000000000017
42
0.41421356237309503
10
11.7875
20
70.700000000000003
10
11.787500000000001
20
57.700000000000003
42
0.41421356237309503
10
12.2875
20
57.200000000000003
10
25.287500000000005
20
57.199999999999996
42
0.41421356237309503
10
25.787500000000001
20
57.700000000000003
10
25.787500000000001
20
70.700000000000003
42
0.41421356237309503
0
LWPOLYLINE
5
106
100
AcDbEntity
8
0
100
AcDbPolyline
90
8
70
1
43
0.0
10
191.97500000000002
20
71.199999999999903
10
159.92500000000001
20
71.199999999999903
42
0.41421356237309503
10
159.42500000000001
20
70.700000000000003
10
159.42500000000001
20
57.700000000000003
42
0.41421356237309503
10
159.92500000000001
20
57.200000000000003
10
191.97500000000002
20
57.200000000000003
42
0.41421356237309503
10
192.47500000000002
20
57.700000000000003
10
192.47500000000002
20
70.700000000000003
42
0.41421356237309503
0
LWPOLYLINE
5
107
100
AcDbEntity
8
0
100
AcDbPolyline
90
8
70
1
43
0.0
10
82.4375
20
71.200000000000017
10
69.4375
20
71.200000000000017
42
0.41421356237309503
10
68.9375
20
70.700000000000003
10
68.9375
20
57.700000000000003
42
0.41421356237309503
10
69.4375
20
57.200000000000003
10
82.4375
20
57.199999999999996
42
0.41421356237309503
10
82.937500000000014
20
57.700000000000003
10
82.9375
20
70.700000000000003
42
0.41421356237309503
0
LWPOLYLINE
5
108
100
AcDbEntity
8
0
100
AcDbPolyline
90
8
70
1
43
0.0
10
156.25624999999999
20
71.199999999999903
10
140.875
20
71.199999999999903
42
0.41421356237309503
10
140.375
20
70.700000000000003
10
140.375
20
57.700000000000003
42
0.41421356237309503
10
140.875
20
57.200000000000003
10
156.25624999999999
20
57.200000000000003
42
0.41421356237309503
10
156.75624999999999
20
57.700000000000003
10
156.75624999999999
20
70.700000000000003
42
0.41421356237309503
0
LWPOLYLINE
5
109
100
AcDbEntity
8
0
100
AcDbPolyline
90
8
70
1
43
0.0
10
6.2375000000000114
20
71.200000000000017
10
-25.812500000000004
20
71.200000000000017
42
0.41421356237309503
10
-26.3125
20
70.700000000000003
10
-26.3125
20
57.700000000000003
42
0.41421356237309503
10
-25.812500000000004
20
57.200000000000003
10
6.2375000000000105
20
57.200000000000031
42
0.41421356237309503
10
6.7374999999999812
20
57.700000000000003
10
6.7375000000000087
20
70.700000000000003
42
0.41421356237309437
0
LWPOLYLINE
5
110
100
AcDbEntity
8
0
100
AcDbPolyline
90
8
70
1
43
0.0
10
122.91875000000002
20
71.200000000000017
10
109.91875
20
71.200000000000017
42
0.41421356237309503
10
109.41875000000002
20
70.700000000000003
10
109.41875000000002
20
57.700000000000003
42
0.41421356237309503
10
109.91875
20
57.200000000000003
10
122.91875000000002
20
57.199999999999996
42
0.41421356237309503
10
123.41875000000002
20
57.700000000000003
10
123.41875
20
70.700000000000003
42
0.41421356237309503
0
LWPOLYLINE
5
111
100
AcDbEntity
8
0
100
AcDbPolyline
90
8
70
1
43
0.0
10
211.02500000000003
20
71.199999999999903
10
195.64375000000001
20
71.199999999999903
42
0.41421356237309503
10
195.14375000000001
20
70.700000000000003
10
195.14375000000001
20
57.700000000000003
42
0.41421356237309503
10
195.64375000000001
20
57.200000000000003
10
211.02500000000003
20
57.200000000000003
42
0.41421356237309503
10
211.52500000000003
20
57.700000000000003
10
211.52500000000003
20
70.700000000000003
42
0.41421356237309503
0
LWPOLYLINE
5
112
100
AcDbEntity
8
0
100
AcDbPolyline
90
8
70
1
43
0.0
10
51.481250000000003
20
71.200000000000003
42
-0.41421356237309503
10
51.981250000000003
20
70.700000000000003
10
51.98125000000001
20
57.700000000000003
42
-0.41421356237309503
10
51.481250000000003
20
57.199999999999996
10
36.100000000000001
20
57.200000000000003
42
-0.41421356237309503
10
35.600000000000009
20
57.700000000000003
10
35.599999999999994
20
70.700000000000003
42
-0.41421356237309503
10
36.100000000000001
20
71.200000000000017
0
LWPOLYLINE
5
113
100
AcDbEntity
8
0
100
AcDbPolyline
90
8
70
1
43
0.0
10
208.64375000000001
20
109.3
10
195.64375000000001
20
109.3
42
0.41421356237309503
10
195.14375000000001
20
108.80000000000001
10
195.14375000000001
20
95.799999999999997
42
0.41421356237309503
10
195.64375000000001
20
95.299999999999898
10
208.64375000000001
20
95.299999999999997
42
0.41421356237309503
10
209.14375000000004
20
95.799999999999997
10
209.14375000000004
20
108.80000000000001
42
0.41421356237309503
0
LWPOLYLINE
5
114
100
AcDbEntity
8
0
100
AcDbPolyline
90
8
70
1
43
0.0
10
-5.6687500000000002
20
128.35000000000002
10
-18.668749999999999
20
128.35000000000002
42
0.41421356237309503
10
-19.168750000000099
20
127.84999999999999
10
-19.168750000000003
20
114.84999999999999
42
0.41421356237309503
10
-18.668749999999999
20
114.35000000000001
10
-5.6687500000000002
20
114.34999999999999
42
0.41421356237309503
10
-5.1687499999999904
20
114.84999999999999
10
-5.1687499999999993
20
127.84999999999999
42
0.41421356237309503
0
LWPOLYLINE
5
115
100
AcDbEntity
8
0
100
AcDbPolyline
90
20
70
1
43
0.0
10
12.287500000000016
20
76.25
10
177.6875
20
76.249999999999901
42
0.41421356237309503
10
178.1875
20
76.749999999999901
10
178.1875
20
95.299999999999898
10
187.21250000000001
20
95.300000000000011
42
0.41421356237309503
10
187.71250000000003
20
95.799999999999997
10
187.71250000000003
20
114.35000000000001
10
191.97500000000002
20
114.35000000000001
42
0.41421356237309503
10
192.47500000000002
20
114.84999999999999
10
192.47500000000002
20
127.84999999999999
42
0.41421356237309503
10
191.97500000000002
20
128.35000000000002
10
7.5249999999999808
20
128.35000000000002
42
0.41421356237309503
10
7.0250000000000101
20
127.84999999999999
10
7.0249999999999702
20
109.3
10
2.7625000000000099
20
109.30000000000001
42
0.41421356237309503
10
2.2625000000000002
20
108.80000000000001
10
2.2625000000000122
20
95.799999999999997
42
0.41421356237309503
10
2.7625000000000099
20
95.299999999999997
10
11.7875
20
95.299999999999997
10
11.787500000000001
20
76.749999999999901
42
0.41421356237304169
0
LWPOLYLINE
5
116
100
AcDbEntity
8
0
100
AcDbPolyline
90
8
70
1
43
0.0
10
197.52500000000001
20
127.84999999999999
10
197.52500000000001
20
114.84999999999999
42
0.41421356237309503
10
198.02500000000003
20
114.35000000000001
10
211.02500000000003
20
114.34999999999999
42
0.41421356237309503
10
211.52500000000003
20
114.84999999999999
10
211.52500000000003
20
127.84999999999999
42
0.41421356237309503
10
211.02500000000003
20
128.35000000000002
10
198.02500000000003
20
128.35000000000002
42
0.41421356237309503
0
LWPOLYLINE
5
117
100
AcDbEntity
8
0
100
AcDbPolyline
90
8
70
1
43
0.0
10
6.2375000000000096
20
90.25
10
-6.7625000000001005
20
90.25
42
0.41421356237303647
10
-7.2625000000000011
20
89.75
10
-7.2624999999999984
20
76.75
42
0.41421356237309437
10
-6.7625000000000011
20
76.25
10
6.2375000000000105
20
76.25
42
0.41421356237303258
10
6.7374999999999812
20
76.749999999999901
10
6.7375000000000087
20
89.75
42
0.4142135623730957
0
LWPOLYLINE
5
118
100
AcDbEntity
8
0
100
AcDbPolyline
90
8
70
1
43
0.0
10
-12.8125
20
90.25
10
-25.812500000000004
20
90.25
42
0.41421356237309503
10
-26.3125
20
89.75
10
-26.3125
20
76.75
42
0.41421356237309503
10
-25.812500000000004
20
76.25
10
-12.8125
20
76.25
42
0.41421356237309503
10
-12.312500000000002
20
76.75
10
-12.312500000000002
20
89.75
42
0.41421356237309503
0
LWPOLYLINE
5
119
100
AcDbEntity
8
0
100
AcDbPolyline
90
8
70
1
43
0.0
10
-21.550000000000004
20
108.80000000000001
10
-21.550000000000004
20
95.799999999999997
42
0.41421356237309503
10
-21.050000000000001
20
95.299999999999997
10
-8.0500000000000007
20
95.300000000000026
42
0.41421356237311907
10
-7.5499999999999901
20
95.799999999999997
10
-7.5500000000000034
20
108.80000000000001
42
0.41421356237309503
10
-8.0500000000000007
20
109.3
10
-21.050000000000001
20
109.29999999999998
42
0.41421356237309503
0
LWPOLYLINE
5
120
100
AcDbEntity
8
0
100
AcDbPolyline
90
8
70
1
43
0.0
10
203.88125000000002
20
90.249999999999901
10
190.88125000000002
20
90.249999999999901
42
0.41421356237309503
10
190.38125000000002
20
89.749999999999915
10
190.38125000000002
20
76.749999999999901
42
0.41421356237309503
10
190.88125000000002
20
76.249999999999901
10
203.88125000000002
20
76.249999999999986
42
0.41421356237303258
10
204.38124999999999
20
76.749999999999901
10
204.38125000000002
20
89.749999999999915
42
0.41421356237314705
0
ENDSEC
0
SECTION
2
OBJECTS
0
DICTIONARY
5
C
100
AcDbDictionary
3
ACAD_GROUP
350
D
3
ACAD_MLINESTYLE
350
17
0
DICTIONARY
5
D
100
AcDbDictionary
0
DICTIONARY
5
1A
330
C
100
AcDbDictionary
0
DICTIONARY
5
17
100
AcDbDictionary
0
ENDSEC
0
EOF
