  0
SECTION
  2
HEADER
  9
$ACADVER
  1
AC1027
  9
$ACADMAINTVER
 70
   125
  9
$DWGCODEPAGE
  3
ANSI_1252
  9
$REQUIREDVERSIONS
160
                 0
  9
$INSBASE
 10
0.0
 20
0.0
 30
0.0
  9
$EXTMIN
 10
1.000000000000000E+20
 20
1.000000000000000E+20
 30
1.000000000000000E+20
  9
$EXTMAX
 10
-1.000000000000000E+20
 20
-1.000000000000000E+20
 30
-1.000000000000000E+20
  9
$LIMMIN
 10
0.0
 20
0.0
  9
$LIMMAX
 10
12.0
 20
9.0
  9
$ORTHOMODE
 70
     0
  9
$REGENMODE
 70
     1
  9
$FILLMODE
 70
     1
  9
$QTEXTMODE
 70
     0
  9
$MIRRTEXT
 70
     0
  9
$LTSCALE
 40
1.0
  9
$ATTMODE
 70
     1
  9
$TEXTSIZE
 40
0.2
  9
$TRACEWID
 40
0.05
  9
$TEXTSTYLE
  7
Standard
  9
$CLAYER
  8
0
  9
$CELTYPE
  6
ByLayer
  9
$CECOLOR
 62
   256
  9
$CELTSCALE
 40
1.0
  9
$DISPSILH
 70
     0
  9
$DIMSCALE
 40
1.0
  9
$DIMASZ
 40
0.18
  9
$DIMEXO
 40
0.0625
  9
$DIMDLI
 40
0.38
  9
$DIMRND
 40
0.0
  9
$DIMDLE
 40
0.0
  9
$DIMEXE
 40
0.18
  9
$DIMTP
 40
0.0
  9
$DIMTM
 40
0.0
  9
$DIMTXT
 40
0.18
  9
$DIMCEN
 40
0.09
  9
$DIMTSZ
 40
0.0
  9
$DIMTOL
 70
     0
  9
$DIMLIM
 70
     0
  9
$DIMTIH
 70
     1
  9
$DIMTOH
 70
     1
  9
$DIMSE1
 70
     0
  9
$DIMSE2
 70
     0
  9
$DIMTAD
 70
     0
  9
$DIMZIN
 70
     0
  9
$DIMBLK
  1

  9
$DIMASO
 70
     1
  9
$DIMSHO
 70
     1
  9
$DIMPOST
  1

  9
$DIMAPOST
  1

  9
$DIMALT
 70
     0
  9
$DIMALTD
 70
     2
  9
$DIMALTF
 40
25.4
  9
$DIMLFAC
 40
1.0
  9
$DIMTOFL
 70
     0
  9
$DIMTVP
 40
0.0
  9
$DIMTIX
 70
     0
  9
$DIMSOXD
 70
     0
  9
$DIMSAH
 70
     0
  9
$DIMBLK1
  1

  9
$DIMBLK2
  1

  9
$DIMSTYLE
  2
Standard
  9
$DIMCLRD
 70
     0
  9
$DIMCLRE
 70
     0
  9
$DIMCLRT
 70
     0
  9
$DIMTFAC
 40
1.0
  9
$DIMGAP
 40
0.09
  9
$DIMJUST
 70
     0
  9
$DIMSD1
 70
     0
  9
$DIMSD2
 70
     0
  9
$DIMTOLJ
 70
     1
  9
$DIMTZIN
 70
     0
  9
$DIMALTZ
 70
     0
  9
$DIMALTTZ
 70
     0
  9
$DIMUPT
 70
     0
  9
$DIMDEC
 70
     4
  9
$DIMTDEC
 70
     4
  9
$DIMALTU
 70
     2
  9
$DIMALTTD
 70
     2
  9
$DIMTXSTY
  7
Standard
  9
$DIMAUNIT
 70
     0
  9
$DIMADEC
 70
     0
  9
$DIMALTRND
 40
0.0
  9
$DIMAZIN
 70
     0
  9
$DIMDSEP
 70
    46
  9
$DIMATFIT
 70
     3
  9
$DIMFRAC
 70
     0
  9
$DIMLDRBLK
  1

  9
$DIMLUNIT
 70
     2
  9
$DIMLWD
 70
    -2
  9
$DIMLWE
 70
    -2
  9
$DIMTMOVE
 70
     0
  9
$DIMFXL
 40
1.0
  9
$DIMFXLON
 70
     0
  9
$DIMJOGANG
 40
0.7853981633974483
  9
$DIMTFILL
 70
     0
  9
$DIMTFILLCLR
 70
     0
  9
$DIMARCSYM
 70
     0
  9
$DIMLTYPE
  6

  9
$DIMLTEX1
  6

  9
$DIMLTEX2
  6

  9
$DIMTXTDIRECTION
 70
     0
  9
$LUNITS
 70
     2
  9
$LUPREC
 70
     4
  9
$SKETCHINC
 40
0.1
  9
$FILLETRAD
 40
0.0
  9
$AUNITS
 70
     0
  9
$AUPREC
 70
     0
  9
$MENU
  1
.
  9
$ELEVATION
 40
0.0
  9
$PELEVATION
 40
0.0
  9
$THICKNESS
 40
0.0
  9
$LIMCHECK
 70
     0
  9
$CHAMFERA
 40
0.0
  9
$CHAMFERB
 40
0.0
  9
$CHAMFERC
 40
0.0
  9
$CHAMFERD
 40
0.0
  9
$SKPOLY
 70
     0
  9
$TDCREATE
 40
2459604.989965278
  9
$TDUCREATE
 40
2459604.989965278
  9
$TDUPDATE
 40
2459604.989965278
  9
$TDUUPDATE
 40
2459604.989965278
  9
$TDINDWG
 40
0.0000000000
  9
$TDUSRTIMER
 40
0.0000000000
  9
$USRTIMER
 70
     1
  9
$ANGBASE
 50
0.0
  9
$ANGDIR
 70
     0
  9
$PDMODE
 70
     0
  9
$PDSIZE
 40
0.0
  9
$PLINEWID
 40
0.0
  9
$SPLFRAME
 70
     0
  9
$SPLINETYPE
 70
     6
  9
$SPLINESEGS
 70
     8
  9
$HANDSEED
  5
22D
  9
$SURFTAB1
 70
     6
  9
$SURFTAB2
 70
     6
  9
$SURFTYPE
 70
     6
  9
$SURFU
 70
     6
  9
$SURFV
 70
     6
  9
$UCSBASE
  2

  9
$UCSNAME
  2

  9
$UCSORG
 10
0.0
 20
0.0
 30
0.0
  9
$UCSXDIR
 10
1.0
 20
0.0
 30
0.0
  9
$UCSYDIR
 10
0.0
 20
1.0
 30
0.0
  9
$UCSORTHOREF
  2

  9
$UCSORTHOVIEW
 70
     0
  9
$UCSORGTOP
 10
0.0
 20
0.0
 30
0.0
  9
$UCSORGBOTTOM
 10
0.0
 20
0.0
 30
0.0
  9
$UCSORGLEFT
 10
0.0
 20
0.0
 30
0.0
  9
$UCSORGRIGHT
 10
0.0
 20
0.0
 30
0.0
  9
$UCSORGFRONT
 10
0.0
 20
0.0
 30
0.0
  9
$UCSORGBACK
 10
0.0
 20
0.0
 30
0.0
  9
$PUCSBASE
  2

  9
$PUCSNAME
  2

  9
$PUCSORG
 10
0.0
 20
0.0
 30
0.0
  9
$PUCSXDIR
 10
1.0
 20
0.0
 30
0.0
  9
$PUCSYDIR
 10
0.0
 20
1.0
 30
0.0
  9
$PUCSORTHOREF
  2

  9
$PUCSORTHOVIEW
 70
     0
  9
$PUCSORGTOP
 10
0.0
 20
0.0
 30
0.0
  9
$PUCSORGBOTTOM
 10
0.0
 20
0.0
 30
0.0
  9
$PUCSORGLEFT
 10
0.0
 20
0.0
 30
0.0
  9
$PUCSORGRIGHT
 10
0.0
 20
0.0
 30
0.0
  9
$PUCSORGFRONT
 10
0.0
 20
0.0
 30
0.0
  9
$PUCSORGBACK
 10
0.0
 20
0.0
 30
0.0
  9
$USERI1
 70
     0
  9
$USERI2
 70
     0
  9
$USERI3
 70
     0
  9
$USERI4
 70
     0
  9
$USERI5
 70
     0
  9
$USERR1
 40
0.0
  9
$USERR2
 40
0.0
  9
$USERR3
 40
0.0
  9
$USERR4
 40
0.0
  9
$USERR5
 40
0.0
  9
$WORLDVIEW
 70
     1
  9
$SHADEDGE
 70
     3
  9
$SHADEDIF
 70
    70
  9
$TILEMODE
 70
     1
  9
$MAXACTVP
 70
    64
  9
$PINSBASE
 10
0.0
 20
0.0
 30
0.0
  9
$PLIMCHECK
 70
     0
  9
$PEXTMIN
 10
1.000000000000000E+20
 20
1.000000000000000E+20
 30
1.000000000000000E+20
  9
$PEXTMAX
 10
-1.000000000000000E+20
 20
-1.000000000000000E+20
 30
-1.000000000000000E+20
  9
$PLIMMIN
 10
0.0
 20
0.0
  9
$PLIMMAX
 10
12.0
 20
9.0
  9
$UNITMODE
 70
     0
  9
$VISRETAIN
 70
     1
  9
$PLINEGEN
 70
     0
  9
$PSLTSCALE
 70
     1
  9
$TREEDEPTH
 70
  3020
  9
$CMLSTYLE
  2
Standard
  9
$CMLJUST
 70
     0
  9
$CMLSCALE
 40
1.0
  9
$PROXYGRAPHICS
 70
     1
  9
$MEASUREMENT
 70
     0
  9
$CELWEIGHT
370
    -1
  9
$ENDCAPS
280
     0
  9
$JOINSTYLE
280
     0
  9
$LWDISPLAY
290
     0
  9
$INSUNITS
 70
     5
  9
$HYPERLINKBASE
  1

  9
$STYLESHEET
  1

  9
$XEDIT
290
     1
  9
$CEPSNTYPE
380
     0
  9
$PSTYLEMODE
290
     1
  9
$FINGERPRINTGUID
  2
{849AF5D5-209F-7C43-8286-C6AC09CF94A0}
  9
$VERSIONGUID
  2
{6BFE68E7-1E91-5D4A-8FDF-C5172CB981FE}
  9
$EXTNAMES
290
     1
  9
$PSVPSCALE
 40
0.0
  9
$OLESTARTUP
290
     0
  9
$SORTENTS
280
   127
  9
$INDEXCTL
280
     0
  9
$HIDETEXT
280
     1
  9
$XCLIPFRAME
280
     2
  9
$HALOGAP
280
     0
  9
$OBSCOLOR
 70
   257
  9
$OBSLTYPE
280
     0
  9
$INTERSECTIONDISPLAY
280
     0
  9
$INTERSECTIONCOLOR
 70
   257
  9
$DIMASSOC
280
     2
  9
$PROJECTNAME
  1

  9
$CAMERADISPLAY
290
     0
  9
$LENSLENGTH
 40
50.0
  9
$CAMERAHEIGHT
 40
0.0
  9
$STEPSPERSEC
 40
2.0
  9
$STEPSIZE
 40
6.0
  9
$3DDWFPREC
 40
2.0
  9
$PSOLWIDTH
 40
0.25
  9
$PSOLHEIGHT
 40
4.0
  9
$LOFTANG1
 40
1.570796326794896
  9
$LOFTANG2
 40
1.570796326794896
  9
$LOFTMAG1
 40
0.0
  9
$LOFTMAG2
 40
0.0
  9
$LOFTPARAM
 70
     7
  9
$LOFTNORMALS
280
     1
  9
$LATITUDE
 40
37.795
  9
$LONGITUDE
 40
-122.394
  9
$NORTHDIRECTION
 40
0.0
  9
$TIMEZONE
 70
 -8000
  9
$LIGHTGLYPHDISPLAY
280
     1
  9
$TILEMODELIGHTSYNCH
280
     1
  9
$CMATERIAL
347
11
  9
$SOLIDHIST
280
     0
  9
$SHOWHIST
280
     1
  9
$DWFFRAME
280
     2
  9
$DGNFRAME
280
     0
  9
$REALWORLDSCALE
290
     1
  9
$INTERFERECOLOR
 62
     1
  9
$INTERFEREOBJVS
345
33
  9
$INTERFEREVPVS
346
30
  9
$CSHADOW
280
     0
  9
$SHADOWPLANELOCATION
 40
0.0
  0
ENDSEC
  0
SECTION
  2
CLASSES
  0
CLASS
  1
ACDBDICTIONARYWDFLT
  2
AcDbDictionaryWithDefault
  3
ObjectDBX Classes
 90
        0
 91
        1
280
     0
281
     0
  0
CLASS
  1
MATERIAL
  2
AcDbMaterial
  3
ObjectDBX Classes
 90
     1153
 91
        3
280
     0
281
     0
  0
CLASS
  1
VISUALSTYLE
  2
AcDbVisualStyle
  3
ObjectDBX Classes
 90
     4095
 91
       24
280
     0
281
     0
  0
CLASS
  1
SCALE
  2
AcDbScale
  3
ObjectDBX Classes
 90
     1153
 91
       17
280
     0
281
     0
  0
CLASS
  1
TABLESTYLE
  2
AcDbTableStyle
  3
ObjectDBX Classes
 90
     4095
 91
        1
280
     0
281
     0
  0
CLASS
  1
MLEADERSTYLE
  2
AcDbMLeaderStyle
  3
ACDB_MLEADERSTYLE_CLASS
 90
     4095
 91
        1
280
     0
281
     0
  0
CLASS
  1
ACDBSECTIONVIEWSTYLE
  2
AcDbSectionViewStyle
  3
ObjectDBX Classes
 90
     1025
 91
        1
280
     0
281
     0
  0
CLASS
  1
ACDBDETAILVIEWSTYLE
  2
AcDbDetailViewStyle
  3
ObjectDBX Classes
 90
     1025
 91
        1
280
     0
281
     0
  0
CLASS
  1
DICTIONARYVAR
  2
AcDbDictionaryVar
  3
ObjectDBX Classes
 90
        0
 91
        5
280
     0
281
     0
  0
CLASS
  1
CELLSTYLEMAP
  2
AcDbCellStyleMap
  3
ObjectDBX Classes
 90
     1152
 91
        1
280
     0
281
     0
  0
ENDSEC
  0
SECTION
  2
TABLES
  0
TABLE
  2
VPORT
  5
8
330
0
100
AcDbSymbolTable
 70
     1
1001
ACAD
1000
DbSaveVer
1071
      247
  0
VPORT
  5
57
330
8
100
AcDbSymbolTableRecord
100
AcDbViewportTableRecord
  2
*Active
 70
     0
 10
0.0
 20
0.0
 11
1.0
 21
1.0
 12
500.0
 22
500.0
 13
0.0
 23
0.0
 14
1.0
 24
1.0
 15
0.0
 25
0.0
 16
0.0
 26
0.0
 36
1.0
 17
0.0
 27
0.0
 37
0.0
 40
12.0
 41
1.0
 42
50.0
 43
0.0
 44
0.0
 50
0.0
 51
0.0
 71
     0
 72
   100
 73
     1
 74
     1
 75
     0
 76
     0
 77
     0
 78
     0
281
     0
 65
     1
110
0.0
120
0.0
130
0.0
111
1.0
121
0.0
131
0.0
112
0.0
122
1.0
132
0.0
 79
     0
146
0.0
 60
     3
 61
     5
292
     1
282
     1
141
0.0
142
0.0
 63
   250
421
  3355443
  0
ENDTAB
  0
TABLE
  2
LTYPE
  5
5
330
0
100
AcDbSymbolTable
 70
     1
  0
LTYPE
  5
5B
330
5
100
AcDbSymbolTableRecord
100
AcDbLinetypeTableRecord
  2
ByBlock
 70
     0
  3

 72
    65
 73
     0
 40
0.0
  0
LTYPE
  5
5C
330
5
100
AcDbSymbolTableRecord
100
AcDbLinetypeTableRecord
  2
ByLayer
 70
     0
  3

 72
    65
 73
     0
 40
0.0
  0
LTYPE
  5
5D
330
5
100
AcDbSymbolTableRecord
100
AcDbLinetypeTableRecord
  2
Continuous
 70
     0
  3
Solid line
 72
    65
 73
     0
 40
0.0
  0
ENDTAB
  0
TABLE
  2
LAYER
  5
2
330
0
100
AcDbSymbolTable
 70
     2
  0
LAYER
  5
54
330
2
100
AcDbSymbolTableRecord
100
AcDbLayerTableRecord
  2
0
 70
     0
 62
     7
  6
Continuous
370
    -3
390
F
347
21
348
0
  0
LAYER
  5
7A
330
2
100
AcDbSymbolTableRecord
100
AcDbLayerTableRecord
  2
goonsite v2_Sketch1
 70
     0
 62
     7
  6
Continuous
370
    -3
390
F
347
21
348
0
1001
NFusion_SketchTransform
1000
1.000000;0.000000;0.000000;0.000000;0.000000;1.000000;0.000000;0.000000;0.000000;0.000000;1.000000;0.000000;0.000000;0.000000;0.000000;1.000000
  0
ENDTAB
  0
TABLE
  2
STYLE
  5
3
330
0
100
AcDbSymbolTable
 70
     2
  0
STYLE
  5
55
330
3
100
AcDbSymbolTableRecord
100
AcDbTextStyleTableRecord
  2
Standard
 70
     0
 40
0.0
 41
1.0
 50
0.0
 71
     0
 42
0.2
  3
txt
  4

  0
STYLE
  5
5A
330
3
100
AcDbSymbolTableRecord
100
AcDbTextStyleTableRecord
  2
Annotative
 70
     0
 40
0.0
 41
1.0
 50
0.0
 71
     0
 42
0.2
  3
txt
  4

1001
AcadAnnotative
1000
AnnotativeData
1002
{
1070
     1
1070
     1
1002
}
  0
ENDTAB
  0
TABLE
  2
VIEW
  5
6
330
0
100
AcDbSymbolTable
 70
     0
  0
ENDTAB
  0
TABLE
  2
UCS
  5
7
330
0
100
AcDbSymbolTable
 70
     0
  0
ENDTAB
  0
TABLE
  2
APPID
  5
9
330
0
100
AcDbSymbolTable
 70
     4
  0
APPID
  5
56
330
9
100
AcDbSymbolTableRecord
100
AcDbRegAppTableRecord
  2
ACAD
 70
     0
  0
APPID
  5
5E
330
9
100
AcDbSymbolTableRecord
100
AcDbRegAppTableRecord
  2
AcadAnnotative
 70
     0
  0
APPID
  5
78
330
9
100
AcDbSymbolTableRecord
100
AcDbRegAppTableRecord
  2
EDIT_IN_FUSION_ACAD_ADDIN
 70
     0
  0
APPID
  5
79
330
9
100
AcDbSymbolTableRecord
100
AcDbRegAppTableRecord
  2
NFusion_SketchTransform
 70
     0
  0
ENDTAB
  0
TABLE
  2
DIMSTYLE
  5
A
330
0
100
AcDbSymbolTable
 70
     2
100
AcDbDimStyleTable
 71
     0
  0
DIMSTYLE
105
58
330
A
100
AcDbSymbolTableRecord
100
AcDbDimStyleTableRecord
  2
Standard
 70
     0
340
55
  0
DIMSTYLE
105
59
330
A
100
AcDbSymbolTableRecord
100
AcDbDimStyleTableRecord
  2
Annotative
 70
     0
340
55
1001
AcadAnnotative
1000
AnnotativeData
1002
{
1070
     1
1070
     1
1002
}
  0
ENDTAB
  0
TABLE
  2
BLOCK_RECORD
  5
1
330
0
100
AcDbSymbolTable
 70
     1
  0
BLOCK_RECORD
  5
70
330
1
100
AcDbSymbolTableRecord
100
AcDbBlockTableRecord
  2
*Model_Space
340
73
 70
     0
280
     1
281
     0
  0
BLOCK_RECORD
  5
6C
330
1
100
AcDbSymbolTableRecord
100
AcDbBlockTableRecord
  2
*Paper_Space
340
6F
 70
     0
280
     1
281
     0
  0
BLOCK_RECORD
  5
74
330
1
100
AcDbSymbolTableRecord
100
AcDbBlockTableRecord
  2
*Paper_Space0
340
77
 70
     0
280
     1
281
     0
  0
ENDTAB
  0
ENDSEC
  0
SECTION
  2
BLOCKS
  0
BLOCK
  5
71
330
70
100
AcDbEntity
  8
0
100
AcDbBlockBegin
  2
*Model_Space
 70
     0
 10
0.0
 20
0.0
 30
0.0
  3
*Model_Space
  1

  0
ENDBLK
  5
72
330
70
100
AcDbEntity
  8
0
100
AcDbBlockEnd
  0
BLOCK
  5
6D
330
6C
100
AcDbEntity
 67
     1
  8
0
100
AcDbBlockBegin
  2
*Paper_Space
 70
     0
 10
0.0
 20
0.0
 30
0.0
  3
*Paper_Space
  1

  0
ENDBLK
  5
6E
330
6C
100
AcDbEntity
 67
     1
  8
0
100
AcDbBlockEnd
  0
BLOCK
  5
75
330
74
100
AcDbEntity
 67
     1
  8
0
100
AcDbBlockBegin
  2
*Paper_Space0
 70
     0
 10
0.0
 20
0.0
 30
0.0
  3
*Paper_Space0
  1

  0
ENDBLK
  5
76
330
74
100
AcDbEntity
 67
     1
  8
0
100
AcDbBlockEnd
  0
ENDSEC
  0
SECTION
  2
ENTITIES
  0
POINT
  5
7B
330
70
100
AcDbEntity
  8
goonsite v2_Sketch1
100
AcDbPoint
 10
0.0
 20
0.0
 30
0.0
  0
LINE
  5
7C
330
70
100
AcDbEntity
  8
goonsite v2_Sketch1
100
AcDbLine
 10
-4.907291666499999
 20
-4.492499999999998
 30
0.0
 11
-4.907291666499998
 21
-5.792499999999999
 31
0.0
  0
ARC
  5
7D
330
70
100
AcDbEntity
  8
goonsite v2_Sketch1
100
AcDbCircle
 10
-12.3705625
 20
-6.397499999999998
 30
0.0
 40
0.0499999999999972
100
AcDbArc
 50
359.999999999998
 51
90.0
  0
ARC
  5
7E
330
70
100
AcDbEntity
  8
goonsite v2_Sketch1
100
AcDbCircle
 10
-10.5131875
 20
-6.3975
 30
0.0
 40
0.0500000000000007
100
AcDbArc
 50
0.0000000000010178
 51
90.0
  0
ARC
  5
7F
330
70
100
AcDbEntity
  8
goonsite v2_Sketch1
100
AcDbCircle
 10
-10.5131875
 20
-7.697499999999996
 30
0.0
 40
0.0500000000000034
100
AcDbArc
 50
270.0000000000041
 51
359.9999999999959
  0
ARC
  5
80
330
70
100
AcDbEntity
  8
goonsite v2_Sketch1
100
AcDbCircle
 10
-11.8131875
 20
-7.6975
 30
0.0
 40
0.0499999999999972
100
AcDbArc
 50
179.999999999999
 51
270.0000000000041
  0
LINE
  5
81
330
70
100
AcDbEntity
  8
goonsite v2_Sketch1
100
AcDbLine
 10
-5.598125
 20
-2.032499999999999
 30
0.0
 11
-4.298124999999999
 21
-2.032499999999999
 31
0.0
  0
LINE
  5
82
330
70
100
AcDbEntity
  8
goonsite v2_Sketch1
100
AcDbLine
 10
-5.806484374999999
 20
-3.9375
 30
0.0
 11
-4.506484374999998
 21
-3.9375
 31
0.0
  0
LINE
  5
83
330
70
100
AcDbEntity
  8
goonsite v2_Sketch1
100
AcDbLine
 10
-4.506484374999998
 20
-2.537499999999999
 30
0.0
 11
-5.806484374999999
 21
-2.537499999999999
 31
0.0
  0
LINE
  5
84
330
70
100
AcDbEntity
  8
goonsite v2_Sketch1
100
AcDbLine
 10
-14.6697914665
 20
-4.442499999999998
 30
0.0
 11
-15.9697914665
 21
-4.442499999999999
 31
0.0
  0
LINE
  5
85
330
70
100
AcDbEntity
  8
goonsite v2_Sketch1
100
AcDbLine
 10
-21.443125
 20
-4.442499999999995
 30
0.0
 11
-22.743125
 21
-4.442499999999999
 31
0.0
  0
LINE
  5
86
330
70
100
AcDbEntity
  8
goonsite v2_Sketch1
100
AcDbLine
 10
-22.266875
 20
-2.0325
 30
0.0
 11
-20.72875
 21
-2.032499999999999
 31
0.0
  0
LINE
  5
87
330
70
100
AcDbEntity
  8
goonsite v2_Sketch1
100
AcDbLine
 10
-15.57929687499999
 20
-2.5375
 30
0.0
 11
-16.879296875
 21
-2.537499999999999
 31
0.0
  0
ARC
  5
88
330
70
100
AcDbEntity
  8
goonsite v2_Sketch1
100
AcDbCircle
 10
-8.655812499999999
 20
-6.3975
 30
0.0
 40
0.0500000000000007
100
AcDbArc
 50
0.0000000000010178
 51
90.0
  0
ARC
  5
89
330
70
100
AcDbEntity
  8
goonsite v2_Sketch1
100
AcDbCircle
 10
-10.9656248665
 20
-4.492499999999999
 30
0.0
 40
0.0500000000000007
100
AcDbArc
 50
0.0000000000010178
 51
90.0
  0
ARC
  5
8A
330
70
100
AcDbEntity
  8
goonsite v2_Sketch1
100
AcDbCircle
 10
-17.3853125
 20
-6.397499999999996
 30
0.0
 40
0.0499999999999972
100
AcDbArc
 50
89.99999999999593
 51
180.000000000004
  0
LINE
  5
8B
330
70
100
AcDbEntity
  8
goonsite v2_Sketch1
100
AcDbLine
 10
-14.61979146650001
 20
-5.792499999999999
 30
0.0
 11
-14.6197914665
 21
-4.492499999999998
 31
0.0
  0
LINE
  5
8C
330
70
100
AcDbEntity
  8
goonsite v2_Sketch1
100
AcDbLine
 10
-11.888359375
 20
-2.537499999999999
 30
0.0
 11
-13.188359375
 21
-2.537499999999999
 31
0.0
  0
LINE
  5
8D
330
70
100
AcDbEntity
  8
goonsite v2_Sketch1
100
AcDbLine
 10
-20.966875
 20
-2.537499999999999
 30
0.0
 11
-23.219375
 21
-2.537499999999999
 31
0.0
  0
LINE
  5
8E
330
70
100
AcDbEntity
  8
goonsite v2_Sketch1
100
AcDbLine
 10
-21.243125
 20
-4.612499999999998
 30
0.0
 11
-21.243125
 21
-5.912499999999998
 31
0.0
  0
LINE
  5
8F
330
70
100
AcDbEntity
  8
goonsite v2_Sketch1
100
AcDbLine
 10
-20.72875
 20
-0.6324999999999968
 30
0.0
 11
-22.266875
 21
-0.6324999999999968
 31
0.0
  0
LINE
  5
90
330
70
100
AcDbEntity
  8
goonsite v2_Sketch1
100
AcDbLine
 10
-4.456484374999998
 20
-3.887499999999999
 30
0.0
 11
-4.456484374999998
 21
-2.587499999999999
 31
0.0
  0
LINE
  5
91
330
70
100
AcDbEntity
  8
goonsite v2_Sketch1
100
AcDbLine
 10
-2.076249999999999
 20
-6.397499999999999
 30
0.0
 11
-2.076249999999999
 21
-7.697499999999999
 31
0.0
  0
LINE
  5
92
330
70
100
AcDbEntity
  8
goonsite v2_Sketch1
100
AcDbLine
 10
-0.5406250000000011
 20
-4.0075
 30
0.0
 11
-0.5406250000000011
 21
-2.707499999999998
 31
0.0
  0
LINE
  5
93
330
70
100
AcDbEntity
  8
goonsite v2_Sketch1
100
AcDbLine
 10
-8.5614582665
 20
-5.842500000000002
 30
0.0
 11
-7.2614582665
 21
-5.8425
 31
0.0
  0
LINE
  5
94
330
70
100
AcDbEntity
  8
goonsite v2_Sketch1
100
AcDbLine
 10
-22.466875
 20
-4.0075
 30
0.0
 11
-22.466875
 21
-3.9375
 31
0.0
  0
LINE
  5
95
330
70
100
AcDbEntity
  8
goonsite v2_Sketch1
100
AcDbLine
 10
-0.9143749999999986
 20
-5.792499999999999
 30
0.0
 11
-0.9143749999999988
 21
-4.492499999999998
 31
0.0
  0
LINE
  5
96
330
70
100
AcDbEntity
  8
goonsite v2_Sketch1
100
AcDbLine
 10
-2.940625
 20
-4.0075
 30
0.0
 11
-2.940625000000001
 21
-2.707499999999998
 31
0.0
  0
LINE
  5
97
330
70
100
AcDbEntity
  8
goonsite v2_Sketch1
100
AcDbLine
 10
-22.743125
 20
-5.8425
 30
0.0
 11
-21.443125
 21
-5.842499999999998
 31
0.0
  0
ARC
  5
98
330
70
100
AcDbEntity
  8
goonsite v2_Sketch1
100
AcDbCircle
 10
-9.9558125
 20
-7.6975
 30
0.0
 40
0.0499999999999972
100
AcDbArc
 50
179.999999999999
 51
270.0
  0
ARC
  5
99
330
70
100
AcDbEntity
  8
goonsite v2_Sketch1
100
AcDbCircle
 10
-9.497421875
 20
-3.887500000000001
 30
0.0
 40
0.0499999999999972
100
AcDbArc
 50
179.9999999999979
 51
270.0000000000041
  0
LINE
  5
9A
330
70
100
AcDbEntity
  8
goonsite v2_Sketch1
100
AcDbLine
 10
-8.197421874999996
 20
-2.537499999999999
 30
0.0
 11
-9.497421874999997
 21
-2.537499999999999
 31
0.0
  0
LINE
  5
9B
330
70
100
AcDbEntity
  8
goonsite v2_Sketch1
100
AcDbLine
 10
-10.4135415665
 20
-5.842499999999998
 30
0.0
 11
-9.1135415665
 21
-5.8425
 31
0.0
  0
LINE
  5
9C
330
70
100
AcDbEntity
  8
goonsite v2_Sketch1
100
AcDbLine
 10
-8.1484375
 20
-6.397499999999999
 30
0.0
 11
-8.1484375
 21
-7.697499999999999
 31
0.0
  0
LINE
  5
9D
330
70
100
AcDbEntity
  8
goonsite v2_Sketch1
100
AcDbLine
 10
-23.98375
 20
-1.982499999999999
 30
0.0
 11
-23.98375000000001
 21
-0.6824999999999966
 31
0.0
  0
LINE
  5
9E
330
70
100
AcDbEntity
  8
goonsite v2_Sketch1
100
AcDbLine
 10
-12.3205625
 20
-7.697499999999999
 30
0.0
 11
-12.3205625
 21
-6.397499999999999
 31
0.0
  0
LINE
  5
9F
330
70
100
AcDbEntity
  8
goonsite v2_Sketch1
100
AcDbLine
 10
-17.3853125
 20
-7.747499999999999
 30
0.0
 11
-16.0853125
 21
-7.747499999999999
 31
0.0
  0
LINE
  5
A0
330
70
100
AcDbEntity
  8
goonsite v2_Sketch1
100
AcDbLine
 10
-11.81318749999999
 20
-7.747499999999999
 30
0.0
 11
-10.5131875
 21
-7.747499999999999
 31
0.0
  0
LINE
  5
A1
330
70
100
AcDbEntity
  8
goonsite v2_Sketch1
100
AcDbLine
 10
-7.441875000000002
 20
-0.8025000000000011
 30
0.0
 11
-7.441875000000002
 21
-2.102500000000001
 31
0.0
  0
ARC
  5
A2
330
70
100
AcDbEntity
  8
goonsite v2_Sketch1
100
AcDbCircle
 10
-12.2656248665
 20
-4.492499999999994
 30
0.0
 40
0.0499999999999945
100
AcDbArc
 50
89.99999999999593
 51
180.000000000005
  0
LINE
  5
A3
330
70
100
AcDbEntity
  8
goonsite v2_Sketch1
100
AcDbLine
 10
-23.5075
 20
-6.397499999999999
 30
0.0
 11
-23.5075
 21
-7.697499999999999
 31
0.0
  0
ARC
  5
A4
330
70
100
AcDbEntity
  8
goonsite v2_Sketch1
100
AcDbCircle
 10
-21.19312500000001
 20
-5.912500000000002
 30
0.0
 40
0.0499999999999972
100
AcDbArc
 50
179.9999999999959
 51
270.0000000000041
  0
ARC
  5
A5
330
70
100
AcDbEntity
  8
goonsite v2_Sketch1
100
AcDbCircle
 10
-10.9656248665
 20
-5.792500000000002
 30
0.0
 40
0.0499999999999981
100
AcDbArc
 50
270.0
 51
0.0000000000030533
  0
ARC
  5
A6
330
70
100
AcDbEntity
  8
goonsite v2_Sketch1
100
AcDbCircle
 10
-4.298125
 20
-1.982499999999998
 30
0.0
 40
0.0500000000000016
100
AcDbArc
 50
270.000000000001
 51
359.999999999998
  0
ARC
  5
A7
330
70
100
AcDbEntity
  8
goonsite v2_Sketch1
100
AcDbCircle
 10
-5.806484375
 20
-2.587499999999998
 30
0.0
 40
0.0499999999999989
100
AcDbArc
 50
89.99999999999898
 51
180.000000000001
  0
LINE
  5
A8
330
70
100
AcDbEntity
  8
goonsite v2_Sketch1
100
AcDbLine
 10
-22.793125
 20
-4.492499999999998
 30
0.0
 11
-22.793125
 21
-5.792499999999999
 31
0.0
  0
ARC
  5
A9
330
70
100
AcDbEntity
  8
goonsite v2_Sketch1
100
AcDbCircle
 10
-15.52793749999999
 20
-6.397500000000003
 30
0.0
 40
0.0500000000000043
100
AcDbArc
 50
90.0000000000122
 51
179.9999999999959
  0
LINE
  5
AA
330
70
100
AcDbEntity
  8
goonsite v2_Sketch1
100
AcDbLine
 10
-17.8218747665
 20
-5.842500000000002
 30
0.0
 11
-16.5218747665
 21
-5.8425
 31
0.0
  0
ARC
  5
AB
330
70
100
AcDbEntity
  8
goonsite v2_Sketch1
100
AcDbCircle
 10
-7.651953125000001
 20
-3.887500000000003
 30
0.0
 40
0.0499999999999954
100
AcDbArc
 50
179.9999999999949
 51
270.0000000000021
  0
LINE
  5
AC
330
70
100
AcDbEntity
  8
goonsite v2_Sketch1
100
AcDbLine
 10
-16.879296875
 20
-3.937499999999997
 30
0.0
 11
-15.57929687499999
 21
-3.9375
 31
0.0
  0
LINE
  5
AD
330
70
100
AcDbEntity
  8
goonsite v2_Sketch1
100
AcDbLine
 10
-12.2656248665
 20
-5.842499999999998
 30
0.0
 11
-10.9656248665
 21
-5.8425
 31
0.0
  0
ARC
  5
AE
330
70
100
AcDbEntity
  8
goonsite v2_Sketch1
100
AcDbCircle
 10
-9.1135415665
 20
-5.792500000000002
 30
0.0
 40
0.0499999999999981
100
AcDbArc
 50
270.0
 51
0.0000000000030533
  0
ARC
  5
AF
330
70
100
AcDbEntity
  8
goonsite v2_Sketch1
100
AcDbCircle
 10
-10.042890625
 20
-3.887500000000001
 30
0.0
 40
0.0499999999999989
100
AcDbArc
 50
270.0
 51
0.0000000000020356
  0
ARC
  5
B0
330
70
100
AcDbEntity
  8
goonsite v2_Sketch1
100
AcDbCircle
 10
-3.590624999999998
 20
-2.7075
 30
0.0
 40
0.0500000000000025
100
AcDbArc
 50
90.00000000000204
 51
179.9999999999979
  0
LINE
  5
B1
330
70
100
AcDbEntity
  8
goonsite v2_Sketch1
100
AcDbLine
 10
-22.466875
 20
-3.9375
 30
0.0
 11
-20.966875
 21
-3.9375
 31
0.0
  0
LINE
  5
B2
330
70
100
AcDbEntity
  8
goonsite v2_Sketch1
100
AcDbLine
 10
-13.188359375
 20
-3.9375
 30
0.0
 11
-11.888359375
 21
-3.9375
 31
0.0
  0
ARC
  5
B3
330
70
100
AcDbEntity
  8
goonsite v2_Sketch1
100
AcDbCircle
 10
-14.6697914665
 20
-4.492499999999999
 30
0.0
 40
0.0500000000000007
100
AcDbArc
 50
0.0000000000010178
 51
90.0
  0
LINE
  5
B4
330
70
100
AcDbEntity
  8
goonsite v2_Sketch1
100
AcDbLine
 10
-9.9558125
 20
-7.747499999999999
 30
0.0
 11
-8.655812499999999
 21
-7.747499999999999
 31
0.0
  0
ARC
  5
B5
330
70
100
AcDbEntity
  8
goonsite v2_Sketch1
100
AcDbCircle
 10
-2.990624999999998
 20
-4.007500000000002
 30
0.0
 40
0.0499999999999981
100
AcDbArc
 50
269.9999999999959
 51
0.0000000000020356
  0
ARC
  5
B6
330
70
100
AcDbEntity
  8
goonsite v2_Sketch1
100
AcDbCircle
 10
-6.709374966500002
 20
-5.7925
 30
0.0
 40
0.0499999999999998
100
AcDbArc
 50
180.000000000001
 51
270.000000000001
  0
ARC
  5
B7
330
70
100
AcDbEntity
  8
goonsite v2_Sketch1
100
AcDbCircle
 10
-23.593125
 20
-5.912499999999996
 30
0.0
 40
0.0500000000000043
100
AcDbArc
 50
180.000000000003
 51
270.0
  0
LINE
  5
B8
330
70
100
AcDbEntity
  8
goonsite v2_Sketch1
100
AcDbLine
 10
-14.1779375
 20
-7.697499999999999
 30
0.0
 11
-14.1779375
 21
-6.397499999999999
 31
0.0
  0
ARC
  5
B9
330
70
100
AcDbEntity
  8
goonsite v2_Sketch1
100
AcDbCircle
 10
-8.561458266499997
 20
-5.792499999999998
 30
0.0
 40
0.0500000000000043
100
AcDbArc
 50
180.000000000003
 51
269.9999999999959
  0
LINE
  5
BA
330
70
100
AcDbEntity
  8
goonsite v2_Sketch1
100
AcDbLine
 10
-15.96979146650001
 20
-5.842499999999998
 30
0.0
 11
-14.6697914665
 21
-5.8425
 31
0.0
  0
ARC
  5
BB
330
70
100
AcDbEntity
  8
goonsite v2_Sketch1
100
AcDbCircle
 10
-6.798437499999999
 20
-7.6975
 30
0.0
 40
0.0499999999999989
100
AcDbArc
 50
270.0
 51
0.0000000000010178
  0
ARC
  5
BC
330
70
100
AcDbEntity
  8
goonsite v2_Sketch1
100
AcDbCircle
 10
-6.2410625
 20
-7.697499999999999
 30
0.0
 40
0.0499999999999998
100
AcDbArc
 50
180.0
 51
270.0
  0
LINE
  5
BD
330
70
100
AcDbEntity
  8
goonsite v2_Sketch1
100
AcDbLine
 10
-7.391875000000001
 20
-2.152499999999998
 30
0.0
 11
-6.791875000000004
 21
-2.152499999999998
 31
0.0
  0
LINE
  5
BE
330
70
100
AcDbEntity
  8
goonsite v2_Sketch1
100
AcDbLine
 10
-16.0853125
 20
-6.3475
 30
0.0
 11
-17.3853125
 21
-6.347499999999999
 31
0.0
  0
LINE
  5
BF
330
70
100
AcDbEntity
  8
goonsite v2_Sketch1
100
AcDbLine
 10
-13.238359375
 20
-2.587499999999999
 30
0.0
 11
-13.238359375
 21
-3.887499999999999
 31
0.0
  0
LINE
  5
C0
330
70
100
AcDbEntity
  8
goonsite v2_Sketch1
100
AcDbLine
 10
-7.2614582665
 20
-4.442499999999999
 30
0.0
 11
-8.5614582665
 21
-4.442499999999999
 31
0.0
  0
LINE
  5
C1
330
70
100
AcDbEntity
  8
goonsite v2_Sketch1
100
AcDbLine
 10
-9.497421874999997
 20
-3.9375
 30
0.0
 11
-8.197421874999996
 21
-3.9375
 31
0.0
  0
ARC
  5
C2
330
70
100
AcDbEntity
  8
goonsite v2_Sketch1
100
AcDbCircle
 10
-13.73382812499999
 20
-2.587499999999995
 30
0.0
 40
0.0499999999999936
100
AcDbArc
 50
359.9999999999949
 51
90.00000000000406
  0
LINE
  5
C3
330
70
100
AcDbEntity
  8
goonsite v2_Sketch1
100
AcDbLine
 10
-4.3836875
 20
-7.747499999999999
 30
0.0
 11
-3.083687499999999
 21
-7.747499999999999
 31
0.0
  0
LINE
  5
C4
330
70
100
AcDbEntity
  8
goonsite v2_Sketch1
100
AcDbLine
 10
-11.838359375
 20
-3.887499999999999
 30
0.0
 11
-11.838359375
 21
-2.587499999999999
 31
0.0
  0
LINE
  5
C5
330
70
100
AcDbEntity
  8
goonsite v2_Sketch1
100
AcDbLine
 10
-4.941062499999999
 20
-6.3475
 30
0.0
 11
-6.2410625
 21
-6.347499999999999
 31
0.0
  0
LINE
  5
C6
330
70
100
AcDbEntity
  8
goonsite v2_Sketch1
100
AcDbLine
 10
-6.709374966500001
 20
-5.8425
 30
0.0
 11
-5.409374966499999
 21
-5.8425
 31
0.0
  0
LINE
  5
C7
330
70
100
AcDbEntity
  8
goonsite v2_Sketch1
100
AcDbLine
 10
-2.026249999999999
 20
-7.747499999999999
 30
0.0
 11
-0.726249999999999
 21
-7.747499999999999
 31
0.0
  0
LINE
  5
C8
330
70
100
AcDbEntity
  8
goonsite v2_Sketch1
100
AcDbLine
 10
-22.1575
 20
-6.3475
 30
0.0
 11
-23.4575
 21
-6.3475
 31
0.0
  0
ARC
  5
C9
330
70
100
AcDbEntity
  8
goonsite v2_Sketch1
100
AcDbCircle
 10
-13.733828125
 20
-3.887500000000003
 30
0.0
 40
0.0499999999999963
100
AcDbArc
 50
270.0
 51
0.0000000000050889
  0
ARC
  5
CA
330
70
100
AcDbEntity
  8
goonsite v2_Sketch1
100
AcDbCircle
 10
-3.083687499999999
 20
-6.397499999999999
 30
0.0
 40
0.0499999999999994
100
AcDbArc
 50
0.0
 51
89.99999999999948
  0
ARC
  5
CB
330
70
100
AcDbEntity
  8
goonsite v2_Sketch1
100
AcDbCircle
 10
-3.590625000000002
 20
-4.007500000000001
 30
0.0
 40
0.0499999999999981
100
AcDbArc
 50
179.999999999999
 51
270.0000000000031
  0
LINE
  5
CC
330
70
100
AcDbEntity
  8
goonsite v2_Sketch1
100
AcDbLine
 10
-7.701953124999996
 20
-2.587499999999999
 30
0.0
 11
-7.701953124999996
 21
-3.887499999999999
 31
0.0
  0
LINE
  5
CD
330
70
100
AcDbEntity
  8
goonsite v2_Sketch1
100
AcDbLine
 10
-5.856484374999999
 20
-2.587499999999999
 30
0.0
 11
-5.856484374999999
 21
-3.887499999999999
 31
0.0
  0
ARC
  5
CE
330
70
100
AcDbEntity
  8
goonsite v2_Sketch1
100
AcDbCircle
 10
-15.57929687499999
 20
-2.587499999999995
 30
0.0
 40
0.0499999999999936
100
AcDbArc
 50
359.9999999999949
 51
89.99999999999593
  0
LINE
  5
CF
330
70
100
AcDbEntity
  8
goonsite v2_Sketch1
100
AcDbLine
 10
-5.359374966499999
 20
-5.792499999999999
 30
0.0
 11
-5.359374966499999
 21
-4.492499999999998
 31
0.0
  0
ARC
  5
D0
330
70
100
AcDbEntity
  8
goonsite v2_Sketch1
100
AcDbCircle
 10
-16.08531250000001
 20
-7.69749999999999
 30
0.0
 40
0.0500000000000087
100
AcDbArc
 50
270.0000000000122
 51
359.9999999999898
  0
ARC
  5
D1
330
70
100
AcDbEntity
  8
goonsite v2_Sketch1
100
AcDbCircle
 10
-17.8218747665
 20
-4.492499999999997
 30
0.0
 40
0.0499999999999972
100
AcDbArc
 50
89.99999999999593
 51
180.000000000002
  0
LINE
  5
D2
330
70
100
AcDbEntity
  8
goonsite v2_Sketch1
100
AcDbLine
 10
-0.726249999999999
 20
-6.3475
 30
0.0
 11
-2.026249999999999
 21
-6.3475
 31
0.0
  0
LINE
  5
D3
330
70
100
AcDbEntity
  8
goonsite v2_Sketch1
100
AcDbLine
 10
-16.929296875
 20
-2.587499999999999
 30
0.0
 11
-16.929296875
 21
-3.887499999999999
 31
0.0
  0
LINE
  5
D4
330
70
100
AcDbEntity
  8
goonsite v2_Sketch1
100
AcDbLine
 10
-6.741875000000001
 20
-2.102500000000001
 30
0.0
 11
-6.741875000000001
 21
-0.8025000000000011
 31
0.0
  0
ARC
  5
D5
330
70
100
AcDbEntity
  8
goonsite v2_Sketch1
100
AcDbCircle
 10
-1.549999999999998
 20
-1.982499999999999
 30
0.0
 40
0.0500000000000007
100
AcDbArc
 50
180.000000000001
 51
269.9999999999995
  0
ARC
  5
D6
330
70
100
AcDbEntity
  8
goonsite v2_Sketch1
100
AcDbCircle
 10
-1.549999999999998
 20
-0.6824999999999966
 30
0.0
 40
0.0499999999999998
100
AcDbArc
 50
90.0
 51
180.0
  0
ARC
  5
D7
330
70
100
AcDbEntity
  8
goonsite v2_Sketch1
100
AcDbCircle
 10
-0.2499999999999976
 20
-1.9825
 30
0.0
 40
0.0499999999999989
100
AcDbArc
 50
269.9999999999995
 51
0.0
  0
LINE
  5
D8
330
70
100
AcDbEntity
  8
goonsite v2_Sketch1
100
AcDbLine
 10
-12.791875
 20
-0.6824999999999966
 30
0.0
 11
-12.791875
 21
-1.982499999999999
 31
0.0
  0
ARC
  5
D9
330
70
100
AcDbEntity
  8
goonsite v2_Sketch1
100
AcDbCircle
 10
-4.941062499999999
 20
-6.397499999999999
 30
0.0
 40
0.0499999999999998
100
AcDbArc
 50
0.0
 51
90.0
  0
LINE
  5
DA
330
70
100
AcDbEntity
  8
goonsite v2_Sketch1
100
AcDbLine
 10
-3.590625
 20
-4.0575
 30
0.0
 11
-2.990625000000002
 21
-4.0575
 31
0.0
  0
ARC
  5
DB
330
70
100
AcDbEntity
  8
goonsite v2_Sketch1
100
AcDbCircle
 10
-4.857291666500002
 20
-4.492499999999996
 30
0.0
 40
0.0499999999999963
100
AcDbArc
 50
89.99999999999593
 51
180.000000000003
  0
ARC
  5
DC
330
70
100
AcDbEntity
  8
goonsite v2_Sketch1
100
AcDbCircle
 10
-6.241062500000002
 20
-6.397499999999997
 30
0.0
 40
0.0499999999999981
100
AcDbArc
 50
89.99999999999797
 51
180.000000000003
  0
ARC
  5
DD
330
70
100
AcDbEntity
  8
goonsite v2_Sketch1
100
AcDbCircle
 10
-18.58562500000001
 20
-1.982499999999993
 30
0.0
 40
0.0500000000000061
100
AcDbArc
 50
270.0000000000081
 51
359.9999999999929
  0
ARC
  5
DE
330
70
100
AcDbEntity
  8
goonsite v2_Sketch1
100
AcDbCircle
 10
-3.454999999999999
 20
-1.982499999999999
 30
0.0
 40
0.0499999999999989
100
AcDbArc
 50
180.0
 51
270.0
  0
ARC
  5
DF
330
70
100
AcDbEntity
  8
goonsite v2_Sketch1
100
AcDbCircle
 10
-2.740624999999999
 20
-2.587499999999999
 30
0.0
 40
0.0499999999999998
100
AcDbArc
 50
89.99999999999948
 51
180.0
  0
LINE
  5
E0
330
70
100
AcDbEntity
  8
goonsite v2_Sketch1
100
AcDbLine
 10
-22.63375
 20
-2.0325
 30
0.0
 11
-23.93375
 21
-2.032499999999999
 31
0.0
  0
ARC
  5
E1
330
70
100
AcDbEntity
  8
goonsite v2_Sketch1
100
AcDbCircle
 10
-14.1177081665
 20
-4.492499999999997
 30
0.0
 40
0.0499999999999972
100
AcDbArc
 50
89.99999999999593
 51
180.000000000002
  0
ARC
  5
E2
330
70
100
AcDbEntity
  8
goonsite v2_Sketch1
100
AcDbCircle
 10
-4.506484374999997
 20
-2.587499999999998
 30
0.0
 40
0.0499999999999989
100
AcDbArc
 50
359.999999999999
 51
90.00000000000103
  0
ARC
  5
E3
330
70
100
AcDbEntity
  8
goonsite v2_Sketch1
100
AcDbCircle
 10
-12.8177081665
 20
-4.4925
 30
0.0
 40
0.0500000000000007
100
AcDbArc
 50
0.0000000000020356
 51
90.0
  0
ARC
  5
E4
330
70
100
AcDbEntity
  8
goonsite v2_Sketch1
100
AcDbCircle
 10
-15.033828125
 20
-2.587499999999999
 30
0.0
 40
0.0499999999999998
100
AcDbArc
 50
89.99999999999593
 51
180.0
  0
LINE
  5
E5
330
70
100
AcDbEntity
  8
goonsite v2_Sketch1
100
AcDbLine
 10
-23.219375
 20
-3.9375
 30
0.0
 11
-23.166875
 21
-3.9375
 31
0.0
  0
ARC
  5
E6
330
70
100
AcDbEntity
  8
goonsite v2_Sketch1
100
AcDbCircle
 10
-12.741875
 20
-0.6824999999999966
 30
0.0
 40
0.0499999999999998
100
AcDbArc
 50
89.99999999999593
 51
180.0
  0
ARC
  5
E7
330
70
100
AcDbEntity
  8
goonsite v2_Sketch1
100
AcDbCircle
 10
-7.391875000000001
 20
-2.102499999999998
 30
0.0
 40
0.0500000000000007
100
AcDbArc
 50
180.000000000004
 51
270.0
  0
LINE
  5
E8
330
70
100
AcDbEntity
  8
goonsite v2_Sketch1
100
AcDbLine
 10
-6.759374966500002
 20
-4.492499999999998
 30
0.0
 11
-6.759374966500002
 21
-5.792500000000001
 31
0.0
  0
ARC
  5
E9
330
70
100
AcDbEntity
  8
goonsite v2_Sketch1
100
AcDbCircle
 10
-8.098437499999999
 20
-6.397499999999999
 30
0.0
 40
0.0500000000000007
100
AcDbArc
 50
90.0
 51
180.0
  0
ARC
  5
EA
330
70
100
AcDbEntity
  8
goonsite v2_Sketch1
100
AcDbCircle
 10
-17.39187500000001
 20
-0.8024999999999833
 30
0.0
 40
0.0499999999999901
100
AcDbArc
 50
89.99999999998779
 51
180.0000000000122
  0
ARC
  5
EB
330
70
100
AcDbEntity
  8
goonsite v2_Sketch1
100
AcDbCircle
 10
-8.197421874999992
 20
-2.587499999999995
 30
0.0
 40
0.0499999999999936
100
AcDbArc
 50
359.9999999999949
 51
90.00000000000406
  0
LINE
  5
EC
330
70
100
AcDbEntity
  8
goonsite v2_Sketch1
100
AcDbLine
 10
-16.5218747665
 20
-4.442499999999998
 30
0.0
 11
-17.8218747665
 21
-4.442499999999999
 31
0.0
  0
ARC
  5
ED
330
70
100
AcDbEntity
  8
goonsite v2_Sketch1
100
AcDbCircle
 10
-16.879296875
 20
-2.587499999999993
 30
0.0
 40
0.0499999999999936
100
AcDbArc
 50
89.99999999999186
 51
180.0000000000071
  0
LINE
  5
EE
330
70
100
AcDbEntity
  8
goonsite v2_Sketch1
100
AcDbLine
 10
-9.992890625000001
 20
-3.887499999999999
 30
0.0
 11
-9.992890625000001
 21
-2.587499999999999
 31
0.0
  0
ARC
  5
EF
330
70
100
AcDbEntity
  8
goonsite v2_Sketch1
100
AcDbCircle
 10
-2.264374999999998
 20
-5.792499999999998
 30
0.0
 40
0.0500000000000003
100
AcDbArc
 50
180.000000000001
 51
270.0
  0
LINE
  5
F0
330
70
100
AcDbEntity
  8
goonsite v2_Sketch1
100
AcDbLine
 10
-8.147421874999999
 20
-3.887499999999999
 30
0.0
 11
-8.147421874999999
 21
-2.587499999999999
 31
0.0
  0
LINE
  5
F1
330
70
100
AcDbEntity
  8
goonsite v2_Sketch1
100
AcDbLine
 10
-5.648125
 20
-0.6824999999999966
 30
0.0
 11
-5.648125
 21
-1.982499999999999
 31
0.0
  0
ARC
  5
F2
330
70
100
AcDbEntity
  8
goonsite v2_Sketch1
100
AcDbCircle
 10
-20.116875
 20
-4.007500000000001
 30
0.0
 40
0.0499999999999989
100
AcDbArc
 50
270.0000000000041
 51
0.0000000000010178
  0
ARC
  5
F3
330
70
100
AcDbEntity
  8
goonsite v2_Sketch1
100
AcDbCircle
 10
-4.383687499999999
 20
-6.397499999999999
 30
0.0
 40
0.0500000000000007
100
AcDbArc
 50
90.00000000000103
 51
180.0
  0
LINE
  5
F4
330
70
100
AcDbEntity
  8
goonsite v2_Sketch1
100
AcDbLine
 10
-1.599999999999998
 20
-0.6824999999999966
 30
0.0
 11
-1.599999999999998
 21
-1.982499999999999
 31
0.0
  0
LINE
  5
F5
330
70
100
AcDbEntity
  8
goonsite v2_Sketch1
100
AcDbLine
 10
-1.866874999999998
 20
-1.982499999999999
 30
0.0
 11
-1.866874999999998
 21
-0.6824999999999966
 31
0.0
  0
ARC
  5
F6
330
70
100
AcDbEntity
  8
goonsite v2_Sketch1
100
AcDbCircle
 10
-5.409374966500001
 20
-5.792499999999997
 30
0.0
 40
0.0500000000000025
100
AcDbArc
 50
270.0000000000021
 51
359.999999999998
  0
LINE
  5
F7
330
70
100
AcDbEntity
  8
goonsite v2_Sketch1
100
AcDbLine
 10
-1.190624999999999
 20
-4.0575
 30
0.0
 11
-0.5906250000000018
 21
-4.0575
 31
0.0
  0
ARC
  5
F8
330
70
100
AcDbEntity
  8
goonsite v2_Sketch1
100
AcDbCircle
 10
-18.3739580665
 20
-5.792500000000002
 30
0.0
 40
0.0499999999999981
100
AcDbArc
 50
269.9999999999959
 51
0.0000000000030533
  0
ARC
  5
F9
330
70
100
AcDbEntity
  8
goonsite v2_Sketch1
100
AcDbCircle
 10
-8.098437500000002
 20
-7.697499999999999
 30
0.0
 40
0.0499999999999972
100
AcDbArc
 50
180.0
 51
270.0000000000041
  0
ARC
  5
FA
330
70
100
AcDbEntity
  8
goonsite v2_Sketch1
100
AcDbCircle
 10
-12.8177081665
 20
-5.792500000000003
 30
0.0
 40
0.0499999999999972
100
AcDbArc
 50
269.9999999999959
 51
0.0000000000040711
  0
LINE
  5
FB
330
70
100
AcDbEntity
  8
goonsite v2_Sketch1
100
AcDbLine
 10
-3.507291666499998
 20
-5.792499999999999
 30
0.0
 11
-3.507291666499998
 21
-4.492499999999998
 31
0.0
  0
LINE
  5
FC
330
70
100
AcDbEntity
  8
goonsite v2_Sketch1
100
AcDbLine
 10
-4.857291666499999
 20
-5.8425
 30
0.0
 11
-3.557291666499999
 21
-5.8425
 31
0.0
  0
ARC
  5
FD
330
70
100
AcDbEntity
  8
goonsite v2_Sketch1
100
AcDbCircle
 10
-3.5572916665
 20
-5.792499999999997
 30
0.0
 40
0.0500000000000025
100
AcDbArc
 50
270.000000000001
 51
359.999999999998
  0
LINE
  5
FE
330
70
100
AcDbEntity
  8
goonsite v2_Sketch1
100
AcDbLine
 10
-22.316875
 20
-0.6824999999999966
 30
0.0
 11
-22.316875
 21
-1.982499999999999
 31
0.0
  0
ARC
  5
FF
330
70
100
AcDbEntity
  8
goonsite v2_Sketch1
100
AcDbCircle
 10
-13.6705625
 20
-7.697499999999998
 30
0.0
 40
0.0500000000000007
100
AcDbArc
 50
180.000000000001
 51
270.0000000000041
  0
ARC
  5
100
330
70
100
AcDbEntity
  8
goonsite v2_Sketch1
100
AcDbCircle
 10
-4.3836875
 20
-7.697499999999999
 30
0.0
 40
0.0499999999999998
100
AcDbArc
 50
180.0
 51
270.0
  0
ARC
  5
101
330
70
100
AcDbEntity
  8
goonsite v2_Sketch1
100
AcDbCircle
 10
-11.441875
 20
-1.982499999999997
 30
0.0
 40
0.0500000000000025
100
AcDbArc
 50
270.0
 51
359.9999999999969
  0
LINE
  5
102
330
70
100
AcDbEntity
  8
goonsite v2_Sketch1
100
AcDbLine
 10
-17.424765625
 20
-2.5375
 30
0.0
 11
-18.724765625
 21
-2.537499999999999
 31
0.0
  0
ARC
  5
103
330
70
100
AcDbEntity
  8
goonsite v2_Sketch1
100
AcDbCircle
 10
-6.351953124999996
 20
-3.8875
 30
0.0
 40
0.0499999999999998
100
AcDbArc
 50
270.0
 51
0.0000000000010178
  0
LINE
  5
104
330
70
100
AcDbEntity
  8
goonsite v2_Sketch1
100
AcDbLine
 10
-17.441875
 20
-0.8024999999999939
 30
0.0
 11
-17.441875
 21
-2.102499999999994
 31
0.0
  0
ARC
  5
105
330
70
100
AcDbEntity
  8
goonsite v2_Sketch1
100
AcDbCircle
 10
23.93375
 20
-0.6824999999999993
 30
0.0
 40
0.0500000000000043
210
0.0
220
0.0
230
-1.0
100
AcDbArc
 50
0.0000000000030533
 51
90.00000000000406
  0
LINE
  5
106
330
70
100
AcDbEntity
  8
goonsite v2_Sketch1
100
AcDbLine
 10
-15.5279375
 20
-7.747499999999999
 30
0.0
 11
-14.2279375
 21
-7.747499999999999
 31
0.0
  0
LINE
  5
107
330
70
100
AcDbEntity
  8
goonsite v2_Sketch1
100
AcDbLine
 10
-2.264374999999998
 20
-5.842499999999998
 30
0.0
 11
-0.9643749999999988
 21
-5.842499999999998
 31
0.0
  0
ARC
  5
108
330
70
100
AcDbEntity
  8
goonsite v2_Sketch1
100
AcDbCircle
 10
-17.94268749999999
 20
-6.397499999999998
 30
0.0
 40
0.0499999999999972
100
AcDbArc
 50
359.999999999998
 51
90.00000000000406
  0
LINE
  5
109
330
70
100
AcDbEntity
  8
goonsite v2_Sketch1
100
AcDbLine
 10
-18.535625
 20
-1.982499999999999
 30
0.0
 11
-18.535625
 21
-0.6824999999999966
 31
0.0
  0
LINE
  5
10A
330
70
100
AcDbEntity
  8
goonsite v2_Sketch1
100
AcDbLine
 10
-0.249999999999998
 20
-0.6324999999999977
 30
0.0
 11
-1.549999999999998
 21
-0.6324999999999968
 31
0.0
  0
ARC
  5
10B
330
70
100
AcDbEntity
  8
goonsite v2_Sketch1
100
AcDbCircle
 10
-18.72476562500001
 20
-2.587499999999993
 30
0.0
 40
0.0499999999999936
100
AcDbArc
 50
89.99999999999186
 51
180.0000000000071
  0
ARC
  5
10C
330
70
100
AcDbEntity
  8
goonsite v2_Sketch1
100
AcDbCircle
 10
-10.4135415665
 20
-5.792500000000001
 30
0.0
 40
0.0499999999999972
100
AcDbArc
 50
180.0
 51
270.0
  0
ARC
  5
10D
330
70
100
AcDbEntity
  8
goonsite v2_Sketch1
100
AcDbCircle
 10
-22.516875
 20
-4.007500000000002
 30
0.0
 40
0.0499999999999989
100
AcDbArc
 50
269.9999999999878
 51
0.0000000000020356
  0
LINE
  5
10E
330
70
100
AcDbEntity
  8
goonsite v2_Sketch1
100
AcDbLine
 10
-16.741875
 20
-2.102499999999994
 30
0.0
 11
-16.741875
 21
-0.8024999999999939
 31
0.0
  0
ARC
  5
10F
330
70
100
AcDbEntity
  8
goonsite v2_Sketch1
100
AcDbCircle
 10
-15.033828125
 20
-3.887499999999998
 30
0.0
 40
0.0500000000000007
100
AcDbArc
 50
180.000000000001
 51
270.0000000000041
  0
ARC
  5
110
330
70
100
AcDbEntity
  8
goonsite v2_Sketch1
100
AcDbCircle
 10
-8.655812500000003
 20
-7.697499999999996
 30
0.0
 40
0.0500000000000034
100
AcDbArc
 50
270.0000000000041
 51
359.9999999999959
  0
ARC
  5
111
330
70
100
AcDbEntity
  8
goonsite v2_Sketch1
100
AcDbCircle
 10
-17.424765625
 20
-2.587499999999999
 30
0.0
 40
0.0500000000000007
100
AcDbArc
 50
0.0
 51
89.99999999999593
  0
ARC
  5
112
330
70
100
AcDbEntity
  8
goonsite v2_Sketch1
100
AcDbCircle
 10
-1.190624999999998
 20
-2.707499999999999
 30
0.0
 40
0.0500000000000016
100
AcDbArc
 50
90.00000000000152
 51
179.999999999999
  0
LINE
  5
113
330
70
100
AcDbEntity
  8
goonsite v2_Sketch1
100
AcDbLine
 10
-2.790624999999999
 20
-2.587499999999999
 30
0.0
 11
-2.790624999999999
 21
-3.887499999999999
 31
0.0
  0
LINE
  5
114
330
70
100
AcDbEntity
  8
goonsite v2_Sketch1
100
AcDbLine
 10
-18.3239580665
 20
-5.792499999999999
 30
0.0
 11
-18.3239580665
 21
-4.492499999999998
 31
0.0
  0
ARC
  5
115
330
70
100
AcDbEntity
  8
goonsite v2_Sketch1
100
AcDbCircle
 10
-15.57929687499999
 20
-3.887500000000014
 30
0.0
 40
0.0499999999999856
100
AcDbArc
 50
269.9999999999959
 51
0.0000000000173022
  0
ARC
  5
116
330
70
100
AcDbEntity
  8
goonsite v2_Sketch1
100
AcDbCircle
 10
-16.791875
 20
-0.8024999999999904
 30
0.0
 40
0.0499999999999972
100
AcDbArc
 50
359.9999999999959
 51
90.00000000000813
  0
ARC
  5
117
330
70
100
AcDbEntity
  8
goonsite v2_Sketch1
100
AcDbCircle
 10
-18.3739580665
 20
-4.492499999999995
 30
0.0
 40
0.0499999999999972
100
AcDbArc
 50
359.9999999999959
 51
90.00000000000406
  0
ARC
  5
118
330
70
100
AcDbEntity
  8
goonsite v2_Sketch1
100
AcDbCircle
 10
-7.391874999999997
 20
-0.8025000000000055
 30
0.0
 40
0.0500000000000043
100
AcDbArc
 50
90.00000000000406
 51
179.9999999999949
  0
ARC
  5
119
330
70
100
AcDbEntity
  8
goonsite v2_Sketch1
100
AcDbCircle
 10
-12.2656248665
 20
-5.792500000000001
 30
0.0
 40
0.0499999999999972
100
AcDbArc
 50
180.0
 51
270.0
  0
ARC
  5
11A
330
70
100
AcDbEntity
  8
goonsite v2_Sketch1
100
AcDbCircle
 10
-6.791874999999999
 20
-2.1025
 30
0.0
 40
0.0499999999999981
100
AcDbArc
 50
269.9999999999939
 51
359.999999999999
  0
ARC
  5
11B
330
70
100
AcDbEntity
  8
goonsite v2_Sketch1
100
AcDbCircle
 10
-13.188359375
 20
-3.887500000000001
 30
0.0
 40
0.0499999999999972
100
AcDbArc
 50
179.9999999999979
 51
270.0000000000041
  0
LINE
  5
11C
330
70
100
AcDbEntity
  8
goonsite v2_Sketch1
100
AcDbLine
 10
-15.083828125
 20
-2.587499999999999
 30
0.0
 11
-15.083828125
 21
-3.887499999999999
 31
0.0
  0
LINE
  5
11D
330
70
100
AcDbEntity
  8
goonsite v2_Sketch1
100
AcDbLine
 10
-17.391875
 20
-2.152499999999992
 30
0.0
 11
-16.79187500000001
 21
-2.152499999999992
 31
0.0
  0
ARC
  5
11E
330
70
100
AcDbEntity
  8
goonsite v2_Sketch1
100
AcDbCircle
 10
-5.598125000000001
 20
-0.6824999999999957
 30
0.0
 40
0.0499999999999989
100
AcDbArc
 50
89.99999999999898
 51
180.000000000001
  0
LINE
  5
11F
330
70
100
AcDbEntity
  8
goonsite v2_Sketch1
100
AcDbLine
 10
-16.4718747665
 20
-5.792499999999999
 30
0.0
 11
-16.4718747665
 21
-4.492499999999998
 31
0.0
  0
LINE
  5
120
330
70
100
AcDbEntity
  8
goonsite v2_Sketch1
100
AcDbLine
 10
-0.1999999999999986
 20
-1.9825
 30
0.0
 11
-0.1999999999999982
 21
-0.6824999999999966
 31
0.0
  0
LINE
  5
121
330
70
100
AcDbEntity
  8
goonsite v2_Sketch1
100
AcDbLine
 10
-2.740624999999998
 20
-3.9375
 30
0.0
 11
-1.440624999999998
 21
-3.9375
 31
0.0
  0
ARC
  5
122
330
70
100
AcDbEntity
  8
goonsite v2_Sketch1
100
AcDbCircle
 10
-1.916874999999997
 20
-1.9825
 30
0.0
 40
0.0499999999999989
100
AcDbArc
 50
269.9999999999995
 51
0.0000000000010178
  0
LINE
  5
123
330
70
100
AcDbEntity
  8
goonsite v2_Sketch1
100
AcDbLine
 10
-15.033828125
 20
-3.9375
 30
0.0
 11
-13.733828125
 21
-3.9375
 31
0.0
  0
ARC
  5
124
330
70
100
AcDbEntity
  8
goonsite v2_Sketch1
100
AcDbCircle
 10
-17.391875
 20
-2.102499999999995
 30
0.0
 40
0.0499999999999972
100
AcDbArc
 50
179.999999999999
 51
270.0000000000041
  0
LINE
  5
125
330
70
100
AcDbEntity
  8
goonsite v2_Sketch1
100
AcDbLine
 10
-17.374765625
 20
-3.887499999999999
 30
0.0
 11
-17.374765625
 21
-2.587499999999999
 31
0.0
  0
LINE
  5
126
330
70
100
AcDbEntity
  8
goonsite v2_Sketch1
100
AcDbLine
 10
-19.8000625
 20
-6.3475
 30
0.0
 11
-21.1000625
 21
-6.347499999999999
 31
0.0
  0
ARC
  5
127
330
70
100
AcDbEntity
  8
goonsite v2_Sketch1
100
AcDbCircle
 10
-11.342890625
 20
-3.8875
 30
0.0
 40
0.0500000000000007
100
AcDbArc
 50
179.999999999999
 51
269.9999999999959
  0
LINE
  5
128
330
70
100
AcDbEntity
  8
goonsite v2_Sketch1
100
AcDbLine
 10
-20.620234375
 20
-2.587499999999997
 30
0.0
 11
-20.620234375
 21
-2.662499999999996
 31
0.0
  0
LINE
  5
129
330
70
100
AcDbEntity
  8
goonsite v2_Sketch1
100
AcDbLine
 10
-11.391875
 20
-1.982499999999999
 30
0.0
 11
-11.391875
 21
-0.6824999999999966
 31
0.0
  0
ARC
  5
12A
330
70
100
AcDbEntity
  8
goonsite v2_Sketch1
100
AcDbCircle
 10
-22.26687499999999
 20
-0.6825000000000046
 30
0.0
 40
0.0500000000000078
100
AcDbArc
 50
90.00000000000813
 51
179.9999999999908
  0
ARC
  5
12B
330
70
100
AcDbEntity
  8
goonsite v2_Sketch1
100
AcDbCircle
 10
-2.264374999999998
 20
-4.492499999999999
 30
0.0
 40
0.0499999999999998
100
AcDbArc
 50
90.0
 51
179.999999999999
  0
LINE
  5
12C
330
70
100
AcDbEntity
  8
goonsite v2_Sketch1
100
AcDbLine
 10
-0.9643749999999988
 20
-4.442499999999998
 30
0.0
 11
-2.264374999999998
 21
-4.442499999999999
 31
0.0
  0
LINE
  5
12D
330
70
100
AcDbEntity
  8
goonsite v2_Sketch1
100
AcDbLine
 10
-1.240625
 20
-2.707499999999998
 30
0.0
 11
-1.240625
 21
-4.0075
 31
0.0
  0
ARC
  5
12E
330
70
100
AcDbEntity
  8
goonsite v2_Sketch1
100
AcDbCircle
 10
-16.879296875
 20
-3.887500000000003
 30
0.0
 40
0.0499999999999936
100
AcDbArc
 50
179.9999999999949
 51
270.0000000000081
  0
ARC
  5
12F
330
70
100
AcDbEntity
  8
goonsite v2_Sketch1
100
AcDbCircle
 10
-2.02625
 20
-6.397499999999998
 30
0.0
 40
0.0499999999999981
100
AcDbArc
 50
89.99999999999898
 51
180.000000000002
  0
ARC
  5
130
330
70
100
AcDbEntity
  8
goonsite v2_Sketch1
100
AcDbCircle
 10
-0.9643749999999988
 20
-5.792499999999998
 30
0.0
 40
0.0499999999999998
100
AcDbArc
 50
270.0
 51
359.999999999999
  0
ARC
  5
131
330
70
100
AcDbEntity
  8
goonsite v2_Sketch1
100
AcDbCircle
 10
-15.9697914665
 20
-4.492499999999997
 30
0.0
 40
0.0499999999999972
100
AcDbArc
 50
89.99999999999593
 51
180.000000000002
  0
ARC
  5
132
330
70
100
AcDbEntity
  8
goonsite v2_Sketch1
100
AcDbCircle
 10
-17.42476562499999
 20
-3.887500000000009
 30
0.0
 40
0.049999999999991
100
AcDbArc
 50
269.9999999999919
 51
0.0000000000111956
  0
ARC
  5
133
330
70
100
AcDbEntity
  8
goonsite v2_Sketch1
100
AcDbCircle
 10
-16.5218747665
 20
-4.492499999999995
 30
0.0
 40
0.0499999999999972
100
AcDbArc
 50
359.9999999999959
 51
90.00000000000406
  0
ARC
  5
134
330
70
100
AcDbEntity
  8
goonsite v2_Sketch1
100
AcDbCircle
 10
-6.351953124999996
 20
-2.587499999999998
 30
0.0
 40
0.0499999999999989
100
AcDbArc
 50
359.999999999999
 51
90.00000000000103
  0
ARC
  5
135
330
70
100
AcDbEntity
  8
goonsite v2_Sketch1
100
AcDbCircle
 10
-1.440625
 20
-3.887499999999998
 30
0.0
 40
0.0500000000000016
100
AcDbArc
 50
270.0000000000015
 51
359.999999999998
  0
ARC
  5
136
330
70
100
AcDbEntity
  8
goonsite v2_Sketch1
100
AcDbCircle
 10
-2.026249999999999
 20
-7.697499999999999
 30
0.0
 40
0.0499999999999998
100
AcDbArc
 50
180.0
 51
270.0
  0
LINE
  5
137
330
70
100
AcDbEntity
  8
goonsite v2_Sketch1
100
AcDbLine
 10
-18.774765625
 20
-2.587499999999999
 30
0.0
 11
-18.774765625
 21
-3.887499999999999
 31
0.0
  0
ARC
  5
138
330
70
100
AcDbEntity
  8
goonsite v2_Sketch1
100
AcDbCircle
 10
-0.2499999999999976
 20
-0.6824999999999966
 30
0.0
 40
0.0499999999999994
100
AcDbArc
 50
0.0
 51
90.00000000000049
  0
LINE
  5
139
330
70
100
AcDbEntity
  8
goonsite v2_Sketch1
100
AcDbLine
 10
-16.79187500000001
 20
-0.7524999999999933
 30
0.0
 11
-17.391875
 21
-0.7524999999999933
 31
0.0
  0
LINE
  5
13A
330
70
100
AcDbEntity
  8
goonsite v2_Sketch1
100
AcDbLine
 10
-13.683828125
 20
-3.887499999999999
 30
0.0
 11
-13.683828125
 21
-2.587499999999999
 31
0.0
  0
LINE
  5
13B
330
70
100
AcDbEntity
  8
goonsite v2_Sketch1
100
AcDbLine
 10
-10.9656248665
 20
-4.442499999999999
 30
0.0
 11
-12.2656248665
 21
-4.442499999999999
 31
0.0
  0
LINE
  5
13C
330
70
100
AcDbEntity
  8
goonsite v2_Sketch1
100
AcDbLine
 10
-23.93375
 20
-0.632499999999995
 30
0.0
 11
-22.63375
 21
-0.6325000000000012
 31
0.0
  0
ARC
  5
13D
330
70
100
AcDbEntity
  8
goonsite v2_Sketch1
100
AcDbCircle
 10
-1.440624999999997
 20
-2.587499999999999
 30
0.0
 40
0.0499999999999989
100
AcDbArc
 50
0.0
 51
90.00000000000152
  0
LINE
  5
13E
330
70
100
AcDbEntity
  8
goonsite v2_Sketch1
100
AcDbLine
 10
-12.741875
 20
-2.032499999999997
 30
0.0
 11
-11.441875
 21
-2.032499999999999
 31
0.0
  0
ARC
  5
13F
330
70
100
AcDbEntity
  8
goonsite v2_Sketch1
100
AcDbCircle
 10
-22.993125
 20
-5.912500000000005
 30
0.0
 40
0.0499999999999936
100
AcDbArc
 50
269.9999999999919
 51
0.0000000000071244
  0
LINE
  5
140
330
70
100
AcDbEntity
  8
goonsite v2_Sketch1
100
AcDbLine
 10
-20.620234375
 20
-2.662499999999996
 30
0.0
 11
-20.716875
 21
-2.662499999999996
 31
0.0
  0
LINE
  5
141
330
70
100
AcDbEntity
  8
goonsite v2_Sketch1
100
AcDbLine
 10
-12.3156248665
 20
-4.492499999999998
 30
0.0
 11
-12.3156248665
 21
-5.792500000000001
 31
0.0
  0
LINE
  5
142
330
70
100
AcDbEntity
  8
goonsite v2_Sketch1
100
AcDbLine
 10
-1.549999999999998
 20
-2.032499999999999
 30
0.0
 11
-0.249999999999998
 21
-2.032499999999999
 31
0.0
  0
ARC
  5
143
330
70
100
AcDbEntity
  8
goonsite v2_Sketch1
100
AcDbCircle
 10
-18.58562499999999
 20
-0.6824999999999922
 30
0.0
 40
0.0499999999999936
100
AcDbArc
 50
359.9999999999949
 51
90.00000000000813
  0
LINE
  5
144
330
70
100
AcDbEntity
  8
goonsite v2_Sketch1
100
AcDbLine
 10
-0.5906250000000018
 20
-2.657499999999999
 30
0.0
 11
-1.190624999999999
 21
-2.657499999999997
 31
0.0
  0
ARC
  5
145
330
70
100
AcDbEntity
  8
goonsite v2_Sketch1
100
AcDbCircle
 10
-7.651953124999999
 20
-2.587499999999997
 30
0.0
 40
0.0499999999999981
100
AcDbArc
 50
90.0
 51
180.000000000002
  0
ARC
  5
146
330
70
100
AcDbEntity
  8
goonsite v2_Sketch1
100
AcDbCircle
 10
-11.88835937499999
 20
-3.887500000000001
 30
0.0
 40
0.0499999999999989
100
AcDbArc
 50
269.9999999999959
 51
0.0000000000020356
  0
LINE
  5
147
330
70
100
AcDbEntity
  8
goonsite v2_Sketch1
100
AcDbLine
 10
-22.1075
 20
-7.697499999999999
 30
0.0
 11
-22.1075
 21
-6.397499999999999
 31
0.0
  0
ARC
  5
148
330
70
100
AcDbEntity
  8
goonsite v2_Sketch1
100
AcDbCircle
 10
-8.197421874999996
 20
-3.887500000000001
 30
0.0
 40
0.0499999999999989
100
AcDbArc
 50
270.0
 51
0.0000000000020356
  0
ARC
  5
149
330
70
100
AcDbEntity
  8
goonsite v2_Sketch1
100
AcDbCircle
 10
-22.743125
 20
-5.792500000000001
 30
0.0
 40
0.0499999999999972
100
AcDbArc
 50
179.9999999999979
 51
270.0000000000041
  0
LINE
  5
14A
330
70
100
AcDbEntity
  8
goonsite v2_Sketch1
100
AcDbLine
 10
-11.441875
 20
-0.6325000000000012
 30
0.0
 11
-12.741875
 21
-0.6324999999999968
 31
0.0
  0
LINE
  5
14B
330
70
100
AcDbEntity
  8
goonsite v2_Sketch1
100
AcDbLine
 10
-10.4635415665
 20
-4.492499999999998
 30
0.0
 11
-10.4635415665
 21
-5.792500000000001
 31
0.0
  0
LINE
  5
14C
330
70
100
AcDbEntity
  8
goonsite v2_Sketch1
100
AcDbLine
 10
-3.640625
 20
-2.707499999999998
 30
0.0
 11
-3.640625
 21
-4.0075
 31
0.0
  0
LINE
  5
14D
330
70
100
AcDbEntity
  8
goonsite v2_Sketch1
100
AcDbLine
 10
-20.066875
 20
-3.937499999999997
 30
0.0
 11
-19.270234375
 21
-3.937499999999997
 31
0.0
  0
LINE
  5
14E
330
70
100
AcDbEntity
  8
goonsite v2_Sketch1
100
AcDbLine
 10
-19.2926875
 20
-6.397499999999999
 30
0.0
 11
-19.2926875
 21
-7.697499999999999
 31
0.0
  0
LINE
  5
14F
330
70
100
AcDbEntity
  8
goonsite v2_Sketch1
100
AcDbLine
 10
-1.440624999999998
 20
-2.5375
 30
0.0
 11
-2.740624999999998
 21
-2.537499999999999
 31
0.0
  0
ARC
  5
150
330
70
100
AcDbEntity
  8
goonsite v2_Sketch1
100
AcDbCircle
 10
-20.96687499999999
 20
-3.887500000000004
 30
0.0
 40
0.0499999999999954
100
AcDbArc
 50
269.9999999999959
 51
0.0000000000061067
  0
LINE
  5
151
330
70
100
AcDbEntity
  8
goonsite v2_Sketch1
100
AcDbLine
 10
-10.00581249999999
 20
-6.397499999999999
 30
0.0
 11
-10.00581249999999
 21
-7.697499999999999
 31
0.0
  0
LINE
  5
152
330
70
100
AcDbEntity
  8
goonsite v2_Sketch1
100
AcDbLine
 10
-1.390624999999998
 20
-3.8875
 30
0.0
 11
-1.390624999999998
 21
-2.587499999999999
 31
0.0
  0
LINE
  5
153
330
70
100
AcDbEntity
  8
goonsite v2_Sketch1
100
AcDbLine
 10
-15.529296875
 20
-3.887499999999999
 30
0.0
 11
-15.529296875
 21
-2.587499999999999
 31
0.0
  0
LINE
  5
154
330
70
100
AcDbEntity
  8
goonsite v2_Sketch1
100
AcDbLine
 10
-11.8631875
 20
-6.397499999999999
 30
0.0
 11
-11.8631875
 21
-7.697499999999999
 31
0.0
  0
LINE
  5
155
330
70
100
AcDbEntity
  8
goonsite v2_Sketch1
100
AcDbLine
 10
-21.1500625
 20
-6.397499999999999
 30
0.0
 11
-21.1500625
 21
-7.697499999999999
 31
0.0
  0
ARC
  5
156
330
70
100
AcDbEntity
  8
goonsite v2_Sketch1
100
AcDbCircle
 10
-20.593125
 20
-4.612499999999992
 30
0.0
 40
0.0499999999999936
100
AcDbArc
 50
359.9999999999939
 51
90.00000000000813
  0
LINE
  5
157
330
70
100
AcDbEntity
  8
goonsite v2_Sketch1
100
AcDbLine
 10
-21.1000625
 20
-7.7475
 30
0.0
 11
-19.8000625
 21
-7.747499999999999
 31
0.0
  0
ARC
  5
158
330
70
100
AcDbEntity
  8
goonsite v2_Sketch1
100
AcDbCircle
 10
-23.219375
 20
-2.587500000000005
 30
0.0
 40
0.0500000000000061
100
AcDbArc
 50
90.0
 51
179.9999999999928
  0
LINE
  5
159
330
70
100
AcDbEntity
  8
goonsite v2_Sketch1
100
AcDbLine
 10
-12.3705625
 20
-6.347500000000001
 30
0.0
 11
-13.6705625
 21
-6.347499999999999
 31
0.0
  0
LINE
  5
15A
330
70
100
AcDbEntity
  8
goonsite v2_Sketch1
100
AcDbLine
 10
-20.066875
 20
-4.0075
 30
0.0
 11
-20.066875
 21
-3.937499999999997
 31
0.0
  0
LINE
  5
15B
330
70
100
AcDbEntity
  8
goonsite v2_Sketch1
100
AcDbLine
 10
-3.083687499999999
 20
-6.3475
 30
0.0
 11
-4.3836875
 21
-6.347499999999999
 31
0.0
  0
ARC
  5
15C
330
70
100
AcDbEntity
  8
goonsite v2_Sketch1
100
AcDbCircle
 10
-20.570234375
 20
-2.587499999999994
 30
0.0
 40
0.0499999999999972
100
AcDbArc
 50
89.99999999999593
 51
180.000000000004
  0
ARC
  5
15D
330
70
100
AcDbEntity
  8
goonsite v2_Sketch1
100
AcDbCircle
 10
-15.9697914665
 20
-5.792500000000002
 30
0.0
 40
0.0499999999999972
100
AcDbArc
 50
179.999999999999
 51
269.9999999999959
  0
ARC
  5
15E
330
70
100
AcDbEntity
  8
goonsite v2_Sketch1
100
AcDbCircle
 10
-0.7262499999999999
 20
-7.697499999999998
 30
0.0
 40
0.0500000000000007
100
AcDbArc
 50
270.000000000001
 51
359.999999999999
  0
LINE
  5
15F
330
70
100
AcDbEntity
  8
goonsite v2_Sketch1
100
AcDbLine
 10
-8.098437499999999
 20
-7.747499999999999
 30
0.0
 11
-6.798437499999999
 21
-7.747499999999999
 31
0.0
  0
ARC
  5
160
330
70
100
AcDbEntity
  8
goonsite v2_Sketch1
100
AcDbCircle
 10
-20.72875000000001
 20
-1.982499999999996
 30
0.0
 40
0.0500000000000034
100
AcDbArc
 50
270.0000000000081
 51
359.9999999999959
  0
LINE
  5
161
330
70
100
AcDbEntity
  8
goonsite v2_Sketch1
100
AcDbLine
 10
-8.611458266500001
 20
-4.492499999999998
 30
0.0
 11
-8.611458266500001
 21
-5.792500000000001
 31
0.0
  0
ARC
  5
162
330
70
100
AcDbEntity
  8
goonsite v2_Sketch1
100
AcDbCircle
 10
-6.798437499999999
 20
-6.397499999999999
 30
0.0
 40
0.0499999999999998
100
AcDbArc
 50
0.0
 51
90.0
  0
ARC
  5
163
330
70
100
AcDbEntity
  8
goonsite v2_Sketch1
100
AcDbCircle
 10
-11.441875
 20
-0.6824999999999984
 30
0.0
 40
0.0499999999999972
100
AcDbArc
 50
0.0000000000020356
 51
90.00000000000406
  0
LINE
  5
164
330
70
100
AcDbEntity
  8
goonsite v2_Sketch1
100
AcDbLine
 10
-4.4336875
 20
-6.397499999999999
 30
0.0
 11
-4.4336875
 21
-7.697499999999999
 31
0.0
  0
ARC
  5
165
330
70
100
AcDbEntity
  8
goonsite v2_Sketch1
100
AcDbCircle
 10
-23.4575
 20
-6.397500000000005
 30
0.0
 40
0.0500000000000052
100
AcDbArc
 50
90.00000000000406
 51
179.9999999999939
  0
ARC
  5
166
330
70
100
AcDbEntity
  8
goonsite v2_Sketch1
100
AcDbCircle
 10
-19.6739580665
 20
-4.492499999999997
 30
0.0
 40
0.0499999999999972
100
AcDbArc
 50
89.99999999999593
 51
180.000000000002
  0
ARC
  5
167
330
70
100
AcDbEntity
  8
goonsite v2_Sketch1
100
AcDbCircle
 10
-20.72875
 20
-0.6824999999999948
 30
0.0
 40
0.0500000000000007
100
AcDbArc
 50
359.999999999998
 51
89.99999999999593
  0
LINE
  5
168
330
70
100
AcDbEntity
  8
goonsite v2_Sketch1
100
AcDbLine
 10
-10.9156248665
 20
-5.792499999999999
 30
0.0
 11
-10.9156248665
 21
-4.492499999999998
 31
0.0
  0
ARC
  5
169
330
70
100
AcDbEntity
  8
goonsite v2_Sketch1
100
AcDbCircle
 10
-1.190624999999999
 20
-4.007499999999999
 30
0.0
 40
0.0500000000000005
100
AcDbArc
 50
180.000000000001
 51
270.0
  0
ARC
  5
16A
330
70
100
AcDbEntity
  8
goonsite v2_Sketch1
100
AcDbCircle
 10
-0.7262499999999993
 20
-6.397499999999999
 30
0.0
 40
0.0500000000000003
100
AcDbArc
 50
0.0
 51
89.99999999999975
  0
ARC
  5
16B
330
70
100
AcDbEntity
  8
goonsite v2_Sketch1
100
AcDbCircle
 10
-22.993125
 20
-4.612499999999996
 30
0.0
 40
0.0499999999999972
100
AcDbArc
 50
359.9999999999969
 51
90.00000000000406
  0
LINE
  5
16C
330
70
100
AcDbEntity
  8
goonsite v2_Sketch1
100
AcDbLine
 10
-19.935625
 20
-0.6824999999999966
 30
0.0
 11
-19.935625
 21
-1.982499999999999
 31
0.0
  0
LINE
  5
16D
330
70
100
AcDbEntity
  8
goonsite v2_Sketch1
100
AcDbLine
 10
-14.1177081665
 20
-5.842499999999998
 30
0.0
 11
-12.8177081665
 21
-5.8425
 31
0.0
  0
LINE
  5
16E
330
70
100
AcDbEntity
  8
goonsite v2_Sketch1
100
AcDbLine
 10
-14.1677081665
 20
-4.492499999999998
 30
0.0
 11
-14.1677081665
 21
-5.792500000000001
 31
0.0
  0
LINE
  5
16F
330
70
100
AcDbEntity
  8
goonsite v2_Sketch1
100
AcDbLine
 10
-2.314374999999999
 20
-4.492499999999998
 30
0.0
 11
-2.314374999999999
 21
-5.792499999999999
 31
0.0
  0
LINE
  5
170
330
70
100
AcDbEntity
  8
goonsite v2_Sketch1
100
AcDbLine
 10
-22.993125
 20
-4.562499999999999
 30
0.0
 11
-23.593125
 21
-4.562499999999998
 31
0.0
  0
ARC
  5
171
330
70
100
AcDbEntity
  8
goonsite v2_Sketch1
100
AcDbCircle
 10
-19.88562499999999
 20
-0.6825000000000046
 30
0.0
 40
0.0500000000000078
100
AcDbArc
 50
90.00000000000813
 51
179.9999999999908
  0
ARC
  5
172
330
70
100
AcDbEntity
  8
goonsite v2_Sketch1
100
AcDbCircle
 10
-19.885625
 20
-1.982500000000003
 30
0.0
 40
0.0499999999999972
100
AcDbArc
 50
179.9999999999959
 51
270.0000000000041
  0
LINE
  5
173
330
70
100
AcDbEntity
  8
goonsite v2_Sketch1
100
AcDbLine
 10
-3.454999999999999
 20
-2.032499999999997
 30
0.0
 11
-1.916874999999998
 21
-2.032499999999999
 31
0.0
  0
LINE
  5
174
330
70
100
AcDbEntity
  8
goonsite v2_Sketch1
100
AcDbLine
 10
-22.943125
 20
-5.912499999999999
 30
0.0
 11
-22.943125
 21
-4.612499999999998
 31
0.0
  0
LINE
  5
175
330
70
100
AcDbEntity
  8
goonsite v2_Sketch1
100
AcDbLine
 10
-9.063541566499999
 20
-5.792499999999999
 30
0.0
 11
-9.063541566499999
 21
-4.492499999999998
 31
0.0
  0
LINE
  5
176
330
70
100
AcDbEntity
  8
goonsite v2_Sketch1
100
AcDbLine
 10
-21.193125
 20
-5.962499999999999
 30
0.0
 11
-20.59312500000001
 21
-5.962499999999998
 31
0.0
  0
ARC
  5
177
330
70
100
AcDbEntity
  8
goonsite v2_Sketch1
100
AcDbCircle
 10
23.93375
 20
-1.982500000000003
 30
0.0
 40
0.0499999999999963
210
0.0
220
0.0
230
-1.0
100
AcDbArc
 50
269.9999999999959
 51
0.0000000000040711
  0
LINE
  5
178
330
70
100
AcDbEntity
  8
goonsite v2_Sketch1
100
AcDbLine
 10
-20.54312500000001
 20
-5.912499999999998
 30
0.0
 11
-20.54312500000001
 21
-4.612499999999998
 31
0.0
  0
LINE
  5
179
330
70
100
AcDbEntity
  8
goonsite v2_Sketch1
100
AcDbLine
 10
-6.351953124999996
 20
-2.537499999999999
 30
0.0
 11
-7.651953124999999
 21
-2.537499999999999
 31
0.0
  0
LINE
  5
17A
330
70
100
AcDbEntity
  8
goonsite v2_Sketch1
100
AcDbLine
 10
-20.59312500000001
 20
-4.562499999999999
 30
0.0
 11
-21.193125
 21
-4.562499999999998
 31
0.0
  0
ARC
  5
17B
330
70
100
AcDbEntity
  8
goonsite v2_Sketch1
100
AcDbCircle
 10
-15.52793750000001
 20
-7.697500000000006
 30
0.0
 40
0.0499999999999901
100
AcDbArc
 50
179.9999999999918
 51
270.0000000000041
  0
LINE
  5
17C
330
70
100
AcDbEntity
  8
goonsite v2_Sketch1
100
AcDbLine
 10
-20.67875
 20
-1.982499999999999
 30
0.0
 11
-20.67875
 21
-0.6824999999999966
 31
0.0
  0
LINE
  5
17D
330
70
100
AcDbEntity
  8
goonsite v2_Sketch1
100
AcDbLine
 10
-21.393125
 20
-5.792499999999999
 30
0.0
 11
-21.393125
 21
-4.492499999999998
 31
0.0
  0
ARC
  5
17E
330
70
100
AcDbEntity
  8
goonsite v2_Sketch1
100
AcDbCircle
 10
-19.2426875
 20
-7.697500000000001
 30
0.0
 40
0.0499999999999972
100
AcDbArc
 50
179.9999999999979
 51
270.0
  0
ARC
  5
17F
330
70
100
AcDbEntity
  8
goonsite v2_Sketch1
100
AcDbCircle
 10
-23.4575
 20
-7.697500000000001
 30
0.0
 40
0.0500000000000007
100
AcDbArc
 50
179.9999999999979
 51
269.9999999999959
  0
ARC
  5
180
330
70
100
AcDbEntity
  8
goonsite v2_Sketch1
100
AcDbCircle
 10
-9.497421875
 20
-2.587499999999997
 30
0.0
 40
0.0499999999999981
100
AcDbArc
 50
89.99999999999593
 51
180.000000000002
  0
LINE
  5
181
330
70
100
AcDbEntity
  8
goonsite v2_Sketch1
100
AcDbLine
 10
-13.6705625
 20
-7.747499999999999
 30
0.0
 11
-12.3705625
 21
-7.747499999999999
 31
0.0
  0
ARC
  5
182
330
70
100
AcDbEntity
  8
goonsite v2_Sketch1
100
AcDbCircle
 10
-8.561458266500004
 20
-4.492499999999997
 30
0.0
 40
0.0499999999999972
100
AcDbArc
 50
89.99999999999593
 51
180.000000000002
  0
LINE
  5
183
330
70
100
AcDbEntity
  8
goonsite v2_Sketch1
100
AcDbLine
 10
-23.643125
 20
-4.612499999999998
 30
0.0
 11
-23.643125
 21
-5.912499999999999
 31
0.0
  0
ARC
  5
184
330
70
100
AcDbEntity
  8
goonsite v2_Sketch1
100
AcDbCircle
 10
-0.5906249999999986
 20
-4.007500000000002
 30
0.0
 40
0.0499999999999981
100
AcDbArc
 50
269.9999999999964
 51
0.0000000000020356
  0
LINE
  5
185
330
70
100
AcDbEntity
  8
goonsite v2_Sketch1
100
AcDbLine
 10
-19.270234375
 20
-2.537499999999996
 30
0.0
 11
-20.570234375
 21
-2.537499999999996
 31
0.0
  0
LINE
  5
186
330
70
100
AcDbEntity
  8
goonsite v2_Sketch1
100
AcDbLine
 10
-12.7677081665
 20
-5.792499999999999
 30
0.0
 11
-12.7677081665
 21
-4.492499999999998
 31
0.0
  0
ARC
  5
187
330
70
100
AcDbEntity
  8
goonsite v2_Sketch1
100
AcDbCircle
 10
-14.6697914665
 20
-5.792500000000002
 30
0.0
 40
0.0499999999999981
100
AcDbArc
 50
270.0
 51
0.0000000000030533
  0
LINE
  5
188
330
70
100
AcDbEntity
  8
goonsite v2_Sketch1
100
AcDbLine
 10
-19.7500625
 20
-7.697499999999999
 30
0.0
 11
-19.7500625
 21
-6.397499999999999
 31
0.0
  0
ARC
  5
189
330
70
100
AcDbEntity
  8
goonsite v2_Sketch1
100
AcDbCircle
 10
-14.2279375
 20
-6.397499999999999
 30
0.0
 40
0.0500000000000007
100
AcDbArc
 50
359.999999999999
 51
90.0
  0
LINE
  5
18A
330
70
100
AcDbEntity
  8
goonsite v2_Sketch1
100
AcDbLine
 10
-4.891062499999999
 20
-7.697499999999999
 30
0.0
 11
-4.891062499999999
 21
-6.397499999999999
 31
0.0
  0
ARC
  5
18B
330
70
100
AcDbEntity
  8
goonsite v2_Sketch1
100
AcDbCircle
 10
22.63375000000001
 20
-1.982499999999996
 30
0.0
 40
0.0500000000000043
210
0.0
220
0.0
230
-1.0
100
AcDbArc
 50
180.000000000004
 51
269.9999999999919
  0
ARC
  5
18C
330
70
100
AcDbEntity
  8
goonsite v2_Sketch1
100
AcDbCircle
 10
-6.791874999999997
 20
-0.8024999999999984
 30
0.0
 40
0.0499999999999963
100
AcDbArc
 50
359.9999999999969
 51
90.00000000000813
  0
LINE
  5
18D
330
70
100
AcDbEntity
  8
goonsite v2_Sketch1
100
AcDbLine
 10
-23.269375
 20
-2.587499999999999
 30
0.0
 11
-23.269375
 21
-3.887499999999999
 31
0.0
  0
LINE
  5
18E
330
70
100
AcDbEntity
  8
goonsite v2_Sketch1
100
AcDbLine
 10
-15.5779375
 20
-6.397499999999999
 30
0.0
 11
-15.5779375
 21
-7.697499999999999
 31
0.0
  0
LINE
  5
18F
330
70
100
AcDbEntity
  8
goonsite v2_Sketch1
100
AcDbLine
 10
-3.0336875
 20
-7.697499999999999
 30
0.0
 11
-3.0336875
 21
-6.397499999999999
 31
0.0
  0
LINE
  5
190
330
70
100
AcDbEntity
  8
goonsite v2_Sketch1
100
AcDbLine
 10
-14.2279375
 20
-6.3475
 30
0.0
 11
-15.5279375
 21
-6.347499999999999
 31
0.0
  0
LINE
  5
191
330
70
100
AcDbEntity
  8
goonsite v2_Sketch1
100
AcDbLine
 10
-0.6762499999999989
 20
-7.697499999999999
 30
0.0
 11
-0.6762499999999989
 21
-6.397499999999999
 31
0.0
  0
ARC
  5
192
330
70
100
AcDbEntity
  8
goonsite v2_Sketch1
100
AcDbCircle
 10
-23.219375
 20
-3.887499999999999
 30
0.0
 40
0.0500000000000007
100
AcDbArc
 50
180.0
 51
270.0000000000041
  0
LINE
  5
193
330
70
100
AcDbEntity
  8
goonsite v2_Sketch1
100
AcDbLine
 10
-1.916874999999998
 20
-0.6324999999999977
 30
0.0
 11
-3.454999999999999
 21
-0.6324999999999968
 31
0.0
  0
ARC
  5
194
330
70
100
AcDbEntity
  8
goonsite v2_Sketch1
100
AcDbCircle
 10
-3.557291666499999
 20
-4.4925
 30
0.0
 40
0.0500000000000007
100
AcDbArc
 50
0.0000000000020356
 51
90.0
  0
LINE
  5
195
330
70
100
AcDbEntity
  8
goonsite v2_Sketch1
100
AcDbLine
 10
-18.724765625
 20
-3.937499999999997
 30
0.0
 11
-17.424765625
 21
-3.9375
 31
0.0
  0
ARC
  5
196
330
70
100
AcDbEntity
  8
goonsite v2_Sketch1
100
AcDbCircle
 10
-19.2426875
 20
-6.397499999999998
 30
0.0
 40
0.0499999999999989
100
AcDbArc
 50
90.0
 51
180.000000000002
  0
ARC
  5
197
330
70
100
AcDbEntity
  8
goonsite v2_Sketch1
100
AcDbCircle
 10
-22.266875
 20
-1.982500000000003
 30
0.0
 40
0.0499999999999972
100
AcDbArc
 50
179.9999999999959
 51
270.0000000000041
  0
ARC
  5
198
330
70
100
AcDbEntity
  8
goonsite v2_Sketch1
100
AcDbCircle
 10
-22.15749999999999
 20
-6.397499999999999
 30
0.0
 40
0.0499999999999972
100
AcDbArc
 50
359.999999999999
 51
90.00000000000406
  0
LINE
  5
199
330
70
100
AcDbEntity
  8
goonsite v2_Sketch1
100
AcDbLine
 10
-2.990625000000002
 20
-2.657499999999999
 30
0.0
 11
-3.590625
 21
-2.657499999999997
 31
0.0
  0
ARC
  5
19A
330
70
100
AcDbEntity
  8
goonsite v2_Sketch1
100
AcDbCircle
 10
-6.709374966500001
 20
-4.4925
 30
0.0
 40
0.0500000000000007
100
AcDbArc
 50
90.0
 51
179.9999999999979
  0
ARC
  5
19B
330
70
100
AcDbEntity
  8
goonsite v2_Sketch1
100
AcDbCircle
 10
-18.72476562500001
 20
-3.887500000000003
 30
0.0
 40
0.0499999999999936
100
AcDbArc
 50
179.9999999999949
 51
270.0000000000081
  0
LINE
  5
19C
330
70
100
AcDbEntity
  8
goonsite v2_Sketch1
100
AcDbLine
 10
-6.798437499999999
 20
-6.3475
 30
0.0
 11
-8.098437499999999
 21
-6.347499999999999
 31
0.0
  0
ARC
  5
19D
330
70
100
AcDbEntity
  8
goonsite v2_Sketch1
100
AcDbCircle
 10
-17.3853125
 20
-7.697500000000002
 30
0.0
 40
0.0499999999999972
100
AcDbArc
 50
179.9999999999969
 51
270.0000000000041
  0
ARC
  5
19E
330
70
100
AcDbEntity
  8
goonsite v2_Sketch1
100
AcDbCircle
 10
-19.8000625
 20
-6.397499999999999
 30
0.0
 40
0.0500000000000007
100
AcDbArc
 50
359.999999999999
 51
90.0
  0
ARC
  5
19F
330
70
100
AcDbEntity
  8
goonsite v2_Sketch1
100
AcDbCircle
 10
-11.88835937499999
 20
-2.587499999999995
 30
0.0
 40
0.0499999999999972
100
AcDbArc
 50
359.9999999999959
 51
90.00000000000406
  0
ARC
  5
1A0
330
70
100
AcDbEntity
  8
goonsite v2_Sketch1
100
AcDbCircle
 10
-5.409374966499999
 20
-4.492499999999998
 30
0.0
 40
0.0499999999999998
100
AcDbArc
 50
0.0
 51
90.0
  0
LINE
  5
1A1
330
70
100
AcDbEntity
  8
goonsite v2_Sketch1
100
AcDbLine
 10
-11.392890625
 20
-2.587499999999999
 30
0.0
 11
-11.392890625
 21
-3.887499999999999
 31
0.0
  0
ARC
  5
1A2
330
70
100
AcDbEntity
  8
goonsite v2_Sketch1
100
AcDbCircle
 10
-0.9643750000000004
 20
-4.4925
 30
0.0
 40
0.0500000000000016
100
AcDbArc
 50
0.0000000000020356
 51
89.99999999999822
  0
LINE
  5
1A3
330
70
100
AcDbEntity
  8
goonsite v2_Sketch1
100
AcDbLine
 10
-16.0353125
 20
-7.697499999999999
 30
0.0
 11
-16.0353125
 21
-6.397499999999999
 31
0.0
  0
ARC
  5
1A4
330
70
100
AcDbEntity
  8
goonsite v2_Sketch1
100
AcDbCircle
 10
-13.6705625
 20
-6.397499999999999
 30
0.0
 40
0.0500000000000007
100
AcDbArc
 50
89.99999999999593
 51
180.0
  0
ARC
  5
1A5
330
70
100
AcDbEntity
  8
goonsite v2_Sketch1
100
AcDbCircle
 10
-5.806484374999999
 20
-3.8875
 30
0.0
 40
0.0499999999999998
100
AcDbArc
 50
179.999999999999
 51
270.0
  0
LINE
  5
1A6
330
70
100
AcDbEntity
  8
goonsite v2_Sketch1
100
AcDbLine
 10
-13.7205625
 20
-6.397499999999999
 30
0.0
 11
-13.7205625
 21
-7.697499999999999
 31
0.0
  0
ARC
  5
1A7
330
70
100
AcDbEntity
  8
goonsite v2_Sketch1
100
AcDbCircle
 10
-4.857291666499997
 20
-5.792499999999999
 30
0.0
 40
0.0500000000000007
100
AcDbArc
 50
180.0
 51
269.999999999998
  0
LINE
  5
1A8
330
70
100
AcDbEntity
  8
goonsite v2_Sketch1
100
AcDbLine
 10
-16.0197914665
 20
-4.492499999999998
 30
0.0
 11
-16.0197914665
 21
-5.792500000000001
 31
0.0
  0
ARC
  5
1A9
330
70
100
AcDbEntity
  8
goonsite v2_Sketch1
100
AcDbCircle
 10
-3.083687499999999
 20
-7.6975
 30
0.0
 40
0.0499999999999989
100
AcDbArc
 50
270.0000000000005
 51
0.0000000000010178
  0
LINE
  5
1AA
330
70
100
AcDbEntity
  8
goonsite v2_Sketch1
100
AcDbLine
 10
-10.042890625
 20
-2.537499999999999
 30
0.0
 11
-11.342890625
 21
-2.537499999999999
 31
0.0
  0
LINE
  5
1AB
330
70
100
AcDbEntity
  8
goonsite v2_Sketch1
100
AcDbLine
 10
-9.1135415665
 20
-4.442499999999999
 30
0.0
 11
-10.4135415665
 21
-4.442499999999999
 31
0.0
  0
ARC
  5
1AC
330
70
100
AcDbEntity
  8
goonsite v2_Sketch1
100
AcDbCircle
 10
-16.791875
 20
-2.102499999999998
 30
0.0
 40
0.0499999999999945
100
AcDbArc
 50
269.9999999999919
 51
0.0000000000040711
  0
LINE
  5
1AD
330
70
100
AcDbEntity
  8
goonsite v2_Sketch1
100
AcDbLine
 10
-23.116875
 20
-4.0575
 30
0.0
 11
-22.516875
 21
-4.0575
 31
0.0
  0
ARC
  5
1AE
330
70
100
AcDbEntity
  8
goonsite v2_Sketch1
100
AcDbCircle
 10
-21.44312500000001
 20
-5.792499999999998
 30
0.0
 40
0.0499999999999998
100
AcDbArc
 50
270.0000000000041
 51
359.999999999999
  0
ARC
  5
1AF
330
70
100
AcDbEntity
  8
goonsite v2_Sketch1
100
AcDbCircle
 10
-16.08531249999999
 20
-6.397499999999998
 30
0.0
 40
0.0499999999999972
100
AcDbArc
 50
359.999999999998
 51
90.00000000000406
  0
ARC
  5
1B0
330
70
100
AcDbEntity
  8
goonsite v2_Sketch1
100
AcDbCircle
 10
-5.598124999999999
 20
-1.982499999999999
 30
0.0
 40
0.0500000000000007
100
AcDbArc
 50
180.000000000001
 51
269.999999999999
  0
ARC
  5
1B1
330
70
100
AcDbEntity
  8
goonsite v2_Sketch1
100
AcDbCircle
 10
-0.5906249999999998
 20
-2.707499999999998
 30
0.0
 40
0.0499999999999987
100
AcDbArc
 50
0.0
 51
90.0000000000023
  0
ARC
  5
1B2
330
70
100
AcDbEntity
  8
goonsite v2_Sketch1
100
AcDbCircle
 10
-4.298124999999996
 20
-0.6824999999999939
 30
0.0
 40
0.0499999999999972
100
AcDbArc
 50
359.9999999999969
 51
90.00000000000406
  0
ARC
  5
1B3
330
70
100
AcDbEntity
  8
goonsite v2_Sketch1
100
AcDbCircle
 10
-4.941062500000001
 20
-7.697499999999998
 30
0.0
 40
0.0500000000000016
100
AcDbArc
 50
270.0000000000021
 51
359.999999999998
  0
ARC
  5
1B4
330
70
100
AcDbEntity
  8
goonsite v2_Sketch1
100
AcDbCircle
 10
-19.27023437499999
 20
-3.887500000000009
 30
0.0
 40
0.0499999999999883
100
AcDbArc
 50
269.9999999999878
 51
0.0000000000132311
  0
ARC
  5
1B5
330
70
100
AcDbEntity
  8
goonsite v2_Sketch1
100
AcDbCircle
 10
-21.10006249999999
 20
-6.397500000000001
 30
0.0
 40
0.0500000000000025
100
AcDbArc
 50
90.00000000000813
 51
179.9999999999979
  0
LINE
  5
1B6
330
70
100
AcDbEntity
  8
goonsite v2_Sketch1
100
AcDbLine
 10
-20.716875
 20
-4.057500000000002
 30
0.0
 11
-20.116875
 21
-4.0575
 31
0.0
  0
LINE
  5
1B7
330
70
100
AcDbEntity
  8
goonsite v2_Sketch1
100
AcDbLine
 10
-19.220234375
 20
-3.887499999999997
 30
0.0
 11
-19.220234375
 21
-2.587499999999997
 31
0.0
  0
ARC
  5
1B8
330
70
100
AcDbEntity
  8
goonsite v2_Sketch1
100
AcDbCircle
 10
-21.19312499999999
 20
-4.612500000000003
 30
0.0
 40
0.0500000000000052
100
AcDbArc
 50
90.00000000000813
 51
179.9999999999939
  0
ARC
  5
1B9
330
70
100
AcDbEntity
  8
goonsite v2_Sketch1
100
AcDbCircle
 10
-16.5218747665
 20
-5.792500000000002
 30
0.0
 40
0.0499999999999981
100
AcDbArc
 50
269.9999999999959
 51
0.0000000000030533
  0
ARC
  5
1BA
330
70
100
AcDbEntity
  8
goonsite v2_Sketch1
100
AcDbCircle
 10
-20.716875
 20
-2.712500000000006
 30
0.0
 40
0.0500000000000096
100
AcDbArc
 50
90.0
 51
179.9999999999898
  0
ARC
  5
1BB
330
70
100
AcDbEntity
  8
goonsite v2_Sketch1
100
AcDbCircle
 10
-2.990624999999997
 20
-2.707499999999996
 30
0.0
 40
0.0499999999999963
100
AcDbArc
 50
359.9999999999969
 51
90.00000000000509
  0
ARC
  5
1BC
330
70
100
AcDbEntity
  8
goonsite v2_Sketch1
100
AcDbCircle
 10
-7.2614582665
 20
-4.492499999999999
 30
0.0
 40
0.0500000000000007
100
AcDbArc
 50
0.0000000000010178
 51
90.0
  0
LINE
  5
1BD
330
70
100
AcDbEntity
  8
goonsite v2_Sketch1
100
AcDbLine
 10
-20.76687500000001
 20
-2.712499999999997
 30
0.0
 11
-20.76687500000001
 21
-4.007499999999998
 31
0.0
  0
ARC
  5
1BE
330
70
100
AcDbEntity
  8
goonsite v2_Sketch1
100
AcDbCircle
 10
-3.455
 20
-0.6824999999999957
 30
0.0
 40
0.0499999999999989
100
AcDbArc
 50
89.99999999999898
 51
180.000000000001
  0
ARC
  5
1BF
330
70
100
AcDbEntity
  8
goonsite v2_Sketch1
100
AcDbCircle
 10
-10.4135415665
 20
-4.492499999999994
 30
0.0
 40
0.0499999999999945
100
AcDbArc
 50
89.99999999999593
 51
180.000000000005
  0
ARC
  5
1C0
330
70
100
AcDbEntity
  8
goonsite v2_Sketch1
100
AcDbCircle
 10
-17.8218747665
 20
-5.792500000000005
 30
0.0
 40
0.0499999999999972
100
AcDbArc
 50
179.9999999999949
 51
270.0000000000041
  0
LINE
  5
1C1
330
70
100
AcDbEntity
  8
goonsite v2_Sketch1
100
AcDbLine
 10
-23.166875
 20
-3.9375
 30
0.0
 11
-23.166875
 21
-4.0075
 31
0.0
  0
ARC
  5
1C2
330
70
100
AcDbEntity
  8
goonsite v2_Sketch1
100
AcDbCircle
 10
-21.1000625
 20
-7.697499999999999
 30
0.0
 40
0.0500000000000007
100
AcDbArc
 50
180.0
 51
269.9999999999959
  0
LINE
  5
1C3
330
70
100
AcDbEntity
  8
goonsite v2_Sketch1
100
AcDbLine
 10
-17.8718747665
 20
-4.492499999999998
 30
0.0
 11
-17.8718747665
 21
-5.792500000000001
 31
0.0
  0
LINE
  5
1C4
330
70
100
AcDbEntity
  8
goonsite v2_Sketch1
100
AcDbLine
 10
-6.791875000000004
 20
-0.7525000000000022
 30
0.0
 11
-7.391875000000001
 21
-0.7525000000000013
 31
0.0
  0
LINE
  5
1C5
330
70
100
AcDbEntity
  8
goonsite v2_Sketch1
100
AcDbLine
 10
-19.7239580665
 20
-4.492499999999998
 30
0.0
 11
-19.7239580665
 21
-5.792500000000001
 31
0.0
  0
LINE
  5
1C6
330
70
100
AcDbEntity
  8
goonsite v2_Sketch1
100
AcDbLine
 10
-12.8177081665
 20
-4.442499999999998
 30
0.0
 11
-14.1177081665
 21
-4.442499999999999
 31
0.0
  0
LINE
  5
1C7
330
70
100
AcDbEntity
  8
goonsite v2_Sketch1
100
AcDbLine
 10
-22.58375
 20
-0.6824999999999966
 30
0.0
 11
-22.58375
 21
-1.982499999999999
 31
0.0
  0
ARC
  5
1C8
330
70
100
AcDbEntity
  8
goonsite v2_Sketch1
100
AcDbCircle
 10
-22.743125
 20
-4.492499999999997
 30
0.0
 40
0.0499999999999972
100
AcDbArc
 50
89.99999999999593
 51
180.000000000002
  0
LINE
  5
1C9
330
70
100
AcDbEntity
  8
goonsite v2_Sketch1
100
AcDbLine
 10
-0.460810161513775
 20
-8.447499999999999
 30
0.0
 11
-1.26798983848623
 21
-8.447500000000001
 31
0.0
  0
ARC
  5
1CA
330
70
100
AcDbEntity
  8
goonsite v2_Sketch1
100
AcDbCircle
 10
24.13375000000001
 20
-0.4825
 30
0.0
 40
0.0499999999999972
210
0.0
220
0.0
230
-1.0
100
AcDbArc
 50
359.999999999998
 51
90.0
  0
LINE
  5
1CB
330
70
100
AcDbEntity
  8
goonsite v2_Sketch1
100
AcDbLine
 10
-4.248124999999999
 20
-1.982499999999999
 30
0.0
 11
-4.248124999999999
 21
-0.6824999999999966
 31
0.0
  0
ARC
  5
1CC
330
70
100
AcDbEntity
  8
goonsite v2_Sketch1
100
AcDbCircle
 10
-2.740624999999997
 20
-3.887499999999998
 30
0.0
 40
0.0500000000000016
100
AcDbArc
 50
180.000000000001
 51
269.9999999999985
  0
LINE
  5
1CD
330
70
100
AcDbEntity
  8
goonsite v2_Sketch1
100
AcDbLine
 10
-17.4353125
 20
-6.397499999999999
 30
0.0
 11
-17.4353125
 21
-7.697499999999999
 31
0.0
  0
LINE
  5
1CE
330
70
100
AcDbEntity
  8
goonsite v2_Sketch1
100
AcDbLine
 10
-6.748437499999999
 20
-7.697499999999999
 30
0.0
 11
-6.748437499999999
 21
-6.397499999999999
 31
0.0
  0
ARC
  5
1CF
330
70
100
AcDbEntity
  8
goonsite v2_Sketch1
100
AcDbCircle
 10
-20.593125
 20
-5.9125
 30
0.0
 40
0.0499999999999981
100
AcDbArc
 50
269.9999999999959
 51
0.0000000000020356
  0
LINE
  5
1D0
330
70
100
AcDbEntity
  8
goonsite v2_Sketch1
100
AcDbLine
 10
-6.2910625
 20
-6.397499999999999
 30
0.0
 11
-6.2910625
 21
-7.697499999999999
 31
0.0
  0
ARC
  5
1D1
330
70
100
AcDbEntity
  8
goonsite v2_Sketch1
100
AcDbCircle
 10
-10.04289062499999
 20
-2.587499999999995
 30
0.0
 40
0.0499999999999936
100
AcDbArc
 50
359.9999999999949
 51
90.00000000000406
  0
LINE
  5
1D2
330
70
100
AcDbEntity
  8
goonsite v2_Sketch1
100
AcDbLine
 10
-13.733828125
 20
-2.537499999999999
 30
0.0
 11
-15.033828125
 21
-2.537499999999999
 31
0.0
  0
ARC
  5
1D3
330
70
100
AcDbEntity
  8
goonsite v2_Sketch1
100
AcDbCircle
 10
-19.6739580665
 20
-5.792500000000001
 30
0.0
 40
0.0499999999999972
100
AcDbArc
 50
180.0
 51
270.0
  0
ARC
  5
1D4
330
70
100
AcDbEntity
  8
goonsite v2_Sketch1
100
AcDbCircle
 10
-12.741875
 20
-1.9825
 30
0.0
 40
0.0499999999999972
100
AcDbArc
 50
179.999999999999
 51
270.0000000000041
  0
ARC
  5
1D5
330
70
100
AcDbEntity
  8
goonsite v2_Sketch1
100
AcDbCircle
 10
-17.94268750000001
 20
-7.69749999999999
 30
0.0
 40
0.0500000000000087
100
AcDbArc
 50
270.0000000000122
 51
359.9999999999898
  0
ARC
  5
1D6
330
70
100
AcDbEntity
  8
goonsite v2_Sketch1
100
AcDbCircle
 10
-23.593125
 20
-4.6125
 30
0.0
 40
0.0500000000000025
100
AcDbArc
 50
90.0
 51
179.9999999999979
  0
ARC
  5
1D7
330
70
100
AcDbEntity
  8
goonsite v2_Sketch1
100
AcDbCircle
 10
-23.116875
 20
-4.007500000000001
 30
0.0
 40
0.0500000000000007
100
AcDbArc
 50
179.999999999999
 51
269.9999999999959
  0
ARC
  5
1D8
330
70
100
AcDbEntity
  8
goonsite v2_Sketch1
100
AcDbCircle
 10
-21.44312500000001
 20
-4.492499999999999
 30
0.0
 40
0.0500000000000043
100
AcDbArc
 50
0.0000000000010178
 51
89.99999999999186
  0
LINE
  5
1D9
330
70
100
AcDbEntity
  8
goonsite v2_Sketch1
100
AcDbLine
 10
-10.4631875
 20
-7.697499999999999
 30
0.0
 11
-10.4631875
 21
-6.397499999999999
 31
0.0
  0
ARC
  5
1DA
330
70
100
AcDbEntity
  8
goonsite v2_Sketch1
100
AcDbCircle
 10
-22.15749999999999
 20
-7.6975
 30
0.0
 40
0.0499999999999989
100
AcDbArc
 50
269.9999999999959
 51
0.0000000000010178
  0
LINE
  5
1DB
330
70
100
AcDbEntity
  8
goonsite v2_Sketch1
100
AcDbLine
 10
-17.9426875
 20
-6.347500000000001
 30
0.0
 11
-19.2426875
 21
-6.347499999999999
 31
0.0
  0
LINE
  5
1DC
330
70
100
AcDbEntity
  8
goonsite v2_Sketch1
100
AcDbLine
 10
-6.2410625
 20
-7.747499999999999
 30
0.0
 11
-4.941062499999999
 21
-7.747499999999999
 31
0.0
  0
LINE
  5
1DD
330
70
100
AcDbEntity
  8
goonsite v2_Sketch1
100
AcDbLine
 10
-8.655812499999999
 20
-6.3475
 30
0.0
 11
-9.9558125
 21
-6.347499999999999
 31
0.0
  0
LINE
  5
1DE
330
70
100
AcDbEntity
  8
goonsite v2_Sketch1
100
AcDbLine
 10
-19.6739580665
 20
-5.842499999999998
 30
0.0
 11
-18.3739580665
 21
-5.8425
 31
0.0
  0
LINE
  5
1DF
330
70
100
AcDbEntity
  8
goonsite v2_Sketch1
100
AcDbLine
 10
-9.547421874999997
 20
-2.587499999999999
 30
0.0
 11
-9.547421874999997
 21
-3.887499999999999
 31
0.0
  0
LINE
  5
1E0
330
70
100
AcDbEntity
  8
goonsite v2_Sketch1
100
AcDbLine
 10
-19.885625
 20
-2.0325
 30
0.0
 11
-18.585625
 21
-2.032499999999999
 31
0.0
  0
ARC
  5
1E1
330
70
100
AcDbEntity
  8
goonsite v2_Sketch1
100
AcDbCircle
 10
-0.056664973081034
 20
-0.2324999999999999
 30
0.0
 40
0.2000000000000014
100
AcDbArc
 50
209.9999999999988
 51
269.9999999999991
  0
LINE
  5
1E2
330
70
100
AcDbEntity
  8
goonsite v2_Sketch1
100
AcDbLine
 10
-23.9538799461621
 20
-0.3324999999999969
 30
0.0
 11
-23.7229398384862
 21
0.0675000000000026
 31
0.0
  0
ARC
  5
1E3
330
70
100
AcDbEntity
  8
goonsite v2_Sketch1
100
AcDbCircle
 10
-13.188359375
 20
-2.587499999999997
 30
0.0
 40
0.0499999999999981
100
AcDbArc
 50
89.99999999999593
 51
180.000000000002
  0
ARC
  5
1E4
330
70
100
AcDbEntity
  8
goonsite v2_Sketch1
100
AcDbCircle
 10
-14.1177081665
 20
-5.792500000000001
 30
0.0
 40
0.0499999999999972
100
AcDbArc
 50
180.0
 51
270.0000000000041
  0
ARC
  5
1E5
330
70
100
AcDbEntity
  8
goonsite v2_Sketch1
100
AcDbCircle
 10
-4.506484374999998
 20
-3.8875
 30
0.0
 40
0.0499999999999998
100
AcDbArc
 50
270.0
 51
0.0000000000010178
  0
LINE
  5
1E6
330
70
100
AcDbEntity
  8
goonsite v2_Sketch1
100
AcDbLine
 10
-18.3739580665
 20
-4.442499999999998
 30
0.0
 11
-19.6739580665
 21
-4.442499999999999
 31
0.0
  0
LINE
  5
1E7
330
70
100
AcDbEntity
  8
goonsite v2_Sketch1
100
AcDbLine
 10
-1.49892994616207
 20
-0.3324999999999969
 30
0.0
 11
-1.26798983848622
 21
0.0675000000000026
 31
0.0
  0
ARC
  5
1E8
330
70
100
AcDbEntity
  8
goonsite v2_Sketch1
100
AcDbCircle
 10
-14.2279375
 20
-7.697499999999999
 30
0.0
 40
0.0499999999999998
100
AcDbArc
 50
270.0
 51
0.0
  0
LINE
  5
1E9
330
70
100
AcDbEntity
  8
goonsite v2_Sketch1
100
AcDbLine
 10
-23.593125
 20
-5.962500000000001
 30
0.0
 11
-22.993125
 21
-5.962499999999999
 31
0.0
  0
ARC
  5
1EA
330
70
100
AcDbEntity
  8
goonsite v2_Sketch1
100
AcDbCircle
 10
-20.966875
 20
-2.587499999999998
 30
0.0
 40
0.0500000000000007
100
AcDbArc
 50
359.999999999999
 51
90.0
  0
LINE
  5
1EB
330
70
100
AcDbEntity
  8
goonsite v2_Sketch1
100
AcDbLine
 10
-23.7229398384862
 20
0.0675000000000026
 30
0.0
 11
-22.91576016151381
 21
0.0675000000000026
 31
0.0
  0
ARC
  5
1EC
330
70
100
AcDbEntity
  8
goonsite v2_Sketch1
100
AcDbCircle
 10
-11.342890625
 20
-2.587499999999997
 30
0.0
 40
0.0499999999999981
100
AcDbArc
 50
90.0
 51
180.000000000002
  0
LINE
  5
1ED
330
70
100
AcDbEntity
  8
goonsite v2_Sketch1
100
AcDbLine
 10
-18.585625
 20
-0.6324999999999985
 30
0.0
 11
-19.885625
 21
-0.6324999999999968
 31
0.0
  0
ARC
  5
1EE
330
70
100
AcDbEntity
  8
goonsite v2_Sketch1
100
AcDbCircle
 10
-9.955812499999996
 20
-6.397499999999998
 30
0.0
 40
0.0499999999999989
100
AcDbArc
 50
90.00000000000406
 51
180.000000000002
  0
LINE
  5
1EF
330
70
100
AcDbEntity
  8
goonsite v2_Sketch1
100
AcDbLine
 10
-10.5131875
 20
-6.3475
 30
0.0
 11
-11.81318749999999
 21
-6.347499999999999
 31
0.0
  0
LINE
  5
1F0
330
70
100
AcDbEntity
  8
goonsite v2_Sketch1
100
AcDbLine
 10
-6.301953124999997
 20
-3.887499999999999
 30
0.0
 11
-6.301953124999997
 21
-2.587499999999999
 31
0.0
  0
ARC
  5
1F1
330
70
100
AcDbEntity
  8
goonsite v2_Sketch1
100
AcDbCircle
 10
22.63374999999999
 20
-0.6824999999999948
 30
0.0
 40
0.0499999999999936
210
0.0
220
0.0
230
-1.0
100
AcDbArc
 50
89.99999999999593
 51
180.000000000002
  0
LINE
  5
1F2
330
70
100
AcDbEntity
  8
goonsite v2_Sketch1
100
AcDbLine
 10
-5.409374966499999
 20
-4.442499999999999
 30
0.0
 11
-6.709374966500001
 21
-4.442499999999999
 31
0.0
  0
ARC
  5
1F3
330
70
100
AcDbEntity
  8
goonsite v2_Sketch1
100
AcDbCircle
 10
24.13375
 20
-7.8975
 30
0.0
 40
0.0499999999999998
210
0.0
220
0.0
230
-1.0
100
AcDbArc
 50
270.0
 51
0.0000000000010178
  0
LINE
  5
1F4
330
70
100
AcDbEntity
  8
goonsite v2_Sketch1
100
AcDbLine
 10
-19.2426875
 20
-7.747499999999999
 30
0.0
 11
-17.9426875
 21
-7.747499999999999
 31
0.0
  0
ARC
  5
1F5
330
70
100
AcDbEntity
  8
goonsite v2_Sketch1
100
AcDbCircle
 10
-20.716875
 20
-4.007499999999998
 30
0.0
 40
0.0500000000000043
100
AcDbArc
 50
180.0
 51
270.0000000000041
  0
LINE
  5
1F6
330
70
100
AcDbEntity
  8
goonsite v2_Sketch1
100
AcDbLine
 10
-11.342890625
 20
-3.9375
 30
0.0
 11
-10.042890625
 21
-3.9375
 31
0.0
  0
ARC
  5
1F7
330
70
100
AcDbEntity
  8
goonsite v2_Sketch1
100
AcDbCircle
 10
-19.8000625
 20
-7.6975
 30
0.0
 40
0.0499999999999989
100
AcDbArc
 50
270.0
 51
0.0000000000010178
  0
LINE
  5
1F8
330
70
100
AcDbEntity
  8
goonsite v2_Sketch1
100
AcDbLine
 10
-4.298124999999999
 20
-0.6324999999999968
 30
0.0
 11
-5.598125
 21
-0.6324999999999968
 31
0.0
  0
LINE
  5
1F9
330
70
100
AcDbEntity
  8
goonsite v2_Sketch1
100
AcDbLine
 10
-7.651953124999999
 20
-3.9375
 30
0.0
 11
-6.351953124999996
 21
-3.9375
 31
0.0
  0
ARC
  5
1FA
330
70
100
AcDbEntity
  8
goonsite v2_Sketch1
100
AcDbCircle
 10
-7.261458266499997
 20
-5.792500000000003
 30
0.0
 40
0.0499999999999972
100
AcDbArc
 50
269.9999999999959
 51
0.0000000000040711
  0
ARC
  5
1FB
330
70
100
AcDbEntity
  8
goonsite v2_Sketch1
100
AcDbCircle
 10
-19.270234375
 20
-2.587499999999995
 30
0.0
 40
0.0500000000000007
100
AcDbArc
 50
359.999999999998
 51
89.99999999999593
  0
ARC
  5
1FC
330
70
100
AcDbEntity
  8
goonsite v2_Sketch1
100
AcDbCircle
 10
-12.3705625
 20
-7.697500000000001
 30
0.0
 40
0.0499999999999981
100
AcDbArc
 50
270.0
 51
0.0000000000020356
  0
LINE
  5
1FD
330
70
100
AcDbEntity
  8
goonsite v2_Sketch1
100
AcDbLine
 10
-23.4575
 20
-7.747500000000002
 30
0.0
 11
-22.1575
 21
-7.747499999999999
 31
0.0
  0
LINE
  5
1FE
330
70
100
AcDbEntity
  8
goonsite v2_Sketch1
100
AcDbLine
 10
-1.26798983848623
 20
-8.447500000000001
 30
0.0
 11
-1.498929946162073
 21
-8.047500000000002
 31
0.0
  0
LINE
  5
1FF
330
70
100
AcDbEntity
  8
goonsite v2_Sketch1
100
AcDbLine
 10
-8.605812499999998
 20
-7.697499999999999
 30
0.0
 11
-8.605812499999998
 21
-6.397499999999999
 31
0.0
  0
LINE
  5
200
330
70
100
AcDbEntity
  8
goonsite v2_Sketch1
100
AcDbLine
 10
-7.2114582665
 20
-5.792499999999999
 30
0.0
 11
-7.2114582665
 21
-4.492499999999998
 31
0.0
  0
LINE
  5
201
330
70
100
AcDbEntity
  8
goonsite v2_Sketch1
100
AcDbLine
 10
-3.557291666499999
 20
-4.442499999999999
 30
0.0
 11
-4.857291666499999
 21
-4.442499999999999
 31
0.0
  0
LINE
  5
202
330
70
100
AcDbEntity
  8
goonsite v2_Sketch1
100
AcDbLine
 10
-3.504999999999999
 20
-0.6824999999999966
 30
0.0
 11
-3.504999999999998
 21
-1.982499999999999
 31
0.0
  0
LINE
  5
203
330
70
100
AcDbEntity
  8
goonsite v2_Sketch1
100
AcDbLine
 10
-22.91576016151381
 20
0.0675000000000026
 30
0.0
 11
-22.68482005383789
 21
-0.3324999999999925
 31
0.0
  0
ARC
  5
204
330
70
100
AcDbEntity
  8
goonsite v2_Sketch1
100
AcDbCircle
 10
-1.916874999999997
 20
-0.6824999999999966
 30
0.0
 40
0.0499999999999994
100
AcDbArc
 50
0.0
 51
90.00000000000049
  0
LINE
  5
205
330
70
100
AcDbEntity
  8
goonsite v2_Sketch1
100
AcDbLine
 10
-20.916875
 20
-3.887499999999999
 30
0.0
 11
-20.916875
 21
-2.587499999999999
 31
0.0
  0
ARC
  5
206
330
70
100
AcDbEntity
  8
goonsite v2_Sketch1
100
AcDbCircle
 10
-9.1135415665
 20
-4.492499999999999
 30
0.0
 40
0.0500000000000007
100
AcDbArc
 50
0.0000000000010178
 51
90.0
  0
ARC
  5
207
330
70
100
AcDbEntity
  8
goonsite v2_Sketch1
100
AcDbCircle
 10
-11.81318749999999
 20
-6.397499999999999
 30
0.0
 40
0.0500000000000007
100
AcDbArc
 50
90.0
 51
180.0
  0
LINE
  5
208
330
70
100
AcDbEntity
  8
goonsite v2_Sketch1
100
AcDbLine
 10
-17.89268749999999
 20
-7.697499999999999
 30
0.0
 11
-17.89268749999999
 21
-6.397499999999999
 31
0.0
  0
LINE
  5
209
330
70
100
AcDbEntity
  8
goonsite v2_Sketch1
100
AcDbLine
 10
-24.127085026919
 20
-7.9475
 30
0.0
 11
-24.13375
 21
-7.9475
 31
0.0
  0
LINE
  5
20A
330
70
100
AcDbEntity
  8
goonsite v2_Sketch1
100
AcDbLine
 10
-0.229870053837925
 20
-8.047499999999999
 30
0.0
 11
-0.460810161513775
 21
-8.447499999999999
 31
0.0
  0
LINE
  5
20B
330
70
100
AcDbEntity
  8
goonsite v2_Sketch1
100
AcDbLine
 10
-22.68482005383791
 20
-8.047499999999995
 30
0.0
 11
-22.91576016151381
 21
-8.447500000000001
 31
0.0
  0
LINE
  5
20C
330
70
100
AcDbEntity
  8
goonsite v2_Sketch1
100
AcDbLine
 10
-24.13375
 20
-0.4325000000000028
 30
0.0
 11
-24.1270850269189
 21
-0.432500000000001
 31
0.0
  0
ARC
  5
20D
330
70
100
AcDbEntity
  8
goonsite v2_Sketch1
100
AcDbCircle
 10
-24.12708502691899
 20
-0.2324999999999955
 30
0.0
 40
0.2000000000000055
100
AcDbArc
 50
270.0000000000265
 51
330.0000000000006
  0
ARC
  5
20E
330
70
100
AcDbEntity
  8
goonsite v2_Sketch1
100
AcDbCircle
 10
-24.127085026919
 20
-8.147499999999991
 30
0.0
 40
0.1999999999999919
100
AcDbArc
 50
29.99999999999653
 51
90.0
  0
ARC
  5
20F
330
70
100
AcDbEntity
  8
goonsite v2_Sketch1
100
AcDbCircle
 10
-22.511614973081
 20
-0.232499999999999
 30
0.0
 40
0.200000000000002
100
AcDbArc
 50
209.9999999999974
 51
269.999999999998
  0
ARC
  5
210
330
70
100
AcDbEntity
  8
goonsite v2_Sketch1
100
AcDbCircle
 10
-1.67213502691896
 20
-8.147499999999995
 30
0.0
 40
0.1999999999999955
100
AcDbArc
 50
29.99999999999829
 51
90.00000000000012
  0
LINE
  5
211
330
70
100
AcDbEntity
  8
goonsite v2_Sketch1
100
AcDbLine
 10
-1.67213502691896
 20
-7.947499999999999
 30
0.0
 11
-22.51161497308101
 21
-7.947499999999999
 31
0.0
  0
LINE
  5
212
330
70
100
AcDbEntity
  8
goonsite v2_Sketch1
100
AcDbLine
 10
-23.7229398384862
 20
-8.447500000000001
 30
0.0
 11
-23.95387994616211
 21
-8.047500000000006
 31
0.0
  0
ARC
  5
213
330
70
100
AcDbEntity
  8
goonsite v2_Sketch1
100
AcDbCircle
 10
0.05
 20
-7.897499999999999
 30
0.0
 40
0.0500000000000004
210
0.0
220
0.0
230
-1.0
100
AcDbArc
 50
180.0
 51
270.0
  0
LINE
  5
214
330
70
100
AcDbEntity
  8
goonsite v2_Sketch1
100
AcDbLine
 10
-22.91576016151381
 20
-8.447500000000001
 30
0.0
 11
-23.7229398384862
 21
-8.447500000000001
 31
0.0
  0
LINE
  5
215
330
70
100
AcDbEntity
  8
goonsite v2_Sketch1
100
AcDbLine
 10
-0.0566649730810371
 20
-0.4325000000000014
 30
0.0
 11
-0.050000000000053
 21
-0.4324999999999975
 31
0.0
  0
LINE
  5
216
330
70
100
AcDbEntity
  8
goonsite v2_Sketch1
100
AcDbLine
 10
-1.26798983848622
 20
0.0675000000000026
 30
0.0
 11
-0.460810161513775
 21
0.0675000000000026
 31
0.0
  0
ARC
  5
217
330
70
100
AcDbEntity
  8
goonsite v2_Sketch1
100
AcDbCircle
 10
-22.51161497308101
 20
-8.147500000000013
 30
0.0
 40
0.2000000000000135
100
AcDbArc
 50
89.99999999999694
 51
149.9999999999956
  0
LINE
  5
218
330
70
100
AcDbEntity
  8
goonsite v2_Sketch1
100
AcDbLine
 10
-0.05
 20
-7.9475
 30
0.0
 11
-0.0566649730810319
 21
-7.9475
 31
0.0
  0
LINE
  5
219
330
70
100
AcDbEntity
  8
goonsite v2_Sketch1
100
AcDbLine
 10
-0.460810161513775
 20
0.0675000000000026
 30
0.0
 11
-0.2298700538379252
 21
-0.3324999999999969
 31
0.0
  0
ARC
  5
21A
330
70
100
AcDbEntity
  8
goonsite v2_Sketch1
100
AcDbCircle
 10
0.0500000000000034
 20
-0.4825000000000009
 30
0.0
 40
0.0500000000000034
210
0.0
220
0.0
230
-1.0
100
AcDbArc
 50
89.99999999994313
 51
180.000000000001
  0
ARC
  5
21B
330
70
100
AcDbEntity
  8
goonsite v2_Sketch1
100
AcDbCircle
 10
-0.0566649730810371
 20
-8.1475
 30
0.0
 40
0.2000000000000002
100
AcDbArc
 50
89.9999999999985
 51
149.9999999999996
  0
LINE
  5
21C
330
70
100
AcDbEntity
  8
goonsite v2_Sketch1
100
AcDbLine
 10
0.0
 20
-0.4825000000000017
 30
0.0
 11
0.0000000000000003
 21
-7.897499999999999
 31
0.0
  0
ARC
  5
21D
330
70
100
AcDbEntity
  8
goonsite v2_Sketch1
100
AcDbCircle
 10
-1.672135026918956
 20
-0.2324999999999999
 30
0.0
 40
0.1999999999999975
100
AcDbArc
 50
269.999999999999
 51
330.0000000000006
  0
LINE
  5
21E
330
70
100
AcDbEntity
  8
goonsite v2_Sketch1
100
AcDbLine
 10
-24.18375000000001
 20
-7.897499999999999
 30
0.0
 11
-24.18375000000001
 21
-0.4825000000000017
 31
0.0
  0
LINE
  5
21F
330
70
100
AcDbEntity
  8
goonsite v2_Sketch1
100
AcDbLine
 10
-22.51161497308101
 20
-0.4325000000000011
 30
0.0
 11
-1.672135026918962
 21
-0.4324999999999975
 31
0.0
  0
ENDSEC
  0
SECTION
  2
OBJECTS
  0
DICTIONARY
  5
C
330
0
100
AcDbDictionary
281
     1
  3
ACAD_COLOR
350
63
  3
ACAD_DETAILVIEWSTYLE
350
6A
  3
ACAD_GROUP
350
D
  3
ACAD_LAYOUT
350
62
  3
ACAD_MATERIAL
350
10
  3
ACAD_MLEADERSTYLE
350
66
  3
ACAD_MLINESTYLE
350
5F
  3
ACAD_PLOTSETTINGS
350
61
  3
ACAD_PLOTSTYLENAME
350
E
  3
ACAD_SCALELIST
350
42
  3
ACAD_SECTIONVIEWSTYLE
350
68
  3
ACAD_TABLESTYLE
350
64
  3
ACAD_VISUALSTYLE
350
29
  3
ACDB_RECOMPOSE_DATA
350
228
  3
AcDbVariableDictionary
350
220
  0
DICTIONARY
  5
63
102
{ACAD_REACTORS
330
C
102
}
330
C
100
AcDbDictionary
281
     1
  0
DICTIONARY
  5
6A
102
{ACAD_REACTORS
330
C
102
}
330
C
100
AcDbDictionary
281
     1
  3
Imperial24
350
6B
  0
DICTIONARY
  5
D
102
{ACAD_REACTORS
330
C
102
}
330
C
100
AcDbDictionary
281
     1
  0
DICTIONARY
  5
62
102
{ACAD_REACTORS
330
C
102
}
330
C
100
AcDbDictionary
281
     1
  3
Layout1
350
6F
  3
Layout2
350
77
  3
Model
350
73
  0
DICTIONARY
  5
10
102
{ACAD_REACTORS
330
C
102
}
330
C
100
AcDbDictionary
281
     1
  3
ByBlock
350
19
  3
ByLayer
350
11
  3
Global
350
21
  0
DICTIONARY
  5
66
102
{ACAD_REACTORS
330
C
102
}
330
C
100
AcDbDictionary
281
     1
  3
Standard
350
67
  0
DICTIONARY
  5
5F
102
{ACAD_REACTORS
330
C
102
}
330
C
100
AcDbDictionary
281
     1
  3
Standard
350
60
  0
DICTIONARY
  5
61
102
{ACAD_REACTORS
330
C
102
}
330
C
100
AcDbDictionary
281
     1
  0
ACDBDICTIONARYWDFLT
  5
E
102
{ACAD_REACTORS
330
C
102
}
330
C
100
AcDbDictionary
281
     1
  3
Normal
350
F
100
AcDbDictionaryWithDefault
340
F
  0
DICTIONARY
  5
42
102
{ACAD_REACTORS
330
C
102
}
330
C
100
AcDbDictionary
281
     1
  3
A0
350
43
  3
A1
350
44
  3
A2
350
45
  3
A3
350
46
  3
A4
350
47
  3
A5
350
48
  3
A6
350
49
  3
A7
350
4A
  3
A8
350
4B
  3
A9
350
4C
  3
B0
350
4D
  3
B1
350
4E
  3
B2
350
4F
  3
B3
350
50
  3
B4
350
51
  3
B5
350
52
  3
B6
350
53
  0
DICTIONARY
  5
68
102
{ACAD_REACTORS
330
C
102
}
330
C
100
AcDbDictionary
281
     1
  3
Imperial24
350
69
  0
DICTIONARY
  5
64
102
{ACAD_REACTORS
330
C
102
}
330
C
100
AcDbDictionary
281
     1
  3
Standard
350
65
  0
DICTIONARY
  5
29
102
{ACAD_REACTORS
330
C
102
}
330
C
100
AcDbDictionary
281
     1
  3
2dWireframe
350
2F
  3
Basic
350
2E
  3
Brighten
350
35
  3
ColorChange
350
39
  3
Conceptual
350
32
  3
Dim
350
34
  3
EdgeColorOff
350
41
  3
Facepattern
350
38
  3
Flat
350
2A
  3
FlatWithEdges
350
2B
  3
Gouraud
350
2C
  3
GouraudWithEdges
350
2D
  3
Hidden
350
31
  3
JitterOff
350
3F
  3
Linepattern
350
37
  3
OverhangOff
350
40
  3
Realistic
350
33
  3
Shaded
350
3E
  3
Shaded with edges
350
3D
  3
Shades of Gray
350
3A
  3
Sketchy
350
3B
  3
Thicken
350
36
  3
Wireframe
350
30
  3
X-Ray
350
3C
  0
XRECORD
  5
228
102
{ACAD_REACTORS
330
C
102
}
330
C
100
AcDbXrecord
280
     1
 90
        1
330
65
  0
DICTIONARY
  5
220
102
{ACAD_REACTORS
330
C
102
}
330
C
100
AcDbDictionary
281
     1
  3
CANNOSCALE
350
225
  3
CMLEADERSTYLE
350
222
  3
CTABLESTYLE
350
221
  3
CVIEWDETAILSTYLE
350
223
  3
CVIEWSECTIONSTYLE
350
224
  0
ACDBDETAILVIEWSTYLE
  5
6B
102
{ACAD_XDICTIONARY
360
22B
102
}
102
{ACAD_REACTORS
330
6A
102
}
330
6A
100
AcDbModelDocViewStyle
 70
     0
  3
Imperial24
290
     0
100
AcDbDetailViewStyle
 70
     0
 71
     0
 90
        3
 71
     1
340
55
 62
   256
 40
0.24
340
0
 62
   256
 40
0.24
300

 40
0.36
280
     3
 71
     2
340
5D
 90
       25
 62
   256
 71
     3
340
55
 62
   256
 40
0.24
 90
        1
 40
0.75
 90
        1
300
%<\AcVar ViewType \f "%tc1">% %<\AcVar ViewDetailId>%\PSCALE %<\AcVar ViewScale \f "%sn">%
 71
     4
340
5D
 90
       25
 62
   256
340
5D
 90
       25
 62
   256
280
     0
  0
LAYOUT
  5
6F
102
{ACAD_REACTORS
330
62
102
}
330
62
100
AcDbPlotSettings
  1

  2

  4

  6

 40
0.0
 41
0.0
 42
0.0
 43
0.0
 44
0.0
 45
0.0
 46
0.0
 47
0.0
 48
0.0
 49
0.0
140
0.0
141
0.0
142
1.0
143
1.0
 70
   688
 72
     0
 73
     0
 74
     5
  7

 75
    16
147
1.0
 76
     0
 77
     2
 78
   300
148
0.0
149
0.0
100
AcDbLayout
  1
Layout1
 70
     1
 71
     1
 10
0.0
 20
0.0
 11
12.0
 21
9.0
 12
0.0
 22
0.0
 32
0.0
 14
0.0
 24
0.0
 34
0.0
 15
0.0
 25
0.0
 35
0.0
146
0.0
 13
0.0
 23
0.0
 33
0.0
 16
1.0
 26
0.0
 36
0.0
 17
0.0
 27
1.0
 37
0.0
 76
     0
330
6C
  0
LAYOUT
  5
77
102
{ACAD_REACTORS
330
62
102
}
330
62
100
AcDbPlotSettings
  1

  2

  4

  6

 40
0.0
 41
0.0
 42
0.0
 43
0.0
 44
0.0
 45
0.0
 46
0.0
 47
0.0
 48
0.0
 49
0.0
140
0.0
141
0.0
142
1.0
143
1.0
 70
   688
 72
     0
 73
     0
 74
     5
  7

 75
    16
147
1.0
 76
     0
 77
     2
 78
   300
148
0.0
149
0.0
100
AcDbLayout
  1
Layout2
 70
     1
 71
     2
 10
0.0
 20
0.0
 11
12.0
 21
9.0
 12
0.0
 22
0.0
 32
0.0
 14
0.0
 24
0.0
 34
0.0
 15
0.0
 25
0.0
 35
0.0
146
0.0
 13
0.0
 23
0.0
 33
0.0
 16
1.0
 26
0.0
 36
0.0
 17
0.0
 27
1.0
 37
0.0
 76
     0
330
74
  0
LAYOUT
  5
73
102
{ACAD_REACTORS
330
62
102
}
330
62
100
AcDbPlotSettings
  1

  2

  4

  6

 40
0.0
 41
0.0
 42
0.0
 43
0.0
 44
0.0
 45
0.0
 46
0.0
 47
0.0
 48
0.0
 49
0.0
140
0.0
141
0.0
142
1.0
143
1.0
 70
  1712
 72
     0
 73
     0
 74
     0
  7

 75
     0
147
1.0
 76
     0
 77
     2
 78
   300
148
0.0
149
0.0
100
AcDbLayout
  1
Model
 70
     1
 71
     0
 10
0.0
 20
0.0
 11
12.0
 21
9.0
 12
0.0
 22
0.0
 32
0.0
 14
0.0
 24
0.0
 34
0.0
 15
0.0
 25
0.0
 35
0.0
146
0.0
 13
0.0
 23
0.0
 33
0.0
 16
1.0
 26
0.0
 36
0.0
 17
0.0
 27
1.0
 37
0.0
 76
     0
330
70
  0
MATERIAL
  5
19
102
{ACAD_XDICTIONARY
360
1A
102
}
102
{ACAD_REACTORS
330
10
102
}
330
10
100
AcDbMaterial
  1
ByBlock
 72
     0
 43
0.0208333333333333
 43
0.0
 43
0.0
 43
0.0
 43
0.0
 43
0.0208333333333333
 43
0.0
 43
0.0
 43
0.0
 43
0.0
 43
1.0
 43
0.0
 43
0.0
 43
0.0
 43
0.0
 43
1.0
 77
     0
 47
0.0208333333333333
 47
0.0
 47
0.0
 47
0.0
 47
0.0
 47
0.0208333333333333
 47
0.0
 47
0.0
 47
0.0
 47
0.0
 47
1.0
 47
0.0
 47
0.0
 47
0.0
 47
0.0
 47
1.0
171
     0
 49
0.0208333333333333
 49
0.0
 49
0.0
 49
0.0
 49
0.0
 49
0.0208333333333333
 49
0.0
 49
0.0
 49
0.0
 49
0.0
 49
1.0
 49
0.0
 49
0.0
 49
0.0
 49
0.0
 49
1.0
175
     0
142
0.0208333333333333
142
0.0
142
0.0
142
0.0
142
0.0
142
0.0208333333333333
142
0.0
142
0.0
142
0.0
142
0.0
142
1.0
142
0.0
142
0.0
142
0.0
142
0.0
142
1.0
179
     0
144
0.0208333333333333
144
0.0
144
0.0
144
0.0
144
0.0
144
0.0208333333333333
144
0.0
144
0.0
144
0.0
144
0.0
144
1.0
144
0.0
144
0.0
144
0.0
144
0.0
144
1.0
147
0.0208333333333333
147
0.0
147
0.0
147
0.0
147
0.0
147
0.0208333333333333
147
0.0
147
0.0
147
0.0
147
0.0
147
1.0
147
0.0
147
0.0
147
0.0
147
0.0
147
1.0
  0
MATERIAL
  5
11
102
{ACAD_XDICTIONARY
360
12
102
}
102
{ACAD_REACTORS
330
10
102
}
330
10
100
AcDbMaterial
  1
ByLayer
 72
     0
 43
0.0208333333333333
 43
0.0
 43
0.0
 43
0.0
 43
0.0
 43
0.0208333333333333
 43
0.0
 43
0.0
 43
0.0
 43
0.0
 43
1.0
 43
0.0
 43
0.0
 43
0.0
 43
0.0
 43
1.0
 77
     0
 47
0.0208333333333333
 47
0.0
 47
0.0
 47
0.0
 47
0.0
 47
0.0208333333333333
 47
0.0
 47
0.0
 47
0.0
 47
0.0
 47
1.0
 47
0.0
 47
0.0
 47
0.0
 47
0.0
 47
1.0
171
     0
 49
0.0208333333333333
 49
0.0
 49
0.0
 49
0.0
 49
0.0
 49
0.0208333333333333
 49
0.0
 49
0.0
 49
0.0
 49
0.0
 49
1.0
 49
0.0
 49
0.0
 49
0.0
 49
0.0
 49
1.0
175
     0
142
0.0208333333333333
142
0.0
142
0.0
142
0.0
142
0.0
142
0.0208333333333333
142
0.0
142
0.0
142
0.0
142
0.0
142
1.0
142
0.0
142
0.0
142
0.0
142
0.0
142
1.0
179
     0
144
0.0208333333333333
144
0.0
144
0.0
144
0.0
144
0.0
144
0.0208333333333333
144
0.0
144
0.0
144
0.0
144
0.0
144
1.0
144
0.0
144
0.0
144
0.0
144
0.0
144
1.0
147
0.0208333333333333
147
0.0
147
0.0
147
0.0
147
0.0
147
0.0208333333333333
147
0.0
147
0.0
147
0.0
147
0.0
147
1.0
147
0.0
147
0.0
147
0.0
147
0.0
147
1.0
  0
MATERIAL
  5
21
102
{ACAD_XDICTIONARY
360
22
102
}
102
{ACAD_REACTORS
330
10
102
}
330
10
100
AcDbMaterial
  1
Global
 72
     0
 43
0.0208333333333333
 43
0.0
 43
0.0
 43
0.0
 43
0.0
 43
0.0208333333333333
 43
0.0
 43
0.0
 43
0.0
 43
0.0
 43
1.0
 43
0.0
 43
0.0
 43
0.0
 43
0.0
 43
1.0
 77
     0
 47
0.0208333333333333
 47
0.0
 47
0.0
 47
0.0
 47
0.0
 47
0.0208333333333333
 47
0.0
 47
0.0
 47
0.0
 47
0.0
 47
1.0
 47
0.0
 47
0.0
 47
0.0
 47
0.0
 47
1.0
171
     0
 49
0.0208333333333333
 49
0.0
 49
0.0
 49
0.0
 49
0.0
 49
0.0208333333333333
 49
0.0
 49
0.0
 49
0.0
 49
0.0
 49
1.0
 49
0.0
 49
0.0
 49
0.0
 49
0.0
 49
1.0
175
     0
142
0.0208333333333333
142
0.0
142
0.0
142
0.0
142
0.0
142
0.0208333333333333
142
0.0
142
0.0
142
0.0
142
0.0
142
1.0
142
0.0
142
0.0
142
0.0
142
0.0
142
1.0
179
     0
144
0.0208333333333333
144
0.0
144
0.0
144
0.0
144
0.0
144
0.0208333333333333
144
0.0
144
0.0
144
0.0
144
0.0
144
1.0
144
0.0
144
0.0
144
0.0
144
0.0
144
1.0
147
0.0208333333333333
147
0.0
147
0.0
147
0.0
147
0.0
147
0.0208333333333333
147
0.0
147
0.0
147
0.0
147
0.0
147
1.0
147
0.0
147
0.0
147
0.0
147
0.0
147
1.0
  0
MLEADERSTYLE
  5
67
102
{ACAD_REACTORS
330
66
102
}
330
66
100
AcDbMLeaderStyle
179
     2
170
     2
171
     1
172
     0
 90
        2
 40
0.0
 41
0.0
173
     1
 91
-1056964608
340
5B
 92
       -2
290
     1
 42
0.09
291
     1
 43
0.36
  3
Standard
 44
0.18
300

342
55
174
     1
178
     6
175
     1
176
     0
 93
-1056964608
 45
0.18
292
     0
297
     0
 46
0.18
 94
-1056964608
 47
1.0
 49
1.0
140
1.0
293
     1
141
0.0
294
     1
177
     0
142
1.0
295
     0
296
     0
143
0.125
271
     0
272
     9
273
     9
298
     1
  0
MLINESTYLE
  5
60
102
{ACAD_REACTORS
330
5F
102
}
330
5F
100
AcDbMlineStyle
  2
STANDARD
 70
     0
  3

 62
   256
 51
90.0
 52
90.0
 71
     2
 49
0.5
 62
   256
  6
BYLAYER
 49
-0.5
 62
   256
  6
BYLAYER
  0
ACDBPLACEHOLDER
  5
F
102
{ACAD_REACTORS
330
E
102
}
330
E
  0
SCALE
  5
43
102
{ACAD_REACTORS
330
42
102
}
330
42
100
AcDbScale
 70
     0
300
1:1
140
1.0
141
1.0
290
     1
  0
SCALE
  5
44
102
{ACAD_REACTORS
330
42
102
}
330
42
100
AcDbScale
 70
     0
300
1/128" = 1'-0"
140
0.0078125
141
12.0
290
     0
  0
SCALE
  5
45
102
{ACAD_REACTORS
330
42
102
}
330
42
100
AcDbScale
 70
     0
300
1/64" = 1'-0"
140
0.015625
141
12.0
290
     0
  0
SCALE
  5
46
102
{ACAD_REACTORS
330
42
102
}
330
42
100
AcDbScale
 70
     0
300
1/32" = 1'-0"
140
0.03125
141
12.0
290
     0
  0
SCALE
  5
47
102
{ACAD_REACTORS
330
42
102
}
330
42
100
AcDbScale
 70
     0
300
1/16" = 1'-0"
140
0.0625
141
12.0
290
     0
  0
SCALE
  5
48
102
{ACAD_REACTORS
330
42
102
}
330
42
100
AcDbScale
 70
     0
300
3/32" = 1'-0"
140
0.09375
141
12.0
290
     0
  0
SCALE
  5
49
102
{ACAD_REACTORS
330
42
102
}
330
42
100
AcDbScale
 70
     0
300
1/8" = 1'-0"
140
0.125
141
12.0
290
     0
  0
SCALE
  5
4A
102
{ACAD_REACTORS
330
42
102
}
330
42
100
AcDbScale
 70
     0
300
3/16" = 1'-0"
140
0.1875
141
12.0
290
     0
  0
SCALE
  5
4B
102
{ACAD_REACTORS
330
42
102
}
330
42
100
AcDbScale
 70
     0
300
1/4" = 1'-0"
140
0.25
141
12.0
290
     0
  0
SCALE
  5
4C
102
{ACAD_REACTORS
330
42
102
}
330
42
100
AcDbScale
 70
     0
300
3/8" = 1'-0"
140
0.375
141
12.0
290
     0
  0
SCALE
  5
4D
102
{ACAD_REACTORS
330
42
102
}
330
42
100
AcDbScale
 70
     0
300
1/2" = 1'-0"
140
0.5
141
12.0
290
     0
  0
SCALE
  5
4E
102
{ACAD_REACTORS
330
42
102
}
330
42
100
AcDbScale
 70
     0
300
3/4" = 1'-0"
140
0.75
141
12.0
290
     0
  0
SCALE
  5
4F
102
{ACAD_REACTORS
330
42
102
}
330
42
100
AcDbScale
 70
     0
300
1" = 1'-0"
140
1.0
141
12.0
290
     0
  0
SCALE
  5
50
102
{ACAD_REACTORS
330
42
102
}
330
42
100
AcDbScale
 70
     0
300
1-1/2" = 1'-0"
140
1.5
141
12.0
290
     0
  0
SCALE
  5
51
102
{ACAD_REACTORS
330
42
102
}
330
42
100
AcDbScale
 70
     0
300
3" = 1'-0"
140
3.0
141
12.0
290
     0
  0
SCALE
  5
52
102
{ACAD_REACTORS
330
42
102
}
330
42
100
AcDbScale
 70
     0
300
6" = 1'-0"
140
6.0
141
12.0
290
     0
  0
SCALE
  5
53
102
{ACAD_REACTORS
330
42
102
}
330
42
100
AcDbScale
 70
     0
300
1'-0" = 1'-0"
140
12.0
141
12.0
290
     0
  0
ACDBSECTIONVIEWSTYLE
  5
69
102
{ACAD_XDICTIONARY
360
229
102
}
102
{ACAD_REACTORS
330
68
102
}
330
68
100
AcDbModelDocViewStyle
 70
     0
  3
Imperial24
290
     0
100
AcDbSectionViewStyle
 70
     0
 71
     0
 90
       78
 71
     1
340
55
 62
   256
 40
0.24
340
0
340
0
 62
   256
 40
0.24
300
I, O, Q, S, X, Z
 40
0.48
 90
        3
 40
0.18
 90
        1
 71
     2
340
5D
 90
       25
 62
   256
340
5D
 90
       50
 62
   256
 40
0.24
 40
0.0
 40
0.24
 71
     3
340
55
 62
   256
 40
0.24
 90
        1
 40
0.75
 90
        1
300
%<\AcVar ViewType \f "%tc1">% %<\AcVar ViewSectionStartId>%-%<\AcVar ViewSectionEndId>%\PSCALE %<\AcVar ViewScale \f "%sn">%
 71
     4
 62
   256
 62
   257
300
ANSI31
 40
1.0
 90
        0
290
     0
290
     0
 90
        6
 40
0.0
 40
1.570796326794896
 40
0.2617993877991494
 40
1.308996938995747
 40
-0.2617993877991494
 40
1.832595714594046
  0
TABLESTYLE
  5
65
102
{ACAD_XDICTIONARY
360
226
102
}
102
{ACAD_REACTORS
330
64
102
}
330
64
100
AcDbTableStyle
280
     0
  3
Standard
 70
     0
 71
     0
 40
0.06
 41
0.06
280
     0
281
     0
  7
Standard
140
0.18
170
     2
 62
     0
 63
     7
283
     0
 90
      512
 91
        0
  1

274
    -2
284
     1
 64
     0
275
    -2
285
     1
 65
     0
276
    -2
286
     1
 66
     0
277
    -2
287
     1
 67
     0
278
    -2
288
     1
 68
     0
279
    -2
289
     1
 69
     0
  7
Standard
140
0.25
170
     5
 62
     0
 63
     7
283
     0
 90
      512
 91
        0
  1

274
    -2
284
     1
 64
     0
275
    -2
285
     1
 65
     0
276
    -2
286
     1
 66
     0
277
    -2
287
     1
 67
     0
278
    -2
288
     1
 68
     0
279
    -2
289
     1
 69
     0
  7
Standard
140
0.18
170
     5
 62
     0
 63
     7
283
     0
 90
      512
 91
        0
  1

274
    -2
284
     1
 64
     0
275
    -2
285
     1
 65
     0
276
    -2
286
     1
 66
     0
277
    -2
287
     1
 67
     0
278
    -2
288
     1
 68
     0
279
    -2
289
     1
 69
     0
  0
VISUALSTYLE
  5
2F
102
{ACAD_REACTORS
330
29
102
}
330
29
100
AcDbVisualStyle
  2
2dWireframe
 70
     4
177
     3
291
     0
 70
    58
 90
        0
176
     1
 90
        2
176
     1
 90
        0
176
     1
 90
        0
176
     1
 40
0.6
176
     1
 40
30.0
176
     1
 62
     7
420
 16777215
176
     1
 90
        1
176
     1
 90
        4
176
     1
 62
     7
176
     1
 62
   257
176
     1
 90
        1
176
     1
 90
        1
176
     1
 40
1.0
176
     1
 90
        0
176
     1
 62
   257
176
     1
 40
1.0
176
     1
 90
        1
176
     1
 90
        6
176
     1
 90
        2
176
     1
 62
     7
176
     1
 90
        5
176
     1
 90
        0
176
     1
 90
        0
176
     1
290
     0
176
     1
 90
        1
176
     1
 40
0.0
176
     1
 90
        0
176
     1
290
     1
176
     1
290
     1
176
     1
290
     0
176
     1
290
     0
176
     1
290
     0
176
     1
290
     0
176
     1
290
     0
176
     1
290
     0
176
     1
290
     0
176
     1
 90
       50
176
     1
 40
0.0
176
     1
 40
1.0
176
     1
 90
        0
176
     1
 62
    18
420
        0
176
     1
 90
       50
176
     1
 90
        3
176
     1
 62
     5
420
      255
176
     1
290
     0
176
     1
 90
       50
176
     1
 90
       50
176
     1
 90
       50
176
     1
290
     0
176
     1
 90
       50
176
     1
 62
   256
176
     0
 40
1.0
176
     0
 90
        2
176
     1
  1
strokes_ogs.tif
176
     1
290
     0
176
     1
 40
1.0
176
     1
 40
1.0
176
     1
1001
ACAD
1000
AcDbSavedByObjectVersion
1070
     0
  0
VISUALSTYLE
  5
2E
102
{ACAD_REACTORS
330
29
102
}
330
29
100
AcDbVisualStyle
  2
Basic
 70
     7
177
     3
291
     1
 70
    58
 90
        1
176
     1
 90
        0
176
     1
 90
        1
176
     1
 90
        0
176
     1
 40
0.6
176
     1
 40
30.0
176
     1
 62
     7
420
 16777215
176
     1
 90
        0
176
     1
 90
        4
176
     1
 62
     7
176
     1
 62
   257
176
     1
 90
        1
176
     1
 90
        1
176
     1
 40
1.0
176
     1
 90
        8
176
     1
 62
     7
176
     1
 40
1.0
176
     1
 90
        1
176
     1
 90
        6
176
     1
 90
        2
176
     1
 62
     7
176
     1
 90
        5
176
     1
 90
        0
176
     1
 90
        0
176
     1
290
     0
176
     1
 90
        1
176
     1
 40
0.0
176
     1
 90
        0
176
     1
290
     0
176
     1
290
     1
176
     1
290
     1
176
     1
290
     0
176
     1
290
     0
176
     1
290
     0
176
     1
290
     0
176
     1
290
     0
176
     1
290
     0
176
     1
 90
       50
176
     1
 40
0.0
176
     1
 40
1.0
176
     1
 90
        0
176
     1
 62
    18
420
        0
176
     1
 90
       50
176
     1
 90
        3
176
     1
 62
     5
420
      255
176
     1
290
     0
176
     1
 90
       50
176
     1
 90
       50
176
     1
 90
       50
176
     1
290
     0
176
     1
 90
       50
176
     1
 62
   256
176
     0
 40
1.0
176
     0
 90
        2
176
     1
  1
strokes_ogs.tif
176
     1
290
     0
176
     1
 40
1.0
176
     1
 40
1.0
176
     1
1001
ACAD
1000
AcDbSavedByObjectVersion
1070
     0
  0
VISUALSTYLE
  5
35
102
{ACAD_REACTORS
330
29
102
}
330
29
100
AcDbVisualStyle
  2
Brighten
 70
    12
177
     3
291
     1
 70
    58
 90
        2
176
     1
 90
        2
176
     1
 90
        0
176
     1
 90
        0
176
     1
 40
0.6
176
     1
 40
30.0
176
     1
 62
     7
420
 16777215
176
     1
 90
        1
176
     1
 90
        4
176
     1
 62
     7
176
     1
 62
   257
176
     1
 90
        1
176
     1
 90
        1
176
     1
 40
1.0
176
     1
 90
        8
176
     1
 62
     7
176
     1
 40
1.0
176
     1
 90
        1
176
     1
 90
        6
176
     1
 90
        2
176
     1
 62
     7
176
     1
 90
        5
176
     1
 90
        0
176
     1
 90
        0
176
     1
290
     0
176
     1
 90
        1
176
     1
 40
50.0
176
     1
 90
        0
176
     1
290
     0
176
     1
290
     1
176
     1
290
     1
176
     1
290
     0
176
     1
290
     0
176
     1
290
     0
176
     1
290
     0
176
     1
290
     0
176
     1
290
     0
176
     1
 90
       50
176
     1
 40
0.0
176
     1
 40
1.0
176
     1
 90
        0
176
     1
 62
    18
420
        0
176
     1
 90
       50
176
     1
 90
        3
176
     1
 62
     5
420
      255
176
     1
290
     0
176
     1
 90
       50
176
     1
 90
       50
176
     1
 90
       50
176
     1
290
     0
176
     1
 90
       50
176
     1
 62
   256
176
     0
 40
1.0
176
     0
 90
        2
176
     1
  1
strokes_ogs.tif
176
     1
290
     0
176
     1
 40
1.0
176
     1
 40
1.0
176
     1
1001
ACAD
1000
AcDbSavedByObjectVersion
1070
     0
  0
VISUALSTYLE
  5
39
102
{ACAD_REACTORS
330
29
102
}
330
29
100
AcDbVisualStyle
  2
ColorChange
 70
    16
177
     3
291
     1
 70
    58
 90
        2
176
     1
 90
        2
176
     1
 90
        3
176
     1
 90
        0
176
     1
 40
0.6
176
     1
 40
30.0
176
     1
 62
     8
420
  8421504
176
     1
 90
        1
176
     1
 90
        4
176
     1
 62
     7
176
     1
 62
   257
176
     1
 90
        1
176
     1
 90
        1
176
     1
 40
1.0
176
     1
 90
        8
176
     1
 62
     8
420
  8421504
176
     1
 40
1.0
176
     1
 90
        1
176
     1
 90
        6
176
     1
 90
        2
176
     1
 62
     7
176
     1
 90
        5
176
     1
 90
        0
176
     1
 90
        0
176
     1
290
     0
176
     1
 90
        1
176
     1
 40
0.0
176
     1
 90
        0
176
     1
290
     0
176
     1
290
     1
176
     1
290
     1
176
     1
290
     0
176
     1
290
     0
176
     1
290
     0
176
     1
290
     0
176
     1
290
     0
176
     1
290
     0
176
     1
 90
       50
176
     1
 40
0.0
176
     1
 40
1.0
176
     1
 90
        0
176
     1
 62
    18
420
        0
176
     1
 90
       50
176
     1
 90
        3
176
     1
 62
     5
420
      255
176
     1
290
     0
176
     1
 90
       50
176
     1
 90
       50
176
     1
 90
       50
176
     1
290
     0
176
     1
 90
       50
176
     1
 62
   256
176
     0
 40
1.0
176
     0
 90
        2
176
     1
  1
strokes_ogs.tif
176
     1
290
     0
176
     1
 40
1.0
176
     1
 40
1.0
176
     1
1001
ACAD
1000
AcDbSavedByObjectVersion
1070
     0
  0
VISUALSTYLE
  5
32
102
{ACAD_REACTORS
330
29
102
}
330
29
100
AcDbVisualStyle
  2
Conceptual
 70
     9
177
     3
291
     0
 70
    58
 90
        3
176
     1
 90
        2
176
     1
 90
        0
176
     1
 90
        0
176
     1
 40
0.6
176
     1
 40
30.0
176
     1
 62
     7
420
 16777215
176
     1
 90
        2
176
     1
 90
        2
176
     1
 62
     7
176
     1
 62
   257
176
     1
 90
        1
176
     1
 90
        1
176
     1
 40
179.0
176
     1
 90
        8
176
     1
 62
     7
176
     1
 40
1.0
176
     1
 90
        1
176
     1
 90
        6
176
     1
 90
        2
176
     1
 62
     7
176
     1
 90
        3
176
     1
 90
        0
176
     1
 90
        0
176
     1
290
     0
176
     1
 90
        1
176
     1
 40
0.0
176
     1
 90
        0
176
     1
290
     0
176
     1
290
     1
176
     1
290
     1
176
     1
290
     0
176
     1
290
     0
176
     1
290
     0
176
     1
290
     0
176
     1
290
     0
176
     1
290
     0
176
     1
 90
       50
176
     1
 40
0.0
176
     1
 40
1.0
176
     1
 90
        0
176
     1
 62
    18
420
        0
176
     1
 90
       50
176
     1
 90
        3
176
     1
 62
     5
420
      255
176
     1
290
     0
176
     1
 90
       50
176
     1
 90
       50
176
     1
 90
       50
176
     1
290
     0
176
     1
 90
       50
176
     1
 62
   256
176
     0
 40
1.0
176
     0
 90
        2
176
     1
  1
strokes_ogs.tif
176
     1
290
     0
176
     1
 40
1.0
176
     1
 40
1.0
176
     1
1001
ACAD
1000
AcDbSavedByObjectVersion
1070
     0
  0
VISUALSTYLE
  5
34
102
{ACAD_REACTORS
330
29
102
}
330
29
100
AcDbVisualStyle
  2
Dim
 70
    11
177
     3
291
     1
 70
    58
 90
        2
176
     1
 90
        2
176
     1
 90
        0
176
     1
 90
        0
176
     1
 40
0.6
176
     1
 40
30.0
176
     1
 62
     7
420
 16777215
176
     1
 90
        1
176
     1
 90
        4
176
     1
 62
     7
176
     1
 62
   257
176
     1
 90
        1
176
     1
 90
        1
176
     1
 40
1.0
176
     1
 90
        8
176
     1
 62
     7
176
     1
 40
1.0
176
     1
 90
        1
176
     1
 90
        6
176
     1
 90
        2
176
     1
 62
     7
176
     1
 90
        5
176
     1
 90
        0
176
     1
 90
        0
176
     1
290
     0
176
     1
 90
        1
176
     1
 40
-50.0
176
     1
 90
        0
176
     1
290
     0
176
     1
290
     1
176
     1
290
     1
176
     1
290
     0
176
     1
290
     0
176
     1
290
     0
176
     1
290
     0
176
     1
290
     0
176
     1
290
     0
176
     1
 90
       50
176
     1
 40
0.0
176
     1
 40
1.0
176
     1
 90
        0
176
     1
 62
    18
420
        0
176
     1
 90
       50
176
     1
 90
        3
176
     1
 62
     5
420
      255
176
     1
290
     0
176
     1
 90
       50
176
     1
 90
       50
176
     1
 90
       50
176
     1
290
     0
176
     1
 90
       50
176
     1
 62
   256
176
     0
 40
1.0
176
     0
 90
        2
176
     1
  1
strokes_ogs.tif
176
     1
290
     0
176
     1
 40
1.0
176
     1
 40
1.0
176
     1
1001
ACAD
1000
AcDbSavedByObjectVersion
1070
     0
  0
VISUALSTYLE
  5
41
102
{ACAD_REACTORS
330
29
102
}
330
29
100
AcDbVisualStyle
  2
EdgeColorOff
 70
    22
177
     3
291
     1
 70
    58
 90
        2
176
     0
 90
        2
176
     0
 90
        0
176
     0
 90
        0
176
     0
 40
0.6
176
     0
 40
30.0
176
     0
 62
     7
420
 16777215
176
     0
 90
        1
176
     0
 90
        4
176
     0
 62
     7
176
     0
 62
   257
176
     0
 90
        1
176
     0
 90
        1
176
     0
 40
1.0
176
     0
 90
        8
176
     2
 62
     7
176
     0
 40
1.0
176
     0
 90
        1
176
     0
 90
        6
176
     0
 90
        2
176
     0
 62
     7
176
     0
 90
        5
176
     0
 90
        0
176
     0
 90
        0
176
     0
290
     0
176
     0
 90
        1
176
     0
 40
0.0
176
     0
 90
        0
176
     0
290
     0
176
     0
290
     1
176
     0
290
     1
176
     0
290
     0
176
     0
290
     0
176
     0
290
     0
176
     0
290
     0
176
     0
290
     0
176
     0
290
     0
176
     0
 90
       50
176
     0
 40
0.0
176
     0
 40
1.0
176
     0
 90
        0
176
     0
 62
    18
420
        0
176
     0
 90
       50
176
     0
 90
        3
176
     0
 62
     5
420
      255
176
     0
290
     0
176
     0
 90
       50
176
     0
 90
       50
176
     0
 90
       50
176
     0
290
     0
176
     0
 90
       50
176
     0
 62
   256
176
     0
 40
1.0
176
     0
 90
        2
176
     0
  1
strokes_ogs.tif
176
     0
290
     0
176
     0
 40
1.0
176
     0
 40
1.0
176
     0
1001
ACAD
1000
AcDbSavedByObjectVersion
1070
     0
  0
VISUALSTYLE
  5
38
102
{ACAD_REACTORS
330
29
102
}
330
29
100
AcDbVisualStyle
  2
Facepattern
 70
    15
177
     3
291
     1
 70
    58
 90
        2
176
     1
 90
        2
176
     1
 90
        0
176
     1
 90
        0
176
     1
 40
0.6
176
     1
 40
30.0
176
     1
 62
     7
420
 16777215
176
     1
 90
        1
176
     1
 90
        4
176
     1
 62
     7
176
     1
 62
   257
176
     1
 90
        1
176
     1
 90
        1
176
     1
 40
1.0
176
     1
 90
        8
176
     1
 62
     7
176
     1
 40
1.0
176
     1
 90
        1
176
     1
 90
        6
176
     1
 90
        2
176
     1
 62
     7
176
     1
 90
        5
176
     1
 90
        0
176
     1
 90
        0
176
     1
290
     0
176
     1
 90
        1
176
     1
 40
0.0
176
     1
 90
        0
176
     1
290
     0
176
     1
290
     1
176
     1
290
     1
176
     1
290
     0
176
     1
290
     0
176
     1
290
     0
176
     1
290
     0
176
     1
290
     0
176
     1
290
     0
176
     1
 90
       50
176
     1
 40
0.0
176
     1
 40
1.0
176
     1
 90
        0
176
     1
 62
    18
420
        0
176
     1
 90
       50
176
     1
 90
        3
176
     1
 62
     5
420
      255
176
     1
290
     0
176
     1
 90
       50
176
     1
 90
       50
176
     1
 90
       50
176
     1
290
     0
176
     1
 90
       50
176
     1
 62
   256
176
     0
 40
1.0
176
     0
 90
        2
176
     1
  1
strokes_ogs.tif
176
     1
290
     0
176
     1
 40
1.0
176
     1
 40
1.0
176
     1
1001
ACAD
1000
AcDbSavedByObjectVersion
1070
     0
  0
VISUALSTYLE
  5
2A
102
{ACAD_REACTORS
330
29
102
}
330
29
100
AcDbVisualStyle
  2
Flat
 70
     0
177
     3
291
     1
 70
    58
 90
        2
176
     1
 90
        1
176
     1
 90
        1
176
     1
 90
        2
176
     1
 40
0.6
176
     1
 40
30.0
176
     1
 62
     7
420
 16777215
176
     1
 90
        0
176
     1
 90
        0
176
     1
 62
     7
176
     1
 62
   257
176
     1
 90
        1
176
     1
 90
        1
176
     1
 40
1.0
176
     1
 90
        8
176
     1
 62
     7
176
     1
 40
1.0
176
     1
 90
        1
176
     1
 90
        6
176
     1
 90
        2
176
     1
 62
     7
176
     1
 90
        5
176
     1
 90
        0
176
     1
 90
        0
176
     1
290
     0
176
     1
 90
       13
176
     1
 40
0.0
176
     1
 90
        0
176
     1
290
     0
176
     1
290
     1
176
     1
290
     1
176
     1
290
     0
176
     1
290
     0
176
     1
290
     0
176
     1
290
     0
176
     1
290
     0
176
     1
290
     0
176
     1
 90
       50
176
     1
 40
0.0
176
     1
 40
1.0
176
     1
 90
        0
176
     1
 62
    18
420
        0
176
     1
 90
       50
176
     1
 90
        3
176
     1
 62
     5
420
      255
176
     1
290
     0
176
     1
 90
       50
176
     1
 90
       50
176
     1
 90
       50
176
     1
290
     0
176
     1
 90
       50
176
     1
 62
   256
176
     0
 40
1.0
176
     0
 90
        2
176
     1
  1
strokes_ogs.tif
176
     1
290
     0
176
     1
 40
1.0
176
     1
 40
1.0
176
     1
1001
ACAD
1000
AcDbSavedByObjectVersion
1070
     0
  0
VISUALSTYLE
  5
2B
102
{ACAD_REACTORS
330
29
102
}
330
29
100
AcDbVisualStyle
  2
FlatWithEdges
 70
     1
177
     3
291
     1
 70
    58
 90
        2
176
     1
 90
        1
176
     1
 90
        1
176
     1
 90
        2
176
     1
 40
0.6
176
     1
 40
30.0
176
     1
 62
     7
420
 16777215
176
     1
 90
        1
176
     1
 90
        0
176
     1
 62
     7
176
     1
 62
   257
176
     1
 90
        1
176
     1
 90
        1
176
     1
 40
1.0
176
     1
 90
        0
176
     1
 62
   257
176
     1
 40
1.0
176
     1
 90
        1
176
     1
 90
        6
176
     1
 90
        2
176
     1
 62
     7
176
     1
 90
        5
176
     1
 90
        0
176
     1
 90
        0
176
     1
290
     0
176
     1
 90
       13
176
     1
 40
0.0
176
     1
 90
        0
176
     1
290
     0
176
     1
290
     1
176
     1
290
     1
176
     1
290
     0
176
     1
290
     0
176
     1
290
     0
176
     1
290
     0
176
     1
290
     0
176
     1
290
     0
176
     1
 90
       50
176
     1
 40
0.0
176
     1
 40
1.0
176
     1
 90
        0
176
     1
 62
    18
420
        0
176
     1
 90
       50
176
     1
 90
        3
176
     1
 62
     5
420
      255
176
     1
290
     0
176
     1
 90
       50
176
     1
 90
       50
176
     1
 90
       50
176
     1
290
     0
176
     1
 90
       50
176
     1
 62
   256
176
     0
 40
1.0
176
     0
 90
        2
176
     1
  1
strokes_ogs.tif
176
     1
290
     0
176
     1
 40
1.0
176
     1
 40
1.0
176
     1
1001
ACAD
1000
AcDbSavedByObjectVersion
1070
     0
  0
VISUALSTYLE
  5
2C
102
{ACAD_REACTORS
330
29
102
}
330
29
100
AcDbVisualStyle
  2
Gouraud
 70
     2
177
     3
291
     1
 70
    58
 90
        2
176
     1
 90
        2
176
     1
 90
        1
176
     1
 90
        2
176
     1
 40
0.6
176
     1
 40
30.0
176
     1
 62
     7
420
 16777215
176
     1
 90
        0
176
     1
 90
        0
176
     1
 62
     7
176
     1
 62
   257
176
     1
 90
        1
176
     1
 90
        1
176
     1
 40
1.0
176
     1
 90
        0
176
     1
 62
     7
176
     1
 40
1.0
176
     1
 90
        1
176
     1
 90
        6
176
     1
 90
        2
176
     1
 62
     7
176
     1
 90
        5
176
     1
 90
        0
176
     1
 90
        0
176
     1
290
     0
176
     1
 90
       13
176
     1
 40
0.0
176
     1
 90
        0
176
     1
290
     0
176
     1
290
     1
176
     1
290
     1
176
     1
290
     0
176
     1
290
     0
176
     1
290
     0
176
     1
290
     0
176
     1
290
     0
176
     1
290
     0
176
     1
 90
       50
176
     1
 40
0.0
176
     1
 40
1.0
176
     1
 90
        0
176
     1
 62
    18
420
        0
176
     1
 90
       50
176
     1
 90
        3
176
     1
 62
     5
420
      255
176
     1
290
     0
176
     1
 90
       50
176
     1
 90
       50
176
     1
 90
       50
176
     1
290
     0
176
     1
 90
       50
176
     1
 62
   256
176
     0
 40
1.0
176
     0
 90
        2
176
     1
  1
strokes_ogs.tif
176
     1
290
     0
176
     1
 40
1.0
176
     1
 40
1.0
176
     1
1001
ACAD
1000
AcDbSavedByObjectVersion
1070
     0
  0
VISUALSTYLE
  5
2D
102
{ACAD_REACTORS
330
29
102
}
330
29
100
AcDbVisualStyle
  2
GouraudWithEdges
 70
     3
177
     3
291
     1
 70
    58
 90
        2
176
     1
 90
        2
176
     1
 90
        1
176
     1
 90
        2
176
     1
 40
0.6
176
     1
 40
30.0
176
     1
 62
     7
420
 16777215
176
     1
 90
        1
176
     1
 90
        0
176
     1
 62
     7
176
     1
 62
   257
176
     1
 90
        1
176
     1
 90
        1
176
     1
 40
1.0
176
     1
 90
        0
176
     1
 62
   257
176
     1
 40
1.0
176
     1
 90
        1
176
     1
 90
        6
176
     1
 90
        2
176
     1
 62
     7
176
     1
 90
        5
176
     1
 90
        0
176
     1
 90
        0
176
     1
290
     0
176
     1
 90
       13
176
     1
 40
0.0
176
     1
 90
        0
176
     1
290
     0
176
     1
290
     1
176
     1
290
     1
176
     1
290
     0
176
     1
290
     0
176
     1
290
     0
176
     1
290
     0
176
     1
290
     0
176
     1
290
     0
176
     1
 90
       50
176
     1
 40
0.0
176
     1
 40
1.0
176
     1
 90
        0
176
     1
 62
    18
420
        0
176
     1
 90
       50
176
     1
 90
        3
176
     1
 62
     5
420
      255
176
     1
290
     0
176
     1
 90
       50
176
     1
 90
       50
176
     1
 90
       50
176
     1
290
     0
176
     1
 90
       50
176
     1
 62
   256
176
     0
 40
1.0
176
     0
 90
        2
176
     1
  1
strokes_ogs.tif
176
     1
290
     0
176
     1
 40
1.0
176
     1
 40
1.0
176
     1
1001
ACAD
1000
AcDbSavedByObjectVersion
1070
     0
  0
VISUALSTYLE
  5
31
102
{ACAD_REACTORS
330
29
102
}
330
29
100
AcDbVisualStyle
  2
Hidden
 70
     6
177
     3
291
     0
 70
    58
 90
        1
176
     1
 90
        2
176
     1
 90
        2
176
     1
 90
        0
176
     1
 40
0.6
176
     1
 40
30.0
176
     1
 62
     7
420
 16777215
176
     1
 90
        2
176
     1
 90
        2
176
     1
 62
     7
176
     1
 62
   257
176
     1
 90
        2
176
     1
 90
        1
176
     1
 40
40.0
176
     1
 90
        0
176
     1
 62
   257
176
     1
 40
1.0
176
     1
 90
        1
176
     1
 90
        6
176
     1
 90
        2
176
     1
 62
     7
176
     1
 90
        3
176
     1
 90
        0
176
     1
 90
        0
176
     1
290
     0
176
     1
 90
        1
176
     1
 40
0.0
176
     1
 90
        0
176
     1
290
     0
176
     1
290
     1
176
     1
290
     1
176
     1
290
     0
176
     1
290
     0
176
     1
290
     0
176
     1
290
     0
176
     1
290
     0
176
     1
290
     0
176
     1
 90
       50
176
     1
 40
0.0
176
     1
 40
1.0
176
     1
 90
        0
176
     1
 62
    18
420
        0
176
     1
 90
       50
176
     1
 90
        3
176
     1
 62
     5
420
      255
176
     1
290
     0
176
     1
 90
       50
176
     1
 90
       50
176
     1
 90
       50
176
     1
290
     0
176
     1
 90
       50
176
     1
 62
   256
176
     0
 40
1.0
176
     0
 90
        2
176
     1
  1
strokes_ogs.tif
176
     1
290
     0
176
     1
 40
1.0
176
     1
 40
1.0
176
     1
1001
ACAD
1000
AcDbSavedByObjectVersion
1070
     0
  0
VISUALSTYLE
  5
3F
102
{ACAD_REACTORS
330
29
102
}
330
29
100
AcDbVisualStyle
  2
JitterOff
 70
    20
177
     3
291
     1
 70
    58
 90
        2
176
     0
 90
        2
176
     0
 90
        0
176
     0
 90
        0
176
     0
 40
0.6
176
     0
 40
30.0
176
     0
 62
     7
420
 16777215
176
     0
 90
        1
176
     0
 90
        4
176
     0
 62
     7
176
     0
 62
   257
176
     0
 90
        1
176
     0
 90
        1
176
     0
 40
1.0
176
     0
 90
       10
176
     2
 62
     7
176
     0
 40
1.0
176
     0
 90
        1
176
     0
 90
        6
176
     0
 90
        2
176
     0
 62
     7
176
     0
 90
        5
176
     0
 90
        0
176
     0
 90
        0
176
     0
290
     0
176
     0
 90
        1
176
     0
 40
0.0
176
     0
 90
        0
176
     0
290
     0
176
     0
290
     1
176
     0
290
     1
176
     0
290
     0
176
     0
290
     0
176
     0
290
     0
176
     0
290
     0
176
     0
290
     0
176
     0
290
     0
176
     0
 90
       50
176
     0
 40
0.0
176
     0
 40
1.0
176
     0
 90
        0
176
     0
 62
    18
420
        0
176
     0
 90
       50
176
     0
 90
        3
176
     0
 62
     5
420
      255
176
     0
290
     0
176
     0
 90
       50
176
     0
 90
       50
176
     0
 90
       50
176
     0
290
     0
176
     0
 90
       50
176
     0
 62
   256
176
     0
 40
1.0
176
     0
 90
        2
176
     0
  1
strokes_ogs.tif
176
     0
290
     0
176
     0
 40
1.0
176
     0
 40
1.0
176
     0
1001
ACAD
1000
AcDbSavedByObjectVersion
1070
     0
  0
VISUALSTYLE
  5
37
102
{ACAD_REACTORS
330
29
102
}
330
29
100
AcDbVisualStyle
  2
Linepattern
 70
    14
177
     3
291
     1
 70
    58
 90
        2
176
     1
 90
        2
176
     1
 90
        0
176
     1
 90
        0
176
     1
 40
0.6
176
     1
 40
30.0
176
     1
 62
     7
420
 16777215
176
     1
 90
        1
176
     1
 90
        4
176
     1
 62
     7
176
     1
 62
   257
176
     1
 90
        7
176
     1
 90
        7
176
     1
 40
1.0
176
     1
 90
        8
176
     1
 62
     7
176
     1
 40
1.0
176
     1
 90
        1
176
     1
 90
        6
176
     1
 90
        2
176
     1
 62
     7
176
     1
 90
        5
176
     1
 90
        0
176
     1
 90
        0
176
     1
290
     0
176
     1
 90
        1
176
     1
 40
0.0
176
     1
 90
        0
176
     1
290
     0
176
     1
290
     1
176
     1
290
     1
176
     1
290
     0
176
     1
290
     0
176
     1
290
     0
176
     1
290
     0
176
     1
290
     0
176
     1
290
     0
176
     1
 90
       50
176
     1
 40
0.0
176
     1
 40
1.0
176
     1
 90
        0
176
     1
 62
    18
420
        0
176
     1
 90
       50
176
     1
 90
        3
176
     1
 62
     5
420
      255
176
     1
290
     0
176
     1
 90
       50
176
     1
 90
       50
176
     1
 90
       50
176
     1
290
     0
176
     1
 90
       50
176
     1
 62
   256
176
     0
 40
1.0
176
     0
 90
        2
176
     1
  1
strokes_ogs.tif
176
     1
290
     0
176
     1
 40
1.0
176
     1
 40
1.0
176
     1
1001
ACAD
1000
AcDbSavedByObjectVersion
1070
     0
  0
VISUALSTYLE
  5
40
102
{ACAD_REACTORS
330
29
102
}
330
29
100
AcDbVisualStyle
  2
OverhangOff
 70
    21
177
     3
291
     1
 70
    58
 90
        2
176
     0
 90
        2
176
     0
 90
        0
176
     0
 90
        0
176
     0
 40
0.6
176
     0
 40
30.0
176
     0
 62
     7
420
 16777215
176
     0
 90
        1
176
     0
 90
        4
176
     0
 62
     7
176
     0
 62
   257
176
     0
 90
        1
176
     0
 90
        1
176
     0
 40
1.0
176
     0
 90
        9
176
     2
 62
     7
176
     0
 40
1.0
176
     0
 90
        1
176
     0
 90
        6
176
     0
 90
        2
176
     0
 62
     7
176
     0
 90
        5
176
     0
 90
        0
176
     0
 90
        0
176
     0
290
     0
176
     0
 90
        1
176
     0
 40
0.0
176
     0
 90
        0
176
     0
290
     0
176
     0
290
     1
176
     0
290
     1
176
     0
290
     0
176
     0
290
     0
176
     0
290
     0
176
     0
290
     0
176
     0
290
     0
176
     0
290
     0
176
     0
 90
       50
176
     0
 40
0.0
176
     0
 40
1.0
176
     0
 90
        0
176
     0
 62
    18
420
        0
176
     0
 90
       50
176
     0
 90
        3
176
     0
 62
     5
420
      255
176
     0
290
     0
176
     0
 90
       50
176
     0
 90
       50
176
     0
 90
       50
176
     0
290
     0
176
     0
 90
       50
176
     0
 62
   256
176
     0
 40
1.0
176
     0
 90
        2
176
     0
  1
strokes_ogs.tif
176
     0
290
     0
176
     0
 40
1.0
176
     0
 40
1.0
176
     0
1001
ACAD
1000
AcDbSavedByObjectVersion
1070
     0
  0
VISUALSTYLE
  5
33
102
{ACAD_REACTORS
330
29
102
}
330
29
100
AcDbVisualStyle
  2
Realistic
 70
     8
177
     3
291
     0
 70
    58
 90
        2
176
     1
 90
        3
176
     1
 90
        0
176
     1
 90
        2
176
     1
 40
0.6
176
     1
 40
30.0
176
     1
 62
     7
420
 16777215
176
     1
 90
        0
176
     1
 90
        0
176
     1
 62
     7
176
     1
 62
   257
176
     1
 90
        1
176
     1
 90
        1
176
     1
 40
1.0
176
     1
 90
        8
176
     1
 62
   257
176
     1
 40
1.0
176
     1
 90
        1
176
     1
 90
        6
176
     1
 90
        2
176
     1
 62
     7
176
     1
 90
        3
176
     1
 90
        0
176
     1
 90
        0
176
     1
290
     0
176
     1
 90
       13
176
     1
 40
0.0
176
     1
 90
        0
176
     1
290
     0
176
     1
290
     1
176
     1
290
     1
176
     1
290
     0
176
     1
290
     0
176
     1
290
     0
176
     1
290
     0
176
     1
290
     0
176
     1
290
     0
176
     1
 90
       50
176
     1
 40
0.0
176
     1
 40
1.0
176
     1
 90
        0
176
     1
 62
    18
420
        0
176
     1
 90
       50
176
     1
 90
        3
176
     1
 62
     5
420
      255
176
     1
290
     0
176
     1
 90
       50
176
     1
 90
       50
176
     1
 90
       50
176
     1
290
     0
176
     1
 90
       50
176
     1
 62
   256
176
     0
 40
1.0
176
     0
 90
        2
176
     1
  1
strokes_ogs.tif
176
     1
290
     0
176
     1
 40
1.0
176
     1
 40
1.0
176
     1
1001
ACAD
1000
AcDbSavedByObjectVersion
1070
     0
  0
VISUALSTYLE
  5
3E
102
{ACAD_REACTORS
330
29
102
}
330
29
100
AcDbVisualStyle
  2
Shaded
 70
    27
177
     3
291
     0
 70
    58
 90
        2
176
     1
 90
        2
176
     1
 90
        1
176
     1
 90
        2
176
     1
 40
0.6
176
     1
 40
30.0
176
     1
 62
     7
420
 16777215
176
     1
 90
        0
176
     1
 90
        4
176
     1
 62
     7
176
     1
 62
   257
176
     1
 90
        1
176
     1
 90
        1
176
     1
 40
1.0
176
     1
 90
        8
176
     1
 62
   257
176
     1
 40
1.0
176
     1
 90
        1
176
     1
 90
        6
176
     1
 90
        2
176
     1
 62
     8
420
  7895160
176
     1
 90
        3
176
     1
 90
        0
176
     1
 90
        0
176
     1
290
     0
176
     1
 90
        5
176
     1
 40
0.0
176
     1
 90
        0
176
     1
290
     0
176
     1
290
     1
176
     1
290
     1
176
     1
290
     0
176
     1
290
     0
176
     1
290
     0
176
     1
290
     0
176
     1
290
     0
176
     1
290
     0
176
     1
 90
       50
176
     1
 40
0.0
176
     1
 40
1.0
176
     1
 90
        0
176
     1
 62
    18
420
        0
176
     1
 90
       50
176
     1
 90
        3
176
     1
 62
     5
420
      255
176
     1
290
     0
176
     1
 90
       50
176
     1
 90
       50
176
     1
 90
       50
176
     1
290
     0
176
     1
 90
       50
176
     1
 62
   256
176
     0
 40
1.0
176
     0
 90
        2
176
     1
  1
strokes_ogs.tif
176
     1
290
     0
176
     1
 40
1.0
176
     1
 40
1.0
176
     1
1001
ACAD
1000
AcDbSavedByObjectVersion
1070
     0
  0
VISUALSTYLE
  5
3D
102
{ACAD_REACTORS
330
29
102
}
330
29
100
AcDbVisualStyle
  2
Shaded with edges
 70
    26
177
     3
291
     0
 70
    58
 90
        2
176
     1
 90
        2
176
     1
 90
        1
176
     1
 90
        2
176
     1
 40
0.6
176
     1
 40
30.0
176
     1
 62
     7
420
 16777215
176
     1
 90
        1
176
     1
 90
        2
176
     1
 62
     7
176
     1
 62
   257
176
     1
 90
        2
176
     1
 90
        1
176
     1
 40
1.0
176
     1
 90
        8
176
     1
 62
   257
176
     1
 40
1.0
176
     1
 90
        1
176
     1
 90
        6
176
     1
 90
        2
176
     1
 62
     7
176
     1
 90
        3
176
     1
 90
        0
176
     1
 90
        0
176
     1
290
     0
176
     1
 90
        5
176
     1
 40
0.0
176
     1
 90
        0
176
     1
290
     0
176
     1
290
     1
176
     1
290
     1
176
     1
290
     0
176
     1
290
     0
176
     1
290
     0
176
     1
290
     0
176
     1
290
     0
176
     1
290
     0
176
     1
 90
       50
176
     1
 40
0.0
176
     1
 40
1.0
176
     1
 90
        0
176
     1
 62
    18
420
        0
176
     1
 90
       50
176
     1
 90
        3
176
     1
 62
     5
420
      255
176
     1
290
     0
176
     1
 90
       50
176
     1
 90
       50
176
     1
 90
       50
176
     1
290
     0
176
     1
 90
       50
176
     1
 62
   256
176
     0
 40
1.0
176
     0
 90
        2
176
     1
  1
strokes_ogs.tif
176
     1
290
     0
176
     1
 40
1.0
176
     1
 40
1.0
176
     1
1001
ACAD
1000
AcDbSavedByObjectVersion
1070
     0
  0
VISUALSTYLE
  5
3A
102
{ACAD_REACTORS
330
29
102
}
330
29
100
AcDbVisualStyle
  2
Shades of Gray
 70
    23
177
     3
291
     0
 70
    58
 90
        2
176
     1
 90
        2
176
     1
 90
        3
176
     1
 90
        0
176
     1
 40
0.6
176
     1
 40
30.0
176
     1
 62
     7
420
 16777215
176
     1
 90
        2
176
     1
 90
        2
176
     1
 62
     7
176
     1
 62
     7
176
     1
 90
        1
176
     1
 90
        1
176
     1
 40
40.0
176
     1
 90
        8
176
     1
 62
     7
176
     1
 40
1.0
176
     1
 90
        1
176
     1
 90
        6
176
     1
 90
        2
176
     1
 62
     7
176
     1
 90
        3
176
     1
 90
        0
176
     1
 90
        0
176
     1
290
     0
176
     1
 90
        1
176
     1
 40
0.0
176
     1
 90
        0
176
     1
290
     0
176
     1
290
     1
176
     1
290
     1
176
     1
290
     0
176
     1
290
     0
176
     1
290
     0
176
     1
290
     0
176
     1
290
     0
176
     1
290
     0
176
     1
 90
       50
176
     1
 40
0.0
176
     1
 40
1.0
176
     1
 90
        0
176
     1
 62
    18
420
        0
176
     1
 90
       50
176
     1
 90
        3
176
     1
 62
     5
420
      255
176
     1
290
     0
176
     1
 90
       50
176
     1
 90
       50
176
     1
 90
       50
176
     1
290
     0
176
     1
 90
       50
176
     1
 62
   256
176
     0
 40
1.0
176
     0
 90
        2
176
     1
  1
strokes_ogs.tif
176
     1
290
     0
176
     1
 40
1.0
176
     1
 40
1.0
176
     1
1001
ACAD
1000
AcDbSavedByObjectVersion
1070
     0
  0
VISUALSTYLE
  5
3B
102
{ACAD_REACTORS
330
29
102
}
330
29
100
AcDbVisualStyle
  2
Sketchy
 70
    24
177
     3
291
     0
 70
    58
 90
        1
176
     1
 90
        2
176
     1
 90
        2
176
     1
 90
        0
176
     1
 40
0.6
176
     1
 40
30.0
176
     1
 62
     7
420
 16777215
176
     1
 90
        2
176
     1
 90
        2
176
     1
 62
     7
176
     1
 62
     7
176
     1
 90
        1
176
     1
 90
        1
176
     1
 40
40.0
176
     1
 90
       11
176
     1
 62
     7
176
     1
 40
1.0
176
     1
 90
        1
176
     1
 90
        6
176
     1
 90
        2
176
     1
 62
     7
176
     1
 90
        6
176
     1
 90
        0
176
     1
 90
        0
176
     1
290
     0
176
     1
 90
        1
176
     1
 40
0.0
176
     1
 90
        0
176
     1
290
     0
176
     1
290
     1
176
     1
290
     1
176
     1
290
     0
176
     1
290
     0
176
     1
290
     0
176
     1
290
     0
176
     1
290
     0
176
     1
290
     0
176
     1
 90
       50
176
     1
 40
0.0
176
     1
 40
1.0
176
     1
 90
        0
176
     1
 62
    18
420
        0
176
     1
 90
       50
176
     1
 90
        3
176
     1
 62
     5
420
      255
176
     1
290
     0
176
     1
 90
       50
176
     1
 90
       50
176
     1
 90
       50
176
     1
290
     0
176
     1
 90
       50
176
     1
 62
   256
176
     0
 40
1.0
176
     0
 90
        2
176
     1
  1
strokes_ogs.tif
176
     1
290
     0
176
     1
 40
1.0
176
     1
 40
1.0
176
     1
1001
ACAD
1000
AcDbSavedByObjectVersion
1070
     0
  0
VISUALSTYLE
  5
36
102
{ACAD_REACTORS
330
29
102
}
330
29
100
AcDbVisualStyle
  2
Thicken
 70
    13
177
     3
291
     1
 70
    58
 90
        2
176
     1
 90
        2
176
     1
 90
        0
176
     1
 90
        0
176
     1
 40
0.6
176
     1
 40
30.0
176
     1
 62
     7
420
 16777215
176
     1
 90
        1
176
     1
 90
        4
176
     1
 62
     7
176
     1
 62
   257
176
     1
 90
        1
176
     1
 90
        1
176
     1
 40
1.0
176
     1
 90
       12
176
     1
 62
     7
176
     1
 40
1.0
176
     1
 90
        1
176
     1
 90
        6
176
     1
 90
        2
176
     1
 62
     7
176
     1
 90
        5
176
     1
 90
        0
176
     1
 90
        0
176
     1
290
     0
176
     1
 90
        1
176
     1
 40
0.0
176
     1
 90
        0
176
     1
290
     0
176
     1
290
     1
176
     1
290
     1
176
     1
290
     0
176
     1
290
     0
176
     1
290
     0
176
     1
290
     0
176
     1
290
     0
176
     1
290
     0
176
     1
 90
       50
176
     1
 40
0.0
176
     1
 40
1.0
176
     1
 90
        0
176
     1
 62
    18
420
        0
176
     1
 90
       50
176
     1
 90
        3
176
     1
 62
     5
420
      255
176
     1
290
     0
176
     1
 90
       50
176
     1
 90
       50
176
     1
 90
       50
176
     1
290
     0
176
     1
 90
       50
176
     1
 62
   256
176
     0
 40
1.0
176
     0
 90
        2
176
     1
  1
strokes_ogs.tif
176
     1
290
     0
176
     1
 40
1.0
176
     1
 40
1.0
176
     1
1001
ACAD
1000
AcDbSavedByObjectVersion
1070
     0
  0
VISUALSTYLE
  5
30
102
{ACAD_REACTORS
330
29
102
}
330
29
100
AcDbVisualStyle
  2
Wireframe
 70
     5
177
     3
291
     0
 70
    58
 90
        0
176
     1
 90
        2
176
     1
 90
        0
176
     1
 90
        0
176
     1
 40
0.6
176
     1
 40
30.0
176
     1
 62
     7
420
 16777215
176
     1
 90
        1
176
     1
 90
        4
176
     1
 62
     7
176
     1
 62
   257
176
     1
 90
        1
176
     1
 90
        1
176
     1
 40
1.0
176
     1
 90
        0
176
     1
 62
   257
176
     1
 40
1.0
176
     1
 90
        1
176
     1
 90
        6
176
     1
 90
        2
176
     1
 62
     7
176
     1
 90
        3
176
     1
 90
        0
176
     1
 90
        0
176
     1
290
     0
176
     1
 90
        1
176
     1
 40
0.0
176
     1
 90
        0
176
     1
290
     0
176
     1
290
     1
176
     1
290
     1
176
     1
290
     0
176
     1
290
     0
176
     1
290
     0
176
     1
290
     0
176
     1
290
     0
176
     1
290
     0
176
     1
 90
       50
176
     1
 40
0.0
176
     1
 40
1.0
176
     1
 90
        0
176
     1
 62
    18
420
        0
176
     1
 90
       50
176
     1
 90
        3
176
     1
 62
     5
420
      255
176
     1
290
     0
176
     1
 90
       50
176
     1
 90
       50
176
     1
 90
       50
176
     1
290
     0
176
     1
 90
       50
176
     1
 62
   256
176
     0
 40
1.0
176
     0
 90
        2
176
     1
  1
strokes_ogs.tif
176
     1
290
     0
176
     1
 40
1.0
176
     1
 40
1.0
176
     1
1001
ACAD
1000
AcDbSavedByObjectVersion
1070
     0
  0
VISUALSTYLE
  5
3C
102
{ACAD_REACTORS
330
29
102
}
330
29
100
AcDbVisualStyle
  2
X-Ray
 70
    25
177
     3
291
     0
 70
    58
 90
        2
176
     1
 90
        2
176
     1
 90
        1
176
     1
 90
        1
176
     1
 40
0.5
176
     1
 40
30.0
176
     1
 62
     7
420
 16777215
176
     1
 90
        1
176
     1
 90
        0
176
     1
 62
     7
176
     1
 62
   257
176
     1
 90
        1
176
     1
 90
        1
176
     1
 40
1.0
176
     1
 90
        8
176
     1
 62
     7
176
     1
 40
1.0
176
     1
 90
        1
176
     1
 90
        6
176
     1
 90
        2
176
     1
 62
     7
176
     1
 90
        3
176
     1
 90
        0
176
     1
 90
        0
176
     1
290
     0
176
     1
 90
       13
176
     1
 40
0.0
176
     1
 90
        0
176
     1
290
     0
176
     1
290
     1
176
     1
290
     1
176
     1
290
     0
176
     1
290
     0
176
     1
290
     0
176
     1
290
     0
176
     1
290
     0
176
     1
290
     0
176
     1
 90
       50
176
     1
 40
0.0
176
     1
 40
1.0
176
     1
 90
        0
176
     1
 62
    18
420
        0
176
     1
 90
       50
176
     1
 90
        3
176
     1
 62
     5
420
      255
176
     1
290
     0
176
     1
 90
       50
176
     1
 90
       50
176
     1
 90
       50
176
     1
290
     0
176
     1
 90
       50
176
     1
 62
   256
176
     0
 40
1.0
176
     0
 90
        2
176
     1
  1
strokes_ogs.tif
176
     1
290
     0
176
     1
 40
1.0
176
     1
 40
1.0
176
     1
1001
ACAD
1000
AcDbSavedByObjectVersion
1070
     0
  0
DICTIONARYVAR
  5
225
102
{ACAD_REACTORS
330
220
102
}
330
220
100
DictionaryVariables
280
     0
  1
1:1
  0
DICTIONARYVAR
  5
222
102
{ACAD_REACTORS
330
220
102
}
330
220
100
DictionaryVariables
280
     0
  1
STANDARD
  0
DICTIONARYVAR
  5
221
102
{ACAD_REACTORS
330
220
102
}
330
220
100
DictionaryVariables
280
     0
  1
STANDARD
  0
DICTIONARYVAR
  5
223
102
{ACAD_REACTORS
330
220
102
}
330
220
100
DictionaryVariables
280
     0
  1
Imperial24
  0
DICTIONARYVAR
  5
224
102
{ACAD_REACTORS
330
220
102
}
330
220
100
DictionaryVariables
280
     0
  1
Imperial24
  0
DICTIONARY
  5
22B
330
6B
100
AcDbDictionary
280
     1
281
     1
  3
ACAD_XREC_ROUNDTRIP
360
22C
  0
DICTIONARY
  5
1A
330
19
100
AcDbDictionary
280
     1
281
     1
  3
BUMPTILE
360
1C
  3
DIFFUSETILE
360
1B
  3
OPACITYTILE
360
1F
  3
REFLECTIONTILE
360
1E
  3
REFRACTIONTILE
360
20
  3
SPECULARTILE
360
1D
  0
DICTIONARY
  5
12
330
11
100
AcDbDictionary
280
     1
281
     1
  3
BUMPTILE
360
14
  3
DIFFUSETILE
360
13
  3
OPACITYTILE
360
17
  3
REFLECTIONTILE
360
16
  3
REFRACTIONTILE
360
18
  3
SPECULARTILE
360
15
  0
DICTIONARY
  5
22
330
21
100
AcDbDictionary
280
     1
281
     1
  3
BUMPTILE
360
24
  3
DIFFUSETILE
360
23
  3
OPACITYTILE
360
27
  3
REFLECTIONTILE
360
26
  3
REFRACTIONTILE
360
28
  3
SPECULARTILE
360
25
  0
DICTIONARY
  5
229
330
69
100
AcDbDictionary
280
     1
281
     1
  3
ACAD_XREC_ROUNDTRIP
360
22A
  0
DICTIONARY
  5
226
330
65
100
AcDbDictionary
280
     1
281
     1
  3
ACAD_ROUNDTRIP_2008_TABLESTYLE_CELLSTYLEMAP
360
227
  0
XRECORD
  5
22C
102
{ACAD_REACTORS
330
22B
102
}
330
22B
100
AcDbXrecord
280
     1
102
DISPLAYNAME
  1
Imperial24
102
FLAGS
 90
        0
  0
XRECORD
  5
1C
102
{ACAD_REACTORS
330
1A
102
}
330
1A
100
AcDbXrecord
280
     1
270
     1
271
     1
  0
XRECORD
  5
1B
102
{ACAD_REACTORS
330
1A
102
}
330
1A
100
AcDbXrecord
280
     1
270
     1
271
     1
  0
XRECORD
  5
1F
102
{ACAD_REACTORS
330
1A
102
}
330
1A
100
AcDbXrecord
280
     1
270
     1
271
     1
  0
XRECORD
  5
1E
102
{ACAD_REACTORS
330
1A
102
}
330
1A
100
AcDbXrecord
280
     1
270
     1
271
     1
  0
XRECORD
  5
20
102
{ACAD_REACTORS
330
1A
102
}
330
1A
100
AcDbXrecord
280
     1
270
     1
271
     1
  0
XRECORD
  5
1D
102
{ACAD_REACTORS
330
1A
102
}
330
1A
100
AcDbXrecord
280
     1
270
     1
271
     1
  0
XRECORD
  5
14
102
{ACAD_REACTORS
330
12
102
}
330
12
100
AcDbXrecord
280
     1
270
     1
271
     1
  0
XRECORD
  5
13
102
{ACAD_REACTORS
330
12
102
}
330
12
100
AcDbXrecord
280
     1
270
     1
271
     1
  0
XRECORD
  5
17
102
{ACAD_REACTORS
330
12
102
}
330
12
100
AcDbXrecord
280
     1
270
     1
271
     1
  0
XRECORD
  5
16
102
{ACAD_REACTORS
330
12
102
}
330
12
100
AcDbXrecord
280
     1
270
     1
271
     1
  0
XRECORD
  5
18
102
{ACAD_REACTORS
330
12
102
}
330
12
100
AcDbXrecord
280
     1
270
     1
271
     1
  0
XRECORD
  5
15
102
{ACAD_REACTORS
330
12
102
}
330
12
100
AcDbXrecord
280
     1
270
     1
271
     1
  0
XRECORD
  5
24
102
{ACAD_REACTORS
330
22
102
}
330
22
100
AcDbXrecord
280
     1
270
     1
271
     1
  0
XRECORD
  5
23
102
{ACAD_REACTORS
330
22
102
}
330
22
100
AcDbXrecord
280
     1
270
     1
271
     1
  0
XRECORD
  5
27
102
{ACAD_REACTORS
330
22
102
}
330
22
100
AcDbXrecord
280
     1
270
     1
271
     1
  0
XRECORD
  5
26
102
{ACAD_REACTORS
330
22
102
}
330
22
100
AcDbXrecord
280
     1
270
     1
271
     1
  0
XRECORD
  5
28
102
{ACAD_REACTORS
330
22
102
}
330
22
100
AcDbXrecord
280
     1
270
     1
271
     1
  0
XRECORD
  5
25
102
{ACAD_REACTORS
330
22
102
}
330
22
100
AcDbXrecord
280
     1
270
     1
271
     1
  0
XRECORD
  5
22A
102
{ACAD_REACTORS
330
229
102
}
330
229
100
AcDbXrecord
280
     1
102
DISPLAYNAME
  1
Imperial24
102
FLAGS
 90
        0
  0
CELLSTYLEMAP
  5
227
102
{ACAD_REACTORS
330
226
102
}
330
226
100
AcDbCellStyleMap
 90
        3
300
CELLSTYLE
  1
TABLEFORMAT_BEGIN
 90
        5
170
     1
 91
        0
 92
    32768
 62
   257
 93
        1
300
CONTENTFORMAT
  1
CONTENTFORMAT_BEGIN
 90
        0
 91
        0
 92
      512
 93
        0
300

 40
0.0
140
1.0
 94
        5
 62
     0
340
55
144
0.25
309
CONTENTFORMAT_END
171
     0
 94
        0
309
TABLEFORMAT_END
  1
CELLSTYLE_BEGIN
 90
        1
 91
        1
300
_TITLE
309
CELLSTYLE_END
300
CELLSTYLE
  1
TABLEFORMAT_BEGIN
 90
        5
170
     1
 91
        0
 92
        0
 62
   257
 93
        1
300
CONTENTFORMAT
  1
CONTENTFORMAT_BEGIN
 90
        0
 91
        0
 92
      512
 93
        0
300

 40
0.0
140
1.0
 94
        5
 62
     0
340
55
144
0.18
309
CONTENTFORMAT_END
171
     0
 94
        0
309
TABLEFORMAT_END
  1
CELLSTYLE_BEGIN
 90
        2
 91
        1
300
_HEADER
309
CELLSTYLE_END
300
CELLSTYLE
  1
TABLEFORMAT_BEGIN
 90
        5
170
     1
 91
        0
 92
        0
 62
   257
 93
        1
300
CONTENTFORMAT
  1
CONTENTFORMAT_BEGIN
 90
        0
 91
        0
 92
      512
 93
        0
300

 40
0.0
140
1.0
 94
        2
 62
     0
340
55
144
0.18
309
CONTENTFORMAT_END
171
     0
 94
        0
309
TABLEFORMAT_END
  1
CELLSTYLE_BEGIN
 90
        3
 91
        2
300
_DATA
309
CELLSTYLE_END
  0
ENDSEC
  0
EOF
