0
SECTION
2
HEADER
9
$INSUNITS
70
4
0
ENDSEC
0
SECTION
2
TABLES
0
TABLE
2
LTYPE
0
LTYPE
72
65
70
64
2
CONTINUOUS
3
______
73
0
40
0
0
ENDTAB
0
TABLE
2
LAYER
0
ENDTAB
0
ENDSEC
0
SECTION
2
ENTITIES
0
ARC
8
0
10
3.025
20
-16.025
40
0.5
50
180
51
270
0
ARC
8
0
10
16.025
20
-16.025
40
0.5
50
270
51
0
0
ARC
8
0
10
16.025
20
-3.025
40
0.5
50
0
51
90
0
ARC
8
0
10
3.025
20
-3.025
40
0.5
50
90
51
180
0
LINE
8
0
10
3.025
20
-16.525
11
16.025
21
-16.525
0
LINE
8
0
10
16.025
20
-2.525
11
3.025
21
-2.525
0
LINE
8
0
10
16.525
20
-16.025
11
16.525
21
-3.025
0
LINE
8
0
10
2.525
20
-3.025
11
2.525
21
-16.025
0
ARC
8
0
10
22.075
20
-16.025
40
0.5
50
180
51
270
0
ARC
8
0
10
35.075
20
-16.025
40
0.5
50
270
51
0
0
ARC
8
0
10
35.075
20
-3.025
40
0.5
50
0
51
90
0
ARC
8
0
10
22.075
20
-3.025
40
0.5
50
90
51
180
0
LINE
8
0
10
22.075
20
-16.525
11
35.075
21
-16.525
0
LINE
8
0
10
35.075
20
-2.525
11
22.075
21
-2.525
0
LINE
8
0
10
35.575
20
-16.025
11
35.575
21
-3.025
0
LINE
8
0
10
21.575
20
-3.025
11
21.575
21
-16.025
0
ARC
8
0
10
41.125
20
-16.025
40
0.5
50
180
51
270
0
ARC
8
0
10
54.125
20
-16.025
40
0.5
50
270
51
0
0
ARC
8
0
10
54.125
20
-3.025
40
0.5
50
0
51
90
0
ARC
8
0
10
41.125
20
-3.025
40
0.5
50
90
51
180
0
LINE
8
0
10
41.125
20
-16.525
11
54.125
21
-16.525
0
LINE
8
0
10
54.125
20
-2.525
11
41.125
21
-2.525
0
LINE
8
0
10
54.625
20
-16.025
11
54.625
21
-3.025
0
LINE
8
0
10
40.625
20
-3.025
11
40.625
21
-16.025
0
ARC
8
0
10
60.175
20
-16.025
40
0.5
50
180
51
270
0
ARC
8
0
10
73.175
20
-16.025
40
0.5
50
270
51
0
0
ARC
8
0
10
73.175
20
-3.025
40
0.5
50
0
51
90
0
ARC
8
0
10
60.175
20
-3.025
40
0.5
50
90
51
180
0
LINE
8
0
10
60.175
20
-16.525
11
73.175
21
-16.525
0
LINE
8
0
10
73.175
20
-2.525
11
60.175
21
-2.525
0
LINE
8
0
10
73.675
20
-16.025
11
73.675
21
-3.025
0
LINE
8
0
10
59.675
20
-3.025
11
59.675
21
-16.025
0
ARC
8
0
10
79.225
20
-16.025
40
0.5
50
180
51
270
0
ARC
8
0
10
92.225
20
-16.025
40
0.5
50
270
51
0
0
ARC
8
0
10
92.225
20
-3.025
40
0.5
50
0
51
90
0
ARC
8
0
10
79.225
20
-3.025
40
0.5
50
90
51
180
0
LINE
8
0
10
79.225
20
-16.525
11
92.225
21
-16.525
0
LINE
8
0
10
92.225
20
-2.525
11
79.225
21
-2.525
0
LINE
8
0
10
92.725
20
-16.025
11
92.725
21
-3.025
0
LINE
8
0
10
78.725
20
-3.025
11
78.725
21
-16.025
0
ARC
8
0
10
98.275
20
-16.025
40
0.5
50
180
51
270
0
ARC
8
0
10
111.275
20
-16.025
40
0.5
50
270
51
0
0
ARC
8
0
10
111.275
20
-3.025
40
0.5
50
0
51
90
0
ARC
8
0
10
98.275
20
-3.025
40
0.5
50
90
51
180
0
LINE
8
0
10
98.275
20
-16.525
11
111.275
21
-16.525
0
LINE
8
0
10
111.275
20
-2.525
11
98.275
21
-2.525
0
LINE
8
0
10
111.775
20
-16.025
11
111.775
21
-3.025
0
LINE
8
0
10
97.775
20
-3.025
11
97.775
21
-16.025
0
ARC
8
0
10
124.46875
20
-16.025
40
0.5
50
180
51
270
0
ARC
8
0
10
137.46875
20
-16.025
40
0.5
50
270
51
0
0
ARC
8
0
10
137.46875
20
-3.025
40
0.5
50
0
51
90
0
ARC
8
0
10
124.46875
20
-3.025
40
0.5
50
90
51
180
0
LINE
8
0
10
124.46875
20
-16.525
11
137.46875
21
-16.525
0
LINE
8
0
10
137.46875
20
-2.525
11
124.46875
21
-2.525
0
LINE
8
0
10
137.96875
20
-16.025
11
137.96875
21
-3.025
0
LINE
8
0
10
123.96875
20
-3.025
11
123.96875
21
-16.025
0
ARC
8
0
10
150.6625
20
-16.025
40
0.5
50
180
51
270
0
ARC
8
0
10
163.6625
20
-16.025
40
0.5
50
270
51
0
0
ARC
8
0
10
163.6625
20
-3.025
40
0.5
50
0
51
90
0
ARC
8
0
10
150.6625
20
-3.025
40
0.5
50
90
51
180
0
LINE
8
0
10
150.6625
20
-16.525
11
163.6625
21
-16.525
0
LINE
8
0
10
163.6625
20
-2.525
11
150.6625
21
-2.525
0
LINE
8
0
10
164.1625
20
-16.025
11
164.1625
21
-3.025
0
LINE
8
0
10
150.1625
20
-3.025
11
150.1625
21
-16.025
0
ARC
8
0
10
169.7125
20
-16.025
40
0.5
50
180
51
270
0
ARC
8
0
10
182.7125
20
-16.025
40
0.5
50
270
51
0
0
ARC
8
0
10
182.7125
20
-3.025
40
0.5
50
0
51
90
0
ARC
8
0
10
169.7125
20
-3.025
40
0.5
50
90
51
180
0
LINE
8
0
10
169.7125
20
-16.525
11
182.7125
21
-16.525
0
LINE
8
0
10
182.7125
20
-2.525
11
169.7125
21
-2.525
0
LINE
8
0
10
183.2125
20
-16.025
11
183.2125
21
-3.025
0
LINE
8
0
10
169.2125
20
-3.025
11
169.2125
21
-16.025
0
ARC
8
0
10
188.7625
20
-16.025
40
0.5
50
180
51
270
0
ARC
8
0
10
201.7625
20
-16.025
40
0.5
50
270
51
0
0
ARC
8
0
10
201.7625
20
-3.025
40
0.5
50
0
51
90
0
ARC
8
0
10
188.7625
20
-3.025
40
0.5
50
90
51
180
0
LINE
8
0
10
188.7625
20
-16.525
11
201.7625
21
-16.525
0
LINE
8
0
10
201.7625
20
-2.525
11
188.7625
21
-2.525
0
LINE
8
0
10
202.2625
20
-16.025
11
202.2625
21
-3.025
0
LINE
8
0
10
188.2625
20
-3.025
11
188.2625
21
-16.025
0
ARC
8
0
10
207.8125
20
-16.025
40
0.5
50
180
51
270
0
ARC
8
0
10
220.8125
20
-16.025
40
0.5
50
270
51
0
0
ARC
8
0
10
220.8125
20
-3.025
40
0.5
50
0
51
90
0
ARC
8
0
10
207.8125
20
-3.025
40
0.5
50
90
51
180
0
LINE
8
0
10
207.8125
20
-16.525
11
220.8125
21
-16.525
0
LINE
8
0
10
220.8125
20
-2.525
11
207.8125
21
-2.525
0
LINE
8
0
10
221.3125
20
-16.025
11
221.3125
21
-3.025
0
LINE
8
0
10
207.3125
20
-3.025
11
207.3125
21
-16.025
0
ARC
8
0
10
226.8625
20
-16.025
40
0.5
50
180
51
270
0
ARC
8
0
10
239.8625
20
-16.025
40
0.5
50
270
51
0
0
ARC
8
0
10
239.8625
20
-3.025
40
0.5
50
0
51
90
0
ARC
8
0
10
226.8625
20
-3.025
40
0.5
50
90
51
180
0
LINE
8
0
10
226.8625
20
-16.525
11
239.8625
21
-16.525
0
LINE
8
0
10
239.8625
20
-2.525
11
226.8625
21
-2.525
0
LINE
8
0
10
240.3625
20
-16.025
11
240.3625
21
-3.025
0
LINE
8
0
10
226.3625
20
-3.025
11
226.3625
21
-16.025
0
ARC
8
0
10
3.025
20
-35.075
40
0.5
50
180
51
270
0
ARC
8
0
10
16.025
20
-35.075
40
0.5
50
270
51
0
0
ARC
8
0
10
16.025
20
-22.075
40
0.5
50
0
51
90
0
ARC
8
0
10
3.025
20
-22.075
40
0.5
50
90
51
180
0
LINE
8
0
10
3.025
20
-35.575
11
16.025
21
-35.575
0
LINE
8
0
10
16.025
20
-21.575
11
3.025
21
-21.575
0
LINE
8
0
10
16.525
20
-35.075
11
16.525
21
-22.075
0
LINE
8
0
10
2.525
20
-22.075
11
2.525
21
-35.075
0
ARC
8
0
10
22.075
20
-35.075
40
0.5
50
180
51
270
0
ARC
8
0
10
35.075
20
-35.075
40
0.5
50
270
51
0
0
ARC
8
0
10
35.075
20
-22.075
40
0.5
50
0
51
90
0
ARC
8
0
10
22.075
20
-22.075
40
0.5
50
90
51
180
0
LINE
8
0
10
22.075
20
-35.575
11
35.075
21
-35.575
0
LINE
8
0
10
35.075
20
-21.575
11
22.075
21
-21.575
0
LINE
8
0
10
35.575
20
-35.075
11
35.575
21
-22.075
0
LINE
8
0
10
21.575
20
-22.075
11
21.575
21
-35.075
0
ARC
8
0
10
41.125
20
-35.075
40
0.5
50
180
51
270
0
ARC
8
0
10
54.125
20
-35.075
40
0.5
50
270
51
0
0
ARC
8
0
10
54.125
20
-22.075
40
0.5
50
0
51
90
0
ARC
8
0
10
41.125
20
-22.075
40
0.5
50
90
51
180
0
LINE
8
0
10
41.125
20
-35.575
11
54.125
21
-35.575
0
LINE
8
0
10
54.125
20
-21.575
11
41.125
21
-21.575
0
LINE
8
0
10
54.625
20
-35.075
11
54.625
21
-22.075
0
LINE
8
0
10
40.625
20
-22.075
11
40.625
21
-35.075
0
ARC
8
0
10
60.175
20
-35.075
40
0.5
50
180
51
270
0
ARC
8
0
10
73.175
20
-35.075
40
0.5
50
270
51
0
0
ARC
8
0
10
73.175
20
-22.075
40
0.5
50
0
51
90
0
ARC
8
0
10
60.175
20
-22.075
40
0.5
50
90
51
180
0
LINE
8
0
10
60.175
20
-35.575
11
73.175
21
-35.575
0
LINE
8
0
10
73.175
20
-21.575
11
60.175
21
-21.575
0
LINE
8
0
10
73.675
20
-35.075
11
73.675
21
-22.075
0
LINE
8
0
10
59.675
20
-22.075
11
59.675
21
-35.075
0
ARC
8
0
10
79.225
20
-35.075
40
0.5
50
180
51
270
0
ARC
8
0
10
92.225
20
-35.075
40
0.5
50
270
51
0
0
ARC
8
0
10
92.225
20
-22.075
40
0.5
50
0
51
90
0
ARC
8
0
10
79.225
20
-22.075
40
0.5
50
90
51
180
0
LINE
8
0
10
79.225
20
-35.575
11
92.225
21
-35.575
0
LINE
8
0
10
92.225
20
-21.575
11
79.225
21
-21.575
0
LINE
8
0
10
92.725
20
-35.075
11
92.725
21
-22.075
0
LINE
8
0
10
78.725
20
-22.075
11
78.725
21
-35.075
0
ARC
8
0
10
98.275
20
-35.075
40
0.5
50
180
51
270
0
ARC
8
0
10
111.275
20
-35.075
40
0.5
50
270
51
0
0
ARC
8
0
10
111.275
20
-22.075
40
0.5
50
0
51
90
0
ARC
8
0
10
98.275
20
-22.075
40
0.5
50
90
51
180
0
LINE
8
0
10
98.275
20
-35.575
11
111.275
21
-35.575
0
LINE
8
0
10
111.275
20
-21.575
11
98.275
21
-21.575
0
LINE
8
0
10
111.775
20
-35.075
11
111.775
21
-22.075
0
LINE
8
0
10
97.775
20
-22.075
11
97.775
21
-35.075
0
ARC
8
0
10
124.46875
20
-35.075
40
0.5
50
180
51
270
0
ARC
8
0
10
137.46875
20
-35.075
40
0.5
50
270
51
0
0
ARC
8
0
10
137.46875
20
-22.075
40
0.5
50
0
51
90
0
ARC
8
0
10
124.46875
20
-22.075
40
0.5
50
90
51
180
0
LINE
8
0
10
124.46875
20
-35.575
11
137.46875
21
-35.575
0
LINE
8
0
10
137.46875
20
-21.575
11
124.46875
21
-21.575
0
LINE
8
0
10
137.96875
20
-35.075
11
137.96875
21
-22.075
0
LINE
8
0
10
123.96875
20
-22.075
11
123.96875
21
-35.075
0
ARC
8
0
10
150.6625
20
-35.075
40
0.5
50
180
51
270
0
ARC
8
0
10
163.6625
20
-35.075
40
0.5
50
270
51
0
0
ARC
8
0
10
163.6625
20
-22.075
40
0.5
50
0
51
90
0
ARC
8
0
10
150.6625
20
-22.075
40
0.5
50
90
51
180
0
LINE
8
0
10
150.6625
20
-35.575
11
163.6625
21
-35.575
0
LINE
8
0
10
163.6625
20
-21.575
11
150.6625
21
-21.575
0
LINE
8
0
10
164.1625
20
-35.075
11
164.1625
21
-22.075
0
LINE
8
0
10
150.1625
20
-22.075
11
150.1625
21
-35.075
0
ARC
8
0
10
169.7125
20
-35.075
40
0.5
50
180
51
270
0
ARC
8
0
10
182.7125
20
-35.075
40
0.5
50
270
51
0
0
ARC
8
0
10
182.7125
20
-22.075
40
0.5
50
0
51
90
0
ARC
8
0
10
169.7125
20
-22.075
40
0.5
50
90
51
180
0
LINE
8
0
10
169.7125
20
-35.575
11
182.7125
21
-35.575
0
LINE
8
0
10
182.7125
20
-21.575
11
169.7125
21
-21.575
0
LINE
8
0
10
183.2125
20
-35.075
11
183.2125
21
-22.075
0
LINE
8
0
10
169.2125
20
-22.075
11
169.2125
21
-35.075
0
ARC
8
0
10
188.7625
20
-35.075
40
0.5
50
180
51
270
0
ARC
8
0
10
201.7625
20
-35.075
40
0.5
50
270
51
0
0
ARC
8
0
10
201.7625
20
-22.075
40
0.5
50
0
51
90
0
ARC
8
0
10
188.7625
20
-22.075
40
0.5
50
90
51
180
0
LINE
8
0
10
188.7625
20
-35.575
11
201.7625
21
-35.575
0
LINE
8
0
10
201.7625
20
-21.575
11
188.7625
21
-21.575
0
LINE
8
0
10
202.2625
20
-35.075
11
202.2625
21
-22.075
0
LINE
8
0
10
188.2625
20
-22.075
11
188.2625
21
-35.075
0
ARC
8
0
10
207.8125
20
-35.075
40
0.5
50
180
51
270
0
ARC
8
0
10
220.8125
20
-35.075
40
0.5
50
270
51
0
0
ARC
8
0
10
220.8125
20
-22.075
40
0.5
50
0
51
90
0
ARC
8
0
10
207.8125
20
-22.075
40
0.5
50
90
51
180
0
LINE
8
0
10
207.8125
20
-35.575
11
220.8125
21
-35.575
0
LINE
8
0
10
220.8125
20
-21.575
11
207.8125
21
-21.575
0
LINE
8
0
10
221.3125
20
-35.075
11
221.3125
21
-22.075
0
LINE
8
0
10
207.3125
20
-22.075
11
207.3125
21
-35.075
0
ARC
8
0
10
226.8625
20
-35.075
40
0.5
50
180
51
270
0
ARC
8
0
10
239.8625
20
-35.075
40
0.5
50
270
51
0
0
ARC
8
0
10
239.8625
20
-22.075
40
0.5
50
0
51
90
0
ARC
8
0
10
226.8625
20
-22.075
40
0.5
50
90
51
180
0
LINE
8
0
10
226.8625
20
-35.575
11
239.8625
21
-35.575
0
LINE
8
0
10
239.8625
20
-21.575
11
226.8625
21
-21.575
0
LINE
8
0
10
240.3625
20
-35.075
11
240.3625
21
-22.075
0
LINE
8
0
10
226.3625
20
-22.075
11
226.3625
21
-35.075
0
ARC
8
0
10
3.025
20
-54.125
40
0.5
50
180
51
270
0
ARC
8
0
10
16.025
20
-54.125
40
0.5
50
270
51
0
0
ARC
8
0
10
16.025
20
-41.125
40
0.5
50
0
51
90
0
ARC
8
0
10
3.025
20
-41.125
40
0.5
50
90
51
180
0
LINE
8
0
10
3.025
20
-54.625
11
16.025
21
-54.625
0
LINE
8
0
10
16.025
20
-40.625
11
3.025
21
-40.625
0
LINE
8
0
10
16.525
20
-54.125
11
16.525
21
-41.125
0
LINE
8
0
10
2.525
20
-41.125
11
2.525
21
-54.125
0
ARC
8
0
10
22.075
20
-54.125
40
0.5
50
180
51
270
0
ARC
8
0
10
35.075
20
-54.125
40
0.5
50
270
51
0
0
ARC
8
0
10
35.075
20
-41.125
40
0.5
50
0
51
90
0
ARC
8
0
10
22.075
20
-41.125
40
0.5
50
90
51
180
0
LINE
8
0
10
22.075
20
-54.625
11
35.075
21
-54.625
0
LINE
8
0
10
35.075
20
-40.625
11
22.075
21
-40.625
0
LINE
8
0
10
35.575
20
-54.125
11
35.575
21
-41.125
0
LINE
8
0
10
21.575
20
-41.125
11
21.575
21
-54.125
0
ARC
8
0
10
41.125
20
-54.125
40
0.5
50
180
51
270
0
ARC
8
0
10
54.125
20
-54.125
40
0.5
50
270
51
0
0
ARC
8
0
10
54.125
20
-41.125
40
0.5
50
0
51
90
0
ARC
8
0
10
41.125
20
-41.125
40
0.5
50
90
51
180
0
LINE
8
0
10
41.125
20
-54.625
11
54.125
21
-54.625
0
LINE
8
0
10
54.125
20
-40.625
11
41.125
21
-40.625
0
LINE
8
0
10
54.625
20
-54.125
11
54.625
21
-41.125
0
LINE
8
0
10
40.625
20
-41.125
11
40.625
21
-54.125
0
ARC
8
0
10
60.175
20
-54.125
40
0.5
50
180
51
270
0
ARC
8
0
10
73.175
20
-54.125
40
0.5
50
270
51
0
0
ARC
8
0
10
73.175
20
-41.125
40
0.5
50
0
51
90
0
ARC
8
0
10
60.175
20
-41.125
40
0.5
50
90
51
180
0
LINE
8
0
10
60.175
20
-54.625
11
73.175
21
-54.625
0
LINE
8
0
10
73.175
20
-40.625
11
60.175
21
-40.625
0
LINE
8
0
10
73.675
20
-54.125
11
73.675
21
-41.125
0
LINE
8
0
10
59.675
20
-41.125
11
59.675
21
-54.125
0
ARC
8
0
10
79.225
20
-54.125
40
0.5
50
180
51
270
0
ARC
8
0
10
92.225
20
-54.125
40
0.5
50
270
51
0
0
ARC
8
0
10
92.225
20
-41.125
40
0.5
50
0
51
90
0
ARC
8
0
10
79.225
20
-41.125
40
0.5
50
90
51
180
0
LINE
8
0
10
79.225
20
-54.625
11
92.225
21
-54.625
0
LINE
8
0
10
92.225
20
-40.625
11
79.225
21
-40.625
0
LINE
8
0
10
92.725
20
-54.125
11
92.725
21
-41.125
0
LINE
8
0
10
78.725
20
-41.125
11
78.725
21
-54.125
0
ARC
8
0
10
98.275
20
-54.125
40
0.5
50
180
51
270
0
ARC
8
0
10
111.275
20
-54.125
40
0.5
50
270
51
0
0
ARC
8
0
10
111.275
20
-41.125
40
0.5
50
0
51
90
0
ARC
8
0
10
98.275
20
-41.125
40
0.5
50
90
51
180
0
LINE
8
0
10
98.275
20
-54.625
11
111.275
21
-54.625
0
LINE
8
0
10
111.275
20
-40.625
11
98.275
21
-40.625
0
LINE
8
0
10
111.775
20
-54.125
11
111.775
21
-41.125
0
LINE
8
0
10
97.775
20
-41.125
11
97.775
21
-54.125
0
ARC
8
0
10
124.46875
20
-54.125
40
0.5
50
180
51
270
0
ARC
8
0
10
137.46875
20
-54.125
40
0.5
50
270
51
0
0
ARC
8
0
10
137.46875
20
-41.125
40
0.5
50
0
51
90
0
ARC
8
0
10
124.46875
20
-41.125
40
0.5
50
90
51
180
0
LINE
8
0
10
124.46875
20
-54.625
11
137.46875
21
-54.625
0
LINE
8
0
10
137.46875
20
-40.625
11
124.46875
21
-40.625
0
LINE
8
0
10
137.96875
20
-54.125
11
137.96875
21
-41.125
0
LINE
8
0
10
123.96875
20
-41.125
11
123.96875
21
-54.125
0
ARC
8
0
10
150.6625
20
-54.125
40
0.5
50
180
51
270
0
ARC
8
0
10
163.6625
20
-54.125
40
0.5
50
270
51
0
0
ARC
8
0
10
163.6625
20
-41.125
40
0.5
50
0
51
90
0
ARC
8
0
10
150.6625
20
-41.125
40
0.5
50
90
51
180
0
LINE
8
0
10
150.6625
20
-54.625
11
163.6625
21
-54.625
0
LINE
8
0
10
163.6625
20
-40.625
11
150.6625
21
-40.625
0
LINE
8
0
10
164.1625
20
-54.125
11
164.1625
21
-41.125
0
LINE
8
0
10
150.1625
20
-41.125
11
150.1625
21
-54.125
0
ARC
8
0
10
169.7125
20
-54.125
40
0.5
50
180
51
270
0
ARC
8
0
10
182.7125
20
-54.125
40
0.5
50
270
51
0
0
ARC
8
0
10
182.7125
20
-41.125
40
0.5
50
0
51
90
0
ARC
8
0
10
169.7125
20
-41.125
40
0.5
50
90
51
180
0
LINE
8
0
10
169.7125
20
-54.625
11
182.7125
21
-54.625
0
LINE
8
0
10
182.7125
20
-40.625
11
169.7125
21
-40.625
0
LINE
8
0
10
183.2125
20
-54.125
11
183.2125
21
-41.125
0
LINE
8
0
10
169.2125
20
-41.125
11
169.2125
21
-54.125
0
ARC
8
0
10
188.7625
20
-54.125
40
0.5
50
180
51
270
0
ARC
8
0
10
201.7625
20
-54.125
40
0.5
50
270
51
0
0
ARC
8
0
10
201.7625
20
-41.125
40
0.5
50
0
51
90
0
ARC
8
0
10
188.7625
20
-41.125
40
0.5
50
90
51
180
0
LINE
8
0
10
188.7625
20
-54.625
11
201.7625
21
-54.625
0
LINE
8
0
10
201.7625
20
-40.625
11
188.7625
21
-40.625
0
LINE
8
0
10
202.2625
20
-54.125
11
202.2625
21
-41.125
0
LINE
8
0
10
188.2625
20
-41.125
11
188.2625
21
-54.125
0
ARC
8
0
10
207.8125
20
-54.125
40
0.5
50
180
51
270
0
ARC
8
0
10
220.8125
20
-54.125
40
0.5
50
270
51
0
0
ARC
8
0
10
220.8125
20
-41.125
40
0.5
50
0
51
90
0
ARC
8
0
10
207.8125
20
-41.125
40
0.5
50
90
51
180
0
LINE
8
0
10
207.8125
20
-54.625
11
220.8125
21
-54.625
0
LINE
8
0
10
220.8125
20
-40.625
11
207.8125
21
-40.625
0
LINE
8
0
10
221.3125
20
-54.125
11
221.3125
21
-41.125
0
LINE
8
0
10
207.3125
20
-41.125
11
207.3125
21
-54.125
0
ARC
8
0
10
226.8625
20
-54.125
40
0.5
50
180
51
270
0
ARC
8
0
10
239.8625
20
-54.125
40
0.5
50
270
51
0
0
ARC
8
0
10
239.8625
20
-41.125
40
0.5
50
0
51
90
0
ARC
8
0
10
226.8625
20
-41.125
40
0.5
50
90
51
180
0
LINE
8
0
10
226.8625
20
-54.625
11
239.8625
21
-54.625
0
LINE
8
0
10
239.8625
20
-40.625
11
226.8625
21
-40.625
0
LINE
8
0
10
240.3625
20
-54.125
11
240.3625
21
-41.125
0
LINE
8
0
10
226.3625
20
-41.125
11
226.3625
21
-54.125
0
ARC
8
0
10
5.40625
20
-73.175
40
0.5
50
180
51
270
0
ARC
8
0
10
18.40625
20
-73.175
40
0.5
50
270
51
0
0
ARC
8
0
10
18.40625
20
-60.175
40
0.5
50
0
51
90
0
ARC
8
0
10
5.40625
20
-60.175
40
0.5
50
90
51
180
0
LINE
8
0
10
5.40625
20
-73.675
11
18.40625
21
-73.675
0
LINE
8
0
10
18.40625
20
-59.675
11
5.40625
21
-59.675
0
LINE
8
0
10
18.90625
20
-73.175
11
18.90625
21
-60.175
0
LINE
8
0
10
4.90625
20
-60.175
11
4.90625
21
-73.175
0
ARC
8
0
10
29.21875
20
-73.175
40
0.5
50
180
51
270
0
ARC
8
0
10
42.21875
20
-73.175
40
0.5
50
270
51
0
0
ARC
8
0
10
42.21875
20
-60.175
40
0.5
50
0
51
90
0
ARC
8
0
10
29.21875
20
-60.175
40
0.5
50
90
51
180
0
LINE
8
0
10
29.21875
20
-73.675
11
42.21875
21
-73.675
0
LINE
8
0
10
42.21875
20
-59.675
11
29.21875
21
-59.675
0
LINE
8
0
10
42.71875
20
-73.175
11
42.71875
21
-60.175
0
LINE
8
0
10
28.71875
20
-60.175
11
28.71875
21
-73.175
0
ARC
8
0
10
53.03125
20
-73.175
40
0.5
50
180
51
270
0
ARC
8
0
10
66.03125
20
-73.175
40
0.5
50
270
51
0
0
ARC
8
0
10
66.03125
20
-60.175
40
0.5
50
0
51
90
0
ARC
8
0
10
53.03125
20
-60.175
40
0.5
50
90
51
180
0
LINE
8
0
10
53.03125
20
-73.675
11
66.03125
21
-73.675
0
LINE
8
0
10
66.03125
20
-59.675
11
53.03125
21
-59.675
0
LINE
8
0
10
66.53125
20
-73.175
11
66.53125
21
-60.175
0
LINE
8
0
10
52.53125
20
-60.175
11
52.53125
21
-73.175
0
ARC
8
0
10
93.5125
20
-73.175
40
0.5
50
180
51
270
0
ARC
8
0
10
93.5125
20
-60.175
40
0.5
50
90
51
180
0
LINE
8
0
10
93.5125
20
-73.675
11
94.5995
21
-73.675
0
LINE
8
0
10
103.0375
20
-73.675
11
106.5125
21
-73.675
0
LINE
8
0
10
94.5995
20
-73.675
11
100.5995
21
-73.675
0
LINE
8
0
10
100.5995
20
-73.675
11
103.0375
21
-73.675
0
LINE
8
0
10
106.5125
20
-59.675
11
103.0375
21
-59.675
0
LINE
8
0
10
103.0375
20
-59.675
11
101.0995
21
-59.675
0
LINE
8
0
10
94.0995
20
-59.675
11
93.5125
21
-59.675
0
LINE
8
0
10
93.0125
20
-60.175
11
93.0125
21
-73.175
0
ARC
8
0
10
116.0625
20
-59.175
40
0.5
50
90
51
180
0
ARC
8
0
10
116.0625
20
-73.175
40
0.5
50
268.567456
51
270
0
LINE
8
0
10
122.0625
20
-58.675
11
118.4755
21
-58.675
0
LINE
8
0
10
118.4755
20
-58.675
11
116.0625
21
-58.675
0
LINE
8
0
10
116.0625
20
-73.675
11
118.4755
21
-73.675
0
LINE
8
0
10
118.4755
20
-73.675
11
122.0625
21
-73.675
0
LINE
8
0
10
115.5625
20
-59.175
11
115.5625
21
-59.675
0
ARC
8
0
10
77.9625
20
-59.175
40
0.5
50
90
51
180
0
LINE
8
0
10
83.9625
20
-58.675
11
77.96875
21
-58.675
0
LINE
8
0
10
77.96875
20
-58.675
11
77.9625
21
-58.675
0
LINE
8
0
10
77.9625
20
-73.675
11
77.96875
21
-73.675
0
LINE
8
0
10
77.96875
20
-73.675
11
83.9625
21
-73.675
0
LINE
8
0
10
77.4625
20
-59.175
11
77.4625
21
-59.675
0
LINE
8
0
10
124.46875
20
-73.675
11
124.4755
21
-73.675
0
LINE
8
0
10
124.4755
20
-73.675
11
135.08075
21
-73.675
0
LINE
8
0
10
135.08075
20
-73.675
11
135.0875
21
-73.675
0
LINE
8
0
10
135.0875
20
-73.675
11
135.1125
21
-73.675
0
LINE
8
0
10
135.1125
20
-73.675
11
136.375
21
-73.675
0
LINE
8
0
10
136.375
20
-73.675
11
137.46875
21
-73.675
0
LINE
8
0
10
134.58075
20
-59.675
11
124.9755
21
-59.675
0
ARC
8
0
10
183.96875
20
-59.175
40
0.5
50
0
51
90
0
LINE
8
0
10
183.96875
20
-58.675
11
179.2125
21
-58.675
0
LINE
8
0
10
179.2125
20
-58.675
11
177.96875
21
-58.675
0
LINE
8
0
10
177.96875
20
-73.675
11
179.2125
21
-73.675
0
LINE
8
0
10
179.2125
20
-73.675
11
179.2375
21
-73.675
0
LINE
8
0
10
179.2375
20
-73.675
11
183.96875
21
-73.675
0
LINE
8
0
10
184.46875
20
-59.675
11
184.46875
21
-59.175
0
ARC
8
0
10
83.96875
20
-59.175
40
0.5
50
0
51
90
0
LINE
8
0
10
83.96875
20
-58.675
11
83.9625
21
-58.675
0
LINE
8
0
10
83.9625
20
-73.675
11
83.96875
21
-73.675
0
LINE
8
0
10
84.46875
20
-59.675
11
84.46875
21
-59.175
0
ARC
8
0
10
74.4625
20
-73.175
40
0.5
50
180
51
270
0
ARC
8
0
10
87.4625
20
-73.175
40
0.5
50
270
51
0
0
ARC
8
0
10
87.4625
20
-60.175
40
0.5
50
0
51
90
0
ARC
8
0
10
74.4625
20
-60.175
40
0.5
50
90
51
180
0
LINE
8
0
10
74.4625
20
-73.675
11
77.9625
21
-73.675
0
LINE
8
0
10
83.96875
20
-73.675
11
87.4625
21
-73.675
0
LINE
8
0
10
87.4625
20
-59.675
11
84.46875
21
-59.675
0
LINE
8
0
10
77.4625
20
-59.675
11
74.4625
21
-59.675
0
LINE
8
0
10
87.9625
20
-73.175
11
87.9625
21
-60.175
0
LINE
8
0
10
73.9625
20
-60.175
11
73.9625
21
-73.175
0
ARC
8
0
10
116.0375
20
-73.175
40
0.5
50
270
51
271.432544
0
LINE
8
0
10
106.5125
20
-73.675
11
116.0375
21
-73.675
0
LINE
8
0
10
115.5625
20
-59.675
11
106.5125
21
-59.675
0
ARC
8
0
10
124.4755
20
-59.175
40
0.5
50
0
51
90
0
LINE
8
0
10
124.4755
20
-58.675
11
122.0625
21
-58.675
0
LINE
8
0
10
122.0625
20
-73.675
11
122.0875
21
-73.675
0
LINE
8
0
10
122.0875
20
-73.675
11
124.46875
21
-73.675
0
LINE
8
0
10
124.9755
20
-59.675
11
124.9755
21
-59.175
0
ARC
8
0
10
100.5995
20
-59.175
40
0.5
50
0
51
90
0
ARC
8
0
10
94.5995
20
-59.175
40
0.5
50
90
51
180
0
LINE
8
0
10
100.5995
20
-58.675
11
94.5995
21
-58.675
0
LINE
8
0
10
94.0995
20
-59.175
11
94.0995
21
-59.675
0
LINE
8
0
10
101.0995
20
-59.675
11
101.0995
21
-59.175
0
LINE
8
0
10
150.6625
20
-73.675
11
156.51875
21
-73.675
0
LINE
8
0
10
156.51875
20
-73.675
11
158.95675
21
-73.675
0
LINE
8
0
10
158.95675
20
-73.675
11
163.6625
21
-73.675
0
LINE
8
0
10
156.51875
20
-59.675
11
150.6625
21
-59.675
0
LINE
8
0
10
158.45675
20
-59.675
11
156.51875
21
-59.675
0
ARC
8
0
10
173.2125
20
-59.175
40
0.5
50
90
51
180
0
ARC
8
0
10
173.2125
20
-73.175
40
0.5
50
180
51
270
0
LINE
8
0
10
177.96875
20
-58.675
11
173.2125
21
-58.675
0
LINE
8
0
10
173.2125
20
-73.675
11
174.475
21
-73.675
0
LINE
8
0
10
174.475
20
-73.675
11
177.96875
21
-73.675
0
LINE
8
0
10
172.7125
20
-59.175
11
172.7125
21
-73.175
0
ARC
8
0
10
141.1125
20
-59.175
40
0.5
50
0
51
90
0
LINE
8
0
10
141.1125
20
-58.675
11
141.08075
21
-58.675
0
LINE
8
0
10
141.08075
20
-58.675
11
135.1125
21
-58.675
0
LINE
8
0
10
137.46875
20
-73.675
11
141.08075
21
-73.675
0
LINE
8
0
10
141.08075
20
-73.675
11
141.1125
21
-73.675
0
LINE
8
0
10
141.6125
20
-59.675
11
141.6125
21
-59.175
0
LINE
8
0
10
143.51875
20
-73.675
11
149.375
21
-73.675
0
LINE
8
0
10
149.375
20
-73.675
11
150.6625
21
-73.675
0
LINE
8
0
10
150.6625
20
-59.675
11
149.375
21
-59.675
0
LINE
8
0
10
149.375
20
-59.675
11
143.51875
21
-59.675
0
ARC
8
0
10
164.95675
20
-59.175
40
0.5
50
0
51
90
0
ARC
8
0
10
158.95675
20
-59.175
40
0.5
50
90
51
180
0
ARC
8
0
10
164.95675
20
-73.175
40
0.5
50
270
51
0
0
LINE
8
0
10
164.95675
20
-58.675
11
158.95675
21
-58.675
0
LINE
8
0
10
163.6625
20
-73.675
11
164.95675
21
-73.675
0
LINE
8
0
10
158.45675
20
-59.175
11
158.45675
21
-59.675
0
LINE
8
0
10
165.45675
20
-73.175
11
165.45675
21
-59.175
0
ARC
8
0
10
135.08075
20
-59.175
40
0.5
50
90
51
180
0
LINE
8
0
10
135.1125
20
-58.675
11
135.08075
21
-58.675
0
LINE
8
0
10
134.58075
20
-59.175
11
134.58075
21
-59.675
0
LINE
8
0
10
141.1125
20
-73.675
11
143.51875
21
-73.675
0
LINE
8
0
10
143.51875
20
-59.675
11
141.6125
21
-59.675
0
LINE
8
0
10
183.96875
20
-73.675
11
187.475
21
-73.675
0
LINE
8
0
10
187.475
20
-59.675
11
184.46875
21
-59.675
0
LINE
8
0
10
187.475
20
-73.675
11
188.7625
21
-73.675
0
LINE
8
0
10
188.7625
20
-73.675
11
192.2375
21
-73.675
0
LINE
8
0
10
192.2375
20
-59.675
11
188.7625
21
-59.675
0
LINE
8
0
10
188.7625
20
-59.675
11
187.475
21
-59.675
0
LINE
8
0
10
192.2375
20
-73.675
11
195.90625
21
-73.675
0
LINE
8
0
10
195.90625
20
-73.675
11
201.7625
21
-73.675
0
LINE
8
0
10
201.7625
20
-59.675
11
195.90625
21
-59.675
0
LINE
8
0
10
195.90625
20
-59.675
11
192.2375
21
-59.675
0
LINE
8
0
10
201.7625
20
-73.675
11
207.8125
21
-73.675
0
LINE
8
0
10
207.8125
20
-73.675
11
208.90625
21
-73.675
0
LINE
8
0
10
208.90625
20
-59.675
11
207.8125
21
-59.675
0
LINE
8
0
10
207.8125
20
-59.675
11
201.7625
21
-59.675
0
LINE
8
0
10
208.90625
20
-73.675
11
216.5
21
-73.675
0
LINE
8
0
10
216.5
20
-73.675
11
217.3375
21
-73.675
0
LINE
8
0
10
217.3375
20
-73.675
11
217.5
21
-73.675
0
LINE
8
0
10
217.5
20
-73.675
11
220.8125
21
-73.675
0
LINE
8
0
10
220.8125
20
-59.675
11
217.5
21
-59.675
0
LINE
8
0
10
217.5
20
-59.675
11
217.3375
21
-59.675
0
LINE
8
0
10
217.3375
20
-59.675
11
216.5
21
-59.675
0
LINE
8
0
10
216.5
20
-59.675
11
208.90625
21
-59.675
0
LINE
8
0
10
222.1
20
-73.675
11
226.8625
21
-73.675
0
LINE
8
0
10
226.8625
20
-73.675
11
230.3375
21
-73.675
0
LINE
8
0
10
230.3375
20
-73.675
11
235.1
21
-73.675
0
LINE
8
0
10
235.1
20
-59.675
11
230.3375
21
-59.675
0
LINE
8
0
10
230.3375
20
-59.675
11
226.8625
21
-59.675
0
LINE
8
0
10
226.8625
20
-59.675
11
222.1
21
-59.675
0
ARC
8
0
10
240.7
20
-73.175
40
0.5
50
270
51
0
0
ARC
8
0
10
240.7
20
-60.175
40
0.5
50
0
51
90
0
LINE
8
0
10
239.7
20
-73.675
11
239.8625
21
-73.675
0
LINE
8
0
10
239.8625
20
-73.675
11
240.7
21
-73.675
0
LINE
8
0
10
240.7
20
-59.675
11
239.8625
21
-59.675
0
LINE
8
0
10
239.8625
20
-59.675
11
239.7
21
-59.675
0
LINE
8
0
10
241.2
20
-73.175
11
241.2
21
-60.175
0
LINE
8
0
10
220.8125
20
-73.675
11
222.1
21
-73.675
0
LINE
8
0
10
222.1
20
-59.675
11
220.8125
21
-59.675
0
LINE
8
0
10
235.1
20
-73.675
11
239.7
21
-73.675
0
LINE
8
0
10
239.7
20
-59.675
11
235.1
21
-59.675
0
ENDSEC
0
EOF