0
SECTION
2
HEADER
9
$INSUNITS
70
4
9
$ACADVER
1
AC1014
9
$HANDSEED
5
FFFF
0
ENDSEC
0
SECTION
2
TABLES
0
TABLE
2
VPORT
5
8
100
AcDbSymbolTable
0
ENDTAB
0
TABLE
2
LTYPE
5
5
100
AcDbSymbolTable
0
LTYPE
5
14
100
AcDbSymbolTableRecord
100
AcDbLinetypeTableRecord
2
BYBLOCK
70
0
0
LTYPE
5
15
100
AcDbSymbolTableRecord
100
AcDbLinetypeTableRecord
2
BYLAYER
70
0
0
ENDTAB
0
TABLE
2
LAYER
5
2
100
AcDbSymbolTable
70
2
0
LAYER
5
50
100
AcDbSymbolTableRecord
100
AcDbLayerTableRecord
2
0
70
0
6
CONTINUOUS
0
ENDTAB
0
TABLE
2
STYLE
5
3
100
AcDbSymbolTable
70
1
0
STYLE
5
11
100
AcDbSymbolTableRecord
100
AcDbTextStyleTableRecord
2
STANDARD
70
0
0
ENDTAB
0
TABLE
2
VIEW
5
6
100
AcDbSymbolTable
70
0
0
ENDTAB
0
TABLE
2
UCS
5
7
100
AcDbSymbolTable
70
0
0
ENDTAB
0
TABLE
2
APPID
5
9
100
AcDbSymbolTable
70
2
0
APPID
5
12
100
AcDbSymbolTableRecord
100
AcDbRegAppTableRecord
2
ACAD
70
0
0
ENDTAB
0
TABLE
2
DIMSTYLE
5
A
100
AcDbSymbolTable
70
1
0
ENDTAB
0
TABLE
2
BLOCK_RECORD
5
1
100
AcDbSymbolTable
70
1
0
BLOCK_RECORD
5
1F
100
AcDbSymbolTableRecord
100
AcDbBlockTableRecord
2
*MODEL_SPACE
0
BLOCK_RECORD
5
1B
100
AcDbSymbolTableRecord
100
AcDbBlockTableRecord
2
*PAPER_SPACE
0
ENDTAB
0
ENDSEC
0
SECTION
2
BLOCKS
0
BLOCK
5
20
100
AcDbEntity
100
AcDbBlockBegin
2
*MODEL_SPACE
0
ENDBLK
5
21
100
AcDbEntity
100
AcDbBlockEnd
0
BLOCK
5
1C
100
AcDbEntity
100
AcDbBlockBegin
2
*PAPER_SPACE
0
ENDBLK
5
1D
100
AcDbEntity
100
AcDbBlockEnd
0
ENDSEC
0
SECTION
2
ENTITIES
0
LWPOLYLINE
5
100
100
AcDbEntity
8
0
100
AcDbPolyline
90
4
70
1
43
0.0
10
-90.568749999999994
20
102.47500000000001
10
-90.568749999999994
20
88.474999999999994
10
-76.568749999999994
20
88.474999999999994
10
-76.568749999999994
20
102.47500000000001
0
LWPOLYLINE
5
101
100
AcDbEntity
8
0
100
AcDbPolyline
90
4
70
1
43
0.0
10
-69.137500000000017
20
88.474999999999994
10
-55.13750000000001
20
88.474999999999994
10
-55.13750000000001
20
102.47500000000001
10
-69.137500000000017
20
102.47500000000001
0
LWPOLYLINE
5
102
100
AcDbEntity
8
0
100
AcDbPolyline
90
4
70
1
43
0.0
10
-88.187500000000014
20
64.375000000000014
10
-88.187500000000014
20
50.375000000000007
10
-74.187500000000014
20
50.375000000000007
10
-74.187500000000014
20
64.375000000000014
0
LWPOLYLINE
5
103
100
AcDbEntity
8
0
100
AcDbPolyline
90
4
70
1
43
0.0
10
-107.23750000000003
20
64.375000000000014
10
-107.23750000000003
20
50.375000000000007
10
-93.237500000000026
20
50.375000000000007
10
-93.237500000000026
20
64.375000000000014
0
LWPOLYLINE
5
104
100
AcDbEntity
8
0
100
AcDbPolyline
90
4
70
1
43
0.0
10
-164.38749999999999
20
64.375000000000014
10
-164.38749999999999
20
50.375000000000007
10
-150.38750000000002
20
50.375000000000007
10
-150.38750000000002
20
64.375000000000014
0
LWPOLYLINE
5
105
100
AcDbEntity
8
0
100
AcDbPolyline
90
4
70
1
43
0.0
10
-202.48750000000001
20
64.375000000000014
10
-202.48750000000001
20
50.375000000000007
10
-188.48750000000001
20
50.375000000000007
10
-188.48750000000001
20
64.375000000000014
0
LWPOLYLINE
5
106
100
AcDbEntity
8
0
100
AcDbPolyline
90
4
70
1
43
0.0
10
-231.06250000000003
20
83.425000000000011
10
-231.06250000000003
20
69.425000000000011
10
-217.06250000000006
20
69.425000000000011
10
-217.06250000000006
20
83.425000000000011
0
LWPOLYLINE
5
107
100
AcDbEntity
8
0
100
AcDbPolyline
90
4
70
1
43
0.0
10
-221.53750000000002
20
64.375000000000014
10
-221.53750000000002
20
50.375000000000007
10
-207.53750000000002
20
50.375000000000007
10
-207.53750000000002
20
64.375000000000014
0
LWPOLYLINE
5
108
100
AcDbEntity
8
0
100
AcDbPolyline
90
4
70
1
43
0.0
10
-197.72500000000002
20
45.325000000000003
10
-197.72500000000002
20
31.325000000000003
10
-183.72500000000002
20
31.325000000000003
10
-183.72500000000002
20
45.325000000000003
0
LWPOLYLINE
5
109
100
AcDbEntity
8
0
100
AcDbPolyline
90
4
70
1
43
0.0
10
-121.52500000000002
20
45.325000000000003
10
-121.52500000000002
20
31.325000000000003
10
-107.52500000000001
20
31.325000000000003
10
-107.52500000000001
20
45.325000000000003
0
LWPOLYLINE
5
110
100
AcDbEntity
8
0
100
AcDbPolyline
90
4
70
1
43
0.0
10
-64.375000000000014
20
45.325000000000003
10
-64.375000000000014
20
31.325000000000003
10
-50.375000000000007
20
31.325000000000003
10
-50.375000000000007
20
45.325000000000003
0
LWPOLYLINE
5
111
100
AcDbEntity
8
0
100
AcDbPolyline
90
4
70
1
43
0.0
10
-140.57499999999999
20
45.325000000000003
10
-140.57499999999999
20
31.325000000000003
10
-126.57499999999999
20
31.325000000000003
10
-126.57499999999999
20
45.325000000000003
0
LWPOLYLINE
5
112
100
AcDbEntity
8
0
100
AcDbPolyline
90
4
70
1
43
0.0
10
-216.77500000000003
20
45.325000000000003
10
-216.77500000000003
20
31.325000000000003
10
-202.77500000000003
20
31.325000000000003
10
-202.77500000000003
20
45.325000000000003
0
LWPOLYLINE
5
113
100
AcDbEntity
8
0
100
AcDbPolyline
90
4
70
1
43
0.0
10
-250.11250000000004
20
83.425000000000011
10
-250.11250000000004
20
69.425000000000011
10
-236.11250000000007
20
69.425000000000011
10
-236.11250000000007
20
83.425000000000011
0
LWPOLYLINE
5
114
100
AcDbEntity
8
0
100
AcDbPolyline
90
4
70
1
43
0.0
10
-212.01250000000002
20
83.425000000000011
10
-212.01250000000002
20
69.425000000000011
10
-198.01250000000005
20
69.425000000000011
10
-198.01250000000005
20
83.425000000000011
0
LWPOLYLINE
5
115
100
AcDbEntity
8
0
100
AcDbPolyline
90
4
70
1
43
0.0
10
-183.4375
20
64.375000000000014
10
-183.4375
20
50.375000000000007
10
-169.4375
20
50.375000000000007
10
-169.4375
20
64.375000000000014
0
LWPOLYLINE
5
116
100
AcDbEntity
8
0
100
AcDbPolyline
90
4
70
1
43
0.0
10
-145.33750000000001
20
64.375000000000014
10
-145.33750000000001
20
50.375000000000007
10
-131.33750000000001
20
50.375000000000007
10
-131.33750000000001
20
64.375000000000014
0
LWPOLYLINE
5
117
100
AcDbEntity
8
0
100
AcDbPolyline
90
4
70
1
43
0.0
10
-116.76249999999999
20
83.425000000000011
10
-116.76249999999999
20
69.425000000000011
10
-102.76249999999999
20
69.425000000000011
10
-102.76249999999999
20
83.425000000000011
0
LWPOLYLINE
5
118
100
AcDbEntity
8
0
100
AcDbPolyline
90
4
70
1
43
0.0
10
-69.137500000000017
20
64.375000000000014
10
-69.137500000000017
20
50.375000000000007
10
-55.13750000000001
20
50.375000000000007
10
-55.13750000000001
20
64.375000000000014
0
LWPOLYLINE
5
119
100
AcDbEntity
8
0
100
AcDbPolyline
90
4
70
1
43
0.0
10
-50.087500000000006
20
88.474999999999994
10
-36.087499999999999
20
88.474999999999994
10
-36.087499999999999
20
102.47500000000001
10
-50.087500000000006
20
102.47500000000001
0
LWPOLYLINE
5
120
100
AcDbEntity
8
0
100
AcDbPolyline
90
4
70
1
43
0.0
10
-168.62500000000006
20
102.47500000000001
10
-168.62500000000006
20
88.474999999999994
10
-136.625
20
88.474999999999994
10
-136.625
20
102.47500000000001
0
LWPOLYLINE
5
121
100
AcDbEntity
8
0
100
AcDbPolyline
90
4
70
1
43
0.0
10
-33.41875000000001
20
69.425000000000011
10
-19.418750000000006
20
69.425000000000011
10
-19.418750000000006
20
83.425000000000011
10
-33.41875000000001
20
83.425000000000011
0
LWPOLYLINE
5
122
100
AcDbEntity
8
0
100
AcDbPolyline
90
4
70
1
43
0.0
10
-78.662500000000009
20
83.425000000000011
10
-78.662500000000009
20
69.425000000000011
10
-64.662500000000009
20
69.425000000000011
10
-64.662500000000009
20
83.425000000000011
0
LWPOLYLINE
5
123
100
AcDbEntity
8
0
100
AcDbPolyline
90
4
70
1
43
0.0
10
-97.712500000000006
20
83.425000000000011
10
-97.712500000000006
20
69.425000000000011
10
-83.712500000000006
20
69.425000000000011
10
-83.712500000000006
20
83.425000000000011
0
LWPOLYLINE
5
124
100
AcDbEntity
8
0
100
AcDbPolyline
90
4
70
1
43
0.0
10
-126.28750000000002
20
64.375000000000014
10
-126.28750000000002
20
50.375000000000007
10
-112.28750000000002
20
50.375000000000007
10
-112.28750000000002
20
64.375000000000014
0
LWPOLYLINE
5
125
100
AcDbEntity
8
0
100
AcDbPolyline
90
4
70
1
43
0.0
10
-154.86250000000001
20
83.425000000000011
10
-154.86250000000001
20
69.425000000000011
10
-140.86250000000001
20
69.425000000000011
10
-140.86250000000001
20
83.425000000000011
0
LWPOLYLINE
5
126
100
AcDbEntity
8
0
100
AcDbPolyline
90
4
70
1
43
0.0
10
-192.96250000000001
20
83.425000000000011
10
-192.96250000000001
20
69.425000000000011
10
-178.96250000000003
20
69.425000000000011
10
-178.96250000000003
20
83.425000000000011
0
LWPOLYLINE
5
127
100
AcDbEntity
8
0
100
AcDbPolyline
90
4
70
1
43
0.0
10
-231.06250000000003
20
102.47500000000001
10
-231.06250000000003
20
88.474999999999994
10
-217.06250000000006
20
88.474999999999994
10
-217.06250000000006
20
102.47500000000001
0
LWPOLYLINE
5
128
100
AcDbEntity
8
0
100
AcDbPolyline
90
4
70
1
43
0.0
10
-245.34999999999999
20
64.375000000000014
10
-245.34999999999999
20
50.375000000000007
10
-231.35000000000002
20
50.375000000000007
10
-231.35000000000002
20
64.375000000000014
0
LWPOLYLINE
5
129
100
AcDbEntity
8
0
100
AcDbPolyline
90
4
70
1
43
0.0
10
-178.67500000000004
20
45.325000000000003
10
-178.67500000000004
20
31.325000000000003
10
-164.67500000000004
20
31.325000000000003
10
-164.67500000000004
20
45.325000000000003
0
LWPOLYLINE
5
130
100
AcDbEntity
8
0
100
AcDbPolyline
90
4
70
1
43
0.0
10
-102.47500000000002
20
45.325000000000003
10
-102.47500000000002
20
31.325000000000003
10
-88.475000000000023
20
31.325000000000003
10
-88.475000000000023
20
45.325000000000003
0
LWPOLYLINE
5
131
100
AcDbEntity
8
0
100
AcDbPolyline
90
4
70
1
43
0.0
10
-83.425000000000011
20
45.325000000000003
10
-83.425000000000011
20
31.325000000000003
10
-69.424999999999997
20
31.325000000000003
10
-69.424999999999997
20
45.325000000000003
0
LWPOLYLINE
5
132
100
AcDbEntity
8
0
100
AcDbPolyline
90
4
70
1
43
0.0
10
-159.625
20
45.325000000000003
10
-159.625
20
31.325000000000003
10
-145.62500000000003
20
31.325000000000003
10
-145.62500000000003
20
45.325000000000003
0
LWPOLYLINE
5
133
100
AcDbEntity
8
0
100
AcDbPolyline
90
4
70
1
43
0.0
10
-242.96875000000003
20
45.325000000000003
10
-242.96875000000003
20
31.325000000000003
10
-228.96875000000006
20
31.325000000000003
10
-228.96875000000006
20
45.325000000000003
0
LWPOLYLINE
5
134
100
AcDbEntity
8
0
100
AcDbPolyline
90
4
70
1
43
0.0
10
-250.11250000000004
20
102.47500000000001
10
-250.11250000000004
20
88.474999999999994
10
-236.11250000000007
20
88.474999999999994
10
-236.11250000000007
20
102.47500000000001
0
LWPOLYLINE
5
135
100
AcDbEntity
8
0
100
AcDbPolyline
90
4
70
1
43
0.0
10
-212.01250000000002
20
102.47500000000001
10
-212.01250000000002
20
88.474999999999994
10
-198.01250000000005
20
88.474999999999994
10
-198.01250000000005
20
102.47500000000001
0
LWPOLYLINE
5
136
100
AcDbEntity
8
0
100
AcDbPolyline
90
4
70
1
43
0.0
10
-173.91249999999999
20
83.425000000000011
10
-173.91249999999999
20
69.425000000000011
10
-159.91250000000002
20
69.425000000000011
10
-159.91250000000002
20
83.425000000000011
0
LWPOLYLINE
5
137
100
AcDbEntity
8
0
100
AcDbPolyline
90
4
70
1
43
0.0
10
-135.8125
20
83.425000000000011
10
-135.8125
20
69.425000000000011
10
-121.8125
20
69.425000000000011
10
-121.8125
20
83.425000000000011
0
LWPOLYLINE
5
138
100
AcDbEntity
8
0
100
AcDbPolyline
90
4
70
1
43
0.0
10
-130.52500000000003
20
102.47500000000001
10
-130.52500000000003
20
88.474999999999994
10
-98.525000000000006
20
88.474999999999994
10
-98.525000000000006
20
102.47500000000001
0
LWPOLYLINE
5
139
100
AcDbEntity
8
0
100
AcDbPolyline
90
4
70
1
43
0.0
10
-59.612500000000004
20
83.425000000000011
10
-59.612500000000004
20
69.425000000000011
10
-45.612500000000004
20
69.425000000000011
10
-45.612500000000004
20
83.425000000000011
0
LWPOLYLINE
5
140
100
AcDbEntity
8
0
100
AcDbPolyline
90
4
70
1
43
0.0
10
-28.656250000000011
20
88.474999999999994
10
-14.656250000000011
20
88.474999999999994
10
-14.656250000000011
20
102.47500000000001
10
-28.656250000000011
20
102.47500000000001
0
LWPOLYLINE
5
141
100
AcDbEntity
8
0
100
AcDbPolyline
90
4
70
1
43
0.0
10
-190.58125000000004
20
102.47500000000001
10
-190.58125000000004
20
88.474999999999994
10
-176.58125000000007
20
88.474999999999994
10
-176.58125000000007
20
102.47500000000001
0
LWPOLYLINE
5
142
100
AcDbEntity
8
0
100
AcDbPolyline
90
23
70
1
43
0.0
10
-193.13749999999996
20
25.800000000000004
10
-252.63749999999993
20
25.799999999999983
42
-0.41421356237308982
10
-255.63749999999996
20
28.800000000000008
10
-255.63749999999996
20
63.899999999999999
42
-0.99999999999999989
10
-255.63749999999996
20
69.900000000000006
10
-255.63749999999996
20
105
42
-0.41421356237308815
10
-252.63749999999993
20
108
10
-193.13749999999996
20
108
42
-0.99999999999999989
10
-187.13749999999993
20
108
10
-75.413000000000011
20
108
42
-0.99999999999999989
10
-69.413000000000011
20
108
10
-9.7500000000000142
20
108
42
-0.41421356237309209
10
-6.7500000000000071
20
105
10
-6.750000000000008
20
60.375
42
-0.99999999999999989
10
-6.7500000000000062
20
54.375
10
-6.7500000000000062
20
9.7499999999999982
42
-0.41421356237309498
10
-9.7500000000000053
20
6.7499999999999982
10
-69.412999999999997
20
6.7500000000000027
42
-0.99999999999999989
10
-75.413000000000011
20
6.7500000000000027
10
-133.57499999999999
20
6.7500000000000071
42
-0.41421356237309354
10
-136.57500000000002
20
9.7499999999999982
10
-136.57499999999999
20
25.800000000000004
10
-187.13749999999993
20
25.800000000000004
42
-0.99999999999999989
0
LWPOLYLINE
5
143
100
AcDbEntity
8
0
100
AcDbPolyline
90
4
70
1
43
0.0
10
-45.325000000000003
20
45.325000000000003
10
-45.325000000000003
20
31.325000000000003
10
-31.325000000000006
20
31.325000000000003
10
-31.325000000000006
20
45.325000000000003
0
LWPOLYLINE
5
144
100
AcDbEntity
8
0
100
AcDbPolyline
90
4
70
1
43
0.0
10
-112.00000000000003
20
26.275000000000006
10
-112.00000000000003
20
12.275
10
-98.000000000000028
20
12.275
10
-98.000000000000028
20
26.275000000000006
0
CIRCLE
5
145
100
AcDbEntity
8
0
100
AcDbCircle
10
-13.762000000000008
20
24.050000000000004
30
0
40
1.749999999999998
210
0
220
-0
230
1
0
CIRCLE
5
146
100
AcDbEntity
8
0
100
AcDbCircle
10
-13.762000000000008
20
18.524999999999999
30
0
40
1.7500000000000004
210
0
220
-0
230
1
0
LWPOLYLINE
5
147
100
AcDbEntity
8
0
100
AcDbPolyline
90
4
70
1
43
0.0
10
-92.950000000000017
20
26.275000000000006
10
-92.950000000000017
20
12.275
10
-78.950000000000017
20
12.275
10
-78.950000000000017
20
26.275000000000006
0
LWPOLYLINE
5
148
100
AcDbEntity
8
0
100
AcDbPolyline
90
4
70
1
43
0.0
10
-26.275000000000006
20
45.325000000000003
10
-26.275000000000006
20
31.325000000000003
10
-12.275000000000007
20
31.325000000000003
10
-12.275000000000007
20
45.325000000000003
0
LWPOLYLINE
5
149
100
AcDbEntity
8
0
100
AcDbPolyline
90
4
70
1
43
0.0
10
-28.656250000000011
20
64.375000000000014
10
-28.656250000000011
20
50.375000000000007
10
-14.656250000000007
20
50.375000000000007
10
-14.656250000000007
20
64.375000000000014
0
LWPOLYLINE
5
150
100
AcDbEntity
8
0
100
AcDbPolyline
90
4
70
1
43
0.0
10
-131.05000000000004
20
26.274999999999999
10
-131.05000000000004
20
12.275
10
-117.05000000000004
20
12.275
10
-117.05000000000004
20
26.274999999999999
0
LWPOLYLINE
5
151
100
AcDbEntity
8
0
100
AcDbPolyline
90
4
70
1
43
0.0
10
-35.800000000000011
20
26.275000000000006
10
-35.800000000000011
20
12.275
10
-21.800000000000004
20
12.275
10
-21.800000000000004
20
26.275000000000006
0
CIRCLE
5
152
100
AcDbEntity
8
0
100
AcDbCircle
10
-13.762000000000008
20
12.999999999999998
30
0
40
1.7500000000000004
210
0
220
-0
230
1
0
LWPOLYLINE
5
153
100
AcDbEntity
8
0
100
AcDbPolyline
90
4
70
1
43
0.0
10
-54.850000000000009
20
26.275000000000006
10
-54.850000000000009
20
12.275
10
-40.850000000000009
20
12.275
10
-40.850000000000009
20
26.275000000000006
0
LWPOLYLINE
5
154
100
AcDbEntity
8
0
100
AcDbPolyline
90
4
70
1
43
0.0
10
-73.90000000000002
20
26.275000000000006
10
-73.90000000000002
20
12.275
10
-59.900000000000013
20
12.275
10
-59.900000000000013
20
26.275000000000006
0
LWPOLYLINE
5
155
100
AcDbEntity
8
0
100
AcDbPolyline
90
4
70
1
43
0.0
10
-50.087500000000006
20
64.375000000000014
10
-50.087500000000006
20
50.375000000000007
10
-36.087500000000013
20
50.375000000000007
10
-36.087500000000013
20
64.375000000000014
0
ENDSEC
0
SECTION
2
OBJECTS
0
DICTIONARY
5
C
100
AcDbDictionary
3
ACAD_GROUP
350
D
3
ACAD_MLINESTYLE
350
17
0
DICTIONARY
5
D
100
AcDbDictionary
0
DICTIONARY
5
1A
330
C
100
AcDbDictionary
0
DICTIONARY
5
17
100
AcDbDictionary
0
ENDSEC
0
EOF
