0
SECTION
2
HEADER
9
$INSUNITS
70
4
9
$ACADVER
1
AC1014
9
$HANDSEED
5
FFFF
0
ENDSEC
0
SECTION
2
TABLES
0
TABLE
2
VPORT
5
8
100
AcDbSymbolTable
0
ENDTAB
0
TABLE
2
LTYPE
5
5
100
AcDbSymbolTable
0
LTYPE
5
14
100
AcDbSymbolTableRecord
100
AcDbLinetypeTableRecord
2
BYBLOCK
70
0
0
LTYPE
5
15
100
AcDbSymbolTableRecord
100
AcDbLinetypeTableRecord
2
BYLAYER
70
0
0
ENDTAB
0
TABLE
2
LAYER
5
2
100
AcDbSymbolTable
70
2
0
LAYER
5
50
100
AcDbSymbolTableRecord
100
AcDbLayerTableRecord
2
0
70
0
6
CONTINUOUS
0
ENDTAB
0
TABLE
2
STYLE
5
3
100
AcDbSymbolTable
70
1
0
STYLE
5
11
100
AcDbSymbolTableRecord
100
AcDbTextStyleTableRecord
2
STANDARD
70
0
0
ENDTAB
0
TABLE
2
VIEW
5
6
100
AcDbSymbolTable
70
0
0
ENDTAB
0
TABLE
2
UCS
5
7
100
AcDbSymbolTable
70
0
0
ENDTAB
0
TABLE
2
APPID
5
9
100
AcDbSymbolTable
70
2
0
APPID
5
12
100
AcDbSymbolTableRecord
100
AcDbRegAppTableRecord
2
ACAD
70
0
0
ENDTAB
0
TABLE
2
DIMSTYLE
5
A
100
AcDbSymbolTable
70
1
0
ENDTAB
0
TABLE
2
BLOCK_RECORD
5
1
100
AcDbSymbolTable
70
1
0
BLOCK_RECORD
5
1F
100
AcDbSymbolTableRecord
100
AcDbBlockTableRecord
2
*MODEL_SPACE
0
BLOCK_RECORD
5
1B
100
AcDbSymbolTableRecord
100
AcDbBlockTableRecord
2
*PAPER_SPACE
0
ENDTAB
0
ENDSEC
0
SECTION
2
BLOCKS
0
BLOCK
5
20
100
AcDbEntity
100
AcDbBlockBegin
2
*MODEL_SPACE
0
ENDBLK
5
21
100
AcDbEntity
100
AcDbBlockEnd
0
BLOCK
5
1C
100
AcDbEntity
100
AcDbBlockBegin
2
*PAPER_SPACE
0
ENDBLK
5
1D
100
AcDbEntity
100
AcDbBlockEnd
0
ENDSEC
0
SECTION
2
ENTITIES
0
LWPOLYLINE
5
100
100
AcDbEntity
8
0
100
AcDbPolyline
90
8
70
1
43
0.0
10
-261.79374999999999
20
73.175000000000026
10
-261.79374999999999
20
60.175000000000011
42
0.41421356237309503
10
-261.29375000000005
20
59.675000000000011
10
-248.29375000000005
20
59.675000000000004
42
0.41421356237309503
10
-247.7937500000001
20
60.174999999999997
10
-247.79375000000005
20
73.175000000000011
42
0.41421356237309503
10
-248.29375000000005
20
73.675000000000011
10
-261.29375000000005
20
73.675000000000026
42
0.41421356237309503
0
LWPOLYLINE
5
101
100
AcDbEntity
8
0
100
AcDbPolyline
90
8
70
1
43
0.0
10
-140.34999999999999
20
73.175000000000026
10
-140.34999999999999
20
60.175000000000011
42
0.41421356237309503
10
-139.84999999999999
20
59.675000000000011
10
-126.85000000000001
20
59.675000000000004
42
0.41421356237309503
10
-126.34999999999998
20
60.174999999999997
10
-126.34999999999998
20
73.175000000000011
42
0.41421356237309503
10
-126.84999999999999
20
73.675000000000011
10
-139.84999999999999
20
73.675000000000026
42
0.41421356237309503
0
LWPOLYLINE
5
102
100
AcDbEntity
8
0
100
AcDbPolyline
90
8
70
1
43
0.0
10
-18.90625
20
73.175000000000026
10
-18.90625
20
60.175000000000011
42
0.41421356237309503
10
-18.40625
20
59.675000000000011
10
-5.4062500000000036
20
59.675000000000004
42
0.41421356237309698
10
-4.9062499999999964
20
60.174999999999997
10
-4.9062500000000018
20
73.175000000000011
42
0.41421356237309631
10
-5.4062500000000036
20
73.675000000000011
10
-18.40625
20
73.675000000000026
42
0.41421356237309503
0
LWPOLYLINE
5
103
100
AcDbEntity
8
0
100
AcDbPolyline
90
16
70
1
43
0.0
10
-78.500000000000014
20
59.675000000000004
42
-0.41421356237310542
10
-78.000000000000014
20
59.175000000000004
10
-78.000000000000014
20
58.975000000000009
42
0.41421356237310542
10
-77.500000000000014
20
58.475000000000009
10
-75.200000000000017
20
58.475000000000009
42
0.41421356237310542
10
-74.700000000000017
20
58.975000000000009
10
-74.700000000000017
20
59.175000000000004
42
-0.41421356237310542
10
-74.200000000000017
20
59.675000000000011
10
-72.75
20
59.675000000000004
42
0.41421356237309503
10
-72.250000000000014
20
60.174999999999997
10
-72.25
20
73.175000000000011
42
0.41421356237309503
10
-72.75
20
73.675000000000011
10
-79.950000000000017
20
73.675000000000026
42
0.41421356237309503
10
-80.450000000000017
20
73.175000000000026
10
-80.450000000000017
20
60.175000000000011
42
0.41421356237309503
10
-79.950000000000017
20
59.675000000000011
0
LWPOLYLINE
5
104
100
AcDbEntity
8
0
100
AcDbPolyline
90
8
70
1
43
0.0
10
-240.36250000000001
20
73.175000000000026
10
-240.36250000000001
20
60.175000000000011
42
0.41421356237309503
10
-239.86249999999998
20
59.675000000000011
10
-226.86250000000004
20
59.675000000000004
42
0.41421356237309503
10
-226.36250000000004
20
60.174999999999997
10
-226.36250000000007
20
73.175000000000011
42
0.41421356237309503
10
-226.86250000000007
20
73.675000000000011
10
-239.86250000000001
20
73.675000000000026
42
0.41421356237309503
0
LWPOLYLINE
5
105
100
AcDbEntity
8
0
100
AcDbPolyline
90
16
70
1
43
0.0
10
-188.69999999999999
20
59.174999999999983
42
-0.41421356237311585
10
-188.19999999999996
20
59.675000000000011
10
-186.75
20
59.675000000000004
42
0.41421356237309503
10
-186.25
20
60.174999999999997
10
-186.25000000000003
20
73.175000000000011
42
0.41421356237309503
10
-186.75000000000006
20
73.675000000000011
10
-193.94999999999999
20
73.675000000000026
42
0.41421356237309503
10
-194.44999999999999
20
73.175000000000026
10
-194.44999999999996
20
60.175000000000011
42
0.41421356237309503
10
-193.94999999999996
20
59.675000000000011
10
-192.5
20
59.675000000000068
42
-0.4142135623730222
10
-191.99999999999994
20
59.175000000000004
10
-192
20
58.975000000000009
42
0.41421356237312623
10
-191.5
20
58.47500000000003
10
-189.20000000000002
20
58.475000000000009
42
0.41421356237310542
10
-188.69999999999999
20
58.975000000000009
0
LWPOLYLINE
5
106
100
AcDbEntity
8
0
100
AcDbPolyline
90
8
70
1
43
0.0
10
-40.337500000000013
20
73.175000000000026
10
-40.337500000000013
20
60.175000000000011
42
0.41421356237309503
10
-39.837500000000006
20
59.675000000000011
10
-26.837499999999999
20
59.675000000000004
42
0.41421356237309503
10
-26.337499999999991
20
60.174999999999997
10
-26.337499999999999
20
73.175000000000011
42
0.41421356237309503
10
-26.837499999999999
20
73.675000000000011
10
-39.837500000000006
20
73.675000000000026
42
0.41421356237309503
0
LWPOLYLINE
5
107
100
AcDbEntity
8
0
100
AcDbPolyline
90
8
70
1
43
0.0
10
-61.768750000000018
20
73.175000000000026
10
-61.768750000000018
20
60.175000000000011
42
0.41421356237309503
10
-61.268750000000018
20
59.675000000000011
10
-48.268750000000004
20
59.675000000000004
42
0.41421356237309503
10
-47.768750000000004
20
60.174999999999997
10
-47.768749999999997
20
73.175000000000011
42
0.41421356237309503
10
-48.268749999999997
20
73.675000000000011
10
-61.268750000000011
20
73.675000000000026
42
0.41421356237309503
0
LWPOLYLINE
5
108
100
AcDbEntity
8
0
100
AcDbPolyline
90
8
70
1
43
0.0
10
-218.93125000000003
20
73.175000000000026
10
-218.93125000000003
20
60.175000000000011
42
0.41421356237309503
10
-218.43125000000001
20
59.675000000000011
10
-205.43125000000003
20
59.675000000000004
42
0.41421356237309503
10
-204.93124999999998
20
60.174999999999997
10
-204.93125000000003
20
73.175000000000011
42
0.41421356237309503
10
-205.43125000000003
20
73.675000000000011
10
-218.43125000000001
20
73.675000000000026
42
0.41421356237309503
0
LWPOLYLINE
5
109
100
AcDbEntity
8
0
100
AcDbPolyline
90
8
70
1
43
0.0
10
2.5500000000000007
20
74.75
10
2.5500000000000043
20
1.4500000000000006
42
-0.41421356237309492
10
-1.4499999999999957
20
-2.5499999999999998
10
-265.25
20
-2.5499999999999861
42
-0.41421356237309542
10
-269.25
20
1.4500000000000046
10
-269.25000000000006
20
74.749999999999986
42
-0.41421356237309503
10
-265.25
20
78.750000000000014
10
-1.4499999999999966
20
78.750000000000014
42
-0.4142135623730942
0
LWPOLYLINE
5
110
100
AcDbEntity
8
0
100
AcDbPolyline
90
24
70
1
43
0.0
10
-37.03125
20
40.625000000000028
10
-35.581250000000004
20
40.625000000000014
42
-0.41421356237309764
10
-35.081249999999997
20
40.125000000000014
10
-35.081250000000004
20
39.925000000000026
42
0.41421356237309503
10
-34.581250000000011
20
39.425000000000026
10
-32.28125
20
39.425000000000026
42
0.41421356237309503
10
-31.781250000000007
20
39.925000000000026
10
-31.781250000000028
20
40.125000000000014
42
-0.41421356237309764
10
-31.281250000000007
20
40.625000000000028
10
-11.581250000000001
20
40.625
42
-0.41421356237309631
10
-11.081250000000011
20
40.125000000000014
10
-11.081250000000002
20
39.925000000000026
42
0.41421356237310675
10
-10.581250000000002
20
39.425000000000026
10
-8.2812500000000018
20
39.425000000000026
42
0.4142135623730957
10
-7.7812500000000027
20
39.925000000000026
10
-7.7812500000000213
20
40.125000000000014
42
-0.41421356237309631
10
-7.2812500000000036
20
40.625000000000028
10
-5.8312499999999989
20
40.625000000000007
42
0.41421356237309437
10
-5.3312499999999998
20
41.125000000000007
10
-5.3312499999999901
20
54.125000000000014
42
0.41421356237309503
10
-5.8312499999999901
20
54.625
10
-37.03125
20
54.625000000000014
42
0.41421356237309503
10
-37.531250000000007
20
54.125000000000014
10
-37.53125
20
41.125000000000007
42
0.41421356237309764
0
LWPOLYLINE
5
111
100
AcDbEntity
8
0
100
AcDbPolyline
90
8
70
1
43
0.0
10
-5.4062500000000036
20
35.575000000000003
10
-23.168750000000003
20
35.57500000000001
42
0.41421356237309503
10
-23.668750000000003
20
35.07500000000001
10
-23.668750000000003
20
22.074999999999996
42
0.41421356237309503
10
-23.168750000000003
20
21.575000000000006
10
-5.4062500000000036
20
21.575000000000003
42
0.4142135623730957
10
-4.9062500000000018
20
22.074999999999999
10
-4.9062500000000018
20
35.07500000000001
42
0.41421356237309764
0
LWPOLYLINE
5
112
100
AcDbEntity
8
0
100
AcDbPolyline
90
8
70
1
43
0.0
10
-21.287500000000001
20
16.025000000000002
10
-21.287500000000001
20
3.0249999999999999
42
0.4142135623730947
10
-20.787500000000001
20
2.5250000000000035
10
-7.787500000000005
20
2.5250000000000012
42
0.41421356237309698
10
-7.2874999999999979
20
3.0250000000000021
10
-7.2875000000000023
20
16.024999999999999
42
0.41421356237309631
10
-7.787500000000005
20
16.525000000000002
10
-20.787500000000001
20
16.525000000000002
42
0.41421356237309503
0
LWPOLYLINE
5
113
100
AcDbEntity
8
0
100
AcDbPolyline
90
8
70
1
43
0.0
10
-44.600000000000001
20
2.5250000000000017
10
-31.600000000000001
20
2.5250000000000017
42
0.41421356237309764
10
-31.099999999999998
20
3.0249999999999999
10
-31.099999999999998
20
16.024999999999999
42
0.41421356237309764
10
-31.600000000000001
20
16.525000000000002
10
-44.600000000000009
20
16.525000000000002
42
0.41421356237309503
10
-45.099999999999987
20
16.025000000000002
10
-45.099999999999994
20
3.0249999999999999
42
0.41421356237309503
0
LWPOLYLINE
5
114
100
AcDbEntity
8
0
100
AcDbPolyline
90
8
70
1
43
0.0
10
-49.362500000000011
20
21.575000000000006
10
-36.362500000000004
20
21.575000000000006
42
0.41421356237309503
10
-35.862499999999997
20
22.074999999999999
10
-35.862500000000004
20
35.07500000000001
42
0.41421356237309503
10
-36.362500000000004
20
35.57500000000001
10
-49.362500000000011
20
35.575000000000003
42
0.41421356237309503
10
-49.862500000000018
20
35.07500000000001
10
-49.862500000000011
20
22.074999999999996
42
0.41421356237309503
0
LWPOLYLINE
5
115
100
AcDbEntity
8
0
100
AcDbPolyline
90
8
70
1
43
0.0
10
-58.887499999999989
20
40.625000000000007
10
-45.887499999999989
20
40.625000000000007
42
0.41421356237309503
10
-45.387500000000003
20
41.125000000000007
10
-45.387499999999974
20
54.125000000000014
42
0.41421356237309503
10
-45.887499999999974
20
54.625
10
-58.887499999999982
20
54.625000000000014
42
0.41421356237309503
10
-59.387499999999989
20
54.125000000000014
10
-59.387499999999989
20
41.125000000000007
42
0.41421356237309503
0
LWPOLYLINE
5
116
100
AcDbEntity
8
0
100
AcDbPolyline
90
8
70
1
43
0.0
10
-63.649999999999991
20
2.5250000000000017
10
-50.649999999999991
20
2.5250000000000017
42
0.4142135623730957
10
-50.150000000000006
20
3.0250000000000021
10
-50.149999999999999
20
16.024999999999999
42
0.41421356237309503
10
-50.649999999999991
20
16.525000000000002
10
-63.650000000000006
20
16.525000000000002
42
0.41421356237309503
10
-64.149999999999991
20
16.025000000000002
10
-64.149999999999991
20
3.0249999999999999
42
0.41421356237309503
0
LWPOLYLINE
5
117
100
AcDbEntity
8
0
100
AcDbPolyline
90
8
70
1
43
0.0
10
-68.412499999999994
20
21.575000000000006
10
-55.412499999999994
20
21.575000000000006
42
0.41421356237309503
10
-54.912500000000009
20
22.074999999999999
10
-54.912500000000001
20
35.07500000000001
42
0.41421356237309503
10
-55.412499999999994
20
35.57500000000001
10
-68.412500000000009
20
35.575000000000003
42
0.41421356237309503
10
-68.912499999999994
20
35.07500000000001
10
-68.912499999999994
20
22.074999999999996
42
0.41421356237309503
0
LWPOLYLINE
5
118
100
AcDbEntity
8
0
100
AcDbPolyline
90
8
70
1
43
0.0
10
-82.699999999999989
20
2.5250000000000017
10
-69.700000000000003
20
2.5250000000000017
42
0.4142135623730957
10
-69.200000000000017
20
3.0250000000000021
10
-69.200000000000003
20
16.024999999999999
42
0.41421356237309503
10
-69.700000000000003
20
16.525000000000002
10
-82.699999999999989
20
16.525000000000002
42
0.41421356237309503
10
-83.200000000000003
20
16.025000000000002
10
-83.200000000000003
20
3.0249999999999999
42
0.41421356237309503
0
LWPOLYLINE
5
119
100
AcDbEntity
8
0
100
AcDbPolyline
90
8
70
1
43
0.0
10
-87.462500000000006
20
21.575000000000006
10
-74.462500000000006
20
21.575000000000006
42
0.41421356237309503
10
-73.96250000000002
20
22.074999999999999
10
-73.962500000000006
20
35.07500000000001
42
0.41421356237309503
10
-74.462500000000006
20
35.57500000000001
10
-87.462500000000006
20
35.575000000000003
42
0.41421356237309503
10
-87.962500000000006
20
35.07500000000001
10
-87.962500000000006
20
22.074999999999996
42
0.41421356237309503
0
LWPOLYLINE
5
120
100
AcDbEntity
8
0
100
AcDbPolyline
90
8
70
1
43
0.0
10
-77.9375
20
40.625000000000007
10
-64.9375
20
40.625000000000007
42
0.41421356237309503
10
-64.437500000000014
20
41.125000000000007
10
-64.437499999999986
20
54.125000000000014
42
0.41421356237309503
10
-64.937499999999986
20
54.625
10
-77.937500000000014
20
54.625000000000014
42
0.41421356237309503
10
-78.4375
20
54.125000000000014
10
-78.4375
20
41.125000000000007
42
0.41421356237309503
0
LWPOLYLINE
5
121
100
AcDbEntity
8
0
100
AcDbPolyline
90
8
70
1
43
0.0
10
-96.987500000000011
20
40.625000000000007
10
-83.98750000000004
20
40.625000000000007
42
0.41421356237309503
10
-83.487500000000026
20
41.125000000000007
10
-83.487499999999983
20
54.125000000000014
42
0.41421356237309503
10
-83.987499999999997
20
54.625
10
-96.987499999999983
20
54.625000000000014
42
0.41421356237309503
10
-97.487500000000011
20
54.125000000000014
10
-97.487500000000011
20
41.125000000000007
42
0.41421356237309503
0
LWPOLYLINE
5
122
100
AcDbEntity
8
0
100
AcDbPolyline
90
8
70
1
43
0.0
10
-106.51249999999999
20
21.575000000000006
10
-93.512500000000003
20
21.575000000000006
42
0.41421356237309503
10
-93.012499999999989
20
22.074999999999999
10
-93.012499999999989
20
35.07500000000001
42
0.41421356237309503
10
-93.512500000000003
20
35.57500000000001
10
-106.51249999999997
20
35.575000000000003
42
0.41421356237309503
10
-107.01250000000002
20
35.07500000000001
10
-107.0125
20
22.074999999999996
42
0.41421356237309503
0
LWPOLYLINE
5
123
100
AcDbEntity
8
0
100
AcDbPolyline
90
8
70
1
43
0.0
10
-101.74999999999999
20
2.5250000000000017
10
-88.75
20
2.5250000000000017
42
0.4142135623730957
10
-88.25
20
3.0250000000000021
10
-88.25
20
16.024999999999999
42
0.41421356237309503
10
-88.75
20
16.525000000000002
10
-101.74999999999997
20
16.525000000000002
42
0.41421356237309503
10
-102.25000000000001
20
16.025000000000002
10
-102.25
20
3.0249999999999999
42
0.41421356237309503
0
LWPOLYLINE
5
124
100
AcDbEntity
8
0
100
AcDbPolyline
90
8
70
1
43
0.0
10
-120.8
20
2.5250000000000017
10
-107.80000000000001
20
2.5250000000000017
42
0.4142135623730957
10
-107.30000000000001
20
3.0250000000000021
10
-107.30000000000001
20
16.024999999999999
42
0.41421356237309503
10
-107.80000000000001
20
16.525000000000002
10
-120.79999999999998
20
16.525000000000002
42
0.41421356237309503
10
-121.30000000000003
20
16.025000000000002
10
-121.30000000000001
20
3.0249999999999999
42
0.41421356237309503
0
LWPOLYLINE
5
125
100
AcDbEntity
8
0
100
AcDbPolyline
90
8
70
1
43
0.0
10
-125.56249999999999
20
21.575000000000006
10
-112.56250000000001
20
21.575000000000006
42
0.41421356237309503
10
-112.06249999999997
20
22.074999999999999
10
-112.06249999999999
20
35.07500000000001
42
0.41421356237309503
10
-112.5625
20
35.57500000000001
10
-125.56249999999999
20
35.575000000000003
42
0.41421356237309503
10
-126.0625
20
35.07500000000001
10
-126.0625
20
22.074999999999996
42
0.41421356237309503
0
LWPOLYLINE
5
126
100
AcDbEntity
8
0
100
AcDbPolyline
90
8
70
1
43
0.0
10
-102.53749999999999
20
41.125000000000007
10
-102.53749999999999
20
54.125000000000014
42
0.41421356237309503
10
-103.03750000000001
20
54.625
10
-116.03749999999998
20
54.625000000000014
42
0.41421356237309503
10
-116.53750000000002
20
54.125000000000014
10
-116.53750000000001
20
41.125000000000007
42
0.41421356237309503
10
-116.03749999999999
20
40.625000000000007
10
-103.03750000000001
20
40.625000000000007
42
0.41421356237309503
0
LWPOLYLINE
5
127
100
AcDbEntity
8
0
100
AcDbPolyline
90
8
70
1
43
0.0
10
-139.84999999999999
20
2.5250000000000017
10
-126.85000000000002
20
2.5250000000000017
42
0.4142135623730957
10
-126.34999999999998
20
3.0250000000000021
10
-126.34999999999999
20
16.024999999999999
42
0.41421356237309503
10
-126.85000000000001
20
16.525000000000002
10
-139.84999999999999
20
16.525000000000002
42
0.41421356237309503
10
-140.34999999999999
20
16.025000000000002
10
-140.34999999999999
20
3.0249999999999999
42
0.41421356237309503
0
LWPOLYLINE
5
128
100
AcDbEntity
8
0
100
AcDbPolyline
90
8
70
1
43
0.0
10
-144.61250000000001
20
21.575000000000006
10
-131.61250000000001
20
21.575000000000006
42
0.41421356237309503
10
-131.11249999999998
20
22.074999999999999
10
-131.11250000000001
20
35.07500000000001
42
0.41421356237309503
10
-131.61250000000001
20
35.57500000000001
10
-144.61250000000001
20
35.575000000000003
42
0.41421356237309503
10
-145.11250000000001
20
35.07500000000001
10
-145.11250000000001
20
22.074999999999996
42
0.41421356237309503
0
LWPOLYLINE
5
129
100
AcDbEntity
8
0
100
AcDbPolyline
90
8
70
1
43
0.0
10
-135.08749999999998
20
40.625000000000007
10
-122.08750000000002
20
40.625000000000007
42
0.41421356237309503
10
-121.58749999999998
20
41.125000000000007
10
-121.58750000000001
20
54.125000000000014
42
0.41421356237309503
10
-122.08750000000002
20
54.625
10
-135.08749999999998
20
54.625000000000014
42
0.41421356237309503
10
-135.58750000000001
20
54.125000000000014
10
-135.58750000000001
20
41.125000000000007
42
0.41421356237309503
0
LWPOLYLINE
5
130
100
AcDbEntity
8
0
100
AcDbPolyline
90
8
70
1
43
0.0
10
-154.13749999999999
20
40.625000000000007
10
-141.13750000000005
20
40.625000000000007
42
0.41421356237309503
10
-140.63749999999999
20
41.125000000000007
10
-140.63750000000002
20
54.125000000000014
42
0.41421356237309503
10
-141.13750000000005
20
54.625
10
-154.13749999999999
20
54.625000000000014
42
0.41421356237309503
10
-154.63750000000002
20
54.125000000000014
10
-154.63750000000002
20
41.125000000000007
42
0.41421356237309503
0
LWPOLYLINE
5
131
100
AcDbEntity
8
0
100
AcDbPolyline
90
8
70
1
43
0.0
10
-173.18749999999997
20
40.625000000000007
10
-160.18749999999997
20
40.625000000000007
42
0.41421356237309503
10
-159.6875
20
41.125000000000007
10
-159.68749999999997
20
54.125000000000014
42
0.41421356237309503
10
-160.18749999999997
20
54.625
10
-173.1875
20
54.625000000000014
42
0.41421356237309503
10
-173.6875
20
54.125000000000014
10
-173.6875
20
41.125000000000007
42
0.41421356237309503
0
LWPOLYLINE
5
132
100
AcDbEntity
8
0
100
AcDbPolyline
90
8
70
1
43
0.0
10
-150.16249999999999
20
22.074999999999999
10
-150.16249999999999
20
35.07500000000001
42
0.41421356237309503
10
-150.66249999999999
20
35.57500000000001
10
-163.66250000000002
20
35.575000000000003
42
0.41421356237309503
10
-164.16250000000002
20
35.07500000000001
10
-164.16250000000002
20
22.074999999999996
42
0.41421356237309503
10
-163.66250000000002
20
21.575000000000006
10
-150.66249999999999
20
21.575000000000003
42
0.41421356237309503
0
LWPOLYLINE
5
133
100
AcDbEntity
8
0
100
AcDbPolyline
90
8
70
1
43
0.0
10
-158.90000000000001
20
2.5250000000000017
10
-145.90000000000003
20
2.5250000000000017
42
0.4142135623730957
10
-145.39999999999998
20
3.0250000000000021
10
-145.40000000000001
20
16.024999999999999
42
0.41421356237309503
10
-145.90000000000001
20
16.525000000000002
10
-158.90000000000001
20
16.525000000000002
42
0.41421356237309503
10
-159.40000000000001
20
16.025000000000002
10
-159.40000000000001
20
3.0249999999999999
42
0.41421356237309503
0
LWPOLYLINE
5
134
100
AcDbEntity
8
0
100
AcDbPolyline
90
8
70
1
43
0.0
10
-177.95000000000002
20
2.5250000000000017
10
-164.95000000000005
20
2.5250000000000017
42
0.4142135623730957
10
-164.45000000000005
20
3.0250000000000021
10
-164.45000000000005
20
16.024999999999999
42
0.41421356237309503
10
-164.95000000000005
20
16.525000000000002
10
-177.95000000000002
20
16.525000000000002
42
0.41421356237309503
10
-178.45000000000002
20
16.025000000000002
10
-178.45000000000002
20
3.0249999999999999
42
0.41421356237309503
0
LWPOLYLINE
5
135
100
AcDbEntity
8
0
100
AcDbPolyline
90
8
70
1
43
0.0
10
-182.71249999999998
20
21.575000000000006
10
-169.71250000000001
20
21.575000000000006
42
0.41421356237309503
10
-169.21250000000001
20
22.074999999999999
10
-169.21250000000001
20
35.07500000000001
42
0.41421356237309503
10
-169.71250000000001
20
35.57500000000001
10
-182.71249999999995
20
35.575000000000003
42
0.41421356237309503
10
-183.21249999999998
20
35.07500000000001
10
-183.21249999999998
20
22.074999999999996
42
0.41421356237309503
0
LWPOLYLINE
5
136
100
AcDbEntity
8
0
100
AcDbPolyline
90
8
70
1
43
0.0
10
-192.23749999999998
20
40.625000000000007
10
-179.23750000000001
20
40.625000000000007
42
0.41421356237309503
10
-178.73750000000001
20
41.125000000000007
10
-178.73750000000004
20
54.125000000000014
42
0.41421356237309503
10
-179.23750000000007
20
54.625
10
-192.23750000000001
20
54.625000000000014
42
0.41421356237309503
10
-192.73750000000001
20
54.125000000000014
10
-192.73750000000001
20
41.125000000000007
42
0.41421356237309503
0
LWPOLYLINE
5
137
100
AcDbEntity
8
0
100
AcDbPolyline
90
8
70
1
43
0.0
10
-201.76249999999999
20
21.575000000000006
10
-188.76250000000002
20
21.575000000000006
42
0.41421356237309503
10
-188.26250000000002
20
22.074999999999999
10
-188.26250000000002
20
35.07500000000001
42
0.41421356237309503
10
-188.76250000000002
20
35.57500000000001
10
-201.76249999999996
20
35.575000000000003
42
0.41421356237309503
10
-202.26249999999999
20
35.07500000000001
10
-202.26249999999999
20
22.074999999999996
42
0.41421356237309503
0
LWPOLYLINE
5
138
100
AcDbEntity
8
0
100
AcDbPolyline
90
8
70
1
43
0.0
10
-183.5
20
3.0250000000000021
10
-183.5
20
16.024999999999999
42
0.41421356237309503
10
-184.00000000000003
20
16.525000000000002
10
-196.99999999999994
20
16.525000000000002
42
0.41421356237309503
10
-197.5
20
16.025000000000002
10
-197.5
20
3.0249999999999999
42
0.41421356237309503
10
-197
20
2.5250000000000017
10
-184.00000000000003
20
2.5250000000000012
42
0.4142135623730957
0
LWPOLYLINE
5
139
100
AcDbEntity
8
0
100
AcDbPolyline
90
8
70
1
43
0.0
10
-216.05000000000001
20
2.5250000000000017
10
-203.05000000000004
20
2.5250000000000017
42
0.4142135623730957
10
-202.55000000000001
20
3.0250000000000021
10
-202.55000000000001
20
16.024999999999999
42
0.41421356237309503
10
-203.05000000000004
20
16.525000000000002
10
-216.04999999999995
20
16.525000000000002
42
0.41421356237309503
10
-216.55000000000001
20
16.025000000000002
10
-216.55000000000001
20
3.0249999999999999
42
0.41421356237309503
0
LWPOLYLINE
5
140
100
AcDbEntity
8
0
100
AcDbPolyline
90
8
70
1
43
0.0
10
-207.31250000000003
20
22.074999999999999
10
-207.31250000000003
20
35.07500000000001
42
0.41421356237309503
10
-207.81250000000003
20
35.57500000000001
10
-220.81249999999997
20
35.575000000000003
42
0.41421356237309503
10
-221.3125
20
35.07500000000001
10
-221.3125
20
22.074999999999996
42
0.41421356237309503
10
-220.8125
20
21.575000000000006
10
-207.81250000000003
20
21.575000000000003
42
0.41421356237309503
0
LWPOLYLINE
5
141
100
AcDbEntity
8
0
100
AcDbPolyline
90
8
70
1
43
0.0
10
-211.28749999999999
20
40.625000000000007
10
-198.28750000000002
20
40.625000000000007
42
0.41421356237309503
10
-197.78750000000002
20
41.125000000000007
10
-197.78750000000005
20
54.125000000000014
42
0.41421356237309503
10
-198.28750000000008
20
54.625
10
-211.28750000000002
20
54.625000000000014
42
0.41421356237309503
10
-211.78750000000002
20
54.125000000000014
10
-211.78750000000002
20
41.125000000000007
42
0.41421356237309503
0
LWPOLYLINE
5
142
100
AcDbEntity
8
0
100
AcDbPolyline
90
8
70
1
43
0.0
10
-230.33750000000001
20
40.625000000000007
10
-217.33750000000003
20
40.625000000000007
42
0.41421356237309503
10
-216.83750000000003
20
41.125000000000007
10
-216.83750000000006
20
54.125000000000014
42
0.41421356237309503
10
-217.33750000000009
20
54.625
10
-230.33750000000003
20
54.625000000000014
42
0.41421356237309503
10
-230.83750000000003
20
54.125000000000014
10
-230.83750000000003
20
41.125000000000007
42
0.41421356237309503
0
LWPOLYLINE
5
143
100
AcDbEntity
8
0
100
AcDbPolyline
90
8
70
1
43
0.0
10
-222.10000000000002
20
16.525000000000013
10
-239.86249999999998
20
16.525000000000002
42
0.41421356237309503
10
-240.36250000000001
20
16.025000000000002
10
-240.36250000000001
20
3.0249999999999999
42
0.41421356237309503
10
-239.86250000000001
20
2.5250000000000017
10
-222.10000000000002
20
2.5250000000000017
42
0.41421356237304757
10
-221.59999999999999
20
3.0250000000000021
10
-221.59999999999999
20
16.025000000000002
42
0.41421356237310153
0
LWPOLYLINE
5
144
100
AcDbEntity
8
0
100
AcDbPolyline
90
8
70
1
43
0.0
10
-256.53125
20
40.625000000000007
10
-243.53125000000003
20
40.625000000000007
42
0.41421356237309503
10
-243.03125
20
41.125000000000007
10
-243.03124999999997
20
54.125000000000014
42
0.41421356237309503
10
-243.53125
20
54.625
10
-256.53124999999994
20
54.625000000000014
42
0.41421356237309503
10
-257.03125
20
54.125000000000014
10
-257.03125
20
41.125000000000007
42
0.41421356237309503
0
LWPOLYLINE
5
145
100
AcDbEntity
8
0
100
AcDbPolyline
90
24
70
1
43
0.0
10
-260.86875000000009
20
21.574999999999989
10
-259.41875000000005
20
21.574999999999989
42
-0.41421356237308204
10
-258.91875000000005
20
21.075000000000003
10
-258.91875000000005
20
20.874999999999982
42
0.41421356237315748
10
-258.41875000000005
20
20.374999999999996
10
-256.11875000000009
20
20.374999999999982
42
0.41421356237313667
10
-255.61875000000009
20
20.874999999999982
10
-255.61875000000009
20
21.075000000000003
42
-0.41421356237308204
10
-255.11875000000006
20
21.574999999999989
10
-235.41875000000007
20
21.574999999999989
42
-0.41421356237308204
10
-234.91875000000007
20
21.075000000000003
10
-234.91875000000007
20
20.874999999999982
42
0.41421356237315748
10
-234.41875000000007
20
20.374999999999996
10
-232.11875000000009
20
20.374999999999982
42
0.41421356237313667
10
-231.61875000000009
20
20.874999999999982
10
-231.61875000000009
20
21.075000000000003
42
-0.41421356237308204
10
-231.11875000000009
20
21.574999999999989
10
-229.6687500000001
20
21.575000000000003
42
0.41421356237309503
10
-229.16875000000005
20
22.074999999999999
10
-229.16875000000005
20
35.07500000000001
42
0.41421356237309503
10
-229.66875000000005
20
35.575000000000003
10
-260.86875000000009
20
35.575000000000003
42
0.41421356237309503
10
-261.36875000000009
20
35.07500000000001
10
-261.36875000000009
20
22.074999999999996
42
0.41421356237309503
0
LWPOLYLINE
5
146
100
AcDbEntity
8
0
100
AcDbPolyline
90
8
70
1
43
0.0
10
-245.91249999999999
20
16.524999999999995
10
-263.67500000000001
20
16.525000000000002
42
0.41421356237309503
10
-264.17499999999995
20
16.025000000000002
10
-264.17500000000001
20
3.0249999999999999
42
0.41421356237309503
10
-263.67500000000001
20
2.5250000000000017
10
-245.91249999999999
20
2.5250000000000017
42
0.41421356237314022
10
-245.41249999999997
20
3.0250000000000021
10
-245.41249999999997
20
16.025000000000002
42
0.41421356237313928
0
ENDSEC
0
SECTION
2
OBJECTS
0
DICTIONARY
5
C
100
AcDbDictionary
3
ACAD_GROUP
350
D
3
ACAD_MLINESTYLE
350
17
0
DICTIONARY
5
D
100
AcDbDictionary
0
DICTIONARY
5
1A
330
C
100
AcDbDictionary
0
DICTIONARY
5
17
100
AcDbDictionary
0
ENDSEC
0
EOF
