0
SECTION
2
HEADER
9
$INSUNITS
70
4
9
$ACADVER
1
AC1014
9
$HANDSEED
5
FFFF
0
ENDSEC
0
SECTION
2
TABLES
0
TABLE
2
VPORT
5
8
100
AcDbSymbolTable
0
ENDTAB
0
TABLE
2
LTYPE
5
5
100
AcDbSymbolTable
0
LTYPE
5
14
100
AcDbSymbolTableRecord
100
AcDbLinetypeTableRecord
2
BYBLOCK
70
0
0
LTYPE
5
15
100
AcDbSymbolTableRecord
100
AcDbLinetypeTableRecord
2
BYLAYER
70
0
0
ENDTAB
0
TABLE
2
LAYER
5
2
100
AcDbSymbolTable
70
2
0
LAYER
5
50
100
AcDbSymbolTableRecord
100
AcDbLayerTableRecord
2
0
70
0
6
CONTINUOUS
0
ENDTAB
0
TABLE
2
STYLE
5
3
100
AcDbSymbolTable
70
1
0
STYLE
5
11
100
AcDbSymbolTableRecord
100
AcDbTextStyleTableRecord
2
STANDARD
70
0
0
ENDTAB
0
TABLE
2
VIEW
5
6
100
AcDbSymbolTable
70
0
0
ENDTAB
0
TABLE
2
UCS
5
7
100
AcDbSymbolTable
70
0
0
ENDTAB
0
TABLE
2
APPID
5
9
100
AcDbSymbolTable
70
2
0
APPID
5
12
100
AcDbSymbolTableRecord
100
AcDbRegAppTableRecord
2
ACAD
70
0
0
ENDTAB
0
TABLE
2
DIMSTYLE
5
A
100
AcDbSymbolTable
70
1
0
ENDTAB
0
TABLE
2
BLOCK_RECORD
5
1
100
AcDbSymbolTable
70
1
0
BLOCK_RECORD
5
1F
100
AcDbSymbolTableRecord
100
AcDbBlockTableRecord
2
*MODEL_SPACE
0
BLOCK_RECORD
5
1B
100
AcDbSymbolTableRecord
100
AcDbBlockTableRecord
2
*PAPER_SPACE
0
ENDTAB
0
ENDSEC
0
SECTION
2
BLOCKS
0
BLOCK
5
20
100
AcDbEntity
100
AcDbBlockBegin
2
*MODEL_SPACE
0
ENDBLK
5
21
100
AcDbEntity
100
AcDbBlockEnd
0
BLOCK
5
1C
100
AcDbEntity
100
AcDbBlockBegin
2
*PAPER_SPACE
0
ENDBLK
5
1D
100
AcDbEntity
100
AcDbBlockEnd
0
ENDSEC
0
SECTION
2
ENTITIES
0
LWPOLYLINE
5
100
100
AcDbEntity
8
0
100
AcDbPolyline
90
8
70
1
43
0.0
10
-58.862500000000004
20
50.125000000000014
10
-45.862499999999997
20
50.125000000000014
42
0.41421356237309503
10
-45.36249999999999
20
50.625
10
-45.362499999999997
20
63.625000000000007
42
0.41421356237309503
10
-45.862499999999997
20
64.125
10
-58.862500000000004
20
64.125
42
0.41421356237309503
10
-59.362500000000011
20
63.625000000000007
10
-59.362500000000004
20
50.625
42
0.41421356237309503
0
LWPOLYLINE
5
101
100
AcDbEntity
8
0
100
AcDbPolyline
90
8
70
1
43
0.0
10
-68.887500000000017
20
44.575000000000003
10
-68.887500000000017
20
31.574999999999996
42
0.41421356237309503
10
-68.387500000000017
20
31.074999999999999
10
-55.387500000000003
20
31.074999999999999
42
0.41421356237309503
10
-54.887499999999996
20
31.574999999999996
10
-54.887500000000003
20
44.575000000000003
42
0.41421356237309503
10
-55.387500000000003
20
45.075000000000003
10
-68.387500000000017
20
45.075000000000003
42
0.41421356237309503
0
LWPOLYLINE
5
102
100
AcDbEntity
8
0
100
AcDbPolyline
90
8
70
1
43
0.0
10
-96.962500000000034
20
50.125000000000014
10
-83.96250000000002
20
50.125000000000014
42
0.41421356237309503
10
-83.462500000000006
20
50.625
10
-83.462500000000006
20
63.625000000000007
42
0.41421356237309503
10
-83.96250000000002
20
64.125
10
-96.962500000000006
20
64.125
42
0.41421356237309503
10
-97.462500000000034
20
63.625000000000007
10
-97.462500000000034
20
50.625
42
0.41421356237309503
0
LWPOLYLINE
5
103
100
AcDbEntity
8
0
100
AcDbPolyline
90
8
70
1
43
0.0
10
-125.53750000000005
20
31.074999999999999
10
-112.53750000000004
20
31.074999999999999
42
0.41421356237309503
10
-112.03750000000002
20
31.574999999999996
10
-112.03750000000002
20
44.575000000000003
42
0.41421356237309503
10
-112.53750000000004
20
45.075000000000003
10
-125.53750000000002
20
45.075000000000003
42
0.41421356237309503
10
-126.03750000000005
20
44.575000000000003
10
-126.03750000000005
20
31.574999999999996
42
0.41421356237309503
0
LWPOLYLINE
5
104
100
AcDbEntity
8
0
100
AcDbPolyline
90
8
70
1
43
0.0
10
-154.11250000000001
20
50.125000000000014
10
-141.11250000000004
20
50.125000000000014
42
0.41421356237309503
10
-140.61250000000001
20
50.625
10
-140.61250000000001
20
63.625000000000007
42
0.41421356237309503
10
-141.11250000000001
20
64.125
10
-154.11250000000001
20
64.125
42
0.41421356237309503
10
-154.61250000000004
20
63.625000000000007
10
-154.61250000000004
20
50.625
42
0.41421356237309503
0
LWPOLYLINE
5
105
100
AcDbEntity
8
0
100
AcDbPolyline
90
8
70
1
43
0.0
10
-182.68750000000006
20
31.074999999999999
10
-169.68750000000006
20
31.074999999999999
42
0.41421356237309503
10
-169.18750000000003
20
31.574999999999996
10
-169.18750000000006
20
44.575000000000003
42
0.41421356237309503
10
-169.68750000000006
20
45.075000000000003
10
-182.68750000000006
20
45.075000000000003
42
0.41421356237309503
10
-183.18750000000009
20
44.575000000000003
10
-183.18750000000006
20
31.574999999999996
42
0.41421356237309503
0
LWPOLYLINE
5
106
100
AcDbEntity
8
0
100
AcDbPolyline
90
24
70
1
43
0.0
10
-206.91249999999999
20
69.174999999999969
42
-0.41421356237307422
10
-206.41249999999999
20
68.674999999999997
10
-206.41249999999999
20
68.474999999999994
42
0.41421356237314183
10
-205.91249999999999
20
67.975000000000009
10
-203.61250000000001
20
67.975000000000009
42
0.41421356237314183
10
-203.11250000000001
20
68.474999999999994
10
-203.11250000000004
20
68.674999999999997
42
-0.41421356237307422
10
-202.61250000000001
20
69.175000000000011
10
-192.65674999999999
20
69.174999999999969
42
-0.41421356237307422
10
-192.15674999999999
20
68.674999999999997
10
-192.15674999999999
20
68.474999999999994
42
0.41421356237314183
10
-191.65674999999996
20
67.975000000000009
10
-189.35675000000001
20
67.975000000000009
42
0.41421356237314183
10
-188.85674999999998
20
68.474999999999994
10
-188.85675000000003
20
68.674999999999997
42
-0.41421356237307422
10
-188.35674999999998
20
69.175000000000011
10
-187.00675000000001
20
69.174999999999997
42
0.41421356237309503
10
-186.50675000000001
20
69.674999999999997
10
-186.50675000000001
20
82.674999999999997
42
0.41421356237309503
10
-187.00675000000001
20
83.175000000000011
10
-216.02499999999998
20
83.175000000000011
42
0.41421356237309503
10
-216.52500000000003
20
82.674999999999997
10
-216.52500000000001
20
69.674999999999997
42
0.41421356237309503
10
-216.02499999999998
20
69.175000000000011
0
LWPOLYLINE
5
107
100
AcDbEntity
8
0
100
AcDbPolyline
90
8
70
1
43
0.0
10
-247.48125000000002
20
44.575000000000003
10
-247.48125000000002
20
31.574999999999996
42
0.41421356237309503
10
-246.98124999999999
20
31.074999999999999
10
-233.98125000000005
20
31.074999999999999
42
0.41421356237309503
10
-233.48125000000005
20
31.574999999999996
10
-233.48125000000007
20
44.575000000000003
42
0.41421356237309503
10
-233.98125000000007
20
45.075000000000003
10
-246.98125000000002
20
45.075000000000003
42
0.41421356237309503
0
CIRCLE
5
108
100
AcDbEntity
8
0
100
AcDbCircle
10
-276.20000000000005
20
48.812500000000014
30
0
40
1.9999999999999929
210
0
220
0
230
1
0
LWPOLYLINE
5
109
100
AcDbEntity
8
0
100
AcDbPolyline
90
8
70
1
43
0.0
10
-283.20000000000005
20
92.200000000000017
10
-283.20000000000005
20
79.200000000000003
42
0.41421356237309503
10
-282.70000000000005
20
78.700000000000017
10
-269.70000000000005
20
78.700000000000003
42
0.41421356237309503
10
-269.20000000000005
20
79.200000000000003
10
-269.20000000000005
20
92.200000000000003
42
0.41421356237309503
10
-269.70000000000005
20
92.700000000000017
10
-282.70000000000005
20
92.700000000000031
42
0.41421356237309503
0
LWPOLYLINE
5
110
100
AcDbEntity
8
0
100
AcDbPolyline
90
8
70
1
43
0.0
10
-349.87500000000006
20
63.625000000000007
10
-349.87500000000006
20
50.625
42
0.41421356237309503
10
-349.375
20
50.125000000000014
10
-336.375
20
50.125
42
0.41421356237309503
10
-335.87500000000006
20
50.625
10
-335.87500000000006
20
63.625000000000007
42
0.41421356237309503
10
-336.375
20
64.125
10
-349.37500000000006
20
64.125
42
0.41421356237309503
0
LWPOLYLINE
5
111
100
AcDbEntity
8
0
100
AcDbPolyline
90
8
70
1
43
0.0
10
-317.32500000000016
20
45.075000000000003
10
-330.32500000000016
20
45.075000000000003
42
0.41421356237309503
10
-330.8250000000001
20
44.575000000000003
10
-330.8250000000001
20
31.574999999999996
42
0.41421356237309503
10
-330.32500000000016
20
31.074999999999999
10
-317.3250000000001
20
31.074999999999999
42
0.41421356237309503
10
-316.8250000000001
20
31.574999999999996
10
-316.82500000000016
20
44.575000000000003
42
0.41421356237309503
0
LWPOLYLINE
5
112
100
AcDbEntity
8
0
100
AcDbPolyline
90
8
70
1
43
0.0
10
-298.27500000000009
20
26.025000000000009
10
-311.27500000000003
20
26.025000000000009
42
0.41421356237309503
10
-311.77500000000003
20
25.525000000000013
10
-311.77499999999998
20
12.525000000000011
42
0.41421356237309503
10
-311.27499999999998
20
12.025000000000007
10
-298.27500000000003
20
12.025000000000013
42
0.41421356237309503
10
-297.77500000000003
20
12.525000000000013
10
-297.77500000000009
20
25.525000000000013
42
0.41421356237309503
0
LWPOLYLINE
5
113
100
AcDbEntity
8
0
100
AcDbPolyline
90
8
70
1
43
0.0
10
-216.02499999999998
20
12.025000000000004
10
-203.02500000000003
20
12.025000000000004
42
0.41421356237309503
10
-202.52499999999998
20
12.525000000000004
10
-202.52500000000001
20
25.525000000000002
42
0.41421356237309503
10
-203.02500000000003
20
26.024999999999999
10
-216.02499999999998
20
26.024999999999999
42
0.41421356237309503
10
-216.52500000000003
20
25.525000000000002
10
-216.52500000000001
20
12.525000000000002
42
0.41421356237309503
0
LWPOLYLINE
5
114
100
AcDbEntity
8
0
100
AcDbPolyline
90
8
70
1
43
0.0
10
-139.82500000000002
20
12.025000000000004
10
-126.82500000000003
20
12.025000000000004
42
0.41421356237309503
10
-126.325
20
12.525000000000004
10
-126.325
20
25.525000000000002
42
0.41421356237309503
10
-126.82500000000002
20
26.024999999999999
10
-139.82500000000002
20
26.024999999999999
42
0.41421356237309503
10
-140.32500000000002
20
25.525000000000002
10
-140.32500000000002
20
12.525000000000002
42
0.41421356237309503
0
LWPOLYLINE
5
115
100
AcDbEntity
8
0
100
AcDbPolyline
90
8
70
1
43
0.0
10
-63.625000000000007
20
12.025000000000004
10
-50.625
20
12.025000000000004
42
0.41421356237309503
10
-50.124999999999993
20
12.525000000000004
10
-50.125
20
25.525000000000002
42
0.41421356237309503
10
-50.625
20
26.024999999999999
10
-63.625000000000007
20
26.024999999999999
42
0.41421356237309503
10
-64.125000000000014
20
25.525000000000002
10
-64.125
20
12.525000000000002
42
0.41421356237309503
0
LWPOLYLINE
5
116
100
AcDbEntity
8
0
100
AcDbPolyline
90
8
70
1
43
0.0
10
-44.575000000000003
20
12.025000000000004
10
-31.574999999999996
20
12.025000000000004
42
0.41421356237309503
10
-31.07500000000001
20
12.525000000000004
10
-31.074999999999999
20
25.525000000000002
42
0.41421356237308982
10
-31.574999999999989
20
26.024999999999999
10
-44.575000000000003
20
26.024999999999999
42
0.41421356237309503
10
-45.075000000000003
20
25.525000000000002
10
-45.075000000000003
20
12.525000000000002
42
0.41421356237309503
0
LWPOLYLINE
5
117
100
AcDbEntity
8
0
100
AcDbPolyline
90
8
70
1
43
0.0
10
-120.77500000000003
20
12.025000000000004
10
-107.77500000000003
20
12.025000000000004
42
0.41421356237309503
10
-107.27500000000003
20
12.525000000000004
10
-107.27500000000003
20
25.525000000000002
42
0.41421356237309503
10
-107.77500000000003
20
26.024999999999999
10
-120.77500000000002
20
26.024999999999999
42
0.41421356237309503
10
-121.27500000000005
20
25.525000000000002
10
-121.27500000000005
20
12.525000000000002
42
0.41421356237309503
0
LWPOLYLINE
5
118
100
AcDbEntity
8
0
100
AcDbPolyline
90
8
70
1
43
0.0
10
-196.97499999999997
20
12.025000000000004
10
-183.97500000000002
20
12.025000000000004
42
0.41421356237309503
10
-183.47499999999997
20
12.525000000000004
10
-183.47499999999999
20
25.525000000000002
42
0.41421356237309503
10
-183.97500000000002
20
26.024999999999999
10
-196.97499999999997
20
26.024999999999999
42
0.41421356237309503
10
-197.47500000000002
20
25.525000000000002
10
-197.47499999999999
20
12.525000000000002
42
0.41421356237309503
0
LWPOLYLINE
5
119
100
AcDbEntity
8
0
100
AcDbPolyline
90
64
70
1
43
0.0
10
-199.26512806053461
20
9.5000000000000107
10
-314.5848719394653
20
9.5000000000000107
42
0.19891236737966028
10
-317.18348936032589
20
8.4236174208605519
10
-322.3236174208605
20
3.2834893603259845
42
-0.19891236737965776
10
-324.21512806053448
20
2.5
10
-341.58487193946536
20
2.5000000000000071
42
-0.1989123673796579
10
-343.47638257913934
20
3.2834893603259907
10
-348.61651063967395
20
8.4236174208605483
42
0.19891236737965243
10
-351.21512806053454
20
9.4999999999999929
10
-351.89999999999992
20
9.5000000000000284
42
-0.41421356237309503
10
-352.39999999999986
20
10
10
-352.40000000000003
20
85.200000000000031
42
-0.41421356237309503
10
-351.89999999999998
20
85.700000000000074
10
-351.21512806053437
20
85.69999999999996
42
0.19891236737963763
10
-348.61651063967383
20
86.776382579139465
10
-343.47638257913928
20
91.916510639674044
42
-0.19891236737965673
10
-341.5848719394653
20
92.700000000000017
10
-324.21512806053448
20
92.700000000000017
42
-0.19891236737965673
10
-322.3236174208605
20
91.916510639674044
10
-317.18348936032589
20
86.776382579139465
42
0.19891236737965803
10
-314.5848719394653
20
85.700000000000017
10
-308.44999999999993
20
85.700000000000003
42
0.4142135623730922
10
-304.77499999999992
20
89.375000000000028
10
-304.77499999999992
20
94.725000000000037
42
-0.41421356237311585
10
-304.27499999999986
20
95.225000000000051
10
-248.12499999999994
20
95.225000000000009
42
-0.41421356237309503
10
-247.62499999999994
20
94.725000000000037
10
-247.62499999999989
20
89.375000000000028
42
0.41421356237309792
10
-243.94999999999987
20
85.700000000000017
10
-199.26512806053452
20
85.700000000000003
42
0.19891236737966603
10
-196.66651063967393
20
86.776382579139479
10
-191.52638257913941
20
91.916510639674016
42
-0.19891236737965801
10
-189.63487193946543
20
92.699999999999989
10
-172.26512806053455
20
92.700000000000017
42
-0.19891236737965673
10
-170.37361742086057
20
91.916510639674044
10
-165.23348936032596
20
86.776382579139465
42
0.19891236737965548
10
-162.63487193946543
20
85.700000000000017
10
-47.315128060534555
20
85.700000000000003
42
0.19891236737965851
10
-44.716510639673984
20
86.776382579139465
10
-39.576382579139441
20
91.916510639674016
42
-0.1989123673796595
10
-37.68487193946541
20
92.700000000000017
10
-20.315128060534562
20
92.700000000000017
42
-0.19891236737965984
10
-18.423617420860531
20
91.916510639674016
10
-13.283489360326007
20
86.776382579139465
42
0.19891236737965556
10
-10.684871939465452
20
85.700000000000017
10
-9.9999999999999734
20
85.700000000000017
42
-0.41421356237308982
10
-9.4999999999999929
20
85.200000000000031
10
-9.5000000000000053
20
10.000000000000004
42
-0.4142135623730957
10
-10
20
9.5000000000000107
10
-10.684871939465381
20
9.5000000000000089
42
0.19891236737965737
10
-13.283489360325955
20
8.4236174208605696
10
-18.423617420860555
20
3.2834893603259752
42
-0.1989123673796564
10
-20.315128060534562
20
2.5
10
-37.68487193946541
20
2.500000000000008
42
-0.19891236737965742
10
-39.576382579139413
20
3.2834893603259907
10
-44.716510639674006
20
8.4236174208605679
42
0.19891236737965526
10
-47.315128060534555
20
9.5000000000000107
10
-162.63487193946543
20
9.5000000000000604
42
0.19891236737965476
10
-165.23348936032596
20
8.4236174208605874
10
-170.37361742086057
20
3.2834893603259863
42
-0.19891236737965801
10
-172.26512806053455
20
2.5
10
-189.63487193946543
20
2.5000000000000067
42
-0.19891236737965801
10
-191.52638257913941
20
3.2834893603259907
10
-196.66651063967402
20
8.4236174208605448
42
0.19891236737965851
0
LWPOLYLINE
5
120
100
AcDbEntity
8
0
100
AcDbPolyline
90
8
70
1
43
0.0
10
-336.375
20
45.075000000000003
10
-349.37500000000006
20
45.075000000000003
42
0.41421356237309503
10
-349.87500000000006
20
44.575000000000003
10
-349.875
20
31.574999999999996
42
0.41421356237309503
10
-349.375
20
31.074999999999999
10
-336.375
20
31.074999999999999
42
0.41421356237309503
10
-335.87500000000006
20
31.574999999999996
10
-335.87500000000006
20
44.575000000000003
42
0.41421356237309503
0
LWPOLYLINE
5
121
100
AcDbEntity
8
0
100
AcDbPolyline
90
8
70
1
43
0.0
10
-330.32500000000016
20
50.125000000000014
10
-317.3250000000001
20
50.125000000000014
42
0.41421356237309503
10
-316.8250000000001
20
50.625
10
-316.82500000000016
20
63.625000000000007
42
0.41421356237309503
10
-317.32500000000016
20
64.125
10
-330.32500000000016
20
64.125
42
0.41421356237309503
10
-330.8250000000001
20
63.625000000000007
10
-330.8250000000001
20
50.625
42
0.41421356237309503
0
LWPOLYLINE
5
122
100
AcDbEntity
8
0
100
AcDbPolyline
90
8
70
1
43
0.0
10
-302.25000000000011
20
92.200000000000017
10
-302.25000000000011
20
79.200000000000003
42
0.41421356237309503
10
-301.75000000000006
20
78.700000000000017
10
-288.75000000000006
20
78.700000000000003
42
0.41421356237309503
10
-288.25
20
79.200000000000003
10
-288.25000000000006
20
92.200000000000003
42
0.41421356237309503
10
-288.75000000000006
20
92.700000000000017
10
-301.75000000000006
20
92.700000000000031
42
0.41421356237309503
0
CIRCLE
5
123
100
AcDbEntity
8
0
100
AcDbCircle
10
-281.72500000000002
20
48.812500000000014
30
0
40
1.9999999999999929
210
0
220
0
230
1
0
LWPOLYLINE
5
124
100
AcDbEntity
8
0
100
AcDbPolyline
90
8
70
1
43
0.0
10
-251.74374999999998
20
50.125000000000014
10
-238.74375000000003
20
50.125000000000014
42
0.41421356237309503
10
-238.24375000000003
20
50.625
10
-238.24375000000006
20
63.625000000000007
42
0.41421356237309503
10
-238.74375000000009
20
64.125
10
-251.74375000000001
20
64.125
42
0.41421356237309503
10
-252.24375000000003
20
63.625000000000007
10
-252.24374999999998
20
50.625
42
0.41421356237309503
0
LWPOLYLINE
5
125
100
AcDbEntity
8
0
100
AcDbPolyline
90
8
70
1
43
0.0
10
-211.26249999999999
20
50.125000000000014
10
-198.26250000000005
20
50.125000000000014
42
0.41421356237309503
10
-197.76250000000005
20
50.625
10
-197.76250000000007
20
63.625000000000007
42
0.41421356237309503
10
-198.2625000000001
20
64.125
10
-211.26250000000002
20
64.125
42
0.41421356237309503
10
-211.76250000000005
20
63.625000000000007
10
-211.76249999999999
20
50.625
42
0.41421356237309503
0
LWPOLYLINE
5
126
100
AcDbEntity
8
0
100
AcDbPolyline
90
8
70
1
43
0.0
10
-201.73750000000007
20
31.074999999999999
10
-188.73750000000007
20
31.074999999999999
42
0.41421356237309503
10
-188.23750000000004
20
31.574999999999996
10
-188.23750000000007
20
44.575000000000003
42
0.41421356237309503
10
-188.73750000000007
20
45.075000000000003
10
-201.73750000000007
20
45.075000000000003
42
0.41421356237309503
10
-202.2375000000001
20
44.575000000000003
10
-202.23750000000007
20
31.574999999999996
42
0.41421356237309503
0
LWPOLYLINE
5
127
100
AcDbEntity
8
0
100
AcDbPolyline
90
8
70
1
43
0.0
10
-130.80000000000001
20
82.675000000000011
10
-130.80000000000001
20
69.674999999999997
42
0.41421356237309503
10
-130.30000000000001
20
69.175000000000011
10
-117.30000000000003
20
69.175000000000011
42
0.41421356237309503
10
-116.8
20
69.675000000000011
10
-116.8
20
82.675000000000011
42
0.41421356237309503
10
-117.30000000000001
20
83.175000000000026
10
-130.30000000000001
20
83.175000000000026
42
0.41421356237309503
0
LWPOLYLINE
5
128
100
AcDbEntity
8
0
100
AcDbPolyline
90
8
70
1
43
0.0
10
-144.58750000000006
20
31.074999999999999
10
-131.58750000000003
20
31.074999999999999
42
0.41421356237309503
10
-131.08750000000003
20
31.574999999999996
10
-131.08750000000003
20
44.575000000000003
42
0.41421356237309503
10
-131.58750000000003
20
45.075000000000003
10
-144.58750000000003
20
45.075000000000003
42
0.41421356237309503
10
-145.08750000000006
20
44.575000000000003
10
-145.08750000000006
20
31.574999999999996
42
0.41421356237309503
0
LWPOLYLINE
5
129
100
AcDbEntity
8
0
100
AcDbPolyline
90
16
70
1
43
0.0
10
-92.612500000000026
20
69.175000000000011
42
-0.41421356237307422
10
-92.112500000000011
20
68.674999999999997
10
-92.112500000000011
20
68.474999999999994
42
0.41421356237305862
10
-91.612500000000011
20
67.974999999999994
10
-89.312500000000028
20
67.975000000000009
42
0.41421356237312623
10
-88.812500000000014
20
68.474999999999994
10
-88.812500000000028
20
68.674999999999997
42
-0.41421356237310542
10
-88.3125
20
69.175000000000011
10
-86.930750000000003
20
69.175000000000011
42
0.41421356237309503
10
-86.430749999999989
20
69.675000000000011
10
-86.430749999999989
20
82.675000000000011
42
0.41421356237309503
10
-86.930750000000003
20
83.175000000000026
10
-93.930749999999989
20
83.175000000000026
42
0.41421356237309503
10
-94.430750000000003
20
82.675000000000011
10
-94.430750000000003
20
69.674999999999997
42
0.41421356237309503
10
-93.930749999999989
20
69.175000000000011
0
LWPOLYLINE
5
130
100
AcDbEntity
8
0
100
AcDbPolyline
90
8
70
1
43
0.0
10
-77.912500000000023
20
50.125000000000014
10
-64.912499999999994
20
50.125000000000014
42
0.41421356237309503
10
-64.412499999999994
20
50.625
10
-64.412499999999994
20
63.625000000000007
42
0.41421356237309503
10
-64.912499999999994
20
64.125
10
-77.912500000000009
20
64.125
42
0.41421356237309503
10
-78.412500000000009
20
63.625000000000007
10
-78.412500000000009
20
50.625
42
0.41421356237309503
0
LWPOLYLINE
5
131
100
AcDbEntity
8
0
100
AcDbPolyline
90
8
70
1
43
0.0
10
-33.168749999999996
20
63.625000000000007
10
-33.168749999999996
20
50.625
42
0.41421356237309503
10
-32.668750000000003
20
50.125000000000014
10
-19.668749999999999
20
50.125
42
0.4142135623730937
10
-19.16875000000001
20
50.625
10
-19.168749999999999
20
63.625000000000007
42
0.41421356237309503
10
-19.668749999999999
20
64.125
10
-32.668750000000003
20
64.125
42
0.41421356237309503
0
LWPOLYLINE
5
132
100
AcDbEntity
8
0
100
AcDbPolyline
90
8
70
1
43
0.0
10
-52.218750000000007
20
82.674999999999997
10
-52.218750000000007
20
69.674999999999997
42
0.41421356237309503
10
-51.718750000000014
20
69.175000000000011
10
-38.71875
20
69.174999999999997
42
0.41421356237309503
10
-38.218749999999993
20
69.674999999999997
10
-38.21875
20
82.674999999999997
42
0.41421356237309243
10
-38.718749999999993
20
83.175000000000011
10
-51.718750000000007
20
83.175000000000011
42
0.41421356237309503
0
LWPOLYLINE
5
133
100
AcDbEntity
8
0
100
AcDbPolyline
90
8
70
1
43
0.0
10
-49.837500000000006
20
44.575000000000003
10
-49.837500000000006
20
31.574999999999996
42
0.41421356237309503
10
-49.33750000000002
20
31.074999999999999
10
-36.337499999999999
20
31.074999999999999
42
0.41421356237309503
10
-35.837500000000013
20
31.574999999999996
10
-35.837499999999999
20
44.575000000000003
42
0.41421356237309243
10
-36.337499999999991
20
45.075000000000003
10
-49.337500000000006
20
45.075000000000003
42
0.41421356237309503
0
LWPOLYLINE
5
134
100
AcDbEntity
8
0
100
AcDbPolyline
90
8
70
1
43
0.0
10
-87.437499999999986
20
31.074999999999999
10
-74.437499999999986
20
31.074999999999999
42
0.41421356237309503
10
-73.937499999999986
20
31.574999999999996
10
-73.937499999999986
20
44.575000000000003
42
0.41421356237309503
10
-74.437499999999972
20
45.075000000000003
10
-87.437499999999986
20
45.075000000000003
42
0.41421356237309503
10
-87.9375
20
44.575000000000003
10
-87.9375
20
31.574999999999996
42
0.41421356237309503
0
LWPOLYLINE
5
135
100
AcDbEntity
8
0
100
AcDbPolyline
90
8
70
1
43
0.0
10
-106.4875
20
31.074999999999999
10
-93.487500000000011
20
31.074999999999999
42
0.41421356237309503
10
-92.987499999999983
20
31.574999999999996
10
-92.987499999999983
20
44.575000000000003
42
0.41421356237309503
10
-93.487499999999983
20
45.075000000000003
10
-106.4875
20
45.075000000000003
42
0.41421356237309503
10
-106.98750000000001
20
44.575000000000003
10
-106.98750000000001
20
31.574999999999996
42
0.41421356237309503
0
LWPOLYLINE
5
136
100
AcDbEntity
8
0
100
AcDbPolyline
90
8
70
1
43
0.0
10
-135.06250000000006
20
50.125000000000014
10
-122.06250000000004
20
50.125000000000014
42
0.41421356237309503
10
-121.56250000000003
20
50.625
10
-121.56250000000003
20
63.625000000000007
42
0.41421356237309503
10
-122.06250000000004
20
64.125
10
-135.06250000000003
20
64.125
42
0.41421356237309503
10
-135.56250000000006
20
63.625000000000007
10
-135.56250000000006
20
50.625
42
0.41421356237309503
0
LWPOLYLINE
5
137
100
AcDbEntity
8
0
100
AcDbPolyline
90
8
70
1
43
0.0
10
-173.16249999999997
20
50.125000000000014
10
-160.16250000000002
20
50.125000000000014
42
0.41421356237309503
10
-159.66250000000002
20
50.625
10
-159.66250000000005
20
63.625000000000007
42
0.41421356237309503
10
-160.16250000000008
20
64.125
10
-173.16249999999999
20
64.125
42
0.41421356237309503
10
-173.66250000000002
20
63.625000000000007
10
-173.66249999999997
20
50.625
42
0.41421356237309503
0
LWPOLYLINE
5
138
100
AcDbEntity
8
0
100
AcDbPolyline
90
16
70
1
43
0.0
10
-183.09999999999999
20
69.174999999999969
42
-0.41421356237307422
10
-182.59999999999997
20
68.674999999999997
10
-182.59999999999997
20
68.474999999999994
42
0.41421356237314183
10
-182.09999999999997
20
67.975000000000009
10
-179.80000000000001
20
67.975000000000009
42
0.41421356237314183
10
-179.30000000000001
20
68.474999999999994
10
-179.30000000000004
20
68.674999999999997
42
-0.41421356237307422
10
-178.79999999999998
20
69.175000000000011
10
-177.44999999999999
20
69.175000000000011
42
0.41421356237309503
10
-176.94999999999993
20
69.675000000000011
10
-176.94999999999996
20
82.674999999999983
42
0.41421356237309503
10
-177.44999999999999
20
83.174999999999983
10
-184.44999999999996
20
83.174999999999983
42
0.41421356237309503
10
-184.94999999999999
20
82.674999999999983
10
-184.94999999999999
20
69.674999999999997
42
0.41421356237309503
10
-184.44999999999996
20
69.175000000000011
0
LWPOLYLINE
5
139
100
AcDbEntity
8
0
100
AcDbPolyline
90
8
70
1
43
0.0
10
-220.78750000000008
20
31.074999999999999
10
-207.78750000000008
20
31.074999999999999
42
0.41421356237309503
10
-207.28750000000005
20
31.574999999999996
10
-207.28750000000008
20
44.575000000000003
42
0.41421356237309503
10
-207.78750000000008
20
45.075000000000003
10
-220.78750000000008
20
45.075000000000003
42
0.41421356237309503
10
-221.28750000000011
20
44.575000000000003
10
-221.28750000000008
20
31.574999999999996
42
0.41421356237309503
0
CIRCLE
5
140
100
AcDbEntity
8
0
100
AcDbCircle
10
-270.67500000000007
20
48.812500000000014
30
0
40
1.9999999999999929
210
0
220
0
230
1
0
LWPOLYLINE
5
141
100
AcDbEntity
8
0
100
AcDbPolyline
90
8
70
1
43
0.0
10
-264.14999999999998
20
92.200000000000017
10
-264.14999999999998
20
79.200000000000003
42
0.41421356237309503
10
-263.64999999999998
20
78.700000000000017
10
-250.65000000000001
20
78.700000000000003
42
0.41421356237309503
10
-250.15000000000001
20
79.200000000000003
10
-250.15000000000003
20
92.200000000000003
42
0.41421356237309503
10
-250.65000000000003
20
92.700000000000017
10
-263.64999999999998
20
92.700000000000031
42
0.41421356237309503
0
LWPOLYLINE
5
142
100
AcDbEntity
8
0
100
AcDbPolyline
90
8
70
1
43
0.0
10
-349.87500000000006
20
82.674999999999997
10
-349.87500000000006
20
69.674999999999997
42
0.41421356237309503
10
-349.375
20
69.175000000000011
10
-336.375
20
69.174999999999997
42
0.41421356237309503
10
-335.87500000000006
20
69.674999999999997
10
-335.87500000000006
20
82.674999999999997
42
0.41421356237309503
10
-336.375
20
83.175000000000011
10
-349.37500000000006
20
83.175000000000011
42
0.41421356237309503
0
LWPOLYLINE
5
143
100
AcDbEntity
8
0
100
AcDbPolyline
90
8
70
1
43
0.0
10
-298.27500000000009
20
45.075000000000003
10
-311.27500000000003
20
45.075000000000003
42
0.41421356237309503
10
-311.77500000000003
20
44.575000000000003
10
-311.77499999999998
20
31.574999999999996
42
0.41421356237309503
10
-311.27499999999998
20
31.074999999999999
10
-298.27500000000003
20
31.074999999999999
42
0.41421356237309503
10
-297.77500000000003
20
31.574999999999996
10
-297.77500000000009
20
44.575000000000003
42
0.41421356237309503
0
LWPOLYLINE
5
144
100
AcDbEntity
8
0
100
AcDbPolyline
90
8
70
1
43
0.0
10
-317.32500000000016
20
26.025000000000009
10
-330.32500000000016
20
26.025000000000009
42
0.41421356237309503
10
-330.8250000000001
20
25.525000000000013
10
-330.8250000000001
20
12.525000000000009
42
0.41421356237309503
10
-330.32500000000016
20
12.025000000000006
10
-317.3250000000001
20
12.025000000000007
42
0.41421356237309503
10
-316.8250000000001
20
12.525000000000009
10
-316.82500000000016
20
25.525000000000013
42
0.41421356237309503
0
LWPOLYLINE
5
145
100
AcDbEntity
8
0
100
AcDbPolyline
90
8
70
1
43
0.0
10
-235.07499999999999
20
12.025000000000004
10
-222.07500000000005
20
12.025000000000004
42
0.41421356237309503
10
-221.57499999999999
20
12.525000000000004
10
-221.57500000000002
20
25.525000000000002
42
0.41421356237309503
10
-222.07500000000005
20
26.024999999999999
10
-235.07499999999999
20
26.024999999999999
42
0.41421356237309503
10
-235.57500000000005
20
25.525000000000002
10
-235.57500000000002
20
12.525000000000002
42
0.41421356237309503
0
LWPOLYLINE
5
146
100
AcDbEntity
8
0
100
AcDbPolyline
90
8
70
1
43
0.0
10
-158.87500000000003
20
12.025000000000004
10
-145.87500000000003
20
12.025000000000004
42
0.41421356237309503
10
-145.375
20
12.525000000000004
10
-145.375
20
25.525000000000002
42
0.41421356237309503
10
-145.87500000000003
20
26.024999999999999
10
-158.87500000000003
20
26.024999999999999
42
0.41421356237309503
10
-159.37500000000003
20
25.525000000000002
10
-159.37500000000003
20
12.525000000000002
42
0.41421356237309503
0
LWPOLYLINE
5
147
100
AcDbEntity
8
0
100
AcDbPolyline
90
8
70
1
43
0.0
10
-82.674999999999997
20
12.025000000000004
10
-69.674999999999997
20
12.025000000000004
42
0.41421356237309503
10
-69.175000000000011
20
12.525000000000004
10
-69.174999999999997
20
25.525000000000002
42
0.41421356237309503
10
-69.674999999999997
20
26.024999999999999
10
-82.674999999999997
20
26.024999999999999
42
0.41421356237309503
10
-83.175000000000026
20
25.525000000000002
10
-83.175000000000011
20
12.525000000000002
42
0.41421356237309503
0
LWPOLYLINE
5
148
100
AcDbEntity
8
0
100
AcDbPolyline
90
8
70
1
43
0.0
10
-26.024999999999991
20
25.525000000000002
10
-26.024999999999991
20
12.524999999999999
42
0.41421356237309503
10
-25.525000000000002
20
12.024999999999997
10
-12.524999999999995
20
12.024999999999999
42
0.41421356237309243
10
-12.025000000000006
20
12.524999999999999
10
-12.024999999999999
20
25.525000000000002
42
0.41421356237309243
10
-12.524999999999995
20
26.024999999999999
10
-25.525000000000002
20
26.024999999999999
42
0.41421356237309503
0
LWPOLYLINE
5
149
100
AcDbEntity
8
0
100
AcDbPolyline
90
8
70
1
43
0.0
10
-101.72499999999999
20
12.025000000000004
10
-88.725000000000009
20
12.025000000000004
42
0.41421356237309503
10
-88.22499999999998
20
12.525000000000004
10
-88.22499999999998
20
25.525000000000002
42
0.41421356237309503
10
-88.724999999999994
20
26.024999999999999
10
-101.72499999999999
20
26.024999999999999
42
0.41421356237309503
10
-102.22499999999999
20
25.525000000000002
10
-102.22499999999999
20
12.525000000000002
42
0.41421356237309503
0
LWPOLYLINE
5
150
100
AcDbEntity
8
0
100
AcDbPolyline
90
8
70
1
43
0.0
10
-177.92499999999995
20
12.025000000000004
10
-164.92500000000004
20
12.025000000000004
42
0.41421356237309503
10
-164.42500000000001
20
12.525000000000004
10
-164.42500000000007
20
25.525000000000002
42
0.41421356237309503
10
-164.92500000000007
20
26.024999999999999
10
-177.92500000000001
20
26.024999999999999
42
0.41421356237309503
10
-178.42500000000001
20
25.525000000000002
10
-178.42499999999998
20
12.525000000000002
42
0.41421356237309503
0
LWPOLYLINE
5
151
100
AcDbEntity
8
0
100
AcDbPolyline
90
8
70
1
43
0.0
10
-254.62500000000006
20
25.525000000000006
10
-254.62500000000006
20
12.525000000000002
42
0.41421356237309503
10
-254.125
20
12.025000000000004
10
-241.12500000000006
20
12.024999999999999
42
0.41421356237309503
10
-240.625
20
12.524999999999999
10
-240.62500000000003
20
25.525000000000006
42
0.41421356237309503
10
-241.12500000000006
20
26.025000000000009
10
-254.125
20
26.025000000000006
42
0.41421356237309503
0
LWPOLYLINE
5
152
100
AcDbEntity
8
0
100
AcDbPolyline
90
8
70
1
43
0.0
10
-336.375
20
26.025000000000009
10
-349.37500000000006
20
26.025000000000009
42
0.41421356237309503
10
-349.87500000000006
20
25.525000000000013
10
-349.875
20
12.525000000000009
42
0.41421356237309503
10
-349.375
20
12.025000000000006
10
-336.375
20
12.025000000000007
42
0.41421356237309503
10
-335.87500000000006
20
12.525000000000009
10
-335.87500000000006
20
25.525000000000013
42
0.41421356237309503
0
LWPOLYLINE
5
153
100
AcDbEntity
8
0
100
AcDbPolyline
90
8
70
1
43
0.0
10
-311.27499999999998
20
50.125000000000014
10
-298.27500000000003
20
50.125000000000014
42
0.41421356237309503
10
-297.77500000000003
20
50.625
10
-297.77500000000009
20
63.625000000000007
42
0.41421356237309503
10
-298.27500000000009
20
64.125
10
-311.27500000000003
20
64.125
42
0.41421356237309503
10
-311.77500000000003
20
63.625000000000007
10
-311.77499999999998
20
50.625
42
0.41421356237309503
0
LWPOLYLINE
5
154
100
AcDbEntity
8
0
100
AcDbPolyline
90
8
70
1
43
0.0
10
-330.8250000000001
20
82.674999999999997
10
-330.8250000000001
20
69.674999999999997
42
0.41421356237309503
10
-330.32500000000016
20
69.175000000000011
10
-317.3250000000001
20
69.174999999999997
42
0.41421356237309503
10
-316.8250000000001
20
69.674999999999997
10
-316.82500000000016
20
82.674999999999997
42
0.41421356237309503
10
-317.32500000000016
20
83.175000000000011
10
-330.32500000000016
20
83.175000000000011
42
0.41421356237309503
0
LWPOLYLINE
5
155
100
AcDbEntity
8
0
100
AcDbPolyline
90
8
70
1
43
0.0
10
-283.20000000000005
20
73.150000000000006
10
-283.20000000000005
20
60.150000000000006
42
0.41421356237309503
10
-282.70000000000005
20
59.65000000000002
10
-269.70000000000005
20
59.650000000000006
42
0.41421356237309503
10
-269.20000000000005
20
60.150000000000006
10
-269.20000000000005
20
73.150000000000006
42
0.41421356237309503
10
-269.70000000000005
20
73.650000000000006
10
-282.70000000000005
20
73.650000000000006
42
0.41421356237309503
0
LWPOLYLINE
5
156
100
AcDbEntity
8
0
100
AcDbPolyline
90
8
70
1
43
0.0
10
-235.07499999999999
20
69.175000000000011
10
-219.69375000000002
20
69.175000000000011
42
0.41421356237309503
10
-219.19375000000002
20
69.674999999999997
10
-219.19375000000002
20
82.674999999999997
42
0.41421356237309503
10
-219.69375000000002
20
83.175000000000011
10
-235.07499999999999
20
83.175000000000011
42
0.41421356237309503
10
-235.57500000000005
20
82.674999999999997
10
-235.57500000000002
20
69.674999999999997
42
0.41421356237309503
0
LWPOLYLINE
5
157
100
AcDbEntity
8
0
100
AcDbPolyline
90
8
70
1
43
0.0
10
-230.3125
20
50.125000000000014
10
-217.31250000000006
20
50.125000000000014
42
0.41421356237309503
10
-216.81250000000006
20
50.625
10
-216.81250000000009
20
63.625000000000007
42
0.41421356237309503
10
-217.31250000000011
20
64.125
10
-230.31250000000003
20
64.125
42
0.41421356237309503
10
-230.81250000000006
20
63.625000000000007
10
-230.8125
20
50.625
42
0.41421356237309503
0
LWPOLYLINE
5
158
100
AcDbEntity
8
0
100
AcDbPolyline
90
8
70
1
43
0.0
10
-192.21249999999998
20
50.125000000000014
10
-179.21250000000003
20
50.125000000000014
42
0.41421356237309503
10
-178.71250000000003
20
50.625
10
-178.71250000000006
20
63.625000000000007
42
0.41421356237309503
10
-179.21250000000009
20
64.125
10
-192.21250000000001
20
64.125
42
0.41421356237309503
10
-192.71250000000003
20
63.625000000000007
10
-192.71249999999998
20
50.625
42
0.41421356237309503
0
LWPOLYLINE
5
159
100
AcDbEntity
8
0
100
AcDbPolyline
90
8
70
1
43
0.0
10
-154.11249999999998
20
69.175000000000011
10
-133.96875
20
69.175000000000011
42
0.41421356237309503
10
-133.46875
20
69.674999999999997
10
-133.46875
20
82.674999999999997
42
0.41421356237309503
10
-133.96875
20
83.175000000000011
10
-154.11250000000001
20
83.175000000000011
42
0.41421356237309503
10
-154.61250000000001
20
82.674999999999997
10
-154.61250000000001
20
69.674999999999997
42
0.41421356237309503
0
LWPOLYLINE
5
160
100
AcDbEntity
8
0
100
AcDbPolyline
90
8
70
1
43
0.0
10
-163.63750000000007
20
31.074999999999999
10
-150.63750000000005
20
31.074999999999999
42
0.41421356237309503
10
-150.13750000000005
20
31.574999999999996
10
-150.13750000000005
20
44.575000000000003
42
0.41421356237309503
10
-150.63750000000005
20
45.075000000000003
10
-163.63750000000007
20
45.075000000000003
42
0.41421356237309503
10
-164.13750000000007
20
44.575000000000003
10
-164.13750000000007
20
31.574999999999996
42
0.41421356237309503
0
LWPOLYLINE
5
161
100
AcDbEntity
8
0
100
AcDbPolyline
90
8
70
1
43
0.0
10
-116.01250000000005
20
50.125000000000014
10
-103.01250000000003
20
50.125000000000014
42
0.41421356237309503
10
-102.51250000000002
20
50.625
10
-102.51250000000002
20
63.625000000000007
42
0.41421356237309503
10
-103.01250000000003
20
64.125
10
-116.01250000000002
20
64.125
42
0.41421356237309503
10
-116.51250000000005
20
63.625000000000007
10
-116.51250000000005
20
50.625
42
0.41421356237309503
0
LWPOLYLINE
5
162
100
AcDbEntity
8
0
100
AcDbPolyline
90
16
70
1
43
0.0
10
-68.800000000000011
20
69.174999999999997
42
-0.41421356237310542
10
-68.300000000000011
20
68.674999999999997
10
-68.300000000000011
20
68.474999999999994
42
0.41421356237310542
10
-67.800000000000011
20
67.975000000000009
10
-65.5
20
67.975000000000009
42
0.41421356237310542
10
-65.000000000000014
20
68.474999999999994
10
-65.000000000000014
20
68.674999999999997
42
-0.41421356237310542
10
-64.500000000000014
20
69.175000000000011
10
-62.53125
20
69.174999999999997
42
0.41421356237309503
10
-62.03125
20
69.674999999999997
10
-62.031249999999993
20
82.674999999999997
42
0.41421356237309503
10
-62.531249999999986
20
83.175000000000011
10
-75.53125
20
83.175000000000011
42
0.41421356237309503
10
-76.03125
20
82.674999999999997
10
-76.031250000000014
20
69.674999999999997
42
0.41421356237309503
10
-75.531250000000014
20
69.175000000000011
0
LWPOLYLINE
5
163
100
AcDbEntity
8
0
100
AcDbPolyline
90
8
70
1
43
0.0
10
-28.406249999999993
20
44.575000000000003
10
-28.406249999999993
20
31.574999999999996
42
0.41421356237309503
10
-27.906250000000004
20
31.074999999999999
10
-14.906249999999996
20
31.074999999999999
42
0.4142135623730937
10
-14.406250000000007
20
31.574999999999996
10
-14.406249999999996
20
44.575000000000003
42
0.41421356237309503
10
-14.906249999999996
20
45.075000000000003
10
-27.906250000000004
20
45.075000000000003
42
0.41421356237309503
0
LWPOLYLINE
5
164
100
AcDbEntity
8
0
100
AcDbPolyline
90
8
70
1
43
0.0
10
-28.406249999999993
20
82.674999999999997
10
-28.406249999999993
20
69.674999999999997
42
0.41421356237309503
10
-27.906250000000004
20
69.175000000000011
10
-14.906249999999996
20
69.174999999999997
42
0.4142135623730937
10
-14.406250000000007
20
69.674999999999997
10
-14.406249999999996
20
82.674999999999997
42
0.41421356237309503
10
-14.906249999999996
20
83.175000000000011
10
-27.906250000000004
20
83.175000000000011
42
0.41421356237309503
0
CIRCLE
5
165
100
AcDbEntity
8
0
100
AcDbCircle
10
-28.999999999999986
20
5.5000000000000018
30
0
40
1.25
210
0
220
-0
230
1
0
CIRCLE
5
166
100
AcDbEntity
8
0
100
AcDbCircle
10
-332.89999999999992
20
89.700000000000003
30
0
40
1.25
210
0
220
-0
230
1
0
CIRCLE
5
167
100
AcDbEntity
8
0
100
AcDbCircle
10
-180.94999999999999
20
5.5
30
0
40
1.25
210
0
220
-0
230
1
0
CIRCLE
5
168
100
AcDbEntity
8
0
100
AcDbCircle
10
-332.89999999999992
20
5.5000000000000018
30
0
40
1.25
210
0
220
-0
230
1
0
CIRCLE
5
169
100
AcDbEntity
8
0
100
AcDbCircle
10
-180.94999999999999
20
89.700000000000003
30
0
40
1.25
210
0
220
-0
230
1
0
CIRCLE
5
170
100
AcDbEntity
8
0
100
AcDbCircle
10
-28.999999999999986
20
89.700000000000003
30
0
40
1.25
210
0
220
-0
230
1
0
LWPOLYLINE
5
171
100
AcDbEntity
8
0
100
AcDbPolyline
90
8
70
1
43
0.0
10
-266.70000000000005
20
31.500000208616285
10
-286.70000000000005
20
31.500000208616285
42
0.41421356237309503
10
-287.20000000000005
20
31.000000208616285
10
-287.20000000000005
20
18.000000000000028
42
0.41421356237309503
10
-286.70000000000005
20
17.500000000000028
10
-266.70000000000005
20
17.500000000000025
42
0.41421356237309503
10
-266.20000000000005
20
18.000000000000025
10
-266.20000000000005
20
31.000000208616285
42
0.41421356237309503
0
ENDSEC
0
SECTION
2
OBJECTS
0
DICTIONARY
5
C
100
AcDbDictionary
3
ACAD_GROUP
350
D
3
ACAD_MLINESTYLE
350
17
0
DICTIONARY
5
D
100
AcDbDictionary
0
DICTIONARY
5
1A
330
C
100
AcDbDictionary
0
DICTIONARY
5
17
100
AcDbDictionary
0
ENDSEC
0
EOF
