0
SECTION
2
HEADER
9
$INSUNITS
70
4
9
$ACADVER
1
AC1014
9
$HANDSEED
5
FFFF
0
ENDSEC
0
SECTION
2
TABLES
0
TABLE
2
VPORT
5
8
100
AcDbSymbolTable
0
ENDTAB
0
TABLE
2
LTYPE
5
5
100
AcDbSymbolTable
0
LTYPE
5
14
100
AcDbSymbolTableRecord
100
AcDbLinetypeTableRecord
2
BYBLOCK
70
0
0
LTYPE
5
15
100
AcDbSymbolTableRecord
100
AcDbLinetypeTableRecord
2
BYLAYER
70
0
0
ENDTAB
0
TABLE
2
LAYER
5
2
100
AcDbSymbolTable
70
2
0
LAYER
5
50
100
AcDbSymbolTableRecord
100
AcDbLayerTableRecord
2
0
70
0
6
CONTINUOUS
0
ENDTAB
0
TABLE
2
STYLE
5
3
100
AcDbSymbolTable
70
1
0
STYLE
5
11
100
AcDbSymbolTableRecord
100
AcDbTextStyleTableRecord
2
STANDARD
70
0
0
ENDTAB
0
TABLE
2
VIEW
5
6
100
AcDbSymbolTable
70
0
0
ENDTAB
0
TABLE
2
UCS
5
7
100
AcDbSymbolTable
70
0
0
ENDTAB
0
TABLE
2
APPID
5
9
100
AcDbSymbolTable
70
2
0
APPID
5
12
100
AcDbSymbolTableRecord
100
AcDbRegAppTableRecord
2
ACAD
70
0
0
ENDTAB
0
TABLE
2
DIMSTYLE
5
A
100
AcDbSymbolTable
70
1
0
ENDTAB
0
TABLE
2
BLOCK_RECORD
5
1
100
AcDbSymbolTable
70
1
0
BLOCK_RECORD
5
1F
100
AcDbSymbolTableRecord
100
AcDbBlockTableRecord
2
*MODEL_SPACE
0
BLOCK_RECORD
5
1B
100
AcDbSymbolTableRecord
100
AcDbBlockTableRecord
2
*PAPER_SPACE
0
ENDTAB
0
ENDSEC
0
SECTION
2
BLOCKS
0
BLOCK
5
20
100
AcDbEntity
100
AcDbBlockBegin
2
*MODEL_SPACE
0
ENDBLK
5
21
100
AcDbEntity
100
AcDbBlockEnd
0
BLOCK
5
1C
100
AcDbEntity
100
AcDbBlockBegin
2
*PAPER_SPACE
0
ENDBLK
5
1D
100
AcDbEntity
100
AcDbBlockEnd
0
ENDSEC
0
SECTION
2
ENTITIES
0
LWPOLYLINE
5
100
100
AcDbEntity
8
0
100
AcDbPolyline
90
8
70
1
43
0.0
10
-75.943750000000051
20
75.474999999999994
10
-81.943750000000023
20
75.474999999999994
42
0.41421356237307944
10
-82.443750000000037
20
74.974999999999994
10
-82.443750000000037
20
61.97499999999998
42
0.41421356237307422
10
-81.943750000000023
20
61.474999999999994
10
-75.943750000000051
20
61.474999999999994
42
0.41421356237313145
10
-75.443750000000037
20
61.97499999999998
10
-75.443750000000037
20
74.974999999999994
42
0.41421356237314183
0
LWPOLYLINE
5
101
100
AcDbEntity
8
0
100
AcDbPolyline
90
8
70
1
43
0.0
10
-213.45625000000007
20
23.875000000000007
10
-213.45625000000007
20
36.875000000000014
42
0.41421356237315748
10
-213.95625000000007
20
37.375
10
-219.95625000000004
20
37.375000000000014
42
0.41421356237312362
10
-220.45625000000004
20
36.875000000000014
10
-220.45625000000004
20
23.875000000000007
42
0.41421356237312362
10
-219.95625000000004
20
23.375000000000004
10
-213.95625000000007
20
23.375000000000007
42
0.41421356237313667
0
LWPOLYLINE
5
102
100
AcDbEntity
8
0
100
AcDbPolyline
90
8
70
1
43
0.0
10
-233.19375000000005
20
56.42499999999999
10
-239.19375000000002
20
56.424999999999997
42
0.41421356237312101
10
-239.69375000000002
20
55.925000000000004
10
-239.69375000000002
20
42.924999999999997
42
0.41421356237312101
10
-239.19375000000002
20
42.42499999999999
10
-233.19375000000005
20
42.42499999999999
42
0.41421356237313145
10
-232.69375000000002
20
42.924999999999997
10
-232.69375000000002
20
55.925000000000004
42
0.41421356237315748
0
LWPOLYLINE
5
103
100
AcDbEntity
8
0
100
AcDbPolyline
90
8
70
1
43
0.0
10
-37.931250000000034
20
56.424999999999997
10
-43.931250000000013
20
56.425000000000011
42
0.41421356237308982
10
-44.43125000000002
20
55.925000000000011
10
-44.43125000000002
20
42.925000000000004
42
0.41421356237311585
10
-43.931250000000013
20
42.424999999999997
10
-37.931250000000034
20
42.424999999999997
42
0.41421356237312623
10
-37.431250000000027
20
42.925000000000004
10
-37.431250000000027
20
55.925000000000011
42
0.41421356237312884
0
LWPOLYLINE
5
104
100
AcDbEntity
8
0
100
AcDbPolyline
90
8
70
1
43
0.0
10
-175.94375000000008
20
75.475000000000065
10
-181.94375000000005
20
75.475000000000065
42
0.41421356237313667
10
-182.44375000000005
20
74.975000000000051
10
-182.44375000000005
20
61.975000000000051
42
0.41421356237313145
10
-181.94375000000005
20
61.475000000000065
10
-175.94375000000008
20
61.475000000000065
42
0.41421356237312623
10
-175.44375000000005
20
61.975000000000051
10
-175.44375000000005
20
74.975000000000051
42
0.41421356237315748
0
LWPOLYLINE
5
105
100
AcDbEntity
8
0
100
AcDbPolyline
90
8
70
1
43
0.0
10
-237.95625000000004
20
37.375
10
-243.95625000000001
20
37.375000000000021
42
0.41421356237310281
10
-244.45625000000004
20
36.875000000000007
10
-244.45625000000004
20
23.875
42
0.41421356237310281
10
-243.95625000000001
20
23.374999999999989
10
-237.95625000000004
20
23.375000000000004
42
0.41421356237313928
10
-237.45625000000004
20
23.875
10
-237.45625000000004
20
36.875000000000007
42
0.41421356237314183
0
LWPOLYLINE
5
106
100
AcDbEntity
8
0
100
AcDbPolyline
90
8
70
1
43
0.0
10
-209.19375000000005
20
56.375000000000014
10
-215.19375000000002
20
56.375000000000021
42
0.41421356237312101
10
-215.69375000000005
20
55.875000000000021
10
-215.69375000000005
20
42.925000000000011
42
0.41421356237312101
10
-215.19375000000002
20
42.425000000000004
10
-209.19375000000002
20
42.425000000000004
42
0.4142135623730846
10
-208.69375000000005
20
42.924999999999997
10
-208.69375000000005
20
55.875000000000021
42
0.41421356237315748
0
LWPOLYLINE
5
107
100
AcDbEntity
8
0
100
AcDbPolyline
90
8
70
1
43
0.0
10
-13.931250000000027
20
56.424999999999997
10
-19.931250000000006
20
56.425000000000011
42
0.4142135623730937
10
-20.431250000000013
20
55.925000000000011
10
-20.431250000000013
20
42.925000000000004
42
0.41421356237310281
10
-19.931250000000006
20
42.424999999999997
10
-13.931250000000027
20
42.424999999999997
42
0.41421356237312623
10
-13.43125000000002
20
42.925000000000004
10
-13.43125000000002
20
55.925000000000011
42
0.41421356237312101
0
LWPOLYLINE
5
108
100
AcDbEntity
8
0
100
AcDbPolyline
90
8
70
1
43
0.0
10
-94.139582665000006
20
38.075000000000003
10
-94.13958266500002
20
25.074999999999985
42
0.41421356237307161
10
-93.639582665000006
20
24.574999999999978
10
-80.63958266500002
20
24.574999999999996
42
0.41421356237310542
10
-80.139582665000006
20
25.074999999999996
10
-80.139582665000006
20
38.075000000000003
42
0.41421356237309243
10
-80.63958266500002
20
38.575000000000003
10
-93.639582665000006
20
38.575000000000003
42
0.41421356237310025
0
LWPOLYLINE
5
109
100
AcDbEntity
8
0
100
AcDbPolyline
90
8
70
1
43
0.0
10
-38.361875000000005
20
6.0250000000000021
10
-38.361875000000005
20
19.025000000000002
42
0.41421356237309503
10
-38.861874999999998
20
19.525000000000002
10
-51.861875000000012
20
19.525000000000006
42
0.41421356237309631
10
-52.361875000000005
20
19.025000000000002
10
-52.361875000000005
20
6.0250000000000021
42
0.41421356237309698
10
-51.861875000000012
20
5.5250000000000012
10
-38.861874999999998
20
5.5250000000000021
42
0.41421356237309503
0
LWPOLYLINE
5
110
100
AcDbEntity
8
0
100
AcDbPolyline
90
8
70
1
43
0.0
10
-52.589843749999986
20
44.125
10
-52.589843749999986
20
57.125
42
0.41421356237309503
10
-53.089843749999986
20
57.625
10
-66.08984375
20
57.625
42
0.41421356237309503
10
-66.58984375
20
57.125
10
-66.58984375
20
44.125
42
0.41421356237309503
10
-66.08984375
20
43.625
10
-53.089843749999986
20
43.625
42
0.41421356237309503
0
LWPOLYLINE
5
111
100
AcDbEntity
8
0
100
AcDbPolyline
90
8
70
1
43
0.0
10
-113.15687500000001
20
19.525000000000002
10
-126.15687500000001
20
19.525000000000006
42
0.41421356237308982
10
-126.65687500000001
20
19.025000000000002
10
-126.65687500000001
20
6.0250000000000021
42
0.41421356237310025
10
-126.15687500000001
20
5.5250000000000021
10
-113.15687500000001
20
5.5250000000000021
42
0.41421356237307422
10
-112.65687500000001
20
6.0250000000000021
10
-112.65687500000001
20
19.025000000000002
42
0.41421356237310025
0
LWPOLYLINE
5
112
100
AcDbEntity
8
0
100
AcDbPolyline
90
8
70
1
43
0.0
10
-126.90859374999999
20
57.625
10
-139.90859374999999
20
57.625
42
0.41421356237311585
10
-140.40859374999999
20
57.125
10
-140.40859374999999
20
44.125
42
0.41421356237311585
10
-139.90859374999999
20
43.625
10
-126.90859374999999
20
43.625
42
0.41421356237312101
10
-126.40859374999999
20
44.125
10
-126.40859374999999
20
57.125
42
0.41421356237312101
0
LWPOLYLINE
5
113
100
AcDbEntity
8
0
100
AcDbPolyline
90
8
70
1
43
0.0
10
-168.22291466500005
20
38.075000000000003
10
-168.22291466500005
20
25.074999999999985
42
0.41421356237309764
10
-167.72291466500008
20
24.575000000000014
10
-154.72291466500002
20
24.574999999999996
42
0.41421356237310542
10
-154.22291466500002
20
25.074999999999996
10
-154.22291466500002
20
38.075000000000003
42
0.41421356237309243
10
-154.72291466500002
20
38.57500000000001
10
-167.72291466500005
20
38.575000000000003
42
0.41421356237307683
0
LWPOLYLINE
5
114
100
AcDbEntity
8
0
100
AcDbPolyline
90
8
70
1
43
0.0
10
-163.81796874999998
20
57.624999999999986
10
-176.81796875000001
20
57.625
42
0.41421356237314183
10
-177.31796875000001
20
57.125
10
-177.31796875000001
20
44.125
42
0.41421356237315748
10
-176.81796875000001
20
43.625000000000014
10
-163.81796874999998
20
43.625
42
0.41421356237314705
10
-163.31796875000003
20
44.125
10
-163.31796875000003
20
57.125
42
0.41421356237307422
0
LWPOLYLINE
5
115
100
AcDbEntity
8
0
100
AcDbPolyline
90
8
70
1
43
0.0
10
-243.09999999999999
20
19.025000000000002
10
-243.09999999999999
20
6.0250000000000004
42
0.4142135623731022
10
-242.59999999999997
20
5.5249999999999924
10
-229.59999999999997
20
5.5250000000000004
42
0.41421356237309437
10
-229.09999999999999
20
6.0250000000000004
10
-229.09999999999999
20
19.025000000000002
42
0.4142135623730937
10
-229.59999999999997
20
19.525000000000002
10
-242.59999999999997
20
19.524999999999999
42
0.41421356237304818
0
LWPOLYLINE
5
116
100
AcDbEntity
8
0
100
AcDbPolyline
90
8
70
1
43
0.0
10
-207.38124999999999
20
76.175000000000011
10
-207.38124999999999
20
63.174999999999997
42
0.41421356237312101
10
-206.88124999999999
20
62.67499999999999
10
-193.88124999999999
20
62.674999999999997
42
0.41421356237307422
10
-193.38124999999997
20
63.174999999999997
10
-193.38124999999997
20
76.175000000000011
42
0.41421356237313145
10
-193.88124999999999
20
76.675000000000011
10
-206.88124999999999
20
76.675000000000011
42
0.4142135623730222
0
LWPOLYLINE
5
117
100
AcDbEntity
8
0
100
AcDbPolyline
90
8
70
1
43
0.0
10
-26.693749999999994
20
63.174999999999997
10
-26.693749999999994
20
76.175000000000011
42
0.41421356237309503
10
-27.193749999999994
20
76.675000000000011
10
-40.193750000000001
20
76.675000000000011
42
0.41421356237309503
10
-40.693750000000001
20
76.175000000000011
10
-40.693750000000001
20
63.174999999999997
42
0.41421356237309503
10
-40.193750000000001
20
62.674999999999997
10
-27.193749999999994
20
62.674999999999997
42
0.41421356237309503
0
LWPOLYLINE
5
118
100
AcDbEntity
8
0
100
AcDbPolyline
90
8
70
1
43
0.0
10
-231.19375000000002
20
76.175000000000011
10
-231.19375000000002
20
63.174999999999997
42
0.41421356237312101
10
-230.69375000000002
20
62.67499999999999
10
-217.69374999999999
20
62.674999999999997
42
0.41421356237307422
10
-217.19374999999999
20
63.174999999999997
10
-217.19374999999999
20
76.175000000000011
42
0.41421356237313145
10
-217.69374999999999
20
76.675000000000011
10
-230.69375000000002
20
76.675000000000011
42
0.4142135623730222
0
LWPOLYLINE
5
119
100
AcDbEntity
8
0
100
AcDbPolyline
90
8
70
1
43
0.0
10
-206.02562499999999
20
19.525000000000002
10
-219.02562500000002
20
19.525000000000006
42
0.41421356237302481
10
-219.52562499999999
20
19.025000000000002
10
-219.52562499999999
20
6.0250000000000021
42
0.41421356237307616
10
-219.02562500000002
20
5.5250000000000021
10
-206.02562499999999
20
5.5250000000000021
42
0.41421356237302542
10
-205.52562499999999
20
6.0250000000000021
10
-205.52562499999999
20
19.025000000000002
42
0.41421356237309764
0
LWPOLYLINE
5
120
100
AcDbEntity
8
0
100
AcDbPolyline
90
8
70
1
43
0.0
10
-186.743747665
20
38.075000000000003
10
-186.743747665
20
25.074999999999985
42
0.41421356237313145
10
-186.243747665
20
24.574999999999978
10
-173.24374766500003
20
24.574999999999996
42
0.41421356237307683
10
-172.74374766500003
20
25.074999999999996
10
-172.74374766500003
20
38.075000000000003
42
0.41421356237313145
10
-173.24374766500003
20
38.57500000000001
10
-186.243747665
20
38.575000000000003
42
0.41421356237307683
0
LWPOLYLINE
5
121
100
AcDbEntity
8
0
100
AcDbPolyline
90
8
70
1
43
0.0
10
-145.36328125
20
57.625
10
-158.36328125
20
57.625
42
0.41421356237311585
10
-158.86328125000003
20
57.125
10
-158.86328125000003
20
44.125
42
0.41421356237311585
10
-158.36328125
20
43.625
10
-145.36328125
20
43.625
42
0.41421356237312101
10
-144.86328125000003
20
44.125
10
-144.86328125000003
20
57.125
42
0.41421356237312101
0
LWPOLYLINE
5
122
100
AcDbEntity
8
0
100
AcDbPolyline
90
8
70
1
43
0.0
10
-108.45390625
20
57.625
10
-121.45390625000002
20
57.625
42
0.41421356237312101
10
-121.95390625
20
57.125
10
-121.95390625
20
44.125
42
0.41421356237312101
10
-121.45390625000002
20
43.625
10
-108.45390625
20
43.625
42
0.41421356237311585
10
-107.95390624999999
20
44.125
10
-107.95390624999999
20
57.125
42
0.41421356237311585
0
LWPOLYLINE
5
123
100
AcDbEntity
8
0
100
AcDbPolyline
90
8
70
1
43
0.0
10
-112.660415665
20
38.075000000000003
10
-112.66041566500002
20
25.074999999999985
42
0.41421356237309764
10
-112.16041566500004
20
24.575000000000014
10
-99.160415665000016
20
24.574999999999996
42
0.41421356237310542
10
-98.660415665000016
20
25.074999999999996
10
-98.660415665000016
20
38.075000000000003
42
0.41421356237309243
10
-99.160415665000016
20
38.57500000000001
10
-112.16041566500002
20
38.575000000000003
42
0.41421356237310025
0
LWPOLYLINE
5
124
100
AcDbEntity
8
0
100
AcDbPolyline
90
8
70
1
43
0.0
10
-35.931249999999999
20
57.125
10
-35.931249999999999
20
44.125
42
0.41421356237309764
10
-35.431249999999999
20
43.625
10
-22.431249999999999
20
43.625
42
0.41421356237309243
10
-21.931249999999999
20
44.125
10
-21.931249999999999
20
57.125
42
0.41421356237310281
10
-22.431249999999999
20
57.624999999999993
10
-35.431249999999999
20
57.625
42
0.41421356237309764
0
LWPOLYLINE
5
125
100
AcDbEntity
8
0
100
AcDbPolyline
90
8
70
1
43
0.0
10
-57.435625000000002
20
19.525000000000002
10
-70.435625000000016
20
19.525000000000006
42
0.4142135623730937
10
-70.935625000000016
20
19.025000000000002
10
-70.935625000000016
20
6.0250000000000021
42
0.41421356237309437
10
-70.435625000000016
20
5.5250000000000021
10
-57.435625000000002
20
5.5250000000000021
42
0.4142135623730937
10
-56.935625000000002
20
6.0250000000000021
10
-56.935625000000002
20
19.025000000000002
42
0.4142135623730937
0
LWPOLYLINE
5
126
100
AcDbEntity
8
0
100
AcDbPolyline
90
8
70
1
43
0.0
10
-75.61874966500001
20
38.075000000000003
10
-75.61874966500001
20
25.074999999999985
42
0.41421356237309243
10
-75.11874966500001
20
24.574999999999996
10
-62.118749664999996
20
24.574999999999996
42
0.41421356237309764
10
-61.618749665000003
20
25.074999999999996
10
-61.618749665000003
20
38.075000000000003
42
0.41421356237309764
10
-62.118749664999996
20
38.575000000000003
10
-75.11874966500001
20
38.575000000000003
42
0.41421356237309503
0
LWPOLYLINE
5
127
100
AcDbEntity
8
0
100
AcDbPolyline
90
8
70
1
43
0.0
10
-94.583124999999995
20
19.525000000000002
10
-107.58312500000001
20
19.525000000000006
42
0.41421356237308982
10
-108.083125
20
19.025000000000002
10
-108.083125
20
6.0250000000000021
42
0.41421356237310025
10
-107.58312500000001
20
5.5250000000000021
10
-94.583124999999995
20
5.5250000000000021
42
0.41421356237307422
10
-94.08312500000001
20
6.0250000000000021
10
-94.08312500000001
20
19.025000000000002
42
0.41421356237310025
0
LWPOLYLINE
5
128
100
AcDbEntity
8
0
100
AcDbPolyline
90
8
70
1
43
0.0
10
-28.787499999999998
20
19.025000000000002
10
-28.787500000000001
20
6.0250000000000004
42
0.4142135623730957
10
-28.287500000000001
20
5.5250000000000012
10
-15.287500000000001
20
5.5250000000000004
42
0.41421356237308854
10
-14.7875
20
6.0250000000000004
10
-14.7875
20
19.025000000000002
42
0.41421356237309115
10
-15.287500000000001
20
19.525000000000002
10
-28.287500000000001
20
19.524999999999999
42
0.41421356237310414
0
LWPOLYLINE
5
129
100
AcDbEntity
8
0
100
AcDbPolyline
90
8
70
1
43
0.0
10
-71.544531249999991
20
57.625
10
-84.544531250000006
20
57.625
42
0.41421356237312101
10
-85.044531249999991
20
57.125
10
-85.044531249999991
20
44.125
42
0.41421356237312101
10
-84.544531250000006
20
43.625
10
-71.544531249999991
20
43.625
42
0.41421356237309503
10
-71.044531249999991
20
44.125
10
-71.044531249999991
20
57.125
42
0.41421356237309503
0
LWPOLYLINE
5
130
100
AcDbEntity
8
0
100
AcDbPolyline
90
8
70
1
43
0.0
10
-131.730625
20
19.525000000000002
10
-144.730625
20
19.525000000000006
42
0.41421356237309503
10
-145.23062500000003
20
19.025000000000002
10
-145.23062500000003
20
6.0250000000000021
42
0.4142135623730957
10
-144.730625
20
5.5250000000000021
10
-131.730625
20
5.5250000000000021
42
0.41421356237310542
10
-131.230625
20
6.0250000000000021
10
-131.230625
20
19.025000000000002
42
0.41421356237309503
0
LWPOLYLINE
5
131
100
AcDbEntity
8
0
100
AcDbPolyline
90
8
70
1
43
0.0
10
-149.70208166500004
20
38.075000000000003
10
-149.70208166500004
20
25.074999999999985
42
0.41421356237311324
10
-149.20208166500004
20
24.574999999999996
10
-136.20208166500004
20
24.574999999999996
42
0.41421356237310542
10
-135.70208166500004
20
25.074999999999996
10
-135.70208166500004
20
38.075000000000003
42
0.41421356237309243
10
-136.20208166500004
20
38.57500000000001
10
-149.20208166500004
20
38.575000000000003
42
0.41421356237310542
0
LWPOLYLINE
5
132
100
AcDbEntity
8
0
100
AcDbPolyline
90
8
70
1
43
0.0
10
-168.87812500000001
20
19.525000000000002
10
-181.87812500000004
20
19.525000000000006
42
0.41421356237307683
10
-182.37812500000004
20
19.025000000000002
10
-182.37812500000004
20
6.0250000000000021
42
0.41421356237313406
10
-181.87812500000004
20
5.5250000000000021
10
-168.87812500000001
20
5.5250000000000021
42
0.41421356237302542
10
-168.37812500000001
20
6.0250000000000021
10
-168.37812500000001
20
19.025000000000002
42
0.41421356237310281
0
LWPOLYLINE
5
133
100
AcDbEntity
8
0
100
AcDbPolyline
90
8
70
1
43
0.0
10
-182.27265625000001
20
57.624999999999986
10
-195.27265625000001
20
57.625
42
0.41421356237314183
10
-195.77265625000001
20
57.125
10
-195.77265625000001
20
44.125
42
0.41421356237315748
10
-195.27265625000001
20
43.625000000000014
10
-182.27265625000001
20
43.625
42
0.41421356237314705
10
-181.77265625000004
20
44.125
10
-181.77265625000004
20
57.125
42
0.41421356237307422
0
LWPOLYLINE
5
134
100
AcDbEntity
8
0
100
AcDbPolyline
90
8
70
1
43
0.0
10
-235.95624999999998
20
38.075000000000003
10
-235.95625000000001
20
25.075000000000003
42
0.41421356237310025
10
-235.45625000000001
20
24.574999999999996
10
-222.45625000000001
20
24.575000000000003
42
0.41421356237308982
10
-221.95625000000004
20
25.075000000000003
10
-221.95625000000004
20
38.075000000000003
42
0.41421356237307161
10
-222.45625000000001
20
38.57500000000001
10
-235.45625000000001
20
38.575000000000003
42
0.41421356237315227
0
LWPOLYLINE
5
135
100
AcDbEntity
8
0
100
AcDbPolyline
90
8
70
1
43
0.0
10
-135.94375000000002
20
76.175000000000011
10
-135.94375000000002
20
63.174999999999997
42
0.41421356237311585
10
-135.44375000000002
20
62.675000000000011
10
-122.44375000000002
20
62.674999999999997
42
0.41421356237308982
10
-121.94375000000002
20
63.174999999999997
10
-121.94375000000002
20
76.175000000000011
42
0.41421356237311585
10
-122.44375000000002
20
76.674999999999997
10
-135.44375000000002
20
76.675000000000011
42
0.41421356237308982
0
LWPOLYLINE
5
136
100
AcDbEntity
8
0
100
AcDbPolyline
90
8
70
1
43
0.0
10
-64.506250000000009
20
76.175000000000011
10
-64.506250000000009
20
63.174999999999997
42
0.41421356237309503
10
-64.006250000000009
20
62.674999999999997
10
-51.006250000000001
20
62.674999999999997
42
0.41421356237309503
10
-50.506250000000001
20
63.174999999999997
10
-50.506250000000001
20
76.175000000000011
42
0.41421356237309503
10
-51.006250000000001
20
76.675000000000011
10
-64.006250000000009
20
76.675000000000011
42
0.41421356237309503
0
LWPOLYLINE
5
137
100
AcDbEntity
8
0
100
AcDbPolyline
90
8
70
1
43
0.0
10
-231.19375000000002
20
57.125
10
-231.19375000000002
20
44.125
42
0.41421356237312623
10
-230.69375000000002
20
43.624999999999986
10
-217.69374999999999
20
43.625
42
0.41421356237309503
10
-217.19375000000002
20
44.125
10
-217.19375000000002
20
57.125
42
0.41421356237309503
10
-217.69374999999999
20
57.625
10
-230.69375000000002
20
57.625
42
0.4142135623730222
0
LWPOLYLINE
5
138
100
AcDbEntity
8
0
100
AcDbPolyline
90
8
70
1
43
0.0
10
-205.26458066500004
20
38.075000000000003
10
-205.26458066500004
20
25.074999999999985
42
0.41421356237309764
10
-204.7645806650001
20
24.575000000000014
10
-191.76458066500007
20
24.574999999999996
42
0.41421356237307683
10
-191.26458066500007
20
25.074999999999996
10
-191.26458066500007
20
38.075000000000003
42
0.41421356237313145
10
-191.76458066500007
20
38.57500000000001
10
-204.76458066500004
20
38.575000000000003
42
0.41421356237307683
0
LWPOLYLINE
5
139
100
AcDbEntity
8
0
100
AcDbPolyline
90
8
70
1
43
0.0
10
-187.451875
20
19.525000000000002
10
-200.45187499999997
20
19.525000000000006
42
0.41421356237302481
10
-200.95187499999997
20
19.025000000000002
10
-200.95187499999997
20
6.0250000000000021
42
0.41421356237310281
10
-200.45187499999997
20
5.5250000000000021
10
-187.451875
20
5.5250000000000021
42
0.41421356237302542
10
-186.951875
20
6.0250000000000021
10
-186.951875
20
19.025000000000002
42
0.41421356237310281
0
LWPOLYLINE
5
140
100
AcDbEntity
8
0
100
AcDbPolyline
90
8
70
1
43
0.0
10
-150.30437499999999
20
19.525000000000002
10
-163.30437500000002
20
19.525000000000006
42
0.41421356237302481
10
-163.80437499999999
20
19.025000000000002
10
-163.80437499999999
20
6.0250000000000021
42
0.41421356237307616
10
-163.30437500000002
20
5.5250000000000021
10
-150.30437499999999
20
5.5250000000000021
42
0.41421356237307422
10
-149.80437499999999
20
6.0250000000000021
10
-149.80437499999999
20
19.025000000000002
42
0.41421356237310025
0
LWPOLYLINE
5
141
100
AcDbEntity
8
0
100
AcDbPolyline
90
8
70
1
43
0.0
10
-131.181248665
20
38.075000000000003
10
-131.18124866500003
20
25.074999999999985
42
0.41421356237309764
10
-130.68124866500006
20
24.575000000000014
10
-117.68124866500003
20
24.574999999999996
42
0.41421356237310542
10
-117.18124866500003
20
25.074999999999996
10
-117.18124866500003
20
38.075000000000003
42
0.41421356237309243
10
-117.68124866500003
20
38.57500000000001
10
-130.68124866500003
20
38.575000000000003
42
0.41421356237310025
0
LWPOLYLINE
5
142
100
AcDbEntity
8
0
100
AcDbPolyline
90
8
70
1
43
0.0
10
-89.999218749999983
20
57.625
10
-102.99921874999998
20
57.625
42
0.41421356237311585
10
-103.49921875
20
57.125
10
-103.49921875
20
44.125
42
0.41421356237311585
10
-102.99921874999998
20
43.625
10
-89.999218749999983
20
43.625
42
0.41421356237312101
10
-89.499218749999997
20
44.125
10
-89.499218749999997
20
57.125
42
0.41421356237312101
0
LWPOLYLINE
5
143
100
AcDbEntity
8
0
100
AcDbPolyline
90
8
70
1
43
0.0
10
-31.168749999999996
20
38.075000000000003
10
-31.168749999999999
20
25.075000000000003
42
0.41421356237309503
10
-30.668749999999999
20
24.575000000000003
10
-17.668749999999999
20
24.575000000000003
42
0.41421356237309243
10
-17.168749999999999
20
25.075000000000003
10
-17.168749999999999
20
38.075000000000003
42
0.41421356237308721
10
-17.668749999999999
20
38.57500000000001
10
-30.668749999999999
20
38.575000000000003
42
0.41421356237310281
0
LWPOLYLINE
5
144
100
AcDbEntity
8
0
100
AcDbPolyline
90
8
70
1
43
0.0
10
-76.009375000000006
20
19.525000000000002
10
-89.009375000000006
20
19.525000000000006
42
0.41421356237309503
10
-89.50937500000002
20
19.025000000000002
10
-89.50937500000002
20
6.0250000000000021
42
0.4142135623730957
10
-89.009375000000006
20
5.5250000000000021
10
-76.009375000000006
20
5.5250000000000021
42
0.41421356237309631
10
-75.509375000000006
20
6.0250000000000021
10
-75.509375000000006
20
19.025000000000002
42
0.41421356237309631
0
LWPOLYLINE
5
145
100
AcDbEntity
8
0
100
AcDbPolyline
90
8
70
1
43
0.0
10
-57.097916665
20
38.075000000000003
10
-57.097916664999993
20
25.074999999999996
42
0.41421356237308721
10
-56.597916665
20
24.574999999999999
10
-43.597916665
20
24.574999999999996
42
0.41421356237309764
10
-43.097916665
20
25.074999999999996
10
-43.097916665
20
38.075000000000003
42
0.41421356237309764
10
-43.597916665
20
38.575000000000003
10
-56.597916665
20
38.575000000000003
42
0.41421356237309764
0
ARC
5
146
100
AcDbEntity
8
0
100
AcDbCircle
10
-254.04794776119405
20
3.9582576555808151
30
0
40
0.49999999999997147
210
0
220
0
230
1
100
AcDbArc
50
101.18805575132086
51
232.12078032547888
0
ARC
5
147
100
AcDbEntity
8
0
100
AcDbCircle
10
-252.71250000000003
20
5.6750000000000007
30
0
40
2.6749999999999865
210
0
220
0
230
1
100
AcDbArc
50
232.12078032547868
51
270
0
LINE
5
148
100
AcDbEntity
8
0
100
AcDbLine
10
-252.71250000000003
20
3.0000000000000027
30
0
11
-5.1749999988183504
21
3.0000000000000004
31
0
0
ARC
5
149
100
AcDbEntity
8
0
100
AcDbCircle
10
-5.1750000003942507
20
5.6749999999989074
30
0
40
2.6749999999989074
210
-0
220
0
230
1
100
AcDbArc
50
270.00000003375419
51
307.87921976709686
0
ARC
5
150
100
AcDbEntity
8
0
100
AcDbCircle
10
-3.8395522354588114
20
3.9582576564936001
30
0
40
0.50000000000000144
210
-0
220
0
230
1
100
AcDbArc
50
-52.120780232902959
51
78.81194436038804
0
ARC
5
151
100
AcDbEntity
8
0
100
AcDbCircle
10
-3.5
20
5.6750000015748068
30
0
40
1.2499999999999998
210
0
220
0
230
1
100
AcDbArc
50
101.18805574742368
51
258.81194436038811
0
ARC
5
152
100
AcDbEntity
8
0
100
AcDbCircle
10
-3.8395522386891545
20
7.3917423460170886
30
0
40
0.49999999999999933
210
0
220
0
230
1
100
AcDbArc
50
-78.811944252576424
51
52.120780340715122
0
ARC
5
153
100
AcDbEntity
8
0
100
AcDbCircle
10
-5.1750000003942507
20
5.6749999999989074
30
0
40
2.6750000015758961
210
0
220
-0
230
1
100
AcDbArc
50
52.120780340715001
51
89.999999999999986
0
LINE
5
154
100
AcDbEntity
8
0
100
AcDbLine
10
-5.1750000003942498
20
8.3500000015748057
30
0
11
-6.0000000000000044
21
8.350000000000005
31
0
0
ARC
5
155
100
AcDbEntity
8
0
100
AcDbCircle
10
-6.0000000000000036
20
9.8500000000000014
30
0
40
1.4999999999999969
210
0
220
0
230
1
100
AcDbArc
50
180
51
269.99999999999994
0
LINE
5
156
100
AcDbEntity
8
0
100
AcDbLine
10
-7.5
20
9.8500000000000032
30
0
11
-7.499999999999992
21
72.350000000000023
31
0
0
ARC
5
157
100
AcDbEntity
8
0
100
AcDbCircle
10
-6.0000000000000062
20
72.350000000000023
30
0
40
1.4999999999999858
210
0
220
-0
230
1
100
AcDbArc
50
89.999999999999929
51
180
0
LINE
5
158
100
AcDbEntity
8
0
100
AcDbLine
10
-6.0000000000000044
20
73.850000000000009
30
0
11
-5.1749999999999972
21
73.850000000000023
31
0
0
ARC
5
159
100
AcDbEntity
8
0
100
AcDbCircle
10
-5.1749999999999847
20
76.525000000000006
30
0
40
2.6749999999999918
210
0
220
0
230
1
100
AcDbArc
50
269.99999999999972
51
307.87921967452115
0
ARC
5
160
100
AcDbEntity
8
0
100
AcDbCircle
10
-3.8395522388059717
20
74.808257655580817
30
0
40
0.49999999999999445
210
-0
220
0
230
1
100
AcDbArc
50
-52.120780325479032
51
78.811944248678003
0
ARC
5
161
100
AcDbEntity
8
0
100
AcDbCircle
10
-3.4999999999999964
20
76.525000000000006
30
0
40
1.2499999999999956
210
0
220
0
230
1
100
AcDbArc
50
101.18805575132212
51
258.81194424867738
0
ARC
5
162
100
AcDbEntity
8
0
100
AcDbCircle
10
-3.8395522388059602
20
78.241742344419166
30
0
40
0.49999999999998596
210
0
220
0
230
1
100
AcDbArc
50
-78.811944248677435
51
52.120780325478698
0
ARC
5
163
100
AcDbEntity
8
0
100
AcDbCircle
10
-5.1749999999999847
20
76.525000000000006
30
0
40
2.6749999999999803
210
0
220
-0
230
1
100
AcDbArc
50
52.120780325478215
51
89.999999999999943
0
LINE
5
164
100
AcDbEntity
8
0
100
AcDbLine
10
-5.1749999999999821
20
79.200000000000003
30
0
11
-252.71250000000003
21
79.200000000000003
31
0
0
ARC
5
165
100
AcDbEntity
8
0
100
AcDbCircle
10
-252.71250000000003
20
76.525000000000006
30
0
40
2.6750000000000007
210
0
220
-0
230
1
100
AcDbArc
50
90
51
127.87921967452112
0
ARC
5
166
100
AcDbEntity
8
0
100
AcDbCircle
10
-254.04794776119405
20
78.241742344419194
30
0
40
0.49999999999997902
210
0
220
0
230
1
100
AcDbArc
50
127.87921967452033
51
258.81194424867601
0
ARC
5
167
100
AcDbEntity
8
0
100
AcDbCircle
10
-254.38749999999999
20
76.524999999999991
30
0
40
1.2499999999999964
210
0
220
0
230
1
100
AcDbArc
50
-78.81194424867968
51
78.811944248680064
0
ARC
5
168
100
AcDbEntity
8
0
100
AcDbCircle
10
-254.04794776119405
20
74.808257655580817
30
0
40
0.49999999999999573
210
0
220
0
230
1
100
AcDbArc
50
101.18805575132366
51
232.12078032547967
0
ARC
5
169
100
AcDbEntity
8
0
100
AcDbCircle
10
-252.71250000000003
20
76.525000000000006
30
0
40
2.6749999999999918
210
0
220
0
230
1
100
AcDbArc
50
232.12078032547888
51
270
0
LINE
5
170
100
AcDbEntity
8
0
100
AcDbLine
10
-252.71250000000003
20
73.849999999999994
30
0
11
-251.88750000000005
21
73.850000000000037
31
0
0
ARC
5
171
100
AcDbEntity
8
0
100
AcDbCircle
10
-251.88750000000005
20
72.34999999999998
30
0
40
1.5000000000000568
210
0
220
-0
230
1
100
AcDbArc
50
0
51
90
0
LINE
5
172
100
AcDbEntity
8
0
100
AcDbLine
10
-250.38749999999999
20
72.350000000000023
30
0
11
-250.38750000000005
21
9.8500000000000032
31
0
0
ARC
5
173
100
AcDbEntity
8
0
100
AcDbCircle
10
-251.88750000000005
20
9.8500000000000369
30
0
40
1.500000000000038
210
-0
220
0
230
1
100
AcDbArc
50
270.00000000000108
51
360
0
LINE
5
174
100
AcDbEntity
8
0
100
AcDbLine
10
-251.88750000000002
20
8.3499999999999996
30
0
11
-252.71250000000003
21
8.3499999999999996
31
0
0
ARC
5
175
100
AcDbEntity
8
0
100
AcDbCircle
10
-252.71250000000003
20
5.6750000000000007
30
0
40
2.6749999999999985
210
0
220
-0
230
1
100
AcDbArc
50
90
51
127.87921967452193
0
ARC
5
176
100
AcDbEntity
8
0
100
AcDbCircle
10
-254.04794776119405
20
7.3917423444191774
30
0
40
0.49999999999999289
210
0
220
0
230
1
100
AcDbArc
50
127.87921967452384
51
258.81194424867635
0
ARC
5
177
100
AcDbEntity
8
0
100
AcDbCircle
10
-254.38749999999999
20
5.6749999999999972
30
0
40
1.2500000000000246
210
0
220
0
230
1
100
AcDbArc
50
-78.811944248678657
51
78.811944248679737
0
ENDSEC
0
SECTION
2
OBJECTS
0
DICTIONARY
5
C
100
AcDbDictionary
3
ACAD_GROUP
350
D
3
ACAD_MLINESTYLE
350
17
0
DICTIONARY
5
D
100
AcDbDictionary
0
DICTIONARY
5
1A
330
C
100
AcDbDictionary
0
DICTIONARY
5
17
100
AcDbDictionary
0
ENDSEC
0
EOF
