0
SECTION
2
HEADER
9
$INSUNITS
70
4
9
$ACADVER
1
AC1014
9
$HANDSEED
5
FFFF
0
ENDSEC
0
SECTION
2
TABLES
0
TABLE
2
VPORT
5
8
100
AcDbSymbolTable
0
ENDTAB
0
TABLE
2
LTYPE
5
5
100
AcDbSymbolTable
0
LTYPE
5
14
100
AcDbSymbolTableRecord
100
AcDbLinetypeTableRecord
2
BYBLOCK
70
0
0
LTYPE
5
15
100
AcDbSymbolTableRecord
100
AcDbLinetypeTableRecord
2
BYLAYER
70
0
0
ENDTAB
0
TABLE
2
LAYER
5
2
100
AcDbSymbolTable
70
2
0
LAYER
5
50
100
AcDbSymbolTableRecord
100
AcDbLayerTableRecord
2
0
70
0
6
CONTINUOUS
0
ENDTAB
0
TABLE
2
STYLE
5
3
100
AcDbSymbolTable
70
1
0
STYLE
5
11
100
AcDbSymbolTableRecord
100
AcDbTextStyleTableRecord
2
STANDARD
70
0
0
ENDTAB
0
TABLE
2
VIEW
5
6
100
AcDbSymbolTable
70
0
0
ENDTAB
0
TABLE
2
UCS
5
7
100
AcDbSymbolTable
70
0
0
ENDTAB
0
TABLE
2
APPID
5
9
100
AcDbSymbolTable
70
2
0
APPID
5
12
100
AcDbSymbolTableRecord
100
AcDbRegAppTableRecord
2
ACAD
70
0
0
ENDTAB
0
TABLE
2
DIMSTYLE
5
A
100
AcDbSymbolTable
70
1
0
ENDTAB
0
TABLE
2
BLOCK_RECORD
5
1
100
AcDbSymbolTable
70
1
0
BLOCK_RECORD
5
1F
100
AcDbSymbolTableRecord
100
AcDbBlockTableRecord
2
*MODEL_SPACE
0
BLOCK_RECORD
5
1B
100
AcDbSymbolTableRecord
100
AcDbBlockTableRecord
2
*PAPER_SPACE
0
ENDTAB
0
ENDSEC
0
SECTION
2
BLOCKS
0
BLOCK
5
20
100
AcDbEntity
100
AcDbBlockBegin
2
*MODEL_SPACE
0
ENDBLK
5
21
100
AcDbEntity
100
AcDbBlockEnd
0
BLOCK
5
1C
100
AcDbEntity
100
AcDbBlockBegin
2
*PAPER_SPACE
0
ENDBLK
5
1D
100
AcDbEntity
100
AcDbBlockEnd
0
ENDSEC
0
SECTION
2
ENTITIES
0
CIRCLE
5
100
100
AcDbEntity
8
0
100
AcDbCircle
10
-159.90000000000001
20
11.274999999999999
30
0
40
0.74999999999999289
210
0
220
-0
230
1
0
CIRCLE
5
101
100
AcDbEntity
8
0
100
AcDbCircle
10
-83.699999999999989
20
11.274999999999999
30
0
40
0.74999999999999289
210
0
220
-0
230
1
0
CIRCLE
5
102
100
AcDbEntity
8
0
100
AcDbCircle
10
-26.549999999999997
20
11.274999999999999
30
0
40
0.75000000000000178
210
0
220
-0
230
1
0
CIRCLE
5
103
100
AcDbEntity
8
0
100
AcDbCircle
10
-102.75
20
11.274999999999999
30
0
40
0.74999999999999289
210
0
220
-0
230
1
0
CIRCLE
5
104
100
AcDbEntity
8
0
100
AcDbCircle
10
-178.94999999999999
20
11.274999999999999
30
0
40
0.74999999999999289
210
0
220
-0
230
1
0
CIRCLE
5
105
100
AcDbEntity
8
0
100
AcDbCircle
10
-140.85000000000002
20
11.274999999999999
30
0
40
0.74999999999999289
210
0
220
-0
230
1
0
CIRCLE
5
106
100
AcDbEntity
8
0
100
AcDbCircle
10
-64.650000000000006
20
11.274999999999999
30
0
40
0.75000000000000178
210
0
220
-0
230
1
0
CIRCLE
5
107
100
AcDbEntity
8
0
100
AcDbCircle
10
-45.600000000000009
20
11.274999999999999
30
0
40
0.75000000000000178
210
0
220
-0
230
1
0
CIRCLE
5
108
100
AcDbEntity
8
0
100
AcDbCircle
10
-121.8
20
11.274999999999999
30
0
40
0.74999999999999289
210
0
220
-0
230
1
0
CIRCLE
5
109
100
AcDbEntity
8
0
100
AcDbCircle
10
-198
20
11.274999999999999
30
0
40
0.74999999999999289
210
0
220
-0
230
1
0
LWPOLYLINE
5
110
100
AcDbEntity
8
0
100
AcDbPolyline
90
8
70
1
43
0.0
10
-30.668749999999999
20
43.625000000000007
10
-17.668749999999996
20
43.625000000000007
42
0.41421356237309503
10
-17.168749999999999
20
44.125000000000007
10
-17.168749999999999
20
57.125
42
0.41421356237308982
10
-17.668749999999999
20
57.625000000000014
10
-30.668749999999999
20
57.625
42
0.41421356237310542
10
-31.168749999999999
20
57.125
10
-31.168749999999999
20
44.125000000000007
42
0.41421356237309503
0
LWPOLYLINE
5
111
100
AcDbEntity
8
0
100
AcDbPolyline
90
8
70
1
43
0.0
10
-62.412500000000001
20
44.125000000000007
10
-62.412500000000009
20
57.125
42
0.41421356237309503
10
-62.912500000000009
20
57.625
10
-75.912500000000009
20
57.625
42
0.41421356237311063
10
-76.412499999999994
20
57.125
10
-76.412500000000009
20
44.125000000000007
42
0.41421356237309503
10
-75.912500000000009
20
43.625000000000007
10
-62.912499999999994
20
43.625000000000007
42
0.41421356237309503
0
LWPOLYLINE
5
112
100
AcDbEntity
8
0
100
AcDbPolyline
90
8
70
1
43
0.0
10
-124.03750000000001
20
38.075000000000003
10
-124.03750000000001
20
25.075000000000003
42
0.41421356237307161
10
-123.53749999999999
20
24.575000000000003
10
-110.53750000000001
20
24.575000000000003
42
0.41421356237310542
10
-110.03749999999999
20
25.075000000000003
10
-110.03749999999999
20
38.075000000000003
42
0.41421356237309243
10
-110.53750000000001
20
38.575000000000003
10
-123.53749999999999
20
38.575000000000003
42
0.41421356237307422
0
LWPOLYLINE
5
113
100
AcDbEntity
8
0
100
AcDbPolyline
90
8
70
1
43
0.0
10
-142.58750000000001
20
24.575000000000014
10
-129.58750000000001
20
24.575000000000003
42
0.41421356237310025
10
-129.08750000000001
20
25.075000000000003
10
-129.08750000000001
20
38.075000000000003
42
0.41421356237307161
10
-129.58750000000001
20
38.575000000000003
10
-142.58750000000001
20
38.575000000000003
42
0.41421356237310281
10
-143.08750000000001
20
38.075000000000003
10
-143.08750000000001
20
25.075000000000003
42
0.41421356237309764
0
LWPOLYLINE
5
114
100
AcDbEntity
8
0
100
AcDbPolyline
90
8
70
1
43
0.0
10
-180.6875
20
24.575000000000031
10
-167.6875
20
24.575000000000003
42
0.41421356237307683
10
-167.1875
20
25.075000000000003
10
-167.1875
20
38.075000000000003
42
0.41421356237311063
10
-167.6875
20
38.575000000000045
10
-180.6875
20
38.575000000000003
42
0.41421356237315227
10
-181.1875
20
38.075000000000003
10
-181.1875
20
25.075000000000003
42
0.41421356237309764
0
LWPOLYLINE
5
115
100
AcDbEntity
8
0
100
AcDbPolyline
90
8
70
1
43
0.0
10
-205.28749999999999
20
25.075000000000003
10
-205.28750000000002
20
38.075000000000003
42
0.41421356237309764
10
-205.78749999999999
20
38.574999999999974
10
-218.78750000000002
20
38.575000000000003
42
0.41421356237315227
10
-219.28750000000002
20
38.075000000000003
10
-219.28750000000002
20
25.075000000000003
42
0.41421356237309764
10
-218.78750000000002
20
24.575000000000003
10
-205.78749999999999
20
24.575000000000003
42
0.41421356237304563
0
LWPOLYLINE
5
116
100
AcDbEntity
8
0
100
AcDbPolyline
90
8
70
1
43
0.0
10
-242.59999999999997
20
24.574999999999996
10
-229.59999999999997
20
24.575000000000003
42
0.41421356237313406
10
-229.09999999999997
20
25.075000000000006
10
-229.09999999999999
20
38.075000000000003
42
0.41421356237309503
10
-229.59999999999997
20
38.57500000000001
10
-242.59999999999997
20
38.575000000000003
42
0.41421356237305079
10
-243.09999999999999
20
38.075000000000003
10
-243.09999999999999
20
25.075000000000003
42
0.41421356237310025
0
LWPOLYLINE
5
117
100
AcDbEntity
8
0
100
AcDbPolyline
90
8
70
1
43
0.0
10
-176.42499999999998
20
19.025000000000002
10
-176.42499999999998
20
6.0250000000000004
42
0.41421356237309698
10
-175.92500000000001
20
5.5250000000000279
10
-162.92500000000001
20
5.5250000000000021
42
0.41421356237307749
10
-162.42500000000001
20
6.0250000000000021
10
-162.42500000000001
20
19.025000000000002
42
0.41421356237313273
10
-162.92500000000001
20
19.525000000000002
10
-175.92500000000001
20
19.524999999999999
42
0.41421356237304818
0
LWPOLYLINE
5
118
100
AcDbEntity
8
0
100
AcDbPolyline
90
8
70
1
43
0.0
10
-86.225000000000009
20
6.0250000000000021
10
-86.225000000000009
20
19.025000000000002
42
0.41421356237307294
10
-86.725000000000009
20
19.525000000000002
10
-99.724999999999994
20
19.524999999999999
42
0.41421356237313017
10
-100.22500000000001
20
19.025000000000002
10
-100.22500000000001
20
6.0250000000000004
42
0.41421356237309503
10
-99.724999999999994
20
5.5249999999999924
10
-86.725000000000009
20
5.5250000000000021
42
0.41421356237307422
0
LWPOLYLINE
5
119
100
AcDbEntity
8
0
100
AcDbPolyline
90
8
70
1
43
0.0
10
-10.024999999999997
20
6.0250000000000021
10
-10.024999999999999
20
19.025000000000002
42
0.41421356237308982
10
-10.525
20
19.525000000000002
10
-23.524999999999999
20
19.524999999999999
42
0.41421356237309631
10
-24.024999999999999
20
19.025000000000002
10
-24.024999999999999
20
6.0250000000000004
42
0.4142135623730957
10
-23.524999999999999
20
5.5250000000000012
10
-10.524999999999999
20
5.5250000000000021
42
0.41421356237309243
0
LWPOLYLINE
5
120
100
AcDbEntity
8
0
100
AcDbPolyline
90
8
70
1
43
0.0
10
-67.174999999999997
20
6.0250000000000021
10
-67.174999999999997
20
19.025000000000002
42
0.41421356237308332
10
-67.674999999999997
20
19.525000000000002
10
-80.674999999999983
20
19.524999999999999
42
0.41421356237313017
10
-81.174999999999997
20
19.025000000000002
10
-81.174999999999997
20
6.0250000000000004
42
0.41421356237309503
10
-80.674999999999983
20
5.5249999999999924
10
-67.674999999999997
20
5.5250000000000021
42
0.41421356237309631
0
LWPOLYLINE
5
121
100
AcDbEntity
8
0
100
AcDbPolyline
90
8
70
1
43
0.0
10
-143.875
20
19.525000000000002
10
-156.87500000000003
20
19.524999999999999
42
0.41421356237309892
10
-157.375
20
19.025000000000002
10
-157.375
20
6.0250000000000004
42
0.41421356237309892
10
-156.87500000000003
20
5.5250000000000004
10
-143.875
20
5.5250000000000021
42
0.41421356237307422
10
-143.375
20
6.0250000000000021
10
-143.37500000000003
20
19.025000000000002
42
0.41421356237308593
0
LWPOLYLINE
5
122
100
AcDbEntity
8
0
100
AcDbPolyline
90
8
70
1
43
0.0
10
-227.21875
20
19.525000000000002
10
-240.21875
20
19.524999999999999
42
0.41421356237304818
10
-240.71875000000003
20
19.025000000000002
10
-240.71875000000003
20
6.0250000000000004
42
0.4142135623731022
10
-240.21875
20
5.5250000000000004
10
-227.21875
20
5.5250000000000021
42
0.41421356237307749
10
-226.71875
20
6.0250000000000021
10
-226.71875000000003
20
19.025000000000002
42
0.4142135623730937
0
LWPOLYLINE
5
123
100
AcDbEntity
8
0
100
AcDbPolyline
90
8
70
1
43
0.0
10
-214.8125
20
44.125000000000007
10
-214.81250000000003
20
57.125
42
0.41421356237310025
10
-215.3125
20
57.624999999999972
10
-228.31250000000006
20
57.625
42
0.41421356237314705
10
-228.8125
20
57.125
10
-228.8125
20
44.125000000000007
42
0.41421356237310025
10
-228.31250000000006
20
43.625000000000007
10
-215.3125
20
43.625000000000007
42
0.4142135623730222
0
LWPOLYLINE
5
124
100
AcDbEntity
8
0
100
AcDbPolyline
90
8
70
1
43
0.0
10
-190.21250000000003
20
43.625000000000036
10
-177.21250000000001
20
43.625000000000007
42
0.41421356237307422
10
-176.71250000000001
20
44.125000000000007
10
-176.71250000000001
20
57.125
42
0.41421356237311063
10
-177.21250000000001
20
57.625000000000043
10
-190.21250000000003
20
57.625
42
0.41421356237314705
10
-190.71249999999998
20
57.125
10
-190.71249999999998
20
44.125000000000007
42
0.41421356237310025
0
LWPOLYLINE
5
125
100
AcDbEntity
8
0
100
AcDbPolyline
90
8
70
1
43
0.0
10
-152.11250000000001
20
43.625000000000014
10
-139.11250000000001
20
43.625000000000007
42
0.41421356237310025
10
-138.61250000000001
20
44.125000000000007
10
-138.61250000000001
20
57.125
42
0.41421356237307944
10
-139.11250000000001
20
57.625000000000014
10
-152.11250000000001
20
57.625
42
0.41421356237310542
10
-152.61250000000001
20
57.125
10
-152.61250000000001
20
44.125000000000007
42
0.41421356237310025
0
LWPOLYLINE
5
126
100
AcDbEntity
8
0
100
AcDbPolyline
90
8
70
1
43
0.0
10
-114.01249999999999
20
43.625000000000007
10
-101.0125
20
43.625000000000007
42
0.41421356237308982
10
-100.51249999999999
20
44.125000000000007
10
-100.51249999999999
20
57.125
42
0.41421356237310025
10
-101.0125
20
57.625000000000014
10
-114.01249999999999
20
57.625
42
0.41421356237309503
10
-114.5125
20
57.125
10
-114.5125
20
44.125000000000007
42
0.41421356237307422
0
LWPOLYLINE
5
127
100
AcDbEntity
8
0
100
AcDbPolyline
90
8
70
1
43
0.0
10
-81.962500000000006
20
57.625000000000014
10
-94.96250000000002
20
57.625
42
0.41421356237310542
10
-95.462500000000006
20
57.125
10
-95.462500000000006
20
44.125000000000007
42
0.41421356237310025
10
-94.96250000000002
20
43.625000000000007
10
-81.962500000000006
20
43.625000000000007
42
0.41421356237310025
10
-81.46250000000002
20
44.125000000000007
10
-81.46250000000002
20
57.125
42
0.41421356237308982
0
LWPOLYLINE
5
128
100
AcDbEntity
8
0
100
AcDbPolyline
90
8
70
1
43
0.0
10
-33.837499999999991
20
25.075000000000003
10
-33.837499999999999
20
38.075000000000003
42
0.41421356237310025
10
-34.337499999999999
20
38.575000000000003
10
-47.337499999999999
20
38.575000000000003
42
0.41421356237309503
10
-47.837499999999991
20
38.075000000000003
10
-47.837499999999991
20
25.075000000000003
42
0.41421356237309503
10
-47.337499999999999
20
24.575000000000003
10
-34.337499999999991
20
24.575000000000003
42
0.41421356237309503
0
LWPOLYLINE
5
129
100
AcDbEntity
8
0
100
AcDbPolyline
90
8
70
1
43
0.0
10
-23.524999999999999
20
62.674999999999997
10
-10.524999999999999
20
62.674999999999997
42
0.41421356237309503
10
-10.024999999999999
20
63.174999999999997
10
-10.024999999999999
20
76.174999999999997
42
0.41421356237308982
10
-10.525
20
76.675000000000011
10
-23.524999999999999
20
76.674999999999997
42
0.41421356237310542
10
-24.024999999999999
20
76.174999999999997
10
-24.024999999999999
20
63.174999999999997
42
0.41421356237309503
0
LWPOLYLINE
5
130
100
AcDbEntity
8
0
100
AcDbPolyline
90
8
70
1
43
0.0
10
-52.887499999999996
20
25.075000000000003
10
-52.887500000000003
20
38.075000000000003
42
0.41421356237309503
10
-53.387500000000003
20
38.575000000000003
10
-66.387500000000003
20
38.575000000000003
42
0.41421356237311063
10
-66.887499999999989
20
38.075000000000003
10
-66.887500000000003
20
25.075000000000003
42
0.41421356237309764
10
-66.387500000000003
20
24.575000000000003
10
-53.387499999999989
20
24.575000000000003
42
0.41421356237309764
0
LWPOLYLINE
5
131
100
AcDbEntity
8
0
100
AcDbPolyline
90
8
70
1
43
0.0
10
-104.48749999999998
20
24.575000000000003
10
-91.487499999999997
20
24.575000000000003
42
0.41421356237310542
10
-90.987499999999983
20
25.075000000000003
10
-90.987499999999983
20
38.075000000000003
42
0.41421356237309243
10
-91.487499999999997
20
38.575000000000003
10
-104.48749999999998
20
38.575000000000003
42
0.41421356237307422
10
-104.9875
20
38.075000000000003
10
-104.9875
20
25.075000000000003
42
0.41421356237307161
0
LWPOLYLINE
5
132
100
AcDbEntity
8
0
100
AcDbPolyline
90
8
70
1
43
0.0
10
-133.5625
20
57.125
10
-133.5625
20
44.125000000000007
42
0.41421356237307422
10
-133.0625
20
43.625000000000007
10
-120.06250000000001
20
43.625000000000007
42
0.41421356237308982
10
-119.5625
20
44.125000000000007
10
-119.5625
20
57.125
42
0.41421356237310025
10
-120.06250000000001
20
57.625000000000014
10
-133.0625
20
57.625
42
0.41421356237309503
0
LWPOLYLINE
5
133
100
AcDbEntity
8
0
100
AcDbPolyline
90
8
70
1
43
0.0
10
-148.63750000000002
20
38.57500000000001
10
-161.63749999999999
20
38.575000000000003
42
0.41421356237315227
10
-162.13749999999999
20
38.075000000000003
10
-162.13749999999999
20
25.075000000000003
42
0.41421356237309764
10
-161.63749999999999
20
24.575000000000003
10
-148.63749999999999
20
24.575000000000003
42
0.41421356237310542
10
-148.13749999999999
20
25.075000000000003
10
-148.13750000000002
20
38.075000000000003
42
0.41421356237307161
0
LWPOLYLINE
5
134
100
AcDbEntity
8
0
100
AcDbPolyline
90
8
70
1
43
0.0
10
-186.23750000000001
20
25.075000000000003
10
-186.23750000000001
20
38.075000000000003
42
0.41421356237309764
10
-186.73749999999998
20
38.574999999999974
10
-199.73750000000001
20
38.575000000000003
42
0.41421356237315227
10
-200.23750000000001
20
38.075000000000003
10
-200.23750000000001
20
25.075000000000003
42
0.41421356237309764
10
-199.73750000000001
20
24.575000000000003
10
-186.73749999999998
20
24.575000000000003
42
0.41421356237304563
0
LWPOLYLINE
5
135
100
AcDbEntity
8
0
100
AcDbPolyline
90
8
70
1
43
0.0
10
-247.36250000000001
20
43.625
10
-234.36250000000001
20
43.625000000000007
42
0.4142135623730222
10
-233.86250000000001
20
44.125000000000007
10
-233.86250000000004
20
57.125
42
0.41421356237304818
10
-234.36250000000001
20
57.625000000000014
10
-247.36250000000001
20
57.625
42
0.4142135623730846
10
-247.86250000000001
20
57.125
10
-247.86250000000001
20
44.125000000000007
42
0.41421356237313145
0
LWPOLYLINE
5
136
100
AcDbEntity
8
0
100
AcDbPolyline
90
8
70
1
43
0.0
10
-195.47500000000002
20
19.025000000000002
10
-195.47499999999999
20
6.0250000000000004
42
0.41421356237309698
10
-194.97500000000002
20
5.5250000000000279
10
-181.97500000000002
20
5.5250000000000021
42
0.41421356237307749
10
-181.47500000000002
20
6.0250000000000021
10
-181.47500000000002
20
19.025000000000002
42
0.41421356237313273
10
-181.97500000000002
20
19.525000000000002
10
-194.97500000000002
20
19.524999999999999
42
0.41421356237304818
0
LWPOLYLINE
5
137
100
AcDbEntity
8
0
100
AcDbPolyline
90
8
70
1
43
0.0
10
-119.27500000000001
20
19.025000000000002
10
-119.27500000000001
20
6.0250000000000004
42
0.41421356237311452
10
-118.77500000000001
20
5.5250000000000101
10
-105.77500000000001
20
5.5250000000000021
42
0.41421356237310542
10
-105.27500000000001
20
6.0250000000000021
10
-105.27500000000001
20
19.025000000000002
42
0.4142135623730937
10
-105.77500000000001
20
19.525000000000002
10
-118.77500000000001
20
19.524999999999999
42
0.41421356237311452
0
LWPOLYLINE
5
138
100
AcDbEntity
8
0
100
AcDbPolyline
90
8
70
1
43
0.0
10
-29.074999999999996
20
6.0250000000000021
10
-29.075000000000003
20
19.025000000000002
42
0.41421356237309115
10
-29.575000000000003
20
19.524999999999999
10
-42.575000000000003
20
19.524999999999999
42
0.41421356237310153
10
-43.075000000000003
20
19.025000000000002
10
-43.075000000000003
20
6.0250000000000004
42
0.41421356237309698
10
-42.575000000000003
20
5.5250000000000012
10
-29.574999999999999
20
5.5250000000000021
42
0.4142135623730937
0
LWPOLYLINE
5
139
100
AcDbEntity
8
0
100
AcDbPolyline
90
8
70
1
43
0.0
10
-48.125000000000007
20
6.0250000000000021
10
-48.125000000000007
20
19.025000000000002
42
0.41421356237308982
10
-48.625000000000007
20
19.525000000000002
10
-61.625000000000014
20
19.524999999999999
42
0.41421356237310153
10
-62.125
20
19.025000000000002
10
-62.125
20
6.0250000000000004
42
0.4142135623730846
10
-61.625000000000014
20
5.5250000000000101
10
-48.625000000000007
20
5.5250000000000021
42
0.41421356237309631
0
LWPOLYLINE
5
140
100
AcDbEntity
8
0
100
AcDbPolyline
90
8
70
1
43
0.0
10
-137.82500000000002
20
5.5250000000000101
10
-124.825
20
5.5250000000000021
42
0.41421356237307422
10
-124.32500000000002
20
6.0250000000000021
10
-124.32500000000002
20
19.025000000000002
42
0.4142135623730937
10
-124.82500000000002
20
19.525000000000002
10
-137.82500000000002
20
19.524999999999999
42
0.41421356237309892
10
-138.32499999999999
20
19.025000000000002
10
-138.32499999999999
20
6.0250000000000004
42
0.41421356237309892
0
LWPOLYLINE
5
141
100
AcDbEntity
8
0
100
AcDbPolyline
90
8
70
1
43
0.0
10
-201.02499999999998
20
19.525000000000002
10
-214.02500000000001
20
19.524999999999999
42
0.41421356237307944
10
-214.52500000000001
20
19.025000000000002
10
-214.52500000000001
20
6.0250000000000004
42
0.41421356237313339
10
-214.02500000000001
20
5.5250000000000004
10
-201.02499999999998
20
5.5250000000000021
42
0.41421356237302542
10
-200.52499999999998
20
6.0250000000000021
10
-200.52500000000003
20
19.025000000000002
42
0.41421356237307294
0
LWPOLYLINE
5
142
100
AcDbEntity
8
0
100
AcDbPolyline
90
8
70
1
43
0.0
10
-247.36250000000001
20
62.67499999999999
10
-234.36250000000001
20
62.674999999999997
42
0.4142135623730222
10
-233.86250000000001
20
63.174999999999997
10
-233.86250000000004
20
76.174999999999997
42
0.41421356237304818
10
-234.36250000000001
20
76.675000000000011
10
-247.36250000000001
20
76.674999999999997
42
0.4142135623730846
10
-247.86250000000001
20
76.174999999999997
10
-247.86250000000001
20
63.174999999999997
42
0.41421356237313145
0
LWPOLYLINE
5
143
100
AcDbEntity
8
0
100
AcDbPolyline
90
8
70
1
43
0.0
10
-195.76250000000002
20
44.125000000000007
10
-195.76250000000002
20
57.125
42
0.41421356237310025
10
-196.26249999999999
20
57.624999999999972
10
-209.26250000000005
20
57.625
42
0.41421356237314705
10
-209.76249999999999
20
57.125
10
-209.76249999999999
20
44.125000000000007
42
0.41421356237310025
10
-209.26250000000005
20
43.625000000000007
10
-196.26249999999999
20
43.625000000000007
42
0.4142135623730222
0
LWPOLYLINE
5
144
100
AcDbEntity
8
0
100
AcDbPolyline
90
8
70
1
43
0.0
10
-158.16250000000002
20
57.625000000000014
10
-171.16250000000002
20
57.625
42
0.41421356237314705
10
-171.66249999999997
20
57.125
10
-171.66249999999997
20
44.125000000000007
42
0.41421356237310025
10
-171.16250000000002
20
43.625000000000007
10
-158.16249999999999
20
43.625000000000007
42
0.41421356237308982
10
-157.66249999999999
20
44.125000000000007
10
-157.66250000000002
20
57.125
42
0.41421356237307944
0
LWPOLYLINE
5
145
100
AcDbEntity
8
0
100
AcDbPolyline
90
8
70
1
43
0.0
10
-72.4375
20
38.57500000000001
10
-85.437500000000014
20
38.575000000000003
42
0.41421356237310281
10
-85.9375
20
38.075000000000003
10
-85.9375
20
25.075000000000003
42
0.41421356237309764
10
-85.437500000000014
20
24.575000000000003
10
-72.4375
20
24.575000000000003
42
0.41421356237309764
10
-71.9375
20
25.075000000000003
10
-71.9375
20
38.075000000000003
42
0.41421356237309243
0
LWPOLYLINE
5
146
100
AcDbEntity
8
0
100
AcDbPolyline
90
8
70
1
43
0.0
10
-43.362499999999997
20
44.125000000000007
10
-43.362499999999997
20
57.125
42
0.41421356237311585
10
-43.862500000000004
20
57.625000000000014
10
-56.862500000000004
20
57.625
42
0.41421356237309503
10
-57.362499999999997
20
57.125
10
-57.362499999999997
20
44.125000000000007
42
0.41421356237309503
10
-56.862500000000004
20
43.625000000000007
10
-43.862500000000004
20
43.625000000000007
42
0.41421356237309503
0
LWPOLYLINE
5
147
100
AcDbEntity
8
0
100
AcDbPolyline
90
8
70
1
43
0.0
10
-25.90625
20
24.575000000000003
10
-12.90625
20
24.575000000000003
42
0.41421356237309892
10
-12.406249999999996
20
25.075000000000006
10
-12.40625
20
38.075000000000003
42
0.41421356237308854
10
-12.906250000000002
20
38.57500000000001
10
-25.90625
20
38.575000000000003
42
0.41421356237309503
10
-26.40625
20
38.075000000000003
10
-26.40625
20
25.075000000000003
42
0.41421356237309503
0
ARC
5
148
100
AcDbEntity
8
0
100
AcDbCircle
10
-254.04794776119405
20
3.9582576555808151
30
0
40
0.49999999999997147
210
0
220
0
230
1
100
AcDbArc
50
101.18805575132086
51
232.12078032547888
0
ARC
5
149
100
AcDbEntity
8
0
100
AcDbCircle
10
-252.71250000000003
20
5.6750000000000007
30
0
40
2.6749999999999865
210
0
220
0
230
1
100
AcDbArc
50
232.12078032547868
51
270
0
LINE
5
150
100
AcDbEntity
8
0
100
AcDbLine
10
-252.71250000000003
20
3.0000000000000027
30
0
11
-5.1749999988183504
21
3.0000000000000004
31
0
0
ARC
5
151
100
AcDbEntity
8
0
100
AcDbCircle
10
-5.1750000003942507
20
5.6749999999989074
30
0
40
2.6749999999989074
210
-0
220
0
230
1
100
AcDbArc
50
270.00000003375419
51
307.87921976709686
0
ARC
5
152
100
AcDbEntity
8
0
100
AcDbCircle
10
-3.8395522354588114
20
3.9582576564936001
30
0
40
0.50000000000000144
210
-0
220
0
230
1
100
AcDbArc
50
-52.120780232902959
51
78.81194436038804
0
ARC
5
153
100
AcDbEntity
8
0
100
AcDbCircle
10
-3.5
20
5.6750000015748068
30
0
40
1.2499999999999998
210
0
220
0
230
1
100
AcDbArc
50
101.18805574742368
51
258.81194436038811
0
ARC
5
154
100
AcDbEntity
8
0
100
AcDbCircle
10
-3.8395522386891545
20
7.3917423460170886
30
0
40
0.49999999999999933
210
0
220
0
230
1
100
AcDbArc
50
-78.811944252576424
51
52.120780340715122
0
ARC
5
155
100
AcDbEntity
8
0
100
AcDbCircle
10
-5.1750000003942507
20
5.6749999999989074
30
0
40
2.6750000015758961
210
0
220
-0
230
1
100
AcDbArc
50
52.120780340715001
51
89.999999999999986
0
LINE
5
156
100
AcDbEntity
8
0
100
AcDbLine
10
-5.1750000003942498
20
8.3500000015748057
30
0
11
-6.0000000000000044
21
8.350000000000005
31
0
0
ARC
5
157
100
AcDbEntity
8
0
100
AcDbCircle
10
-6.0000000000000036
20
9.8500000000000014
30
0
40
1.4999999999999969
210
0
220
0
230
1
100
AcDbArc
50
180
51
269.99999999999994
0
LINE
5
158
100
AcDbEntity
8
0
100
AcDbLine
10
-7.5
20
9.8500000000000032
30
0
11
-7.499999999999992
21
72.350000000000023
31
0
0
ARC
5
159
100
AcDbEntity
8
0
100
AcDbCircle
10
-6.0000000000000062
20
72.350000000000023
30
0
40
1.4999999999999858
210
0
220
-0
230
1
100
AcDbArc
50
89.999999999999929
51
180
0
LINE
5
160
100
AcDbEntity
8
0
100
AcDbLine
10
-6.0000000000000044
20
73.850000000000009
30
0
11
-5.1749999999999972
21
73.850000000000023
31
0
0
ARC
5
161
100
AcDbEntity
8
0
100
AcDbCircle
10
-5.1749999999999847
20
76.525000000000006
30
0
40
2.6749999999999918
210
0
220
0
230
1
100
AcDbArc
50
269.99999999999972
51
307.87921967452115
0
ARC
5
162
100
AcDbEntity
8
0
100
AcDbCircle
10
-3.8395522388059717
20
74.808257655580817
30
0
40
0.49999999999999445
210
-0
220
0
230
1
100
AcDbArc
50
-52.120780325479032
51
78.811944248678003
0
ARC
5
163
100
AcDbEntity
8
0
100
AcDbCircle
10
-3.4999999999999964
20
76.525000000000006
30
0
40
1.2499999999999956
210
0
220
0
230
1
100
AcDbArc
50
101.18805575132212
51
258.81194424867738
0
ARC
5
164
100
AcDbEntity
8
0
100
AcDbCircle
10
-3.8395522388059602
20
78.241742344419166
30
0
40
0.49999999999998596
210
0
220
0
230
1
100
AcDbArc
50
-78.811944248677435
51
52.120780325478698
0
ARC
5
165
100
AcDbEntity
8
0
100
AcDbCircle
10
-5.1749999999999847
20
76.525000000000006
30
0
40
2.6749999999999803
210
0
220
-0
230
1
100
AcDbArc
50
52.120780325478215
51
89.999999999999943
0
LINE
5
166
100
AcDbEntity
8
0
100
AcDbLine
10
-5.1749999999999821
20
79.200000000000003
30
0
11
-252.71250000000003
21
79.200000000000003
31
0
0
ARC
5
167
100
AcDbEntity
8
0
100
AcDbCircle
10
-252.71250000000003
20
76.525000000000006
30
0
40
2.6750000000000007
210
0
220
-0
230
1
100
AcDbArc
50
90
51
127.87921967452112
0
ARC
5
168
100
AcDbEntity
8
0
100
AcDbCircle
10
-254.04794776119405
20
78.241742344419194
30
0
40
0.49999999999997902
210
0
220
0
230
1
100
AcDbArc
50
127.87921967452033
51
258.81194424867601
0
ARC
5
169
100
AcDbEntity
8
0
100
AcDbCircle
10
-254.38749999999999
20
76.524999999999991
30
0
40
1.2499999999999964
210
0
220
0
230
1
100
AcDbArc
50
-78.81194424867968
51
78.811944248680064
0
ARC
5
170
100
AcDbEntity
8
0
100
AcDbCircle
10
-254.04794776119405
20
74.808257655580817
30
0
40
0.49999999999999573
210
0
220
0
230
1
100
AcDbArc
50
101.18805575132366
51
232.12078032547967
0
ARC
5
171
100
AcDbEntity
8
0
100
AcDbCircle
10
-252.71250000000003
20
76.525000000000006
30
0
40
2.6749999999999918
210
0
220
0
230
1
100
AcDbArc
50
232.12078032547888
51
270
0
LINE
5
172
100
AcDbEntity
8
0
100
AcDbLine
10
-252.71250000000003
20
73.849999999999994
30
0
11
-251.88750000000005
21
73.850000000000037
31
0
0
ARC
5
173
100
AcDbEntity
8
0
100
AcDbCircle
10
-251.88750000000005
20
72.34999999999998
30
0
40
1.5000000000000568
210
0
220
-0
230
1
100
AcDbArc
50
0
51
90
0
LINE
5
174
100
AcDbEntity
8
0
100
AcDbLine
10
-250.38749999999999
20
72.350000000000023
30
0
11
-250.38750000000005
21
9.8500000000000032
31
0
0
ARC
5
175
100
AcDbEntity
8
0
100
AcDbCircle
10
-251.88750000000005
20
9.8500000000000369
30
0
40
1.500000000000038
210
-0
220
0
230
1
100
AcDbArc
50
270.00000000000108
51
360
0
LINE
5
176
100
AcDbEntity
8
0
100
AcDbLine
10
-251.88750000000002
20
8.3499999999999996
30
0
11
-252.71250000000003
21
8.3499999999999996
31
0
0
ARC
5
177
100
AcDbEntity
8
0
100
AcDbCircle
10
-252.71250000000003
20
5.6750000000000007
30
0
40
2.6749999999999985
210
0
220
-0
230
1
100
AcDbArc
50
90
51
127.87921967452193
0
ARC
5
178
100
AcDbEntity
8
0
100
AcDbCircle
10
-254.04794776119405
20
7.3917423444191774
30
0
40
0.49999999999999289
210
0
220
0
230
1
100
AcDbArc
50
127.87921967452384
51
258.81194424867635
0
ARC
5
179
100
AcDbEntity
8
0
100
AcDbCircle
10
-254.38749999999999
20
5.6749999999999972
30
0
40
1.2500000000000246
210
0
220
0
230
1
100
AcDbArc
50
-78.811944248678657
51
78.811944248679737
0
LWPOLYLINE
5
180
100
AcDbEntity
8
0
100
AcDbPolyline
90
60
70
1
43
0.0
10
-70.293749999999989
20
62.418960465220195
42
-0.41421356237309503
10
-69.793749999999989
20
62.918960465220195
10
-68.568749999999994
20
62.918960465220195
10
-68.568749999999994
20
68.688960465220191
42
-0.41421356237310542
10
-68.068749999999994
20
69.188960465220191
10
-67.742750000000001
20
69.188960465220191
10
-67.742750000000001
20
71.988960465220202
10
-68.068749999999994
20
71.988960465220217
42
-0.41421356237310542
10
-68.568749999999994
20
72.488960465220202
10
-68.568749999999994
20
75.218960465220192
10
-75.318749999999994
20
75.218960465220192
10
-75.318750000000009
20
72.488960465220188
42
-0.41421356237309503
10
-75.818749999999994
20
71.988960465220202
10
-121.44374999999999
20
71.988960465220202
42
-0.41421356237308982
10
-121.94375000000001
20
72.488960465220188
10
-121.94375000000001
20
76.174999999999997
42
0.41421356237310025
10
-122.44375000000002
20
76.675000000000011
10
-135.44375000000002
20
76.674999999999997
42
0.41421356237312101
10
-135.94375000000002
20
76.174999999999997
10
-135.94375000000002
20
72.488960465220188
42
-0.41421356237310542
10
-136.44375000000002
20
71.988960465220188
10
-182.06874999999999
20
71.988960465220217
42
-0.41421356237307422
10
-182.56875000000002
20
72.488960465220188
10
-182.56875000000002
20
75.218960465220192
10
-189.31875000000002
20
75.218960465220192
10
-189.31875000000005
20
72.488960465220188
42
-0.4142135623730222
10
-189.81875000000002
20
71.988960465220188
10
-190.14475000000002
20
71.988960465220188
10
-190.14475000000002
20
69.188960465220191
10
-189.81875000000002
20
69.188960465220205
42
-0.4142135623730222
10
-189.31875000000002
20
68.688960465220191
10
-189.31875000000002
20
62.918960465220188
10
-188.09375
20
62.91896046522016
42
-0.41421356237307422
10
-187.59375
20
62.418960465220188
10
-187.59375000000003
20
62.218960465220185
42
0.41421356237309503
10
-187.09375
20
61.718960465220185
10
-184.79375000000002
20
61.718960465220185
42
0.41421356237309503
10
-184.29374999999999
20
62.218960465220185
10
-184.29374999999999
20
62.418960465220188
42
-0.4142135623730222
10
-183.79375000000005
20
62.918960465220188
10
-182.56875000000002
20
62.918960465220188
10
-182.56875000000005
20
66.888960465220194
42
-0.41421356237307422
10
-182.06874999999999
20
67.38896046522018
10
-136.44374999999999
20
67.388960465220165
42
-0.41421356237305862
10
-135.94375000000002
20
66.888960465220194
10
-135.94375000000002
20
63.174999999999997
42
0.41421356237311585
10
-135.44375000000002
20
62.675000000000011
10
-122.44375000000002
20
62.674999999999997
42
0.41421356237308982
10
-121.94375000000001
20
63.174999999999997
10
-121.94375000000001
20
66.888960465220194
42
-0.41421356237310542
10
-121.44374999999999
20
67.388960465220194
10
-75.818749999999994
20
67.388960465220194
42
-0.41421356237309503
10
-75.318749999999994
20
66.888960465220194
10
-75.318749999999994
20
62.918960465220195
10
-74.093749999999986
20
62.918960465220188
42
-0.41421356237309503
10
-73.59375
20
62.418960465220195
10
-73.593749999999986
20
62.218960465220192
42
0.41421356237309503
10
-73.09375
20
61.718960465220192
10
-70.793749999999989
20
61.718960465220192
42
0.41421356237309503
10
-70.293749999999989
20
62.218960465220192
0
ENDSEC
0
SECTION
2
OBJECTS
0
DICTIONARY
5
C
100
AcDbDictionary
3
ACAD_GROUP
350
D
3
ACAD_MLINESTYLE
350
17
0
DICTIONARY
5
D
100
AcDbDictionary
0
DICTIONARY
5
1A
330
C
100
AcDbDictionary
0
DICTIONARY
5
17
100
AcDbDictionary
0
ENDSEC
0
EOF
