0
SECTION
2
HEADER
9
$INSUNITS
70
1
9
$ACADVER
1
AC1014
9
$HANDSEED
5
FFFF
0
ENDSEC
0
SECTION
2
TABLES
0
TABLE
2
VPORT
5
8
100
AcDbSymbolTable
0
ENDTAB
0
TABLE
2
LTYPE
5
5
100
AcDbSymbolTable
0
LTYPE
5
14
100
AcDbSymbolTableRecord
100
AcDbLinetypeTableRecord
2
BYBLOCK
70
0
0
LTYPE
5
15
100
AcDbSymbolTableRecord
100
AcDbLinetypeTableRecord
2
BYLAYER
70
0
0
ENDTAB
0
TABLE
2
LAYER
5
2
100
AcDbSymbolTable
70
2
0
LAYER
5
50
100
AcDbSymbolTableRecord
100
AcDbLayerTableRecord
2
0
70
0
6
CONTINUOUS
0
ENDTAB
0
TABLE
2
STYLE
5
3
100
AcDbSymbolTable
70
1
0
STYLE
5
11
100
AcDbSymbolTableRecord
100
AcDbTextStyleTableRecord
2
STANDARD
70
0
0
ENDTAB
0
TABLE
2
VIEW
5
6
100
AcDbSymbolTable
70
0
0
ENDTAB
0
TABLE
2
UCS
5
7
100
AcDbSymbolTable
70
0
0
ENDTAB
0
TABLE
2
APPID
5
9
100
AcDbSymbolTable
70
2
0
APPID
5
12
100
AcDbSymbolTableRecord
100
AcDbRegAppTableRecord
2
ACAD
70
0
0
ENDTAB
0
TABLE
2
DIMSTYLE
5
A
100
AcDbSymbolTable
70
1
0
ENDTAB
0
TABLE
2
BLOCK_RECORD
5
1
100
AcDbSymbolTable
70
1
0
BLOCK_RECORD
5
1F
100
AcDbSymbolTableRecord
100
AcDbBlockTableRecord
2
*MODEL_SPACE
0
BLOCK_RECORD
5
1B
100
AcDbSymbolTableRecord
100
AcDbBlockTableRecord
2
*PAPER_SPACE
0
ENDTAB
0
ENDSEC
0
SECTION
2
BLOCKS
0
BLOCK
5
20
100
AcDbEntity
100
AcDbBlockBegin
2
*MODEL_SPACE
0
ENDBLK
5
21
100
AcDbEntity
100
AcDbBlockEnd
0
BLOCK
5
1C
100
AcDbEntity
100
AcDbBlockBegin
2
*PAPER_SPACE
0
ENDBLK
5
1D
100
AcDbEntity
100
AcDbBlockEnd
0
ENDSEC
0
SECTION
2
ENTITIES
0
LINE
5
100
100
AcDbEntity
8
0
100
AcDbLine
10
6.1621555118110241
20
-2.9005905511811019
30
0
11
6.2581397637795275
21
-2.9005905511811019
31
0
0
ARC
5
101
100
AcDbEntity
8
0
100
AcDbCircle
10
6.4943602362204729
20
-2.8809055118110232
30
0
40
0.019685039370078667
210
0
220
0
230
1
100
AcDbArc
50
-90
51
0
0
LWPOLYLINE
5
102
100
AcDbEntity
8
0
100
AcDbPolyline
90
8
70
1
43
0.0
10
6.6815944881889759
20
-2.1505905511811028
42
-0.41421356237309503
10
6.6619094488188972
20
-2.1309055118110236
10
6.6619094488188972
20
-1.6190944881889762
42
-0.41421356237309503
10
6.6815944881889759
20
-1.5994094488188975
10
7.1934055118110241
20
-1.5994094488188972
42
-0.41421356237309503
10
7.2130905511811028
20
-1.6190944881889762
10
7.2130905511811028
20
-2.1309055118110236
42
-0.41421356237309503
10
7.1934055118110241
20
-2.1505905511811023
0
LINE
5
103
100
AcDbEntity
8
0
100
AcDbLine
10
6.4943602362204729
20
-2.3100393700787398
30
0
11
6.2581397637795275
21
-2.3100393700787403
31
0
0
LINE
5
104
100
AcDbEntity
8
0
100
AcDbLine
10
6.4434055118110232
20
-2.9005905511811019
30
0
11
6.4943602362204729
21
-2.9005905511811019
31
0
0
LINE
5
105
100
AcDbEntity
8
0
100
AcDbLine
10
6.1621555118110241
20
-2.3494094488188977
30
0
11
5.9315944881889759
21
-2.3494094488188977
31
0
0
LINE
5
106
100
AcDbEntity
8
0
100
AcDbLine
10
5.8809055118110232
20
-2.9005905511811019
30
0
11
5.9315944881889759
21
-2.9005905511811019
31
0
0
LINE
5
107
100
AcDbEntity
8
0
100
AcDbLine
10
5.5752952755905518
20
-2.3494094488188977
30
0
11
5.5752952755905518
21
-2.329724409448819
31
0
0
ARC
5
108
100
AcDbEntity
8
0
100
AcDbCircle
10
6.4943602362204729
20
-2.329724409448819
30
0
40
0.019685039370077619
210
0
220
0
230
1
100
AcDbArc
50
0
51
90
0
LINE
5
109
100
AcDbEntity
8
0
100
AcDbLine
10
5.5556102362204731
20
-2.3100393700787403
30
0
11
5.5543602362204716
21
-2.3100393700787398
31
0
0
LINE
5
110
100
AcDbEntity
8
0
100
AcDbLine
10
6.2384547244094479
20
-2.329724409448819
30
0
11
6.2384547244094479
21
-2.3494094488188977
31
0
0
LINE
5
111
100
AcDbEntity
8
0
100
AcDbLine
10
4.5497047244094482
20
-2.3494094488188977
30
0
11
4.1934055118110241
21
-2.3494094488188977
31
0
0
LWPOLYLINE
5
112
100
AcDbEntity
8
0
100
AcDbPolyline
90
8
70
1
43
0.0
10
4.3809055118110241
20
-0.65059055118110221
10
3.8690944881889764
20
-0.65059055118110187
42
-0.41421356237309503
10
3.8494094488188981
20
-0.63090551181102361
10
3.8494094488188972
20
-0.11909448818897636
42
-0.41421356237309503
10
3.8690944881889764
20
-0.099409448818897628
10
4.3809055118110241
20
-0.09940944881889735
42
-0.41421356237309503
10
4.4005905511811028
20
-0.11909448818897636
10
4.4005905511811028
20
-0.63090551181102361
42
-0.41421356237309503
0
LINE
5
113
100
AcDbEntity
8
0
100
AcDbLine
10
5.3193897637795278
20
-2.9005905511811019
30
0
11
5.3690944881889759
21
-2.9005905511811019
31
0
0
LINE
5
114
100
AcDbEntity
8
0
100
AcDbLine
10
4.1934055118110241
20
-2.9005905511811019
30
0
11
4.5684055118110232
21
-2.9005905511811019
31
0
0
ARC
5
115
100
AcDbEntity
8
0
100
AcDbCircle
10
4.900610236220472
20
-2.329724409448819
30
0
40
0.019685039370079017
210
0
220
0
230
1
100
AcDbArc
50
0
51
90
0
LINE
5
116
100
AcDbEntity
8
0
100
AcDbLine
10
4.9003444881889759
20
-2.9005905511811019
30
0
11
4.900610236220472
21
-2.9005905511811019
31
0
0
LWPOLYLINE
5
117
100
AcDbEntity
8
0
100
AcDbPolyline
90
8
70
1
43
0.0
10
4.3809055118110241
20
-2.1505905511811023
10
3.8690944881889764
20
-2.1505905511811019
42
-0.41421356237309503
10
3.8494094488188981
20
-2.1309055118110236
10
3.8494094488188972
20
-1.6190944881889762
42
-0.41421356237309503
10
3.8690944881889764
20
-1.5994094488188975
10
4.3809055118110241
20
-1.5994094488188972
42
-0.41421356237309503
10
4.4005905511811028
20
-1.6190944881889762
10
4.4005905511811028
20
-2.1309055118110236
42
-0.41421356237309503
0
LINE
5
118
100
AcDbEntity
8
0
100
AcDbLine
10
4.900610236220472
20
-2.9005905511811019
30
0
11
5.3181397637795271
21
-2.9005905511811019
31
0
0
LWPOLYLINE
5
119
100
AcDbEntity
8
0
100
AcDbPolyline
90
8
70
1
43
0.0
10
1.6190944881889762
20
-1.5994094488188975
10
2.1309055118110236
20
-1.5994094488188975
42
-0.41421356237309503
10
2.1505905511811023
20
-1.6190944881889762
10
2.1505905511811023
20
-2.1309055118110236
42
-0.41421356237309503
10
2.1309055118110236
20
-2.1505905511811023
10
1.6190944881889762
20
-2.1505905511811023
42
-0.41421356237309503
10
1.5994094488188975
20
-2.1309055118110236
10
1.5994094488188975
20
-1.6190944881889762
42
-0.41421356237309503
0
LINE
5
120
100
AcDbEntity
8
0
100
AcDbLine
10
4.6643897637795275
20
-2.3100393700787398
30
0
11
4.5693897637795278
21
-2.3100393700787398
31
0
0
LINE
5
121
100
AcDbEntity
8
0
100
AcDbLine
10
4.8065944881889768
20
-2.9005905511811019
30
0
11
4.9003444881889759
21
-2.9005905511811019
31
0
0
LWPOLYLINE
5
122
100
AcDbEntity
8
0
100
AcDbPolyline
90
8
70
1
43
0.0
10
3.8690944881889764
20
-0.84940944881889768
10
4.3809055118110241
20
-0.84940944881889724
42
-0.41421356237309503
10
4.4005905511811028
20
-0.86909448818897628
10
4.4005905511811028
20
-1.3809055118110236
42
-0.41421356237309503
10
4.3809055118110241
20
-1.4005905511811023
10
3.8690944881889764
20
-1.4005905511811025
42
-0.41421356237309503
10
3.8494094488188972
20
-1.3809055118110236
10
3.8494094488188972
20
-0.86909448818897628
42
-0.41421356237309503
0
LWPOLYLINE
5
123
100
AcDbEntity
8
0
100
AcDbPolyline
90
8
70
1
43
0.0
10
6.6815944881889759
20
-0.84940944881889768
10
7.1934055118110241
20
-0.84940944881889724
42
-0.41421356237309503
10
7.2130905511811028
20
-0.86909448818897628
10
7.2130905511811028
20
-1.3809055118110236
42
-0.41421356237309503
10
7.1934055118110241
20
-1.4005905511811025
10
6.6815944881889759
20
-1.4005905511811025
42
-0.41421356237309503
10
6.6619094488188972
20
-1.3809055118110236
10
6.6619094488188972
20
-0.86909448818897628
42
-0.41421356237309503
0
LWPOLYLINE
5
124
100
AcDbEntity
8
0
100
AcDbPolyline
90
8
70
1
43
0.0
10
2.1309055118110236
20
-0.65059055118110221
10
1.6190944881889762
20
-0.65059055118110221
42
-0.41421356237309503
10
1.5994094488188975
20
-0.63090551181102361
10
1.5994094488188975
20
-0.11909448818897636
42
-0.41421356237309503
10
1.6190944881889762
20
-0.099409448818897628
10
2.1309055118110236
20
-0.099409448818897697
42
-0.41421356237309503
10
2.1505905511811023
20
-0.11909448818897636
10
2.1505905511811023
20
-0.63090551181102361
42
-0.41421356237309503
0
LWPOLYLINE
5
125
100
AcDbEntity
8
0
100
AcDbPolyline
90
8
70
1
43
0.0
10
5.4318405511811019
20
-2.1309055118110236
42
-0.41421356237309503
10
5.4121555118110232
20
-2.1505905511811023
10
4.9003444881889759
20
-2.1505905511811019
42
-0.41421356237309503
10
4.8806594488188981
20
-2.1309055118110236
10
4.8806594488188981
20
-1.6190944881889762
42
-0.41421356237309503
10
4.9003444881889759
20
-1.5994094488188975
10
5.4121555118110232
20
-1.5994094488188979
42
-0.41421356237309503
10
5.4318405511811019
20
-1.6190944881889762
0
LINE
5
126
100
AcDbEntity
8
0
100
AcDbLine
10
5.3690944881889759
20
-2.9005905511811019
30
0
11
5.4121555118110232
21
-2.9005905511811019
31
0
0
LINE
5
127
100
AcDbEntity
8
0
100
AcDbLine
10
4.5693897637795278
20
-2.9005905511811019
30
0
11
4.6643897637795275
21
-2.9005905511811019
31
0
0
ARC
5
128
100
AcDbEntity
8
0
100
AcDbCircle
10
4.5684055118110232
20
-2.8809055118110232
30
0
40
0.019685039370078667
210
0
220
0
230
1
100
AcDbArc
50
270
51
271.43254400000006
0
ARC
5
129
100
AcDbEntity
8
0
100
AcDbCircle
10
4.5693897637795278
20
-2.8809055118110232
30
0
40
0.019685039370078684
210
0
220
0
230
1
100
AcDbArc
50
268.56745599999994
51
270
0
LINE
5
130
100
AcDbEntity
8
0
100
AcDbLine
10
4.6643897637795275
20
-2.9005905511811019
30
0
11
4.8056102362204722
21
-2.9005905511811019
31
0
0
LINE
5
131
100
AcDbEntity
8
0
100
AcDbLine
10
4.8056102362204722
20
-2.9005905511811019
30
0
11
4.8065944881889768
21
-2.9005905511811019
31
0
0
LINE
5
132
100
AcDbEntity
8
0
100
AcDbLine
10
5.3181397637795271
20
-2.9005905511811019
30
0
11
5.3184055118110232
21
-2.9005905511811019
31
0
0
ARC
5
133
100
AcDbEntity
8
0
100
AcDbCircle
10
5.3181397637795271
20
-2.329724409448819
30
0
40
0.019685039370078667
210
0
220
-0
230
1
100
AcDbArc
50
90
51
180
0
LINE
5
134
100
AcDbEntity
8
0
100
AcDbLine
10
9.6540496062992087
20
4.0157480316727318e-05
30
0
11
-0.09152125988904633
21
4.0157480315328609e-05
31
0
0
ARC
5
135
100
AcDbEntity
8
0
100
AcDbCircle
10
5.5556102362204731
20
-2.329724409448819
30
0
40
0.019685039370079017
210
0
220
0
230
1
100
AcDbArc
50
0
51
90
0
LINE
5
136
100
AcDbEntity
8
0
100
AcDbLine
10
6.5140452755905516
20
-2.8809055118110232
30
0
11
6.5140452755905507
21
-2.329724409448819
31
0
0
LINE
5
137
100
AcDbEntity
8
0
100
AcDbLine
10
6.2384547244094479
20
-2.3494094488188977
30
0
11
6.1621555118110241
21
-2.3494094488188977
31
0
0
LWPOLYLINE
5
138
100
AcDbEntity
8
0
100
AcDbPolyline
90
8
70
1
43
0.0
10
5.9315944881889759
20
-2.1505905511811028
42
-0.41421356237309503
10
5.9119094488188972
20
-2.1309055118110236
10
5.9119094488188972
20
-1.6190944881889762
42
-0.41421356237309503
10
5.9315944881889759
20
-1.5994094488188975
10
6.4434055118110232
20
-1.5994094488188972
42
-0.41421356237309503
10
6.4630905511811028
20
-1.6190944881889762
10
6.4630905511811028
20
-2.1309055118110236
42
-0.41421356237309503
10
6.4434055118110232
20
-2.1505905511811023
0
LINE
5
139
100
AcDbEntity
8
0
100
AcDbLine
10
6.2581397637795275
20
-2.9005905511811019
30
0
11
6.4434055118110232
21
-2.9005905511811019
31
0
0
LINE
5
140
100
AcDbEntity
8
0
100
AcDbLine
10
5.8809055118110232
20
-2.3494094488188977
30
0
11
5.6503444881889768
21
-2.3494094488188977
31
0
0
ARC
5
141
100
AcDbEntity
8
0
100
AcDbCircle
10
6.2581397637795275
20
-2.329724409448819
30
0
40
0.019685039370078667
210
0
220
-0
230
1
100
AcDbArc
50
90
51
180
0
LINE
5
142
100
AcDbEntity
8
0
100
AcDbLine
10
5.5543602362204716
20
-2.9005905511811019
30
0
11
5.5556102362204731
21
-2.9005905511811019
31
0
0
LINE
5
143
100
AcDbEntity
8
0
100
AcDbLine
10
5.6503444881889768
20
-2.3494094488188977
30
0
11
5.5752952755905518
21
-2.3494094488188977
31
0
0
LINE
5
144
100
AcDbEntity
8
0
100
AcDbLine
10
5.9315944881889759
20
-2.9005905511811019
30
0
11
6.1621555118110241
21
-2.9005905511811019
31
0
0
LINE
5
145
100
AcDbEntity
8
0
100
AcDbLine
10
5.9315944881889759
20
-2.3494094488188977
30
0
11
5.8809055118110232
21
-2.3494094488188977
31
0
0
LINE
5
146
100
AcDbEntity
8
0
100
AcDbLine
10
5.5556102362204731
20
-2.9005905511811019
30
0
11
5.6503444881889768
21
-2.9005905511811019
31
0
0
LINE
5
147
100
AcDbEntity
8
0
100
AcDbLine
10
-0.091521259842525363
20
-2.9999598425196847
30
0
11
9.6540496062992087
21
-2.9999598425196838
31
0
0
LINE
5
148
100
AcDbEntity
8
0
100
AcDbLine
10
5.6503444881889768
20
-2.9005905511811019
30
0
11
5.8809055118110232
21
-2.9005905511811019
31
0
0
LWPOLYLINE
5
149
100
AcDbEntity
8
0
100
AcDbPolyline
90
8
70
1
43
0.0
10
2.3690944881889764
20
-2.1505905511811023
42
-0.41421356237309503
10
2.3494094488188977
20
-2.1309055118110236
10
2.3494094488188977
20
-1.6190944881889762
42
-0.41421356237309503
10
2.3690944881889764
20
-1.5994094488188975
10
2.8809055118110232
20
-1.5994094488188975
42
-0.41421356237309503
10
2.9005905511811019
20
-1.6190944881889762
10
2.9005905511811019
20
-2.1309055118110236
42
-0.41421356237309503
10
2.8809055118110232
20
-2.1505905511811023
0
LWPOLYLINE
5
150
100
AcDbEntity
8
0
100
AcDbPolyline
90
8
70
1
43
0.0
10
2.0681594488188977
20
-2.8809055118110232
10
2.0681594488188977
20
-2.3690944881889764
42
-0.41421356237309503
10
2.0878444881889764
20
-2.3494094488188977
10
2.5996555118110236
20
-2.3494094488188977
42
-0.41421356237309503
10
2.6193405511811023
20
-2.3690944881889764
10
2.6193405511811023
20
-2.8809055118110232
42
-0.41421356237309503
10
2.5996555118110236
20
-2.9005905511811019
10
2.0878444881889764
20
-2.9005905511811019
42
-0.41421356237309503
0
LWPOLYLINE
5
151
100
AcDbEntity
8
0
100
AcDbPolyline
90
8
70
1
43
0.0
10
3.0994094488188972
20
-1.6190944881889762
42
-0.41421356237309503
10
3.1190944881889759
20
-1.5994094488188975
10
3.6309055118110232
20
-1.5994094488188972
42
-0.41421356237309503
10
3.6505905511811023
20
-1.6190944881889762
10
3.6505905511811023
20
-2.1309055118110236
42
-0.41421356237309503
10
3.6309055118110232
20
-2.1505905511811023
10
3.1190944881889759
20
-2.1505905511811023
42
-0.41421356237309503
10
3.0994094488188972
20
-2.1309055118110236
0
LWPOLYLINE
5
152
100
AcDbEntity
8
0
100
AcDbPolyline
90
8
70
1
43
0.0
10
0.86909448818897628
20
-0.84940944881889768
10
1.3809055118110236
20
-0.84940944881889746
42
-0.41421356237309503
10
1.4005905511811025
20
-0.86909448818897628
10
1.4005905511811023
20
-1.3809055118110236
42
-0.41421356237309503
10
1.3809055118110236
20
-1.4005905511811023
10
0.86909448818897628
20
-1.4005905511811023
42
-0.41421356237309503
10
0.84940944881889768
20
-1.3809055118110236
10
0.84940944881889768
20
-0.86909448818897628
42
-0.41421356237309503
0
LWPOLYLINE
5
153
100
AcDbEntity
8
0
100
AcDbPolyline
90
8
70
1
43
0.0
10
3.1190944881889759
20
-1.4005905511811023
42
-0.41421356237309503
10
3.0994094488188972
20
-1.3809055118110236
10
3.0994094488188972
20
-0.86909448818897628
42
-0.41421356237309503
10
3.1190944881889759
20
-0.84940944881889768
10
3.6309055118110232
20
-0.84940944881889802
42
-0.41421356237309503
10
3.6505905511811019
20
-0.86909448818897628
10
3.6505905511811023
20
-1.3809055118110236
42
-0.41421356237309503
10
3.6309055118110232
20
-1.4005905511811025
0
LWPOLYLINE
5
154
100
AcDbEntity
8
0
100
AcDbPolyline
90
8
70
1
43
0.0
10
2.9005905511811019
20
-0.11909448818897636
10
2.9005905511811019
20
-0.63090551181102361
42
-0.41421356237309503
10
2.8809055118110232
20
-0.65059055118110232
10
2.3690944881889764
20
-0.65059055118110221
42
-0.41421356237309503
10
2.3494094488188977
20
-0.63090551181102361
10
2.3494094488188977
20
-0.11909448818897636
42
-0.41421356237309503
10
2.3690944881889764
20
-0.099409448818897628
10
2.8809055118110232
20
-0.099409448818897697
42
-0.41421356237309503
0
LWPOLYLINE
5
155
100
AcDbEntity
8
0
100
AcDbPolyline
90
8
70
1
43
0.0
10
2.3494094488188977
20
-0.86909448818897628
42
-0.41421356237309503
10
2.3690944881889764
20
-0.84940944881889768
10
2.8809055118110232
20
-0.84940944881889768
42
-0.41421356237309503
10
2.9005905511811019
20
-0.86909448818897628
10
2.9005905511811019
20
-1.3809055118110236
42
-0.41421356237309503
10
2.8809055118110232
20
-1.4005905511811023
10
2.3690944881889764
20
-1.4005905511811023
42
-0.41421356237309503
10
2.3494094488188977
20
-1.3809055118110236
0
LWPOLYLINE
5
156
100
AcDbEntity
8
0
100
AcDbPolyline
90
8
70
1
43
0.0
10
0.65059055118110221
20
-0.63090551181102361
42
-0.41421356237309503
10
0.63090551181102361
20
-0.65059055118110221
10
0.11909448818897636
20
-0.65059055118110232
42
-0.41421356237309503
10
0.099409448818897628
20
-0.63090551181102361
10
0.099409448818897628
20
-0.11909448818897636
42
-0.41421356237309503
10
0.11909448818897636
20
-0.099409448818897628
10
0.63090551181102361
20
-0.099409448818897697
42
-0.41421356237309503
10
0.65059055118110221
20
-0.11909448818897636
0
LINE
5
157
100
AcDbEntity
8
0
100
AcDbLine
10
3.6619094488188972
20
-2.3690944881889764
30
0
11
3.6619094488188972
21
-2.8809055118110232
31
0
0
LINE
5
158
100
AcDbEntity
8
0
100
AcDbLine
10
4.1934055118110241
20
-2.3494094488188977
30
0
11
4.0565944881889759
21
-2.3494094488188977
31
0
0
LWPOLYLINE
5
159
100
AcDbEntity
8
0
100
AcDbPolyline
90
8
70
1
43
0.0
10
2.1309055118110236
20
-0.84940944881889768
42
-0.41421356237309503
10
2.1505905511811023
20
-0.86909448818897628
10
2.1505905511811023
20
-1.3809055118110236
42
-0.41421356237309503
10
2.1309055118110236
20
-1.4005905511811025
10
1.6190944881889762
20
-1.4005905511811023
42
-0.41421356237309503
10
1.5994094488188975
20
-1.3809055118110236
10
1.5994094488188975
20
-0.86909448818897628
42
-0.41421356237309503
10
1.6190944881889762
20
-0.84940944881889768
0
LWPOLYLINE
5
160
100
AcDbEntity
8
0
100
AcDbPolyline
90
8
70
1
43
0.0
10
0.63090551181102361
20
-0.84940944881889768
42
-0.41421356237309503
10
0.65059055118110221
20
-0.86909448818897628
10
0.65059055118110243
20
-1.3809055118110236
42
-0.41421356237309503
10
0.63090551181102361
20
-1.4005905511811025
10
0.11909448818897636
20
-1.4005905511811023
42
-0.41421356237309503
10
0.099409448818897628
20
-1.3809055118110236
10
0.099409448818897697
20
-0.86909448818897628
42
-0.41421356237309503
10
0.11909448818897636
20
-0.84940944881889768
0
ARC
5
161
100
AcDbEntity
8
0
100
AcDbCircle
10
-0.059040944881894208
20
-2.7302748031496069
30
0
40
0.059055118110236005
210
0
220
0
230
1
100
AcDbArc
50
-90
51
0
0
LWPOLYLINE
5
162
100
AcDbEntity
8
0
100
AcDbPolyline
90
8
70
1
43
0.0
10
0.84940944881889768
20
-0.11909448818897636
42
-0.41421356237309503
10
0.86909448818897628
20
-0.099409448818897628
10
1.3809055118110236
20
-0.099409448818897697
42
-0.41421356237309503
10
1.4005905511811023
20
-0.11909448818897636
10
1.4005905511811023
20
-0.63090551181102361
42
-0.41421356237309503
10
1.3809055118110236
20
-0.65059055118110232
10
0.86909448818897628
20
-0.65059055118110221
42
-0.41421356237309503
10
0.84940944881889768
20
-0.63090551181102361
0
LINE
5
163
100
AcDbEntity
8
0
100
AcDbLine
10
3.7047047244094484
20
-2.329724409448819
30
0
11
3.7047047244094484
21
-2.3494094488188977
31
0
0
ARC
5
164
100
AcDbEntity
8
0
100
AcDbCircle
10
9.6540496062992087
20
-2.8946448818897625
30
0
40
0.10531496062992128
210
-0
220
0
230
1
100
AcDbArc
50
270
51
307.87921967452144
0
ARC
5
165
100
AcDbEntity
8
0
100
AcDbCircle
10
-0.14409794335869927
20
-0.17286308448886112
30
0
40
0.019685039370078952
210
0
220
0
230
1
100
AcDbArc
50
101.18805574742579
51
232.12078034071462
0
LWPOLYLINE
5
166
100
AcDbEntity
8
0
100
AcDbPolyline
90
52
70
1
43
0.0
10
7.3809055118110223
20
-2.9005905511811019
10
7.2428641732283463
20
-2.9005905511811019
10
7.0565944881889768
20
-2.9005905511811019
10
7.0556102362204722
20
-2.9005905511811019
10
7.006643700787401
20
-2.9005905511811019
10
6.8690944881889768
20
-2.9005905511811019
10
6.8193897637795278
20
-2.9005905511811023
42
-0.41421356237309503
10
6.7997047244094491
20
-2.8809055118110232
10
6.7997047244094491
20
-2.329724409448819
42
-0.41421356237309503
10
6.8193897637795278
20
-2.3100393700787403
10
7.006643700787401
20
-2.3100393700787398
10
7.0556102362204722
20
-2.3100393700787398
10
7.2428641732283463
20
-2.3100393700787398
42
-0.41421356237309503
10
7.262549212598425
20
-2.329724409448819
10
7.262549212598425
20
-2.3494094488188977
10
7.3809055118110223
20
-2.3494094488188977
10
7.4315944881889751
20
-2.3494094488188977
10
7.5684055118110241
20
-2.3494094488188977
10
7.7128444881889768
20
-2.3494094488188977
10
7.9434055118110232
20
-2.3494094488188977
10
8.1815944881889759
20
-2.3494094488188977
10
8.2246555118110223
20
-2.3494094488188977
10
8.5236220472440944
20
-2.3494094488188977
10
8.5565944881889759
20
-2.3494094488188977
10
8.5629921259842519
20
-2.3494094488188977
10
8.6934055118110241
20
-2.3494094488188977
10
8.7440944881889759
20
-2.3494094488188977
10
8.9315944881889759
20
-2.3494094488188977
10
9.0684055118110241
20
-2.3494094488188977
10
9.2559055118110241
20
-2.3494094488188977
10
9.4370078740157464
20
-2.3494094488188977
10
9.4434055118110241
20
-2.3494094488188977
10
9.4763779527559056
20
-2.3494094488188972
42
-0.41421356237309503
10
9.4960629921259834
20
-2.3690944881889764
10
9.4960629921259834
20
-2.8809055118110232
42
-0.41421356237309503
10
9.4763779527559056
20
-2.9005905511811019
10
9.4434055118110241
20
-2.9005905511811019
10
9.4370078740157464
20
-2.9005905511811019
10
9.2559055118110241
20
-2.9005905511811019
10
9.0684055118110241
20
-2.9005905511811019
10
8.9315944881889759
20
-2.9005905511811019
10
8.7440944881889759
20
-2.9005905511811019
10
8.6934055118110241
20
-2.9005905511811019
10
8.5629921259842519
20
-2.9005905511811019
10
8.5565944881889759
20
-2.9005905511811019
10
8.5236220472440944
20
-2.9005905511811019
10
8.2246555118110223
20
-2.9005905511811019
10
8.1815944881889759
20
-2.9005905511811019
10
7.9434055118110232
20
-2.9005905511811019
10
7.7128444881889768
20
-2.9005905511811019
10
7.5684055118110241
20
-2.9005905511811019
10
7.4315944881889751
20
-2.9005905511811019
0
LWPOLYLINE
5
167
100
AcDbEntity
8
0
100
AcDbPolyline
90
8
70
1
43
0.0
10
7.4119094488188964
20
-1.3809055118110236
10
7.4119094488188964
20
-0.86909448818897628
42
-0.41421356237309503
10
7.4315944881889751
20
-0.84940944881889768
10
7.9434055118110232
20
-0.84940944881889724
42
-0.41421356237309503
10
7.9630905511811019
20
-0.86909448818897628
10
7.9630905511811019
20
-1.3809055118110236
42
-0.41421356237309503
10
7.9434055118110232
20
-1.4005905511811023
10
7.4315944881889751
20
-1.4005905511811025
42
-0.41421356237309503
0
ARC
5
168
100
AcDbEntity
8
0
100
AcDbCircle
10
-0.059040944881894208
20
-0.26964488188976288
30
0
40
0.059055118110235658
210
-0
220
0
230
1
100
AcDbArc
50
0
51
90
0
LINE
5
169
100
AcDbEntity
8
0
100
AcDbLine
10
-0.091521259827002516
20
-0.21058976384152767
30
0
11
-0.059040944881894208
21
-0.21058976377952723
31
0
0
ARC
5
170
100
AcDbEntity
8
0
100
AcDbCircle
10
9.7199944881889699
20
-0.10527480314960524
30
0
40
0.049212598425199032
210
0
220
0
230
1
100
AcDbArc
50
101.18805575132171
51
258.81194424867965
0
ARC
5
171
100
AcDbEntity
8
0
100
AcDbCircle
10
9.7066262898107833
20
-0.03768652187325898
30
0
40
0.019685039370076929
210
-0
220
0
230
1
100
AcDbArc
50
-78.811944248679922
51
52.120780325478563
0
ARC
5
172
100
AcDbEntity
8
0
100
AcDbCircle
10
9.7066262898107833
20
-2.8270566006134161
30
0
40
0.01968503937007857
210
-0
220
0
230
1
100
AcDbArc
50
-78.811944248675644
51
52.120780325477455
0
LWPOLYLINE
5
173
100
AcDbEntity
8
0
100
AcDbPolyline
90
8
70
1
43
0.0
10
3.0994094488188972
20
-0.11909448818897636
42
-0.41421356237309503
10
3.1190944881889759
20
-0.099409448818897628
10
3.6309055118110232
20
-0.09940944881889735
42
-0.41421356237309503
10
3.6505905511811023
20
-0.11909448818897636
10
3.6505905511811023
20
-0.63090551181102361
42
-0.41421356237309503
10
3.6309055118110232
20
-0.65059055118110232
10
3.1190944881889759
20
-0.65059055118110221
42
-0.41421356237309503
10
3.0994094488188972
20
-0.63090551181102361
0
LWPOLYLINE
5
174
100
AcDbEntity
8
0
100
AcDbPolyline
90
20
70
1
43
0.0
10
2.9315944881889764
20
-2.9005905511811019
42
-0.41421356237309503
10
2.9119094488188977
20
-2.8809055118110232
10
2.9119094488188977
20
-2.3690944881889764
42
-0.41421356237309503
10
2.9315944881889764
20
-2.3494094488188977
10
3.0497047244094491
20
-2.3494094488188977
10
3.0497047244094491
20
-2.329724409448819
42
-0.41421356237309503
10
3.0693897637795273
20
-2.3100393700787403
10
3.0696358267716533
20
-2.3100393700787398
10
3.3056102362204722
20
-2.3100393700787398
10
3.3058562992125982
20
-2.3100393700787398
42
-0.41421356237309503
10
3.3255413385826769
20
-2.329724409448819
10
3.3255413385826769
20
-2.3494094488188977
10
3.4434055118110241
20
-2.3494094488188977
42
-0.41421356237309503
10
3.4630905511811023
20
-2.3690944881889764
10
3.4630905511811023
20
-2.8809055118110232
42
-0.41421356237309503
10
3.4434055118110241
20
-2.9005905511811019
10
3.3058562992125982
20
-2.9005905511811019
10
3.3056102362204722
20
-2.9005905511811019
10
3.0696358267716533
20
-2.9005905511811019
10
3.0693897637795273
20
-2.9005905511811019
0
ARC
5
175
100
AcDbEntity
8
0
100
AcDbCircle
10
9.7199944881889699
20
-2.8946448818897612
30
0
40
0.049212598425196021
210
0
220
0
230
1
100
AcDbArc
50
101.18805575132026
51
258.81194424868022
0
LWPOLYLINE
5
176
100
AcDbEntity
8
0
100
AcDbPolyline
90
8
70
1
43
0.0
10
7.4315944881889751
20
-0.65059055118110265
42
-0.41421356237309503
10
7.4119094488188964
20
-0.63090551181102361
10
7.4119094488188964
20
-0.11909448818897636
42
-0.41421356237309503
10
7.4315944881889751
20
-0.099409448818897628
10
7.9434055118110232
20
-0.09940944881889735
42
-0.41421356237309503
10
7.9630905511811019
20
-0.11909448818897636
10
7.9630905511811019
20
-0.63090551181102361
42
-0.41421356237309503
10
7.9434055118110232
20
-0.65059055118110232
0
ARC
5
177
100
AcDbEntity
8
0
100
AcDbCircle
10
-0.1574661417322879
20
-0.10527480321160571
30
0
40
0.049212598425196832
210
-0
220
0
230
1
100
AcDbArc
50
-78.811944252577405
51
78.811944360386988
0
ARC
5
178
100
AcDbEntity
8
0
100
AcDbCircle
10
3.7243897637795276
20
-2.329724409448819
30
0
40
0.019685039370078667
210
0
220
-0
230
1
100
AcDbArc
50
90
51
180
0
LWPOLYLINE
5
179
100
AcDbEntity
8
0
100
AcDbPolyline
90
8
70
1
43
0.0
10
1.6818405511811021
20
-2.8809055118110232
42
-0.41421356237309503
10
1.6621555118110234
20
-2.9005905511811019
10
1.1503444881889764
20
-2.9005905511811019
42
-0.41421356237309503
10
1.1306594488188977
20
-2.8809055118110232
10
1.1306594488188977
20
-2.3690944881889764
42
-0.41421356237309503
10
1.1503444881889764
20
-2.3494094488188977
10
1.6621555118110234
20
-2.3494094488188972
42
-0.41421356237309503
10
1.6818405511811025
20
-2.3690944881889764
0
ARC
5
180
100
AcDbEntity
8
0
100
AcDbCircle
10
-0.14409794348587804
20
-0.037686521909195941
30
0
40
0.019685039370077873
210
0
220
0
230
1
100
AcDbArc
50
127.87921976709788
51
258.81194436039107
0
ARC
5
181
100
AcDbEntity
8
0
100
AcDbCircle
10
9.6215692913385791
20
-2.7302748031496042
30
0
40
0.059055118110238454
210
0
220
0
230
1
100
AcDbArc
50
180
51
270
0
LWPOLYLINE
5
182
100
AcDbEntity
8
0
100
AcDbPolyline
90
8
70
1
43
0.0
10
0.84940944881889768
20
-1.6190944881889762
42
-0.41421356237309503
10
0.86909448818897628
20
-1.5994094488188975
10
1.3809055118110236
20
-1.5994094488188975
42
-0.41421356237309503
10
1.4005905511811023
20
-1.6190944881889762
10
1.4005905511811023
20
-2.1309055118110236
42
-0.41421356237309503
10
1.3809055118110236
20
-2.1505905511811023
10
0.86909448818897628
20
-2.1505905511811023
42
-0.41421356237309503
10
0.84940944881889768
20
-2.1309055118110236
0
ARC
5
183
100
AcDbEntity
8
0
100
AcDbCircle
10
9.7066262898107833
20
-0.17286308442595011
30
0
40
0.019685039370080183
210
-0
220
0
230
1
100
AcDbArc
50
-52.120780325474499
51
78.811944248675644
0
ARC
5
184
100
AcDbEntity
8
0
100
AcDbCircle
10
-0.14409794335410031
20
-2.8270566006134175
30
0
40
0.019685039370079045
210
0
220
0
230
1
100
AcDbArc
50
127.87921967452306
51
258.81194424868158
0
LWPOLYLINE
5
185
100
AcDbEntity
8
0
100
AcDbPolyline
90
8
70
1
43
0.0
10
0.19315944881889763
20
-2.8809055118110232
10
0.19315944881889771
20
-2.3690944881889764
42
-0.41421356237309503
10
0.21284448818897633
20
-2.3494094488188977
10
0.72465551181102361
20
-2.3494094488188977
42
-0.41421356237309503
10
0.74434055118110243
20
-2.3690944881889764
10
0.74434055118110232
20
-2.8809055118110232
42
-0.41421356237309503
10
0.72465551181102361
20
-2.9005905511811019
10
0.21284448818897636
20
-2.9005905511811019
42
-0.41421356237309503
0
ARC
5
186
100
AcDbEntity
8
0
100
AcDbCircle
10
-0.091521259842525363
20
-2.8946448818897634
30
0
40
0.10531496062992067
210
0
220
0
230
1
100
AcDbArc
50
232.12078032547848
51
270
0
LINE
5
187
100
AcDbEntity
8
0
100
AcDbLine
10
-0.059040944881894208
20
-2.789329921259843
30
0
11
-0.091521259842525363
21
-2.7893299212598426
31
0
0
LWPOLYLINE
5
188
100
AcDbEntity
8
0
100
AcDbPolyline
90
8
70
1
43
0.0
10
8.1619094488188964
20
-0.86909448818897628
42
-0.41421356237309503
10
8.1815944881889759
20
-0.84940944881889768
10
8.6934055118110241
20
-0.84940944881889724
42
-0.41421356237309503
10
8.7130905511811019
20
-0.86909448818897628
10
8.7130905511811019
20
-1.3809055118110236
42
-0.41421356237309503
10
8.6934055118110241
20
-1.4005905511811023
10
8.1815944881889759
20
-1.4005905511811012
42
-0.41421356237309503
10
8.1619094488188981
20
-1.3809055118110236
0
ARC
5
189
100
AcDbEntity
8
0
100
AcDbCircle
10
-0.091521259842525363
20
-2.8946448818897634
30
0
40
0.10531496062992093
210
0
220
-0
230
1
100
AcDbArc
50
90
51
127.87921967452139
0
LWPOLYLINE
5
190
100
AcDbEntity
8
0
100
AcDbPolyline
90
8
70
1
43
0.0
10
0.11909448818897636
20
-2.1505905511811023
42
-0.41421356237309503
10
0.099409448818897628
20
-2.1309055118110236
10
0.099409448818897697
20
-1.6190944881889762
42
-0.41421356237309503
10
0.11909448818897636
20
-1.5994094488188975
10
0.63090551181102361
20
-1.5994094488188975
42
-0.41421356237309503
10
0.65059055118110232
20
-1.6190944881889762
10
0.65059055118110221
20
-2.1309055118110236
42
-0.41421356237309503
10
0.63090551181102361
20
-2.1505905511811023
0
LWPOLYLINE
5
191
100
AcDbEntity
8
0
100
AcDbPolyline
90
8
70
1
43
0.0
10
8.1619094488188981
20
-0.63090551181102361
10
8.1619094488188964
20
-0.11909448818897636
42
-0.41421356237309503
10
8.1815944881889759
20
-0.099409448818897628
10
8.6934055118110241
20
-0.09940944881889735
42
-0.41421356237309503
10
8.7130905511811019
20
-0.11909448818897636
10
8.7130905511811019
20
-0.63090551181102361
42
-0.41421356237309503
10
8.6934055118110241
20
-0.65059055118110232
10
8.1815944881889759
20
-0.65059055118110121
42
-0.41421356237309503
0
ARC
5
192
100
AcDbEntity
8
0
100
AcDbCircle
10
9.6540496062992087
20
-0.10527480314960524
30
0
40
0.10531496062992178
210
0
220
-0
230
1
100
AcDbArc
50
52.120780325479146
51
90
0
LINE
5
193
100
AcDbEntity
8
0
100
AcDbLine
10
9.6215692913385755
20
-0.21058976377952582
30
0
11
9.6540496062992087
21
-0.21058976377952582
31
0
0
ARC
5
194
100
AcDbEntity
8
0
100
AcDbCircle
10
9.6540496062992087
20
-2.8946448818897625
30
0
40
0.10531496062992064
210
0
220
-0
230
1
100
AcDbArc
50
52.120780325478989
51
90
0
LWPOLYLINE
5
195
100
AcDbEntity
8
0
100
AcDbPolyline
90
8
70
1
43
0.0
10
8.7130905511811019
20
-2.1309055118110236
42
-0.41421356237309503
10
8.6934055118110241
20
-2.1505905511811023
10
8.1815944881889759
20
-2.1505905511811014
42
-0.41421356237309503
10
8.1619094488188981
20
-2.1309055118110236
10
8.1619094488188964
20
-1.6190944881889762
42
-0.41421356237309503
10
8.1815944881889759
20
-1.5994094488188975
10
8.6934055118110241
20
-1.5994094488188972
42
-0.41421356237309503
10
8.7130905511811019
20
-1.6190944881889762
0
ARC
5
196
100
AcDbEntity
8
0
100
AcDbCircle
10
-0.14409794335410031
20
-2.962233163166109
30
0
40
0.0196850393700785
210
0
220
0
230
1
100
AcDbArc
50
101.18805575132716
51
232.12078032547691
0
ARC
5
197
100
AcDbEntity
8
0
100
AcDbCircle
10
9.6540496062992087
20
-0.10527480314960524
30
0
40
0.10531496062992057
210
-0
220
0
230
1
100
AcDbArc
50
270
51
307.87921967452206
0
ARC
5
198
100
AcDbEntity
8
0
100
AcDbCircle
10
9.7066262898107833
20
-2.9622331631661076
30
0
40
0.019685039370077911
210
-0
220
0
230
1
100
AcDbArc
50
-52.120780325477448
51
78.811944248675147
0
LINE
5
199
100
AcDbEntity
8
0
100
AcDbLine
10
9.6540496062992087
20
-2.7893299212598404
30
0
11
9.6215692913385791
21
-2.7893299212598417
31
0
0
ARC
5
200
100
AcDbEntity
8
0
100
AcDbCircle
10
9.6215692913385791
20
-0.26964488188976427
30
0
40
0.059055118110238454
210
0
220
0
230
1
100
AcDbArc
50
90.000000000003439
51
180
0
ARC
5
201
100
AcDbEntity
8
0
100
AcDbCircle
10
-0.1574661417322879
20
-2.8946448818897634
30
0
40
0.049212598425197054
210
-0
220
0
230
1
100
AcDbArc
50
-78.811944248679822
51
78.811944248676411
0
LWPOLYLINE
5
202
100
AcDbEntity
8
0
100
AcDbPolyline
90
8
70
1
43
0.0
10
8.9315944881889759
20
-1.5994094488188975
10
9.4434055118110241
20
-1.5994094488188972
42
-0.41421356237309503
10
9.4630905511811019
20
-1.6190944881889762
10
9.4630905511811019
20
-2.1309055118110236
42
-0.41421356237309503
10
9.4434055118110241
20
-2.1505905511811023
10
8.9315944881889759
20
-2.1505905511811014
42
-0.41421356237309503
10
8.9119094488188981
20
-2.1309055118110236
10
8.9119094488188964
20
-1.6190944881889762
42
-0.41421356237309503
0
LWPOLYLINE
5
203
100
AcDbEntity
8
0
100
AcDbPolyline
90
8
70
1
43
0.0
10
9.4630905511811019
20
-1.3809055118110236
42
-0.41421356237309503
10
9.4434055118110241
20
-1.4005905511811023
10
8.9315944881889759
20
-1.4005905511811025
42
-0.41421356237309503
10
8.9119094488188964
20
-1.3809055118110236
10
8.9119094488188964
20
-0.86909448818897628
42
-0.41421356237309503
10
8.9315944881889759
20
-0.84940944881889768
10
9.4434055118110241
20
-0.84940944881889724
42
-0.41421356237309503
10
9.4630905511811019
20
-0.86909448818897628
0
LWPOLYLINE
5
204
100
AcDbEntity
8
0
100
AcDbPolyline
90
8
70
1
43
0.0
10
7.2130905511811028
20
-0.11909448818897636
10
7.2130905511811028
20
-0.63090551181102361
42
-0.41421356237309503
10
7.1934055118110241
20
-0.65059055118110221
10
6.6815944881889759
20
-0.65059055118110265
42
-0.41421356237309503
10
6.6619094488188972
20
-0.63090551181102361
10
6.6619094488188972
20
-0.11909448818897636
42
-0.41421356237309503
10
6.6815944881889759
20
-0.099409448818897628
10
7.1934055118110241
20
-0.09940944881889735
42
-0.41421356237309503
0
LWPOLYLINE
5
205
100
AcDbEntity
8
0
100
AcDbPolyline
90
8
70
1
43
0.0
10
8.9315944881889759
20
-0.099409448818897628
10
9.4434055118110241
20
-0.09940944881889735
42
-0.41421356237309503
10
9.4630905511811019
20
-0.11909448818897636
10
9.4630905511811019
20
-0.63090551181102361
42
-0.41421356237309503
10
9.4434055118110241
20
-0.65059055118110232
10
8.9315944881889759
20
-0.65059055118110121
42
-0.41421356237309503
10
8.9119094488188981
20
-0.63090551181102361
10
8.9119094488188964
20
-0.11909448818897636
42
-0.41421356237309503
0
LWPOLYLINE
5
206
100
AcDbEntity
8
0
100
AcDbPolyline
90
8
70
1
43
0.0
10
7.4119094488188964
20
-1.6190944881889762
42
-0.41421356237309503
10
7.4315944881889751
20
-1.5994094488188975
10
7.9434055118110232
20
-1.5994094488188972
42
-0.41421356237309503
10
7.9630905511811019
20
-1.6190944881889762
10
7.9630905511811019
20
-2.1309055118110236
42
-0.41421356237309503
10
7.9434055118110232
20
-2.1505905511811023
10
7.4315944881889751
20
-2.1505905511811028
42
-0.41421356237309503
10
7.4119094488188964
20
-2.1309055118110236
0
ARC
5
207
100
AcDbEntity
8
0
100
AcDbCircle
10
3.9606102362204725
20
-2.329724409448819
30
0
40
0.019685039370079017
210
0
220
0
230
1
100
AcDbArc
50
0
51
90
0
ARC
5
208
100
AcDbEntity
8
0
100
AcDbCircle
10
-0.091521259827002516
20
-0.10527480314956329
30
0
40
0.10531496062987862
210
0
220
0
230
1
100
AcDbArc
50
90.000000033754446
51
127.87921976709694
0
ARC
5
209
100
AcDbEntity
8
0
100
AcDbCircle
10
3.6815944881889764
20
-2.8809055118110232
30
0
40
0.019685039370079017
210
0
220
0
230
1
100
AcDbArc
50
180
51
270
0
LINE
5
210
100
AcDbEntity
8
0
100
AcDbLine
10
3.9802952755905512
20
-2.3494094488188977
30
0
11
3.9802952755905512
21
-2.329724409448819
31
0
0
LINE
5
211
100
AcDbEntity
8
0
100
AcDbLine
10
3.6815944881889764
20
-2.9005905511811019
30
0
11
3.7243897637795276
21
-2.9005905511811019
31
0
0
LWPOLYLINE
5
212
100
AcDbEntity
8
0
100
AcDbPolyline
90
8
70
1
43
0.0
10
6.4630905511811028
20
-0.63090551181102361
42
-0.41421356237309503
10
6.4434055118110232
20
-0.65059055118110232
10
5.9315944881889759
20
-0.65059055118110265
42
-0.41421356237309503
10
5.9119094488188972
20
-0.63090551181102361
10
5.9119094488188972
20
-0.11909448818897636
42
-0.41421356237309503
10
5.9315944881889759
20
-0.099409448818897628
10
6.4434055118110232
20
-0.09940944881889735
42
-0.41421356237309503
10
6.4630905511811028
20
-0.11909448818897636
0
ARC
5
213
100
AcDbEntity
8
0
100
AcDbCircle
10
-0.091521259827002516
20
-0.10527480314956329
30
0
40
0.10531496069196473
210
0
220
0
230
1
100
AcDbArc
50
232.12078034071465
51
270
0
LINE
5
214
100
AcDbEntity
8
0
100
AcDbLine
10
3.7243897637795276
20
-2.9005905511811019
30
0
11
3.9606102362204725
21
-2.9005905511811019
31
0
0
LWPOLYLINE
5
215
100
AcDbEntity
8
0
100
AcDbPolyline
90
8
70
1
43
0.0
10
5.9315944881889759
20
-1.4005905511811025
42
-0.41421356237309503
10
5.9119094488188972
20
-1.3809055118110236
10
5.9119094488188972
20
-0.86909448818897628
42
-0.41421356237309503
10
5.9315944881889759
20
-0.84940944881889768
10
6.4434055118110232
20
-0.84940944881889724
42
-0.41421356237309503
10
6.4630905511811028
20
-0.86909448818897628
10
6.4630905511811028
20
-1.3809055118110236
42
-0.41421356237309503
10
6.4434055118110232
20
-1.4005905511811025
0
LWPOLYLINE
5
216
100
AcDbEntity
8
0
100
AcDbPolyline
90
8
70
1
43
0.0
10
4.9003444881889759
20
-0.099409448818897628
10
5.4121555118110232
20
-0.09940944881889735
42
-0.41421356237309503
10
5.4318405511811028
20
-0.11909448818897636
10
5.4318405511811028
20
-0.63090551181102361
42
-0.41421356237309503
10
5.4121555118110232
20
-0.65059055118110232
10
4.9003444881889759
20
-0.65059055118110187
42
-0.41421356237309503
10
4.8806594488188981
20
-0.63090551181102361
10
4.8806594488188972
20
-0.11909448818897636
42
-0.41421356237309503
0
LWPOLYLINE
5
217
100
AcDbEntity
8
0
100
AcDbPolyline
90
8
70
1
43
0.0
10
4.8806594488188981
20
-0.86909448818897628
42
-0.41421356237309503
10
4.9003444881889759
20
-0.84940944881889768
10
5.4121555118110232
20
-0.84940944881889724
42
-0.41421356237309503
10
5.4318405511811028
20
-0.86909448818897628
10
5.4318405511811019
20
-1.3809055118110236
42
-0.41421356237309503
10
5.4121555118110232
20
-1.4005905511811023
10
4.9003444881889759
20
-1.4005905511811025
42
-0.41421356237309503
10
4.8806594488188972
20
-1.3809055118110236
0
LINE
5
218
100
AcDbEntity
8
0
100
AcDbLine
10
3.9606102362204725
20
-2.3100393700787403
30
0
11
3.7243897637795276
21
-2.3100393700787403
31
0
0
LINE
5
219
100
AcDbEntity
8
0
100
AcDbLine
10
5.3193897637795278
20
-2.3100393700787398
30
0
11
5.3181397637795271
21
-2.3100393700787403
31
0
0
LINE
5
220
100
AcDbEntity
8
0
100
AcDbLine
10
4.9202952755905507
20
-2.3494094488188977
30
0
11
4.9202952755905507
21
-2.329724409448819
31
0
0
LINE
5
221
100
AcDbEntity
8
0
100
AcDbLine
10
5.2984547244094484
20
-2.3494094488188977
30
0
11
4.9202952755905507
21
-2.3494094488188977
31
0
0
LINE
5
222
100
AcDbEntity
8
0
100
AcDbLine
10
9.5625141732283403
20
-2.7302748031496042
30
0
11
9.5625141732283439
21
-0.26964488188976288
31
0
0
LINE
5
223
100
AcDbEntity
8
0
100
AcDbLine
10
1.4173228341444267e-05
20
-0.26964488188976288
30
0
11
1.4173228341444267e-05
21
-2.7302748031496069
31
0
0
LINE
5
224
100
AcDbEntity
8
0
100
AcDbLine
10
4.8056102362204722
20
-2.3100393700787398
30
0
11
4.6643897637795275
21
-2.3100393700787398
31
0
0
LINE
5
225
100
AcDbEntity
8
0
100
AcDbLine
10
5.5543602362204716
20
-2.3100393700787398
30
0
11
5.3193897637795278
21
-2.3100393700787398
31
0
0
LINE
5
226
100
AcDbEntity
8
0
100
AcDbLine
10
4.900610236220472
20
-2.3100393700787398
30
0
11
4.8056102362204722
21
-2.3100393700787398
31
0
0
LINE
5
227
100
AcDbEntity
8
0
100
AcDbLine
10
5.2984547244094484
20
-2.329724409448819
30
0
11
5.2984547244094484
21
-2.3494094488188977
31
0
0
LINE
5
228
100
AcDbEntity
8
0
100
AcDbLine
10
4.5497047244094482
20
-2.329724409448819
30
0
11
4.5497047244094482
21
-2.3494094488188977
31
0
0
LINE
5
229
100
AcDbEntity
8
0
100
AcDbLine
10
5.3184055118110232
20
-2.9005905511811019
30
0
11
5.3193897637795278
21
-2.9005905511811019
31
0
0
ARC
5
230
100
AcDbEntity
8
0
100
AcDbCircle
10
4.5693897637795278
20
-2.329724409448819
30
0
40
0.019685039370079017
210
0
220
-0
230
1
100
AcDbArc
50
90
51
180
0
LINE
5
231
100
AcDbEntity
8
0
100
AcDbLine
10
5.4121555118110232
20
-2.9005905511811019
30
0
11
5.5543602362204716
21
-2.9005905511811019
31
0
0
LINE
5
232
100
AcDbEntity
8
0
100
AcDbLine
10
3.7047047244094484
20
-2.3494094488188977
30
0
11
3.6815944881889764
21
-2.3494094488188977
31
0
0
ARC
5
233
100
AcDbEntity
8
0
100
AcDbCircle
10
3.6815944881889764
20
-2.3690944881889764
30
0
40
0.019685039370078667
210
0
220
-0
230
1
100
AcDbArc
50
90
51
180
0
LINE
5
234
100
AcDbEntity
8
0
100
AcDbLine
10
4.0565944881889759
20
-2.3494094488188977
30
0
11
3.9802952755905512
21
-2.3494094488188977
31
0
0
LINE
5
235
100
AcDbEntity
8
0
100
AcDbLine
10
3.9606102362204725
20
-2.9005905511811019
30
0
11
4.0565944881889759
21
-2.9005905511811019
31
0
0
LINE
5
236
100
AcDbEntity
8
0
100
AcDbLine
10
4.0565944881889759
20
-2.9005905511811019
30
0
11
4.1934055118110241
21
-2.9005905511811019
31
0
0
ENDSEC
0
SECTION
2
OBJECTS
0
DICTIONARY
5
C
100
AcDbDictionary
3
ACAD_GROUP
350
D
3
ACAD_MLINESTYLE
350
17
0
DICTIONARY
5
D
100
AcDbDictionary
0
DICTIONARY
5
1A
330
C
100
AcDbDictionary
0
DICTIONARY
5
17
100
AcDbDictionary
0
ENDSEC
0
EOF
