0
SECTION
2
HEADER
9
$INSUNITS
70
4
9
$ACADVER
1
AC1014
9
$HANDSEED
5
FFFF
0
ENDSEC
0
SECTION
2
TABLES
0
TABLE
2
VPORT
5
8
100
AcDbSymbolTable
0
ENDTAB
0
TABLE
2
LTYPE
5
5
100
AcDbSymbolTable
0
LTYPE
5
14
100
AcDbSymbolTableRecord
100
AcDbLinetypeTableRecord
2
BYBLOCK
70
0
0
LTYPE
5
15
100
AcDbSymbolTableRecord
100
AcDbLinetypeTableRecord
2
BYLAYER
70
0
0
ENDTAB
0
TABLE
2
LAYER
5
2
100
AcDbSymbolTable
70
2
0
LAYER
5
50
100
AcDbSymbolTableRecord
100
AcDbLayerTableRecord
2
0
70
0
6
CONTINUOUS
0
ENDTAB
0
TABLE
2
STYLE
5
3
100
AcDbSymbolTable
70
1
0
STYLE
5
11
100
AcDbSymbolTableRecord
100
AcDbTextStyleTableRecord
2
STANDARD
70
0
0
ENDTAB
0
TABLE
2
VIEW
5
6
100
AcDbSymbolTable
70
0
0
ENDTAB
0
TABLE
2
UCS
5
7
100
AcDbSymbolTable
70
0
0
ENDTAB
0
TABLE
2
APPID
5
9
100
AcDbSymbolTable
70
2
0
APPID
5
12
100
AcDbSymbolTableRecord
100
AcDbRegAppTableRecord
2
ACAD
70
0
0
ENDTAB
0
TABLE
2
DIMSTYLE
5
A
100
AcDbSymbolTable
70
1
0
ENDTAB
0
TABLE
2
BLOCK_RECORD
5
1
100
AcDbSymbolTable
70
1
0
BLOCK_RECORD
5
1F
100
AcDbSymbolTableRecord
100
AcDbBlockTableRecord
2
*MODEL_SPACE
0
BLOCK_RECORD
5
1B
100
AcDbSymbolTableRecord
100
AcDbBlockTableRecord
2
*PAPER_SPACE
0
ENDTAB
0
ENDSEC
0
SECTION
2
BLOCKS
0
BLOCK
5
20
100
AcDbEntity
100
AcDbBlockBegin
2
*MODEL_SPACE
0
ENDBLK
5
21
100
AcDbEntity
100
AcDbBlockEnd
0
BLOCK
5
1C
100
AcDbEntity
100
AcDbBlockBegin
2
*PAPER_SPACE
0
ENDBLK
5
1D
100
AcDbEntity
100
AcDbBlockEnd
0
ENDSEC
0
SECTION
2
ENTITIES
0
LWPOLYLINE
5
100
100
AcDbEntity
8
0
100
AcDbPolyline
90
21
70
1
43
0.0
10
-29.691052800507336
20
19.4808221994927
10
-29.691052800507336
20
0.50000000000002709
10
-36.572371939465462
20
0.49999999999997324
42
0.19572211632998049
10
-39.138875905900619
20
-0.54466116436473766
42
-2.9736700191457137e-05
10
-39.13896148900541
20
-0.54435470782649986
10
-43.311117420860576
20
-4.7165106396740661
42
-0.19891236737964416
10
-45.202628060534558
20
-5.5000000000000382
10
-52.572371939465441
20
-5.5000000000000524
42
-0.19891236737966342
10
-54.463882579139486
20
-4.7165106396740608
10
-58.60401063967398
20
-0.57638257913952029
42
-0.19891236737964416
10
-59.387499999999989
20
1.315128060534505
10
-59.387499999999982
20
75.88487193946537
42
-0.19891236737964679
10
-58.604010639674051
20
77.776382579139366
10
-54.463882579139415
20
81.916510639673987
42
-0.19891236737966284
10
-52.572371939465441
20
82.699999999999974
10
-45.202628060534558
20
82.699999999999946
42
-0.19891236737965673
10
-43.311117420860548
20
81.916510639673973
10
-40.406677800507325
20
79.012071019320729
10
-40.406677800507325
20
38.530822199492704
10
-33.262927800507356
20
38.530822199492704
10
-33.262927800507356
20
19.4808221994927
0
LWPOLYLINE
5
101
100
AcDbEntity
8
0
100
AcDbPolyline
90
8
70
1
43
0.0
10
-49.787927800507354
20
16.455822199492697
10
-49.787927800507354
20
3.4558221994926974
42
0.41421356237309503
10
-49.287927800507347
20
2.9558221994926903
10
-36.28792780050734
20
2.9558221994926974
42
0.41421356237309503
10
-35.787927800507333
20
3.4558221994926974
10
-35.787927800507333
20
16.455822199492697
42
0.41421356237309503
10
-36.28792780050734
20
16.955822199492705
10
-49.287927800507347
20
16.955822199492697
42
0.41421356237309503
0
LWPOLYLINE
5
102
100
AcDbEntity
8
0
100
AcDbPolyline
90
8
70
1
43
0.0
10
-52.169177800507356
20
35.505822199492698
42
-0.41421356237309503
10
-51.669177800507349
20
36.005822199492698
10
-38.669177800507342
20
36.005822199492705
42
-0.41421356237309503
10
-38.169177800507335
20
35.505822199492698
10
-38.169177800507342
20
22.505822199492698
42
-0.41421356237309503
10
-38.669177800507342
20
22.005822199492702
10
-51.669177800507349
20
22.005822199492691
42
-0.41421356237309503
10
-52.169177800507356
20
22.505822199492698
0
LWPOLYLINE
5
103
100
AcDbEntity
8
0
100
AcDbPolyline
90
8
70
1
43
0.0
10
-56.431677800507352
20
41.055822199492688
42
-0.41421356237309503
10
-56.931677800507359
20
41.555822199492695
10
-56.931677800507352
20
54.555822199492702
42
-0.41421356237309503
10
-56.431677800507352
20
55.055822199492695
10
-43.431677800507345
20
55.05582219949271
42
-0.41421356237309503
10
-42.931677800507337
20
54.555822199492702
10
-42.931677800507345
20
41.555822199492695
42
-0.41421356237309503
10
-43.431677800507345
20
41.055822199492695
0
LWPOLYLINE
5
104
100
AcDbEntity
8
0
100
AcDbPolyline
90
8
70
1
43
0.0
10
-56.431677800507352
20
60.105822199492692
10
-43.431677800507345
20
60.1058221994927
42
0.41421356237309503
10
-42.931677800507337
20
60.605822199492692
10
-42.931677800507337
20
73.605822199492692
42
0.41421356237309503
10
-43.431677800507345
20
74.105822199492707
10
-56.431677800507352
20
74.105822199492692
42
0.41421356237309503
10
-56.931677800507359
20
73.605822199492692
10
-56.931677800507359
20
60.605822199492692
42
0.41421356237309503
0
CIRCLE
5
105
100
AcDbEntity
8
0
100
AcDbCircle
10
-48.887628060534531
20
79.949999999999989
30
0
40
1.25
210
0
220
0
230
1
0
CIRCLE
5
106
100
AcDbEntity
8
0
100
AcDbCircle
10
-48.887371939465432
20
-2.7500000000000298
30
0
40
1.25
210
0
220
0
230
1
0
ENDSEC
0
SECTION
2
OBJECTS
0
DICTIONARY
5
C
100
AcDbDictionary
3
ACAD_GROUP
350
D
3
ACAD_MLINESTYLE
350
17
0
DICTIONARY
5
D
100
AcDbDictionary
0
DICTIONARY
5
1A
330
C
100
AcDbDictionary
0
DICTIONARY
5
17
100
AcDbDictionary
0
ENDSEC
0
EOF
