  0
SECTION
  2
HEADER
  9
$ACADVER
  1
AC1009
  9
$INSBASE
 10
0.0
 20
0.0
 30
0.0
  9
$EXTMIN
 10
0.0
 20
0.0
 30
0.0
  9
$EXTMAX
 10
0.0
 20
0.0
 30
0.0
  0
ENDSEC
  0
SECTION
  2
TABLES
  0
TABLE
  2
VPORT
 70
0
  0
ENDTAB
  0
TABLE
  2
LTYPE
 70
1
  0
LTYPE
  2
CONTINUOUS
 70
0
  3
Solid line
 72
65
 73
0
 40
0.0
  0
ENDTAB
  0
TABLE
  2
LAYER
 70
1
  0
LAYER
  2
0
 70
64
 62
7
  6
continuous
  0
ENDTAB
  0
TABLE
  2
STYLE
 70
1
  0
STYLE
  2
STANDARD
 70
0
 40
0
 41
1.0
 50
0.0
 71
0
 42
1
 3
ARIAL.TTF
 4

  0
ENDTAB
  0
TABLE
  2
VIEW
 70
0
  0
ENDTAB
  0
ENDSEC
  0
SECTION
  2
BLOCKS
  0
ENDSEC
  0
SECTION
  2
ENTITIES
  0
LINE
  8
0
 62
0
 10
-83.98750000000001
 20
31.57500000000003
 30
0.0
 11
-83.6875
 21
31.57500000000003
 31
0.0
  0
ARC
  8
0
 62
0
 10
-193.5375
 20
35.57500000000004
 30
0.0
 40
0.4999999999999929
 50
89.99999999999675
 51
-180.0
  0
ARC
  8
0
 62
0
 10
-36.37625
 20
73.67500000000003
 30
0.0
 40
0.5
 50
90.0
 51
-180.0
  0
ARC
  8
0
 62
0
 10
-40.82500000000001
 20
73.67500000000003
 30
0.0
 40
0.5000000000000067
 50
-0.0
 51
89.99999999999919
  0
ARC
  8
0
 62
0
 10
-2.724999999999999
 20
70.17500000000003
 30
0.0
 40
0.5
 50
-90.0
 51
-0.0
  0
ARC
  8
0
 62
0
 10
-2.725000000000006
 20
73.67500000000003
 30
0.0
 40
0.5000000000000067
 50
-0.0
 51
89.99999999999955
  0
LINE
  8
0
 62
0
 10
-3.024999999999999
 20
69.67500000000003
 30
0.0
 11
-2.724999999999999
 21
69.67500000000003
 31
0.0
  0
LINE
  8
0
 62
0
 10
-2.224999999999997
 20
70.17500000000003
 30
0.0
 11
-2.224999999999999
 21
73.67500000000003
 31
0.0
  0
ARC
  8
0
 62
0
 10
-40.825
 20
60.675000000000026
 30
0.0
 40
0.5
 50
-90.0
 51
-0.0
  0
ARC
  8
0
 62
0
 10
-3.1749999999999874
 20
75.88487193946546
 30
0.0
 40
2.6749999999999874
 50
-0.0
 51
45.00000000000012
  0
LINE
  8
0
 62
0
 10
-153.9875
 20
60.405000000000015
 30
0.0
 11
-152.76250000000002
 21
60.405000000000015
 31
0.0
  0
LINE
  8
0
 62
0
 10
-0.4999999999999971
 20
75.88487193946546
 30
0.0
 11
-0.49999999999999906
 21
1.3151280605345756
 31
0.0
  0
LINE
  8
0
 62
0
 10
-136.375
 20
12.525000000000029
 30
0.0
 11
-136.075
 21
12.525000000000029
 31
0.0
  0
ARC
  8
0
 62
0
 10
-203.06249999999994
 20
73.67499999999997
 30
0.0
 40
0.500000000000064
 50
90.00000000000651
 51
180.0
  0
ARC
  8
0
 62
0
 10
-136.07500000000002
 20
13.025000000000041
 30
0.0
 40
0.5000000000000124
 50
-89.99999999999675
 51
-0.0
  0
LINE
  8
0
 62
0
 10
-160.1875
 20
26.57500000000003
 30
0.0
 11
-160.1875
 21
31.57500000000003
 31
0.0
  0
ARC
  8
0
 62
0
 10
-93.2125
 20
51.125000000000036
 30
0.0
 40
0.5
 50
-89.99999999999837
 51
-0.0
  0
LINE
  8
0
 62
0
 10
-168.9125
 20
51.125000000000036
 30
0.0
 11
-168.9125
 21
54.62500000000003
 31
0.0
  0
ARC
  8
0
 62
0
 10
-159.8875
 20
22.57500000000002
 30
0.0
 40
0.49999999999998934
 50
-90.0
 51
0.0
  0
LINE
  8
0
 62
0
 10
-241.66250000000002
 20
64.17500000000003
 30
0.0
 11
-241.66250000000002
 21
60.675000000000026
 31
0.0
  0
ARC
  8
0
 62
0
 10
-78.92500000000001
 20
13.02500000000003
 30
0.0
 40
0.5000000000000018
 50
-90.0
 51
-0.0
  0
LINE
  8
0
 62
0
 10
-112.275
 20
7.525000000000029
 30
0.0
 11
-112.575
 21
7.525000000000029
 31
0.0
  0
LINE
  8
0
 62
0
 10
-17.826249999999998
 20
73.67500000000003
 30
0.0
 11
-17.826249999999998
 21
70.17500000000003
 31
0.0
  0
LINE
  8
0
 62
0
 10
-155.13750000000002
 20
26.57500000000003
 30
0.0
 11
-155.4375
 21
26.57500000000003
 31
0.0
  0
ARC
  8
0
 62
0
 10
-174.17499999999998
 20
7.025000000000063
 30
0.0
 40
0.4999999999999716
 50
-0.0
 51
90.00000000000325
  0
ARC
  8
0
 62
0
 10
-112.57500000000002
 20
7.025000000000021
 30
0.0
 40
0.500000000000008
 50
89.99999999999837
 51
180.0
  0
ARC
  8
0
 62
0
 10
-174.48750000000004
 20
32.075
 30
0.0
 40
0.4999999999999716
 50
180.0
 51
-89.99999999999675
  0
LINE
  8
0
 62
0
 10
-55.92500000000001
 20
7.025000000000028
 30
0.0
 11
-55.92500000000001
 21
3.5250000000000266
 31
0.0
  0
ARC
  8
0
 62
0
 10
-17.32625
 20
73.67500000000003
 30
0.0
 40
0.5
 50
89.99999999999959
 51
-180.0
  0
LINE
  8
0
 62
0
 10
-17.02625
 20
64.67500000000003
 30
0.0
 11
-17.326249999999998
 21
64.67500000000003
 31
0.0
  0
LINE
  8
0
 62
0
 10
-17.02625
 20
69.67500000000003
 30
0.0
 11
-17.02625
 21
64.67500000000003
 31
0.0
  0
ARC
  8
0
 62
0
 10
-17.32625
 20
60.67500000000002
 30
0.0
 40
0.49999999999999645
 50
180.0
 51
-90.0
  0
ARC
  8
0
 62
0
 10
-17.32624999999999
 20
70.17500000000004
 30
0.0
 40
0.5000000000000071
 50
-180.0
 51
-90.00000000000081
  0
LINE
  8
0
 62
0
 10
-17.826250000000005
 20
64.17500000000003
 30
0.0
 11
-17.826249999999998
 21
60.675000000000026
 31
0.0
  0
ARC
  8
0
 62
0
 10
-17.326250000000016
 20
64.17500000000004
 30
0.0
 40
0.4999999999999858
 50
89.99999999999797
 51
-180.0
  0
ARC
  8
0
 62
0
 10
-126.86249999999998
 20
51.12500000000006
 30
0.0
 40
0.5000000000000142
 50
-180.0
 51
-90.00000000000163
  0
LINE
  8
0
 62
0
 10
-198.2875
 20
26.57500000000003
 30
0.0
 11
-198.2875
 21
31.57500000000003
 31
0.0
  0
LINE
  8
0
 62
0
 10
-121.7875
 20
26.575000000000042
 30
0.0
 11
-122.0875
 21
26.57500000000003
 31
0.0
  0
LINE
  8
0
 62
0
 10
-126.8625
 20
50.625000000000036
 30
0.0
 11
-126.5625
 21
50.625000000000036
 31
0.0
  0
LINE
  8
0
 62
0
 10
-188.7625
 20
45.625000000000036
 30
0.0
 11
-188.7625
 21
50.625000000000036
 31
0.0
  0
LINE
  8
0
 62
0
 10
-202.76250000000002
 20
50.625000000000036
 30
0.0
 11
-202.76250000000002
 21
45.625000000000036
 31
0.0
  0
LINE
  8
0
 62
0
 10
-202.76250000000002
 20
45.625000000000036
 30
0.0
 11
-203.0625
 21
45.625000000000036
 31
0.0
  0
ARC
  8
0
 62
0
 10
-203.06250000000003
 20
45.12500000000006
 30
0.0
 40
0.4999999999999787
 50
89.99999999999675
 51
-180.0
  0
ARC
  8
0
 62
0
 10
-212.5875
 20
35.57500000000004
 30
0.0
 40
0.4999999999999929
 50
89.99999999999675
 51
-180.0
  0
LINE
  8
0
 62
0
 10
-60.1875
 20
22.07500000000003
 30
0.0
 11
-45.5875
 21
22.07500000000003
 31
0.0
  0
ARC
  8
0
 62
0
 10
-197.98750000000004
 20
22.575000000000045
 30
0.0
 40
0.5000000000000142
 50
-89.99999999999675
 51
-0.0
  0
LINE
  8
0
 62
0
 10
-213.0875
 20
26.075000000000035
 30
0.0
 11
-213.0875
 21
22.57500000000003
 31
0.0
  0
LINE
  8
0
 62
0
 10
-45.8875
 20
31.57500000000003
 30
0.0
 11
-45.5875
 21
31.57500000000003
 31
0.0
  0
LINE
  8
0
 62
0
 10
-136.0875
 20
26.57500000000003
 30
0.0
 11
-136.3875
 21
26.57500000000003
 31
0.0
  0
LINE
  8
0
 62
0
 10
-187.9625
 20
41.62500000000003
 30
0.0
 11
-187.9625
 21
45.12500000000003
 31
0.0
  0
LINE
  8
0
 62
0
 10
-203.5625
 20
45.12500000000003
 30
0.0
 11
-203.5625
 21
41.62500000000003
 31
0.0
  0
ARC
  8
0
 62
0
 10
-188.46250000000003
 20
51.12500000000006
 30
0.0
 40
0.5000000000000213
 50
-89.99999999999675
 51
-0.0
  0
LINE
  8
0
 62
0
 10
-188.4625
 20
55.125000000000036
 30
0.0
 11
-203.0625
 21
55.12500000000003
 31
0.0
  0
LINE
  8
0
 62
0
 10
-188.4625
 20
45.625000000000036
 30
0.0
 11
-188.7625
 21
45.625000000000036
 31
0.0
  0
ARC
  8
0
 62
0
 10
-126.86249999999998
 20
45.125000000000014
 30
0.0
 40
0.5000000000000213
 50
90.00000000000163
 51
180.0
  0
LINE
  8
0
 62
0
 10
-203.5625
 20
54.62500000000003
 30
0.0
 11
-203.5625
 21
51.125000000000036
 31
0.0
  0
LINE
  8
0
 62
0
 10
-212.58750000000003
 20
22.07500000000003
 30
0.0
 11
-197.9875
 21
22.07500000000003
 31
0.0
  0
LINE
  8
0
 62
0
 10
-212.58749999999998
 20
31.57500000000003
 30
0.0
 11
-212.28750000000002
 21
31.57500000000003
 31
0.0
  0
LINE
  8
0
 62
0
 10
-136.3875
 20
22.07500000000003
 30
0.0
 11
-121.7875
 21
22.07500000000003
 31
0.0
  0
LINE
  8
0
 62
0
 10
-122.0875
 20
31.57500000000003
 30
0.0
 11
-121.7875
 21
31.57500000000003
 31
0.0
  0
ARC
  8
0
 62
0
 10
-60.1875
 20
22.57500000000003
 30
0.0
 40
0.5
 50
-180.0
 51
-90.0
  0
LINE
  8
0
 62
0
 10
-197.4875
 20
22.575000000000035
 30
0.0
 11
-197.4875
 21
26.075000000000035
 31
0.0
  0
LINE
  8
0
 62
0
 10
-197.4875
 20
32.07500000000003
 30
0.0
 11
-197.4875
 21
35.57500000000003
 31
0.0
  0
LINE
  8
0
 62
0
 10
-197.9875
 20
36.07500000000003
 30
0.0
 11
-212.58749999999998
 21
36.07500000000003
 31
0.0
  0
ARC
  8
0
 62
0
 10
-188.46250000000003
 20
41.62500000000005
 30
0.0
 40
0.5000000000000142
 50
-89.99999999999675
 51
-0.0
  0
LINE
  8
0
 62
0
 10
-212.28750000000002
 20
26.57500000000003
 30
0.0
 11
-212.58749999999998
 21
26.57500000000003
 31
0.0
  0
LINE
  8
0
 62
0
 10
-188.7625
 20
50.625000000000036
 30
0.0
 11
-188.4625
 21
50.625000000000036
 31
0.0
  0
ARC
  8
0
 62
0
 10
-197.98749999999998
 20
35.57500000000007
 30
0.0
 40
0.4999999999999716
 50
-0.0
 51
90.00000000000325
  0
ARC
  8
0
 62
0
 10
-112.2625
 20
51.12500000000005
 30
0.0
 40
0.5000000000000142
 50
-89.99999999999837
 51
-0.0
  0
LINE
  8
0
 62
0
 10
-126.5625
 20
45.625000000000036
 30
0.0
 11
-126.8625
 21
45.625000000000036
 31
0.0
  0
LINE
  8
0
 62
0
 10
-112.2625
 20
55.125000000000036
 30
0.0
 11
-126.8625
 21
55.12500000000003
 31
0.0
  0
ARC
  8
0
 62
0
 10
-203.06249999999997
 20
41.625000000000036
 30
0.0
 40
0.5000000000000284
 50
-180.0
 51
-90.00000000000651
  0
ARC
  8
0
 62
0
 10
-203.06249999999994
 20
54.624999999999964
 30
0.0
 40
0.500000000000064
 50
90.00000000000651
 51
180.0
  0
ARC
  8
0
 62
0
 10
-197.98749999999998
 20
26.07500000000007
 30
0.0
 40
0.4999999999999716
 50
-0.0
 51
90.00000000000325
  0
ARC
  8
0
 62
0
 10
-197.98750000000004
 20
32.07500000000005
 30
0.0
 40
0.5000000000000213
 50
-89.99999999999675
 51
-0.0
  0
LINE
  8
0
 62
0
 10
-197.9875
 20
26.575000000000042
 30
0.0
 11
-198.2875
 21
26.57500000000003
 31
0.0
  0
LINE
  8
0
 62
0
 10
-212.28750000000002
 20
31.57500000000003
 30
0.0
 11
-212.28750000000002
 21
26.57500000000003
 31
0.0
  0
ARC
  8
0
 62
0
 10
-188.46249999999998
 20
54.62500000000006
 30
0.0
 40
0.4999999999999716
 50
-0.0
 51
90.00000000000325
  0
LINE
  8
0
 62
0
 10
-127.36249999999998
 20
54.62500000000003
 30
0.0
 11
-127.3625
 21
51.125000000000036
 31
0.0
  0
ARC
  8
0
 62
0
 10
-188.46249999999998
 20
45.125000000000064
 30
0.0
 40
0.4999999999999716
 50
-0.0
 51
90.00000000000325
  0
LINE
  8
0
 62
0
 10
-213.0875
 20
35.57500000000003
 30
0.0
 11
-213.0875
 21
32.07500000000003
 31
0.0
  0
ARC
  8
0
 62
0
 10
-212.58750000000003
 20
22.575000000000017
 30
0.0
 40
0.4999999999999716
 50
180.0
 51
-90.0
  0
LINE
  8
0
 62
0
 10
-187.9625
 20
51.125000000000036
 30
0.0
 11
-187.9625
 21
54.62500000000003
 31
0.0
  0
ARC
  8
0
 62
0
 10
-212.5875
 20
32.075000000000024
 30
0.0
 40
0.5
 50
180.0
 51
-89.99999999999675
  0
ARC
  8
0
 62
0
 10
-212.58749999999992
 20
26.074999999999953
 30
0.0
 40
0.5000000000000782
 50
90.00000000000651
 51
180.0
  0
LINE
  8
0
 62
0
 10
-136.88750000000002
 20
26.075000000000035
 30
0.0
 11
-136.8875
 21
22.57500000000003
 31
0.0
  0
ARC
  8
0
 62
0
 10
-126.86249999999998
 20
54.62500000000004
 30
0.0
 40
0.4999999999999858
 50
90.00000000000163
 51
-180.0
  0
LINE
  8
0
 62
0
 10
-203.0625
 20
50.625000000000036
 30
0.0
 11
-202.76250000000002
 21
50.625000000000036
 31
0.0
  0
ARC
  8
0
 62
0
 10
-121.7875
 20
22.575000000000035
 30
0.0
 40
0.5000000000000036
 50
-90.0
 51
-0.0
  0
LINE
  8
0
 62
0
 10
-122.0875
 20
26.57500000000003
 30
0.0
 11
-122.0875
 21
31.57500000000003
 31
0.0
  0
ARC
  8
0
 62
0
 10
-121.78749999999998
 20
35.57500000000004
 30
0.0
 40
0.4999999999999858
 50
-0.0
 51
90.00000000000325
  0
LINE
  8
0
 62
0
 10
-121.78750000000001
 20
36.07500000000003
 30
0.0
 11
-136.3875
 21
36.07500000000003
 31
0.0
  0
ARC
  8
0
 62
0
 10
-136.38749999999996
 20
32.07500000000007
 30
0.0
 40
0.5000000000000568
 50
-180.0
 51
-90.00000000000325
  0
LINE
  8
0
 62
0
 10
-136.3875
 20
31.57500000000003
 30
0.0
 11
-136.0875
 21
31.57500000000003
 31
0.0
  0
ARC
  8
0
 62
0
 10
-136.38749999999996
 20
26.074999999999996
 30
0.0
 40
0.5000000000000355
 50
90.00000000000325
 51
180.0
  0
LINE
  8
0
 62
0
 10
-60.6875
 20
26.075000000000035
 30
0.0
 11
-60.6875
 21
22.57500000000003
 31
0.0
  0
ARC
  8
0
 62
0
 10
-45.58749999999999
 20
22.575000000000024
 30
0.0
 40
0.4999999999999929
 50
-90.00000000000081
 51
0.0
  0
LINE
  8
0
 62
0
 10
-45.0875
 20
22.575000000000035
 30
0.0
 11
-45.0875
 21
26.075000000000035
 31
0.0
  0
ARC
  8
0
 62
0
 10
-45.58749999999999
 20
26.075000000000035
 30
0.0
 40
0.4999999999999929
 50
-0.0
 51
90.00000000000081
  0
ARC
  8
0
 62
0
 10
-50.662500000000016
 20
41.62500000000002
 30
0.0
 40
0.4999999999999858
 50
180.0
 51
-89.99999999999837
  0
ARC
  8
0
 62
0
 10
-36.0625
 20
51.125000000000036
 30
0.0
 40
0.5
 50
-90.0
 51
-0.0
  0
ARC
  8
0
 62
0
 10
-69.71250000000002
 20
45.12500000000004
 30
0.0
 40
0.4999999999999929
 50
89.99999999999675
 51
-180.0
  0
ARC
  8
0
 62
0
 10
-36.0625
 20
54.62500000000003
 30
0.0
 40
0.5
 50
-0.0
 51
90.0
  0
LINE
  8
0
 62
0
 10
-55.412499999999994
 20
45.625000000000036
 30
0.0
 11
-55.412499999999994
 21
50.625000000000036
 31
0.0
  0
LINE
  8
0
 62
0
 10
-69.71249999999999
 20
50.625000000000036
 30
0.0
 11
-69.4125
 21
50.625000000000036
 31
0.0
  0
LINE
  8
0
 62
0
 10
-36.0625
 20
55.12500000000003
 30
0.0
 11
-50.6625
 21
55.12500000000003
 31
0.0
  0
LINE
  8
0
 62
0
 10
-51.1625
 20
54.62500000000003
 30
0.0
 11
-51.1625
 21
51.125000000000036
 31
0.0
  0
ARC
  8
0
 62
0
 10
-50.6625
 20
51.125000000000036
 30
0.0
 40
0.5
 50
-180.0
 51
-90.0
  0
LINE
  8
0
 62
0
 10
-50.6625
 20
50.625000000000036
 30
0.0
 11
-50.3625
 21
50.625000000000036
 31
0.0
  0
LINE
  8
0
 62
0
 10
-50.3625
 20
45.625000000000036
 30
0.0
 11
-50.6625
 21
45.625000000000036
 31
0.0
  0
ARC
  8
0
 62
0
 10
-69.7125
 20
41.62500000000002
 30
0.0
 40
0.4999999999999858
 50
180.0
 51
-89.99999999999837
  0
LINE
  8
0
 62
0
 10
-55.412499999999994
 20
50.625000000000036
 30
0.0
 11
-55.1125
 21
50.625000000000036
 31
0.0
  0
LINE
  8
0
 62
0
 10
-126.8625
 20
41.125000000000036
 30
0.0
 11
-112.26249999999999
 21
41.125000000000036
 31
0.0
  0
LINE
  8
0
 62
0
 10
-69.4125
 20
50.625000000000036
 30
0.0
 11
-69.4125
 21
45.625000000000036
 31
0.0
  0
LINE
  8
0
 62
0
 10
-70.21249999999999
 20
54.62500000000003
 30
0.0
 11
-70.21249999999999
 21
51.125000000000036
 31
0.0
  0
LINE
  8
0
 62
0
 10
-54.6125
 20
41.62500000000003
 30
0.0
 11
-54.6125
 21
45.12500000000003
 31
0.0
  0
LINE
  8
0
 62
0
 10
-55.1125
 20
55.12500000000003
 30
0.0
 11
-69.71249999999999
 21
55.12500000000003
 31
0.0
  0
ARC
  8
0
 62
0
 10
-55.1125
 20
41.62500000000003
 30
0.0
 40
0.4999999999999929
 50
-90.0
 51
-0.0
  0
LINE
  8
0
 62
0
 10
-50.6625
 20
41.125000000000036
 30
0.0
 11
-36.0625
 21
41.125000000000036
 31
0.0
  0
LINE
  8
0
 62
0
 10
-55.1125
 20
45.62500000000003
 30
0.0
 11
-55.412499999999994
 21
45.625000000000036
 31
0.0
  0
LINE
  8
0
 62
0
 10
-69.4125
 20
45.625000000000036
 30
0.0
 11
-69.71249999999999
 21
45.625000000000036
 31
0.0
  0
LINE
  8
0
 62
0
 10
-36.0625
 20
45.62500000000003
 30
0.0
 11
-36.3625
 21
45.625000000000036
 31
0.0
  0
ARC
  8
0
 62
0
 10
-55.1125
 20
51.125000000000036
 30
0.0
 40
0.5
 50
-90.0
 51
-0.0
  0
LINE
  8
0
 62
0
 10
-36.3625
 20
50.625000000000036
 30
0.0
 11
-36.0625
 21
50.625000000000036
 31
0.0
  0
LINE
  8
0
 62
0
 10
-35.5625
 20
51.125000000000036
 30
0.0
 11
-35.5625
 21
54.62500000000003
 31
0.0
  0
LINE
  8
0
 62
0
 10
-35.5625
 20
41.62500000000003
 30
0.0
 11
-35.5625
 21
45.12500000000003
 31
0.0
  0
LINE
  8
0
 62
0
 10
-50.3625
 20
50.625000000000036
 30
0.0
 11
-50.3625
 21
45.625000000000036
 31
0.0
  0
ARC
  8
0
 62
0
 10
-50.66250000000002
 20
45.12500000000004
 30
0.0
 40
0.4999999999999929
 50
89.99999999999756
 51
-180.0
  0
LINE
  8
0
 62
0
 10
-127.3625
 20
45.12500000000003
 30
0.0
 11
-127.36249999999998
 21
41.62500000000003
 31
0.0
  0
ARC
  8
0
 62
0
 10
-69.71249999999999
 20
54.62500000000003
 30
0.0
 40
0.5
 50
90.0
 51
-180.0
  0
ARC
  8
0
 62
0
 10
-55.1125
 20
54.62500000000003
 30
0.0
 40
0.5
 50
-0.0
 51
90.0
  0
ARC
  8
0
 62
0
 10
-36.0625
 20
45.12500000000003
 30
0.0
 40
0.5
 50
-0.0
 51
90.0
  0
LINE
  8
0
 62
0
 10
-111.76249999999999
 20
41.62500000000003
 30
0.0
 11
-111.76249999999999
 21
45.12500000000003
 31
0.0
  0
ARC
  8
0
 62
0
 10
-112.2625
 20
45.12500000000002
 30
0.0
 40
0.5000000000000142
 50
0.0
 51
89.99999999999837
  0
LINE
  8
0
 62
0
 10
-112.26249999999999
 20
45.625000000000036
 30
0.0
 11
-112.5625
 21
45.625000000000036
 31
0.0
  0
LINE
  8
0
 62
0
 10
-112.5625
 20
45.625000000000036
 30
0.0
 11
-112.5625
 21
50.625000000000036
 31
0.0
  0
LINE
  8
0
 62
0
 10
-112.5625
 20
50.625000000000036
 30
0.0
 11
-112.26249999999999
 21
50.625000000000036
 31
0.0
  0
LINE
  8
0
 62
0
 10
-69.71249999999999
 20
41.125000000000036
 30
0.0
 11
-55.1125
 21
41.125000000000036
 31
0.0
  0
LINE
  8
0
 62
0
 10
-51.16250000000001
 20
45.12500000000003
 30
0.0
 11
-51.1625
 21
41.62500000000003
 31
0.0
  0
ARC
  8
0
 62
0
 10
-88.76249999999999
 20
41.62500000000002
 30
0.0
 40
0.5
 50
180.0
 51
-90.00000000000163
  0
LINE
  8
0
 62
0
 10
-131.31125
 20
74.17500000000003
 30
0.0
 11
-145.91125
 21
74.17500000000003
 31
0.0
  0
LINE
  8
0
 62
0
 10
-93.5125
 20
45.625000000000036
 30
0.0
 11
-93.5125
 21
50.625000000000036
 31
0.0
  0
LINE
  8
0
 62
0
 10
-207.525
 20
7.525000000000029
 30
0.0
 11
-207.825
 21
7.525000000000029
 31
0.0
  0
ARC
  8
0
 62
0
 10
-121.78750000000001
 20
32.075000000000045
 30
0.0
 40
0.5000000000000142
 50
-89.99999999999837
 51
-0.0
  0
LINE
  8
0
 62
0
 10
-121.2875
 20
32.07500000000003
 30
0.0
 11
-121.2875
 21
35.57500000000003
 31
0.0
  0
LINE
  8
0
 62
0
 10
-117.025
 20
17.025000000000034
 30
0.0
 11
-131.625
 21
17.025000000000027
 31
0.0
  0
LINE
  8
0
 62
0
 10
-193.2375
 20
31.57500000000003
 30
0.0
 11
-193.2375
 21
26.57500000000003
 31
0.0
  0
LINE
  8
0
 62
0
 10
-226.56250000000003
 20
55.125000000000036
 30
0.0
 11
-241.16250000000002
 21
55.12500000000003
 31
0.0
  0
ARC
  8
0
 62
0
 10
-105.43125
 20
73.67500000000003
 30
0.0
 40
0.5
 50
90.0
 51
-180.0
  0
LINE
  8
0
 62
0
 10
-131.31124999999997
 20
64.67500000000001
 30
0.0
 11
-131.61124999999998
 21
64.67500000000003
 31
0.0
  0
ARC
  8
0
 62
0
 10
-79.2375
 20
32.07500000000003
 30
0.0
 40
0.5
 50
-180.0
 51
-90.0
  0
ARC
  8
0
 62
0
 10
-155.125
 20
7.02500000000004
 30
0.0
 40
0.4999999999999716
 50
-0.0
 51
90.0
  0
LINE
  8
0
 62
0
 10
-105.93125
 20
64.17500000000003
 30
0.0
 11
-105.93125
 21
60.675000000000026
 31
0.0
  0
ARC
  8
0
 62
0
 10
-9.868749999999999
 20
51.125000000000036
 30
0.0
 40
0.5
 50
-90.0
 51
-0.0
  0
ARC
  8
0
 62
0
 10
-24.468749999999996
 20
54.62500000000003
 30
0.0
 40
0.5
 50
90.00000000000041
 51
-180.0
  0
LINE
  8
0
 62
0
 10
-97.98750000000001
 20
26.57500000000003
 30
0.0
 11
-98.28750000000001
 21
26.57500000000003
 31
0.0
  0
LINE
  8
0
 62
0
 10
-24.46875
 20
50.625000000000036
 30
0.0
 11
-24.168750000000003
 21
50.625000000000036
 31
0.0
  0
LINE
  8
0
 62
0
 10
-164.6625
 20
45.625000000000036
 30
0.0
 11
-164.9625
 21
45.625000000000036
 31
0.0
  0
ARC
  8
0
 62
0
 10
-164.96250000000003
 20
41.62499999999999
 30
0.0
 40
0.4999999999999716
 50
180.0
 51
-89.99999999999675
  0
ARC
  8
0
 62
0
 10
-88.76249999999999
 20
54.62500000000004
 30
0.0
 40
0.4999999999999858
 50
90.00000000000163
 51
-180.0
  0
ARC
  8
0
 62
0
 10
-169.41250000000002
 20
41.62500000000005
 30
0.0
 40
0.5000000000000142
 50
-89.99999999999675
 51
-0.0
  0
ARC
  8
0
 62
0
 10
-59.875
 20
13.02500000000003
 30
0.0
 40
0.5000000000000018
 50
-90.0
 51
-0.0
  0
LINE
  8
0
 62
0
 10
-24.968749999999996
 20
54.62500000000003
 30
0.0
 11
-24.96875
 21
51.125000000000036
 31
0.0
  0
LINE
  8
0
 62
0
 10
-135.57500000000002
 20
13.025000000000029
 30
0.0
 11
-135.57500000000002
 21
16.525000000000027
 31
0.0
  0
ARC
  8
0
 62
0
 10
-105.43125
 20
64.17500000000003
 30
0.0
 40
0.5
 50
90.0
 51
-180.0
  0
LINE
  8
0
 62
0
 10
-146.41250000000002
 20
64.17500000000003
 30
0.0
 11
-146.4125
 21
60.675000000000026
 31
0.0
  0
LINE
  8
0
 62
0
 10
-83.68750000000003
 20
36.07500000000003
 30
0.0
 11
-98.28750000000001
 21
36.07500000000003
 31
0.0
  0
LINE
  8
0
 62
0
 10
-146.4125
 20
73.67500000000003
 30
0.0
 11
-146.41250000000002
 21
70.17500000000003
 31
0.0
  0
LINE
  8
0
 62
0
 10
-98.7875
 20
35.57500000000003
 30
0.0
 11
-98.78750000000002
 21
32.07500000000003
 31
0.0
  0
ARC
  8
0
 62
0
 10
-24.46875
 20
41.62500000000003
 30
0.0
 40
0.49999999999999645
 50
-180.0
 51
-90.00000000000041
  0
ARC
  8
0
 62
0
 10
-184.01249999999996
 20
41.625000000000036
 30
0.0
 40
0.5000000000000284
 50
-180.0
 51
-90.00000000000651
  0
LINE
  8
0
 62
0
 10
-159.88750000000002
 20
36.07500000000003
 30
0.0
 11
-174.4875
 21
36.07500000000003
 31
0.0
  0
LINE
  8
0
 62
0
 10
-5.423617420860543
 20
81.916510639674
 30
0.0
 11
-1.2834893603259858
 21
77.77638257913947
 31
0.0
  0
LINE
  8
0
 62
0
 10
-238.46388257913947
 20
-4.716510639674024
 30
0.0
 11
-242.60401063967402
 21
-0.5763825791394972
 31
0.0
  0
LINE
  8
0
 62
0
 10
-243.38750000000002
 20
1.3151280605345317
 30
0.0
 11
-243.38750000000002
 21
75.8848719394654
 31
0.0
  0
LINE
  8
0
 62
0
 10
-59.375
 20
13.025000000000029
 30
0.0
 11
-59.375
 21
16.525000000000027
 31
0.0
  0
ARC
  8
0
 62
0
 10
-5.106250000000002
 20
35.57500000000003
 30
0.0
 40
0.5000000000000027
 50
-0.0
 51
89.9999999999999
  0
ARC
  8
0
 62
0
 10
-220.57237193946284
 20
-3.1750000000001903
 30
0.0
 40
3.6750000000001903
 50
90.00000000004077
 51
134.29624874210361
  0
ARC
  8
0
 62
0
 10
-226.5625
 20
73.67500000000005
 30
0.0
 40
0.4999999999999716
 50
-0.0
 51
90.00000000000325
  0
ARC
  8
0
 62
0
 10
-74.16250000000001
 20
45.12500000000003
 30
0.0
 40
0.5
 50
-0.0
 51
90.0
  0
ARC
  8
0
 62
0
 10
-236.57237193946546
 20
-2.825
 30
0.0
 40
2.6750000000000034
 50
-134.9999999999998
 51
-90.0
  0
ARC
  8
0
 62
0
 10
-88.7625
 20
45.12500000000001
 30
0.0
 40
0.5000000000000284
 50
90.0
 51
180.0
  0
LINE
  8
0
 62
0
 10
-131.61124999999998
 20
64.67500000000003
 30
0.0
 11
-131.61124999999998
 21
69.67500000000003
 31
0.0
  0
LINE
  8
0
 62
0
 10
-105.13125000000001
 20
64.67500000000003
 30
0.0
 11
-105.43125
 21
64.67500000000003
 31
0.0
  0
LINE
  8
0
 62
0
 10
-240.86250000000004
 20
69.67500000000003
 30
0.0
 11
-240.86250000000004
 21
64.67500000000003
 31
0.0
  0
ARC
  8
0
 62
0
 10
-240.71250000000006
 20
1.3151280605345255
 30
0.0
 40
2.674999999999962
 50
180.0
 51
-134.99999999999895
  0
LINE
  8
0
 62
0
 10
-179.25250000000003
 20
60.175000000000026
 30
0.0
 11
-164.6525
 21
60.175000000000026
 31
0.0
  0
LINE
  8
0
 62
0
 10
-136.375
 20
7.525000000000029
 30
0.0
 11
-136.375
 21
12.525000000000029
 31
0.0
  0
ARC
  8
0
 62
0
 10
-179.25250000000003
 20
64.17500000000005
 30
0.0
 40
0.4999999999999716
 50
89.99999999999675
 51
-180.0
  0
ARC
  8
0
 62
0
 10
-3.1750000000000007
 20
1.315128060534577
 30
0.0
 40
2.6750000000000016
 50
-44.999999999999964
 51
-0.0
  0
LINE
  8
0
 62
0
 10
-149.8625
 20
51.125000000000036
 30
0.0
 11
-149.8625
 21
54.62500000000003
 31
0.0
  0
LINE
  8
0
 62
0
 10
-24.96875
 20
45.12500000000003
 30
0.0
 11
-24.968749999999996
 21
41.62500000000003
 31
0.0
  0
LINE
  8
0
 62
0
 10
-234.01875000000004
 20
12.525000000000029
 30
0.0
 11
-233.71875000000003
 21
12.525000000000029
 31
0.0
  0
ARC
  8
0
 62
0
 10
-9.868749999999997
 20
45.12500000000003
 30
0.0
 40
0.4999999999999982
 50
-0.0
 51
90.0000000000002
  0
LINE
  8
0
 62
0
 10
-221.81250000000003
 20
69.67500000000004
 30
0.0
 11
-221.81250000000003
 21
64.67500000000004
 31
0.0
  0
ARC
  8
0
 62
0
 10
-222.11249999999998
 20
60.67500000000004
 30
0.0
 40
0.5000000000000284
 50
-180.0
 51
-90.00000000000651
  0
LINE
  8
0
 62
0
 10
-222.6125
 20
64.17500000000003
 30
0.0
 11
-222.6125
 21
60.675000000000026
 31
0.0
  0
LINE
  8
0
 62
0
 10
-222.1125
 20
69.67500000000004
 30
0.0
 11
-221.81250000000003
 21
69.67500000000004
 31
0.0
  0
ARC
  8
0
 62
0
 10
-222.11250000000004
 20
64.17500000000005
 30
0.0
 40
0.4999999999999787
 50
89.99999999999675
 51
-180.0
  0
ARC
  8
0
 62
0
 10
-222.11249999999998
 20
60.67500000000004
 30
0.0
 40
0.5000000000000284
 50
-180.0
 51
-90.00000000000651
  0
LINE
  8
0
 62
0
 10
-221.81250000000003
 20
64.67500000000004
 30
0.0
 11
-222.1125
 21
64.67500000000004
 31
0.0
  0
ARC
  8
0
 62
0
 10
-222.11249999999995
 20
73.67499999999997
 30
0.0
 40
0.500000000000064
 50
90.00000000000651
 51
180.0
  0
LINE
  8
0
 62
0
 10
-222.6125
 20
73.67500000000003
 30
0.0
 11
-222.6125
 21
70.17500000000004
 31
0.0
  0
ARC
  8
0
 62
0
 10
-222.11250000000004
 20
70.17500000000001
 30
0.0
 40
0.4999999999999716
 50
180.0
 51
-89.99999999999675
  0
ARC
  8
0
 62
0
 10
-222.11249999999995
 20
73.67499999999997
 30
0.0
 40
0.500000000000064
 50
90.00000000000651
 51
180.0
  0
LINE
  8
0
 62
0
 10
-17.32625
 20
60.175000000000026
 30
0.0
 11
-2.724999999999999
 21
60.175000000000026
 31
0.0
  0
LINE
  8
0
 62
0
 10
-40.324999999999996
 20
70.17500000000003
 30
0.0
 11
-40.325
 21
73.67500000000003
 31
0.0
  0
LINE
  8
0
 62
0
 10
-164.64875
 20
64.67500000000003
 30
0.0
 11
-164.94875000000002
 21
64.67500000000003
 31
0.0
  0
ARC
  8
0
 62
0
 10
-40.825
 20
70.17500000000003
 30
0.0
 40
0.5
 50
-90.0
 51
-0.0
  0
LINE
  8
0
 62
0
 10
-169.425
 20
7.525000000000029
 30
0.0
 11
-169.72500000000002
 21
7.525000000000029
 31
0.0
  0
ARC
  8
0
 62
0
 10
-40.82500000000001
 20
73.67500000000003
 30
0.0
 40
0.5000000000000067
 50
-0.0
 51
89.99999999999919
  0
LINE
  8
0
 62
0
 10
-41.125
 20
69.67500000000003
 30
0.0
 11
-40.825
 21
69.67500000000003
 31
0.0
  0
LINE
  8
0
 62
0
 10
-131.325
 20
12.525000000000029
 30
0.0
 11
-131.325
 21
7.525000000000029
 31
0.0
  0
ARC
  8
0
 62
0
 10
-102.7375
 20
26.075000000000053
 30
0.0
 40
0.4999999999999858
 50
-0.0
 51
90.0
  0
LINE
  8
0
 62
0
 10
-102.23750000000001
 20
32.07500000000003
 30
0.0
 11
-102.23750000000001
 21
35.57500000000003
 31
0.0
  0
LINE
  8
0
 62
0
 10
-117.3375
 20
31.57500000000003
 30
0.0
 11
-117.03750000000001
 21
31.57500000000003
 31
0.0
  0
LINE
  8
0
 62
0
 10
-117.03750000000001
 20
26.57500000000003
 30
0.0
 11
-117.3375
 21
26.57500000000003
 31
0.0
  0
ARC
  8
0
 62
0
 10
-55.425000000000004
 20
7.02500000000002
 30
0.0
 40
0.5000000000000089
 50
90.0
 51
180.0
  0
ARC
  8
0
 62
0
 10
-40.82500000000002
 20
13.02500000000004
 30
0.0
 40
0.5000000000000107
 50
-89.99999999999837
 51
-0.0
  0
LINE
  8
0
 62
0
 10
-131.325
 20
7.525000000000029
 30
0.0
 11
-131.625
 21
7.525000000000029
 31
0.0
  0
LINE
  8
0
 62
0
 10
-102.23749999999998
 20
22.575000000000035
 30
0.0
 11
-102.23750000000001
 21
26.075000000000035
 31
0.0
  0
ARC
  8
0
 62
0
 10
-26.537500000000005
 20
32.07500000000004
 30
0.0
 40
0.5000000000000071
 50
-89.99999999999959
 51
-0.0
  0
LINE
  8
0
 62
0
 10
-41.1375
 20
22.07500000000003
 30
0.0
 11
-26.5375
 21
22.07500000000003
 31
0.0
  0
ARC
  8
0
 62
0
 10
-41.1375
 20
35.575000000000024
 30
0.0
 40
0.5000000000000071
 50
89.99999999999919
 51
180.0
  0
LINE
  8
0
 62
0
 10
-103.03750000000001
 20
26.57500000000003
 30
0.0
 11
-103.03750000000001
 21
31.57500000000003
 31
0.0
  0
LINE
  8
0
 62
0
 10
-117.8375
 20
35.57500000000003
 30
0.0
 11
-117.8375
 21
32.07500000000003
 31
0.0
  0
ARC
  8
0
 62
0
 10
-40.825
 20
3.5250000000000274
 30
0.0
 40
0.5000000000000009
 50
-90.0
 51
-0.0
  0
ARC
  8
0
 62
0
 10
-26.537499999999998
 20
26.075000000000042
 30
0.0
 40
0.5
 50
-0.0
 51
90.00000000000041
  0
ARC
  8
0
 62
0
 10
-102.73750000000003
 20
35.57500000000002
 30
0.0
 40
0.5000000000000142
 50
0.0
 51
89.99999999999837
  0
LINE
  8
0
 62
0
 10
-41.6375
 20
26.075000000000035
 30
0.0
 11
-41.6375
 21
22.57500000000003
 31
0.0
  0
LINE
  8
0
 62
0
 10
-41.12500000000001
 20
12.525000000000029
 30
0.0
 11
-40.825
 21
12.525000000000029
 31
0.0
  0
ARC
  8
0
 62
0
 10
-26.5375
 20
35.57500000000003
 30
0.0
 40
0.5000000000000036
 50
-0.0
 51
90.00000000000041
  0
ARC
  8
0
 62
0
 10
-41.137499999999996
 20
22.57500000000004
 30
0.0
 40
0.5000000000000071
 50
-180.0
 51
-90.00000000000081
  0
LINE
  8
0
 62
0
 10
-132.125
 20
16.525000000000027
 30
0.0
 11
-132.125
 21
13.025000000000029
 31
0.0
  0
LINE
  8
0
 62
0
 10
-41.6375
 20
35.57500000000003
 30
0.0
 11
-41.6375
 21
32.07500000000003
 31
0.0
  0
ARC
  8
0
 62
0
 10
-41.137499999999996
 20
26.07500000000002
 30
0.0
 40
0.5000000000000107
 50
90.0
 51
180.0
  0
ARC
  8
0
 62
0
 10
-117.3375
 20
22.575000000000035
 30
0.0
 40
0.5
 50
-180.0
 51
-90.0
  0
LINE
  8
0
 62
0
 10
-131.625
 20
12.525000000000029
 30
0.0
 11
-131.325
 21
12.525000000000029
 31
0.0
  0
LINE
  8
0
 62
0
 10
-40.825
 20
7.525000000000035
 30
0.0
 11
-41.12500000000001
 21
7.525000000000029
 31
0.0
  0
LINE
  8
0
 62
0
 10
-40.837500000000006
 20
26.57500000000003
 30
0.0
 11
-41.137499999999996
 21
26.57500000000003
 31
0.0
  0
LINE
  8
0
 62
0
 10
-26.037499999999998
 20
32.07500000000003
 30
0.0
 11
-26.037499999999998
 21
35.57500000000003
 31
0.0
  0
ARC
  8
0
 62
0
 10
-117.025
 20
16.52500000000003
 30
0.0
 40
0.5
 50
-0.0
 51
90.0
  0
LINE
  8
0
 62
0
 10
-117.3375
 20
22.07500000000003
 30
0.0
 11
-102.7375
 21
22.07500000000003
 31
0.0
  0
ARC
  8
0
 62
0
 10
-102.73749999999997
 20
22.575000000000028
 30
0.0
 40
0.49999999999999645
 50
-90.00000000000325
 51
0.0
  0
LINE
  8
0
 62
0
 10
-103.03750000000001
 20
31.57500000000003
 30
0.0
 11
-102.7375
 21
31.57500000000003
 31
0.0
  0
LINE
  8
0
 62
0
 10
-41.12500000000001
 20
7.525000000000029
 30
0.0
 11
-41.12500000000001
 21
12.525000000000029
 31
0.0
  0
LINE
  8
0
 62
0
 10
-26.5375
 20
26.57500000000004
 30
0.0
 11
-26.8375
 21
26.57500000000003
 31
0.0
  0
ARC
  8
0
 62
0
 10
-102.73750000000004
 20
32.07500000000005
 30
0.0
 40
0.5000000000000213
 50
-89.99999999999511
 51
-0.0
  0
LINE
  8
0
 62
0
 10
-102.73750000000001
 20
36.07500000000003
 30
0.0
 11
-117.3375
 21
36.07500000000003
 31
0.0
  0
ARC
  8
0
 62
0
 10
-117.33750000000002
 20
35.575000000000045
 30
0.0
 40
0.4999999999999858
 50
89.99999999999837
 51
-180.0
  0
ARC
  8
0
 62
0
 10
-55.425000000000004
 20
3.5250000000000323
 30
0.0
 40
0.5000000000000071
 50
-180.0
 51
-90.00000000000081
  0
ARC
  8
0
 62
0
 10
-131.62499999999997
 20
7.02500000000001
 30
0.0
 40
0.5000000000000187
 50
90.00000000000325
 51
180.0
  0
LINE
  8
0
 62
0
 10
-55.42500000000001
 20
3.0250000000000266
 30
0.0
 11
-40.825
 21
3.0250000000000266
 31
0.0
  0
LINE
  8
0
 62
0
 10
-40.325
 20
3.5250000000000274
 30
0.0
 11
-40.325
 21
7.025000000000028
 31
0.0
  0
ARC
  8
0
 62
0
 10
-26.537499999999998
 20
22.575000000000024
 30
0.0
 40
0.4999999999999929
 50
-90.00000000000041
 51
0.0
  0
LINE
  8
0
 62
0
 10
-26.537500000000005
 20
36.07500000000003
 30
0.0
 11
-41.137499999999996
 21
36.07500000000003
 31
0.0
  0
ARC
  8
0
 62
0
 10
-41.13749999999999
 20
32.075000000000045
 30
0.0
 40
0.5000000000000142
 50
-180.0
 51
-90.00000000000081
  0
ARC
  8
0
 62
0
 10
-131.62499999999997
 20
16.52500000000001
 30
0.0
 40
0.5000000000000178
 50
90.00000000000325
 51
180.0
  0
ARC
  8
0
 62
0
 10
-40.82500000000001
 20
7.025000000000025
 30
0.0
 40
0.5000000000000071
 50
0.0
 51
89.99999999999919
  0
LINE
  8
0
 62
0
 10
-55.125000000000014
 20
12.525000000000029
 30
0.0
 11
-55.125000000000014
 21
7.525000000000029
 31
0.0
  0
ARC
  8
0
 62
0
 10
-131.62499999999997
 20
13.025000000000048
 30
0.0
 40
0.5000000000000284
 50
-180.0
 51
-90.00000000000325
  0
LINE
  8
0
 62
0
 10
-55.125000000000014
 20
7.525000000000029
 30
0.0
 11
-55.425000000000004
 21
7.525000000000029
 31
0.0
  0
LINE
  8
0
 62
0
 10
-55.425000000000004
 20
12.525000000000029
 30
0.0
 11
-55.125000000000014
 21
12.525000000000029
 31
0.0
  0
LINE
  8
0
 62
0
 10
-26.0375
 20
22.575000000000035
 30
0.0
 11
-26.037499999999998
 21
26.075000000000035
 31
0.0
  0
LINE
  8
0
 62
0
 10
-117.8375
 20
26.075000000000035
 30
0.0
 11
-117.8375
 21
22.57500000000003
 31
0.0
  0
LINE
  8
0
 62
0
 10
-102.7375
 20
26.575000000000024
 30
0.0
 11
-103.03750000000001
 21
26.57500000000003
 31
0.0
  0
ARC
  8
0
 62
0
 10
-117.3375
 20
32.07500000000003
 30
0.0
 40
0.5
 50
-180.0
 51
-90.0
  0
LINE
  8
0
 62
0
 10
-117.03750000000001
 20
31.57500000000003
 30
0.0
 11
-117.03750000000001
 21
26.57500000000003
 31
0.0
  0
LINE
  8
0
 62
0
 10
-194.0375
 20
26.075000000000035
 30
0.0
 11
-194.0375
 21
22.57500000000003
 31
0.0
  0
ARC
  8
0
 62
0
 10
-193.53750000000002
 20
22.575000000000017
 30
0.0
 40
0.4999999999999716
 50
180.0
 51
-90.0
  0
LINE
  8
0
 62
0
 10
-193.53750000000002
 20
22.07500000000003
 30
0.0
 11
-178.9375
 21
22.07500000000003
 31
0.0
  0
ARC
  8
0
 62
0
 10
-178.93749999999997
 20
26.07500000000007
 30
0.0
 40
0.4999999999999716
 50
-0.0
 51
90.00000000000325
  0
LINE
  8
0
 62
0
 10
-178.9375
 20
26.575000000000042
 30
0.0
 11
-179.23749999999998
 21
26.57500000000003
 31
0.0
  0
LINE
  8
0
 62
0
 10
-179.23749999999998
 20
26.57500000000003
 30
0.0
 11
-179.23749999999998
 21
31.57500000000003
 31
0.0
  0
LINE
  8
0
 62
0
 10
-179.23749999999998
 20
31.57500000000003
 30
0.0
 11
-178.9375
 21
31.57500000000003
 31
0.0
  0
ARC
  8
0
 62
0
 10
-178.93750000000003
 20
32.07500000000005
 30
0.0
 40
0.5000000000000213
 50
-89.99999999999675
 51
-0.0
  0
ARC
  8
0
 62
0
 10
-207.5125
 20
45.125000000000064
 30
0.0
 40
0.4999999999999716
 50
-0.0
 51
90.00000000000325
  0
ARC
  8
0
 62
0
 10
-131.3125
 20
54.62500000000003
 30
0.0
 40
0.5
 50
-0.0
 51
90.0
  0
LINE
  8
0
 62
0
 10
-131.3125
 20
55.125000000000036
 30
0.0
 11
-145.9125
 21
55.12500000000003
 31
0.0
  0
LINE
  8
0
 62
0
 10
-145.6125
 20
50.625000000000036
 30
0.0
 11
-145.6125
 21
45.625000000000036
 31
0.0
  0
LINE
  8
0
 62
0
 10
-193.2375
 20
26.57500000000003
 30
0.0
 11
-193.53749999999997
 21
26.57500000000003
 31
0.0
  0
LINE
  8
0
 62
0
 10
-207.01250000000002
 20
41.62500000000003
 30
0.0
 11
-207.01250000000002
 21
45.12500000000003
 31
0.0
  0
LINE
  8
0
 62
0
 10
-178.4375
 20
32.07500000000003
 30
0.0
 11
-178.4375
 21
35.57500000000003
 31
0.0
  0
ARC
  8
0
 62
0
 10
-178.93749999999997
 20
35.57500000000007
 30
0.0
 40
0.4999999999999716
 50
-0.0
 51
90.00000000000325
  0
LINE
  8
0
 62
0
 10
-178.9375
 20
36.07500000000003
 30
0.0
 11
-193.53749999999997
 21
36.07500000000003
 31
0.0
  0
LINE
  8
0
 62
0
 10
-207.8125
 20
50.625000000000036
 30
0.0
 11
-207.51250000000002
 21
50.625000000000036
 31
0.0
  0
LINE
  8
0
 62
0
 10
-203.5625
 20
73.67500000000003
 30
0.0
 11
-203.5625
 21
70.17500000000004
 31
0.0
  0
LINE
  8
0
 62
0
 10
-131.3125
 20
45.625000000000036
 30
0.0
 11
-131.6125
 21
45.625000000000036
 31
0.0
  0
ARC
  8
0
 62
0
 10
-207.5125
 20
54.62500000000006
 30
0.0
 40
0.4999999999999716
 50
-0.0
 51
90.00000000000325
  0
ARC
  8
0
 62
0
 10
-207.51250000000005
 20
51.12500000000006
 30
0.0
 40
0.5000000000000213
 50
-89.99999999999675
 51
-0.0
  0
ARC
  8
0
 62
0
 10
-222.11249999999998
 20
60.67500000000004
 30
0.0
 40
0.5000000000000284
 50
-180.0
 51
-90.00000000000651
  0
ARC
  8
0
 62
0
 10
-145.9125
 20
41.62500000000003
 30
0.0
 40
0.5
 50
-180.0
 51
-90.0
  0
ARC
  8
0
 62
0
 10
-193.5375
 20
32.075000000000024
 30
0.0
 40
0.5
 50
180.0
 51
-89.99999999999675
  0
ARC
  8
0
 62
0
 10
-203.06250000000003
 20
70.17500000000001
 30
0.0
 40
0.4999999999999716
 50
180.0
 51
-89.99999999999675
  0
LINE
  8
0
 62
0
 10
-145.9125
 20
41.125000000000036
 30
0.0
 11
-131.3125
 21
41.125000000000036
 31
0.0
  0
ARC
  8
0
 62
0
 10
-131.3125
 20
51.12500000000005
 30
0.0
 40
0.5000000000000142
 50
-90.0
 51
-0.0
  0
LINE
  8
0
 62
0
 10
-194.0375
 20
35.57500000000003
 30
0.0
 11
-194.0375
 21
32.07500000000003
 31
0.0
  0
LINE
  8
0
 62
0
 10
-202.76250000000002
 20
64.67500000000004
 30
0.0
 11
-203.0625
 21
64.67500000000004
 31
0.0
  0
LINE
  8
0
 62
0
 10
-146.4125
 20
54.62500000000003
 30
0.0
 11
-146.41250000000002
 21
51.125000000000036
 31
0.0
  0
LINE
  8
0
 62
0
 10
-131.6125
 20
50.625000000000036
 30
0.0
 11
-131.3125
 21
50.625000000000036
 31
0.0
  0
LINE
  8
0
 62
0
 10
-145.9125
 20
50.625000000000036
 30
0.0
 11
-145.6125
 21
50.625000000000036
 31
0.0
  0
LINE
  8
0
 62
0
 10
-70.2125
 20
45.12500000000003
 30
0.0
 11
-70.21249999999999
 21
41.62500000000003
 31
0.0
  0
LINE
  8
0
 62
0
 10
-130.8125
 20
41.62500000000003
 30
0.0
 11
-130.8125
 21
45.12500000000003
 31
0.0
  0
LINE
  8
0
 62
0
 10
-193.53749999999997
 20
31.57500000000003
 30
0.0
 11
-193.2375
 21
31.57500000000003
 31
0.0
  0
ARC
  8
0
 62
0
 10
-203.06250000000003
 20
64.17500000000005
 30
0.0
 40
0.4999999999999787
 50
89.99999999999675
 51
-180.0
  0
LINE
  8
0
 62
0
 10
-130.8125
 20
51.125000000000036
 30
0.0
 11
-130.8125
 21
54.62500000000003
 31
0.0
  0
LINE
  8
0
 62
0
 10
-145.6125
 20
45.625000000000036
 30
0.0
 11
-145.9125
 21
45.625000000000036
 31
0.0
  0
LINE
  8
0
 62
0
 10
-207.8125
 20
45.625000000000036
 30
0.0
 11
-207.8125
 21
50.625000000000036
 31
0.0
  0
ARC
  8
0
 62
0
 10
-222.11249999999995
 20
73.67499999999997
 30
0.0
 40
0.500000000000064
 50
90.00000000000651
 51
180.0
  0
LINE
  8
0
 62
0
 10
-207.01250000000002
 20
51.125000000000036
 30
0.0
 11
-207.01250000000002
 21
54.62500000000003
 31
0.0
  0
ARC
  8
0
 62
0
 10
-193.5374999999999
 20
26.074999999999953
 30
0.0
 40
0.5000000000000782
 50
90.00000000000651
 51
180.0
  0
LINE
  8
0
 62
0
 10
-222.11250000000004
 20
41.125000000000036
 30
0.0
 11
-207.51250000000002
 21
41.125000000000036
 31
0.0
  0
LINE
  8
0
 62
0
 10
-202.76250000000002
 20
69.67500000000004
 30
0.0
 11
-202.76250000000002
 21
64.67500000000004
 31
0.0
  0
LINE
  8
0
 62
0
 10
-207.51250000000002
 20
55.125000000000036
 30
0.0
 11
-222.1125
 21
55.12500000000003
 31
0.0
  0
LINE
  8
0
 62
0
 10
-203.0625
 20
69.67500000000004
 30
0.0
 11
-202.76250000000002
 21
69.67500000000004
 31
0.0
  0
ARC
  8
0
 62
0
 10
-131.3125
 20
45.12500000000002
 30
0.0
 40
0.5
 50
0.0
 51
90.0
  0
ARC
  8
0
 62
0
 10
-55.426249999999996
 20
60.67500000000002
 30
0.0
 40
0.49999999999999645
 50
180.0
 51
-90.0
  0
ARC
  8
0
 62
0
 10
-55.426249999999996
 20
73.67500000000003
 30
0.0
 40
0.5
 50
90.0
 51
-180.0
  0
ARC
  8
0
 62
0
 10
-226.56250000000006
 20
60.675000000000054
 30
0.0
 40
0.5000000000000142
 50
-89.99999999999675
 51
-0.0
  0
LINE
  8
Exploded Slice017
 62
0
 10
-241.16250000000005
 20
60.175000000000026
 30
0.0
 11
-226.56250000000003
 21
60.17500000000004
 31
0.0
  0
LINE
  8
Exploded Slice017
 62
0
 10
-203.06250000000003
 20
60.17500000000004
 30
0.0
 11
-188.4625
 21
60.175000000000026
 31
0.0
  0
LINE
  8
Exploded Slice009
 62
0
 10
-36.37625
 20
60.175000000000026
 30
0.0
 11
-21.775
 21
60.175000000000026
 31
0.0
  0
LINE
  8
Exploded Slice015
 62
0
 10
-188.4625
 20
74.17500000000003
 30
0.0
 11
-203.0625
 21
74.17500000000003
 31
0.0
  0
ARC
  8
0
 62
0
 10
-21.775000000000006
 20
73.67500000000001
 30
0.0
 40
0.5000000000000071
 50
0.0
 51
89.99999999999959
  0
ARC
  8
0
 62
0
 10
-36.37625
 20
60.67500000000002
 30
0.0
 40
0.49999999999999645
 50
180.0
 51
-90.0
  0
LINE
  8
0
 62
0
 10
-140.3375
 20
32.07500000000003
 30
0.0
 11
-140.3375
 21
35.57500000000003
 31
0.0
  0
LINE
  8
0
 62
0
 10
-17.825
 20
7.025000000000028
 30
0.0
 11
-17.824999999999996
 21
3.5250000000000266
 31
0.0
  0
LINE
  8
0
 62
0
 10
-78.9375
 20
26.57500000000003
 30
0.0
 11
-79.2375
 21
26.57500000000003
 31
0.0
  0
ARC
  8
0
 62
0
 10
-236.39999999999995
 20
32.07500000000004
 30
0.0
 40
0.5000000000000284
 50
-180.0
 51
-90.00000000000651
  0
ARC
  8
0
 62
0
 10
-140.83750000000003
 20
32.075000000000045
 30
0.0
 40
0.5000000000000142
 50
-89.99999999999675
 51
-0.0
  0
LINE
  8
0
 62
0
 10
-94.02500000000002
 20
7.025000000000028
 30
0.0
 11
-94.025
 21
3.5250000000000266
 31
0.0
  0
LINE
  8
0
 62
0
 10
-93.525
 20
3.0250000000000266
 30
0.0
 11
-78.92500000000001
 21
3.0250000000000266
 31
0.0
  0
LINE
  8
0
 62
0
 10
-3.0249999999999995
 20
7.525000000000029
 30
0.0
 11
-3.0249999999999995
 21
12.525000000000029
 31
0.0
  0
LINE
  8
0
 62
0
 10
-78.92500000000001
 20
7.525000000000026
 30
0.0
 11
-79.22500000000001
 21
7.525000000000029
 31
0.0
  0
ARC
  8
0
 62
0
 10
-79.2375
 20
35.57500000000003
 30
0.0
 40
0.5
 50
90.0
 51
-180.0
  0
ARC
  8
0
 62
0
 10
-2.724999999999999
 20
3.5250000000000266
 30
0.0
 40
0.5
 50
-90.0
 51
0.0
  0
ARC
  8
0
 62
0
 10
-140.8375
 20
26.07500000000003
 30
0.0
 40
0.5
 50
0.0
 51
90.0
  0
ARC
  8
0
 62
0
 10
-79.2375
 20
22.575000000000028
 30
0.0
 40
0.5
 50
180.0
 51
-90.0
  0
LINE
  8
0
 62
0
 10
-17.325
 20
12.525000000000029
 30
0.0
 11
-17.025
 21
12.525000000000029
 31
0.0
  0
LINE
  8
0
 62
0
 10
-155.4375
 20
31.57500000000003
 30
0.0
 11
-155.13750000000002
 21
31.57500000000003
 31
0.0
  0
LINE
  8
0
 62
0
 10
-2.2249999999999974
 20
13.025000000000029
 30
0.0
 11
-2.224999999999999
 21
16.525000000000027
 31
0.0
  0
LINE
  8
0
 62
0
 10
-17.025
 20
12.525000000000029
 30
0.0
 11
-17.025
 21
7.525000000000029
 31
0.0
  0
LINE
  8
0
 62
0
 10
-79.73750000000001
 20
26.075000000000035
 30
0.0
 11
-79.7375
 21
22.57500000000003
 31
0.0
  0
LINE
  8
0
 62
0
 10
-94.025
 20
16.525000000000027
 30
0.0
 11
-94.02500000000002
 21
13.025000000000029
 31
0.0
  0
ARC
  8
0
 62
0
 10
-236.39999999999995
 20
35.575000000000024
 30
0.0
 40
0.5000000000000071
 50
90.00000000000651
 51
180.0
  0
ARC
  8
0
 62
0
 10
-64.6375
 20
26.07500000000003
 30
0.0
 40
0.5
 50
0.0
 51
90.0
  0
LINE
  8
0
 62
0
 10
-2.724999999999999
 20
7.525000000000029
 30
0.0
 11
-3.0249999999999995
 21
7.525000000000029
 31
0.0
  0
LINE
  8
0
 62
0
 10
-64.6375
 20
26.57500000000003
 30
0.0
 11
-64.9375
 21
26.57500000000003
 31
0.0
  0
LINE
  8
0
 62
0
 10
-141.13750000000002
 20
26.57500000000003
 30
0.0
 11
-141.13750000000002
 21
31.57500000000003
 31
0.0
  0
ARC
  8
0
 62
0
 10
-140.8375
 20
22.575000000000035
 30
0.0
 40
0.5000000000000036
 50
-90.0
 51
-0.0
  0
LINE
  8
0
 62
0
 10
-155.9375
 20
35.57500000000003
 30
0.0
 11
-155.93750000000003
 21
32.07500000000003
 31
0.0
  0
ARC
  8
0
 62
0
 10
-155.43749999999997
 20
32.07500000000007
 30
0.0
 40
0.5000000000000568
 50
-180.0
 51
-90.00000000000325
  0
LINE
  8
0
 62
0
 10
-64.1375
 20
22.575000000000035
 30
0.0
 11
-64.1375
 21
26.075000000000035
 31
0.0
  0
LINE
  8
0
 62
0
 10
-64.9375
 20
31.57500000000003
 30
0.0
 11
-64.6375
 21
31.57500000000003
 31
0.0
  0
LINE
  8
0
 62
0
 10
-79.2375
 20
22.07500000000003
 30
0.0
 11
-64.6375
 21
22.07500000000003
 31
0.0
  0
ARC
  8
0
 62
0
 10
-2.725
 20
13.025000000000032
 30
0.0
 40
0.5000000000000036
 50
-89.9999999999999
 51
-0.0
  0
ARC
  8
0
 62
0
 10
-236.39999999999995
 20
26.075000000000024
 30
0.0
 40
0.5000000000000071
 50
90.00000000000651
 51
180.0
  0
LINE
  8
0
 62
0
 10
-3.0249999999999995
 20
12.525000000000029
 30
0.0
 11
-2.724999999999999
 21
12.525000000000029
 31
0.0
  0
ARC
  8
0
 62
0
 10
-140.83750000000003
 20
35.57500000000003
 30
0.0
 40
0.5000000000000284
 50
-0.0
 51
90.0
  0
ARC
  8
0
 62
0
 10
-79.23750000000001
 20
26.075000000000017
 30
0.0
 40
0.5000000000000142
 50
89.99999999999837
 51
180.0
  0
LINE
  8
0
 62
0
 10
-236.1
 20
26.57500000000003
 30
0.0
 11
-236.4
 21
26.57500000000003
 31
0.0
  0
LINE
  8
0
 62
0
 10
-140.8375
 20
26.575000000000042
 30
0.0
 11
-141.13750000000002
 21
26.57500000000003
 31
0.0
  0
ARC
  8
0
 62
0
 10
-155.43749999999997
 20
35.57500000000002
 30
0.0
 40
0.5000000000000142
 50
90.00000000000325
 51
180.0
  0
LINE
  8
0
 62
0
 10
-64.9375
 20
26.57500000000003
 30
0.0
 11
-64.9375
 21
31.57500000000003
 31
0.0
  0
ARC
  8
0
 62
0
 10
-17.324999999999996
 20
3.5250000000000266
 30
0.0
 40
0.5
 50
-180.0
 51
-90.00000000000081
  0
LINE
  8
0
 62
0
 10
-64.1375
 20
32.07500000000003
 30
0.0
 11
-64.1375
 21
35.57500000000003
 31
0.0
  0
LINE
  8
0
 62
0
 10
-155.4375
 20
22.07500000000003
 30
0.0
 11
-140.8375
 21
22.07500000000003
 31
0.0
  0
LINE
  8
0
 62
0
 10
-64.63749999999999
 20
36.075000000000024
 30
0.0
 11
-79.2375
 21
36.07500000000003
 31
0.0
  0
LINE
  8
0
 62
0
 10
-79.7375
 20
35.57500000000003
 30
0.0
 11
-79.7375
 21
32.07500000000003
 31
0.0
  0
LINE
  8
0
 62
0
 10
-17.325000000000003
 20
3.025000000000028
 30
0.0
 11
-2.724999999999999
 21
3.0250000000000266
 31
0.0
  0
LINE
  8
0
 62
0
 10
-141.13750000000002
 20
31.57500000000003
 30
0.0
 11
-140.8375
 21
31.57500000000003
 31
0.0
  0
ARC
  8
0
 62
0
 10
-64.6375
 20
22.575000000000028
 30
0.0
 40
0.49999999999999645
 50
-90.0
 51
0.0
  0
LINE
  8
0
 62
0
 10
-140.83750000000003
 20
36.07500000000003
 30
0.0
 11
-155.4375
 21
36.07500000000003
 31
0.0
  0
ARC
  8
0
 62
0
 10
-17.324999999999996
 20
16.525000000000027
 30
0.0
 40
0.5
 50
90.00000000000041
 51
-180.0
  0
LINE
  8
0
 62
0
 10
-155.93750000000003
 20
26.075000000000035
 30
0.0
 11
-155.9375
 21
22.57500000000003
 31
0.0
  0
ARC
  8
0
 62
0
 10
-155.4375
 20
22.575000000000028
 30
0.0
 40
0.5
 50
180.0
 51
-90.0
  0
LINE
  8
0
 62
0
 10
-236.4
 20
31.57500000000003
 30
0.0
 11
-236.1
 21
31.57500000000003
 31
0.0
  0
ARC
  8
0
 62
0
 10
-64.6375
 20
35.575000000000024
 30
0.0
 40
0.5
 50
0.0
 51
89.99999999999837
  0
LINE
  8
0
 62
0
 10
-17.824999999999996
 20
16.525000000000027
 30
0.0
 11
-17.825
 21
13.025000000000029
 31
0.0
  0
ARC
  8
0
 62
0
 10
-17.324999999999996
 20
13.02500000000003
 30
0.0
 40
0.5000000000000036
 50
-180.0
 51
-90.00000000000041
  0
LINE
  8
0
 62
0
 10
-17.025
 20
7.525000000000029
 30
0.0
 11
-17.325
 21
7.525000000000029
 31
0.0
  0
ARC
  8
0
 62
0
 10
-17.324999999999996
 20
7.025000000000026
 30
0.0
 40
0.5000000000000027
 50
90.00000000000041
 51
180.0
  0
ARC
  8
0
 62
0
 10
-93.525
 20
3.5250000000000234
 30
0.0
 40
0.5
 50
180.0
 51
-90.0
  0
LINE
  8
0
 62
0
 10
-78.42500000000001
 20
3.5250000000000274
 30
0.0
 11
-78.42500000000001
 21
7.025000000000028
 31
0.0
  0
ARC
  8
0
 62
0
 10
-78.92500000000001
 20
7.025000000000027
 30
0.0
 40
0.5
 50
0.0
 51
90.0
  0
LINE
  8
0
 62
0
 10
-79.22500000000001
 20
7.525000000000029
 30
0.0
 11
-79.22500000000001
 21
12.525000000000029
 31
0.0
  0
ARC
  8
0
 62
0
 10
-78.92500000000001
 20
16.525000000000023
 30
0.0
 40
0.5
 50
0.0
 51
90.0
  0
LINE
  8
0
 62
0
 10
-78.92500000000001
 20
17.025000000000023
 30
0.0
 11
-93.525
 21
17.025000000000027
 31
0.0
  0
ARC
  8
0
 62
0
 10
-93.52499999999999
 20
16.52500000000001
 30
0.0
 40
0.5000000000000178
 50
90.00000000000163
 51
180.0
  0
LINE
  8
0
 62
0
 10
-93.22500000000002
 20
12.525000000000029
 30
0.0
 11
-93.22500000000002
 21
7.525000000000029
 31
0.0
  0
LINE
  8
0
 62
0
 10
-207.82500000000002
 20
3.0250000000000266
 30
0.0
 11
-193.22500000000002
 21
3.0250000000000266
 31
0.0
  0
LINE
  8
0
 62
0
 10
-193.22500000000002
 20
7.525000000000035
 30
0.0
 11
-193.52499999999998
 21
7.525000000000029
 31
0.0
  0
ARC
  8
0
 62
0
 10
-193.22500000000005
 20
3.525000000000042
 30
0.0
 40
0.5000000000000155
 50
-89.99999999999675
 51
-0.0
  0
LINE
  8
0
 62
0
 10
-155.425
 20
7.525000000000029
 30
0.0
 11
-155.425
 21
12.525000000000029
 31
0.0
  0
ARC
  8
0
 62
0
 10
-169.725
 20
7.02500000000001
 30
0.0
 40
0.5000000000000187
 50
90.00000000000325
 51
180.0
  0
LINE
  8
0
 62
0
 10
-207.825
 20
12.525000000000029
 30
0.0
 11
-207.525
 21
12.525000000000029
 31
0.0
  0
LINE
  8
0
 62
0
 10
-207.525
 20
12.525000000000029
 30
0.0
 11
-207.525
 21
7.525000000000029
 31
0.0
  0
LINE
  8
0
 62
0
 10
-132.125
 20
7.025000000000028
 30
0.0
 11
-132.125
 21
3.5250000000000266
 31
0.0
  0
ARC
  8
0
 62
0
 10
-93.52499999999999
 20
7.025000000000003
 30
0.0
 40
0.5000000000000258
 50
90.00000000000163
 51
180.0
  0
ARC
  8
0
 62
0
 10
-131.625
 20
3.5250000000000234
 30
0.0
 40
0.5
 50
180.0
 51
-90.0
  0
LINE
  8
0
 62
0
 10
-193.52499999999998
 20
7.525000000000029
 30
0.0
 11
-193.52499999999998
 21
12.525000000000029
 31
0.0
  0
ARC
  8
0
 62
0
 10
-117.02500000000002
 20
7.025000000000033
 30
0.0
 40
0.5000000000000142
 50
-0.0
 51
89.99999999999675
  0
LINE
  8
0
 62
0
 10
-117.02499999999999
 20
7.525000000000035
 30
0.0
 11
-117.325
 21
7.525000000000029
 31
0.0
  0
LINE
  8
0
 62
0
 10
-116.52499999999998
 20
3.5250000000000274
 30
0.0
 11
-116.525
 21
7.025000000000028
 31
0.0
  0
LINE
  8
0
 62
0
 10
-208.325
 20
16.525000000000027
 30
0.0
 11
-208.325
 21
13.025000000000029
 31
0.0
  0
LINE
  8
0
 62
0
 10
-117.325
 20
12.525000000000029
 30
0.0
 11
-117.02499999999999
 21
12.525000000000029
 31
0.0
  0
ARC
  8
0
 62
0
 10
-117.02500000000003
 20
13.025000000000048
 30
0.0
 40
0.5000000000000195
 50
-89.99999999999511
 51
-0.0
  0
LINE
  8
0
 62
0
 10
-116.525
 20
13.025000000000029
 30
0.0
 11
-116.525
 21
16.525000000000027
 31
0.0
  0
ARC
  8
0
 62
0
 10
-193.225
 20
7.025000000000063
 30
0.0
 40
0.4999999999999716
 50
-0.0
 51
90.00000000000325
  0
LINE
  8
0
 62
0
 10
-154.625
 20
3.5250000000000274
 30
0.0
 11
-154.62500000000003
 21
7.025000000000028
 31
0.0
  0
ARC
  8
0
 62
0
 10
-93.52499999999999
 20
13.025000000000055
 30
0.0
 40
0.5000000000000284
 50
-180.0
 51
-90.00000000000163
  0
LINE
  8
0
 62
0
 10
-93.22500000000002
 20
7.525000000000029
 30
0.0
 11
-93.525
 21
7.525000000000029
 31
0.0
  0
ARC
  8
0
 62
0
 10
-155.12500000000003
 20
13.025000000000041
 30
0.0
 40
0.5000000000000124
 50
-89.99999999999675
 51
-0.0
  0
LINE
  8
0
 62
0
 10
-155.425
 20
12.525000000000029
 30
0.0
 11
-155.125
 21
12.525000000000029
 31
0.0
  0
LINE
  8
0
 62
0
 10
-170.22500000000002
 20
16.525000000000027
 30
0.0
 11
-170.22500000000002
 21
13.025000000000029
 31
0.0
  0
ARC
  8
0
 62
0
 10
-169.725
 20
13.025000000000066
 30
0.0
 40
0.5000000000000284
 50
-180.0
 51
-90.00000000000325
  0
LINE
  8
0
 62
0
 10
-170.22500000000002
 20
7.025000000000028
 30
0.0
 11
-170.22500000000002
 21
3.5250000000000266
 31
0.0
  0
ARC
  8
0
 62
0
 10
-207.825
 20
3.525000000000013
 30
0.0
 40
0.5
 50
180.0
 51
-90.00000000000325
  0
LINE
  8
0
 62
0
 10
-193.52499999999998
 20
12.525000000000029
 30
0.0
 11
-193.22500000000002
 21
12.525000000000029
 31
0.0
  0
LINE
  8
0
 62
0
 10
-192.72500000000002
 20
3.5250000000000274
 30
0.0
 11
-192.72500000000002
 21
7.025000000000028
 31
0.0
  0
ARC
  8
0
 62
0
 10
-207.82500000000002
 20
16.525000000000052
 30
0.0
 40
0.49999999999997513
 50
89.99999999999675
 51
-180.0
  0
ARC
  8
0
 62
0
 10
-207.82500000000002
 20
13.025000000000006
 30
0.0
 40
0.4999999999999716
 50
180.0
 51
-89.99999999999675
  0
LINE
  8
0
 62
0
 10
-93.525
 20
12.525000000000029
 30
0.0
 11
-93.22500000000002
 21
12.525000000000029
 31
0.0
  0
LINE
  8
0
 62
0
 10
-155.125
 20
7.525000000000035
 30
0.0
 11
-155.425
 21
7.525000000000029
 31
0.0
  0
ARC
  8
0
 62
0
 10
-155.12500000000003
 20
3.5250000000000448
 30
0.0
 40
0.5000000000000182
 50
-89.99999999999675
 51
-0.0
  0
ARC
  8
0
 62
0
 10
-169.725
 20
3.5250000000000448
 30
0.0
 40
0.5000000000000284
 50
-180.0
 51
-90.00000000000325
  0
LINE
  8
0
 62
0
 10
-169.72500000000002
 20
12.525000000000029
 30
0.0
 11
-169.425
 21
12.525000000000029
 31
0.0
  0
ARC
  8
0
 62
0
 10
-169.725
 20
16.52500000000001
 30
0.0
 40
0.5000000000000178
 50
90.00000000000325
 51
180.0
  0
LINE
  8
0
 62
0
 10
-208.325
 20
7.025000000000028
 30
0.0
 11
-208.325
 21
3.5250000000000266
 31
0.0
  0
ARC
  8
0
 62
0
 10
-131.31125000000003
 20
73.675
 30
0.0
 40
0.5000000000000284
 50
0.0
 51
89.99999999999675
  0
LINE
  8
0
 62
0
 10
-9.868750000000002
 20
55.12500000000003
 30
0.0
 11
-24.46875
 21
55.12500000000003
 31
0.0
  0
ARC
  8
0
 62
0
 10
-188.46249999999998
 20
64.17500000000007
 30
0.0
 40
0.4999999999999716
 50
-0.0
 51
90.00000000000325
  0
LINE
  8
0
 62
0
 10
-92.7125
 20
51.125000000000036
 30
0.0
 11
-92.7125
 21
54.62500000000003
 31
0.0
  0
LINE
  8
0
 62
0
 10
-26.8375
 20
26.57500000000003
 30
0.0
 11
-26.8375
 21
31.57500000000003
 31
0.0
  0
LINE
  8
0
 62
0
 10
-130.81125
 20
70.17500000000003
 30
0.0
 11
-130.81125
 21
73.67500000000003
 31
0.0
  0
LINE
  8
0
 62
0
 10
-26.8375
 20
31.57500000000003
 30
0.0
 11
-26.5375
 21
31.57500000000003
 31
0.0
  0
LINE
  8
0
 62
0
 10
-41.137499999999996
 20
31.57500000000003
 30
0.0
 11
-40.837500000000006
 21
31.57500000000003
 31
0.0
  0
LINE
  8
0
 62
0
 10
-131.6125
 20
45.625000000000036
 30
0.0
 11
-131.6125
 21
50.625000000000036
 31
0.0
  0
LINE
  8
0
 62
0
 10
-21.775000000000002
 20
17.025000000000027
 30
0.0
 11
-36.375
 21
17.025000000000027
 31
0.0
  0
LINE
  8
0
 62
0
 10
-112.575
 20
3.0250000000000266
 30
0.0
 11
-97.975
 21
3.0250000000000266
 31
0.0
  0
CIRCLE
  8
0
 62
0
 10
-57.650000000000006
 20
8.775000000000029
 30
0.0
 40
0.75
  0
CIRCLE
  8
0
 62
0
 10
-114.80000000000001
 20
8.775000000000029
 30
0.0
 40
0.75
  0
CIRCLE
  8
0
 62
0
 10
-19.55
 20
8.775000000000029
 30
0.0
 40
0.75
  0
ARC
  8
0
 62
0
 10
-45.5875
 20
35.57500000000003
 30
0.0
 40
0.5
 50
-0.0
 51
90.0
  0
LINE
  8
0
 62
0
 10
-21.275
 20
13.025000000000029
 30
0.0
 11
-21.275
 21
16.525000000000027
 31
0.0
  0
LINE
  8
0
 62
0
 10
-22.075
 20
7.525000000000029
 30
0.0
 11
-22.075
 21
12.525000000000029
 31
0.0
  0
ARC
  8
0
 62
0
 10
-97.97499999999998
 20
3.525000000000018
 30
0.0
 40
0.49999999999999156
 50
-90.00000000000163
 51
0.0
  0
LINE
  8
0
 62
0
 10
-189.27499999999998
 20
16.525000000000027
 30
0.0
 11
-189.27499999999998
 21
13.025000000000029
 31
0.0
  0
LINE
  8
0
 62
0
 10
-188.4625
 20
64.67500000000003
 30
0.0
 11
-188.7625
 21
64.67500000000003
 31
0.0
  0
LINE
  8
0
 62
0
 10
-236.89999999999998
 20
35.57500000000003
 30
0.0
 11
-236.89999999999998
 21
32.07500000000003
 31
0.0
  0
ARC
  8
0
 62
0
 10
-55.1125
 20
45.12500000000003
 30
0.0
 40
0.5
 50
-0.0
 51
90.0
  0
ARC
  8
0
 62
0
 10
-136.3875
 20
22.575000000000028
 30
0.0
 40
0.5
 50
180.0
 51
-90.0
  0
LINE
  8
0
 62
0
 10
-188.7625
 20
64.67500000000003
 30
0.0
 11
-188.7625
 21
69.67500000000003
 31
0.0
  0
ARC
  8
0
 62
0
 10
-164.64875000000006
 20
60.675000000000104
 30
0.0
 40
0.5000000000000782
 50
-89.99999999999349
 51
-0.0
  0
ARC
  8
0
 62
0
 10
-2.725
 20
7.025000000000029
 30
0.0
 40
0.5000000000000009
 50
-0.0
 51
89.9999999999999
  0
LINE
  8
0
 62
0
 10
-184.01250000000002
 20
41.125000000000036
 30
0.0
 11
-169.4125
 21
41.125000000000036
 31
0.0
  0
LINE
  8
0
 62
0
 10
-2.224999999999999
 20
3.5250000000000274
 30
0.0
 11
-2.224999999999999
 21
7.025000000000028
 31
0.0
  0
LINE
  8
0
 62
0
 10
-155.13750000000002
 20
31.57500000000003
 30
0.0
 11
-155.13750000000002
 21
26.57500000000003
 31
0.0
  0
ARC
  8
0
 62
0
 10
-131.31124999999997
 20
70.17500000000003
 30
0.0
 40
0.5
 50
-90.0
 51
-0.0
  0
ARC
  8
0
 62
0
 10
-112.26249999999997
 20
41.62500000000002
 30
0.0
 40
0.4999999999999858
 50
-90.00000000000163
 51
0.0
  0
LINE
  8
0
 62
0
 10
-36.3625
 20
45.625000000000036
 30
0.0
 11
-36.3625
 21
50.625000000000036
 31
0.0
  0
ARC
  8
0
 62
0
 10
-145.9125
 20
45.125
 30
0.0
 40
0.5000000000000355
 50
90.0
 51
180.0
  0
ARC
  8
0
 62
0
 10
-207.82500000000002
 20
7.025000000000052
 30
0.0
 40
0.4999999999999769
 50
89.99999999999675
 51
-180.0
  0
ARC
  8
0
 62
0
 10
-207.51250000000005
 20
60.67500000000005
 30
0.0
 40
0.5000000000000213
 50
-89.99999999999675
 51
-0.0
  0
ARC
  8
0
 62
0
 10
-36.37625
 20
60.67500000000002
 30
0.0
 40
0.49999999999999645
 50
180.0
 51
-90.0
  0
ARC
  8
0
 62
0
 10
-21.775000000000002
 20
70.17500000000003
 30
0.0
 40
0.5
 50
-89.99999999999959
 51
-0.0
  0
ARC
  8
0
 62
0
 10
-203.06249999999997
 20
60.67500000000004
 30
0.0
 40
0.5000000000000284
 50
-180.0
 51
-90.00000000000651
  0
ARC
  8
0
 62
0
 10
-36.37625
 20
73.67500000000003
 30
0.0
 40
0.5
 50
90.0
 51
-180.0
  0
ARC
  8
0
 62
0
 10
-226.56250000000006
 20
60.675000000000054
 30
0.0
 40
0.5000000000000142
 50
-89.99999999999675
 51
-0.0
  0
ARC
  8
0
 62
0
 10
-117.3375
 20
26.075000000000028
 30
0.0
 40
0.5000000000000036
 50
90.0
 51
180.0
  0
LINE
  8
0
 62
0
 10
-174.47499999999997
 20
12.525000000000029
 30
0.0
 11
-174.175
 21
12.525000000000029
 31
0.0
  0
ARC
  8
0
 62
0
 10
-78.92500000000001
 20
3.5250000000000274
 30
0.0
 40
0.5000000000000009
 50
-90.0
 51
-0.0
  0
LINE
  8
0
 62
0
 10
-79.22500000000001
 20
12.525000000000029
 30
0.0
 11
-78.92500000000001
 21
12.525000000000029
 31
0.0
  0
ARC
  8
0
 62
0
 10
-69.71249999999999
 20
51.125000000000036
 30
0.0
 40
0.5
 50
-180.0
 51
-90.0
  0
CIRCLE
  8
0
 62
0
 10
-191.0
 20
8.775000000000029
 30
0.0
 40
0.75
  0
LINE
  8
0
 62
0
 10
-198.2875
 20
31.57500000000003
 30
0.0
 11
-197.9875
 21
31.57500000000003
 31
0.0
  0
ARC
  8
0
 62
0
 10
-145.9125
 20
51.12500000000007
 30
0.0
 40
0.5000000000000284
 50
-180.0
 51
-90.0
  0
LINE
  8
0
 62
0
 10
-59.887499999999996
 20
31.57500000000003
 30
0.0
 11
-59.887499999999996
 21
26.57500000000003
 31
0.0
  0
ARC
  8
0
 62
0
 10
-36.37499999999999
 20
16.52500000000002
 30
0.0
 40
0.5000000000000071
 50
90.00000000000081
 51
180.0
  0
LINE
  8
0
 62
0
 10
-169.72500000000002
 20
3.0250000000000266
 30
0.0
 11
-155.125
 21
3.0250000000000266
 31
0.0
  0
ARC
  8
0
 62
0
 10
-145.9125
 20
54.625000000000036
 30
0.0
 40
0.4999999999999929
 50
90.0
 51
-180.0
  0
LINE
  8
Exploded Slice004
 62
0
 10
-21.775000000000002
 20
74.17500000000003
 30
0.0
 11
-36.37625
 21
74.17500000000003
 31
0.0
  0
ARC
  8
0
 62
0
 10
-112.57500000000002
 20
16.52500000000002
 30
0.0
 40
0.5000000000000071
 50
89.99999999999837
 51
180.0
  0
LINE
  8
0
 62
0
 10
-112.275
 20
12.525000000000029
 30
0.0
 11
-112.275
 21
7.525000000000029
 31
0.0
  0
ARC
  8
0
 62
0
 10
-21.775
 20
16.525000000000023
 30
0.0
 40
0.5
 50
0.0
 51
90.00000000000041
  0
LINE
  8
0
 62
0
 10
-36.375
 20
3.0250000000000266
 30
0.0
 11
-21.775
 21
3.0250000000000266
 31
0.0
  0
LINE
  8
0
 62
0
 10
-98.275
 20
12.525000000000029
 30
0.0
 11
-97.975
 21
12.525000000000029
 31
0.0
  0
LINE
  8
0
 62
0
 10
-97.97500000000001
 20
17.025000000000034
 30
0.0
 11
-112.575
 21
17.025000000000027
 31
0.0
  0
ARC
  8
0
 62
0
 10
-112.57500000000002
 20
13.025000000000038
 30
0.0
 40
0.5
 50
-180.0
 51
-89.99999999999837
  0
ARC
  8
0
 62
0
 10
-21.775000000000002
 20
7.025000000000026
 30
0.0
 40
0.5000000000000036
 50
0.0
 51
89.99999999999959
  0
LINE
  8
0
 62
0
 10
-22.075
 20
12.525000000000029
 30
0.0
 11
-21.775
 21
12.525000000000029
 31
0.0
  0
LINE
  8
0
 62
0
 10
-60.1875
 20
31.57500000000003
 30
0.0
 11
-59.887499999999996
 21
31.57500000000003
 31
0.0
  0
LINE
  8
0
 62
0
 10
-189.27499999999998
 20
7.025000000000028
 30
0.0
 11
-189.27499999999998
 21
3.5250000000000266
 31
0.0
  0
ARC
  8
0
 62
0
 10
-45.587500000000006
 20
32.07500000000004
 30
0.0
 40
0.5000000000000071
 50
-89.99999999999919
 51
-0.0
  0
LINE
  8
0
 62
0
 10
-113.07500000000002
 20
7.025000000000028
 30
0.0
 11
-113.07500000000002
 21
3.5250000000000266
 31
0.0
  0
ARC
  8
0
 62
0
 10
-188.77499999999998
 20
3.525000000000013
 30
0.0
 40
0.5
 50
180.0
 51
-90.00000000000325
  0
ARC
  8
0
 62
0
 10
-112.57500000000002
 20
3.5250000000000346
 30
0.0
 40
0.5
 50
-180.0
 51
-89.99999999999837
  0
LINE
  8
0
 62
0
 10
-97.47500000000001
 20
13.025000000000029
 30
0.0
 11
-97.47500000000001
 21
16.525000000000027
 31
0.0
  0
LINE
  8
0
 62
0
 10
-36.875
 20
16.525000000000027
 30
0.0
 11
-36.875
 21
13.025000000000029
 31
0.0
  0
LINE
  8
0
 62
0
 10
-188.775
 20
3.0250000000000266
 30
0.0
 11
-174.175
 21
3.0250000000000266
 31
0.0
  0
ARC
  8
0
 62
0
 10
-174.17500000000004
 20
3.525000000000042
 30
0.0
 40
0.5000000000000155
 50
-89.99999999999675
 51
-0.0
  0
LINE
  8
0
 62
0
 10
-113.07500000000002
 20
16.525000000000027
 30
0.0
 11
-113.07500000000002
 21
13.025000000000029
 31
0.0
  0
ARC
  8
0
 62
0
 10
-60.1875
 20
32.07500000000003
 30
0.0
 40
0.5
 50
-180.0
 51
-90.0
  0
LINE
  8
0
 62
0
 10
-174.47499999999997
 20
7.525000000000029
 30
0.0
 11
-174.47499999999997
 21
12.525000000000029
 31
0.0
  0
ARC
  8
0
 62
0
 10
-174.17499999999998
 20
13.024999999999999
 30
0.0
 40
0.4999999999999698
 50
-90.00000000000325
 51
0.0
  0
LINE
  8
0
 62
0
 10
-45.0875
 20
32.07500000000003
 30
0.0
 11
-45.0875
 21
35.57500000000003
 31
0.0
  0
ARC
  8
0
 62
0
 10
-188.775
 20
13.025000000000006
 30
0.0
 40
0.4999999999999716
 50
180.0
 51
-89.99999999999675
  0
ARC
  8
0
 62
0
 10
-60.1875
 20
26.07500000000003
 30
0.0
 40
0.5
 50
90.0
 51
180.0
  0
LINE
  8
0
 62
0
 10
-21.775
 20
7.5250000000000306
 30
0.0
 11
-22.075
 21
7.525000000000029
 31
0.0
  0
LINE
  8
0
 62
0
 10
-36.075
 20
12.525000000000029
 30
0.0
 11
-36.075
 21
7.525000000000029
 31
0.0
  0
ARC
  8
0
 62
0
 10
-174.17499999999998
 20
16.525000000000063
 30
0.0
 40
0.4999999999999716
 50
-0.0
 51
90.00000000000325
  0
LINE
  8
0
 62
0
 10
-36.075
 20
7.525000000000029
 30
0.0
 11
-36.375
 21
7.525000000000029
 31
0.0
  0
LINE
  8
0
 62
0
 10
-59.887499999999996
 20
26.57500000000003
 30
0.0
 11
-60.1875
 21
26.57500000000003
 31
0.0
  0
ARC
  8
0
 62
0
 10
-188.775
 20
16.525000000000052
 30
0.0
 40
0.49999999999997513
 50
89.99999999999675
 51
-180.0
  0
LINE
  8
0
 62
0
 10
-45.5875
 20
36.075000000000024
 30
0.0
 11
-60.1875
 21
36.07500000000003
 31
0.0
  0
ARC
  8
0
 62
0
 10
-60.18749999999999
 20
35.575000000000024
 30
0.0
 40
0.5000000000000071
 50
90.00000000000081
 51
180.0
  0
ARC
  8
0
 62
0
 10
-21.775
 20
3.5250000000000266
 30
0.0
 40
0.5
 50
-90.0
 51
0.0
  0
LINE
  8
0
 62
0
 10
-36.375
 20
12.525000000000029
 30
0.0
 11
-36.075
 21
12.525000000000029
 31
0.0
  0
ARC
  8
0
 62
0
 10
-97.97499999999997
 20
7.0250000000000465
 30
0.0
 40
0.49999999999995737
 50
-0.0
 51
90.00000000000325
  0
LINE
  8
0
 62
0
 10
-97.975
 20
7.525000000000017
 30
0.0
 11
-98.275
 21
7.525000000000029
 31
0.0
  0
ARC
  8
0
 62
0
 10
-97.97500000000002
 20
13.025000000000052
 30
0.0
 40
0.5000000000000231
 50
-89.99999999999675
 51
-0.0
  0
LINE
  8
0
 62
0
 10
-173.675
 20
3.5250000000000274
 30
0.0
 11
-173.675
 21
7.025000000000028
 31
0.0
  0
LINE
  8
0
 62
0
 10
-173.675
 20
13.025000000000029
 30
0.0
 11
-173.675
 21
16.525000000000027
 31
0.0
  0
ARC
  8
0
 62
0
 10
-36.375
 20
7.025000000000029
 30
0.0
 40
0.5
 50
90.0
 51
-180.0
  0
LINE
  8
0
 62
0
 10
-174.175
 20
17.025000000000034
 30
0.0
 11
-188.77499999999998
 21
17.025000000000027
 31
0.0
  0
LINE
  8
0
 62
0
 10
-98.275
 20
7.525000000000029
 30
0.0
 11
-98.275
 21
12.525000000000029
 31
0.0
  0
LINE
  8
0
 62
0
 10
-112.575
 20
12.525000000000029
 30
0.0
 11
-112.275
 21
12.525000000000029
 31
0.0
  0
LINE
  8
0
 62
0
 10
-36.875
 20
7.025000000000028
 30
0.0
 11
-36.875
 21
3.5250000000000266
 31
0.0
  0
LINE
  8
0
 62
0
 10
-174.175
 20
7.525000000000035
 30
0.0
 11
-174.47499999999997
 21
7.525000000000029
 31
0.0
  0
ARC
  8
0
 62
0
 10
-21.775
 20
13.025000000000029
 30
0.0
 40
0.5
 50
-90.0
 51
-0.0
  0
LINE
  8
0
 62
0
 10
-21.275
 20
3.5250000000000274
 30
0.0
 11
-21.275
 21
7.025000000000028
 31
0.0
  0
LINE
  8
0
 62
0
 10
-60.6875
 20
35.57500000000003
 30
0.0
 11
-60.6875
 21
32.07500000000003
 31
0.0
  0
ARC
  8
0
 62
0
 10
-36.375
 20
13.025000000000029
 30
0.0
 40
0.5
 50
-180.0
 51
-90.0
  0
LINE
  8
0
 62
0
 10
-97.475
 20
3.5250000000000274
 30
0.0
 11
-97.47500000000001
 21
7.025000000000028
 31
0.0
  0
LINE
  8
Exploded Slice020
 62
0
 10
-226.56250000000003
 20
74.17500000000004
 30
0.0
 11
-241.16250000000002
 21
74.17500000000003
 31
0.0
  0
ARC
  8
0
 62
0
 10
-50.6625
 20
54.62500000000003
 30
0.0
 40
0.5
 50
90.0
 51
-180.0
  0
LINE
  8
0
 62
0
 10
-45.8875
 20
26.57500000000003
 30
0.0
 11
-45.8875
 21
31.57500000000003
 31
0.0
  0
ARC
  8
0
 62
0
 10
-112.26249999999999
 20
54.62500000000002
 30
0.0
 40
0.5
 50
0.0
 51
90.00000000000163
  0
LINE
  8
0
 62
0
 10
-136.8875
 20
35.57500000000003
 30
0.0
 11
-136.88750000000002
 21
32.07500000000003
 31
0.0
  0
LINE
  8
0
 62
0
 10
-111.76249999999999
 20
51.125000000000036
 30
0.0
 11
-111.76249999999999
 21
54.62500000000003
 31
0.0
  0
ARC
  8
0
 62
0
 10
-97.97500000000004
 20
16.525000000000013
 30
0.0
 40
0.5000000000000284
 50
0.0
 51
89.99999999999675
  0
LINE
  8
0
 62
0
 10
-203.06250000000003
 20
41.125000000000036
 30
0.0
 11
-188.4625
 21
41.125000000000036
 31
0.0
  0
LINE
  8
0
 62
0
 10
-45.5875
 20
26.57500000000003
 30
0.0
 11
-45.8875
 21
26.57500000000003
 31
0.0
  0
ARC
  8
0
 62
0
 10
-36.375
 20
3.5250000000000288
 30
0.0
 40
0.5
 50
-180.0
 51
-90.0
  0
ARC
  8
0
 62
0
 10
-126.86249999999998
 20
41.62500000000002
 30
0.0
 40
0.5
 50
180.0
 51
-90.00000000000163
  0
LINE
  8
0
 62
0
 10
-21.275
 20
60.675000000000026
 30
0.0
 11
-21.275
 21
64.17500000000003
 31
0.0
  0
LINE
  8
0
 62
0
 10
-219.71875
 20
7.525000000000029
 30
0.0
 11
-219.71875
 21
12.525000000000029
 31
0.0
  0
LINE
  8
0
 62
0
 10
-14.68487193946543
 20
82.69999999999999
 30
0.0
 11
-7.315128060534562
 21
82.69999999999999
 31
0.0
  0
LINE
  8
0
 62
0
 10
-233.71875000000003
 20
7.525000000000029
 30
0.0
 11
-234.01875000000004
 21
7.525000000000029
 31
0.0
  0
LINE
  8
0
 62
0
 10
-218.91875000000002
 20
3.5250000000000274
 30
0.0
 11
-218.91875000000002
 21
7.025000000000028
 31
0.0
  0
LINE
  8
0
 62
0
 10
-23.315128060534605
 20
0.5000000000000269
 30
0.0
 11
-220.57237193946546
 21
0.4999999999999999
 31
0.0
  0
ARC
  8
0
 62
0
 10
-219.41875000000005
 20
7.025000000000023
 30
0.0
 40
0.5000000000000284
 50
0.0
 51
90.0
  0
LINE
  8
0
 62
0
 10
-135.575
 20
3.5250000000000274
 30
0.0
 11
-135.57500000000002
 21
7.025000000000028
 31
0.0
  0
LINE
  8
0
 62
0
 10
-136.075
 20
7.525000000000035
 30
0.0
 11
-136.375
 21
7.525000000000029
 31
0.0
  0
LINE
  8
0
 62
0
 10
-98.28750000000001
 20
31.57500000000003
 30
0.0
 11
-97.98750000000001
 21
31.57500000000003
 31
0.0
  0
ARC
  8
0
 62
0
 10
-234.01874999999998
 20
16.525000000000023
 30
0.0
 40
0.5000000000000036
 50
90.00000000000651
 51
180.0
  0
LINE
  8
0
 62
0
 10
-1.283489360325984
 20
-0.5763825791394378
 30
0.0
 11
-5.423617420860562
 21
-4.716510639674015
 31
0.0
  0
ARC
  8
0
 62
0
 10
-14.684871939465426
 20
-2.824999999999998
 30
0.0
 40
2.675000000000002
 50
-134.99999999999997
 51
-90.00000000000011
  0
ARC
  8
0
 62
0
 10
-236.57237193946543
 20
80.025
 30
0.0
 40
2.6749999999999834
 50
90.0
 51
135.00000000000023
  0
LINE
  8
0
 62
0
 10
-242.60401063967404
 20
77.77638257913941
 30
0.0
 11
-238.46388257913944
 21
81.916510639674
 31
0.0
  0
ARC
  8
0
 62
0
 10
-229.20262806053458
 20
80.02499999999999
 30
0.0
 40
2.674999999999983
 50
45.00000000000001
 51
90.0
  0
LINE
  8
0
 62
0
 10
-220.57237193946548
 20
76.7
 30
0.0
 11
-23.315128060534533
 21
76.7
 31
0.0
  0
ARC
  8
0
 62
0
 10
-23.31512806053454
 20
80.37500000000001
 30
0.0
 40
3.6750000000000114
 50
-89.9999999999999
 51
-44.999999999999844
  0
ARC
  8
0
 62
0
 10
-229.2026280605346
 20
-2.8250000000000015
 30
0.0
 40
2.6750000000000185
 50
-89.99999999999939
 51
-44.99999999999967
  0
LINE
  8
0
 62
0
 10
-20.716510639673963
 20
77.77638257913945
 30
0.0
 11
-16.576382579139445
 21
81.916510639674
 31
0.0
  0
LINE
  8
0
 62
0
 10
-234.51875
 20
7.025000000000028
 30
0.0
 11
-234.51875
 21
3.5250000000000266
 31
0.0
  0
LINE
  8
0
 62
0
 10
-223.13896148900704
 20
-0.5443547078205241
 30
0.0
 11
-227.31111742086057
 21
-4.716510639674018
 31
0.0
  0
ARC
  8
0
 62
0
 10
-7.315128060534559
 20
80.02499999999999
 30
0.0
 40
2.674999999999997
 50
44.9999999999999
 51
90.00000000000006
  0
ARC
  8
0
 62
0
 10
-234.01874999999998
 20
3.5250000000000306
 30
0.0
 40
0.5000000000000284
 50
-180.0
 51
-90.00000000000651
  0
LINE
  8
0
 62
0
 10
-234.01875000000004
 20
3.0250000000000266
 30
0.0
 11
-219.41875000000005
 21
3.0250000000000266
 31
0.0
  0
ARC
  8
0
 62
0
 10
-219.4187500000001
 20
3.5250000000001007
 30
0.0
 40
0.5000000000000742
 50
-89.99999999999349
 51
-0.0
  0
ARC
  8
0
 62
0
 10
-240.71250000000003
 20
75.88487193946541
 30
0.0
 40
2.674999999999983
 50
135.00000000000023
 51
-180.0
  0
LINE
  8
0
 62
0
 10
-229.20262806053458
 20
-5.5
 30
0.0
 11
-236.57237193946546
 21
-5.5000000000000036
 31
0.0
  0
LINE
  8
0
 62
0
 10
-227.31111742086057
 20
81.916510639674
 30
0.0
 11
-223.17098936032608
 21
77.77638257913947
 31
0.0
  0
LINE
  8
0
 62
0
 10
-7.315128060534581
 20
-5.5
 30
0.0
 11
-14.684871939465431
 21
-5.5
 31
0.0
  0
CIRCLE
  8
0
 62
0
 10
-232.88762806053458
 20
79.94999999999999
 30
0.0
 40
1.25
  0
CIRCLE
  8
0
 62
0
 10
-10.999871939465429
 20
-2.75
 30
0.0
 40
1.25
  0
ARC
  8
0
 62
0
 10
-220.5624999999976
 20
0.17499999998858606
 30
0.0
 40
2.6749999999992204
 50
-164.40012925574777
 51
-164.3933141109459
  0
CIRCLE
  8
0
 62
0
 10
-232.88737193946545
 20
-2.7500000000000013
 30
0.0
 40
1.25
  0
LINE
  8
0
 62
0
 10
-219.41875000000005
 20
7.525000000000035
 30
0.0
 11
-219.71875
 21
7.525000000000029
 31
0.0
  0
LINE
  8
0
 62
0
 10
-219.71875
 20
12.525000000000029
 30
0.0
 11
-219.41875000000005
 21
12.525000000000029
 31
0.0
  0
CIRCLE
  8
0
 62
0
 10
-11.000128060534564
 20
79.94999999999999
 30
0.0
 40
1.25
  0
LINE
  8
0
 62
0
 10
-218.91875000000002
 20
13.025000000000029
 30
0.0
 11
-218.91875000000002
 21
16.525000000000027
 31
0.0
  0
LINE
  8
0
 62
0
 10
-236.57237193946543
 20
82.69999999999999
 30
0.0
 11
-229.20262806053458
 21
82.69999999999997
 31
0.0
  0
ARC
  8
0
 62
0
 10
-220.57237193946546
 20
80.3750000000001
 30
0.0
 40
3.675000000000092
 50
-134.99999999999986
 51
-90.00000000000044
  0
ARC
  8
0
 62
0
 10
-14.684871939465427
 20
80.02499999999999
 30
0.0
 40
2.6749999999999985
 50
90.00000000000004
 51
135.0000000000001
  0
ARC
  8
0
 62
0
 10
-219.41875000000002
 20
13.025000000000022
 30
0.0
 40
0.4999999999999929
 50
-90.00000000000325
 51
0.0
  0
ARC
  8
0
 62
0
 10
-219.41875000000002
 20
16.52500000000004
 30
0.0
 40
0.5
 50
-0.0
 51
90.00000000000325
  0
LINE
  8
0
 62
0
 10
-219.41875000000005
 20
17.025000000000034
 30
0.0
 11
-234.01875000000004
 21
17.025000000000027
 31
0.0
  0
LINE
  8
0
 62
0
 10
-234.51875
 20
16.525000000000027
 30
0.0
 11
-234.51875
 21
13.025000000000029
 31
0.0
  0
ARC
  8
0
 62
0
 10
-234.01874999999998
 20
13.025000000000052
 30
0.0
 40
0.5000000000000284
 50
-180.0
 51
-90.00000000000651
  0
ARC
  8
0
 62
0
 10
-234.01874999999998
 20
7.025000000000024
 30
0.0
 40
0.5000000000000044
 50
90.00000000000651
 51
180.0
  0
LINE
  8
0
 62
0
 10
-151.175
 20
7.025000000000028
 30
0.0
 11
-151.175
 21
3.5250000000000266
 31
0.0
  0
ARC
  8
0
 62
0
 10
-150.675
 20
3.5250000000000234
 30
0.0
 40
0.5
 50
180.0
 51
-90.0
  0
LINE
  8
0
 62
0
 10
-150.675
 20
3.0250000000000266
 30
0.0
 11
-136.075
 21
3.0250000000000266
 31
0.0
  0
ARC
  8
0
 62
0
 10
-136.07500000000002
 20
3.5250000000000448
 30
0.0
 40
0.5000000000000182
 50
-89.99999999999675
 51
-0.0
  0
ARC
  8
0
 62
0
 10
-136.075
 20
7.02500000000004
 30
0.0
 40
0.4999999999999716
 50
-0.0
 51
90.0
  0
ARC
  8
0
 62
0
 10
-98.28749999999998
 20
35.575000000000024
 30
0.0
 40
0.5000000000000071
 50
90.00000000000325
 51
180.0
  0
LINE
  8
0
 62
0
 10
-97.98750000000001
 20
31.57500000000003
 30
0.0
 11
-97.98750000000001
 21
26.57500000000003
 31
0.0
  0
LINE
  8
0
 62
0
 10
-74.175
 20
12.525000000000029
 30
0.0
 11
-74.175
 21
7.525000000000029
 31
0.0
  0
LINE
  8
0
 62
0
 10
-4.606250000000001
 20
22.575000000000035
 30
0.0
 11
-4.606249999999999
 21
26.075000000000035
 31
0.0
  0
LINE
  8
0
 62
0
 10
-5.106249999999999
 20
26.57500000000003
 30
0.0
 11
-5.406249999999999
 21
26.57500000000003
 31
0.0
  0
LINE
  8
0
 62
0
 10
-5.406249999999999
 20
31.57500000000003
 30
0.0
 11
-5.106249999999999
 21
31.57500000000003
 31
0.0
  0
LINE
  8
0
 62
0
 10
-4.6062499999999975
 20
32.07500000000003
 30
0.0
 11
-4.606249999999999
 21
35.57500000000003
 31
0.0
  0
ARC
  8
0
 62
0
 10
-19.706249999999997
 20
22.575000000000028
 30
0.0
 40
0.5
 50
180.0
 51
-90.00000000000041
  0
LINE
  8
0
 62
0
 10
-5.406249999999999
 20
26.57500000000003
 30
0.0
 11
-5.406249999999999
 21
31.57500000000003
 31
0.0
  0
LINE
  8
0
 62
0
 10
-151.175
 20
16.525000000000027
 30
0.0
 11
-151.175
 21
13.025000000000029
 31
0.0
  0
ARC
  8
0
 62
0
 10
-150.67499999999998
 20
7.02500000000001
 30
0.0
 40
0.5000000000000187
 50
90.00000000000325
 51
180.0
  0
LINE
  8
0
 62
0
 10
-83.18750000000001
 20
32.07500000000003
 30
0.0
 11
-83.18750000000001
 21
35.57500000000003
 31
0.0
  0
ARC
  8
0
 62
0
 10
-74.475
 20
7.025000000000016
 30
0.0
 40
0.5000000000000124
 50
90.0
 51
180.0
  0
ARC
  8
0
 62
0
 10
-150.67499999999998
 20
16.52500000000001
 30
0.0
 40
0.5000000000000178
 50
90.00000000000325
 51
180.0
  0
LINE
  8
0
 62
0
 10
-20.206249999999997
 20
26.075000000000035
 30
0.0
 11
-20.206249999999997
 21
22.57500000000003
 31
0.0
  0
ARC
  8
0
 62
0
 10
-59.875
 20
16.525000000000023
 30
0.0
 40
0.5
 50
0.0
 51
90.0
  0
LINE
  8
0
 62
0
 10
-150.375
 20
7.525000000000029
 30
0.0
 11
-150.675
 21
7.525000000000029
 31
0.0
  0
ARC
  8
0
 62
0
 10
-5.106249999999996
 20
22.575000000000024
 30
0.0
 40
0.4999999999999929
 50
-90.00000000000041
 51
0.0
  0
ARC
  8
0
 62
0
 10
-5.106250000000001
 20
32.07500000000003
 30
0.0
 40
0.5
 50
-89.9999999999998
 51
-0.0
  0
LINE
  8
0
 62
0
 10
-20.206249999999997
 20
35.57500000000003
 30
0.0
 11
-20.206249999999997
 21
32.07500000000003
 31
0.0
  0
ARC
  8
0
 62
0
 10
-19.706249999999997
 20
35.57500000000003
 30
0.0
 40
0.5
 50
90.0
 51
-180.0
  0
LINE
  8
0
 62
0
 10
-19.40625
 20
26.57500000000003
 30
0.0
 11
-19.706249999999997
 21
26.57500000000003
 31
0.0
  0
LINE
  8
0
 62
0
 10
-136.07500000000002
 20
17.025000000000034
 30
0.0
 11
-150.675
 21
17.025000000000027
 31
0.0
  0
ARC
  8
0
 62
0
 10
-59.875
 20
7.025000000000027
 30
0.0
 40
0.5
 50
0.0
 51
90.0
  0
LINE
  8
0
 62
0
 10
-60.175
 20
12.525000000000029
 30
0.0
 11
-59.875
 21
12.525000000000029
 31
0.0
  0
LINE
  8
0
 62
0
 10
-150.375
 20
12.525000000000029
 30
0.0
 11
-150.375
 21
7.525000000000029
 31
0.0
  0
LINE
  8
0
 62
0
 10
-59.875
 20
7.525000000000026
 30
0.0
 11
-60.175
 21
7.525000000000029
 31
0.0
  0
LINE
  8
0
 62
0
 10
-59.875
 20
17.025000000000023
 30
0.0
 11
-74.475
 21
17.025000000000027
 31
0.0
  0
LINE
  8
0
 62
0
 10
-74.475
 20
3.0250000000000266
 30
0.0
 11
-59.875
 21
3.0250000000000266
 31
0.0
  0
LINE
  8
0
 62
0
 10
-150.675
 20
12.525000000000029
 30
0.0
 11
-150.375
 21
12.525000000000029
 31
0.0
  0
ARC
  8
0
 62
0
 10
-74.475
 20
16.525000000000023
 30
0.0
 40
0.5000000000000036
 50
90.0
 51
180.0
  0
LINE
  8
0
 62
0
 10
-74.97500000000001
 20
7.025000000000028
 30
0.0
 11
-74.975
 21
3.5250000000000266
 31
0.0
  0
ARC
  8
0
 62
0
 10
-74.475
 20
3.5250000000000252
 30
0.0
 40
0.5
 50
180.0
 51
-90.0
  0
LINE
  8
0
 62
0
 10
-19.70625
 20
22.07500000000003
 30
0.0
 11
-5.106249999999999
 21
22.07500000000003
 31
0.0
  0
ARC
  8
0
 62
0
 10
-19.706249999999994
 20
32.07500000000004
 30
0.0
 40
0.5000000000000036
 50
-180.0
 51
-90.00000000000041
  0
ARC
  8
0
 62
0
 10
-19.706249999999994
 20
26.075000000000028
 30
0.0
 40
0.5000000000000036
 50
90.00000000000041
 51
180.0
  0
ARC
  8
0
 62
0
 10
-136.07500000000002
 20
16.52500000000003
 30
0.0
 40
0.5
 50
-0.0
 51
90.0
  0
LINE
  8
0
 62
0
 10
-60.175
 20
7.525000000000029
 30
0.0
 11
-60.175
 21
12.525000000000029
 31
0.0
  0
ARC
  8
0
 62
0
 10
-74.475
 20
13.025000000000027
 30
0.0
 40
0.5
 50
180.0
 51
-90.0
  0
ARC
  8
0
 62
0
 10
-150.67499999999998
 20
13.025000000000048
 30
0.0
 40
0.5000000000000284
 50
-180.0
 51
-90.00000000000325
  0
LINE
  8
0
 62
0
 10
-59.375
 20
3.5250000000000274
 30
0.0
 11
-59.375
 21
7.025000000000028
 31
0.0
  0
ARC
  8
0
 62
0
 10
-59.875
 20
3.5250000000000274
 30
0.0
 40
0.5000000000000009
 50
-90.0
 51
-0.0
  0
LINE
  8
0
 62
0
 10
-74.475
 20
12.525000000000029
 30
0.0
 11
-74.175
 21
12.525000000000029
 31
0.0
  0
LINE
  8
0
 62
0
 10
-74.175
 20
7.525000000000029
 30
0.0
 11
-74.475
 21
7.525000000000029
 31
0.0
  0
ARC
  8
0
 62
0
 10
-5.106249999999997
 20
26.07500000000003
 30
0.0
 40
0.49999999999999734
 50
0.0
 51
90.0000000000003
  0
LINE
  8
0
 62
0
 10
-19.706249999999997
 20
31.57500000000003
 30
0.0
 11
-19.40625
 21
31.57500000000003
 31
0.0
  0
LINE
  8
0
 62
0
 10
-19.40625
 20
31.57500000000003
 30
0.0
 11
-19.40625
 21
26.57500000000003
 31
0.0
  0
LINE
  8
0
 62
0
 10
-98.78750000000002
 20
26.075000000000035
 30
0.0
 11
-98.7875
 21
22.57500000000003
 31
0.0
  0
ARC
  8
0
 62
0
 10
-83.6875
 20
22.575000000000028
 30
0.0
 40
0.49999999999999645
 50
-90.0
 51
0.0
  0
ARC
  8
0
 62
0
 10
-83.68750000000001
 20
26.07500000000004
 30
0.0
 40
0.5
 50
-0.0
 51
89.99999999999837
  0
ARC
  8
0
 62
0
 10
-83.68750000000001
 20
32.07500000000004
 30
0.0
 40
0.5000000000000071
 50
-89.99999999999837
 51
-0.0
  0
ARC
  8
0
 62
0
 10
-83.68750000000001
 20
35.57500000000004
 30
0.0
 40
0.5
 50
-0.0
 51
90.00000000000163
  0
ARC
  8
0
 62
0
 10
-98.28750000000001
 20
26.075000000000003
 30
0.0
 40
0.5000000000000284
 50
90.0
 51
180.0
  0
LINE
  8
0
 62
0
 10
-164.94875000000002
 20
69.67500000000003
 30
0.0
 11
-164.64875
 21
69.67500000000003
 31
0.0
  0
ARC
  8
0
 62
0
 10
-145.9125
 20
73.67500000000003
 30
0.0
 40
0.5
 50
90.0
 51
-180.0
  0
LINE
  8
0
 62
0
 10
-222.1125
 20
50.625000000000036
 30
0.0
 11
-221.81250000000003
 21
50.625000000000036
 31
0.0
  0
LINE
  8
0
 62
0
 10
-145.6125
 20
69.67500000000003
 30
0.0
 11
-145.6125
 21
64.67500000000003
 31
0.0
  0
LINE
  8
0
 62
0
 10
-164.94875000000002
 20
64.67500000000003
 30
0.0
 11
-164.94875000000002
 21
69.67500000000003
 31
0.0
  0
LINE
  8
0
 62
0
 10
-221.81250000000003
 20
45.625000000000036
 30
0.0
 11
-222.1125
 21
45.625000000000036
 31
0.0
  0
LINE
  8
0
 62
0
 10
-145.6125
 20
64.67500000000003
 30
0.0
 11
-145.9125
 21
64.67500000000003
 31
0.0
  0
LINE
  8
0
 62
0
 10
-164.14874999999998
 20
60.675000000000026
 30
0.0
 11
-164.14874999999998
 21
64.17500000000003
 31
0.0
  0
ARC
  8
0
 62
0
 10
-145.91250000000002
 20
64.175
 30
0.0
 40
0.5000000000000284
 50
89.99999999999675
 51
180.0
  0
LINE
  8
0
 62
0
 10
-164.14874999999998
 20
70.17500000000003
 30
0.0
 11
-164.14874999999998
 21
73.67500000000003
 31
0.0
  0
LINE
  8
0
 62
0
 10
-145.9125
 20
69.67500000000003
 30
0.0
 11
-145.6125
 21
69.67500000000003
 31
0.0
  0
ARC
  8
0
 62
0
 10
-222.11250000000004
 20
51.125000000000014
 30
0.0
 40
0.4999999999999716
 50
180.0
 51
-89.99999999999675
  0
ARC
  8
0
 62
0
 10
-145.9125
 20
70.17500000000005
 30
0.0
 40
0.5000000000000284
 50
-180.0
 51
-90.0
  0
LINE
  8
0
 62
0
 10
-221.81250000000003
 20
50.625000000000036
 30
0.0
 11
-221.81250000000003
 21
45.625000000000036
 31
0.0
  0
ARC
  8
0
 62
0
 10
-145.9125
 20
60.675000000000026
 30
0.0
 40
0.5
 50
-180.0
 51
-90.0
  0
ARC
  8
0
 62
0
 10
-222.11250000000004
 20
45.12500000000006
 30
0.0
 40
0.4999999999999787
 50
89.99999999999675
 51
-180.0
  0
ARC
  8
0
 62
0
 10
-164.64874999999998
 20
64.17500000000004
 30
0.0
 40
0.5
 50
-0.0
 51
90.00000000000325
  0
ARC
  8
0
 62
0
 10
-164.64875000000006
 20
70.1750000000001
 30
0.0
 40
0.500000000000071
 50
-89.99999999999349
 51
-0.0
  0
ARC
  8
0
 62
0
 10
-164.64874999999998
 20
73.67500000000004
 30
0.0
 40
0.5
 50
-0.0
 51
90.00000000000325
  0
LINE
  8
0
 62
0
 10
-151.7625
 20
59.20500000000003
 30
0.0
 11
-149.4625
 21
59.20500000000001
 31
0.0
  0
ARC
  8
0
 62
0
 10
-149.46250000000003
 20
59.70500000000001
 30
0.0
 40
0.5
 50
-89.99999999999675
 51
-0.0
  0
LINE
  8
0
 62
0
 10
-148.96250000000003
 20
59.70500000000001
 30
0.0
 11
-148.9625
 21
59.905000000000015
 31
0.0
  0
ARC
  8
0
 62
0
 10
-148.46249999999998
 20
59.90499999999999
 30
0.0
 40
0.5000000000000284
 50
90.00000000000325
 51
180.0
  0
LINE
  8
0
 62
0
 10
-147.2375
 20
60.405000000000015
 30
0.0
 11
-147.2375
 21
72.70500000000001
 31
0.0
  0
LINE
  8
0
 62
0
 10
-148.4625
 20
60.405000000000015
 30
0.0
 11
-147.2375
 21
60.405000000000015
 31
0.0
  0
LINE
  8
0
 62
0
 10
-152.2625
 20
59.905000000000015
 30
0.0
 11
-152.2625
 21
59.70500000000001
 31
0.0
  0
ARC
  8
0
 62
0
 10
-151.76250000000002
 20
59.70500000000001
 30
0.0
 40
0.4999999999999716
 50
-180.0
 51
-89.99999999999675
  0
ARC
  8
0
 62
0
 10
-152.7625
 20
59.90499999999999
 30
0.0
 40
0.5000000000000284
 50
0.0
 51
90.00000000000325
  0
LINE
  8
0
 62
0
 10
-153.9875
 20
72.70500000000001
 30
0.0
 11
-153.9875
 21
60.405000000000015
 31
0.0
  0
LINE
  8
0
 62
0
 10
-147.2375
 20
72.70500000000001
 30
0.0
 11
-153.9875
 21
72.70500000000001
 31
0.0
  0
LINE
  8
Exploded Slice014
 62
0
 10
-2.725000000000002
 20
74.17500000000003
 30
0.0
 11
-17.326249999999998
 21
74.17500000000003
 31
0.0
  0
LINE
  8
Exploded Slice013
 62
0
 10
-40.825
 20
74.17500000000003
 30
0.0
 11
-55.426249999999996
 21
74.17500000000003
 31
0.0
  0
LINE
  8
0
 62
0
 10
-10.16875
 20
45.625000000000036
 30
0.0
 11
-10.16875
 21
50.625000000000036
 31
0.0
  0
LINE
  8
0
 62
0
 10
-16.57638257913944
 20
-4.716510639674015
 30
0.0
 11
-20.71651063967402
 21
-0.5763825791394167
 31
0.0
  0
ARC
  8
0
 62
0
 10
-23.315128060534605
 20
-3.175000000000009
 30
0.0
 40
3.6750000000000376
 50
45.00000000000009
 51
90.0
  0
ARC
  8
0
 62
0
 10
-193.225
 20
16.525000000000063
 30
0.0
 40
0.4999999999999716
 50
-0.0
 51
90.00000000000325
  0
LINE
  8
0
 62
0
 10
-192.72500000000002
 20
13.025000000000029
 30
0.0
 11
-192.72500000000002
 21
16.525000000000027
 31
0.0
  0
LINE
  8
0
 62
0
 10
-193.22500000000002
 20
17.025000000000034
 30
0.0
 11
-207.825
 21
17.025000000000027
 31
0.0
  0
LINE
  8
0
 62
0
 10
-136.0875
 20
31.57500000000003
 30
0.0
 11
-136.0875
 21
26.57500000000003
 31
0.0
  0
LINE
  8
0
 62
0
 10
-40.325
 20
13.025000000000029
 30
0.0
 11
-40.325
 21
16.525000000000027
 31
0.0
  0
ARC
  8
0
 62
0
 10
-203.06250000000003
 20
51.125000000000014
 30
0.0
 40
0.4999999999999716
 50
180.0
 51
-89.99999999999675
  0
LINE
  8
0
 62
0
 10
-55.92500000000001
 20
16.525000000000027
 30
0.0
 11
-55.92500000000001
 21
13.025000000000029
 31
0.0
  0
ARC
  8
0
 62
0
 10
-55.425000000000004
 20
16.52500000000002
 30
0.0
 40
0.5000000000000071
 50
90.0
 51
180.0
  0
LINE
  8
0
 62
0
 10
-40.82500000000002
 20
17.025000000000034
 30
0.0
 11
-55.425000000000004
 21
17.025000000000027
 31
0.0
  0
ARC
  8
0
 62
0
 10
-40.82500000000001
 20
16.52500000000003
 30
0.0
 40
0.5000000000000071
 50
-0.0
 51
90.00000000000081
  0
ARC
  8
0
 62
0
 10
-55.42500000000002
 20
13.025000000000025
 30
0.0
 40
0.4999999999999929
 50
180.0
 51
-89.99999999999837
  0
ARC
  8
0
 62
0
 10
-98.2875
 20
22.57500000000002
 30
0.0
 40
0.5
 50
180.0
 51
-90.00000000000163
  0
LINE
  8
0
 62
0
 10
-174.1875
 20
26.57500000000003
 30
0.0
 11
-174.4875
 21
26.57500000000003
 31
0.0
  0
ARC
  8
0
 62
0
 10
-136.38749999999996
 20
35.57500000000002
 30
0.0
 40
0.5000000000000142
 50
90.00000000000325
 51
180.0
  0
LINE
  8
0
 62
0
 10
-236.1
 20
31.57500000000003
 30
0.0
 11
-236.1
 21
26.57500000000003
 31
0.0
  0
LINE
  8
0
 62
0
 10
-126.5625
 20
50.625000000000036
 30
0.0
 11
-126.5625
 21
45.625000000000036
 31
0.0
  0
LINE
  8
0
 62
0
 10
-203.5625
 20
64.17500000000003
 30
0.0
 11
-203.5625
 21
60.675000000000026
 31
0.0
  0
LINE
  8
0
 62
0
 10
-79.2375
 20
31.57500000000003
 30
0.0
 11
-78.9375
 21
31.57500000000003
 31
0.0
  0
ARC
  8
0
 62
0
 10
-155.43749999999997
 20
26.074999999999996
 30
0.0
 40
0.5000000000000355
 50
90.00000000000325
 51
180.0
  0
LINE
  8
0
 62
0
 10
-140.3375
 20
22.575000000000035
 30
0.0
 11
-140.3375
 21
26.075000000000035
 31
0.0
  0
LINE
  8
0
 62
0
 10
-154.62500000000003
 20
13.025000000000029
 30
0.0
 11
-154.62500000000003
 21
16.525000000000027
 31
0.0
  0
ARC
  8
0
 62
0
 10
-117.02499999999999
 20
3.525000000000052
 30
0.0
 40
0.5000000000000253
 50
-90.0
 51
-0.0
  0
LINE
  8
0
 62
0
 10
-169.425
 20
12.525000000000029
 30
0.0
 11
-169.425
 21
7.525000000000029
 31
0.0
  0
LINE
  8
0
 62
0
 10
-207.51250000000002
 20
45.625000000000036
 30
0.0
 11
-207.8125
 21
45.625000000000036
 31
0.0
  0
ARC
  8
0
 62
0
 10
-155.12500000000003
 20
16.52500000000003
 30
0.0
 40
0.5
 50
-0.0
 51
90.0
  0
LINE
  8
0
 62
0
 10
-146.41250000000002
 20
45.12500000000003
 30
0.0
 11
-146.4125
 21
41.62500000000003
 31
0.0
  0
LINE
  8
0
 62
0
 10
-78.9375
 20
31.57500000000003
 30
0.0
 11
-78.9375
 21
26.57500000000003
 31
0.0
  0
LINE
  8
0
 62
0
 10
-155.12500000000003
 20
17.025000000000034
 30
0.0
 11
-169.72500000000002
 21
17.025000000000027
 31
0.0
  0
LINE
  8
0
 62
0
 10
-121.2875
 20
22.575000000000035
 30
0.0
 11
-121.2875
 21
26.075000000000035
 31
0.0
  0
LINE
  8
0
 62
0
 10
-40.837500000000006
 20
31.57500000000003
 30
0.0
 11
-40.837500000000006
 21
26.57500000000003
 31
0.0
  0
ARC
  8
0
 62
0
 10
-207.51250000000005
 20
41.62500000000005
 30
0.0
 40
0.5000000000000142
 50
-89.99999999999675
 51
-0.0
  0
ARC
  8
0
 62
0
 10
-121.78750000000001
 20
26.07500000000003
 30
0.0
 40
0.5000000000000142
 50
0.0
 51
89.99999999999837
  0
LINE
  8
0
 62
0
 10
-117.325
 20
7.525000000000029
 30
0.0
 11
-117.325
 21
12.525000000000029
 31
0.0
  0
ARC
  8
0
 62
0
 10
-193.225
 20
13.024999999999999
 30
0.0
 40
0.4999999999999698
 50
-90.00000000000325
 51
0.0
  0
ARC
  8
0
 62
0
 10
-150.3625
 20
51.12500000000003
 30
0.0
 40
0.4999999999999929
 50
-89.99999999999675
 51
0.0
  0
ARC
  8
0
 62
0
 10
-159.88749999999996
 20
26.07500000000006
 30
0.0
 40
0.49999999999994316
 50
-0.0
 51
90.00000000000325
  0
ARC
  8
0
 62
0
 10
-241.16249999999997
 20
54.624999999999964
 30
0.0
 40
0.500000000000064
 50
90.00000000000651
 51
180.0
  0
LINE
  8
0
 62
0
 10
-74.4625
 20
50.625000000000036
 30
0.0
 11
-74.16250000000001
 21
50.625000000000036
 31
0.0
  0
LINE
  8
0
 62
0
 10
-150.6625
 20
45.625000000000036
 30
0.0
 11
-150.6625
 21
50.625000000000036
 31
0.0
  0
LINE
  8
0
 62
0
 10
-165.4625
 20
54.62500000000003
 30
0.0
 11
-165.4625
 21
51.125000000000036
 31
0.0
  0
LINE
  8
0
 62
0
 10
-149.86249999999998
 20
41.62500000000003
 30
0.0
 11
-149.8625
 21
45.12500000000003
 31
0.0
  0
LINE
  8
0
 62
0
 10
-226.06250000000003
 20
60.675000000000026
 30
0.0
 11
-226.06250000000003
 21
64.17500000000003
 31
0.0
  0
LINE
  8
0
 62
0
 10
-174.9875
 20
35.57500000000003
 30
0.0
 11
-174.9875
 21
32.07500000000003
 31
0.0
  0
ARC
  8
0
 62
0
 10
-150.36249999999998
 20
45.12500000000005
 30
0.0
 40
0.4999999999999716
 50
-0.0
 51
90.0
  0
ARC
  8
0
 62
0
 10
-241.16250000000005
 20
45.12500000000006
 30
0.0
 40
0.4999999999999787
 50
89.99999999999675
 51
-180.0
  0
LINE
  8
0
 62
0
 10
-88.4625
 20
45.625000000000036
 30
0.0
 11
-88.7625
 21
45.625000000000036
 31
0.0
  0
ARC
  8
0
 62
0
 10
-150.36249999999998
 20
41.62500000000002
 30
0.0
 40
0.4999999999999858
 50
-90.0
 51
0.0
  0
ARC
  8
0
 62
0
 10
-174.48750000000004
 20
22.575
 30
0.0
 40
0.4999999999999716
 50
180.0
 51
-89.99999999999675
  0
LINE
  8
0
 62
0
 10
-241.16250000000005
 20
41.125000000000036
 30
0.0
 11
-226.56250000000003
 21
41.125000000000036
 31
0.0
  0
ARC
  8
0
 62
0
 10
-241.1625
 20
41.625000000000036
 30
0.0
 40
0.5000000000000284
 50
-180.0
 51
-90.00000000000651
  0
LINE
  8
0
 62
0
 10
-174.4875
 20
31.57500000000003
 30
0.0
 11
-174.1875
 21
31.57500000000003
 31
0.0
  0
ARC
  8
0
 62
0
 10
-174.48750000000004
 20
35.57500000000007
 30
0.0
 40
0.4999999999999645
 50
89.99999999999675
 51
-180.0
  0
LINE
  8
0
 62
0
 10
-226.56250000000003
 20
64.67500000000004
 30
0.0
 11
-226.8625
 21
64.67500000000004
 31
0.0
  0
LINE
  8
0
 62
0
 10
-226.8625
 20
64.67500000000004
 30
0.0
 11
-226.8625
 21
69.67500000000004
 31
0.0
  0
LINE
  8
0
 62
0
 10
-159.8875
 20
26.575000000000024
 30
0.0
 11
-160.1875
 21
26.57500000000003
 31
0.0
  0
LINE
  8
0
 62
0
 10
-241.66250000000002
 20
54.62500000000003
 30
0.0
 11
-241.66250000000002
 21
51.125000000000036
 31
0.0
  0
LINE
  8
0
 62
0
 10
-240.86250000000004
 20
50.625000000000036
 30
0.0
 11
-240.86250000000004
 21
45.625000000000036
 31
0.0
  0
ARC
  8
0
 62
0
 10
-226.56250000000006
 20
60.675000000000054
 30
0.0
 40
0.5000000000000142
 50
-89.99999999999675
 51
-0.0
  0
LINE
  8
0
 62
0
 10
-160.1875
 20
31.57500000000003
 30
0.0
 11
-159.8875
 21
31.57500000000003
 31
0.0
  0
LINE
  8
0
 62
0
 10
-164.9625
 20
41.125000000000036
 30
0.0
 11
-150.36249999999998
 21
41.125000000000036
 31
0.0
  0
ARC
  8
0
 62
0
 10
-164.96249999999998
 20
54.62500000000001
 30
0.0
 40
0.5000000000000213
 50
90.00000000000325
 51
180.0
  0
ARC
  8
0
 62
0
 10
-164.96250000000003
 20
45.125000000000064
 30
0.0
 40
0.4999999999999716
 50
89.99999999999675
 51
-180.0
  0
LINE
  8
0
 62
0
 10
-88.7625
 20
41.125000000000036
 30
0.0
 11
-74.16250000000001
 21
41.125000000000036
 31
0.0
  0
ARC
  8
0
 62
0
 10
-74.16250000000001
 20
41.62500000000003
 30
0.0
 40
0.4999999999999929
 50
-90.0
 51
-0.0
  0
LINE
  8
0
 62
0
 10
-73.66250000000001
 20
41.62500000000003
 30
0.0
 11
-73.66250000000001
 21
45.12500000000003
 31
0.0
  0
LINE
  8
0
 62
0
 10
-226.06250000000003
 20
70.17500000000004
 30
0.0
 11
-226.06250000000003
 21
73.67500000000003
 31
0.0
  0
LINE
  8
0
 62
0
 10
-74.16250000000001
 20
45.62500000000003
 30
0.0
 11
-74.4625
 21
45.625000000000036
 31
0.0
  0
LINE
  8
0
 62
0
 10
-150.3625
 20
55.125000000000036
 30
0.0
 11
-164.9625
 21
55.12500000000003
 31
0.0
  0
LINE
  8
0
 62
0
 10
-74.4625
 20
45.625000000000036
 30
0.0
 11
-74.4625
 21
50.625000000000036
 31
0.0
  0
ARC
  8
0
 62
0
 10
-226.5625
 20
64.17500000000007
 30
0.0
 40
0.4999999999999716
 50
-0.0
 51
90.00000000000325
  0
LINE
  8
0
 62
0
 10
-174.1875
 20
31.57500000000003
 30
0.0
 11
-174.1875
 21
26.57500000000003
 31
0.0
  0
ARC
  8
0
 62
0
 10
-226.56250000000006
 20
70.17500000000005
 30
0.0
 40
0.5000000000000213
 50
-89.99999999999675
 51
-0.0
  0
ARC
  8
0
 62
0
 10
-164.96250000000003
 20
51.12500000000001
 30
0.0
 40
0.4999999999999716
 50
180.0
 51
-89.99999999999675
  0
LINE
  8
0
 62
0
 10
-241.66250000000002
 20
45.12500000000003
 30
0.0
 11
-241.66250000000002
 21
41.62500000000003
 31
0.0
  0
LINE
  8
0
 62
0
 10
-241.16250000000002
 20
50.625000000000036
 30
0.0
 11
-240.86250000000004
 21
50.625000000000036
 31
0.0
  0
LINE
  8
0
 62
0
 10
-159.38750000000002
 20
32.07500000000003
 30
0.0
 11
-159.38750000000002
 21
35.57500000000003
 31
0.0
  0
LINE
  8
0
 62
0
 10
-174.9875
 20
26.075000000000035
 30
0.0
 11
-174.9875
 21
22.57500000000003
 31
0.0
  0
ARC
  8
0
 62
0
 10
-159.88750000000002
 20
32.075000000000045
 30
0.0
 40
0.5000000000000142
 50
-89.99999999999675
 51
-0.0
  0
LINE
  8
0
 62
0
 10
-240.86250000000004
 20
45.625000000000036
 30
0.0
 11
-241.16250000000002
 21
45.625000000000036
 31
0.0
  0
LINE
  8
0
 62
0
 10
-174.4875
 20
22.07500000000003
 30
0.0
 11
-159.8875
 21
22.07500000000003
 31
0.0
  0
ARC
  8
0
 62
0
 10
-159.88750000000005
 20
35.57500000000002
 30
0.0
 40
0.5000000000000284
 50
0.0
 51
89.99999999999675
  0
LINE
  8
0
 62
0
 10
-165.4625
 20
45.12500000000003
 30
0.0
 11
-165.4625
 21
41.62500000000003
 31
0.0
  0
LINE
  8
0
 62
0
 10
-150.36249999999998
 20
45.625000000000014
 30
0.0
 11
-150.6625
 21
45.625000000000036
 31
0.0
  0
ARC
  8
0
 62
0
 10
-241.16250000000005
 20
51.125000000000014
 30
0.0
 40
0.4999999999999716
 50
180.0
 51
-89.99999999999675
  0
LINE
  8
0
 62
0
 10
-150.6625
 20
50.625000000000036
 30
0.0
 11
-150.36249999999998
 21
50.625000000000036
 31
0.0
  0
ARC
  8
0
 62
0
 10
-150.36250000000004
 20
54.62500000000001
 30
0.0
 40
0.5000000000000284
 50
0.0
 51
89.99999999999675
  0
LINE
  8
0
 62
0
 10
-164.9625
 20
50.625000000000036
 30
0.0
 11
-164.6625
 21
50.625000000000036
 31
0.0
  0
LINE
  8
0
 62
0
 10
-89.26250000000002
 20
45.12500000000003
 30
0.0
 11
-89.26249999999999
 21
41.62500000000003
 31
0.0
  0
LINE
  8
0
 62
0
 10
-164.6625
 20
50.625000000000036
 30
0.0
 11
-164.6625
 21
45.625000000000036
 31
0.0
  0
ARC
  8
0
 62
0
 10
-74.16250000000001
 20
51.125000000000036
 30
0.0
 40
0.5
 50
-90.0
 51
-0.0
  0
LINE
  8
0
 62
0
 10
-73.66250000000001
 20
51.125000000000036
 30
0.0
 11
-73.66250000000001
 21
54.62500000000003
 31
0.0
  0
ARC
  8
0
 62
0
 10
-74.16250000000001
 20
54.62500000000003
 30
0.0
 40
0.5
 50
-0.0
 51
90.0
  0
LINE
  8
0
 62
0
 10
-74.16250000000001
 20
55.12500000000003
 30
0.0
 11
-88.7625
 21
55.12500000000003
 31
0.0
  0
LINE
  8
0
 62
0
 10
-89.26249999999999
 20
54.62500000000003
 30
0.0
 11
-89.26250000000002
 21
51.125000000000036
 31
0.0
  0
ARC
  8
0
 62
0
 10
-88.7625
 20
51.125000000000064
 30
0.0
 40
0.5000000000000142
 50
-180.0
 51
-90.0
  0
LINE
  8
0
 62
0
 10
-88.7625
 20
50.625000000000036
 30
0.0
 11
-88.4625
 21
50.625000000000036
 31
0.0
  0
LINE
  8
0
 62
0
 10
-88.4625
 20
50.625000000000036
 30
0.0
 11
-88.4625
 21
45.625000000000036
 31
0.0
  0
LINE
  8
0
 62
0
 10
-9.368749999999997
 20
51.125000000000036
 30
0.0
 11
-9.368749999999999
 21
54.62500000000003
 31
0.0
  0
ARC
  8
0
 62
0
 10
-188.46250000000003
 20
60.67500000000005
 30
0.0
 40
0.5000000000000213
 50
-89.99999999999675
 51
-0.0
  0
LINE
  8
0
 62
0
 10
-187.9625
 20
60.675000000000026
 30
0.0
 11
-187.9625
 21
64.17500000000003
 31
0.0
  0
LINE
  8
0
 62
0
 10
-9.868749999999999
 20
45.62500000000003
 30
0.0
 11
-10.16875
 21
45.625000000000036
 31
0.0
  0
LINE
  8
0
 62
0
 10
-10.16875
 20
50.625000000000036
 30
0.0
 11
-9.868749999999999
 21
50.625000000000036
 31
0.0
  0
LINE
  8
0
 62
0
 10
-207.8125
 20
69.67500000000003
 30
0.0
 11
-207.51250000000002
 21
69.67500000000003
 31
0.0
  0
ARC
  8
0
 62
0
 10
-105.43125
 20
70.17500000000003
 30
0.0
 40
0.5
 50
-180.0
 51
-90.0
  0
ARC
  8
0
 62
0
 10
-131.31124999999997
 20
60.67500000000002
 30
0.0
 40
0.4999999999999929
 50
-90.0
 51
0.0
  0
LINE
  8
0
 62
0
 10
-241.66250000000002
 20
73.67500000000003
 30
0.0
 11
-241.66250000000002
 21
70.17500000000003
 31
0.0
  0
ARC
  8
0
 62
0
 10
-241.1625
 20
60.67500000000003
 30
0.0
 40
0.5000000000000284
 50
-180.0
 51
-90.00000000000651
  0
LINE
  8
0
 62
0
 10
-240.86250000000004
 20
64.67500000000003
 30
0.0
 11
-241.16250000000002
 21
64.67500000000003
 31
0.0
  0
LINE
  8
0
 62
0
 10
-207.01250000000002
 20
60.675000000000026
 30
0.0
 11
-207.01250000000002
 21
64.17500000000003
 31
0.0
  0
LINE
  8
0
 62
0
 10
-179.7525
 20
64.17500000000003
 30
0.0
 11
-179.7525
 21
60.675000000000026
 31
0.0
  0
ARC
  8
0
 62
0
 10
-188.46250000000003
 20
70.17500000000004
 30
0.0
 40
0.5000000000000142
 50
-89.99999999999675
 51
-0.0
  0
LINE
  8
0
 62
0
 10
-105.93125
 20
73.67500000000003
 30
0.0
 11
-105.93125
 21
70.17500000000003
 31
0.0
  0
LINE
  8
0
 62
0
 10
-105.13125000000001
 20
69.67500000000003
 30
0.0
 11
-105.13125000000001
 21
64.67500000000003
 31
0.0
  0
ARC
  8
0
 62
0
 10
-241.16250000000005
 20
70.175
 30
0.0
 40
0.4999999999999716
 50
180.0
 51
-89.99999999999675
  0
ARC
  8
0
 62
0
 10
-241.16249999999997
 20
73.67499999999997
 30
0.0
 40
0.5000000000000568
 50
90.00000000000651
 51
180.0
  0
LINE
  8
0
 62
0
 10
-241.16250000000002
 20
69.67500000000003
 30
0.0
 11
-240.86250000000004
 21
69.67500000000003
 31
0.0
  0
ARC
  8
0
 62
0
 10
-241.16250000000005
 20
64.17500000000005
 30
0.0
 40
0.4999999999999716
 50
89.99999999999675
 51
-180.0
  0
LINE
  8
0
 62
0
 10
-207.51250000000002
 20
64.67500000000003
 30
0.0
 11
-207.8125
 21
64.67500000000003
 31
0.0
  0
LINE
  8
0
 62
0
 10
-188.7625
 20
69.67500000000003
 30
0.0
 11
-188.4625
 21
69.67500000000003
 31
0.0
  0
ARC
  8
0
 62
0
 10
-207.5125
 20
64.17500000000007
 30
0.0
 40
0.4999999999999716
 50
-0.0
 51
90.00000000000325
  0
LINE
  8
0
 62
0
 10
-164.6525
 20
74.17500000000003
 30
0.0
 11
-179.2525
 21
74.17500000000003
 31
0.0
  0
ARC
  8
0
 62
0
 10
-131.31124999999997
 20
64.17500000000003
 30
0.0
 40
0.4999999999999716
 50
-0.0
 51
90.0
  0
ARC
  8
0
 62
0
 10
-188.46249999999998
 20
73.67500000000005
 30
0.0
 40
0.4999999999999716
 50
-0.0
 51
90.00000000000325
  0
ARC
  8
0
 62
0
 10
-105.43125
 20
60.67500000000002
 30
0.0
 40
0.5
 50
180.0
 51
-90.0
  0
LINE
  8
0
 62
0
 10
-207.8125
 20
64.67500000000003
 30
0.0
 11
-207.8125
 21
69.67500000000003
 31
0.0
  0
LINE
  8
0
 62
0
 10
-145.91125
 20
60.175000000000026
 30
0.0
 11
-131.31124999999997
 21
60.175000000000026
 31
0.0
  0
ARC
  8
0
 62
0
 10
-179.25249999999997
 20
60.67500000000003
 30
0.0
 40
0.5000000000000284
 50
-180.0
 51
-90.00000000000651
  0
LINE
  8
0
 62
0
 10
-178.95250000000001
 20
64.67500000000003
 30
0.0
 11
-179.2525
 21
64.67500000000003
 31
0.0
  0
LINE
  8
0
 62
0
 10
-187.9625
 20
70.17500000000003
 30
0.0
 11
-187.9625
 21
73.67500000000003
 31
0.0
  0
LINE
  8
0
 62
0
 10
-105.43125
 20
69.67500000000003
 30
0.0
 11
-105.13125000000001
 21
69.67500000000003
 31
0.0
  0
LINE
  8
0
 62
0
 10
-207.01250000000002
 20
70.17500000000003
 30
0.0
 11
-207.01250000000002
 21
73.67500000000003
 31
0.0
  0
ARC
  8
0
 62
0
 10
-207.51250000000005
 20
70.17500000000004
 30
0.0
 40
0.5000000000000142
 50
-89.99999999999675
 51
-0.0
  0
LINE
  8
0
 62
0
 10
-179.2525
 20
69.67500000000003
 30
0.0
 11
-178.95250000000001
 21
69.67500000000003
 31
0.0
  0
LINE
  8
0
 62
0
 10
-24.468750000000004
 20
41.125000000000036
 30
0.0
 11
-9.868749999999999
 21
41.125000000000036
 31
0.0
  0
LINE
  8
0
 62
0
 10
-179.7525
 20
73.67500000000003
 30
0.0
 11
-179.7525
 21
70.17500000000003
 31
0.0
  0
LINE
  8
0
 62
0
 10
-130.81124999999997
 20
60.675000000000026
 30
0.0
 11
-130.81125
 21
64.17500000000003
 31
0.0
  0
ARC
  8
0
 62
0
 10
-207.5125
 20
73.67500000000005
 30
0.0
 40
0.4999999999999716
 50
-0.0
 51
90.00000000000325
  0
ARC
  8
0
 62
0
 10
-179.25250000000003
 20
70.175
 30
0.0
 40
0.4999999999999716
 50
180.0
 51
-89.99999999999675
  0
LINE
  8
0
 62
0
 10
-178.95250000000001
 20
69.67500000000003
 30
0.0
 11
-178.95250000000001
 21
64.67500000000003
 31
0.0
  0
ARC
  8
0
 62
0
 10
-9.868749999999995
 20
41.62500000000002
 30
0.0
 40
0.4999999999999858
 50
-90.00000000000041
 51
0.0
  0
LINE
  8
0
 62
0
 10
-9.368750000000002
 20
41.62500000000003
 30
0.0
 11
-9.368749999999999
 21
45.12500000000003
 31
0.0
  0
ARC
  8
0
 62
0
 10
-179.25249999999994
 20
73.67499999999997
 30
0.0
 40
0.5000000000000568
 50
90.00000000000651
 51
180.0
  0
ARC
  8
0
 62
0
 10
-87.28124999999994
 20
59.70500000000005
 30
0.0
 40
0.5000000000000284
 50
-180.0
 51
-90.00000000000489
  0
LINE
  8
0
 62
0
 10
-90.83125000000001
 20
74.17500000000003
 30
0.0
 11
-105.43125
 21
74.17500000000003
 31
0.0
  0
LINE
  8
0
 62
0
 10
-82.75624999999998
 20
60.40500000000002
 30
0.0
 11
-82.75624999999998
 21
72.70500000000003
 31
0.0
  0
LINE
  8
0
 62
0
 10
-90.33125
 20
70.17500000000003
 30
0.0
 11
-90.33125
 21
73.67500000000003
 31
0.0
  0
LINE
  8
0
 62
0
 10
-226.8625
 20
45.625000000000036
 30
0.0
 11
-226.8625
 21
50.625000000000036
 31
0.0
  0
ARC
  8
0
 62
0
 10
-226.56250000000006
 20
51.12500000000006
 30
0.0
 40
0.5000000000000213
 50
-89.99999999999675
 51
-0.0
  0
ARC
  8
0
 62
0
 10
-226.5625
 20
54.62500000000006
 30
0.0
 40
0.4999999999999716
 50
-0.0
 51
90.00000000000325
  0
LINE
  8
0
 62
0
 10
-87.78124999999997
 20
59.90500000000003
 30
0.0
 11
-87.78124999999997
 21
59.70500000000002
 31
0.0
  0
LINE
  8
0
 62
0
 10
-55.926249999999996
 20
73.67500000000003
 30
0.0
 11
-55.926249999999996
 21
70.17500000000003
 31
0.0
  0
ARC
  8
0
 62
0
 10
-226.56250000000006
 20
41.62500000000005
 30
0.0
 40
0.5000000000000142
 50
-89.99999999999675
 51
-0.0
  0
ARC
  8
0
 62
0
 10
-40.82500000000001
 20
73.67500000000003
 30
0.0
 40
0.5000000000000067
 50
-0.0
 51
89.99999999999919
  0
LINE
  8
0
 62
0
 10
-55.92625
 20
64.17500000000003
 30
0.0
 11
-55.926249999999996
 21
60.675000000000026
 31
0.0
  0
ARC
  8
0
 62
0
 10
-84.98124999999999
 20
59.70500000000004
 30
0.0
 40
0.5000000000000142
 50
-90.0
 51
-0.0
  0
LINE
  8
0
 62
0
 10
-89.50625
 20
60.40500000000002
 30
0.0
 11
-88.28124999999999
 21
60.40500000000003
 31
0.0
  0
ARC
  8
0
 62
0
 10
-88.28124999999999
 20
59.905
 30
0.0
 40
0.5000000000000284
 50
0.0
 51
90.0
  0
ARC
  8
0
 62
0
 10
-55.42625000000001
 20
64.17500000000004
 30
0.0
 40
0.4999999999999858
 50
89.99999999999837
 51
-180.0
  0
LINE
  8
0
 62
0
 10
-90.83124999999998
 20
64.67500000000001
 30
0.0
 11
-91.13125
 21
64.67500000000003
 31
0.0
  0
ARC
  8
0
 62
0
 10
-55.426249999999996
 20
73.67500000000003
 30
0.0
 40
0.5
 50
90.0
 51
-180.0
  0
ARC
  8
0
 62
0
 10
-83.98124999999997
 20
59.90500000000002
 30
0.0
 40
0.5
 50
89.99999999999837
 51
180.0
  0
ARC
  8
0
 62
0
 10
-55.426249999999996
 20
60.67500000000002
 30
0.0
 40
0.49999999999999645
 50
180.0
 51
-90.0
  0
ARC
  8
0
 62
0
 10
-40.825
 20
60.675000000000026
 30
0.0
 40
0.5
 50
-90.0
 51
-0.0
  0
ARC
  8
0
 62
0
 10
-90.83124999999997
 20
60.67500000000002
 30
0.0
 40
0.4999999999999929
 50
-90.00000000000163
 51
0.0
  0
LINE
  8
0
 62
0
 10
-84.48124999999997
 20
59.70500000000002
 30
0.0
 11
-84.48124999999997
 21
59.90500000000003
 31
0.0
  0
LINE
  8
0
 62
0
 10
-105.43125
 20
60.175000000000026
 30
0.0
 11
-90.83124999999998
 21
60.175000000000026
 31
0.0
  0
LINE
  8
0
 62
0
 10
-87.28124999999999
 20
59.20500000000003
 30
0.0
 11
-84.98124999999999
 21
59.20500000000003
 31
0.0
  0
ARC
  8
0
 62
0
 10
-90.83124999999997
 20
64.17500000000003
 30
0.0
 40
0.4999999999999716
 50
-0.0
 51
90.00000000000163
  0
LINE
  8
0
 62
0
 10
-55.12625
 20
64.67500000000003
 30
0.0
 11
-55.426249999999996
 21
64.67500000000003
 31
0.0
  0
LINE
  8
0
 62
0
 10
-90.33124999999998
 20
60.675000000000026
 30
0.0
 11
-90.33125
 21
64.17500000000003
 31
0.0
  0
LINE
  8
0
 62
0
 10
-91.13125
 20
69.67500000000003
 30
0.0
 11
-90.83124999999998
 21
69.67500000000003
 31
0.0
  0
ARC
  8
0
 62
0
 10
-90.83124999999998
 20
70.17500000000003
 30
0.0
 40
0.5
 50
-90.0
 51
-0.0
  0
LINE
  8
0
 62
0
 10
-55.12625
 20
69.67500000000003
 30
0.0
 11
-55.12625
 21
64.67500000000003
 31
0.0
  0
LINE
  8
0
 62
0
 10
-89.50625
 20
72.70500000000003
 30
0.0
 11
-89.50625
 21
60.40500000000002
 31
0.0
  0
ARC
  8
0
 62
0
 10
-90.83125000000003
 20
73.675
 30
0.0
 40
0.5000000000000284
 50
0.0
 51
89.99999999999837
  0
LINE
  8
0
 62
0
 10
-82.75624999999998
 20
72.70500000000003
 30
0.0
 11
-89.50625
 21
72.70500000000003
 31
0.0
  0
ARC
  8
0
 62
0
 10
-55.42624999999999
 20
70.17500000000004
 30
0.0
 40
0.5000000000000071
 50
-180.0
 51
-90.00000000000081
  0
LINE
  8
0
 62
0
 10
-55.426249999999996
 20
69.67500000000003
 30
0.0
 11
-55.12625
 21
69.67500000000003
 31
0.0
  0
LINE
  8
0
 62
0
 10
-91.13125
 20
64.67500000000003
 30
0.0
 11
-91.13125
 21
69.67500000000003
 31
0.0
  0
LINE
  8
0
 62
0
 10
-83.98124999999996
 20
60.405000000000015
 30
0.0
 11
-82.75624999999998
 21
60.40500000000002
 31
0.0
  0
LINE
  8
0
 62
0
 10
-226.06250000000003
 20
41.62500000000003
 30
0.0
 11
-226.06250000000003
 21
45.12500000000003
 31
0.0
  0
ARC
  8
0
 62
0
 10
-226.5625
 20
45.125000000000064
 30
0.0
 40
0.4999999999999716
 50
-0.0
 51
90.00000000000325
  0
LINE
  8
0
 62
0
 10
-226.56250000000003
 20
45.625000000000036
 30
0.0
 11
-226.8625
 21
45.625000000000036
 31
0.0
  0
LINE
  8
0
 62
0
 10
-226.8625
 20
50.625000000000036
 30
0.0
 11
-226.56250000000003
 21
50.625000000000036
 31
0.0
  0
LINE
  8
0
 62
0
 10
-226.06250000000003
 20
51.125000000000036
 30
0.0
 11
-226.06250000000003
 21
54.62500000000003
 31
0.0
  0
LINE
  8
0
 62
0
 10
-222.6125
 20
45.12500000000003
 30
0.0
 11
-222.6125
 21
41.62500000000003
 31
0.0
  0
ARC
  8
0
 62
0
 10
-222.11249999999998
 20
41.625000000000036
 30
0.0
 40
0.5000000000000284
 50
-180.0
 51
-90.00000000000651
  0
LINE
  8
0
 62
0
 10
-222.6125
 20
54.62500000000003
 30
0.0
 11
-222.6125
 21
51.125000000000036
 31
0.0
  0
ARC
  8
0
 62
0
 10
-222.11249999999995
 20
54.624999999999964
 30
0.0
 40
0.500000000000064
 50
90.00000000000651
 51
180.0
  0
LINE
  8
0
 62
0
 10
-36.07625
 20
64.67500000000003
 30
0.0
 11
-36.37625
 21
64.67500000000003
 31
0.0
  0
LINE
  8
0
 62
0
 10
-188.77499999999998
 20
12.525000000000029
 30
0.0
 11
-188.475
 21
12.525000000000029
 31
0.0
  0
ARC
  8
0
 62
0
 10
-188.775
 20
7.025000000000052
 30
0.0
 40
0.4999999999999769
 50
89.99999999999675
 51
-180.0
  0
CIRCLE
  8
0
 62
0
 10
-171.95
 20
8.775000000000029
 30
0.0
 40
0.75
  0
ARC
  8
0
 62
0
 10
-36.37625000000001
 20
64.17500000000004
 30
0.0
 40
0.4999999999999858
 50
89.99999999999837
 51
-180.0
  0
LINE
  8
0
 62
0
 10
-22.075
 20
64.67500000000003
 30
0.0
 11
-22.075
 21
69.67500000000003
 31
0.0
  0
LINE
  8
0
 62
0
 10
-22.075
 20
69.67500000000003
 30
0.0
 11
-21.775
 21
69.67500000000003
 31
0.0
  0
LINE
  8
0
 62
0
 10
-36.07625
 20
69.67500000000003
 30
0.0
 11
-36.07625
 21
64.67500000000003
 31
0.0
  0
LINE
  8
0
 62
0
 10
-21.275
 20
70.17500000000003
 30
0.0
 11
-21.275
 21
73.67500000000003
 31
0.0
  0
CIRCLE
  8
0
 62
0
 10
-133.85
 20
8.775000000000029
 30
0.0
 40
0.75
  0
LINE
  8
0
 62
0
 10
-40.325
 20
60.675000000000026
 30
0.0
 11
-40.325
 21
64.17500000000003
 31
0.0
  0
LINE
  8
0
 62
0
 10
-41.125
 20
64.67500000000003
 30
0.0
 11
-41.125
 21
69.67500000000003
 31
0.0
  0
LINE
  8
0
 62
0
 10
-36.87625
 20
73.67500000000003
 30
0.0
 11
-36.87625
 21
70.17500000000003
 31
0.0
  0
LINE
  8
0
 62
0
 10
-188.475
 20
12.525000000000029
 30
0.0
 11
-188.475
 21
7.525000000000029
 31
0.0
  0
ARC
  8
0
 62
0
 10
-21.774999999999995
 20
60.675000000000026
 30
0.0
 40
0.5
 50
-90.00000000000041
 51
-0.0
  0
LINE
  8
0
 62
0
 10
-40.825
 20
64.67500000000003
 30
0.0
 11
-41.125
 21
64.67500000000003
 31
0.0
  0
CIRCLE
  8
0
 62
0
 10
-38.6
 20
8.775000000000029
 30
0.0
 40
0.75
  0
ARC
  8
0
 62
0
 10
-21.775000000000006
 20
64.17500000000003
 30
0.0
 40
0.5000000000000071
 50
-0.0
 51
89.99999999999919
  0
CIRCLE
  8
0
 62
0
 10
-152.9
 20
8.775000000000029
 30
0.0
 40
0.75
  0
ARC
  8
0
 62
0
 10
-40.825
 20
60.675000000000026
 30
0.0
 40
0.5
 50
-90.0
 51
-0.0
  0
CIRCLE
  8
0
 62
0
 10
-95.75000000000001
 20
8.775000000000029
 30
0.0
 40
0.7499999999999858
  0
CIRCLE
  8
0
 62
0
 10
-76.7
 20
8.775000000000029
 30
0.0
 40
0.75
  0
LINE
  8
0
 62
0
 10
-188.475
 20
7.525000000000029
 30
0.0
 11
-188.77499999999998
 21
7.525000000000029
 31
0.0
  0
LINE
  8
0
 62
0
 10
-36.37625
 20
69.67500000000003
 30
0.0
 11
-36.07625
 21
69.67500000000003
 31
0.0
  0
ARC
  8
0
 62
0
 10
-36.37624999999999
 20
70.17500000000004
 30
0.0
 40
0.5000000000000071
 50
-180.0
 51
-90.00000000000081
  0
ARC
  8
0
 62
0
 10
-17.32625
 20
60.67500000000002
 30
0.0
 40
0.49999999999999645
 50
180.0
 51
-90.0
  0
ARC
  8
0
 62
0
 10
-17.32625
 20
73.67500000000003
 30
0.0
 40
0.5
 50
89.99999999999959
 51
-180.0
  0
ARC
  8
0
 62
0
 10
-40.825
 20
64.17500000000003
 30
0.0
 40
0.49999999999999867
 50
-0.0
 51
90.0
  0
LINE
  8
0
 62
0
 10
-36.876250000000006
 20
64.17500000000003
 30
0.0
 11
-36.87625
 21
60.675000000000026
 31
0.0
  0
LINE
  8
0
 62
0
 10
-21.775
 20
64.67500000000003
 30
0.0
 11
-22.075
 21
64.67500000000003
 31
0.0
  0
LINE
  8
0
 62
0
 10
-159.3875
 20
22.575000000000035
 30
0.0
 11
-159.38750000000002
 21
26.075000000000035
 31
0.0
  0
LINE
  8
0
 62
0
 10
-78.42500000000001
 20
13.025000000000029
 30
0.0
 11
-78.42500000000001
 21
16.525000000000027
 31
0.0
  0
ARC
  8
0
 62
0
 10
-98.28750000000001
 20
32.07500000000006
 30
0.0
 40
0.5000000000000142
 50
-180.0
 51
-90.0
  0
LINE
  8
0
 62
0
 10
-131.625
 20
3.0250000000000266
 30
0.0
 11
-117.02499999999999
 21
3.0250000000000266
 31
0.0
  0
ARC
  8
0
 62
0
 10
-131.3125
 20
41.62500000000002
 30
0.0
 40
0.4999999999999858
 50
-90.0
 51
0.0
  0
LINE
  8
0
 62
0
 10
-54.6125
 20
51.125000000000036
 30
0.0
 11
-54.6125
 21
54.62500000000003
 31
0.0
  0
ARC
  8
0
 62
0
 10
-36.06249999999999
 20
41.62500000000003
 30
0.0
 40
0.4999999999999929
 50
-90.00000000000081
 51
-0.0
  0
ARC
  8
0
 62
0
 10
-174.48749999999998
 20
26.075000000000014
 30
0.0
 40
0.5000000000000178
 50
90.00000000000325
 51
180.0
  0
LINE
  8
0
 62
0
 10
-226.8625
 20
69.67500000000004
 30
0.0
 11
-226.56250000000003
 21
69.67500000000004
 31
0.0
  0
LINE
  8
0
 62
0
 10
-131.61124999999998
 20
69.67500000000003
 30
0.0
 11
-131.31124999999997
 21
69.67500000000003
 31
0.0
  0
LINE
  8
0
 62
0
 10
-221.8
 20
26.575000000000042
 30
0.0
 11
-222.09999999999997
 21
26.57500000000003
 31
0.0
  0
LINE
  8
0
 62
0
 10
-222.09999999999997
 20
26.57500000000003
 30
0.0
 11
-222.09999999999997
 21
31.57500000000003
 31
0.0
  0
LINE
  8
0
 62
0
 10
-169.4125
 20
55.125000000000036
 30
0.0
 11
-184.0125
 21
55.12500000000003
 31
0.0
  0
LINE
  8
0
 62
0
 10
-169.4125
 20
45.625000000000036
 30
0.0
 11
-169.71249999999998
 21
45.625000000000036
 31
0.0
  0
LINE
  8
0
 62
0
 10
-222.09999999999997
 20
31.57500000000003
 30
0.0
 11
-221.8
 21
31.57500000000003
 31
0.0
  0
LINE
  8
0
 62
0
 10
-184.5125
 20
54.62500000000003
 30
0.0
 11
-184.5125
 21
51.125000000000036
 31
0.0
  0
ARC
  8
0
 62
0
 10
-221.80000000000007
 20
32.07500000000011
 30
0.0
 40
0.5000000000000782
 50
-89.99999999999349
 51
-0.0
  0
LINE
  8
0
 62
0
 10
-236.4
 20
22.07500000000003
 30
0.0
 11
-221.8
 21
22.07500000000003
 31
0.0
  0
LINE
  8
0
 62
0
 10
-169.71249999999998
 20
50.625000000000036
 30
0.0
 11
-169.4125
 21
50.625000000000036
 31
0.0
  0
LINE
  8
0
 62
0
 10
-184.0125
 20
50.625000000000036
 30
0.0
 11
-183.7125
 21
50.625000000000036
 31
0.0
  0
LINE
  8
0
 62
0
 10
-236.89999999999998
 20
26.075000000000035
 30
0.0
 11
-236.89999999999998
 21
22.57500000000003
 31
0.0
  0
ARC
  8
0
 62
0
 10
-221.80000000000007
 20
22.575000000000102
 30
0.0
 40
0.500000000000071
 50
-89.99999999999349
 51
-0.0
  0
LINE
  8
0
 62
0
 10
-169.71249999999998
 20
45.625000000000036
 30
0.0
 11
-169.71249999999998
 21
50.625000000000036
 31
0.0
  0
ARC
  8
0
 62
0
 10
-184.01250000000002
 20
45.12500000000006
 30
0.0
 40
0.4999999999999787
 50
89.99999999999675
 51
-180.0
  0
LINE
  8
0
 62
0
 10
-221.29999999999998
 20
22.575000000000035
 30
0.0
 11
-221.29999999999998
 21
26.075000000000035
 31
0.0
  0
ARC
  8
0
 62
0
 10
-184.01249999999993
 20
54.624999999999964
 30
0.0
 40
0.500000000000064
 50
90.00000000000651
 51
180.0
  0
ARC
  8
0
 62
0
 10
-169.41249999999997
 20
54.62500000000006
 30
0.0
 40
0.4999999999999716
 50
-0.0
 51
90.00000000000325
  0
ARC
  8
0
 62
0
 10
-236.39999999999995
 20
22.575000000000035
 30
0.0
 40
0.5000000000000284
 50
-180.0
 51
-90.00000000000651
  0
ARC
  8
0
 62
0
 10
-169.41249999999997
 20
45.125000000000064
 30
0.0
 40
0.4999999999999716
 50
-0.0
 51
90.00000000000325
  0
ARC
  8
0
 62
0
 10
-169.41250000000002
 20
51.12500000000006
 30
0.0
 40
0.5000000000000213
 50
-89.99999999999675
 51
-0.0
  0
ARC
  8
0
 62
0
 10
-184.01250000000002
 20
51.125000000000014
 30
0.0
 40
0.4999999999999716
 50
180.0
 51
-89.99999999999675
  0
LINE
  8
0
 62
0
 10
-183.7125
 20
45.625000000000036
 30
0.0
 11
-184.0125
 21
45.625000000000036
 31
0.0
  0
LINE
  8
0
 62
0
 10
-183.7125
 20
50.625000000000036
 30
0.0
 11
-183.7125
 21
45.625000000000036
 31
0.0
  0
ARC
  8
0
 62
0
 10
-221.8
 20
26.075000000000028
 30
0.0
 40
0.5000000000000284
 50
0.0
 51
90.0
  0
ARC
  8
0
 62
0
 10
-93.21249999999996
 20
41.62500000000003
 30
0.0
 40
0.4999999999999929
 50
-90.00000000000325
 51
-0.0
  0
LINE
  8
0
 62
0
 10
-93.21249999999999
 20
45.625000000000014
 30
0.0
 11
-93.5125
 21
45.625000000000036
 31
0.0
  0
LINE
  8
0
 62
0
 10
-93.2125
 20
55.125000000000036
 30
0.0
 11
-107.8125
 21
55.12500000000003
 31
0.0
  0
LINE
  8
0
 62
0
 10
-107.8125
 20
50.625000000000036
 30
0.0
 11
-107.5125
 21
50.625000000000036
 31
0.0
  0
ARC
  8
0
 62
0
 10
-107.8125
 20
45.125000000000036
 30
0.0
 40
0.5
 50
90.0
 51
-180.0
  0
ARC
  8
0
 62
0
 10
-24.468749999999993
 20
45.12500000000003
 30
0.0
 40
0.5000000000000071
 50
90.00000000000081
 51
-180.0
  0
LINE
  8
0
 62
0
 10
-107.5125
 20
45.625000000000036
 30
0.0
 11
-107.8125
 21
45.625000000000036
 31
0.0
  0
LINE
  8
0
 62
0
 10
-107.8125
 20
41.125000000000036
 30
0.0
 11
-93.21249999999999
 21
41.125000000000036
 31
0.0
  0
LINE
  8
0
 62
0
 10
-24.168750000000003
 20
45.625000000000036
 30
0.0
 11
-24.46875
 21
45.625000000000036
 31
0.0
  0
ARC
  8
0
 62
0
 10
-9.868750000000006
 20
54.62500000000002
 30
0.0
 40
0.5000000000000071
 50
0.0
 51
89.99999999999959
  0
ARC
  8
0
 62
0
 10
-93.21249999999999
 20
45.12500000000004
 30
0.0
 40
0.4999999999999858
 50
-0.0
 51
90.0
  0
LINE
  8
0
 62
0
 10
-93.5125
 20
50.625000000000036
 30
0.0
 11
-93.21249999999999
 21
50.625000000000036
 31
0.0
  0
ARC
  8
0
 62
0
 10
-107.8125
 20
51.125000000000036
 30
0.0
 40
0.5
 50
-180.0
 51
-90.0
  0
LINE
  8
0
 62
0
 10
-184.5125
 20
45.12500000000003
 30
0.0
 11
-184.5125
 21
41.62500000000003
 31
0.0
  0
ARC
  8
0
 62
0
 10
-107.8125
 20
54.62500000000002
 30
0.0
 40
0.5000000000000071
 50
90.0
 51
180.0
  0
LINE
  8
0
 62
0
 10
-221.29999999999998
 20
32.07500000000003
 30
0.0
 11
-221.29999999999998
 21
35.57500000000003
 31
0.0
  0
LINE
  8
0
 62
0
 10
-108.3125
 20
54.62500000000003
 30
0.0
 11
-108.3125
 21
51.125000000000036
 31
0.0
  0
ARC
  8
0
 62
0
 10
-221.79999999999998
 20
35.57500000000004
 30
0.0
 40
0.5
 50
-0.0
 51
90.00000000000325
  0
LINE
  8
0
 62
0
 10
-24.168750000000003
 20
50.625000000000036
 30
0.0
 11
-24.168750000000003
 21
45.625000000000036
 31
0.0
  0
LINE
  8
0
 62
0
 10
-92.71249999999998
 20
41.62500000000003
 30
0.0
 11
-92.7125
 21
45.12500000000003
 31
0.0
  0
ARC
  8
0
 62
0
 10
-93.21250000000003
 20
54.62500000000001
 30
0.0
 40
0.5000000000000284
 50
0.0
 51
89.99999999999675
  0
ARC
  8
0
 62
0
 10
-24.468749999999996
 20
51.125000000000036
 30
0.0
 40
0.5000000000000036
 50
-180.0
 51
-90.00000000000041
  0
LINE
  8
0
 62
0
 10
-107.5125
 20
50.625000000000036
 30
0.0
 11
-107.5125
 21
45.625000000000036
 31
0.0
  0
ARC
  8
0
 62
0
 10
-107.81250000000001
 20
41.62500000000002
 30
0.0
 40
0.4999999999999858
 50
180.0
 51
-89.99999999999837
  0
LINE
  8
0
 62
0
 10
-108.3125
 20
45.12500000000003
 30
0.0
 11
-108.3125
 21
41.62500000000003
 31
0.0
  0
LINE
  8
0
 62
0
 10
-98.28750000000001
 20
22.07500000000003
 30
0.0
 11
-83.6875
 21
22.07500000000003
 31
0.0
  0
LINE
  8
0
 62
0
 10
-83.18750000000001
 20
22.575000000000035
 30
0.0
 11
-83.18750000000001
 21
26.075000000000035
 31
0.0
  0
LINE
  8
0
 62
0
 10
-74.975
 20
16.525000000000027
 30
0.0
 11
-74.975
 21
13.025000000000029
 31
0.0
  0
LINE
  8
0
 62
0
 10
-83.6875
 20
26.575000000000042
 30
0.0
 11
-83.98750000000001
 21
26.57500000000003
 31
0.0
  0
LINE
  8
0
 62
0
 10
-83.98750000000001
 20
26.57500000000003
 30
0.0
 11
-83.98750000000001
 21
31.57500000000003
 31
0.0
  0
ARC
  8
0
 62
0
 10
-7.315128060534575
 20
-2.825000000000001
 30
0.0
 40
2.6749999999999985
 50
-90.00000000000014
 51
-45.0
  0
LINE
  8
0
 62
0
 10
-233.71875000000003
 20
12.525000000000029
 30
0.0
 11
-233.71875000000003
 21
7.525000000000029
 31
0.0
  0
LINE
  8
0
 62
0
 10
-5.106250000000001
 20
36.07500000000003
 30
0.0
 11
-19.706249999999997
 21
36.07500000000003
 31
0.0
  0
LINE
  8
0
 62
0
 10
-222.11250000000004
 20
60.17500000000004
 30
0.0
 11
-207.51250000000002
 21
60.175000000000026
 31
0.0
  0
LINE
  8
0
 62
0
 10
-207.51250000000002
 20
74.17500000000003
 30
0.0
 11
-222.1125
 21
74.17500000000003
 31
0.0
  0
LINE
  8
0
 62
0
 10
-2.725000000000002
 20
74.17500000000003
 30
0.0
 11
-17.326249999999998
 21
74.17500000000003
 31
0.0
  0
ARC
  8
0
 62
0
 10
-36.37625
 20
60.67500000000002
 30
0.0
 40
0.49999999999999645
 50
180.0
 51
-90.0
  0
ARC
  8
0
 62
0
 10
-17.32625
 20
60.67500000000002
 30
0.0
 40
0.49999999999999645
 50
180.0
 51
-90.0
  0
LINE
  8
0
 62
0
 10
-17.326249999999998
 20
69.67500000000003
 30
0.0
 11
-17.02625
 21
69.67500000000003
 31
0.0
  0
LINE
  8
0
 62
0
 10
-3.024999999999999
 20
64.67500000000003
 30
0.0
 11
-3.024999999999999
 21
69.67500000000003
 31
0.0
  0
ARC
  8
0
 62
0
 10
-17.32625
 20
73.67500000000003
 30
0.0
 40
0.5
 50
89.99999999999959
 51
-180.0
  0
LINE
  8
0
 62
0
 10
-2.724999999999999
 20
64.67500000000003
 30
0.0
 11
-3.024999999999999
 21
64.67500000000003
 31
0.0
  0
ARC
  8
0
 62
0
 10
-2.7249999999999988
 20
60.675000000000026
 30
0.0
 40
0.5
 50
-90.00000000000006
 51
-0.0
  0
ARC
  8
0
 62
0
 10
-2.724999999999998
 20
64.17500000000003
 30
0.0
 40
0.49999999999999867
 50
-0.0
 51
90.00000000000016
  0
LINE
  8
0
 62
0
 10
-2.225000000000001
 20
60.675000000000026
 30
0.0
 11
-2.224999999999999
 21
64.17500000000003
 31
0.0
  0
LINE
  8
Exploded Slice012
 62
0
 10
-55.426249999999996
 20
60.175000000000026
 30
0.0
 11
-40.825
 21
60.175000000000026
 31
0.0
  0
LINE
  8
0
 62
0
 10
-221.8
 20
36.07500000000003
 30
0.0
 11
-236.4
 21
36.07500000000003
 31
0.0
  0
LINE
  8
0
 62
0
 10
-178.4375
 20
22.575000000000035
 30
0.0
 11
-178.4375
 21
26.075000000000035
 31
0.0
  0
LINE
  8
0
 62
0
 10
-168.9125
 20
41.62500000000003
 30
0.0
 11
-168.9125
 21
45.12500000000003
 31
0.0
  0
LINE
  8
0
 62
0
 10
-2.725000000000002
 20
17.025000000000027
 30
0.0
 11
-17.325
 21
17.025000000000027
 31
0.0
  0
ARC
  8
0
 62
0
 10
-178.93750000000003
 20
22.575000000000045
 30
0.0
 40
0.5000000000000142
 50
-89.99999999999675
 51
-0.0
  0
ARC
  8
0
 62
0
 10
-2.7249999999999996
 20
16.525000000000027
 30
0.0
 40
0.5000000000000004
 50
-0.0
 51
90.00000000000026
  0
ARC
  8
0
 62
0
 10
-64.6375
 20
32.07500000000003
 30
0.0
 40
0.5
 50
-90.0
 51
-0.0
  0
ARC
  8
0
 62
0
 10
-226.5625
 20
73.67500000000005
 30
0.0
 40
0.4999999999999716
 50
-0.0
 51
90.00000000000325
  0
ENDSEC
  0
EOF
