0
SECTION
2
HEADER
9
$INSUNITS
70
4
9
$ACADVER
1
AC1014
9
$HANDSEED
5
FFFF
0
ENDSEC
0
SECTION
2
TABLES
0
TABLE
2
VPORT
5
8
100
AcDbSymbolTable
0
ENDTAB
0
TABLE
2
LTYPE
5
5
100
AcDbSymbolTable
0
LTYPE
5
14
100
AcDbSymbolTableRecord
100
AcDbLinetypeTableRecord
2
BYBLOCK
70
0
0
LTYPE
5
15
100
AcDbSymbolTableRecord
100
AcDbLinetypeTableRecord
2
BYLAYER
70
0
0
ENDTAB
0
TABLE
2
LAYER
5
2
100
AcDbSymbolTable
70
2
0
LAYER
5
50
100
AcDbSymbolTableRecord
100
AcDbLayerTableRecord
2
0
70
0
6
CONTINUOUS
0
ENDTAB
0
TABLE
2
STYLE
5
3
100
AcDbSymbolTable
70
1
0
STYLE
5
11
100
AcDbSymbolTableRecord
100
AcDbTextStyleTableRecord
2
STANDARD
70
0
0
ENDTAB
0
TABLE
2
VIEW
5
6
100
AcDbSymbolTable
70
0
0
ENDTAB
0
TABLE
2
UCS
5
7
100
AcDbSymbolTable
70
0
0
ENDTAB
0
TABLE
2
APPID
5
9
100
AcDbSymbolTable
70
2
0
APPID
5
12
100
AcDbSymbolTableRecord
100
AcDbRegAppTableRecord
2
ACAD
70
0
0
ENDTAB
0
TABLE
2
DIMSTYLE
5
A
100
AcDbSymbolTable
70
1
0
ENDTAB
0
TABLE
2
BLOCK_RECORD
5
1
100
AcDbSymbolTable
70
1
0
BLOCK_RECORD
5
1F
100
AcDbSymbolTableRecord
100
AcDbBlockTableRecord
2
*MODEL_SPACE
0
BLOCK_RECORD
5
1B
100
AcDbSymbolTableRecord
100
AcDbBlockTableRecord
2
*PAPER_SPACE
0
ENDTAB
0
ENDSEC
0
SECTION
2
BLOCKS
0
BLOCK
5
20
100
AcDbEntity
100
AcDbBlockBegin
2
*MODEL_SPACE
0
ENDBLK
5
21
100
AcDbEntity
100
AcDbBlockEnd
0
BLOCK
5
1C
100
AcDbEntity
100
AcDbBlockBegin
2
*PAPER_SPACE
0
ENDBLK
5
1D
100
AcDbEntity
100
AcDbBlockEnd
0
ENDSEC
0
SECTION
2
ENTITIES
0
LWPOLYLINE
5
100
100
AcDbEntity
8
0
100
AcDbPolyline
90
21
70
1
43
0.0
10
-20.716510639673974
20
77.776382579139465
42
-0.18529312486289468
10
-23.122141705819409
20
76.7050706727658
10
-23.122141705819406
20
57.655071817174971
10
-30.265891705819406
20
57.655071817174971
10
-30.265891705819406
20
38.605071817174981
10
-23.122141705819406
20
38.605071817174981
10
-23.122141705819406
20
19.555071817174976
10
-19.550266705819404
20
19.555071817174976
10
-19.550266705819404
20
-1.7426265129940433
10
-16.576382579139441
20
-4.7165106396740164
42
0.19891236737965873
10
-14.684871939465435
20
-5.5000000000000027
10
-7.3151280605345796
20
-5.5000000000000071
42
0.19891236737965903
10
-5.4236174208605608
20
-4.7165106396740173
10
-1.2834893603259845
20
-0.57638257913943391
42
0.19891236737965753
10
-0.49999999999999906
20
1.3151280605345761
10
-0.50000000000001155
20
75.884871939465455
42
0.19891236737965995
10
-1.2834893603259974
20
77.776382579139465
10
-5.4236174208605519
20
81.916510639674001
42
0.19891236737966264
10
-7.3151280605345761
20
82.700000000000017
10
-14.684871939465438
20
82.700000000000017
42
0.19891236737966228
10
-16.576382579139455
20
81.916510639674016
0
LWPOLYLINE
5
101
100
AcDbEntity
8
0
100
AcDbPolyline
90
8
70
1
43
0.0
10
-3.5252667058194032
20
17.030071817174974
10
-16.525266705819405
20
17.030071817174974
42
0.41421356237309631
10
-17.025266705819405
20
16.530071817174978
10
-17.025266705819405
20
3.5300718171749779
42
0.41421356237309503
10
-16.525266705819405
20
3.0300718171749796
10
-3.525266705819404
20
3.0300718171749779
42
0.41421356237309503
10
-3.0252667058194049
20
3.5300718171749779
10
-3.0252667058194045
20
16.530071817174978
42
0.41421356237309437
0
LWPOLYLINE
5
102
100
AcDbEntity
8
0
100
AcDbPolyline
90
8
70
1
43
0.0
10
-5.4065167058194064
20
22.580071817174982
42
-0.41421356237309437
10
-5.9065167058194046
20
22.080071817174982
10
-18.906516705819406
20
22.080071817174982
42
-0.41421356237309503
10
-19.406516705819406
20
22.580071817174982
10
-19.406516705819406
20
35.580071817174982
42
-0.41421356237309503
10
-18.906516705819406
20
36.080071817174975
10
-5.9065167058194046
20
36.080071817174975
42
-0.41421356237309503
10
-5.4065167058194046
20
35.580071817174982
0
LWPOLYLINE
5
103
100
AcDbEntity
8
0
100
AcDbPolyline
90
8
70
1
43
0.0
10
-24.169016705819402
20
54.630071817174979
42
-0.41421356237309503
10
-23.669016705819406
20
55.130071817174979
10
-10.669016705819402
20
55.130071817174979
42
-0.41421356237309503
10
-10.169016705819402
20
54.630071817174979
10
-10.169016705819406
20
41.630071817174972
42
-0.41421356237309503
10
-10.669016705819402
20
41.130071817174979
10
-23.669016705819406
20
41.130071817174979
42
-0.41421356237309503
10
-24.169016705819402
20
41.630071817174972
0
LWPOLYLINE
5
104
100
AcDbEntity
8
0
100
AcDbPolyline
90
8
70
1
43
0.0
10
-18.906516705819406
20
60.180071817174976
10
-5.9065167058194046
20
60.180071817174976
42
0.41421356237309503
10
-5.4065167058194064
20
60.680071817174976
10
-5.4065167058194046
20
73.680071817174976
42
0.41421356237309503
10
-5.9065167058194046
20
74.180071817174976
10
-18.906516705819406
20
74.180071817174976
42
0.41421356237309503
10
-19.406516705819406
20
73.680071817174976
10
-19.406516705819406
20
60.680071817174976
42
0.41421356237309503
0
CIRCLE
5
105
100
AcDbEntity
8
0
100
AcDbCircle
10
-10.999871939465429
20
-2.7500000000000013
30
0
40
1.25
210
0
220
0
230
1
0
CIRCLE
5
106
100
AcDbEntity
8
0
100
AcDbCircle
10
-11.000128060534578
20
79.950000000000017
30
0
40
1.25
210
0
220
0
230
1
0
ENDSEC
0
SECTION
2
OBJECTS
0
DICTIONARY
5
C
100
AcDbDictionary
3
ACAD_GROUP
350
D
3
ACAD_MLINESTYLE
350
17
0
DICTIONARY
5
D
100
AcDbDictionary
0
DICTIONARY
5
1A
330
C
100
AcDbDictionary
0
DICTIONARY
5
17
100
AcDbDictionary
0
ENDSEC
0
EOF
