999
FreeCAD v0.19 24291 (Git)
  0
SECTION
  2
HEADER
  9
$ACADVER
  1
AC1014
  9
$ACADMAINTVER
 70
     9
  9
$DWGCODEPAGE
  3
ANSI_1252
  9
$TEXTSTYLE
  7
STANDARD
  9
$DIMSTYLE
  2
STANDARD
  9
$DIMTXSTY
  7
STANDARD
  9
$CMLSTYLE
  2
STANDARD
  9
$PEXTMAX
 10
50
 20
50
 30
50
  9
$PEXTMIN
 10
0
 20
0
 30
0
  9
$HANDSEED
  5
FFFF
  0
ENDSEC
  0
SECTION
  2
CLASSES
  0
CLASS
  1
ACDBDICTIONARYWDFLT
  2
AcDbDictionaryWithDefault
  3
ObjectDBX Classes
 90
        0
280
     0
281
     0
  0
CLASS
  1
XRECORD
  2
AcDbXrecord
  3
ObjectDBX Classes
 90
        0
280
     0
281
     0
  0
CLASS
  1
LWPOLYLINE
  2
AcDbPolyline
  3
ObjectDBX Classes
 90
        0
280
     0
281
     1
  0
ENDSEC
  0
SECTION
  2
TABLES
  0
TABLE
  2
VPORT
  5
20
330
0
100
AcDbSymbolTable
 70
     1
  0
VPORT
  5
21
330
20
100
AcDbSymbolTableRecord
100
AcDbViewportTableRecord
  2
*ACTIVE
 70
     0
  0
ENDTAB
  0
TABLE
  2
LTYPE
  5
22
330
0
100
AcDbSymbolTable
 70
     1
  0
LTYPE
  5
23
330
21
100
AcDbSymbolTableRecord
100
AcDbLinetypeTableRecord
  2
BYBLOCK
 70
     0
  3

 72
    65
 73
     0
 40
0.0
  0
LTYPE
  5
24
330
21
100
AcDbSymbolTableRecord
100
AcDbLinetypeTableRecord
  2
BYLAYER
 70
     0
  3

 72
    65
 73
     0
 40
0.0
  0
LTYPE
  5
25
330
21
100
AcDbSymbolTableRecord
100
AcDbLinetypeTableRecord
  2
CONTINUOUS
 70
     0
  3
Solid line
 72
    65
 73
     0
 40
0.0
  0
ENDTAB
  0
TABLE
  2
LAYER
  5
A47
330
0
100
AcDbSymbolTable
 70
63
  0
LAYER
  5
A48
330
A47
100
AcDbSymbolTableRecord
100
AcDbLayerTableRecord
  2
0
 70
   0
 62
   7
  6
CONTINUOUS
  0
LAYER
  5
A49
330
A47
100
AcDbSymbolTableRecord
100
AcDbLayerTableRecord
  2
none
 70
    0
 62
    7
  6
CONTINUOUS
  0
LAYER
  5
A4A
330
A47
100
AcDbSymbolTableRecord
100
AcDbLayerTableRecord
  2
Shape005
 70
    0
 62
    7
  6
CONTINUOUS
  0
LAYER
  5
A4B
330
A47
100
AcDbSymbolTableRecord
100
AcDbLayerTableRecord
  2
Shape009
 70
    0
 62
    7
  6
CONTINUOUS
  0
LAYER
  5
A4C
330
A47
100
AcDbSymbolTableRecord
100
AcDbLayerTableRecord
  2
Shape011
 70
    0
 62
    7
  6
CONTINUOUS
  0
LAYER
  5
A4D
330
A47
100
AcDbSymbolTableRecord
100
AcDbLayerTableRecord
  2
Shape028
 70
    0
 62
    7
  6
CONTINUOUS
  0
LAYER
  5
A4E
330
A47
100
AcDbSymbolTableRecord
100
AcDbLayerTableRecord
  2
Shape031
 70
    0
 62
    7
  6
CONTINUOUS
  0
LAYER
  5
A4F
330
A47
100
AcDbSymbolTableRecord
100
AcDbLayerTableRecord
  2
Shape172
 70
    0
 62
    7
  6
CONTINUOUS
  0
LAYER
  5
A50
330
A47
100
AcDbSymbolTableRecord
100
AcDbLayerTableRecord
  2
Shape176
 70
    0
 62
    7
  6
CONTINUOUS
  0
LAYER
  5
A51
330
A47
100
AcDbSymbolTableRecord
100
AcDbLayerTableRecord
  2
Shape189
 70
    0
 62
    7
  6
CONTINUOUS
  0
LAYER
  5
A52
330
A47
100
AcDbSymbolTableRecord
100
AcDbLayerTableRecord
  2
Shape335
 70
    0
 62
    7
  6
CONTINUOUS
  0
LAYER
  5
A53
330
A47
100
AcDbSymbolTableRecord
100
AcDbLayerTableRecord
  2
Shape341
 70
    0
 62
    7
  6
CONTINUOUS
  0
LAYER
  5
A54
330
A47
100
AcDbSymbolTableRecord
100
AcDbLayerTableRecord
  2
Shape364
 70
    0
 62
    7
  6
CONTINUOUS
  0
LAYER
  5
A55
330
A47
100
AcDbSymbolTableRecord
100
AcDbLayerTableRecord
  2
Shape373
 70
    0
 62
    7
  6
CONTINUOUS
  0
LAYER
  5
A56
330
A47
100
AcDbSymbolTableRecord
100
AcDbLayerTableRecord
  2
Shape442
 70
    0
 62
    7
  6
CONTINUOUS
  0
LAYER
  5
A57
330
A47
100
AcDbSymbolTableRecord
100
AcDbLayerTableRecord
  2
Shape547
 70
    0
 62
    7
  6
CONTINUOUS
  0
LAYER
  5
A58
330
A47
100
AcDbSymbolTableRecord
100
AcDbLayerTableRecord
  2
Shape556
 70
    0
 62
    7
  6
CONTINUOUS
  0
LAYER
  5
A59
330
A47
100
AcDbSymbolTableRecord
100
AcDbLayerTableRecord
  2
Shape557
 70
    0
 62
    7
  6
CONTINUOUS
  0
LAYER
  5
A5A
330
A47
100
AcDbSymbolTableRecord
100
AcDbLayerTableRecord
  2
Shape567
 70
    0
 62
    7
  6
CONTINUOUS
  0
LAYER
  5
A5B
330
A47
100
AcDbSymbolTableRecord
100
AcDbLayerTableRecord
  2
Shape574
 70
    0
 62
    7
  6
CONTINUOUS
  0
LAYER
  5
A5C
330
A47
100
AcDbSymbolTableRecord
100
AcDbLayerTableRecord
  2
Shape576
 70
    0
 62
    7
  6
CONTINUOUS
  0
LAYER
  5
A5D
330
A47
100
AcDbSymbolTableRecord
100
AcDbLayerTableRecord
  2
Shape581
 70
    0
 62
    7
  6
CONTINUOUS
  0
LAYER
  5
A5E
330
A47
100
AcDbSymbolTableRecord
100
AcDbLayerTableRecord
  2
Shape585
 70
    0
 62
    7
  6
CONTINUOUS
  0
LAYER
  5
A5F
330
A47
100
AcDbSymbolTableRecord
100
AcDbLayerTableRecord
  2
Shape605
 70
    0
 62
    7
  6
CONTINUOUS
  0
LAYER
  5
A60
330
A47
100
AcDbSymbolTableRecord
100
AcDbLayerTableRecord
  2
Shape614
 70
    0
 62
    7
  6
CONTINUOUS
  0
LAYER
  5
A61
330
A47
100
AcDbSymbolTableRecord
100
AcDbLayerTableRecord
  2
Shape617
 70
    0
 62
    7
  6
CONTINUOUS
  0
LAYER
  5
A62
330
A47
100
AcDbSymbolTableRecord
100
AcDbLayerTableRecord
  2
Shape643
 70
    0
 62
    7
  6
CONTINUOUS
  0
LAYER
  5
A63
330
A47
100
AcDbSymbolTableRecord
100
AcDbLayerTableRecord
  2
Shape682
 70
    0
 62
    7
  6
CONTINUOUS
  0
LAYER
  5
A64
330
A47
100
AcDbSymbolTableRecord
100
AcDbLayerTableRecord
  2
Shape824
 70
    0
 62
    7
  6
CONTINUOUS
  0
LAYER
  5
A65
330
A47
100
AcDbSymbolTableRecord
100
AcDbLayerTableRecord
  2
Shape947
 70
    0
 62
    7
  6
CONTINUOUS
  0
LAYER
  5
A66
330
A47
100
AcDbSymbolTableRecord
100
AcDbLayerTableRecord
  2
Shape956
 70
    0
 62
    7
  6
CONTINUOUS
  0
LAYER
  5
A67
330
A47
100
AcDbSymbolTableRecord
100
AcDbLayerTableRecord
  2
Shape968
 70
    0
 62
    7
  6
CONTINUOUS
  0
LAYER
  5
A68
330
A47
100
AcDbSymbolTableRecord
100
AcDbLayerTableRecord
  2
Shape977
 70
    0
 62
    7
  6
CONTINUOUS
  0
LAYER
  5
A69
330
A47
100
AcDbSymbolTableRecord
100
AcDbLayerTableRecord
  2
Shape980
 70
    0
 62
    7
  6
CONTINUOUS
  0
LAYER
  5
A6A
330
A47
100
AcDbSymbolTableRecord
100
AcDbLayerTableRecord
  2
Shape989
 70
    0
 62
    7
  6
CONTINUOUS
  0
LAYER
  5
A6B
330
A47
100
AcDbSymbolTableRecord
100
AcDbLayerTableRecord
  2
Shape995
 70
    0
 62
    7
  6
CONTINUOUS
  0
LAYER
  5
A6C
330
A47
100
AcDbSymbolTableRecord
100
AcDbLayerTableRecord
  2
Shape996
 70
    0
 62
    7
  6
CONTINUOUS
  0
LAYER
  5
A6D
330
A47
100
AcDbSymbolTableRecord
100
AcDbLayerTableRecord
  2
Shape997
 70
    0
 62
    7
  6
CONTINUOUS
  0
LAYER
  5
A6E
330
A47
100
AcDbSymbolTableRecord
100
AcDbLayerTableRecord
  2
Shape030
 70
    0
 62
    7
  6
CONTINUOUS
  0
LAYER
  5
A6F
330
A47
100
AcDbSymbolTableRecord
100
AcDbLayerTableRecord
  2
Edge001
 70
    0
 62
    7
  6
CONTINUOUS
  0
LAYER
  5
A70
330
A47
100
AcDbSymbolTableRecord
100
AcDbLayerTableRecord
  2
Edge002
 70
    0
 62
    7
  6
CONTINUOUS
  0
LAYER
  5
A71
330
A47
100
AcDbSymbolTableRecord
100
AcDbLayerTableRecord
  2
Edge003
 70
    0
 62
    7
  6
CONTINUOUS
  0
LAYER
  5
A72
330
A47
100
AcDbSymbolTableRecord
100
AcDbLayerTableRecord
  2
Edge004
 70
    0
 62
    7
  6
CONTINUOUS
  0
LAYER
  5
A73
330
A47
100
AcDbSymbolTableRecord
100
AcDbLayerTableRecord
  2
Edge005
 70
    0
 62
    7
  6
CONTINUOUS
  0
LAYER
  5
A74
330
A47
100
AcDbSymbolTableRecord
100
AcDbLayerTableRecord
  2
Edge006
 70
    0
 62
    7
  6
CONTINUOUS
  0
LAYER
  5
A75
330
A47
100
AcDbSymbolTableRecord
100
AcDbLayerTableRecord
  2
Edge007
 70
    0
 62
    7
  6
CONTINUOUS
  0
LAYER
  5
A76
330
A47
100
AcDbSymbolTableRecord
100
AcDbLayerTableRecord
  2
Edge009
 70
    0
 62
    7
  6
CONTINUOUS
  0
LAYER
  5
A77
330
A47
100
AcDbSymbolTableRecord
100
AcDbLayerTableRecord
  2
Line005
 70
    0
 62
    7
  6
CONTINUOUS
  0
LAYER
  5
A78
330
A47
100
AcDbSymbolTableRecord
100
AcDbLayerTableRecord
  2
Edge011
 70
    0
 62
    7
  6
CONTINUOUS
  0
LAYER
  5
A79
330
A47
100
AcDbSymbolTableRecord
100
AcDbLayerTableRecord
  2
Line006
 70
    0
 62
    7
  6
CONTINUOUS
  0
LAYER
  5
A7A
330
A47
100
AcDbSymbolTableRecord
100
AcDbLayerTableRecord
  2
Edge013
 70
    0
 62
    7
  6
CONTINUOUS
  0
LAYER
  5
A7B
330
A47
100
AcDbSymbolTableRecord
100
AcDbLayerTableRecord
  2
Line007
 70
    0
 62
    7
  6
CONTINUOUS
  0
LAYER
  5
A7C
330
A47
100
AcDbSymbolTableRecord
100
AcDbLayerTableRecord
  2
Edge015
 70
    0
 62
    7
  6
CONTINUOUS
  0
LAYER
  5
A7D
330
A47
100
AcDbSymbolTableRecord
100
AcDbLayerTableRecord
  2
Line008
 70
    0
 62
    7
  6
CONTINUOUS
  0
LAYER
  5
A7E
330
A47
100
AcDbSymbolTableRecord
100
AcDbLayerTableRecord
  2
Fillet
 70
    0
 62
    7
  6
CONTINUOUS
  0
LAYER
  5
A7F
330
A47
100
AcDbSymbolTableRecord
100
AcDbLayerTableRecord
  2
Line009
 70
    0
 62
    7
  6
CONTINUOUS
  0
LAYER
  5
A80
330
A47
100
AcDbSymbolTableRecord
100
AcDbLayerTableRecord
  2
Line010
 70
    0
 62
    7
  6
CONTINUOUS
  0
LAYER
  5
A81
330
A47
100
AcDbSymbolTableRecord
100
AcDbLayerTableRecord
  2
Line011
 70
    0
 62
    7
  6
CONTINUOUS
  0
LAYER
  5
A82
330
A47
100
AcDbSymbolTableRecord
100
AcDbLayerTableRecord
  2
Line012
 70
    0
 62
    7
  6
CONTINUOUS
  0
LAYER
  5
A83
330
A47
100
AcDbSymbolTableRecord
100
AcDbLayerTableRecord
  2
Line013
 70
    0
 62
    7
  6
CONTINUOUS
  0
LAYER
  5
A84
330
A47
100
AcDbSymbolTableRecord
100
AcDbLayerTableRecord
  2
Line014
 70
    0
 62
    7
  6
CONTINUOUS
  0
LAYER
  5
A85
330
A47
100
AcDbSymbolTableRecord
100
AcDbLayerTableRecord
  2
Line015
 70
    0
 62
    7
  6
CONTINUOUS
  0
LAYER
  5
A86
330
A47
100
AcDbSymbolTableRecord
100
AcDbLayerTableRecord
  2
Line016
 70
    0
 62
    7
  6
CONTINUOUS
  0
ENDTAB
  0
TABLE
  2
STYLE
  5
70
330
0
100
AcDbSymbolTable
 70
     2
  0
STYLE
  5
71
330
70
100
AcDbSymbolTableRecord
100
AcDbTextStyleTableRecord
  2
STANDARD
 70
     0
 40
0.0
 41
1.0
 50
0.0
 71
     0
 42
2.5
  3
arial.ttf
  4

  0
STYLE
  5
72
330
70
100
AcDbSymbolTableRecord
100
AcDbTextStyleTableRecord
  2
ANNOTATIVE
 70
     0
 40
0.0
 41
1.0
 50
0.0
 71
     0
 42
2.5
  3
arial.ttf
  4

  0
ENDTAB
  0
TABLE
  2
VIEW
  5
73
330
0
100
AcDbSymbolTable
 70
     0
  0
ENDTAB
  0
TABLE
  2
UCS
  5
74
330
0
100
AcDbSymbolTable
 70
     0
  0
ENDTAB
  0
TABLE
  2
APPID
  5
75
330
0
100
AcDbSymbolTable
 70
     2
  0
APPID
  5
76
330
75
100
AcDbSymbolTableRecord
100
AcDbRegAppTableRecord
  2
ACAD
 70
     0
  0
APPID
  5
77
330
75
100
AcDbSymbolTableRecord
100
AcDbRegAppTableRecord
  2
ACADANNOTATIVE
 70
     0
  0
ENDTAB
  0
TABLE
  2
DIMSTYLE
  5
78
330
0
100
AcDbSymbolTable
 70
     2
  0
DIMSTYLE
105
79
330
78
100
AcDbSymbolTableRecord
100
AcDbDimStyleTableRecord
  2
STANDARD
 70
     0
  3

  4

  5

  6

  7

 40
0.0
 41
2.5
 42
0.625
 43
3.75
 44
1.25
 45
0.0
 46
0.0
 47
0.0
 48
0.0
140
2.5
141
2.5
142
0.0
143
0.03937007874016
144
1.0
145
0.0
146
1.0
147
0.625
 71
     0
 72
     0
 73
     0
 74
     0
 75
     0
 76
     0
 77
     1
 78
     8
170
     0
171
     3
172
     1
173
     0
174
     0
175
     0
176
     0
177
     0
178
     0
270
     2
271
     2
272
     2
273
     2
274
     3
340
71
275
     0
280
     0
281
     0
282
     0
283
     0
284
     8
285
     0
286
     0
287
     3
288
     0
  0
ENDTAB
  0
TABLE
  2
BLOCK_RECORD
  5
A01
330
0
100
AcDbSymbolTable
  70
5
  0
BLOCK_RECORD
  5
A02
330
A01
100
AcDbSymbolTableRecord
100
AcDbBlockTableRecord
  2
*MODEL_SPACE
  0
BLOCK_RECORD
  5
A03
330
A01
100
AcDbSymbolTableRecord
100
AcDbBlockTableRecord
  2
*PAPER_SPACE
  0
ENDTAB
  0
ENDSEC
  0
SECTION
  2
BLOCKS
  0
BLOCK
  5
A04
330
A02
100
AcDbEntity
  8
0
100
AcDbBlockBegin
  2
*MODEL_SPACE
 70
   0
 10
0
 20
0
 30
0
  3
*MODEL_SPACE
  1
 
  0
ENDBLK
  5
A05
330
A02
100
AcDbEntity
  8
0
100
AcDbBlockEnd
  0
BLOCK
  5
A06
330
A03
100
AcDbEntity
 67
1
  8
0
100
AcDbBlockBegin
  2
*PAPER_SPACE
 70
   0
 10
0
 20
0
 30
0
  3
*PAPER_SPACE
  1
 
  0
ENDBLK
  5
A07
330
A03
100
AcDbEntity
 67
    1
  8
0
100
AcDbBlockEnd
  0
ENDSEC
  0
SECTION
  2
ENTITIES
  0
ARC
  5
A08
330
A02
100
AcDbEntity
  8
Shape005
100
AcDbCircle
 10
-3.525
 20
73.675
 30
0
 40
0.5
100
AcDbArc
 50
0
 51
90
  0
ARC
  5
A09
330
A02
100
AcDbEntity
  8
Shape009
100
AcDbCircle
 10
-3.175
 20
75.8849
 30
0
 40
2.675
100
AcDbArc
 50
0
 51
45
  0
LINE
  5
A0A
330
A02
100
AcDbEntity
  8
Shape011
100
AcDbLine
 10
-0.5
 20
75.8849
 30
0
 11
-0.5
 21
1.31513
 31
0
  0
ARC
  5
A0B
330
A02
100
AcDbEntity
  8
Shape028
100
AcDbCircle
 10
-16.5263
 20
73.675
 30
0
 40
0.5
100
AcDbArc
 50
90
 51
180
  0
ARC
  5
A0C
330
A02
100
AcDbEntity
  8
Shape031
100
AcDbCircle
 10
-16.5263
 20
60.675
 30
0
 40
0.5
100
AcDbArc
 50
180
 51
-90
  0
LINE
  5
A0D
330
A02
100
AcDbEntity
  8
Shape172
100
AcDbLine
 10
-5.42362
 20
81.9165
 30
0
 11
-1.28349
 21
77.7764
 31
0
  0
ARC
  5
A0E
330
A02
100
AcDbEntity
  8
Shape176
100
AcDbCircle
 10
-5.90625
 20
35.575
 30
0
 40
0.5
100
AcDbArc
 50
0
 51
90
  0
ARC
  5
A0F
330
A02
100
AcDbEntity
  8
Shape189
100
AcDbCircle
 10
-3.175
 20
1.31513
 30
0
 40
2.675
100
AcDbArc
 50
-45
 51
-1.42679e-14
  0
ARC
  5
A10
330
A02
100
AcDbEntity
  8
Shape335
100
AcDbCircle
 10
-3.525
 20
3.525
 30
0
 40
0.5
100
AcDbArc
 50
-90
 51
0
  0
LINE
  5
A11
330
A02
100
AcDbEntity
  8
Shape341
100
AcDbLine
 10
-17.025
 20
16.525
 30
0
 11
-17.025
 21
3.525
 31
0
  0
ARC
  5
A12
330
A02
100
AcDbEntity
  8
Shape364
100
AcDbCircle
 10
-16.525
 20
3.525
 30
0
 40
0.5
100
AcDbArc
 50
180
 51
-90
  0
ARC
  5
A13
330
A02
100
AcDbEntity
  8
Shape373
100
AcDbCircle
 10
-16.525
 20
16.525
 30
0
 40
0.5
100
AcDbArc
 50
90
 51
180
  0
CIRCLE
  5
A14
330
A02
100
AcDbEntity
  8
Shape442
100
AcDbCircle
 10
-19.55
 20
8.775
 40
0.75
  0
LINE
  5
A15
330
A02
100
AcDbEntity
  8
Shape547
100
AcDbLine
 10
-14.6849
 20
82.7
 30
0
 11
-7.31513
 21
82.7
 31
0
  0
LINE
  5
A16
330
A02
100
AcDbEntity
  8
Shape556
100
AcDbLine
 10
-1.28349
 20
-0.576383
 30
0
 11
-5.42362
 21
-4.71651
 31
0
  0
ARC
  5
A17
330
A02
100
AcDbEntity
  8
Shape557
100
AcDbCircle
 10
-14.6849
 20
-2.825
 30
0
 40
2.675
100
AcDbArc
 50
-135
 51
-90
  0
ARC
  5
A18
330
A02
100
AcDbEntity
  8
Shape567
100
AcDbCircle
 10
-7.31513
 20
80.025
 30
0
 40
2.675
100
AcDbArc
 50
45
 51
90
  0
LINE
  5
A19
330
A02
100
AcDbEntity
  8
Shape574
100
AcDbLine
 10
-7.31513
 20
-5.5
 30
0
 11
-14.6849
 21
-5.5
 31
0
  0
CIRCLE
  5
A1A
330
A02
100
AcDbEntity
  8
Shape576
100
AcDbCircle
 10
-10.9999
 20
-2.75
 40
1.25
  0
CIRCLE
  5
A1B
330
A02
100
AcDbEntity
  8
Shape581
100
AcDbCircle
 10
-11.0001
 20
79.95
 40
1.25
  0
ARC
  5
A1C
330
A02
100
AcDbEntity
  8
Shape585
100
AcDbCircle
 10
-14.6849
 20
80.025
 30
0
 40
2.675
100
AcDbArc
 50
90
 51
135
  0
LINE
  5
A1D
330
A02
100
AcDbEntity
  8
Shape605
100
AcDbLine
 10
-5.40625
 20
22.575
 30
0
 11
-5.40625
 21
35.575
 31
0
  0
ARC
  5
A1E
330
A02
100
AcDbEntity
  8
Shape614
100
AcDbCircle
 10
-5.90625
 20
22.575
 30
0
 40
0.5
100
AcDbArc
 50
-90
 51
0
  0
ARC
  5
A1F
330
A02
100
AcDbEntity
  8
Shape617
100
AcDbCircle
 10
-18.9062
 20
35.575
 30
0
 40
0.5
100
AcDbArc
 50
90
 51
180
  0
LINE
  5
A20
330
A02
100
AcDbEntity
  8
Shape643
100
AcDbLine
 10
-19.4062
 20
35.575
 30
0
 11
-19.4062
 21
22.575
 31
0
  0
LINE
  5
A21
330
A02
100
AcDbEntity
  8
Shape682
100
AcDbLine
 10
-10.1687
 20
41.625
 30
0
 11
-10.1687
 21
54.625
 31
0
  0
ARC
  5
A22
330
A02
100
AcDbEntity
  8
Shape824
100
AcDbCircle
 10
-10.6687
 20
41.625
 30
0
 40
0.5
100
AcDbArc
 50
-90
 51
0
  0
ARC
  5
A23
330
A02
100
AcDbEntity
  8
Shape947
100
AcDbCircle
 10
-10.6688
 20
54.625
 30
0
 40
0.5
100
AcDbArc
 50
0
 51
90
  0
LINE
  5
A24
330
A02
100
AcDbEntity
  8
Shape956
100
AcDbLine
 10
-24.1688
 20
54.625
 30
0
 11
-24.1688
 21
41.625
 31
0
  0
ARC
  5
A25
330
A02
100
AcDbEntity
  8
Shape968
100
AcDbCircle
 10
-7.31513
 20
-2.825
 30
0
 40
2.675
100
AcDbArc
 50
-90
 51
-45
  0
LINE
  5
A26
330
A02
100
AcDbEntity
  8
Shape977
100
AcDbLine
 10
-3.025
 20
60.675
 30
0
 11
-3.025
 21
73.675
 31
0
  0
ARC
  5
A27
330
A02
100
AcDbEntity
  8
Shape980
100
AcDbCircle
 10
-3.525
 20
60.675
 30
0
 40
0.5
100
AcDbArc
 50
-90
 51
0
  0
ARC
  5
A28
330
A02
100
AcDbEntity
  8
Shape989
100
AcDbCircle
 10
-3.525
 20
16.525
 30
0
 40
0.5
100
AcDbArc
 50
0
 51
90
  0
ARC
  5
A29
330
A02
100
AcDbEntity
  8
Shape995
100
AcDbCircle
 10
-18.9062
 20
22.575
 30
0
 40
0.5
100
AcDbArc
 50
180
 51
-90
  0
ARC
  5
A2A
330
A02
100
AcDbEntity
  8
Shape996
100
AcDbCircle
 10
-23.6687
 20
41.625
 30
0
 40
0.5
100
AcDbArc
 50
180
 51
-90
  0
ARC
  5
A2B
330
A02
100
AcDbEntity
  8
Shape997
100
AcDbCircle
 10
-23.6687
 20
54.625
 30
0
 40
0.5
100
AcDbArc
 50
90
 51
180
  0
LINE
  5
A2C
330
A02
100
AcDbEntity
  8
Shape030
100
AcDbLine
 10
-17.0263
 20
73.675
 30
0
 11
-17.0263
 21
60.675
 31
0
  0
ARC
  5
A2D
330
A02
100
AcDbEntity
  8
Edge001
100
AcDbCircle
 10
-18.6
 20
76.1099
 30
0
 40
2.675
100
AcDbArc
 50
135
 51
-180
  0
LINE
  5
A2E
330
A02
100
AcDbEntity
  8
Edge002
100
AcDbLine
 10
-20.4915
 20
78.0014
 30
0
 11
-16.5764
 21
81.9165
 31
0
  0
LINE
  5
A2F
330
A02
100
AcDbEntity
  8
Edge003
100
AcDbLine
 10
-3.025
 20
3.525
 30
0
 11
-3.025
 21
16.525
 31
0
  0
LINE
  5
A30
330
A02
100
AcDbEntity
  8
Edge004
100
AcDbLine
 10
-16.5764
 20
-4.71651
 30
0
 11
-20.4915
 21
-0.801383
 31
0
  0
ARC
  5
A31
330
A02
100
AcDbEntity
  8
Edge005
100
AcDbCircle
 10
-18.6
 20
1.09013
 30
0
 40
2.675
100
AcDbArc
 50
180
 51
-135
  0
LINE
  5
A32
330
A02
100
AcDbEntity
  8
Edge006
100
AcDbLine
 10
-21.275
 20
1.09013
 30
0
 11
-21.275
 21
18.55
 31
0
  0
ARC
  5
A33
330
A02
100
AcDbEntity
  8
Edge007
100
AcDbCircle
 10
-22.275
 20
18.55
 30
0
 40
1
100
AcDbArc
 50
2.03555e-13
 51
90
  0
ARC
  5
A34
330
A02
100
AcDbEntity
  8
Edge009
100
AcDbCircle
 10
-22.6575
 20
20.55
 30
0
 40
1
100
AcDbArc
 50
-180
 51
-90
  0
LINE
  5
A35
330
A02
100
AcDbEntity
  8
Line005
100
AcDbLine
 10
-22.275
 20
19.55
 30
0
 11
-22.6575
 21
19.55
 31
0
  0
ARC
  5
A36
330
A02
100
AcDbEntity
  8
Edge011
100
AcDbCircle
 10
-24.6575
 20
37.6
 30
0
 40
1
100
AcDbArc
 50
0
 51
90
  0
LINE
  5
A37
330
A02
100
AcDbEntity
  8
Line006
100
AcDbLine
 10
-23.6575
 20
37.6
 30
0
 11
-23.6575
 21
20.55
 31
0
  0
ARC
  5
A38
330
A02
100
AcDbEntity
  8
Edge013
100
AcDbCircle
 10
-27.4225
 20
39.6
 30
0
 40
1
100
AcDbArc
 50
180
 51
-90
  0
LINE
  5
A39
330
A02
100
AcDbEntity
  8
Line007
100
AcDbLine
 10
-27.4225
 20
38.6
 30
0
 11
-24.6575
 21
38.6
 31
0
  0
ARC
  5
A3A
330
A02
100
AcDbEntity
  8
Edge015
100
AcDbCircle
 10
-27.4225
 20
56.65
 30
0
 40
1
100
AcDbArc
 50
90
 51
180
  0
LINE
  5
A3B
330
A02
100
AcDbEntity
  8
Line008
100
AcDbLine
 10
-28.4225
 20
56.65
 30
0
 11
-28.4225
 21
39.6
 31
0
  0
LINE
  5
A3C
330
A02
100
AcDbEntity
  8
Fillet
100
AcDbLine
 10
-27.4225
 20
57.65
 30
0
 11
-22.275
 21
57.65
 31
0
  0
ARC
  5
A3D
330
A02
100
AcDbEntity
  8
Fillet
100
AcDbCircle
 10
-22.275
 20
58.65
 30
0
 40
1
100
AcDbArc
 50
-90
 51
0
  0
LINE
  5
A3E
330
A02
100
AcDbEntity
  8
Fillet
100
AcDbLine
 10
-21.275
 20
58.65
 30
0
 11
-21.275
 21
76.1099
 31
0
  0
LINE
  5
A3F
330
A02
100
AcDbEntity
  8
Line009
100
AcDbLine
 10
-16.5263
 20
74.175
 30
0
 11
-3.525
 21
74.175
 31
0
  0
LINE
  5
A40
330
A02
100
AcDbEntity
  8
Line010
100
AcDbLine
 10
-16.525
 20
3.025
 30
0
 11
-3.525
 21
3.025
 31
0
  0
LINE
  5
A41
330
A02
100
AcDbEntity
  8
Line011
100
AcDbLine
 10
-18.9062
 20
22.075
 30
0
 11
-5.90625
 21
22.075
 31
0
  0
LINE
  5
A42
330
A02
100
AcDbEntity
  8
Line012
100
AcDbLine
 10
-18.9062
 20
36.075
 30
0
 11
-5.90625
 21
36.075
 31
0
  0
LINE
  5
A43
330
A02
100
AcDbEntity
  8
Line013
100
AcDbLine
 10
-23.6688
 20
41.125
 30
0
 11
-10.6687
 21
41.125
 31
0
  0
LINE
  5
A44
330
A02
100
AcDbEntity
  8
Line014
100
AcDbLine
 10
-16.5263
 20
60.175
 30
0
 11
-3.525
 21
60.175
 31
0
  0
LINE
  5
A45
330
A02
100
AcDbEntity
  8
Line015
100
AcDbLine
 10
-23.6688
 20
55.125
 30
0
 11
-10.6687
 21
55.125
 31
0
  0
LINE
  5
A46
330
A02
100
AcDbEntity
  8
Line016
100
AcDbLine
 10
-16.525
 20
17.025
 30
0
 11
-3.525
 21
17.025
 31
0
  0
ENDSEC
  0
SECTION
  2
OBJECTS
  0
DICTIONARY
  5
F000
330
0
100
AcDbDictionary
  3
ACAD_GROUP
350
F001
  0
DICTIONARY
  5
F001
330
F000
100
AcDbDictionary
  0
ENDSEC
  0
EOF