0
SECTION
2
HEADER
9
$INSUNITS
70
4
0
ENDSEC
0
SECTION
2
TABLES
0
TABLE
2
LTYPE
0
LTYPE
72
65
70
64
2
CONTINUOUS
3
______
73
0
40
0
0
ENDTAB
0
TABLE
2
LAYER
0
ENDTAB
0
ENDSEC
0
SECTION
2
ENTITIES
0
LINE
8
0
10
2.34
20
-16.525
11
16.34
21
-16.525
0
LINE
8
0
10
16.34
20
-2.525
11
2.34
21
-2.525
0
LINE
8
0
10
16.34
20
-16.525
11
16.34
21
-2.525
0
LINE
8
0
10
2.34
20
-2.525
11
2.34
21
-16.525
0
LINE
8
0
10
21.02
20
-16.525
11
35.02
21
-16.525
0
LINE
8
0
10
35.02
20
-2.525
11
21.02
21
-2.525
0
LINE
8
0
10
35.02
20
-16.525
11
35.02
21
-2.525
0
LINE
8
0
10
21.02
20
-2.525
11
21.02
21
-16.525
0
LINE
8
0
10
39.7
20
-16.525
11
53.7
21
-16.525
0
LINE
8
0
10
53.7
20
-2.525
11
39.7
21
-2.525
0
LINE
8
0
10
53.7
20
-16.525
11
53.7
21
-2.525
0
LINE
8
0
10
39.7
20
-2.525
11
39.7
21
-16.525
0
LINE
8
0
10
58.38
20
-16.525
11
72.38
21
-16.525
0
LINE
8
0
10
72.38
20
-2.525
11
58.38
21
-2.525
0
LINE
8
0
10
72.38
20
-16.525
11
72.38
21
-2.525
0
LINE
8
0
10
58.38
20
-2.525
11
58.38
21
-16.525
0
LINE
8
0
10
77.06
20
-16.525
11
91.06
21
-16.525
0
LINE
8
0
10
91.06
20
-2.525
11
77.06
21
-2.525
0
LINE
8
0
10
91.06
20
-16.525
11
91.06
21
-2.525
0
LINE
8
0
10
77.06
20
-2.525
11
77.06
21
-16.525
0
LINE
8
0
10
95.74
20
-16.525
11
109.74
21
-16.525
0
LINE
8
0
10
109.74
20
-2.525
11
95.74
21
-2.525
0
LINE
8
0
10
109.74
20
-16.525
11
109.74
21
-2.525
0
LINE
8
0
10
95.74
20
-2.525
11
95.74
21
-16.525
0
LINE
8
0
10
114.42
20
-16.525
11
128.42
21
-16.525
0
LINE
8
0
10
128.42
20
-2.525
11
114.42
21
-2.525
0
LINE
8
0
10
128.42
20
-16.525
11
128.42
21
-2.525
0
LINE
8
0
10
114.42
20
-2.525
11
114.42
21
-16.525
0
LINE
8
0
10
133.1
20
-16.525
11
147.1
21
-16.525
0
LINE
8
0
10
147.1
20
-2.525
11
133.1
21
-2.525
0
LINE
8
0
10
147.1
20
-16.525
11
147.1
21
-2.525
0
LINE
8
0
10
133.1
20
-2.525
11
133.1
21
-16.525
0
LINE
8
0
10
151.78
20
-16.525
11
165.78
21
-16.525
0
LINE
8
0
10
165.78
20
-2.525
11
151.78
21
-2.525
0
LINE
8
0
10
165.78
20
-16.525
11
165.78
21
-2.525
0
LINE
8
0
10
151.78
20
-2.525
11
151.78
21
-16.525
0
LINE
8
0
10
170.46
20
-16.525
11
184.46
21
-16.525
0
LINE
8
0
10
184.46
20
-2.525
11
170.46
21
-2.525
0
LINE
8
0
10
184.46
20
-16.525
11
184.46
21
-2.525
0
LINE
8
0
10
170.46
20
-2.525
11
170.46
21
-16.525
0
LINE
8
0
10
189.14
20
-16.525
11
203.14
21
-16.525
0
LINE
8
0
10
203.14
20
-2.525
11
189.14
21
-2.525
0
LINE
8
0
10
203.14
20
-16.525
11
203.14
21
-2.525
0
LINE
8
0
10
189.14
20
-2.525
11
189.14
21
-16.525
0
LINE
8
0
10
207.82
20
-16.525
11
221.82
21
-16.525
0
LINE
8
0
10
221.82
20
-2.525
11
207.82
21
-2.525
0
LINE
8
0
10
221.82
20
-16.525
11
221.82
21
-2.525
0
LINE
8
0
10
207.82
20
-2.525
11
207.82
21
-16.525
0
LINE
8
0
10
226.5
20
-16.525
11
240.5
21
-16.525
0
LINE
8
0
10
240.5
20
-2.525
11
226.5
21
-2.525
0
LINE
8
0
10
240.5
20
-16.525
11
240.5
21
-2.525
0
LINE
8
0
10
226.5
20
-2.525
11
226.5
21
-16.525
0
LINE
8
0
10
2.34
20
-35.575
11
16.34
21
-35.575
0
LINE
8
0
10
16.34
20
-21.575
11
2.34
21
-21.575
0
LINE
8
0
10
16.34
20
-35.575
11
16.34
21
-21.575
0
LINE
8
0
10
2.34
20
-21.575
11
2.34
21
-35.575
0
LINE
8
0
10
21.02
20
-35.575
11
35.02
21
-35.575
0
LINE
8
0
10
35.02
20
-21.575
11
21.02
21
-21.575
0
LINE
8
0
10
35.02
20
-35.575
11
35.02
21
-21.575
0
LINE
8
0
10
21.02
20
-21.575
11
21.02
21
-35.575
0
LINE
8
0
10
39.7
20
-35.575
11
53.7
21
-35.575
0
LINE
8
0
10
53.7
20
-21.575
11
39.7
21
-21.575
0
LINE
8
0
10
53.7
20
-35.575
11
53.7
21
-21.575
0
LINE
8
0
10
39.7
20
-21.575
11
39.7
21
-35.575
0
LINE
8
0
10
58.38
20
-35.575
11
72.38
21
-35.575
0
LINE
8
0
10
72.38
20
-21.575
11
58.38
21
-21.575
0
LINE
8
0
10
72.38
20
-35.575
11
72.38
21
-21.575
0
LINE
8
0
10
58.38
20
-21.575
11
58.38
21
-35.575
0
LINE
8
0
10
77.06
20
-35.575
11
91.06
21
-35.575
0
LINE
8
0
10
91.06
20
-21.575
11
77.06
21
-21.575
0
LINE
8
0
10
91.06
20
-35.575
11
91.06
21
-21.575
0
LINE
8
0
10
77.06
20
-21.575
11
77.06
21
-35.575
0
LINE
8
0
10
95.74
20
-35.575
11
109.74
21
-35.575
0
LINE
8
0
10
109.74
20
-21.575
11
95.74
21
-21.575
0
LINE
8
0
10
109.74
20
-35.575
11
109.74
21
-21.575
0
LINE
8
0
10
95.74
20
-21.575
11
95.74
21
-35.575
0
LINE
8
0
10
114.42
20
-35.575
11
128.42
21
-35.575
0
LINE
8
0
10
128.42
20
-21.575
11
114.42
21
-21.575
0
LINE
8
0
10
128.42
20
-35.575
11
128.42
21
-21.575
0
LINE
8
0
10
114.42
20
-21.575
11
114.42
21
-35.575
0
LINE
8
0
10
133.1
20
-35.575
11
147.1
21
-35.575
0
LINE
8
0
10
147.1
20
-21.575
11
133.1
21
-21.575
0
LINE
8
0
10
147.1
20
-35.575
11
147.1
21
-21.575
0
LINE
8
0
10
133.1
20
-21.575
11
133.1
21
-35.575
0
LINE
8
0
10
151.78
20
-35.575
11
165.78
21
-35.575
0
LINE
8
0
10
165.78
20
-21.575
11
151.78
21
-21.575
0
LINE
8
0
10
165.78
20
-35.575
11
165.78
21
-21.575
0
LINE
8
0
10
151.78
20
-21.575
11
151.78
21
-35.575
0
LINE
8
0
10
170.46
20
-35.575
11
184.46
21
-35.575
0
LINE
8
0
10
184.46
20
-21.575
11
170.46
21
-21.575
0
LINE
8
0
10
184.46
20
-35.575
11
184.46
21
-21.575
0
LINE
8
0
10
170.46
20
-21.575
11
170.46
21
-35.575
0
LINE
8
0
10
189.14
20
-35.575
11
203.14
21
-35.575
0
LINE
8
0
10
203.14
20
-21.575
11
189.14
21
-21.575
0
LINE
8
0
10
203.14
20
-35.575
11
203.14
21
-21.575
0
LINE
8
0
10
189.14
20
-21.575
11
189.14
21
-35.575
0
LINE
8
0
10
207.82
20
-35.575
11
221.82
21
-35.575
0
LINE
8
0
10
221.82
20
-21.575
11
207.82
21
-21.575
0
LINE
8
0
10
221.82
20
-35.575
11
221.82
21
-21.575
0
LINE
8
0
10
207.82
20
-21.575
11
207.82
21
-35.575
0
LINE
8
0
10
226.5
20
-35.575
11
240.5
21
-35.575
0
LINE
8
0
10
240.5
20
-21.575
11
226.5
21
-21.575
0
LINE
8
0
10
240.5
20
-35.575
11
240.5
21
-21.575
0
LINE
8
0
10
226.5
20
-21.575
11
226.5
21
-35.575
0
LINE
8
0
10
2.34
20
-54.625
11
16.34
21
-54.625
0
LINE
8
0
10
16.34
20
-40.625
11
2.34
21
-40.625
0
LINE
8
0
10
16.34
20
-54.625
11
16.34
21
-40.625
0
LINE
8
0
10
2.34
20
-40.625
11
2.34
21
-54.625
0
LINE
8
0
10
21.02
20
-54.625
11
35.02
21
-54.625
0
LINE
8
0
10
35.02
20
-40.625
11
21.02
21
-40.625
0
LINE
8
0
10
35.02
20
-54.625
11
35.02
21
-40.625
0
LINE
8
0
10
21.02
20
-40.625
11
21.02
21
-54.625
0
LINE
8
0
10
39.7
20
-54.625
11
53.7
21
-54.625
0
LINE
8
0
10
53.7
20
-40.625
11
39.7
21
-40.625
0
LINE
8
0
10
53.7
20
-54.625
11
53.7
21
-40.625
0
LINE
8
0
10
39.7
20
-40.625
11
39.7
21
-54.625
0
LINE
8
0
10
58.38
20
-54.625
11
72.38
21
-54.625
0
LINE
8
0
10
72.38
20
-40.625
11
58.38
21
-40.625
0
LINE
8
0
10
72.38
20
-54.625
11
72.38
21
-40.625
0
LINE
8
0
10
58.38
20
-40.625
11
58.38
21
-54.625
0
LINE
8
0
10
77.06
20
-54.625
11
91.06
21
-54.625
0
LINE
8
0
10
91.06
20
-40.625
11
77.06
21
-40.625
0
LINE
8
0
10
91.06
20
-54.625
11
91.06
21
-40.625
0
LINE
8
0
10
77.06
20
-40.625
11
77.06
21
-54.625
0
LINE
8
0
10
95.74
20
-54.625
11
109.74
21
-54.625
0
LINE
8
0
10
109.74
20
-40.625
11
95.74
21
-40.625
0
LINE
8
0
10
109.74
20
-54.625
11
109.74
21
-40.625
0
LINE
8
0
10
95.74
20
-40.625
11
95.74
21
-54.625
0
LINE
8
0
10
114.42
20
-54.625
11
128.42
21
-54.625
0
LINE
8
0
10
128.42
20
-40.625
11
114.42
21
-40.625
0
LINE
8
0
10
128.42
20
-54.625
11
128.42
21
-40.625
0
LINE
8
0
10
114.42
20
-40.625
11
114.42
21
-54.625
0
LINE
8
0
10
133.1
20
-54.625
11
147.1
21
-54.625
0
LINE
8
0
10
147.1
20
-40.625
11
133.1
21
-40.625
0
LINE
8
0
10
147.1
20
-54.625
11
147.1
21
-40.625
0
LINE
8
0
10
133.1
20
-40.625
11
133.1
21
-54.625
0
LINE
8
0
10
151.78
20
-54.625
11
165.78
21
-54.625
0
LINE
8
0
10
165.78
20
-40.625
11
151.78
21
-40.625
0
LINE
8
0
10
165.78
20
-54.625
11
165.78
21
-40.625
0
LINE
8
0
10
151.78
20
-40.625
11
151.78
21
-54.625
0
LINE
8
0
10
170.46
20
-54.625
11
184.46
21
-54.625
0
LINE
8
0
10
184.46
20
-40.625
11
170.46
21
-40.625
0
LINE
8
0
10
184.46
20
-54.625
11
184.46
21
-40.625
0
LINE
8
0
10
170.46
20
-40.625
11
170.46
21
-54.625
0
LINE
8
0
10
189.14
20
-54.625
11
203.14
21
-54.625
0
LINE
8
0
10
203.14
20
-40.625
11
189.14
21
-40.625
0
LINE
8
0
10
203.14
20
-54.625
11
203.14
21
-40.625
0
LINE
8
0
10
189.14
20
-40.625
11
189.14
21
-54.625
0
LINE
8
0
10
207.82
20
-54.625
11
221.82
21
-54.625
0
LINE
8
0
10
221.82
20
-40.625
11
207.82
21
-40.625
0
LINE
8
0
10
221.82
20
-54.625
11
221.82
21
-40.625
0
LINE
8
0
10
207.82
20
-40.625
11
207.82
21
-54.625
0
LINE
8
0
10
226.5
20
-54.625
11
240.5
21
-54.625
0
LINE
8
0
10
240.5
20
-40.625
11
226.5
21
-40.625
0
LINE
8
0
10
240.5
20
-54.625
11
240.5
21
-40.625
0
LINE
8
0
10
226.5
20
-40.625
11
226.5
21
-54.625
0
LINE
8
0
10
2.34
20
-73.675
11
16.34
21
-73.675
0
LINE
8
0
10
16.34
20
-59.675
11
2.34
21
-59.675
0
LINE
8
0
10
16.34
20
-73.675
11
16.34
21
-59.675
0
LINE
8
0
10
2.34
20
-59.675
11
2.34
21
-73.675
0
LINE
8
0
10
21.02
20
-73.675
11
35.02
21
-73.675
0
LINE
8
0
10
35.02
20
-59.675
11
21.02
21
-59.675
0
LINE
8
0
10
35.02
20
-73.675
11
35.02
21
-59.675
0
LINE
8
0
10
21.02
20
-59.675
11
21.02
21
-73.675
0
LINE
8
0
10
39.7
20
-73.675
11
53.7
21
-73.675
0
LINE
8
0
10
53.7
20
-59.675
11
39.7
21
-59.675
0
LINE
8
0
10
53.7
20
-73.675
11
53.7
21
-59.675
0
LINE
8
0
10
39.7
20
-59.675
11
39.7
21
-73.675
0
LINE
8
0
10
77.06
20
-73.675
11
77.962
21
-73.675
0
LINE
8
0
10
86.4
20
-73.675
11
91.06
21
-73.675
0
LINE
8
0
10
77.962
20
-73.675
11
84.962
21
-73.675
0
LINE
8
0
10
84.962
20
-73.675
11
86.4
21
-73.675
0
LINE
8
0
10
91.06
20
-59.675
11
86.4
21
-59.675
0
LINE
8
0
10
86.4
20
-59.675
11
84.962
21
-59.675
0
LINE
8
0
10
77.962
20
-59.675
11
77.06
21
-59.675
0
LINE
8
0
10
77.06
20
-59.675
11
77.06
21
-73.675
0
LINE
8
0
10
106.61
20
-58.675
11
101.838
21
-58.675
0
LINE
8
0
10
101.838
20
-58.675
11
99.61
21
-58.675
0
LINE
8
0
10
99.61
20
-73.675
11
100.4
21
-73.675
0
LINE
8
0
10
100.4
20
-73.675
11
101.838
21
-73.675
0
LINE
8
0
10
101.838
20
-73.675
11
106.61
21
-73.675
0
LINE
8
0
10
99.61
20
-58.675
11
99.61
21
-59.675
0
LINE
8
0
10
68.51
20
-58.675
11
67.77
21
-58.675
0
LINE
8
0
10
67.77
20
-58.675
11
61.51
21
-58.675
0
LINE
8
0
10
61.51
20
-73.675
11
67.77
21
-73.675
0
LINE
8
0
10
67.77
20
-73.675
11
68.51
21
-73.675
0
LINE
8
0
10
68.51
20
-59.675
11
68.51
21
-58.675
0
LINE
8
0
10
58.38
20
-73.675
11
60.77
21
-73.675
0
LINE
8
0
10
60.77
20
-73.675
11
61.51
21
-73.675
0
LINE
8
0
10
68.51
20
-73.675
11
72.38
21
-73.675
0
LINE
8
0
10
72.38
20
-59.675
11
68.51
21
-59.675
0
LINE
8
0
10
60.77
20
-59.675
11
58.38
21
-59.675
0
LINE
8
0
10
72.38
20
-73.675
11
72.38
21
-59.675
0
LINE
8
0
10
58.38
20
-59.675
11
58.38
21
-73.675
0
LINE
8
0
10
114.42
20
-73.675
11
128.42
21
-73.675
0
LINE
8
0
10
128.42
20
-59.675
11
114.42
21
-59.675
0
LINE
8
0
10
128.42
20
-73.675
11
128.42
21
-59.675
0
LINE
8
0
10
114.42
20
-59.675
11
114.42
21
-73.675
0
LINE
8
0
10
182.07
20
-58.675
11
181.33
21
-58.675
0
LINE
8
0
10
181.33
20
-58.675
11
175.07
21
-58.675
0
LINE
8
0
10
175.07
20
-73.675
11
181.33
21
-73.675
0
LINE
8
0
10
181.33
20
-73.675
11
182.07
21
-73.675
0
LINE
8
0
10
182.07
20
-59.675
11
182.07
21
-58.675
0
LINE
8
0
10
61.51
20
-58.675
11
60.77
21
-58.675
0
LINE
8
0
10
60.77
20
-58.675
11
60.77
21
-59.675
0
LINE
8
0
10
91.06
20
-73.675
11
95.74
21
-73.675
0
LINE
8
0
10
95.74
20
-73.675
11
99.61
21
-73.675
0
LINE
8
0
10
99.61
20
-59.675
11
95.74
21
-59.675
0
LINE
8
0
10
95.74
20
-59.675
11
91.06
21
-59.675
0
LINE
8
0
10
108.838
20
-58.675
11
106.61
21
-58.675
0
LINE
8
0
10
106.61
20
-73.675
11
108.838
21
-73.675
0
LINE
8
0
10
108.838
20
-59.675
11
108.838
21
-58.675
0
LINE
8
0
10
84.962
20
-58.675
11
77.962
21
-58.675
0
LINE
8
0
10
77.962
20
-58.675
11
77.962
21
-59.675
0
LINE
8
0
10
84.962
20
-59.675
11
84.962
21
-58.675
0
LINE
8
0
10
108.838
20
-73.675
11
109.74
21
-73.675
0
LINE
8
0
10
109.74
20
-59.675
11
108.838
21
-59.675
0
LINE
8
0
10
109.74
20
-73.675
11
109.74
21
-59.675
0
LINE
8
0
10
142.44
20
-73.675
11
143.23
21
-73.675
0
LINE
8
0
10
151.78
20
-73.675
11
156.44
21
-73.675
0
LINE
8
0
10
143.23
20
-73.675
11
147.1
21
-73.675
0
LINE
8
0
10
147.1
20
-73.675
11
151.78
21
-73.675
0
LINE
8
0
10
156.44
20
-59.675
11
151.78
21
-59.675
0
LINE
8
0
10
151.78
20
-59.675
11
147.1
21
-59.675
0
LINE
8
0
10
147.1
20
-59.675
11
143.23
21
-59.675
0
LINE
8
0
10
164.878
20
-58.675
11
157.878
21
-58.675
0
LINE
8
0
10
157.878
20
-73.675
11
164.878
21
-73.675
0
LINE
8
0
10
157.878
20
-58.675
11
157.878
21
-59.675
0
LINE
8
0
10
164.878
20
-59.675
11
164.878
21
-58.675
0
LINE
8
0
10
141.002
20
-58.675
11
136.23
21
-58.675
0
LINE
8
0
10
136.23
20
-58.675
11
134.002
21
-58.675
0
LINE
8
0
10
134.002
20
-73.675
11
136.23
21
-73.675
0
LINE
8
0
10
136.23
20
-73.675
11
141.002
21
-73.675
0
LINE
8
0
10
134.002
20
-58.675
11
134.002
21
-59.675
0
LINE
8
0
10
156.44
20
-73.675
11
157.878
21
-73.675
0
LINE
8
0
10
164.878
20
-73.675
11
165.78
21
-73.675
0
LINE
8
0
10
165.78
20
-59.675
11
164.878
21
-59.675
0
LINE
8
0
10
157.878
20
-59.675
11
156.44
21
-59.675
0
LINE
8
0
10
165.78
20
-73.675
11
165.78
21
-59.675
0
LINE
8
0
10
175.07
20
-58.675
11
174.33
21
-58.675
0
LINE
8
0
10
174.33
20
-73.675
11
175.07
21
-73.675
0
LINE
8
0
10
174.33
20
-58.675
11
174.33
21
-59.675
0
LINE
8
0
10
143.23
20
-58.675
11
141.002
21
-58.675
0
LINE
8
0
10
141.002
20
-73.675
11
142.44
21
-73.675
0
LINE
8
0
10
143.23
20
-59.675
11
143.23
21
-58.675
0
LINE
8
0
10
133.1
20
-73.675
11
134.002
21
-73.675
0
LINE
8
0
10
134.002
20
-59.675
11
133.1
21
-59.675
0
LINE
8
0
10
133.1
20
-59.675
11
133.1
21
-73.675
0
LINE
8
0
10
170.46
20
-73.675
11
174.33
21
-73.675
0
LINE
8
0
10
182.07
20
-73.675
11
184.46
21
-73.675
0
LINE
8
0
10
184.46
20
-59.675
11
182.07
21
-59.675
0
LINE
8
0
10
174.33
20
-59.675
11
170.46
21
-59.675
0
LINE
8
0
10
184.46
20
-73.675
11
184.46
21
-59.675
0
LINE
8
0
10
170.46
20
-59.675
11
170.46
21
-73.675
0
LINE
8
0
10
189.14
20
-73.675
11
203.14
21
-73.675
0
LINE
8
0
10
203.14
20
-59.675
11
189.14
21
-59.675
0
LINE
8
0
10
203.14
20
-73.675
11
203.14
21
-59.675
0
LINE
8
0
10
189.14
20
-59.675
11
189.14
21
-73.675
0
LINE
8
0
10
207.82
20
-73.675
11
221.82
21
-73.675
0
LINE
8
0
10
221.82
20
-59.675
11
207.82
21
-59.675
0
LINE
8
0
10
221.82
20
-73.675
11
221.82
21
-59.675
0
LINE
8
0
10
207.82
20
-59.675
11
207.82
21
-73.675
0
LINE
8
0
10
226.5
20
-73.675
11
240.5
21
-73.675
0
LINE
8
0
10
240.5
20
-59.675
11
226.5
21
-59.675
0
LINE
8
0
10
240.5
20
-73.675
11
240.5
21
-59.675
0
LINE
8
0
10
226.5
20
-59.675
11
226.5
21
-73.675
0
ENDSEC
0
EOF