0
SECTION
2
HEADER
9
$INSUNITS
70
4
0
ENDSEC
0
SECTION
2
TABLES
0
TABLE
2
LTYPE
0
LTYPE
72
65
70
64
2
CONTINUOUS
3
______
73
0
40
0
0
ENDTAB
0
TABLE
2
LAYER
0
ENDTAB
0
ENDSEC
0
SECTION
2
ENTITIES
0
LINE
8
0
10
2.525
20
-16.525
11
16.525
21
-16.525
0
LINE
8
0
10
16.525
20
-2.525
11
2.525
21
-2.525
0
LINE
8
0
10
16.525
20
-16.525
11
16.525
21
-2.525
0
LINE
8
0
10
2.525
20
-2.525
11
2.525
21
-16.525
0
LINE
8
0
10
21.575
20
-16.525
11
35.575
21
-16.525
0
LINE
8
0
10
35.575
20
-2.525
11
21.575
21
-2.525
0
LINE
8
0
10
35.575
20
-16.525
11
35.575
21
-2.525
0
LINE
8
0
10
21.575
20
-2.525
11
21.575
21
-16.525
0
LINE
8
0
10
40.625
20
-16.525
11
54.625
21
-16.525
0
LINE
8
0
10
54.625
20
-2.525
11
40.625
21
-2.525
0
LINE
8
0
10
54.625
20
-16.525
11
54.625
21
-2.525
0
LINE
8
0
10
40.625
20
-2.525
11
40.625
21
-16.525
0
LINE
8
0
10
59.675
20
-16.525
11
73.675
21
-16.525
0
LINE
8
0
10
73.675
20
-2.525
11
59.675
21
-2.525
0
LINE
8
0
10
73.675
20
-16.525
11
73.675
21
-2.525
0
LINE
8
0
10
59.675
20
-2.525
11
59.675
21
-16.525
0
LINE
8
0
10
78.725
20
-16.525
11
92.725
21
-16.525
0
LINE
8
0
10
92.725
20
-2.525
11
78.725
21
-2.525
0
LINE
8
0
10
92.725
20
-16.525
11
92.725
21
-2.525
0
LINE
8
0
10
78.725
20
-2.525
11
78.725
21
-16.525
0
LINE
8
0
10
97.775
20
-16.525
11
111.775
21
-16.525
0
LINE
8
0
10
111.775
20
-2.525
11
97.775
21
-2.525
0
LINE
8
0
10
111.775
20
-16.525
11
111.775
21
-2.525
0
LINE
8
0
10
97.775
20
-2.525
11
97.775
21
-16.525
0
LINE
8
0
10
116.825
20
-16.525
11
130.825
21
-16.525
0
LINE
8
0
10
130.825
20
-2.525
11
116.825
21
-2.525
0
LINE
8
0
10
130.825
20
-16.525
11
130.825
21
-2.525
0
LINE
8
0
10
116.825
20
-2.525
11
116.825
21
-16.525
0
LINE
8
0
10
135.875
20
-16.525
11
149.875
21
-16.525
0
LINE
8
0
10
149.875
20
-2.525
11
135.875
21
-2.525
0
LINE
8
0
10
149.875
20
-16.525
11
149.875
21
-2.525
0
LINE
8
0
10
135.875
20
-2.525
11
135.875
21
-16.525
0
LINE
8
0
10
154.925
20
-16.525
11
168.925
21
-16.525
0
LINE
8
0
10
168.925
20
-2.525
11
154.925
21
-2.525
0
LINE
8
0
10
168.925
20
-16.525
11
168.925
21
-2.525
0
LINE
8
0
10
154.925
20
-2.525
11
154.925
21
-16.525
0
LINE
8
0
10
173.975
20
-16.525
11
187.975
21
-16.525
0
LINE
8
0
10
187.975
20
-2.525
11
173.975
21
-2.525
0
LINE
8
0
10
187.975
20
-16.525
11
187.975
21
-2.525
0
LINE
8
0
10
173.975
20
-2.525
11
173.975
21
-16.525
0
LINE
8
0
10
193.025
20
-16.525
11
207.025
21
-16.525
0
LINE
8
0
10
207.025
20
-2.525
11
193.025
21
-2.525
0
LINE
8
0
10
207.025
20
-16.525
11
207.025
21
-2.525
0
LINE
8
0
10
193.025
20
-2.525
11
193.025
21
-16.525
0
LINE
8
0
10
219.21875
20
-16.525
11
233.21875
21
-16.525
0
LINE
8
0
10
233.21875
20
-2.525
11
219.21875
21
-2.525
0
LINE
8
0
10
233.21875
20
-16.525
11
233.21875
21
-2.525
0
LINE
8
0
10
219.21875
20
-2.525
11
219.21875
21
-16.525
0
LINE
8
0
10
4.90625
20
-35.575
11
18.90625
21
-35.575
0
LINE
8
0
10
18.90625
20
-21.575
11
4.90625
21
-21.575
0
LINE
8
0
10
18.90625
20
-35.575
11
18.90625
21
-21.575
0
LINE
8
0
10
4.90625
20
-21.575
11
4.90625
21
-35.575
0
LINE
8
0
10
26.3375
20
-35.575
11
40.3375
21
-35.575
0
LINE
8
0
10
40.3375
20
-21.575
11
26.3375
21
-21.575
0
LINE
8
0
10
40.3375
20
-35.575
11
40.3375
21
-21.575
0
LINE
8
0
10
26.3375
20
-21.575
11
26.3375
21
-35.575
0
LINE
8
0
10
45.3875
20
-35.575
11
59.3875
21
-35.575
0
LINE
8
0
10
59.3875
20
-21.575
11
45.3875
21
-21.575
0
LINE
8
0
10
59.3875
20
-35.575
11
59.3875
21
-21.575
0
LINE
8
0
10
45.3875
20
-21.575
11
45.3875
21
-35.575
0
LINE
8
0
10
64.4375
20
-35.575
11
78.4375
21
-35.575
0
LINE
8
0
10
78.4375
20
-21.575
11
64.4375
21
-21.575
0
LINE
8
0
10
78.4375
20
-35.575
11
78.4375
21
-21.575
0
LINE
8
0
10
64.4375
20
-21.575
11
64.4375
21
-35.575
0
LINE
8
0
10
83.4875
20
-35.575
11
97.4875
21
-35.575
0
LINE
8
0
10
97.4875
20
-21.575
11
83.4875
21
-21.575
0
LINE
8
0
10
97.4875
20
-35.575
11
97.4875
21
-21.575
0
LINE
8
0
10
83.4875
20
-21.575
11
83.4875
21
-35.575
0
LINE
8
0
10
102.5375
20
-35.575
11
116.5375
21
-35.575
0
LINE
8
0
10
116.5375
20
-21.575
11
102.5375
21
-21.575
0
LINE
8
0
10
116.5375
20
-35.575
11
116.5375
21
-21.575
0
LINE
8
0
10
102.5375
20
-21.575
11
102.5375
21
-35.575
0
LINE
8
0
10
121.5875
20
-35.575
11
135.5875
21
-35.575
0
LINE
8
0
10
135.5875
20
-21.575
11
121.5875
21
-21.575
0
LINE
8
0
10
135.5875
20
-35.575
11
135.5875
21
-21.575
0
LINE
8
0
10
121.5875
20
-21.575
11
121.5875
21
-35.575
0
LINE
8
0
10
140.6375
20
-35.575
11
154.6375
21
-35.575
0
LINE
8
0
10
154.6375
20
-21.575
11
140.6375
21
-21.575
0
LINE
8
0
10
154.6375
20
-35.575
11
154.6375
21
-21.575
0
LINE
8
0
10
140.6375
20
-21.575
11
140.6375
21
-35.575
0
LINE
8
0
10
159.6875
20
-35.575
11
173.6875
21
-35.575
0
LINE
8
0
10
173.6875
20
-21.575
11
159.6875
21
-21.575
0
LINE
8
0
10
173.6875
20
-35.575
11
173.6875
21
-21.575
0
LINE
8
0
10
159.6875
20
-21.575
11
159.6875
21
-35.575
0
LINE
8
0
10
178.7375
20
-35.575
11
192.7375
21
-35.575
0
LINE
8
0
10
192.7375
20
-21.575
11
178.7375
21
-21.575
0
LINE
8
0
10
192.7375
20
-35.575
11
192.7375
21
-21.575
0
LINE
8
0
10
178.7375
20
-21.575
11
178.7375
21
-35.575
0
LINE
8
0
10
197.7875
20
-35.575
11
211.7875
21
-35.575
0
LINE
8
0
10
211.7875
20
-21.575
11
197.7875
21
-21.575
0
LINE
8
0
10
211.7875
20
-35.575
11
211.7875
21
-21.575
0
LINE
8
0
10
197.7875
20
-21.575
11
197.7875
21
-35.575
0
LINE
8
0
10
221.6
20
-35.575
11
223.98125
21
-35.575
0
LINE
8
0
10
235.6
20
-21.575
11
221.6
21
-21.575
0
LINE
8
0
10
235.6
20
-31.1
11
235.6
21
-29.662
0
LINE
8
0
10
235.6
20
-22.662
11
235.6
21
-21.575
0
LINE
8
0
10
221.6
20
-21.575
11
221.6
21
-35.575
0
LINE
8
0
10
237.98125
20
-31.1
11
235.6
21
-31.1
0
LINE
8
0
10
237.98125
20
-45.1
11
237.98125
21
-40.625
0
LINE
8
0
10
237.98125
20
-40.625
11
237.98125
21
-31.1
0
LINE
8
0
10
223.98125
20
-35.575
11
223.98125
21
-40.625
0
LINE
8
0
10
223.98125
20
-40.625
11
223.98125
21
-45.1
0
LINE
8
0
10
237.98125
20
-29.662
11
237.98125
21
-22.662
0
LINE
8
0
10
235.6
20
-29.662
11
237.98125
21
-29.662
0
LINE
8
0
10
237.98125
20
-22.662
11
235.6
21
-22.662
0
LINE
8
0
10
222.98125
20
-46.538
11
222.98125
21
-53.538
0
LINE
8
0
10
237.98125
20
-53.538
11
237.98125
21
-46.538
0
LINE
8
0
10
222.98125
20
-53.538
11
223.98125
21
-53.538
0
LINE
8
0
10
223.98125
20
-46.538
11
222.98125
21
-46.538
0
LINE
8
0
10
7.2875
20
-54.625
11
21.2875
21
-54.625
0
LINE
8
0
10
21.2875
20
-40.625
11
7.2875
21
-40.625
0
LINE
8
0
10
21.2875
20
-54.625
11
21.2875
21
-40.625
0
LINE
8
0
10
7.2875
20
-40.625
11
7.2875
21
-54.625
0
LINE
8
0
10
31.1
20
-54.625
11
45.1
21
-54.625
0
LINE
8
0
10
45.1
20
-40.625
11
31.1
21
-40.625
0
LINE
8
0
10
45.1
20
-54.625
11
45.1
21
-40.625
0
LINE
8
0
10
31.1
20
-40.625
11
31.1
21
-54.625
0
LINE
8
0
10
50.15
20
-54.625
11
64.15
21
-54.625
0
LINE
8
0
10
64.15
20
-40.625
11
50.15
21
-40.625
0
LINE
8
0
10
64.15
20
-54.625
11
64.15
21
-40.625
0
LINE
8
0
10
50.15
20
-40.625
11
50.15
21
-54.625
0
LINE
8
0
10
69.2
20
-54.625
11
83.2
21
-54.625
0
LINE
8
0
10
83.2
20
-40.625
11
69.2
21
-40.625
0
LINE
8
0
10
83.2
20
-54.625
11
83.2
21
-40.625
0
LINE
8
0
10
69.2
20
-40.625
11
69.2
21
-54.625
0
LINE
8
0
10
88.25
20
-54.625
11
102.25
21
-54.625
0
LINE
8
0
10
102.25
20
-40.625
11
88.25
21
-40.625
0
LINE
8
0
10
102.25
20
-54.625
11
102.25
21
-40.625
0
LINE
8
0
10
88.25
20
-40.625
11
88.25
21
-54.625
0
LINE
8
0
10
107.3
20
-54.625
11
121.3
21
-54.625
0
LINE
8
0
10
121.3
20
-40.625
11
107.3
21
-40.625
0
LINE
8
0
10
121.3
20
-54.625
11
121.3
21
-40.625
0
LINE
8
0
10
107.3
20
-40.625
11
107.3
21
-54.625
0
LINE
8
0
10
126.35
20
-54.625
11
140.35
21
-54.625
0
LINE
8
0
10
140.35
20
-40.625
11
126.35
21
-40.625
0
LINE
8
0
10
140.35
20
-54.625
11
140.35
21
-40.625
0
LINE
8
0
10
126.35
20
-40.625
11
126.35
21
-54.625
0
LINE
8
0
10
145.4
20
-54.625
11
159.4
21
-54.625
0
LINE
8
0
10
159.4
20
-40.625
11
145.4
21
-40.625
0
LINE
8
0
10
159.4
20
-54.625
11
159.4
21
-40.625
0
LINE
8
0
10
145.4
20
-40.625
11
145.4
21
-54.625
0
LINE
8
0
10
164.45
20
-54.625
11
178.45
21
-54.625
0
LINE
8
0
10
178.45
20
-40.625
11
164.45
21
-40.625
0
LINE
8
0
10
178.45
20
-54.625
11
178.45
21
-40.625
0
LINE
8
0
10
164.45
20
-40.625
11
164.45
21
-54.625
0
LINE
8
0
10
183.5
20
-54.625
11
197.5
21
-54.625
0
LINE
8
0
10
197.5
20
-40.625
11
183.5
21
-40.625
0
LINE
8
0
10
197.5
20
-54.625
11
197.5
21
-40.625
0
LINE
8
0
10
183.5
20
-40.625
11
183.5
21
-54.625
0
LINE
8
0
10
202.55
20
-54.625
11
216.55
21
-54.625
0
LINE
8
0
10
216.55
20
-40.625
11
202.55
21
-40.625
0
LINE
8
0
10
216.55
20
-54.625
11
216.55
21
-40.625
0
LINE
8
0
10
202.55
20
-40.625
11
202.55
21
-54.625
0
LINE
8
0
10
223.98125
20
-54.625
11
237.98125
21
-54.625
0
LINE
8
0
10
237.98125
20
-54.625
11
237.98125
21
-53.538
0
LINE
8
0
10
237.98125
20
-46.538
11
237.98125
21
-45.1
0
LINE
8
0
10
223.98125
20
-45.1
11
223.98125
21
-46.538
0
LINE
8
0
10
223.98125
20
-53.538
11
223.98125
21
-54.625
0
LINE
8
0
10
4.90625
20
-73.675
11
18.90625
21
-73.675
0
LINE
8
0
10
18.90625
20
-59.675
11
4.90625
21
-59.675
0
LINE
8
0
10
18.90625
20
-73.675
11
18.90625
21
-59.675
0
LINE
8
0
10
4.90625
20
-59.675
11
4.90625
21
-73.675
0
LINE
8
0
10
31.1
20
-73.675
11
45.1
21
-73.675
0
LINE
8
0
10
45.1
20
-59.675
11
31.1
21
-59.675
0
LINE
8
0
10
45.1
20
-73.675
11
45.1
21
-59.675
0
LINE
8
0
10
31.1
20
-59.675
11
31.1
21
-73.675
0
LINE
8
0
10
57.29375
20
-73.675
11
58.4125
21
-73.675
0
LINE
8
0
10
58.4125
20
-73.675
11
65.4125
21
-73.675
0
LINE
8
0
10
65.4125
20
-73.675
11
71.29375
21
-73.675
0
LINE
8
0
10
71.29375
20
-59.675
11
65.4125
21
-59.675
0
LINE
8
0
10
58.4125
20
-59.675
11
57.29375
21
-59.675
0
LINE
8
0
10
71.29375
20
-73.675
11
71.29375
21
-59.675
0
LINE
8
0
10
57.29375
20
-59.675
11
57.29375
21
-73.675
0
LINE
8
0
10
112.0625
20
-73.675
11
120.29325
21
-73.675
0
LINE
8
0
10
120.29325
20
-73.675
11
121.3
21
-73.675
0
LINE
8
0
10
121.3
20
-73.675
11
126.0625
21
-73.675
0
LINE
8
0
10
120.29325
20
-59.675
11
112.0625
21
-59.675
0
LINE
8
0
10
179.7125
20
-58.675
11
172.7125
21
-58.675
0
LINE
8
0
10
172.7125
20
-73.675
11
178.45
21
-73.675
0
LINE
8
0
10
178.45
20
-73.675
11
179.7125
21
-73.675
0
LINE
8
0
10
172.7125
20
-58.675
11
172.7125
21
-59.675
0
LINE
8
0
10
179.7125
20
-73.675
11
179.7125
21
-58.675
0
LINE
8
0
10
65.4125
20
-58.675
11
58.4125
21
-58.675
0
LINE
8
0
10
58.4125
20
-58.675
11
58.4125
21
-59.675
0
LINE
8
0
10
65.4125
20
-59.675
11
65.4125
21
-58.675
0
LINE
8
0
10
88.25
20
-73.675
11
102.25
21
-73.675
0
LINE
8
0
10
102.25
20
-59.675
11
88.25
21
-59.675
0
LINE
8
0
10
102.25
20
-73.675
11
102.25
21
-59.675
0
LINE
8
0
10
88.25
20
-59.675
11
88.25
21
-73.675
0
LINE
8
0
10
110.688
20
-58.675
11
103.688
21
-58.675
0
LINE
8
0
10
103.688
20
-73.675
11
107.3
21
-73.675
0
LINE
8
0
10
107.3
20
-73.675
11
110.688
21
-73.675
0
LINE
8
0
10
103.688
20
-58.675
11
103.688
21
-73.675
0
LINE
8
0
10
110.688
20
-59.675
11
110.688
21
-58.675
0
LINE
8
0
10
86.812
20
-58.675
11
79.812
21
-58.675
0
LINE
8
0
10
79.812
20
-73.675
11
86.812
21
-73.675
0
LINE
8
0
10
79.812
20
-58.675
11
79.812
21
-73.675
0
LINE
8
0
10
86.812
20
-73.675
11
86.812
21
-58.675
0
LINE
8
0
10
110.688
20
-73.675
11
112.0625
21
-73.675
0
LINE
8
0
10
112.0625
20
-59.675
11
110.688
21
-59.675
0
LINE
8
0
10
128.73125
20
-73.675
11
142.73125
21
-73.675
0
LINE
8
0
10
142.73125
20
-59.675
11
128.73125
21
-59.675
0
LINE
8
0
10
142.73125
20
-73.675
11
142.73125
21
-59.675
0
LINE
8
0
10
128.73125
20
-59.675
11
128.73125
21
-73.675
0
LINE
8
0
10
151.16925
20
-58.675
11
144.16925
21
-58.675
0
LINE
8
0
10
144.16925
20
-73.675
11
151.16925
21
-73.675
0
LINE
8
0
10
144.16925
20
-58.675
11
144.16925
21
-73.675
0
LINE
8
0
10
151.16925
20
-73.675
11
151.16925
21
-58.675
0
LINE
8
0
10
127.29325
20
-58.675
11
120.29325
21
-58.675
0
LINE
8
0
10
126.0625
20
-73.675
11
127.29325
21
-73.675
0
LINE
8
0
10
120.29325
20
-58.675
11
120.29325
21
-59.675
0
LINE
8
0
10
127.29325
20
-73.675
11
127.29325
21
-58.675
0
LINE
8
0
10
164.45
20
-73.675
11
172.7125
21
-73.675
0
LINE
8
0
10
172.7125
20
-59.675
11
164.45
21
-59.675
0
LINE
8
0
10
164.45
20
-59.675
11
164.45
21
-73.675
0
LINE
8
0
10
188.2625
20
-73.675
11
202.2625
21
-73.675
0
LINE
8
0
10
202.2625
20
-59.675
11
188.2625
21
-59.675
0
LINE
8
0
10
202.2625
20
-73.675
11
202.2625
21
-59.675
0
LINE
8
0
10
188.2625
20
-59.675
11
188.2625
21
-73.675
0
LINE
8
0
10
207.3125
20
-73.675
11
221.3125
21
-73.675
0
LINE
8
0
10
221.3125
20
-59.675
11
207.3125
21
-59.675
0
LINE
8
0
10
221.3125
20
-73.675
11
221.3125
21
-59.675
0
LINE
8
0
10
207.3125
20
-59.675
11
207.3125
21
-73.675
0
LINE
8
0
10
226.3625
20
-73.675
11
240.3625
21
-73.675
0
LINE
8
0
10
240.3625
20
-59.675
11
226.3625
21
-59.675
0
LINE
8
0
10
240.3625
20
-73.675
11
240.3625
21
-59.675
0
LINE
8
0
10
226.3625
20
-59.675
11
226.3625
21
-73.675
0
ENDSEC
0
EOF