0
SECTION
2
HEADER
9
$INSUNITS
70
4
0
ENDSEC
0
SECTION
2
TABLES
0
TABLE
2
LTYPE
0
LTYPE
72
65
70
64
2
CONTINUOUS
3
______
73
0
40
0
0
ENDTAB
0
TABLE
2
LAYER
0
ENDTAB
0
ENDSEC
0
SECTION
2
ENTITIES
0
LINE
8
0
10
2.525
20
-16.525
11
16.525
21
-16.525
0
LINE
8
0
10
16.525
20
-2.525
11
2.525
21
-2.525
0
LINE
8
0
10
16.525
20
-16.525
11
16.525
21
-2.525
0
LINE
8
0
10
2.525
20
-2.525
11
2.525
21
-16.525
0
LINE
8
0
10
21.575
20
-16.525
11
35.575
21
-16.525
0
LINE
8
0
10
35.575
20
-2.525
11
21.575
21
-2.525
0
LINE
8
0
10
35.575
20
-16.525
11
35.575
21
-2.525
0
LINE
8
0
10
21.575
20
-2.525
11
21.575
21
-16.525
0
LINE
8
0
10
40.625
20
-16.525
11
54.625
21
-16.525
0
LINE
8
0
10
54.625
20
-2.525
11
40.625
21
-2.525
0
LINE
8
0
10
54.625
20
-16.525
11
54.625
21
-2.525
0
LINE
8
0
10
40.625
20
-2.525
11
40.625
21
-16.525
0
LINE
8
0
10
59.675
20
-16.525
11
73.675
21
-16.525
0
LINE
8
0
10
73.675
20
-2.525
11
59.675
21
-2.525
0
LINE
8
0
10
73.675
20
-16.525
11
73.675
21
-2.525
0
LINE
8
0
10
59.675
20
-2.525
11
59.675
21
-16.525
0
LINE
8
0
10
78.725
20
-16.525
11
92.725
21
-16.525
0
LINE
8
0
10
92.725
20
-2.525
11
78.725
21
-2.525
0
LINE
8
0
10
92.725
20
-16.525
11
92.725
21
-2.525
0
LINE
8
0
10
78.725
20
-2.525
11
78.725
21
-16.525
0
LINE
8
0
10
97.775
20
-16.525
11
111.775
21
-16.525
0
LINE
8
0
10
111.775
20
-2.525
11
97.775
21
-2.525
0
LINE
8
0
10
111.775
20
-16.525
11
111.775
21
-2.525
0
LINE
8
0
10
97.775
20
-2.525
11
97.775
21
-16.525
0
LINE
8
0
10
131.1125
20
-16.525
11
145.1125
21
-16.525
0
LINE
8
0
10
145.1125
20
-2.525
11
131.1125
21
-2.525
0
LINE
8
0
10
145.1125
20
-16.525
11
145.1125
21
-2.525
0
LINE
8
0
10
131.1125
20
-2.525
11
131.1125
21
-16.525
0
LINE
8
0
10
150.1625
20
-16.525
11
164.1625
21
-16.525
0
LINE
8
0
10
164.1625
20
-2.525
11
150.1625
21
-2.525
0
LINE
8
0
10
164.1625
20
-16.525
11
164.1625
21
-2.525
0
LINE
8
0
10
150.1625
20
-2.525
11
150.1625
21
-16.525
0
LINE
8
0
10
169.2125
20
-16.525
11
183.2125
21
-16.525
0
LINE
8
0
10
183.2125
20
-2.525
11
169.2125
21
-2.525
0
LINE
8
0
10
183.2125
20
-16.525
11
183.2125
21
-2.525
0
LINE
8
0
10
169.2125
20
-2.525
11
169.2125
21
-16.525
0
LINE
8
0
10
188.2625
20
-16.525
11
202.2625
21
-16.525
0
LINE
8
0
10
202.2625
20
-2.525
11
188.2625
21
-2.525
0
LINE
8
0
10
202.2625
20
-16.525
11
202.2625
21
-2.525
0
LINE
8
0
10
188.2625
20
-2.525
11
188.2625
21
-16.525
0
LINE
8
0
10
207.3125
20
-16.525
11
221.3125
21
-16.525
0
LINE
8
0
10
221.3125
20
-2.525
11
207.3125
21
-2.525
0
LINE
8
0
10
221.3125
20
-16.525
11
221.3125
21
-2.525
0
LINE
8
0
10
207.3125
20
-2.525
11
207.3125
21
-16.525
0
LINE
8
0
10
226.3625
20
-16.525
11
240.3625
21
-16.525
0
LINE
8
0
10
240.3625
20
-2.525
11
226.3625
21
-2.525
0
LINE
8
0
10
240.3625
20
-16.525
11
240.3625
21
-2.525
0
LINE
8
0
10
226.3625
20
-2.525
11
226.3625
21
-16.525
0
LINE
8
0
10
2.525
20
-35.575
11
16.525
21
-35.575
0
LINE
8
0
10
16.525
20
-21.575
11
2.525
21
-21.575
0
LINE
8
0
10
16.525
20
-35.575
11
16.525
21
-21.575
0
LINE
8
0
10
2.525
20
-21.575
11
2.525
21
-35.575
0
LINE
8
0
10
21.575
20
-35.575
11
35.575
21
-35.575
0
LINE
8
0
10
35.575
20
-21.575
11
21.575
21
-21.575
0
LINE
8
0
10
35.575
20
-35.575
11
35.575
21
-21.575
0
LINE
8
0
10
21.575
20
-21.575
11
21.575
21
-35.575
0
LINE
8
0
10
40.625
20
-35.575
11
54.625
21
-35.575
0
LINE
8
0
10
54.625
20
-21.575
11
40.625
21
-21.575
0
LINE
8
0
10
54.625
20
-35.575
11
54.625
21
-21.575
0
LINE
8
0
10
40.625
20
-21.575
11
40.625
21
-35.575
0
LINE
8
0
10
59.675
20
-35.575
11
73.675
21
-35.575
0
LINE
8
0
10
73.675
20
-21.575
11
59.675
21
-21.575
0
LINE
8
0
10
73.675
20
-35.575
11
73.675
21
-21.575
0
LINE
8
0
10
59.675
20
-21.575
11
59.675
21
-35.575
0
LINE
8
0
10
78.725
20
-35.575
11
92.725
21
-35.575
0
LINE
8
0
10
92.725
20
-21.575
11
78.725
21
-21.575
0
LINE
8
0
10
92.725
20
-35.575
11
92.725
21
-21.575
0
LINE
8
0
10
78.725
20
-21.575
11
78.725
21
-35.575
0
LINE
8
0
10
97.775
20
-35.575
11
111.775
21
-35.575
0
LINE
8
0
10
111.775
20
-21.575
11
97.775
21
-21.575
0
LINE
8
0
10
111.775
20
-35.575
11
111.775
21
-21.575
0
LINE
8
0
10
97.775
20
-21.575
11
97.775
21
-35.575
0
LINE
8
0
10
131.1125
20
-35.575
11
145.1125
21
-35.575
0
LINE
8
0
10
145.1125
20
-21.575
11
131.1125
21
-21.575
0
LINE
8
0
10
145.1125
20
-35.575
11
145.1125
21
-21.575
0
LINE
8
0
10
131.1125
20
-21.575
11
131.1125
21
-35.575
0
LINE
8
0
10
150.1625
20
-35.575
11
164.1625
21
-35.575
0
LINE
8
0
10
164.1625
20
-21.575
11
150.1625
21
-21.575
0
LINE
8
0
10
164.1625
20
-35.575
11
164.1625
21
-21.575
0
LINE
8
0
10
150.1625
20
-21.575
11
150.1625
21
-35.575
0
LINE
8
0
10
169.2125
20
-35.575
11
183.2125
21
-35.575
0
LINE
8
0
10
183.2125
20
-21.575
11
169.2125
21
-21.575
0
LINE
8
0
10
183.2125
20
-35.575
11
183.2125
21
-21.575
0
LINE
8
0
10
169.2125
20
-21.575
11
169.2125
21
-35.575
0
LINE
8
0
10
188.2625
20
-35.575
11
202.2625
21
-35.575
0
LINE
8
0
10
202.2625
20
-21.575
11
188.2625
21
-21.575
0
LINE
8
0
10
202.2625
20
-35.575
11
202.2625
21
-21.575
0
LINE
8
0
10
188.2625
20
-21.575
11
188.2625
21
-35.575
0
LINE
8
0
10
207.3125
20
-35.575
11
221.3125
21
-35.575
0
LINE
8
0
10
221.3125
20
-21.575
11
207.3125
21
-21.575
0
LINE
8
0
10
221.3125
20
-35.575
11
221.3125
21
-21.575
0
LINE
8
0
10
207.3125
20
-21.575
11
207.3125
21
-35.575
0
LINE
8
0
10
226.3625
20
-35.575
11
240.3625
21
-35.575
0
LINE
8
0
10
240.3625
20
-21.575
11
226.3625
21
-21.575
0
LINE
8
0
10
240.3625
20
-35.575
11
240.3625
21
-21.575
0
LINE
8
0
10
226.3625
20
-21.575
11
226.3625
21
-35.575
0
LINE
8
0
10
2.525
20
-54.625
11
16.525
21
-54.625
0
LINE
8
0
10
16.525
20
-40.625
11
2.525
21
-40.625
0
LINE
8
0
10
16.525
20
-54.625
11
16.525
21
-40.625
0
LINE
8
0
10
2.525
20
-40.625
11
2.525
21
-54.625
0
LINE
8
0
10
21.575
20
-54.625
11
35.575
21
-54.625
0
LINE
8
0
10
35.575
20
-40.625
11
21.575
21
-40.625
0
LINE
8
0
10
35.575
20
-54.625
11
35.575
21
-40.625
0
LINE
8
0
10
21.575
20
-40.625
11
21.575
21
-54.625
0
LINE
8
0
10
40.625
20
-54.625
11
54.625
21
-54.625
0
LINE
8
0
10
54.625
20
-40.625
11
40.625
21
-40.625
0
LINE
8
0
10
54.625
20
-54.625
11
54.625
21
-40.625
0
LINE
8
0
10
40.625
20
-40.625
11
40.625
21
-54.625
0
LINE
8
0
10
59.675
20
-54.625
11
73.675
21
-54.625
0
LINE
8
0
10
73.675
20
-40.625
11
59.675
21
-40.625
0
LINE
8
0
10
73.675
20
-54.625
11
73.675
21
-40.625
0
LINE
8
0
10
59.675
20
-40.625
11
59.675
21
-54.625
0
LINE
8
0
10
78.725
20
-54.625
11
92.725
21
-54.625
0
LINE
8
0
10
92.725
20
-40.625
11
78.725
21
-40.625
0
LINE
8
0
10
92.725
20
-54.625
11
92.725
21
-40.625
0
LINE
8
0
10
78.725
20
-40.625
11
78.725
21
-54.625
0
LINE
8
0
10
97.775
20
-54.625
11
111.775
21
-54.625
0
LINE
8
0
10
111.775
20
-40.625
11
97.775
21
-40.625
0
LINE
8
0
10
111.775
20
-54.625
11
111.775
21
-40.625
0
LINE
8
0
10
97.775
20
-40.625
11
97.775
21
-54.625
0
LINE
8
0
10
131.1125
20
-54.625
11
145.1125
21
-54.625
0
LINE
8
0
10
145.1125
20
-40.625
11
131.1125
21
-40.625
0
LINE
8
0
10
145.1125
20
-54.625
11
145.1125
21
-40.625
0
LINE
8
0
10
131.1125
20
-40.625
11
131.1125
21
-54.625
0
LINE
8
0
10
150.1625
20
-54.625
11
164.1625
21
-54.625
0
LINE
8
0
10
164.1625
20
-40.625
11
150.1625
21
-40.625
0
LINE
8
0
10
164.1625
20
-54.625
11
164.1625
21
-40.625
0
LINE
8
0
10
150.1625
20
-40.625
11
150.1625
21
-54.625
0
LINE
8
0
10
169.2125
20
-54.625
11
183.2125
21
-54.625
0
LINE
8
0
10
183.2125
20
-40.625
11
169.2125
21
-40.625
0
LINE
8
0
10
183.2125
20
-54.625
11
183.2125
21
-40.625
0
LINE
8
0
10
169.2125
20
-40.625
11
169.2125
21
-54.625
0
LINE
8
0
10
188.2625
20
-54.625
11
202.2625
21
-54.625
0
LINE
8
0
10
202.2625
20
-40.625
11
188.2625
21
-40.625
0
LINE
8
0
10
202.2625
20
-54.625
11
202.2625
21
-40.625
0
LINE
8
0
10
188.2625
20
-40.625
11
188.2625
21
-54.625
0
LINE
8
0
10
207.3125
20
-54.625
11
221.3125
21
-54.625
0
LINE
8
0
10
221.3125
20
-40.625
11
207.3125
21
-40.625
0
LINE
8
0
10
221.3125
20
-54.625
11
221.3125
21
-40.625
0
LINE
8
0
10
207.3125
20
-40.625
11
207.3125
21
-54.625
0
LINE
8
0
10
226.3625
20
-54.625
11
240.3625
21
-54.625
0
LINE
8
0
10
240.3625
20
-40.625
11
226.3625
21
-40.625
0
LINE
8
0
10
240.3625
20
-54.625
11
240.3625
21
-40.625
0
LINE
8
0
10
226.3625
20
-40.625
11
226.3625
21
-54.625
0
LINE
8
0
10
2.525
20
-73.675
11
16.525
21
-73.675
0
LINE
8
0
10
16.525
20
-59.675
11
2.525
21
-59.675
0
LINE
8
0
10
16.525
20
-73.675
11
16.525
21
-59.675
0
LINE
8
0
10
2.525
20
-59.675
11
2.525
21
-73.675
0
LINE
8
0
10
21.575
20
-73.675
11
35.575
21
-73.675
0
LINE
8
0
10
35.575
20
-59.675
11
21.575
21
-59.675
0
LINE
8
0
10
35.575
20
-73.675
11
35.575
21
-59.675
0
LINE
8
0
10
21.575
20
-59.675
11
21.575
21
-73.675
0
LINE
8
0
10
40.625
20
-73.675
11
54.625
21
-73.675
0
LINE
8
0
10
54.625
20
-59.675
11
40.625
21
-59.675
0
LINE
8
0
10
54.625
20
-73.675
11
54.625
21
-59.675
0
LINE
8
0
10
40.625
20
-59.675
11
40.625
21
-73.675
0
LINE
8
0
10
78.725
20
-73.675
11
92.725
21
-73.675
0
LINE
8
0
10
92.725
20
-59.675
11
78.725
21
-59.675
0
LINE
8
0
10
92.725
20
-73.675
11
92.725
21
-59.675
0
LINE
8
0
10
78.725
20
-59.675
11
78.725
21
-73.675
0
LINE
8
0
10
108.275
20
-58.675
11
101.275
21
-58.675
0
LINE
8
0
10
101.275
20
-73.675
11
108.275
21
-73.675
0
LINE
8
0
10
101.275
20
-58.675
11
101.275
21
-73.675
0
LINE
8
0
10
108.275
20
-73.675
11
108.275
21
-58.675
0
LINE
8
0
10
70.175
20
-58.675
11
63.175
21
-58.675
0
LINE
8
0
10
63.175
20
-73.675
11
70.175
21
-73.675
0
LINE
8
0
10
63.175
20
-58.675
11
63.175
21
-73.675
0
LINE
8
0
10
70.175
20
-73.675
11
70.175
21
-58.675
0
LINE
8
0
10
150.1625
20
-73.675
11
164.1625
21
-73.675
0
LINE
8
0
10
164.1625
20
-59.675
11
150.1625
21
-59.675
0
LINE
8
0
10
164.1625
20
-73.675
11
164.1625
21
-59.675
0
LINE
8
0
10
150.1625
20
-59.675
11
150.1625
21
-73.675
0
LINE
8
0
10
179.7125
20
-58.675
11
172.7125
21
-58.675
0
LINE
8
0
10
172.7125
20
-73.675
11
179.7125
21
-73.675
0
LINE
8
0
10
172.7125
20
-58.675
11
172.7125
21
-73.675
0
LINE
8
0
10
179.7125
20
-73.675
11
179.7125
21
-58.675
0
LINE
8
0
10
141.6125
20
-58.675
11
134.6125
21
-58.675
0
LINE
8
0
10
134.6125
20
-73.675
11
141.6125
21
-73.675
0
LINE
8
0
10
134.6125
20
-58.675
11
134.6125
21
-73.675
0
LINE
8
0
10
141.6125
20
-73.675
11
141.6125
21
-58.675
0
LINE
8
0
10
188.2625
20
-73.675
11
202.2625
21
-73.675
0
LINE
8
0
10
202.2625
20
-59.675
11
188.2625
21
-59.675
0
LINE
8
0
10
202.2625
20
-73.675
11
202.2625
21
-59.675
0
LINE
8
0
10
188.2625
20
-59.675
11
188.2625
21
-73.675
0
LINE
8
0
10
207.3125
20
-73.675
11
221.3125
21
-73.675
0
LINE
8
0
10
221.3125
20
-59.675
11
207.3125
21
-59.675
0
LINE
8
0
10
221.3125
20
-73.675
11
221.3125
21
-59.675
0
LINE
8
0
10
207.3125
20
-59.675
11
207.3125
21
-73.675
0
LINE
8
0
10
226.3625
20
-73.675
11
240.3625
21
-73.675
0
LINE
8
0
10
240.3625
20
-59.675
11
226.3625
21
-59.675
0
LINE
8
0
10
240.3625
20
-73.675
11
240.3625
21
-59.675
0
LINE
8
0
10
226.3625
20
-59.675
11
226.3625
21
-73.675
0
ENDSEC
0
EOF