0
SECTION
2
HEADER
9
$INSUNITS
70
4
0
ENDSEC
0
SECTION
2
TABLES
0
TABLE
2
LTYPE
0
LTYPE
72
65
70
64
2
CONTINUOUS
3
______
73
0
40
0
0
ENDTAB
0
TABLE
2
LAYER
0
ENDTAB
0
ENDSEC
0
SECTION
2
ENTITIES
0
LINE
8
0
10
2.525
20
-16.525
11
16.525
21
-16.525
0
LINE
8
0
10
16.525
20
-2.525
11
2.525
21
-2.525
0
LINE
8
0
10
16.525
20
-16.525
11
16.525
21
-2.525
0
LINE
8
0
10
2.525
20
-2.525
11
2.525
21
-16.525
0
LINE
8
0
10
21.575
20
-16.525
11
35.575
21
-16.525
0
LINE
8
0
10
35.575
20
-2.525
11
21.575
21
-2.525
0
LINE
8
0
10
35.575
20
-16.525
11
35.575
21
-2.525
0
LINE
8
0
10
21.575
20
-2.525
11
21.575
21
-16.525
0
LINE
8
0
10
40.625
20
-16.525
11
54.625
21
-16.525
0
LINE
8
0
10
54.625
20
-2.525
11
40.625
21
-2.525
0
LINE
8
0
10
54.625
20
-16.525
11
54.625
21
-2.525
0
LINE
8
0
10
40.625
20
-2.525
11
40.625
21
-16.525
0
LINE
8
0
10
59.675
20
-16.525
11
73.675
21
-16.525
0
LINE
8
0
10
73.675
20
-2.525
11
59.675
21
-2.525
0
LINE
8
0
10
73.675
20
-16.525
11
73.675
21
-2.525
0
LINE
8
0
10
59.675
20
-2.525
11
59.675
21
-16.525
0
LINE
8
0
10
78.725
20
-16.525
11
92.725
21
-16.525
0
LINE
8
0
10
92.725
20
-2.525
11
78.725
21
-2.525
0
LINE
8
0
10
92.725
20
-16.525
11
92.725
21
-2.525
0
LINE
8
0
10
78.725
20
-2.525
11
78.725
21
-16.525
0
LINE
8
0
10
97.775
20
-16.525
11
111.775
21
-16.525
0
LINE
8
0
10
111.775
20
-2.525
11
97.775
21
-2.525
0
LINE
8
0
10
111.775
20
-16.525
11
111.775
21
-2.525
0
LINE
8
0
10
97.775
20
-2.525
11
97.775
21
-16.525
0
LINE
8
0
10
123.96875
20
-16.525
11
137.96875
21
-16.525
0
LINE
8
0
10
137.96875
20
-2.525
11
123.96875
21
-2.525
0
LINE
8
0
10
137.96875
20
-16.525
11
137.96875
21
-2.525
0
LINE
8
0
10
123.96875
20
-2.525
11
123.96875
21
-16.525
0
LINE
8
0
10
150.1625
20
-16.525
11
164.1625
21
-16.525
0
LINE
8
0
10
164.1625
20
-2.525
11
150.1625
21
-2.525
0
LINE
8
0
10
164.1625
20
-16.525
11
164.1625
21
-2.525
0
LINE
8
0
10
150.1625
20
-2.525
11
150.1625
21
-16.525
0
LINE
8
0
10
169.2125
20
-16.525
11
183.2125
21
-16.525
0
LINE
8
0
10
183.2125
20
-2.525
11
169.2125
21
-2.525
0
LINE
8
0
10
183.2125
20
-16.525
11
183.2125
21
-2.525
0
LINE
8
0
10
169.2125
20
-2.525
11
169.2125
21
-16.525
0
LINE
8
0
10
188.2625
20
-16.525
11
202.2625
21
-16.525
0
LINE
8
0
10
202.2625
20
-2.525
11
188.2625
21
-2.525
0
LINE
8
0
10
202.2625
20
-16.525
11
202.2625
21
-2.525
0
LINE
8
0
10
188.2625
20
-2.525
11
188.2625
21
-16.525
0
LINE
8
0
10
207.3125
20
-16.525
11
221.3125
21
-16.525
0
LINE
8
0
10
221.3125
20
-2.525
11
207.3125
21
-2.525
0
LINE
8
0
10
221.3125
20
-16.525
11
221.3125
21
-2.525
0
LINE
8
0
10
207.3125
20
-2.525
11
207.3125
21
-16.525
0
LINE
8
0
10
226.3625
20
-16.525
11
240.3625
21
-16.525
0
LINE
8
0
10
240.3625
20
-2.525
11
226.3625
21
-2.525
0
LINE
8
0
10
240.3625
20
-16.525
11
240.3625
21
-2.525
0
LINE
8
0
10
226.3625
20
-2.525
11
226.3625
21
-16.525
0
LINE
8
0
10
2.525
20
-35.575
11
16.525
21
-35.575
0
LINE
8
0
10
16.525
20
-21.575
11
2.525
21
-21.575
0
LINE
8
0
10
16.525
20
-35.575
11
16.525
21
-21.575
0
LINE
8
0
10
2.525
20
-21.575
11
2.525
21
-35.575
0
LINE
8
0
10
21.575
20
-35.575
11
35.575
21
-35.575
0
LINE
8
0
10
35.575
20
-21.575
11
21.575
21
-21.575
0
LINE
8
0
10
35.575
20
-35.575
11
35.575
21
-21.575
0
LINE
8
0
10
21.575
20
-21.575
11
21.575
21
-35.575
0
LINE
8
0
10
40.625
20
-35.575
11
54.625
21
-35.575
0
LINE
8
0
10
54.625
20
-21.575
11
40.625
21
-21.575
0
LINE
8
0
10
54.625
20
-35.575
11
54.625
21
-21.575
0
LINE
8
0
10
40.625
20
-21.575
11
40.625
21
-35.575
0
LINE
8
0
10
59.675
20
-35.575
11
73.675
21
-35.575
0
LINE
8
0
10
73.675
20
-21.575
11
59.675
21
-21.575
0
LINE
8
0
10
73.675
20
-35.575
11
73.675
21
-21.575
0
LINE
8
0
10
59.675
20
-21.575
11
59.675
21
-35.575
0
LINE
8
0
10
78.725
20
-35.575
11
92.725
21
-35.575
0
LINE
8
0
10
92.725
20
-21.575
11
78.725
21
-21.575
0
LINE
8
0
10
92.725
20
-35.575
11
92.725
21
-21.575
0
LINE
8
0
10
78.725
20
-21.575
11
78.725
21
-35.575
0
LINE
8
0
10
97.775
20
-35.575
11
111.775
21
-35.575
0
LINE
8
0
10
111.775
20
-21.575
11
97.775
21
-21.575
0
LINE
8
0
10
111.775
20
-35.575
11
111.775
21
-21.575
0
LINE
8
0
10
97.775
20
-21.575
11
97.775
21
-35.575
0
LINE
8
0
10
123.96875
20
-35.575
11
137.96875
21
-35.575
0
LINE
8
0
10
137.96875
20
-21.575
11
123.96875
21
-21.575
0
LINE
8
0
10
137.96875
20
-35.575
11
137.96875
21
-21.575
0
LINE
8
0
10
123.96875
20
-21.575
11
123.96875
21
-35.575
0
LINE
8
0
10
150.1625
20
-35.575
11
164.1625
21
-35.575
0
LINE
8
0
10
164.1625
20
-21.575
11
150.1625
21
-21.575
0
LINE
8
0
10
164.1625
20
-35.575
11
164.1625
21
-21.575
0
LINE
8
0
10
150.1625
20
-21.575
11
150.1625
21
-35.575
0
LINE
8
0
10
169.2125
20
-35.575
11
183.2125
21
-35.575
0
LINE
8
0
10
183.2125
20
-21.575
11
169.2125
21
-21.575
0
LINE
8
0
10
183.2125
20
-35.575
11
183.2125
21
-21.575
0
LINE
8
0
10
169.2125
20
-21.575
11
169.2125
21
-35.575
0
LINE
8
0
10
188.2625
20
-35.575
11
202.2625
21
-35.575
0
LINE
8
0
10
202.2625
20
-21.575
11
188.2625
21
-21.575
0
LINE
8
0
10
202.2625
20
-35.575
11
202.2625
21
-21.575
0
LINE
8
0
10
188.2625
20
-21.575
11
188.2625
21
-35.575
0
LINE
8
0
10
207.3125
20
-35.575
11
221.3125
21
-35.575
0
LINE
8
0
10
221.3125
20
-21.575
11
207.3125
21
-21.575
0
LINE
8
0
10
221.3125
20
-35.575
11
221.3125
21
-21.575
0
LINE
8
0
10
207.3125
20
-21.575
11
207.3125
21
-35.575
0
LINE
8
0
10
226.3625
20
-35.575
11
240.3625
21
-35.575
0
LINE
8
0
10
240.3625
20
-21.575
11
226.3625
21
-21.575
0
LINE
8
0
10
240.3625
20
-35.575
11
240.3625
21
-21.575
0
LINE
8
0
10
226.3625
20
-21.575
11
226.3625
21
-35.575
0
LINE
8
0
10
2.525
20
-54.625
11
16.525
21
-54.625
0
LINE
8
0
10
16.525
20
-40.625
11
2.525
21
-40.625
0
LINE
8
0
10
16.525
20
-54.625
11
16.525
21
-40.625
0
LINE
8
0
10
2.525
20
-40.625
11
2.525
21
-54.625
0
LINE
8
0
10
21.575
20
-54.625
11
35.575
21
-54.625
0
LINE
8
0
10
35.575
20
-40.625
11
21.575
21
-40.625
0
LINE
8
0
10
35.575
20
-54.625
11
35.575
21
-40.625
0
LINE
8
0
10
21.575
20
-40.625
11
21.575
21
-54.625
0
LINE
8
0
10
40.625
20
-54.625
11
54.625
21
-54.625
0
LINE
8
0
10
54.625
20
-40.625
11
40.625
21
-40.625
0
LINE
8
0
10
54.625
20
-54.625
11
54.625
21
-40.625
0
LINE
8
0
10
40.625
20
-40.625
11
40.625
21
-54.625
0
LINE
8
0
10
59.675
20
-54.625
11
73.675
21
-54.625
0
LINE
8
0
10
73.675
20
-40.625
11
59.675
21
-40.625
0
LINE
8
0
10
73.675
20
-54.625
11
73.675
21
-40.625
0
LINE
8
0
10
59.675
20
-40.625
11
59.675
21
-54.625
0
LINE
8
0
10
78.725
20
-54.625
11
92.725
21
-54.625
0
LINE
8
0
10
92.725
20
-40.625
11
78.725
21
-40.625
0
LINE
8
0
10
92.725
20
-54.625
11
92.725
21
-40.625
0
LINE
8
0
10
78.725
20
-40.625
11
78.725
21
-54.625
0
LINE
8
0
10
97.775
20
-54.625
11
111.775
21
-54.625
0
LINE
8
0
10
111.775
20
-40.625
11
97.775
21
-40.625
0
LINE
8
0
10
111.775
20
-54.625
11
111.775
21
-40.625
0
LINE
8
0
10
97.775
20
-40.625
11
97.775
21
-54.625
0
LINE
8
0
10
123.96875
20
-54.625
11
137.96875
21
-54.625
0
LINE
8
0
10
137.96875
20
-40.625
11
123.96875
21
-40.625
0
LINE
8
0
10
137.96875
20
-54.625
11
137.96875
21
-40.625
0
LINE
8
0
10
123.96875
20
-40.625
11
123.96875
21
-54.625
0
LINE
8
0
10
150.1625
20
-54.625
11
164.1625
21
-54.625
0
LINE
8
0
10
164.1625
20
-40.625
11
150.1625
21
-40.625
0
LINE
8
0
10
164.1625
20
-54.625
11
164.1625
21
-40.625
0
LINE
8
0
10
150.1625
20
-40.625
11
150.1625
21
-54.625
0
LINE
8
0
10
169.2125
20
-54.625
11
183.2125
21
-54.625
0
LINE
8
0
10
183.2125
20
-40.625
11
169.2125
21
-40.625
0
LINE
8
0
10
183.2125
20
-54.625
11
183.2125
21
-40.625
0
LINE
8
0
10
169.2125
20
-40.625
11
169.2125
21
-54.625
0
LINE
8
0
10
188.2625
20
-54.625
11
202.2625
21
-54.625
0
LINE
8
0
10
202.2625
20
-40.625
11
188.2625
21
-40.625
0
LINE
8
0
10
202.2625
20
-54.625
11
202.2625
21
-40.625
0
LINE
8
0
10
188.2625
20
-40.625
11
188.2625
21
-54.625
0
LINE
8
0
10
207.3125
20
-54.625
11
221.3125
21
-54.625
0
LINE
8
0
10
221.3125
20
-40.625
11
207.3125
21
-40.625
0
LINE
8
0
10
221.3125
20
-54.625
11
221.3125
21
-40.625
0
LINE
8
0
10
207.3125
20
-40.625
11
207.3125
21
-54.625
0
LINE
8
0
10
226.3625
20
-54.625
11
240.3625
21
-54.625
0
LINE
8
0
10
240.3625
20
-40.625
11
226.3625
21
-40.625
0
LINE
8
0
10
240.3625
20
-54.625
11
240.3625
21
-40.625
0
LINE
8
0
10
226.3625
20
-40.625
11
226.3625
21
-54.625
0
LINE
8
0
10
4.90625
20
-73.675
11
18.90625
21
-73.675
0
LINE
8
0
10
18.90625
20
-59.675
11
4.90625
21
-59.675
0
LINE
8
0
10
18.90625
20
-73.675
11
18.90625
21
-59.675
0
LINE
8
0
10
4.90625
20
-59.675
11
4.90625
21
-73.675
0
LINE
8
0
10
28.71875
20
-73.675
11
42.71875
21
-73.675
0
LINE
8
0
10
42.71875
20
-59.675
11
28.71875
21
-59.675
0
LINE
8
0
10
42.71875
20
-73.675
11
42.71875
21
-59.675
0
LINE
8
0
10
28.71875
20
-59.675
11
28.71875
21
-73.675
0
LINE
8
0
10
52.53125
20
-73.675
11
66.53125
21
-73.675
0
LINE
8
0
10
66.53125
20
-59.675
11
52.53125
21
-59.675
0
LINE
8
0
10
66.53125
20
-73.675
11
66.53125
21
-59.675
0
LINE
8
0
10
52.53125
20
-59.675
11
52.53125
21
-73.675
0
LINE
8
0
10
93.0125
20
-73.675
11
93.9875
21
-73.675
0
LINE
8
0
10
93.9875
20
-73.675
11
94.0995
21
-73.675
0
LINE
8
0
10
102.5375
20
-73.675
11
107.0125
21
-73.675
0
LINE
8
0
10
94.0995
20
-73.675
11
101.0995
21
-73.675
0
LINE
8
0
10
101.0995
20
-73.675
11
102.5375
21
-73.675
0
LINE
8
0
10
107.0125
20
-59.675
11
102.5375
21
-59.675
0
LINE
8
0
10
102.5375
20
-59.675
11
101.0995
21
-59.675
0
LINE
8
0
10
94.0995
20
-59.675
11
93.9875
21
-59.675
0
LINE
8
0
10
122.5625
20
-58.675
11
117.9755
21
-58.675
0
LINE
8
0
10
117.9755
20
-58.675
11
115.5625
21
-58.675
0
LINE
8
0
10
115.5625
20
-73.675
11
116.5375
21
-73.675
0
LINE
8
0
10
116.5375
20
-73.675
11
117.9755
21
-73.675
0
LINE
8
0
10
117.9755
20
-73.675
11
121.5875
21
-73.675
0
LINE
8
0
10
121.5875
20
-73.675
11
122.5625
21
-73.675
0
LINE
8
0
10
115.5625
20
-58.675
11
115.5625
21
-59.675
0
LINE
8
0
10
84.4625
20
-58.675
11
77.46875
21
-58.675
0
LINE
8
0
10
77.46875
20
-58.675
11
77.4625
21
-58.675
0
LINE
8
0
10
77.4625
20
-73.675
11
77.46875
21
-73.675
0
LINE
8
0
10
77.46875
20
-73.675
11
84.4625
21
-73.675
0
LINE
8
0
10
77.4625
20
-58.675
11
77.4625
21
-59.675
0
LINE
8
0
10
122.5625
20
-73.675
11
123.96875
21
-73.675
0
LINE
8
0
10
123.96875
20
-73.675
11
124.9755
21
-73.675
0
LINE
8
0
10
124.9755
20
-73.675
11
134.58075
21
-73.675
0
LINE
8
0
10
134.58075
20
-73.675
11
134.6125
21
-73.675
0
LINE
8
0
10
134.6125
20
-73.675
11
135.5875
21
-73.675
0
LINE
8
0
10
134.58075
20
-59.675
11
124.9755
21
-59.675
0
LINE
8
0
10
189.2375
20
-58.675
11
184.46875
21
-58.675
0
LINE
8
0
10
184.46875
20
-58.675
11
182.2375
21
-58.675
0
LINE
8
0
10
182.2375
20
-73.675
11
184.46875
21
-73.675
0
LINE
8
0
10
184.46875
20
-73.675
11
187.975
21
-73.675
0
LINE
8
0
10
187.975
20
-73.675
11
188.2625
21
-73.675
0
LINE
8
0
10
188.2625
20
-73.675
11
189.2375
21
-73.675
0
LINE
8
0
10
189.2375
20
-59.675
11
189.2375
21
-58.675
0
LINE
8
0
10
93.9875
20
-58.675
11
86.9875
21
-58.675
0
LINE
8
0
10
86.9875
20
-73.675
11
87.9625
21
-73.675
0
LINE
8
0
10
87.9625
20
-73.675
11
93.0125
21
-73.675
0
LINE
8
0
10
86.9875
20
-58.675
11
86.9875
21
-59.675
0
LINE
8
0
10
93.9875
20
-59.675
11
93.9875
21
-58.675
0
LINE
8
0
10
73.9625
20
-73.675
11
77.4625
21
-73.675
0
LINE
8
0
10
84.4625
20
-73.675
11
84.46875
21
-73.675
0
LINE
8
0
10
84.46875
20
-73.675
11
86.9875
21
-73.675
0
LINE
8
0
10
77.4625
20
-59.675
11
73.9625
21
-59.675
0
LINE
8
0
10
86.9875
20
-59.675
11
84.46875
21
-59.675
0
LINE
8
0
10
73.9625
20
-59.675
11
73.9625
21
-73.675
0
LINE
8
0
10
135.5875
20
-73.675
11
137.96875
21
-73.675
0
LINE
8
0
10
182.2375
20
-58.675
11
179.7125
21
-58.675
0
LINE
8
0
10
179.7125
20
-58.675
11
177.46875
21
-58.675
0
LINE
8
0
10
177.46875
20
-73.675
11
179.7125
21
-73.675
0
LINE
8
0
10
179.7125
20
-73.675
11
182.2375
21
-73.675
0
LINE
8
0
10
84.46875
20
-58.675
11
84.4625
21
-58.675
0
LINE
8
0
10
84.46875
20
-59.675
11
84.46875
21
-58.675
0
LINE
8
0
10
107.0125
20
-73.675
11
115.5625
21
-73.675
0
LINE
8
0
10
115.5625
20
-59.675
11
107.0125
21
-59.675
0
LINE
8
0
10
124.9755
20
-58.675
11
122.5625
21
-58.675
0
LINE
8
0
10
124.9755
20
-59.675
11
124.9755
21
-58.675
0
LINE
8
0
10
101.0995
20
-58.675
11
94.0995
21
-58.675
0
LINE
8
0
10
94.0995
20
-58.675
11
94.0995
21
-59.675
0
LINE
8
0
10
101.0995
20
-59.675
11
101.0995
21
-58.675
0
LINE
8
0
10
150.1625
20
-73.675
11
157.01875
21
-73.675
0
LINE
8
0
10
157.01875
20
-73.675
11
158.45675
21
-73.675
0
LINE
8
0
10
158.45675
20
-73.675
11
164.1625
21
-73.675
0
LINE
8
0
10
157.01875
20
-59.675
11
150.1625
21
-59.675
0
LINE
8
0
10
158.45675
20
-59.675
11
157.01875
21
-59.675
0
LINE
8
0
10
177.46875
20
-58.675
11
172.7125
21
-58.675
0
LINE
8
0
10
172.7125
20
-73.675
11
173.975
21
-73.675
0
LINE
8
0
10
173.975
20
-73.675
11
177.46875
21
-73.675
0
LINE
8
0
10
172.7125
20
-58.675
11
172.7125
21
-73.675
0
LINE
8
0
10
141.6125
20
-58.675
11
141.58075
21
-58.675
0
LINE
8
0
10
141.58075
20
-58.675
11
134.6125
21
-58.675
0
LINE
8
0
10
137.96875
20
-73.675
11
141.58075
21
-73.675
0
LINE
8
0
10
141.58075
20
-73.675
11
141.6125
21
-73.675
0
LINE
8
0
10
141.6125
20
-73.675
11
141.6125
21
-58.675
0
LINE
8
0
10
143.01875
20
-73.675
11
150.1625
21
-73.675
0
LINE
8
0
10
150.1625
20
-59.675
11
143.01875
21
-59.675
0
LINE
8
0
10
143.01875
20
-59.675
11
143.01875
21
-73.675
0
LINE
8
0
10
165.45675
20
-58.675
11
158.45675
21
-58.675
0
LINE
8
0
10
164.1625
20
-73.675
11
165.45675
21
-73.675
0
LINE
8
0
10
158.45675
20
-58.675
11
158.45675
21
-59.675
0
LINE
8
0
10
165.45675
20
-73.675
11
165.45675
21
-58.675
0
LINE
8
0
10
134.6125
20
-58.675
11
134.58075
21
-58.675
0
LINE
8
0
10
134.58075
20
-58.675
11
134.58075
21
-59.675
0
LINE
8
0
10
189.2375
20
-73.675
11
195.40625
21
-73.675
0
LINE
8
0
10
195.40625
20
-73.675
11
202.2625
21
-73.675
0
LINE
8
0
10
202.2625
20
-59.675
11
195.40625
21
-59.675
0
LINE
8
0
10
195.40625
20
-59.675
11
189.2375
21
-59.675
0
LINE
8
0
10
202.2625
20
-73.675
11
207.3125
21
-73.675
0
LINE
8
0
10
207.3125
20
-73.675
11
209.40625
21
-73.675
0
LINE
8
0
10
209.40625
20
-59.675
11
207.3125
21
-59.675
0
LINE
8
0
10
207.3125
20
-59.675
11
202.2625
21
-59.675
0
LINE
8
0
10
209.40625
20
-73.675
11
216.8375
21
-73.675
0
LINE
8
0
10
216.8375
20
-73.675
11
221.3125
21
-73.675
0
LINE
8
0
10
221.3125
20
-59.675
11
216.8375
21
-59.675
0
LINE
8
0
10
216.8375
20
-59.675
11
209.40625
21
-59.675
0
LINE
8
0
10
221.3125
20
-73.675
11
221.6
21
-73.675
0
LINE
8
0
10
221.6
20
-73.675
11
226.3625
21
-73.675
0
LINE
8
0
10
226.3625
20
-73.675
11
230.8375
21
-73.675
0
LINE
8
0
10
230.8375
20
-59.675
11
226.3625
21
-59.675
0
LINE
8
0
10
226.3625
20
-59.675
11
221.6
21
-59.675
0
LINE
8
0
10
221.6
20
-59.675
11
221.3125
21
-59.675
0
LINE
8
0
10
230.8375
20
-73.675
11
235.6
21
-73.675
0
LINE
8
0
10
235.6
20
-59.675
11
230.8375
21
-59.675
0
LINE
8
0
10
235.6
20
-73.675
11
240.3625
21
-73.675
0
LINE
8
0
10
240.3625
20
-59.675
11
235.6
21
-59.675
0
LINE
8
0
10
240.3625
20
-73.675
11
240.3625
21
-59.675
0
ENDSEC
0
EOF