0
SECTION
2
HEADER
9
$INSUNITS
70
4
9
$ACADVER
1
AC1014
9
$HANDSEED
5
FFFF
0
ENDSEC
0
SECTION
2
TABLES
0
TABLE
2
VPORT
5
8
100
AcDbSymbolTable
0
ENDTAB
0
TABLE
2
LTYPE
5
5
100
AcDbSymbolTable
0
LTYPE
5
14
100
AcDbSymbolTableRecord
100
AcDbLinetypeTableRecord
2
BYBLOCK
70
0
0
LTYPE
5
15
100
AcDbSymbolTableRecord
100
AcDbLinetypeTableRecord
2
BYLAYER
70
0
0
ENDTAB
0
TABLE
2
LAYER
5
2
100
AcDbSymbolTable
70
2
0
LAYER
5
50
100
AcDbSymbolTableRecord
100
AcDbLayerTableRecord
2
0
70
0
6
CONTINUOUS
0
ENDTAB
0
TABLE
2
STYLE
5
3
100
AcDbSymbolTable
70
1
0
STYLE
5
11
100
AcDbSymbolTableRecord
100
AcDbTextStyleTableRecord
2
STANDARD
70
0
0
ENDTAB
0
TABLE
2
VIEW
5
6
100
AcDbSymbolTable
70
0
0
ENDTAB
0
TABLE
2
UCS
5
7
100
AcDbSymbolTable
70
0
0
ENDTAB
0
TABLE
2
APPID
5
9
100
AcDbSymbolTable
70
2
0
APPID
5
12
100
AcDbSymbolTableRecord
100
AcDbRegAppTableRecord
2
ACAD
70
0
0
ENDTAB
0
TABLE
2
DIMSTYLE
5
A
100
AcDbSymbolTable
70
1
0
ENDTAB
0
TABLE
2
BLOCK_RECORD
5
1
100
AcDbSymbolTable
70
1
0
BLOCK_RECORD
5
1F
100
AcDbSymbolTableRecord
100
AcDbBlockTableRecord
2
*MODEL_SPACE
0
BLOCK_RECORD
5
1B
100
AcDbSymbolTableRecord
100
AcDbBlockTableRecord
2
*PAPER_SPACE
0
ENDTAB
0
ENDSEC
0
SECTION
2
BLOCKS
0
BLOCK
5
20
100
AcDbEntity
100
AcDbBlockBegin
2
*MODEL_SPACE
0
ENDBLK
5
21
100
AcDbEntity
100
AcDbBlockEnd
0
BLOCK
5
1C
100
AcDbEntity
100
AcDbBlockBegin
2
*PAPER_SPACE
0
ENDBLK
5
1D
100
AcDbEntity
100
AcDbBlockEnd
0
ENDSEC
0
SECTION
2
ENTITIES
0
LWPOLYLINE
5
100
100
AcDbEntity
8
0
100
AcDbPolyline
90
52
70
1
43
0.0
10
111.325
20
15.368100000000005
10
111.325
20
16.488599999999998
10
108.024
20
16.488599999999998
10
108.024
20
15.368100000000005
10
106.34999999999999
20
15.368100000000005
10
106.34999999999999
20
11.937899999999999
10
105.52500000000002
20
11.937899999999999
10
105.52500000000002
20
16.039000000000001
10
104.72499999999999
20
16.039000000000001
10
104.72499999999999
20
16.638400000000004
10
90.724599999999995
20
16.638400000000004
10
90.724599999999995
20
16.039000000000001
10
89.925200000000004
20
16.039000000000001
10
89.925200000000004
20
11.937899999999999
10
89.099699999999999
20
11.937899999999999
10
89.099699999999999
20
15.368100000000005
10
87.424000000000021
20
15.368100000000005
10
87.424000000000021
20
16.488599999999998
10
84.125200000000021
20
16.488599999999998
10
84.125200000000021
20
15.368100000000005
10
82.449500000000015
20
15.368100000000005
10
82.449500000000015
20
11.937899999999999
10
81.574200000000005
20
11.937899999999999
10
81.574200000000005
20
9.1377600000000037
10
82.449500000000015
20
9.1377600000000037
10
82.449500000000015
20
2.6676999999999973
10
84.125200000000021
20
2.6676999999999973
10
84.125200000000021
20
1.8879100000000015
10
87.424000000000021
20
1.8879100000000015
10
87.424000000000021
20
2.6676999999999973
10
89.099699999999999
20
2.6676999999999973
10
89.099699999999999
20
7.338060000000004
10
89.925200000000004
20
7.338060000000004
10
89.925200000000004
20
3.2383900000000043
10
90.724599999999995
20
3.2383900000000043
10
90.724599999999995
20
2.6375599999999988
10
104.72499999999999
20
2.6375599999999988
10
104.72499999999999
20
3.2383900000000043
10
105.52500000000002
20
3.2383900000000043
10
105.52500000000002
20
7.338060000000004
10
106.34999999999999
20
7.338060000000004
10
106.34999999999999
20
2.6676999999999973
10
108.024
20
2.6676999999999973
10
108.024
20
1.8879100000000015
10
111.325
20
1.8879100000000015
10
111.325
20
2.6676999999999973
10
112.99900000000001
20
2.6676999999999973
10
112.99900000000001
20
9.1377600000000037
10
113.874
20
9.1377600000000037
10
113.874
20
11.937899999999999
10
112.99900000000001
20
11.937899999999999
10
112.99900000000001
20
15.368100000000005
0
LWPOLYLINE
5
101
100
AcDbEntity
8
0
100
AcDbPolyline
90
19
70
1
43
0.0
10
-0.15629339999999381
20
73.562899999999999
42
-0.41421356237309503
10
2.8437066000000044
20
76.562899999999999
10
111.39349999999999
20
76.562900000000013
42
-0.41421356237309503
10
114.39349999999999
20
73.562899999999999
10
114.39350000000002
20
60.012899999999988
42
0.35462048787950962
10
116.77500000000001
20
57.077349327638849
42
-0.35462048787950989
10
119.15649999999999
20
54.141798655277697
10
119.15649999999999
20
41.212900000000005
42
0.41421356237309503
10
122.15649999999999
20
38.212900000000005
10
125.68100000000001
20
38.212900000000012
42
-0.41421356237309503
10
128.68100000000001
20
35.212900000000005
10
128.68100000000001
20
22.163100000000007
42
-0.41421356237309503
10
125.68100000000001
20
19.163100000000007
10
122.1555
20
19.163100000000007
42
0.41421356237309503
10
119.15549999999999
20
16.163100000000007
10
119.15549999999999
20
2.8629990000000021
42
-0.41421356237309515
10
116.15549999999999
20
-0.13700099999999971
10
2.8437066000000009
20
-0.1370009999999966
42
-0.41421356237309503
10
-0.15629339999999914
20
2.8629990000000038
0
LWPOLYLINE
5
102
100
AcDbEntity
8
0
100
AcDbPolyline
90
12
70
1
43
0.0
10
19.000400000000006
20
16.039000000000001
10
19.000400000000006
20
16.638400000000004
10
4.9995299999999965
20
16.638400000000004
10
4.9995299999999965
20
16.039000000000001
10
4.2002800000000029
20
16.039000000000001
10
4.2002800000000029
20
3.2383899999999954
10
4.9995299999999965
20
3.2383900000000043
10
4.9995299999999965
20
2.6375599999999988
10
19.000400000000006
20
2.6375599999999988
10
19.000400000000006
20
3.2383900000000043
10
19.799699999999998
20
3.2383900000000043
10
19.799699999999998
20
16.039000000000001
0
LWPOLYLINE
5
103
100
AcDbEntity
8
0
100
AcDbPolyline
90
12
70
1
43
0.0
10
45.194000000000003
20
16.039000000000001
10
45.194000000000003
20
16.638400000000004
10
31.193299999999997
20
16.638400000000004
10
31.193299999999997
20
16.039000000000001
10
30.394000000000005
20
16.039000000000001
10
30.394000000000005
20
3.2383899999999954
10
31.193299999999997
20
3.2383900000000043
10
31.193299999999997
20
2.6375599999999988
10
45.194000000000003
20
2.6375599999999988
10
45.194000000000003
20
3.2383900000000043
10
45.993400000000008
20
3.2383900000000043
10
45.993400000000008
20
16.039000000000001
0
LWPOLYLINE
5
104
100
AcDbEntity
8
0
100
AcDbPolyline
90
12
70
1
43
0.0
10
71.386300000000034
20
16.039000000000001
10
71.386300000000034
20
16.638400000000004
10
57.387100000000004
20
16.638400000000004
10
57.387100000000004
20
16.039000000000001
10
56.586300000000008
20
16.039000000000001
10
56.586300000000008
20
3.2383899999999954
10
57.387100000000004
20
3.2383900000000043
10
57.387100000000004
20
2.6375599999999988
10
71.386300000000034
20
2.6375599999999988
10
71.386300000000034
20
3.2383900000000043
10
72.187200000000018
20
3.2383900000000043
10
72.187200000000018
20
16.039000000000001
0
LWPOLYLINE
5
105
100
AcDbEntity
8
0
100
AcDbPolyline
90
12
70
1
43
0.0
10
23.761500000000009
20
35.087600000000009
10
23.761500000000009
20
35.688400000000001
10
9.7620299999999993
20
35.688400000000001
10
9.7620299999999993
20
35.087600000000009
10
8.9613699999999952
20
35.087600000000009
10
8.9613699999999952
20
22.288399999999999
10
9.7620299999999993
20
22.288399999999999
10
9.7620299999999993
20
21.687600000000007
10
23.761500000000009
20
21.687600000000007
10
23.761500000000009
20
22.288399999999999
10
24.562200000000001
20
22.288399999999999
10
24.562200000000001
20
35.087600000000009
0
LWPOLYLINE
5
106
100
AcDbEntity
8
0
100
AcDbPolyline
90
12
70
1
43
0.0
10
49.955100000000002
20
35.087600000000009
10
49.955100000000002
20
35.688400000000001
10
35.955799999999996
20
35.688400000000001
10
35.955799999999996
20
35.087600000000009
10
35.155099999999997
20
35.087600000000009
10
35.155099999999997
20
22.288399999999999
10
35.955799999999996
20
22.288399999999999
10
35.955799999999996
20
21.687600000000007
10
49.955100000000002
20
21.687600000000007
10
49.955100000000002
20
22.288399999999999
10
50.755899999999997
20
22.288399999999999
10
50.755899999999997
20
35.087600000000009
0
LWPOLYLINE
5
107
100
AcDbEntity
8
0
100
AcDbPolyline
90
12
70
1
43
0.0
10
69.005099999999999
20
35.087600000000009
10
69.005099999999999
20
35.688400000000001
10
55.005800000000001
20
35.688400000000001
10
55.005800000000001
20
35.087600000000009
10
54.205000000000005
20
35.087600000000009
10
54.205000000000005
20
22.288399999999999
10
55.005800000000001
20
22.288399999999999
10
55.005800000000001
20
21.687600000000007
10
69.005099999999999
20
21.687600000000007
10
69.005099999999999
20
22.288399999999999
10
69.805899999999994
20
22.288399999999999
10
69.805899999999994
20
35.087600000000009
0
LWPOLYLINE
5
108
100
AcDbEntity
8
0
100
AcDbPolyline
90
12
70
1
43
0.0
10
88.055099999999996
20
35.087600000000009
10
88.055099999999996
20
35.688400000000001
10
74.055800000000005
20
35.688400000000001
10
74.055800000000005
20
35.087600000000009
10
73.254999999999995
20
35.087600000000009
10
73.254999999999995
20
22.288399999999999
10
74.055800000000005
20
22.288399999999999
10
74.055800000000005
20
21.687600000000007
10
88.055099999999996
20
21.687600000000007
10
88.055099999999996
20
22.288399999999999
10
88.85590000000002
20
22.288399999999999
10
88.85590000000002
20
35.087600000000009
0
LWPOLYLINE
5
109
100
AcDbEntity
8
0
100
AcDbPolyline
90
12
70
1
43
0.0
10
107.10500000000002
20
35.087600000000009
10
107.10500000000002
20
35.688400000000001
10
93.105800000000002
20
35.688400000000001
10
93.105800000000002
20
35.087600000000009
10
92.305000000000007
20
35.087600000000009
10
92.305000000000007
20
22.288399999999999
10
93.105800000000002
20
22.288399999999999
10
93.105800000000002
20
21.687600000000007
10
107.10500000000002
20
21.687600000000007
10
107.10500000000002
20
22.288399999999999
10
107.90600000000001
20
22.288399999999999
10
107.90600000000001
20
35.087600000000009
0
LWPOLYLINE
5
110
100
AcDbEntity
8
0
100
AcDbPolyline
90
12
70
1
43
0.0
10
126.155
20
35.087600000000009
10
126.155
20
35.688400000000001
10
112.15600000000002
20
35.688400000000001
10
112.15600000000002
20
35.087600000000009
10
111.355
20
35.087600000000009
10
111.355
20
22.288399999999999
10
112.15600000000002
20
22.288399999999999
10
112.15600000000002
20
21.687600000000007
10
126.155
20
21.687600000000007
10
126.155
20
22.288399999999999
10
126.956
20
22.288399999999999
10
126.956
20
35.087600000000009
0
LWPOLYLINE
5
111
100
AcDbEntity
8
0
100
AcDbPolyline
90
12
70
1
43
0.0
10
19.000400000000006
20
54.137599999999999
10
19.000400000000006
20
54.738399999999999
10
4.9995299999999965
20
54.738399999999999
10
4.9995299999999965
20
54.137599999999999
10
4.2002800000000029
20
54.137599999999999
10
4.2002800000000029
20
41.33850000000001
10
4.9995299999999965
20
41.33850000000001
10
4.9995299999999965
20
40.737699999999997
10
19.000400000000006
20
40.737699999999997
10
19.000400000000006
20
41.33850000000001
10
19.799699999999998
20
41.33850000000001
10
19.799699999999998
20
54.137599999999999
0
LWPOLYLINE
5
112
100
AcDbEntity
8
0
100
AcDbPolyline
90
12
70
1
43
0.0
10
59.4801
20
54.137599999999999
10
59.4801
20
54.738399999999999
10
45.480800000000002
20
54.738399999999999
10
45.480800000000002
20
54.137599999999999
10
44.68
20
54.137599999999999
10
44.68
20
41.33850000000001
10
45.480800000000002
20
41.33850000000001
10
45.480800000000002
20
40.737699999999997
10
59.4801
20
40.737699999999997
10
59.4801
20
41.33850000000001
10
60.280900000000003
20
41.33850000000001
10
60.280900000000003
20
54.137599999999999
0
LWPOLYLINE
5
113
100
AcDbEntity
8
0
100
AcDbPolyline
90
12
70
1
43
0.0
10
78.530100000000004
20
54.137599999999999
10
78.530100000000004
20
54.738399999999999
10
64.530799999999999
20
54.738399999999999
10
64.530799999999999
20
54.137599999999999
10
63.730000000000004
20
54.137599999999999
10
63.730000000000004
20
41.33850000000001
10
64.530799999999999
20
41.33850000000001
10
64.530799999999999
20
40.737699999999997
10
78.530100000000004
20
40.737699999999997
10
78.530100000000004
20
41.33850000000001
10
79.3309
20
41.33850000000001
10
79.3309
20
54.137599999999999
0
LWPOLYLINE
5
114
100
AcDbEntity
8
0
100
AcDbPolyline
90
12
70
1
43
0.0
10
97.580100000000002
20
54.137599999999999
10
97.580100000000002
20
54.738399999999999
10
83.580799999999996
20
54.738399999999999
10
83.580799999999996
20
54.137599999999999
10
82.780000000000001
20
54.137599999999999
10
82.780000000000001
20
41.33850000000001
10
83.580799999999996
20
41.33850000000001
10
83.580799999999996
20
40.737699999999997
10
97.580100000000002
20
40.737699999999997
10
97.580100000000002
20
41.33850000000001
10
98.380900000000011
20
41.33850000000001
10
98.380900000000011
20
54.137599999999999
0
LWPOLYLINE
5
115
100
AcDbEntity
8
0
100
AcDbPolyline
90
32
70
1
43
0.0
10
109.6771824680213
20
58.857206107000586
10
109.67718246802129
20
59.787700000000008
10
111.86799999999999
20
59.787700000000008
10
111.86799999999999
20
60.388500000000001
10
112.66800000000001
20
60.388500000000001
10
112.66800000000001
20
73.187600000000003
10
111.86799999999999
20
73.187600000000003
10
111.86799999999999
20
73.788399999999996
10
97.868300000000019
20
73.788399999999996
10
97.868300000000019
20
73.187600000000003
10
97.068900000000014
20
73.187600000000003
10
97.068900000000014
20
60.388500000000001
10
97.868300000000019
20
60.388500000000001
10
97.868300000000019
20
59.787700000000008
10
105.73063073197872
20
59.787700000000008
10
105.73063073197872
20
58.857206107000593
42
0.34314586273875014
10
105.73063073197872
20
55.78723389299941
10
105.73063073197872
20
54.738399999999999
10
102.63100000000001
20
54.738399999999999
10
102.63100000000001
20
54.137599999999999
10
101.83
20
54.137599999999999
10
101.83
20
41.33850000000001
10
102.63100000000001
20
41.33850000000001
10
102.63100000000001
20
40.737699999999997
10
116.63
20
40.737699999999997
10
116.63
20
41.33850000000001
10
117.431
20
41.33850000000001
10
117.431
20
54.137599999999999
10
116.63
20
54.137599999999999
10
116.63
20
54.738399999999999
10
109.67718246802129
20
54.738399999999999
10
109.67718246802129
20
55.787233892999396
42
0.34314586273874892
0
LWPOLYLINE
5
116
100
AcDbEntity
8
0
100
AcDbPolyline
90
12
70
1
43
0.0
10
16.619200000000003
20
73.187600000000003
10
16.619200000000003
20
73.788399999999996
10
2.6182700000000025
20
73.788399999999996
10
2.6182700000000025
20
73.187600000000003
10
1.8190099999999987
20
73.187600000000003
10
1.8190099999999987
20
60.388500000000001
10
2.6182700000000025
20
60.388500000000001
10
2.6182700000000025
20
59.787700000000008
10
16.619200000000003
20
59.787700000000008
10
16.619200000000003
20
60.388500000000001
10
17.418399999999998
20
60.388500000000001
10
17.418399999999998
20
73.187600000000003
0
LWPOLYLINE
5
117
100
AcDbEntity
8
0
100
AcDbPolyline
90
12
70
1
43
0.0
10
54.718999999999994
20
73.187600000000003
10
54.718999999999994
20
73.788399999999996
10
40.718299999999999
20
73.788399999999996
10
40.718299999999999
20
73.187600000000003
10
39.918899999999994
20
73.187600000000003
10
39.918899999999994
20
60.388500000000001
10
40.718299999999999
20
60.388500000000001
10
40.718299999999999
20
59.787700000000008
10
54.718999999999994
20
59.787700000000008
10
54.718999999999994
20
60.388500000000001
10
55.5184
20
60.388500000000001
10
55.5184
20
73.187600000000003
0
LWPOLYLINE
5
118
100
AcDbEntity
8
0
100
AcDbPolyline
90
12
70
1
43
0.0
10
73.769000000000034
20
73.187600000000003
10
73.769000000000034
20
73.788399999999996
10
59.768300000000004
20
73.788399999999996
10
59.768300000000004
20
73.187600000000003
10
58.968899999999998
20
73.187600000000003
10
58.968899999999998
20
60.388500000000001
10
59.768300000000004
20
60.388500000000001
10
59.768300000000004
20
59.787700000000008
10
73.769000000000034
20
59.787700000000008
10
73.769000000000034
20
60.388500000000001
10
74.568399999999997
20
60.388500000000001
10
74.568399999999997
20
73.187600000000003
0
LWPOLYLINE
5
119
100
AcDbEntity
8
0
100
AcDbPolyline
90
12
70
1
43
0.0
10
92.819000000000003
20
73.187600000000003
10
92.819000000000003
20
73.788399999999996
10
78.818299999999979
20
73.788399999999996
10
78.818299999999979
20
73.187600000000003
10
78.018900000000002
20
73.187600000000003
10
78.018900000000002
20
60.388500000000001
10
78.818299999999979
20
60.388500000000001
10
78.818299999999979
20
59.787700000000008
10
92.819000000000003
20
59.787700000000008
10
92.819000000000003
20
60.388500000000001
10
93.618399999999994
20
60.388500000000001
10
93.618399999999994
20
73.187600000000003
0
LWPOLYLINE
5
120
100
AcDbEntity
8
0
100
AcDbPolyline
90
32
70
1
43
0.0
10
33.135663388133864
20
54.738399999999999
10
33.135663388133864
20
55.428184682383389
42
0.4584091984930394
10
33.135663388133864
20
59.216255317616614
10
33.135663388133864
20
59.787700000000008
10
35.669000000000004
20
59.787700000000008
10
35.669000000000004
20
60.388500000000001
10
36.46840000000001
20
60.388500000000001
10
36.46840000000001
20
73.187600000000003
10
35.669000000000004
20
73.187600000000003
10
35.669000000000004
20
73.788399999999996
10
21.668299999999991
20
73.788399999999996
10
21.668299999999991
20
73.187600000000003
10
20.869
20
73.187600000000003
10
20.869
20
60.388500000000001
10
21.668299999999991
20
60.388500000000001
10
21.668299999999991
20
59.787700000000008
10
29.77829085598519
20
59.787700000000008
10
29.77829085598519
20
59.131156235473263
42
0.42808819946192334
10
29.778290855985187
20
55.51328376452674
10
29.77829085598519
20
54.738399999999999
10
26.430799999999994
20
54.738399999999999
10
26.430799999999994
20
54.137599999999999
10
25.630100000000002
20
54.137599999999999
10
25.630100000000002
20
41.33850000000001
10
26.430799999999994
20
41.33850000000001
10
26.430799999999994
20
40.737699999999997
10
40.43010000000001
20
40.737699999999997
10
40.43010000000001
20
41.33850000000001
10
41.230900000000005
20
41.33850000000001
10
41.230900000000005
20
54.137599999999999
10
40.43010000000001
20
54.137599999999999
10
40.43010000000001
20
54.738399999999999
0
CIRCLE
5
121
100
AcDbEntity
8
0
100
AcDbCircle
10
76.85370660000001
20
11.097899999999994
30
0
40
2.5
210
0
220
0
230
1
0
CIRCLE
5
122
100
AcDbEntity
8
0
100
AcDbCircle
10
29.903706600000003
20
22.547899999999998
30
0
40
2.5000000000000044
210
0
220
0
230
1
0
ENDSEC
0
SECTION
2
OBJECTS
0
DICTIONARY
5
C
100
AcDbDictionary
3
ACAD_GROUP
350
D
3
ACAD_MLINESTYLE
350
17
0
DICTIONARY
5
D
100
AcDbDictionary
0
DICTIONARY
5
1A
330
C
100
AcDbDictionary
0
DICTIONARY
5
17
100
AcDbDictionary
0
ENDSEC
0
EOF
