0
SECTION
2
HEADER
9
$INSUNITS
70
4
9
$ACADVER
1
AC1014
9
$HANDSEED
5
FFFF
0
ENDSEC
0
SECTION
2
TABLES
0
TABLE
2
VPORT
5
8
100
AcDbSymbolTable
0
ENDTAB
0
TABLE
2
LTYPE
5
5
100
AcDbSymbolTable
0
LTYPE
5
14
100
AcDbSymbolTableRecord
100
AcDbLinetypeTableRecord
2
BYBLOCK
70
0
0
LTYPE
5
15
100
AcDbSymbolTableRecord
100
AcDbLinetypeTableRecord
2
BYLAYER
70
0
0
ENDTAB
0
TABLE
2
LAYER
5
2
100
AcDbSymbolTable
70
2
0
LAYER
5
50
100
AcDbSymbolTableRecord
100
AcDbLayerTableRecord
2
0
70
0
6
CONTINUOUS
0
ENDTAB
0
TABLE
2
STYLE
5
3
100
AcDbSymbolTable
70
1
0
STYLE
5
11
100
AcDbSymbolTableRecord
100
AcDbTextStyleTableRecord
2
STANDARD
70
0
0
ENDTAB
0
TABLE
2
VIEW
5
6
100
AcDbSymbolTable
70
0
0
ENDTAB
0
TABLE
2
UCS
5
7
100
AcDbSymbolTable
70
0
0
ENDTAB
0
TABLE
2
APPID
5
9
100
AcDbSymbolTable
70
2
0
APPID
5
12
100
AcDbSymbolTableRecord
100
AcDbRegAppTableRecord
2
ACAD
70
0
0
ENDTAB
0
TABLE
2
DIMSTYLE
5
A
100
AcDbSymbolTable
70
1
0
ENDTAB
0
TABLE
2
BLOCK_RECORD
5
1
100
AcDbSymbolTable
70
1
0
BLOCK_RECORD
5
1F
100
AcDbSymbolTableRecord
100
AcDbBlockTableRecord
2
*MODEL_SPACE
0
BLOCK_RECORD
5
1B
100
AcDbSymbolTableRecord
100
AcDbBlockTableRecord
2
*PAPER_SPACE
0
ENDTAB
0
ENDSEC
0
SECTION
2
BLOCKS
0
BLOCK
5
20
100
AcDbEntity
100
AcDbBlockBegin
2
*MODEL_SPACE
0
ENDBLK
5
21
100
AcDbEntity
100
AcDbBlockEnd
0
BLOCK
5
1C
100
AcDbEntity
100
AcDbBlockBegin
2
*PAPER_SPACE
0
ENDBLK
5
1D
100
AcDbEntity
100
AcDbBlockEnd
0
ENDSEC
0
SECTION
2
ENTITIES
0
LWPOLYLINE
5
100
100
AcDbEntity
8
0
100
AcDbPolyline
90
4
70
1
43
0.0
10
104.98750000000001
20
-24.57500000000001
10
104.98750000000001
20
-38.57500000000001
10
90.987499999999983
20
-38.57500000000001
10
90.987499999999983
20
-24.57500000000001
0
LWPOLYLINE
5
101
100
AcDbEntity
8
0
100
AcDbPolyline
90
8
70
1
43
0.0
10
163.43174999999999
20
-76.174999
10
163.43174999999999
20
-62.175000000000004
42
0.41421356237312623
10
162.93175000000005
20
-61.675000000000026
10
156.93174999999999
20
-61.674999999999997
42
0.41421356237310542
10
156.43174999999997
20
-62.175000000000004
10
156.43174999999999
20
-76.174999
42
0.4142135623730846
10
156.93174999999999
20
-76.674998999999985
10
162.93174999999997
20
-76.674999000000028
42
0.41421356237314705
0
LWPOLYLINE
5
102
100
AcDbEntity
8
0
100
AcDbPolyline
90
4
70
1
43
0.0
10
157.375
20
-19.525000000000023
10
143.375
20
-19.525000000000013
10
143.375
20
-5.5250000000000199
10
157.375
20
-5.5250000000000199
0
LWPOLYLINE
5
103
100
AcDbEntity
8
0
100
AcDbPolyline
90
4
70
1
43
0.0
10
86.224999999999994
20
-5.5250000000000199
10
100.22500000000001
20
-5.5250000000000199
10
100.22500000000001
20
-19.525000000000013
10
86.224999999999994
20
-19.525000000000013
0
LWPOLYLINE
5
104
100
AcDbEntity
8
0
100
AcDbPolyline
90
8
70
1
43
0.0
10
247.36250000000007
20
-62.674999999999997
42
-0.4142135623730846
10
247.8625000000001
20
-63.175000000000026
10
247.86250000000001
20
-76.174999000000014
42
-0.41421356237313145
10
247.36250000000001
20
-76.674999000000014
10
234.36250000000001
20
-76.674999000000014
42
-0.4142135623731939
10
233.86250000000004
20
-76.174999000000014
10
233.86250000000004
20
-63.175000000000026
42
-0.41421356237307944
10
234.36250000000001
20
-62.675000000000018
0
LWPOLYLINE
5
105
100
AcDbEntity
8
0
100
AcDbPolyline
90
4
70
1
43
0.0
10
195.76250000000002
20
-57.625000000000028
10
195.76250000000002
20
-43.625000000000028
10
209.76249999999999
20
-43.625000000000028
10
209.76249999999999
20
-57.625000000000028
0
LWPOLYLINE
5
106
100
AcDbEntity
8
0
100
AcDbPolyline
90
8
70
1
43
0.0
10
91.430749999999961
20
-61.674999999999969
42
-0.41421356237313145
10
91.930750000000003
20
-62.175000000000004
10
91.930750000000003
20
-76.174999
42
-0.41421356237304302
10
91.430749999999961
20
-76.674999000000014
10
80.706249999999983
20
-76.674999000000028
42
-0.41421356237309503
10
80.206249999999983
20
-76.174999
10
80.206249999999955
20
-62.175000000000004
42
-0.4142135623730846
10
80.706249999999983
20
-61.674999999999969
0
LWPOLYLINE
5
107
100
AcDbEntity
8
0
100
AcDbPolyline
90
4
70
1
43
0.0
10
200.52500000000009
20
-5.5250000000000199
10
214.52500000000001
20
-5.5250000000000199
10
214.52500000000001
20
-19.525000000000023
10
200.52500000000009
20
-19.525000000000023
0
LWPOLYLINE
5
108
100
AcDbEntity
8
0
100
AcDbPolyline
90
4
70
1
43
0.0
10
76.41249999999998
20
-43.625
10
76.41249999999998
20
-57.625000000000028
10
62.412499999999937
20
-57.625000000000028
10
62.412499999999973
20
-43.625
0
LWPOLYLINE
5
109
100
AcDbEntity
8
0
100
AcDbPolyline
90
4
70
1
43
0.0
10
181.18750000000003
20
-24.575000000000014
10
181.18750000000003
20
-38.575000000000017
10
167.1875
20
-38.575000000000017
10
167.1875
20
-24.575000000000014
0
LWPOLYLINE
5
110
100
AcDbEntity
8
0
100
AcDbPolyline
90
4
70
1
43
0.0
10
26.40625
20
-38.575000000000003
10
12.40624999999998
20
-38.575000000000003
10
12.40624999999998
20
-24.574999999999999
10
26.40625
20
-24.574999999999999
0
LWPOLYLINE
5
111
100
AcDbEntity
8
0
100
AcDbPolyline
90
4
70
1
43
0.0
10
81.462499999999977
20
-57.625000000000028
10
81.46250000000002
20
-43.625
10
95.462500000000006
20
-43.625000000000007
10
95.462500000000006
20
-57.625000000000028
0
LWPOLYLINE
5
112
100
AcDbEntity
8
0
100
AcDbPolyline
90
8
70
1
43
0.0
10
228.81250000000009
20
-63.175000000000026
10
228.81250000000006
20
-76.174999000000014
42
-0.41421356237308982
10
228.31250000000011
20
-76.674999000000028
10
215.3125
20
-76.674999000000014
42
-0.4142135623731939
10
214.81250000000003
20
-76.174999000000014
10
214.81250000000003
20
-63.175000000000026
42
-0.41421356237307944
10
215.3125
20
-62.675000000000018
10
228.31250000000006
20
-62.67500000000004
42
-0.4142135623730222
0
LWPOLYLINE
5
113
100
AcDbEntity
8
0
100
AcDbPolyline
90
4
70
1
43
0.0
10
214.81250000000003
20
-43.625000000000028
10
228.81250000000009
20
-43.625000000000028
10
228.81250000000009
20
-57.625000000000028
10
214.81250000000003
20
-57.625000000000028
0
LWPOLYLINE
5
114
100
AcDbEntity
8
0
100
AcDbPolyline
90
14
70
1
43
0.0
10
132.55574999999996
20
-62.175000000000004
10
132.55574999999996
20
-62.674999999999997
10
127.20625000000001
20
-62.674999999999983
42
0.4142135623730378
10
126.70625000000001
20
-63.175000000000018
10
126.70625000000001
20
-76.174999
42
0.41421356237307422
10
127.20625
20
-76.674999000000014
10
154.49375000000001
20
-76.674998999999985
42
0.414213562373069
10
154.99375000000001
20
-76.174999
10
154.99375000000003
20
-63.175000000000018
42
0.41421356237308982
10
154.49375000000001
20
-62.674999999999997
10
139.55574899999999
20
-62.674999999999997
10
139.55574899999996
20
-62.175000000000004
42
0.41421356237314183
10
139.05574899999999
20
-61.674999999999983
10
133.05574999999999
20
-61.674999999999983
42
0.41421356237307944
0
LWPOLYLINE
5
115
100
AcDbEntity
8
0
100
AcDbPolyline
90
8
70
1
43
0.0
10
68.768749999999983
20
-76.674998999999971
10
55.76874999999994
20
-76.674999000000028
42
-0.4142135623730846
10
55.268749999999969
20
-76.174999
10
55.268749999999976
20
-63.175000000000018
42
-0.4142135623730846
10
55.76874999999994
20
-62.675000000000018
10
68.768749999999983
20
-62.674999999999997
42
-0.41421356237313145
10
69.268749999999983
20
-63.175000000000018
10
69.268749999999969
20
-76.174999
42
-0.41421356237310542
0
LWPOLYLINE
5
116
100
AcDbEntity
8
0
100
AcDbPolyline
90
4
70
1
43
0.0
10
29.074999999999992
20
-5.5250000000000012
10
43.07500000000001
20
-5.5250000000000021
10
43.074999999999974
20
-19.525000000000006
10
29.074999999999992
20
-19.525000000000006
0
LWPOLYLINE
5
117
100
AcDbEntity
8
0
100
AcDbPolyline
90
4
70
1
43
0.0
10
31.168750000000006
20
-43.625
10
31.168750000000006
20
-57.624999999999993
10
17.168749999999985
20
-57.624999999999993
10
17.168749999999985
20
-43.625
0
LWPOLYLINE
5
118
100
AcDbEntity
8
0
100
AcDbPolyline
90
4
70
1
43
0.0
10
33.837499999999991
20
-24.574999999999999
10
47.837499999999984
20
-24.574999999999999
10
47.837499999999984
20
-38.575000000000003
10
33.837499999999991
20
-38.575000000000003
0
LWPOLYLINE
5
119
100
AcDbEntity
8
0
100
AcDbPolyline
90
4
70
1
43
0.0
10
152.61250000000001
20
-57.625000000000028
10
138.61250000000001
20
-57.625000000000028
10
138.61250000000001
20
-43.625000000000007
10
152.61250000000001
20
-43.625000000000007
0
LWPOLYLINE
5
120
100
AcDbEntity
8
0
100
AcDbPolyline
90
4
70
1
43
0.0
10
240.71875000000006
20
-5.5250000000000199
10
240.71875000000006
20
-19.525000000000034
10
226.71875
20
-19.525000000000023
10
226.71875
20
-5.5250000000000199
0
LWPOLYLINE
5
121
100
AcDbEntity
8
0
100
AcDbPolyline
90
4
70
1
43
0.0
10
133.5625
20
-43.625000000000007
10
133.56249999999997
20
-57.625000000000028
10
119.5625
20
-57.625000000000028
10
119.5625
20
-43.625000000000007
0
LWPOLYLINE
5
122
100
AcDbEntity
8
0
100
AcDbPolyline
90
4
70
1
43
0.0
10
181.47500000000002
20
-19.525000000000023
10
181.47500000000002
20
-5.5250000000000199
10
195.47499999999999
20
-5.5250000000000199
10
195.47499999999999
20
-19.525000000000023
0
LWPOLYLINE
5
123
100
AcDbEntity
8
0
100
AcDbPolyline
90
4
70
1
43
0.0
10
67.175000000000011
20
-5.5250000000000199
10
81.174999999999983
20
-5.5250000000000199
10
81.174999999999983
20
-19.525000000000006
10
67.175000000000011
20
-19.525000000000006
0
LWPOLYLINE
5
124
100
AcDbEntity
8
0
100
AcDbPolyline
90
15
70
1
43
0.0
10
187.8312500000001
20
-62.675000000000011
42
-0.41421356237307422
10
188.33125000000007
20
-63.175000000000018
10
188.33125000000007
20
-69.888928921959987
10
188.33125000000007
20
-76.174999
42
-0.41421356237307944
10
187.83125000000001
20
-76.674999000000014
10
174.83125000000001
20
-76.674999000000014
42
-0.41421356237313667
10
174.33125000000001
20
-76.174999
10
174.33125000000004
20
-63.175000000000018
42
-0.41421356237317308
10
174.83125000000001
20
-62.674999999999997
10
180.20625000000007
20
-62.674999999999997
10
180.20625000000007
20
-62.175000000000004
42
-0.41421356237307944
10
180.70625000000004
20
-61.674999999999983
10
186.70625000000004
20
-61.675000000000004
42
-0.414213562373069
10
187.20625000000001
20
-62.175000000000004
10
187.20625000000001
20
-62.674999999999997
0
LWPOLYLINE
5
125
100
AcDbEntity
8
0
100
AcDbPolyline
90
4
70
1
43
0.0
10
124.32500000000002
20
-19.525000000000013
10
124.32500000000002
20
-5.5250000000000199
10
138.32499999999999
20
-5.5250000000000199
10
138.32499999999999
20
-19.525000000000013
0
LWPOLYLINE
5
126
100
AcDbEntity
8
0
100
AcDbPolyline
90
4
70
1
43
0.0
10
162.13750000000002
20
-24.575000000000014
10
162.13750000000002
20
-38.575000000000017
10
148.13749999999999
20
-38.57500000000001
10
148.13749999999999
20
-24.57500000000001
0
LWPOLYLINE
5
127
100
AcDbEntity
8
0
100
AcDbPolyline
90
4
70
1
43
0.0
10
162.42500000000004
20
-5.5250000000000199
10
176.42500000000001
20
-5.5250000000000199
10
176.42500000000001
20
-19.525000000000023
10
162.42500000000004
20
-19.525000000000023
0
LWPOLYLINE
5
128
100
AcDbEntity
8
0
100
AcDbPolyline
90
4
70
1
43
0.0
10
176.71250000000001
20
-43.625000000000028
10
190.71250000000003
20
-43.625000000000028
10
190.71250000000003
20
-57.625000000000028
10
176.71250000000001
20
-57.625000000000028
0
LWPOLYLINE
5
129
100
AcDbEntity
8
0
100
AcDbPolyline
90
4
70
1
43
0.0
10
57.362499999999983
20
-57.625000000000028
10
43.362499999999997
20
-57.624999999999993
10
43.362499999999997
20
-43.625
10
57.362500000000018
20
-43.625
0
LWPOLYLINE
5
130
100
AcDbEntity
8
0
100
AcDbPolyline
90
8
70
1
43
0.0
10
93.368750000000034
20
-76.174999
42
0.41421356237303258
10
93.868749999999963
20
-76.674999000000014
10
106.86875000000001
20
-76.674999000000014
42
0.41421356237307422
10
107.36875000000001
20
-76.174999
10
107.36875000000005
20
-63.175000000000018
42
0.41421356237318346
10
106.86874999999999
20
-62.675000000000018
10
93.868749999999963
20
-62.674999999999997
42
0.41421356237317308
10
93.368750000000006
20
-63.175000000000018
0
LWPOLYLINE
5
131
100
AcDbEntity
8
0
100
AcDbPolyline
90
4
70
1
43
0.0
10
233.86250000000004
20
-57.625000000000028
10
233.86250000000004
20
-43.625000000000028
10
247.86250000000001
20
-43.625000000000028
10
247.86250000000001
20
-57.625000000000028
0
LWPOLYLINE
5
132
100
AcDbEntity
8
0
100
AcDbPolyline
90
4
70
1
43
0.0
10
124.03750000000001
20
-24.57500000000001
10
124.03750000000001
20
-38.57500000000001
10
110.03750000000004
20
-38.57500000000001
10
110.03750000000004
20
-24.57500000000001
0
LWPOLYLINE
5
133
100
AcDbEntity
8
0
100
AcDbPolyline
90
4
70
1
43
0.0
10
71.937500000000014
20
-24.574999999999999
10
85.9375
20
-24.57500000000001
10
85.9375
20
-38.57500000000001
10
71.937500000000014
20
-38.575000000000003
0
LWPOLYLINE
5
134
100
AcDbEntity
8
0
100
AcDbPolyline
90
4
70
1
43
0.0
10
66.887499999999989
20
-38.575000000000003
10
52.887500000000003
20
-38.575000000000003
10
52.887500000000003
20
-24.574999999999999
10
66.887499999999989
20
-24.574999999999999
0
LWPOLYLINE
5
135
100
AcDbEntity
8
0
100
AcDbPolyline
90
4
70
1
43
0.0
10
205.28750000000002
20
-24.575000000000014
10
219.28750000000002
20
-24.575000000000014
10
219.28750000000002
20
-38.575000000000017
10
205.28750000000002
20
-38.575000000000017
0
LWPOLYLINE
5
136
100
AcDbEntity
8
0
100
AcDbPolyline
90
8
70
1
43
0.0
10
115.80674999999999
20
-76.174999
42
-0.41421356237302737
10
115.30674999999997
20
-76.674999000000014
10
109.30674999999997
20
-76.674999000000014
42
-0.41421356237311063
10
108.80674999999998
20
-76.174999
10
108.80674999999998
20
-62.175000000000004
42
-0.41421356237304818
10
109.30674999999997
20
-61.674999999999983
10
115.30674999999997
20
-61.674999999999976
42
-0.41421356237303258
10
115.80674999999999
20
-62.175000000000004
0
LWPOLYLINE
5
137
100
AcDbEntity
8
0
100
AcDbPolyline
90
8
70
1
43
0.0
10
26.406249999999996
20
-63.17499999999999
42
0.41421356237306384
10
25.906249999999996
20
-62.674999999999976
10
12.906249999999986
20
-62.674999999999983
42
0.41421356237309764
10
12.406249999999972
20
-63.17499999999999
10
12.406249999999979
20
-76.174998999999985
42
0.41421356237307422
10
12.906249999999986
20
-76.674998999999971
10
25.906249999999996
20
-76.674998999999985
42
0.4142135623730534
10
26.406249999999986
20
-76.174999
0
LWPOLYLINE
5
138
100
AcDbEntity
8
0
100
AcDbPolyline
90
4
70
1
43
0.0
10
157.66249999999999
20
-57.625000000000028
10
157.66249999999999
20
-43.625000000000028
10
171.66250000000005
20
-43.625000000000028
10
171.66250000000005
20
-57.625000000000028
0
LWPOLYLINE
5
139
100
AcDbEntity
8
0
100
AcDbPolyline
90
4
70
1
43
0.0
10
229.09999999999999
20
-24.575000000000014
10
243.10000000000002
20
-24.575000000000028
10
243.10000000000002
20
-38.575000000000017
10
229.09999999999999
20
-38.575000000000017
0
LWPOLYLINE
5
140
100
AcDbEntity
8
0
100
AcDbPolyline
90
4
70
1
43
0.0
10
114.51249999999996
20
-57.625000000000028
10
100.51249999999996
20
-57.625000000000028
10
100.51250000000002
20
-43.625000000000007
10
114.51250000000002
20
-43.625000000000007
0
LWPOLYLINE
5
141
100
AcDbEntity
8
0
100
AcDbPolyline
90
8
70
1
43
0.0
10
196.26249999999999
20
-76.674999000000028
10
209.26250000000007
20
-76.674998999999985
42
0.41421356237315227
10
209.76249999999999
20
-76.174999000000014
10
209.76249999999999
20
-63.175000000000026
42
0.4142135623730222
10
209.26250000000007
20
-62.674999999999997
10
196.26249999999999
20
-62.675000000000011
42
0.41421356237314183
10
195.76249999999999
20
-63.175000000000026
10
195.76250000000002
20
-76.174999000000014
42
0.4142135623731939
0
LWPOLYLINE
5
142
100
AcDbEntity
8
0
100
AcDbPolyline
90
8
70
1
43
0.0
10
33.837499999999999
20
-76.174998999999985
42
0.41421356237305601
10
34.337499999999999
20
-76.674999000000014
10
47.337500000000013
20
-76.674998999999985
42
0.4142135623730534
10
47.837499999999991
20
-76.174998999999985
10
47.837499999999984
20
-63.17499999999999
42
0.41421356237310542
10
47.337500000000013
20
-62.675000000000018
10
34.337499999999999
20
-62.674999999999983
42
0.41421356237305862
10
33.837499999999984
20
-63.17499999999999
0
LWPOLYLINE
5
143
100
AcDbEntity
8
0
100
AcDbPolyline
90
4
70
1
43
0.0
10
10.024999999999997
20
-5.5250000000000012
10
24.024999999999999
20
-5.5250000000000021
10
24.024999999999999
20
-19.525000000000006
10
10.025000000000013
20
-19.525000000000002
0
ARC
5
144
100
AcDbEntity
8
0
100
AcDbCircle
10
6.0000000000000053
20
-72.350000000000023
30
0
40
1.4999999999999947
210
0
220
0
230
1
100
AcDbArc
50
-90
51
0
0
ARC
5
145
100
AcDbEntity
8
0
100
AcDbCircle
10
254.38749999999999
20
-76.524999999999977
30
0
40
1.2499999999999964
210
0
220
0
230
1
100
AcDbArc
50
101.18805575132033
51
258.81194424867965
0
ARC
5
146
100
AcDbEntity
8
0
100
AcDbCircle
10
254.04794776119405
20
-74.808257655580817
30
0
40
0.4999999999999783
210
0
220
0
230
1
100
AcDbArc
50
-78.811944248676056
51
52.120780325479664
0
ARC
5
147
100
AcDbEntity
8
0
100
AcDbCircle
10
3.4999999999999964
20
-76.525000000000006
30
0
40
1.2499999999999956
210
0
220
0
230
1
100
AcDbArc
50
-78.811944248677889
51
78.811944248677435
0
LINE
5
148
100
AcDbEntity
8
0
100
AcDbLine
10
251.88749999999999
20
-8.3499999999999979
30
0
11
252.71250000000009
21
-8.3499999999999979
31
0
0
LINE
5
149
100
AcDbEntity
8
0
100
AcDbLine
10
5.1749999999999821
20
-79.200000000000003
30
0
11
252.71250000000009
21
-79.200000000000003
31
0
0
ARC
5
150
100
AcDbEntity
8
0
100
AcDbCircle
10
252.71250000000009
20
-5.6750000000000007
30
0
40
2.6749999999999972
210
0
220
-0
230
1
100
AcDbArc
50
52.120780325478407
51
90
0
LINE
5
151
100
AcDbEntity
8
0
100
AcDbLine
10
250.38749999999999
20
-72.34999999999998
30
0
11
250.38750000000007
21
-9.8500000000000032
31
0
0
LINE
5
152
100
AcDbEntity
8
0
100
AcDbLine
10
7.5000000000000044
20
-9.8499999999999996
30
0
11
7.5
21
-72.350000000000023
31
0
0
LWPOLYLINE
5
153
100
AcDbEntity
8
0
100
AcDbPolyline
90
4
70
1
43
0.0
10
200.23750000000007
20
-38.575000000000017
10
186.23750000000001
20
-38.575000000000017
10
186.23750000000001
20
-24.575000000000014
10
200.23750000000007
20
-24.575000000000014
0
ARC
5
154
100
AcDbEntity
8
0
100
AcDbCircle
10
5.1750000003942507
20
-5.6749999999989074
30
0
40
2.6749999999989087
210
0
220
0
230
1
100
AcDbArc
50
90.000000033754191
51
127.87921976709684
0
ARC
5
155
100
AcDbEntity
8
0
100
AcDbCircle
10
254.04794776119405
20
-7.3917423444191774
30
0
40
0.50000000000000511
210
0
220
0
230
1
100
AcDbArc
50
-52.120780325477305
51
78.811944248676539
0
ARC
5
156
100
AcDbEntity
8
0
100
AcDbCircle
10
3.8395522354588119
20
-3.9582576564936001
30
0
40
0.49999999842300963
210
0
220
0
230
1
100
AcDbArc
50
127.87921976709688
51
258.81194436038788
0
ARC
5
157
100
AcDbEntity
8
0
100
AcDbCircle
10
3.8395522388059722
20
-74.808257655580817
30
0
40
0.49999999999999656
210
0
220
0
230
1
100
AcDbArc
50
127.87921967452127
51
258.81194424867783
0
LINE
5
158
100
AcDbEntity
8
0
100
AcDbLine
10
6.0000000000000053
20
-73.850000000000023
30
0
11
5.1749999999999829
21
-73.850000000000023
31
0
0
ARC
5
159
100
AcDbEntity
8
0
100
AcDbCircle
10
251.8875000000001
20
-9.8500000000000405
30
0
40
1.5000000000000402
210
0
220
0
230
1
100
AcDbArc
50
90.000000000004349
51
180
0
LWPOLYLINE
5
160
100
AcDbEntity
8
0
100
AcDbPolyline
90
4
70
1
43
0.0
10
129.08750000000003
20
-24.57500000000001
10
143.08750000000001
20
-24.57500000000001
10
143.08750000000001
20
-38.57500000000001
10
129.08750000000003
20
-38.57500000000001
0
LWPOLYLINE
5
161
100
AcDbEntity
8
0
100
AcDbPolyline
90
4
70
1
43
0.0
10
119.27500000000002
20
-19.525000000000013
10
105.27500000000002
20
-19.525000000000013
10
105.27500000000002
20
-5.5250000000000199
10
119.27500000000002
20
-5.5250000000000199
0
ARC
5
162
100
AcDbEntity
8
0
100
AcDbCircle
10
254.38749999999999
20
-5.6750000000000043
30
0
40
1.2500000000000344
210
0
220
0
230
1
100
AcDbArc
50
101.18805575132129
51
258.81194424867959
0
ARC
5
163
100
AcDbEntity
8
0
100
AcDbCircle
10
3.5000000000000004
20
-5.6750000015748068
30
0
40
1.25
210
0
220
0
230
1
100
AcDbArc
50
-78.811944252576325
51
78.811944360388111
0
ARC
5
164
100
AcDbEntity
8
0
100
AcDbCircle
10
254.04794776119405
20
-78.24174234441918
30
0
40
0.50000000000002176
210
0
220
0
230
1
100
AcDbArc
50
-52.120780325479075
51
78.811944248676994
0
ARC
5
165
100
AcDbEntity
8
0
100
AcDbCircle
10
5.1749999999999847
20
-76.525000000000006
30
0
40
2.6749999999999847
210
0
220
0
230
1
100
AcDbArc
50
232.12078032547848
51
269.99999999999994
0
ARC
5
166
100
AcDbEntity
8
0
100
AcDbCircle
10
252.71250000000009
20
-76.525000000000006
30
0
40
2.6750000000000007
210
0
220
0
230
1
100
AcDbArc
50
270
51
307.87921967452047
0
LWPOLYLINE
5
167
100
AcDbEntity
8
0
100
AcDbPolyline
90
4
70
1
43
0.0
10
62.124999999999993
20
-5.5250000000000021
10
62.124999999999993
20
-19.525000000000006
10
48.125
20
-19.525000000000006
10
48.125
20
-5.5250000000000012
0
ARC
5
168
100
AcDbEntity
8
0
100
AcDbCircle
10
5.1750000003942507
20
-5.6749999999989074
30
0
40
2.6750000015758979
210
0
220
0
230
1
100
AcDbArc
50
232.12078034071502
51
270
0
ARC
5
169
100
AcDbEntity
8
0
100
AcDbCircle
10
252.71250000000009
20
-5.6750000000000007
30
0
40
2.6749999999999985
210
0
220
0
230
1
100
AcDbArc
50
270
51
307.87921967452075
0
LINE
5
170
100
AcDbEntity
8
0
100
AcDbLine
10
252.71250000000009
20
-73.850000000000023
30
0
11
251.88750000000005
21
-73.850000000000023
31
0
0
ARC
5
171
100
AcDbEntity
8
0
100
AcDbCircle
10
254.04794776119405
20
-3.9582576555808151
30
0
40
0.49999999999996819
210
0
220
0
230
1
100
AcDbArc
50
-78.811944248679112
51
52.120780325472204
0
ARC
5
172
100
AcDbEntity
8
0
100
AcDbCircle
10
6.0000000000000053
20
-9.8499999999999996
30
0
40
1.4999999999999969
210
0
220
0
230
1
100
AcDbArc
50
0
51
89.999999999999673
0
ARC
5
173
100
AcDbEntity
8
0
100
AcDbCircle
10
3.8395522388059611
20
-78.24174234441918
30
0
40
0.50000000000000389
210
0
220
0
230
1
100
AcDbArc
50
101.18805575132235
51
232.12078032547899
0
ARC
5
174
100
AcDbEntity
8
0
100
AcDbCircle
10
252.71250000000009
20
-76.525000000000006
30
0
40
2.6749999999999847
210
0
220
-0
230
1
100
AcDbArc
50
52.120780325479849
51
90
0
ARC
5
175
100
AcDbEntity
8
0
100
AcDbCircle
10
251.88749999999999
20
-72.350000000000023
30
0
40
1.5000000000000213
210
0
220
0
230
1
100
AcDbArc
50
180
51
270.0000000000021
0
LINE
5
176
100
AcDbEntity
8
0
100
AcDbLine
10
5.1750000003942507
20
-8.3500000015748039
30
0
11
6.0000000000000142
21
-8.3500000000000032
31
0
0
ARC
5
177
100
AcDbEntity
8
0
100
AcDbCircle
10
3.8395522386891545
20
-7.3917423460170886
30
0
40
0.49999999999999922
210
0
220
0
230
1
100
AcDbArc
50
101.18805574742348
51
232.1207803407151
0
ARC
5
178
100
AcDbEntity
8
0
100
AcDbCircle
10
5.1749999999999847
20
-76.525000000000006
30
0
40
2.6749999999999918
210
0
220
0
230
1
100
AcDbArc
50
90.000000000000043
51
127.8792196745212
0
LINE
5
179
100
AcDbEntity
8
0
100
AcDbLine
10
252.71250000000009
20
-3.0000000000000093
30
0
11
5.1749999988183504
21
-2.9999999999999987
31
0
0
ENDSEC
0
SECTION
2
OBJECTS
0
DICTIONARY
5
C
100
AcDbDictionary
3
ACAD_GROUP
350
D
3
ACAD_MLINESTYLE
350
17
0
DICTIONARY
5
D
100
AcDbDictionary
0
DICTIONARY
5
1A
330
C
100
AcDbDictionary
0
DICTIONARY
5
17
100
AcDbDictionary
0
ENDSEC
0
EOF
