0
SECTION
2
HEADER
9
$INSUNITS
70
4
9
$ACADVER
1
AC1014
9
$HANDSEED
5
FFFF
0
ENDSEC
0
SECTION
2
TABLES
0
TABLE
2
VPORT
5
8
100
AcDbSymbolTable
0
ENDTAB
0
TABLE
2
LTYPE
5
5
100
AcDbSymbolTable
0
LTYPE
5
14
100
AcDbSymbolTableRecord
100
AcDbLinetypeTableRecord
2
BYBLOCK
70
0
0
LTYPE
5
15
100
AcDbSymbolTableRecord
100
AcDbLinetypeTableRecord
2
BYLAYER
70
0
0
ENDTAB
0
TABLE
2
LAYER
5
2
100
AcDbSymbolTable
70
2
0
LAYER
5
50
100
AcDbSymbolTableRecord
100
AcDbLayerTableRecord
2
0
70
0
6
CONTINUOUS
0
ENDTAB
0
TABLE
2
STYLE
5
3
100
AcDbSymbolTable
70
1
0
STYLE
5
11
100
AcDbSymbolTableRecord
100
AcDbTextStyleTableRecord
2
STANDARD
70
0
0
ENDTAB
0
TABLE
2
VIEW
5
6
100
AcDbSymbolTable
70
0
0
ENDTAB
0
TABLE
2
UCS
5
7
100
AcDbSymbolTable
70
0
0
ENDTAB
0
TABLE
2
APPID
5
9
100
AcDbSymbolTable
70
2
0
APPID
5
12
100
AcDbSymbolTableRecord
100
AcDbRegAppTableRecord
2
ACAD
70
0
0
ENDTAB
0
TABLE
2
DIMSTYLE
5
A
100
AcDbSymbolTable
70
1
0
ENDTAB
0
TABLE
2
BLOCK_RECORD
5
1
100
AcDbSymbolTable
70
1
0
BLOCK_RECORD
5
1F
100
AcDbSymbolTableRecord
100
AcDbBlockTableRecord
2
*MODEL_SPACE
0
BLOCK_RECORD
5
1B
100
AcDbSymbolTableRecord
100
AcDbBlockTableRecord
2
*PAPER_SPACE
0
ENDTAB
0
ENDSEC
0
SECTION
2
BLOCKS
0
BLOCK
5
20
100
AcDbEntity
100
AcDbBlockBegin
2
*MODEL_SPACE
0
ENDBLK
5
21
100
AcDbEntity
100
AcDbBlockEnd
0
BLOCK
5
1C
100
AcDbEntity
100
AcDbBlockBegin
2
*PAPER_SPACE
0
ENDBLK
5
1D
100
AcDbEntity
100
AcDbBlockEnd
0
ENDSEC
0
SECTION
2
ENTITIES
0
LWPOLYLINE
5
100
100
AcDbEntity
8
0
100
AcDbPolyline
90
8
70
1
43
0.0
10
-273.05000000000007
20
107.95000000000002
10
-33.337500000000006
20
107.95
42
-0.41421356237309503
10
-31.750000000000004
20
106.36250000000001
10
-31.750000000000004
20
33.337500000000006
42
-0.41421356237309176
10
-33.337499999999984
20
31.750000000000004
10
-273.05000000000001
20
31.750000000000025
42
-0.41421356237309503
10
-274.63749999999999
20
33.337500000000006
10
-274.63750000000005
20
106.36250000000001
42
-0.41421356237308848
0
LWPOLYLINE
5
101
100
AcDbEntity
8
0
100
AcDbPolyline
90
8
70
1
43
0.0
10
-50.656250000000007
20
104.924999
10
-50.656250000000007
20
91.925000000000011
42
0.41421356237309503
10
-50.15625
20
91.424999999999997
10
-37.15625
20
91.424999999999997
42
0.41421356237309503
10
-36.65625
20
91.925000000000011
10
-36.65625
20
104.924999
42
0.41421356237309503
10
-37.15625
20
105.42499900000001
10
-50.15625
20
105.42499900000001
42
0.41421356237309503
0
LWPOLYLINE
5
102
100
AcDbEntity
8
0
100
AcDbPolyline
90
8
70
1
43
0.0
10
-71.587500000000006
20
91.424999999999997
10
-58.587500000000006
20
91.424999999999997
42
0.41421356237309503
10
-58.087499999999999
20
91.925000000000011
10
-58.087500000000006
20
104.924999
42
0.41421356237309503
10
-58.587500000000006
20
105.42499900000001
10
-71.587500000000006
20
105.42499900000001
42
0.41421356237309503
10
-72.087500000000006
20
104.924999
10
-72.087500000000006
20
91.925000000000011
42
0.41421356237309503
0
LWPOLYLINE
5
103
100
AcDbEntity
8
0
100
AcDbPolyline
90
8
70
1
43
0.0
10
-79.518749999999997
20
91.925000000000011
42
-0.41421356237309503
10
-80.018749999999997
20
91.424999999999997
10
-93.018750000000011
20
91.424999999999997
42
-0.41421356237309503
10
-93.518750000000011
20
91.925000000000011
10
-93.518750000000011
20
104.924999
42
-0.41421356237309503
10
-93.018750000000011
20
105.42499900000001
10
-80.018749999999997
20
105.42499899999999
42
-0.41421356237309503
10
-79.518749999999997
20
104.924999
0
LWPOLYLINE
5
104
100
AcDbEntity
8
0
100
AcDbPolyline
90
12
70
1
43
0.0
10
-116.18075000000002
20
104.924999
42
-0.41421356237309503
10
-115.68075
20
105.42499900000001
10
-110.95625
20
105.42499900000001
10
-109.68075
20
105.42499900000001
10
-104.95625000000001
20
105.42499900000001
42
-0.41421356237309503
10
-104.45625
20
104.924999
10
-104.45625
20
90.924999999999997
42
-0.41421356237309503
10
-104.95625000000001
20
90.424999999999983
10
-109.68075
20
90.425000000000011
10
-110.95625
20
90.425000000000011
10
-115.68075
20
90.424999999999983
42
-0.41421356237309503
10
-116.18075000000002
20
90.924999999999997
0
LWPOLYLINE
5
105
100
AcDbEntity
8
0
100
AcDbPolyline
90
8
70
1
43
0.0
10
-117.61875000000001
20
91.925000000000011
42
-0.41421356237309503
10
-118.11875000000001
20
91.424999999999997
10
-131.11875000000001
20
91.424999999999997
42
-0.41421356237309503
10
-131.61875000000003
20
91.925000000000011
10
-131.61875000000003
20
104.924999
42
-0.41421356237309503
10
-131.11875000000001
20
105.42499900000001
10
-118.11875000000001
20
105.42499900000001
42
-0.41421356237309503
10
-117.61875000000001
20
104.924999
0
LWPOLYLINE
5
106
100
AcDbEntity
8
0
100
AcDbPolyline
90
8
70
1
43
0.0
10
-139.55674999999999
20
90.424999999999983
42
-0.41421356237309503
10
-140.05674999999999
20
90.924999999999997
10
-140.05674999999999
20
104.924999
42
-0.41421356237309503
10
-139.55674999999999
20
105.42499900000001
10
-133.55674999999999
20
105.42499900000001
42
-0.41421356237309503
10
-133.05674999999999
20
104.924999
10
-133.05674999999999
20
90.924999999999997
42
-0.41421356237309503
10
-133.55674999999999
20
90.424999999999983
0
LWPOLYLINE
5
107
100
AcDbEntity
8
0
100
AcDbPolyline
90
4
70
1
43
0.0
10
-55.41875000000001
20
86.375000000000014
10
-55.41875000000001
20
72.375
10
-41.418750000000003
20
72.375
10
-41.418750000000003
20
86.375000000000014
0
LWPOLYLINE
5
108
100
AcDbEntity
8
0
100
AcDbPolyline
90
4
70
1
43
0.0
10
-81.612500000000011
20
72.375
10
-67.612500000000011
20
72.375
10
-67.612500000000011
20
86.375000000000014
10
-81.612500000000011
20
86.375000000000014
0
LWPOLYLINE
5
109
100
AcDbEntity
8
0
100
AcDbPolyline
90
4
70
1
43
0.0
10
-86.662499999999994
20
72.375
10
-86.662499999999994
20
86.375000000000014
10
-100.66249999999999
20
86.375000000000014
10
-100.66249999999999
20
72.375
0
LWPOLYLINE
5
110
100
AcDbEntity
8
0
100
AcDbPolyline
90
4
70
1
43
0.0
10
-105.71250000000001
20
72.375
10
-105.71250000000001
20
86.375000000000014
10
-119.71250000000001
20
86.375000000000014
10
-119.71250000000001
20
72.375
0
LWPOLYLINE
5
111
100
AcDbEntity
8
0
100
AcDbPolyline
90
4
70
1
43
0.0
10
-124.7625
20
72.375
10
-124.7625
20
86.375000000000014
10
-138.76249999999999
20
86.375000000000014
10
-138.76249999999999
20
72.375
0
LWPOLYLINE
5
112
100
AcDbEntity
8
0
100
AcDbPolyline
90
4
70
1
43
0.0
10
-143.8125
20
72.375
10
-143.8125
20
86.375000000000014
10
-157.8125
20
86.375000000000014
10
-157.8125
20
72.375
0
LWPOLYLINE
5
113
100
AcDbEntity
8
0
100
AcDbPolyline
90
20
70
1
43
0.0
10
-179.24375000000001
20
104.924999
42
-0.41421356237309503
10
-178.74375000000001
20
105.42499900000001
10
-165.74375000000001
20
105.42499900000001
10
-164.45625000000004
20
105.42499900000001
10
-163.30574899999999
20
105.42499900000001
10
-157.30574999999999
20
105.42499900000001
10
-151.45625000000001
20
105.42499900000001
42
-0.41421356237309503
10
-150.95625000000001
20
104.924999
10
-150.95625000000001
20
91.925000000000011
42
-0.41421356237309503
10
-151.45625000000001
20
91.424999999999997
10
-156.80574999999999
20
91.424999999999997
10
-156.80574999999999
20
90.924999999999997
42
-0.41421356237309503
10
-157.30574999999999
20
90.424999999999983
10
-163.30574899999999
20
90.424999999999983
42
-0.41421356237309503
10
-163.80574899999999
20
90.924999999999997
10
-163.80574899999999
20
91.424999999999997
10
-164.45625000000004
20
91.424999999999997
10
-165.74375000000001
20
91.424999999999997
10
-178.74375000000001
20
91.424999999999997
42
-0.41421356237309503
10
-179.24375000000001
20
91.925000000000011
0
LWPOLYLINE
5
114
100
AcDbEntity
8
0
100
AcDbPolyline
90
8
70
1
43
0.0
10
-187.68174999999999
20
104.924999
10
-187.68174999999999
20
90.924999999999997
42
0.41421356237309503
10
-187.18174999999999
20
90.425000000000011
10
-181.18175000000002
20
90.424999999999983
42
0.41421356237309503
10
-180.68174999999999
20
90.924999999999997
10
-180.68174999999999
20
104.924999
42
0.41421356237309503
10
-181.18175000000002
20
105.42499900000001
10
-187.18174999999999
20
105.42499900000001
42
0.41421356237309503
0
LWPOLYLINE
5
115
100
AcDbEntity
8
0
100
AcDbPolyline
90
18
70
1
43
0.0
10
-212.58125000000004
20
104.924999
10
-212.58125000000004
20
98.638928921960002
42
2.6270200927975784
10
-212.58125000000004
20
95.979071078030017
10
-212.58125000000004
20
91.925000000000011
42
0.41421356237309503
10
-212.08125000000001
20
91.424999999999997
10
-211.45625000000001
20
91.424999999999997
10
-211.45625000000001
20
90.924999999999997
42
0.41421356237309503
10
-210.95625000000001
20
90.425000000000011
10
-204.95625000000004
20
90.424999999999983
42
0.41421356237309503
10
-204.45625000000004
20
90.924999999999997
10
-204.45625000000004
20
91.424999999999997
10
-199.08125000000001
20
91.424999999999997
42
0.41421356237309503
10
-198.58125000000001
20
91.925000000000011
10
-198.58125000000001
20
104.924999
42
0.41421356237309503
10
-199.08125000000001
20
105.42499900000001
10
-204.95625000000004
20
105.42499900000001
10
-210.95625000000001
20
105.42499900000001
10
-212.08125000000001
20
105.42499900000001
42
0.41421356237309503
0
LWPOLYLINE
5
116
100
AcDbEntity
8
0
100
AcDbPolyline
90
8
70
1
43
0.0
10
-220.01249999999999
20
91.925000000000011
42
-0.41421356237309503
10
-220.51249999999999
20
91.424999999999997
10
-233.51249999999999
20
91.424999999999997
42
-0.41421356237309503
10
-234.01250000000002
20
91.925000000000011
10
-234.01250000000002
20
104.924999
42
-0.41421356237309503
10
-233.51249999999999
20
105.42499900000001
10
-220.51249999999999
20
105.42499900000001
42
-0.41421356237309503
10
-220.01249999999999
20
104.924999
0
LWPOLYLINE
5
117
100
AcDbEntity
8
0
100
AcDbPolyline
90
8
70
1
43
0.0
10
-253.06250000000003
20
104.924999
42
-0.41421356237309503
10
-252.5625
20
105.42499900000001
10
-239.5625
20
105.42499900000001
42
-0.41421356237309503
10
-239.0625
20
104.924999
10
-239.0625
20
91.925000000000011
42
-0.41421356237309503
10
-239.5625
20
91.424999999999997
10
-252.5625
20
91.424999999999997
42
-0.41421356237309503
10
-253.06250000000003
20
91.925000000000011
0
LWPOLYLINE
5
118
100
AcDbEntity
8
0
100
AcDbPolyline
90
8
70
1
43
0.0
10
-271.61250000000001
20
91.424999999999997
42
-0.41421356237309503
10
-272.11250000000001
20
91.925000000000011
10
-272.11250000000001
20
104.924999
42
-0.41421356237309503
10
-271.61250000000001
20
105.42499900000001
10
-258.61250000000001
20
105.42499900000001
42
-0.41421356237309503
10
-258.11250000000001
20
104.924999
10
-258.11250000000001
20
91.925000000000011
42
-0.41421356237309503
10
-258.61250000000001
20
91.424999999999997
0
LWPOLYLINE
5
119
100
AcDbEntity
8
0
100
AcDbPolyline
90
4
70
1
43
0.0
10
-162.86250000000001
20
72.375
10
-162.86250000000001
20
86.375000000000014
10
-176.86250000000001
20
86.375000000000014
10
-176.86250000000001
20
72.375
0
LWPOLYLINE
5
120
100
AcDbEntity
8
0
100
AcDbPolyline
90
4
70
1
43
0.0
10
-181.91249999999999
20
72.375
10
-181.91249999999999
20
86.375000000000014
10
-195.91250000000002
20
86.375000000000014
10
-195.91250000000002
20
72.375
0
LWPOLYLINE
5
121
100
AcDbEntity
8
0
100
AcDbPolyline
90
4
70
1
43
0.0
10
-214.96250000000003
20
72.375
10
-200.96250000000001
20
72.375
10
-200.96250000000001
20
86.375000000000014
10
-214.96250000000003
20
86.375000000000014
0
LWPOLYLINE
5
122
100
AcDbEntity
8
0
100
AcDbPolyline
90
4
70
1
43
0.0
10
-234.01250000000002
20
86.375000000000014
10
-234.01250000000002
20
72.375
10
-220.01249999999999
20
72.375
10
-220.01249999999999
20
86.375000000000014
0
LWPOLYLINE
5
123
100
AcDbEntity
8
0
100
AcDbPolyline
90
4
70
1
43
0.0
10
-239.0625
20
86.375000000000014
10
-253.06250000000003
20
86.375000000000014
10
-253.06250000000003
20
72.375
10
-239.0625
20
72.375
0
LWPOLYLINE
5
124
100
AcDbEntity
8
0
100
AcDbPolyline
90
4
70
1
43
0.0
10
-258.11250000000001
20
72.375
10
-258.11250000000001
20
86.375000000000014
10
-272.11250000000001
20
86.375000000000014
10
-272.11250000000001
20
72.375
0
LWPOLYLINE
5
125
100
AcDbEntity
8
0
100
AcDbPolyline
90
4
70
1
43
0.0
10
-36.65625
20
67.325000000000003
10
-50.656250000000007
20
67.325000000000003
10
-50.656250000000007
20
53.325000000000003
10
-36.65625
20
53.325000000000003
0
LWPOLYLINE
5
126
100
AcDbEntity
8
0
100
AcDbPolyline
90
4
70
1
43
0.0
10
-58.087499999999999
20
53.325000000000003
10
-58.087499999999999
20
67.325000000000003
10
-72.087500000000006
20
67.325000000000003
10
-72.087500000000006
20
53.325000000000003
0
LWPOLYLINE
5
127
100
AcDbEntity
8
0
100
AcDbPolyline
90
4
70
1
43
0.0
10
-77.137500000000017
20
67.325000000000003
10
-91.137500000000017
20
67.325000000000003
10
-91.137500000000017
20
53.325000000000003
10
-77.137500000000017
20
53.325000000000003
0
LWPOLYLINE
5
128
100
AcDbEntity
8
0
100
AcDbPolyline
90
4
70
1
43
0.0
10
-96.1875
20
53.325000000000003
10
-96.1875
20
67.325000000000003
10
-110.1875
20
67.325000000000003
10
-110.1875
20
53.325000000000003
0
LWPOLYLINE
5
129
100
AcDbEntity
8
0
100
AcDbPolyline
90
4
70
1
43
0.0
10
-115.2375
20
67.325000000000003
10
-129.23750000000001
20
67.325000000000003
10
-129.23750000000001
20
53.325000000000003
10
-115.2375
20
53.325000000000003
0
LWPOLYLINE
5
130
100
AcDbEntity
8
0
100
AcDbPolyline
90
4
70
1
43
0.0
10
-148.28749999999999
20
67.325000000000003
10
-148.28749999999999
20
53.325000000000003
10
-134.28750000000002
20
53.325000000000003
10
-134.28750000000002
20
67.325000000000003
0
LWPOLYLINE
5
131
100
AcDbEntity
8
0
100
AcDbPolyline
90
4
70
1
43
0.0
10
-48.275000000000006
20
34.275000000000006
10
-34.275000000000006
20
34.275000000000006
10
-34.275000000000006
20
48.275000000000006
10
-48.275000000000006
20
48.275000000000006
0
LWPOLYLINE
5
132
100
AcDbEntity
8
0
100
AcDbPolyline
90
4
70
1
43
0.0
10
-67.325000000000003
20
48.275000000000006
10
-67.325000000000003
20
34.275000000000006
10
-53.325000000000003
20
34.275000000000006
10
-53.325000000000003
20
48.275000000000006
0
LWPOLYLINE
5
133
100
AcDbEntity
8
0
100
AcDbPolyline
90
4
70
1
43
0.0
10
-72.375
20
48.275000000000006
10
-86.375000000000014
20
48.275000000000006
10
-86.375000000000014
20
34.275000000000006
10
-72.375
20
34.275000000000006
0
LWPOLYLINE
5
134
100
AcDbEntity
8
0
100
AcDbPolyline
90
4
70
1
43
0.0
10
-105.42500000000001
20
48.275000000000006
10
-105.42500000000001
20
34.275000000000006
10
-91.424999999999997
20
34.275000000000006
10
-91.424999999999997
20
48.275000000000006
0
LWPOLYLINE
5
135
100
AcDbEntity
8
0
100
AcDbPolyline
90
4
70
1
43
0.0
10
-110.47499999999999
20
34.275000000000006
10
-110.47499999999999
20
48.275000000000006
10
-124.47499999999999
20
48.275000000000006
10
-124.47499999999999
20
34.275000000000006
0
LWPOLYLINE
5
136
100
AcDbEntity
8
0
100
AcDbPolyline
90
4
70
1
43
0.0
10
-143.52500000000001
20
34.275000000000006
10
-129.52500000000001
20
34.275000000000006
10
-129.52500000000001
20
48.275000000000006
10
-143.52500000000001
20
48.275000000000006
0
LWPOLYLINE
5
137
100
AcDbEntity
8
0
100
AcDbPolyline
90
4
70
1
43
0.0
10
-167.33750000000001
20
53.325000000000003
10
-153.33750000000003
20
53.325000000000003
10
-153.33750000000003
20
67.325000000000003
10
-167.33750000000001
20
67.325000000000003
0
LWPOLYLINE
5
138
100
AcDbEntity
8
0
100
AcDbPolyline
90
4
70
1
43
0.0
10
-172.38749999999999
20
67.325000000000003
10
-186.38749999999999
20
67.325000000000003
10
-186.38749999999999
20
53.325000000000003
10
-172.38749999999999
20
53.325000000000003
0
LWPOLYLINE
5
139
100
AcDbEntity
8
0
100
AcDbPolyline
90
4
70
1
43
0.0
10
-191.4375
20
67.325000000000003
10
-205.43750000000003
20
67.325000000000003
10
-205.43750000000003
20
53.325000000000003
10
-191.4375
20
53.325000000000003
0
LWPOLYLINE
5
140
100
AcDbEntity
8
0
100
AcDbPolyline
90
4
70
1
43
0.0
10
-210.48750000000001
20
53.325000000000003
10
-210.48750000000001
20
67.325000000000003
10
-224.48750000000004
20
67.325000000000003
10
-224.48750000000004
20
53.325000000000003
0
LWPOLYLINE
5
141
100
AcDbEntity
8
0
100
AcDbPolyline
90
4
70
1
43
0.0
10
-229.53749999999999
20
53.325000000000003
10
-229.53749999999999
20
67.325000000000003
10
-243.53750000000002
20
67.325000000000003
10
-243.53750000000002
20
53.325000000000003
0
LWPOLYLINE
5
142
100
AcDbEntity
8
0
100
AcDbPolyline
90
4
70
1
43
0.0
10
-267.35000000000002
20
67.325000000000003
10
-267.35000000000002
20
53.325000000000003
10
-253.35000000000002
20
53.325000000000003
10
-253.35000000000002
20
67.325000000000003
0
LWPOLYLINE
5
143
100
AcDbEntity
8
0
100
AcDbPolyline
90
4
70
1
43
0.0
10
-162.57499999999999
20
48.275000000000006
10
-162.57499999999999
20
34.275000000000006
10
-148.57499999999999
20
34.275000000000006
10
-148.57499999999999
20
48.275000000000006
0
LWPOLYLINE
5
144
100
AcDbEntity
8
0
100
AcDbPolyline
90
4
70
1
43
0.0
10
-167.625
20
48.275000000000006
10
-181.625
20
48.275000000000006
10
-181.625
20
34.275000000000006
10
-167.625
20
34.275000000000006
0
LWPOLYLINE
5
145
100
AcDbEntity
8
0
100
AcDbPolyline
90
4
70
1
43
0.0
10
-186.67500000000001
20
34.275000000000006
10
-186.67500000000001
20
48.275000000000006
10
-200.67500000000001
20
48.275000000000006
10
-200.67500000000001
20
34.275000000000006
0
LWPOLYLINE
5
146
100
AcDbEntity
8
0
100
AcDbPolyline
90
4
70
1
43
0.0
10
-205.72500000000002
20
34.275000000000006
10
-205.72500000000002
20
48.275000000000006
10
-219.72499999999999
20
48.275000000000006
10
-219.72499999999999
20
34.275000000000006
0
LWPOLYLINE
5
147
100
AcDbEntity
8
0
100
AcDbPolyline
90
4
70
1
43
0.0
10
-224.77500000000003
20
34.275000000000006
10
-224.77500000000003
20
48.275000000000006
10
-238.77500000000001
20
48.275000000000006
10
-238.77500000000001
20
34.275000000000006
0
LWPOLYLINE
5
148
100
AcDbEntity
8
0
100
AcDbPolyline
90
4
70
1
43
0.0
10
-264.96875
20
34.275000000000006
10
-250.96875
20
34.275000000000006
10
-250.96875
20
48.275000000000006
10
-264.96875
20
48.275000000000006
0
CIRCLE
5
149
100
AcDbEntity
8
0
100
AcDbCircle
10
-61.475000000000009
20
85.573999999999998
30
0
40
2
210
0
220
0
230
1
0
CIRCLE
5
150
100
AcDbEntity
8
0
100
AcDbCircle
10
-169.92500000000004
20
69.849999999999994
30
0
40
2
210
0
220
0
230
1
0
CIRCLE
5
151
100
AcDbEntity
8
0
100
AcDbCircle
10
-63.07500000000001
20
50.799999999999997
30
0
40
2
210
0
220
0
230
1
0
CIRCLE
5
152
100
AcDbEntity
8
0
100
AcDbCircle
10
-139.27500000000003
20
50.799999999999997
30
0
40
2
210
0
220
0
230
1
0
CIRCLE
5
153
100
AcDbEntity
8
0
100
AcDbCircle
10
-242.32500000000002
20
48.673999999999999
30
0
40
2
210
0
220
0
230
1
0
ENDSEC
0
SECTION
2
OBJECTS
0
DICTIONARY
5
C
100
AcDbDictionary
3
ACAD_GROUP
350
D
3
ACAD_MLINESTYLE
350
17
0
DICTIONARY
5
D
100
AcDbDictionary
0
DICTIONARY
5
1A
330
C
100
AcDbDictionary
0
DICTIONARY
5
17
100
AcDbDictionary
0
ENDSEC
0
EOF
