0
SECTION
2
HEADER
9
$INSUNITS
70
4
9
$ACADVER
1
AC1014
9
$HANDSEED
5
FFFF
0
ENDSEC
0
SECTION
2
TABLES
0
TABLE
2
VPORT
5
8
100
AcDbSymbolTable
0
ENDTAB
0
TABLE
2
LTYPE
5
5
100
AcDbSymbolTable
0
LTYPE
5
14
100
AcDbSymbolTableRecord
100
AcDbLinetypeTableRecord
2
BYBLOCK
70
0
0
LTYPE
5
15
100
AcDbSymbolTableRecord
100
AcDbLinetypeTableRecord
2
BYLAYER
70
0
0
ENDTAB
0
TABLE
2
LAYER
5
2
100
AcDbSymbolTable
70
2
0
LAYER
5
50
100
AcDbSymbolTableRecord
100
AcDbLayerTableRecord
2
0
70
0
6
CONTINUOUS
0
ENDTAB
0
TABLE
2
STYLE
5
3
100
AcDbSymbolTable
70
1
0
STYLE
5
11
100
AcDbSymbolTableRecord
100
AcDbTextStyleTableRecord
2
STANDARD
70
0
0
ENDTAB
0
TABLE
2
VIEW
5
6
100
AcDbSymbolTable
70
0
0
ENDTAB
0
TABLE
2
UCS
5
7
100
AcDbSymbolTable
70
0
0
ENDTAB
0
TABLE
2
APPID
5
9
100
AcDbSymbolTable
70
2
0
APPID
5
12
100
AcDbSymbolTableRecord
100
AcDbRegAppTableRecord
2
ACAD
70
0
0
ENDTAB
0
TABLE
2
DIMSTYLE
5
A
100
AcDbSymbolTable
70
1
0
ENDTAB
0
TABLE
2
BLOCK_RECORD
5
1
100
AcDbSymbolTable
70
1
0
BLOCK_RECORD
5
1F
100
AcDbSymbolTableRecord
100
AcDbBlockTableRecord
2
*MODEL_SPACE
0
BLOCK_RECORD
5
1B
100
AcDbSymbolTableRecord
100
AcDbBlockTableRecord
2
*PAPER_SPACE
0
ENDTAB
0
ENDSEC
0
SECTION
2
BLOCKS
0
BLOCK
5
20
100
AcDbEntity
100
AcDbBlockBegin
2
*MODEL_SPACE
0
ENDBLK
5
21
100
AcDbEntity
100
AcDbBlockEnd
0
BLOCK
5
1C
100
AcDbEntity
100
AcDbBlockBegin
2
*PAPER_SPACE
0
ENDBLK
5
1D
100
AcDbEntity
100
AcDbBlockEnd
0
ENDSEC
0
SECTION
2
ENTITIES
0
LWPOLYLINE
5
100
100
AcDbEntity
8
0
100
AcDbPolyline
90
32
70
1
43
0.0
10
-220.15760161513805
20
-14.000000000000036
10
-217.84820053837905
20
-9.9999999999999698
42
-0.26794919243111287
10
-216.11614973081004
20
-9.0000000000000568
10
-7.7213502691895997
20
-9
42
-0.2679491924311313
10
-5.9892994616207362
20
-10.000000000000021
10
-3.6798983848623124
20
-14.000000000000007
10
4.3918983848622517
20
-14
10
6.7012994616207466
20
-10.000000000000002
42
-0.26794919243112975
10
8.4333502691896793
20
-9
10
8.5000000000000142
20
-9
42
0.41421356237308593
10
9.0000000000000018
20
-8.4999999999999982
10
8.9999999999999858
20
65.649999999999991
42
0.4142135623733838
10
8.49999999999946
20
66.150000000000034
10
8.4333502691896101
20
66.149999999999991
42
-0.26794919243112048
10
6.7012994616207404
20
67.150000000000034
10
4.3918983848622517
20
71.150000000000034
10
-3.6798983848622058
20
71.150000000000034
10
-5.9892994616207087
20
67.150000000000034
42
-0.26794919243113069
10
-7.7213502691895997
20
66.150000000000034
10
-216.11614973081004
20
66.149999999999977
42
-0.26794919243114285
10
-217.84820053837888
20
67.150000000000048
10
-220.15760161513805
20
71.150000000000006
10
-228.22939838486201
20
71.150000000000006
10
-230.53879946162098
20
67.150000000000006
42
-0.26794919243100146
10
-232.270850269189
20
66.149999999999963
10
-232.33750000000001
20
66.149999999999977
42
0.41421356237298057
10
-232.83750000000001
20
65.649999999999963
10
-232.83750000000001
20
-8.500000000000032
42
0.41421356237312623
10
-232.33750000000001
20
-9.0000000000000178
10
-232.27085026918999
20
-9.0000000000000266
42
-0.26794919243116488
10
-230.53879946162115
20
-10.000000000000099
10
-228.22939838486201
20
-14.000000000000039
0
LWPOLYLINE
5
101
100
AcDbEntity
8
0
100
AcDbPolyline
90
4
70
1
43
0.0
10
-102.25000000000006
20
-6.9999999999999929
10
-102.25000000000006
20
6.9999999999999929
10
-88.250000000000043
20
6.9999999999999929
10
-88.250000000000043
20
-6.9999999999999929
0
LWPOLYLINE
5
102
100
AcDbEntity
8
0
100
AcDbPolyline
90
4
70
1
43
0.0
10
-69.200000000000017
20
6.9999999999999929
10
-69.200000000000017
20
-6.9999999999999929
10
-83.200000000000017
20
-6.9999999999999929
10
-83.200000000000017
20
6.9999999999999929
0
LWPOLYLINE
5
103
100
AcDbEntity
8
0
100
AcDbPolyline
90
4
70
1
43
0.0
10
-178.73750000000004
20
45.100000000000016
10
-178.73750000000004
20
31.099999999999994
10
-192.73750000000004
20
31.099999999999994
10
-192.73750000000004
20
45.100000000000016
0
LWPOLYLINE
5
104
100
AcDbEntity
8
0
100
AcDbPolyline
90
4
70
1
43
0.0
10
-83.487500000000011
20
31.099999999999994
10
-97.487500000000026
20
31.10000000000003
10
-97.48750000000004
20
45.100000000000016
10
-83.48750000000004
20
45.100000000000016
0
LWPOLYLINE
5
105
100
AcDbEntity
8
0
100
AcDbPolyline
90
4
70
1
43
0.0
10
-126.35000000000005
20
-6.9999999999999929
10
-140.35000000000005
20
-6.9999999999999929
10
-140.35000000000005
20
6.9999999999999929
10
-126.35000000000005
20
6.9999999999999929
0
LWPOLYLINE
5
106
100
AcDbEntity
8
0
100
AcDbPolyline
90
4
70
1
43
0.0
10
-212.07500000000007
20
12.050000000000018
10
-226.07500000000005
20
12.050000000000018
10
-226.07500000000005
20
26.05000000000004
10
-212.07500000000007
20
26.05000000000004
0
LWPOLYLINE
5
107
100
AcDbEntity
8
0
100
AcDbPolyline
90
4
70
1
43
0.0
10
-64.150000000000006
20
6.9999999999999929
10
-50.150000000000006
20
6.9999999999999929
10
-50.150000000000006
20
-6.9999999999999929
10
-64.150000000000006
20
-6.9999999999999929
0
LWPOLYLINE
5
108
100
AcDbEntity
8
0
100
AcDbPolyline
90
4
70
1
43
0.0
10
-183.21250000000006
20
26.050000000000004
10
-169.21250000000009
20
26.050000000000004
10
-169.21250000000009
20
12.050000000000018
10
-183.21250000000006
20
12.050000000000018
0
LWPOLYLINE
5
109
100
AcDbEntity
8
0
100
AcDbPolyline
90
4
70
1
43
0.0
10
-59.387500000000024
20
45.100000000000016
10
-45.387500000000038
20
45.100000000000016
10
-45.387500000000038
20
31.099999999999994
10
-59.387500000000024
20
31.099999999999994
0
LWPOLYLINE
5
110
100
AcDbEntity
8
0
100
AcDbPolyline
90
4
70
1
43
0.0
10
-64.437500000000057
20
45.100000000000016
10
-64.437500000000057
20
31.099999999999994
10
-78.437500000000014
20
31.099999999999994
10
-78.437500000000057
20
45.100000000000016
0
LWPOLYLINE
5
111
100
AcDbEntity
8
0
100
AcDbPolyline
90
4
70
1
43
0.0
10
-173.68750000000006
20
31.099999999999994
10
-173.68750000000006
20
45.100000000000051
10
-159.6875
20
45.100000000000016
10
-159.6875
20
31.099999999999994
0
LWPOLYLINE
5
112
100
AcDbEntity
8
0
100
AcDbPolyline
90
4
70
1
43
0.0
10
-26.337500000000009
20
45.100000000000016
10
-26.337500000000009
20
31.099999999999994
10
-40.337500000000013
20
31.099999999999994
10
-40.337500000000013
20
45.100000000000016
0
LWPOLYLINE
5
113
100
AcDbEntity
8
0
100
AcDbPolyline
90
4
70
1
43
0.0
10
6.9999999999999929
20
-6.9999999999999929
10
-7.0000000000000284
20
-6.9999999999999929
10
-7.0000000000000284
20
6.9999999999999929
10
6.9999999999999929
20
6.9999999999999929
0
LWPOLYLINE
5
114
100
AcDbEntity
8
0
100
AcDbPolyline
90
4
70
1
43
0.0
10
-216.83750000000006
20
45.100000000000051
10
-216.83750000000006
20
31.10000000000003
10
-230.83750000000009
20
31.10000000000003
10
-230.83750000000009
20
45.100000000000016
0
LWPOLYLINE
5
115
100
AcDbEntity
8
0
100
AcDbPolyline
90
4
70
1
43
0.0
10
-197.50000000000006
20
6.9999999999999929
10
-183.50000000000006
20
6.9999999999999929
10
-183.50000000000006
20
-6.9999999999999929
10
-197.50000000000006
20
-6.9999999999999929
0
LWPOLYLINE
5
116
100
AcDbEntity
8
0
100
AcDbPolyline
90
4
70
1
43
0.0
10
-26.050000000000022
20
6.9999999999999929
10
-12.050000000000018
20
6.9999999999999929
10
-12.050000000000018
20
-6.9999999999999929
10
-26.05000000000004
20
-6.9999999999999929
0
LWPOLYLINE
5
117
100
AcDbEntity
8
0
100
AcDbPolyline
90
4
70
1
43
0.0
10
-116.53750000000004
20
31.10000000000003
10
-116.53750000000008
20
45.100000000000016
10
-102.53750000000005
20
45.100000000000016
10
-102.53750000000002
20
31.10000000000003
0
LWPOLYLINE
5
118
100
AcDbEntity
8
0
100
AcDbPolyline
90
4
70
1
43
0.0
10
4.6187499999999915
20
26.050000000000004
10
4.6187499999999915
20
12.050000000000018
10
-9.3812499999999943
20
12.050000000000018
10
-9.3812499999999943
20
26.050000000000004
0
LWPOLYLINE
5
119
100
AcDbEntity
8
0
100
AcDbPolyline
90
4
70
1
43
0.0
10
-31.10000000000003
20
-6.9999999999999929
10
-45.100000000000016
20
-6.9999999999999929
10
-45.100000000000016
20
6.9999999999999929
10
-31.10000000000003
20
6.9999999999999929
0
LWPOLYLINE
5
120
100
AcDbEntity
8
0
100
AcDbPolyline
90
4
70
1
43
0.0
10
-14.143749999999997
20
45.100000000000016
10
-0.14375000000001137
20
45.100000000000016
10
-0.14375000000001137
20
31.099999999999994
10
-14.143749999999997
20
31.099999999999994
0
LWPOLYLINE
5
121
100
AcDbEntity
8
0
100
AcDbPolyline
90
4
70
1
43
0.0
10
-126.06250000000009
20
12.050000000000018
10
-126.06250000000009
20
26.05000000000004
10
-112.06250000000009
20
26.05000000000004
10
-112.06250000000009
20
12.050000000000018
0
LWPOLYLINE
5
122
100
AcDbEntity
8
0
100
AcDbPolyline
90
4
70
1
43
0.0
10
-197.78750000000005
20
31.099999999999994
10
-211.78750000000005
20
31.10000000000003
10
-211.78750000000005
20
45.100000000000051
10
-197.78750000000005
20
45.100000000000016
0
LWPOLYLINE
5
123
100
AcDbEntity
8
0
100
AcDbPolyline
90
4
70
1
43
0.0
10
-107.01250000000003
20
12.050000000000018
10
-107.01250000000003
20
26.05000000000004
10
-93.012500000000031
20
26.050000000000004
10
-93.012500000000031
20
12.050000000000018
0
LWPOLYLINE
5
124
100
AcDbEntity
8
0
100
AcDbPolyline
90
8
70
1
43
0.0
10
-58.412500000000023
20
50.150000000000006
10
-58.412500000000023
20
49.150000000000027
10
-65.412500000000037
20
49.150000000000027
10
-65.412500000000037
20
50.150000000000006
10
-71.293750000000031
20
50.150000000000006
10
-71.293750000000031
20
64.150000000000034
10
-57.29375000000001
20
64.150000000000034
10
-57.293750000000031
20
50.150000000000006
0
LWPOLYLINE
5
125
100
AcDbEntity
8
0
100
AcDbPolyline
90
4
70
1
43
0.0
10
-107.30000000000005
20
6.9999999999999929
10
-107.30000000000005
20
-6.9999999999999929
10
-121.30000000000004
20
-6.9999999999999929
10
-121.30000000000004
20
6.9999999999999929
0
LWPOLYLINE
5
126
100
AcDbEntity
8
0
100
AcDbPolyline
90
4
70
1
43
0.0
10
-73.962500000000063
20
26.050000000000004
10
-73.962500000000063
20
12.050000000000018
10
-87.96250000000002
20
12.050000000000018
10
-87.96250000000002
20
26.050000000000004
0
LWPOLYLINE
5
127
100
AcDbEntity
8
0
100
AcDbPolyline
90
4
70
1
43
0.0
10
-49.862500000000018
20
26.05000000000004
10
-35.862500000000033
20
26.050000000000004
10
-35.862500000000011
20
12.049999999999983
10
-49.862500000000018
20
12.050000000000018
0
LWPOLYLINE
5
128
100
AcDbEntity
8
0
100
AcDbPolyline
90
4
70
1
43
0.0
10
-159.40000000000003
20
6.9999999999999929
10
-145.40000000000006
20
6.9999999999999929
10
-145.40000000000006
20
-6.9999999999999929
10
-159.40000000000003
20
-6.9999999999999929
0
LWPOLYLINE
5
129
100
AcDbEntity
8
0
100
AcDbPolyline
90
4
70
1
43
0.0
10
-16.812500000000021
20
26.050000000000004
10
-16.812500000000021
20
12.050000000000018
10
-30.812500000000025
20
12.049999999999983
10
-30.812500000000043
20
26.050000000000004
0
LWPOLYLINE
5
130
100
AcDbEntity
8
0
100
AcDbPolyline
90
8
70
1
43
0.0
10
-147.78125000000006
20
64.150000000000034
10
-147.78125000000006
20
50.150000000000006
10
-153.66250000000005
20
50.150000000000006
10
-153.66250000000005
20
49.149999999999991
10
-160.66250000000002
20
49.149999999999991
10
-160.66250000000002
20
50.150000000000006
10
-161.78125000000006
20
50.150000000000006
10
-161.78125000000006
20
64.150000000000034
0
LWPOLYLINE
5
131
100
AcDbEntity
8
0
100
AcDbPolyline
90
4
70
1
43
0.0
10
-121.58750000000006
20
45.100000000000016
10
-121.58750000000005
20
31.10000000000003
10
-135.58750000000006
20
31.099999999999994
10
-135.58750000000006
20
45.100000000000016
0
LWPOLYLINE
5
132
100
AcDbEntity
8
0
100
AcDbPolyline
90
12
70
1
43
0.0
10
-115.56250000000007
20
49.150000000000027
10
-122.56250000000007
20
49.150000000000027
10
-122.56250000000007
20
50.150000000000006
10
-145.11250000000007
20
50.150000000000006
10
-145.11250000000007
20
64.150000000000034
10
-73.962500000000034
20
64.150000000000034
10
-73.962500000000034
20
50.150000000000006
10
-96.512500000000045
20
50.150000000000006
10
-96.512500000000045
20
49.150000000000027
10
-103.51250000000005
20
49.150000000000027
10
-103.51250000000005
20
50.150000000000006
10
-115.56250000000007
20
50.150000000000006
0
LWPOLYLINE
5
133
100
AcDbEntity
8
0
100
AcDbPolyline
90
4
70
1
43
0.0
10
-164.45000000000005
20
-6.9999999999999929
10
-178.45000000000005
20
-6.9999999999999929
10
-178.45000000000005
20
6.9999999999999929
10
-164.45000000000005
20
6.9999999999999929
0
LWPOLYLINE
5
134
100
AcDbEntity
8
0
100
AcDbPolyline
90
4
70
1
43
0.0
10
-68.912500000000023
20
26.050000000000004
10
-54.912500000000044
20
26.05000000000004
10
-54.912500000000044
20
12.050000000000018
10
-68.912500000000023
20
12.050000000000018
0
LWPOLYLINE
5
135
100
AcDbEntity
8
0
100
AcDbPolyline
90
4
70
1
43
0.0
10
-131.11250000000004
20
12.050000000000018
10
-145.11250000000004
20
12.050000000000018
10
-145.11250000000004
20
26.05000000000004
10
-131.11250000000004
20
26.05000000000004
0
LWPOLYLINE
5
136
100
AcDbEntity
8
0
100
AcDbPolyline
90
4
70
1
43
0.0
10
-202.26250000000005
20
26.05000000000004
10
-188.26250000000005
20
26.050000000000004
10
-188.26250000000005
20
12.050000000000018
10
-202.26250000000005
20
12.050000000000018
0
LWPOLYLINE
5
137
100
AcDbEntity
8
0
100
AcDbPolyline
90
4
70
1
43
0.0
10
-223.69375000000005
20
7.0000000000000284
10
-209.69375000000008
20
7.0000000000000284
10
-209.69375000000008
20
-6.9999999999999929
10
-223.69375000000005
20
-6.9999999999999929
0
LWPOLYLINE
5
138
100
AcDbEntity
8
0
100
AcDbPolyline
90
4
70
1
43
0.0
10
-164.16250000000005
20
12.050000000000018
10
-164.16250000000005
20
26.050000000000004
10
-150.16250000000005
20
26.05000000000004
10
-150.16250000000005
20
12.050000000000018
0
LWPOLYLINE
5
139
100
AcDbEntity
8
0
100
AcDbPolyline
90
12
70
1
43
0.0
10
-227.33750000000009
20
49.150000000000027
10
-227.33750000000009
20
50.150000000000041
10
-230.83750000000009
20
50.150000000000006
10
-230.83750000000009
20
64.150000000000034
10
-178.73750000000004
20
64.150000000000034
10
-178.73750000000004
20
50.150000000000006
10
-182.23750000000007
20
50.150000000000006
10
-182.23750000000007
20
49.149999999999991
10
-189.23750000000007
20
49.149999999999991
10
-189.23750000000007
20
50.150000000000006
10
-220.33750000000009
20
50.150000000000041
10
-220.33750000000009
20
49.150000000000027
0
LWPOLYLINE
5
140
100
AcDbEntity
8
0
100
AcDbPolyline
90
12
70
1
43
0.0
10
-25.106750000000009
20
49.149999999999991
10
-32.106750000000019
20
49.149999999999991
10
-32.106750000000019
20
50.150000000000006
10
-37.956250000000026
20
50.150000000000006
10
-37.956250000000011
20
64.149999999999991
10
2.2374999999999901
20
64.149999999999991
10
2.2374999999999901
20
50.150000000000006
10
-1.2307500000000005
20
50.150000000000006
10
-1.2307500000000005
20
49.149999999999991
10
-8.2307499999999933
20
49.149999999999991
10
-8.2307499999999933
20
50.150000000000006
10
-25.106750000000009
20
50.150000000000006
0
LWPOLYLINE
5
141
100
AcDbEntity
8
0
100
AcDbPolyline
90
4
70
1
43
0.0
10
-154.63750000000005
20
31.099999999999994
10
-154.63750000000005
20
45.100000000000016
10
-140.63750000000007
20
45.100000000000016
10
-140.63750000000002
20
31.099999999999994
0
ENDSEC
0
SECTION
2
OBJECTS
0
DICTIONARY
5
C
100
AcDbDictionary
3
ACAD_GROUP
350
D
3
ACAD_MLINESTYLE
350
17
0
DICTIONARY
5
D
100
AcDbDictionary
0
DICTIONARY
5
1A
330
C
100
AcDbDictionary
0
DICTIONARY
5
17
100
AcDbDictionary
0
ENDSEC
0
EOF
