0
SECTION
2
HEADER
9
$INSUNITS
70
4
9
$ACADVER
1
AC1014
9
$HANDSEED
5
FFFF
0
ENDSEC
0
SECTION
2
TABLES
0
TABLE
2
VPORT
5
8
100
AcDbSymbolTable
0
ENDTAB
0
TABLE
2
LTYPE
5
5
100
AcDbSymbolTable
0
LTYPE
5
14
100
AcDbSymbolTableRecord
100
AcDbLinetypeTableRecord
2
BYBLOCK
70
0
0
LTYPE
5
15
100
AcDbSymbolTableRecord
100
AcDbLinetypeTableRecord
2
BYLAYER
70
0
0
ENDTAB
0
TABLE
2
LAYER
5
2
100
AcDbSymbolTable
70
2
0
LAYER
5
50
100
AcDbSymbolTableRecord
100
AcDbLayerTableRecord
2
0
70
0
6
CONTINUOUS
0
ENDTAB
0
TABLE
2
STYLE
5
3
100
AcDbSymbolTable
70
1
0
STYLE
5
11
100
AcDbSymbolTableRecord
100
AcDbTextStyleTableRecord
2
STANDARD
70
0
0
ENDTAB
0
TABLE
2
VIEW
5
6
100
AcDbSymbolTable
70
0
0
ENDTAB
0
TABLE
2
UCS
5
7
100
AcDbSymbolTable
70
0
0
ENDTAB
0
TABLE
2
APPID
5
9
100
AcDbSymbolTable
70
2
0
APPID
5
12
100
AcDbSymbolTableRecord
100
AcDbRegAppTableRecord
2
ACAD
70
0
0
ENDTAB
0
TABLE
2
DIMSTYLE
5
A
100
AcDbSymbolTable
70
1
0
ENDTAB
0
TABLE
2
BLOCK_RECORD
5
1
100
AcDbSymbolTable
70
1
0
BLOCK_RECORD
5
1F
100
AcDbSymbolTableRecord
100
AcDbBlockTableRecord
2
*MODEL_SPACE
0
BLOCK_RECORD
5
1B
100
AcDbSymbolTableRecord
100
AcDbBlockTableRecord
2
*PAPER_SPACE
0
ENDTAB
0
ENDSEC
0
SECTION
2
BLOCKS
0
BLOCK
5
20
100
AcDbEntity
100
AcDbBlockBegin
2
*MODEL_SPACE
0
ENDBLK
5
21
100
AcDbEntity
100
AcDbBlockEnd
0
BLOCK
5
1C
100
AcDbEntity
100
AcDbBlockBegin
2
*PAPER_SPACE
0
ENDBLK
5
1D
100
AcDbEntity
100
AcDbBlockEnd
0
ENDSEC
0
SECTION
2
ENTITIES
0
LWPOLYLINE
5
100
100
AcDbEntity
8
0
100
AcDbPolyline
90
4
70
1
43
0.0
10
-50.150000000000006
20
-7.0000000000000107
10
-64.150000000000006
20
-7.0000000000000107
10
-64.150000000000006
20
6.9999999999999929
10
-50.150000000000006
20
6.9999999999999929
0
LWPOLYLINE
5
101
100
AcDbEntity
8
0
100
AcDbPolyline
90
4
70
1
43
0.0
10
-126.35000000000002
20
-7.0000000000000107
10
-140.34999999999999
20
-7.0000000000000107
10
-140.34999999999999
20
6.9999999999999929
10
-126.35000000000002
20
6.9999999999999929
0
LWPOLYLINE
5
102
100
AcDbEntity
8
0
100
AcDbPolyline
90
4
70
1
43
0.0
10
-31.100000000000001
20
6.9999999999999929
10
-31.100000000000001
20
-7.0000000000000107
10
-45.100000000000009
20
-7.0000000000000107
10
-45.100000000000009
20
6.9999999999999929
0
LWPOLYLINE
5
103
100
AcDbEntity
8
0
100
AcDbPolyline
90
4
70
1
43
0.0
10
-83.200000000000003
20
-7.0000000000000107
10
-83.200000000000003
20
6.9999999999999929
10
-69.200000000000003
20
6.9999999999999929
10
-69.200000000000003
20
-7.0000000000000107
0
LWPOLYLINE
5
104
100
AcDbEntity
8
0
100
AcDbPolyline
90
4
70
1
43
0.0
10
4.6187500000000004
20
50.149999999999999
10
-9.3812500000000014
20
50.149999999999999
10
-9.3812500000000014
20
64.149999999999991
10
4.6187500000000004
20
64.149999999999991
0
LWPOLYLINE
5
105
100
AcDbEntity
8
0
100
AcDbPolyline
90
8
70
1
43
0.0
10
-109.68125000000001
20
64.149999999999991
10
-109.68125000000001
20
50.149999999999999
10
-115.53075
20
50.149999999999999
10
-115.53075
20
49.149999999999991
10
-122.53074999999998
20
49.149999999999991
10
-122.53074999999998
20
50.149999999999999
10
-137.96875
20
50.149999999999999
10
-137.96875
20
64.149999999999991
0
LWPOLYLINE
5
106
100
AcDbEntity
8
0
100
AcDbPolyline
90
4
70
1
43
0.0
10
-30.812500000000007
20
12.050000000000001
10
-30.812500000000007
20
26.050000000000004
10
-16.8125
20
26.050000000000004
10
-16.8125
20
12.050000000000001
0
LWPOLYLINE
5
107
100
AcDbEntity
8
0
100
AcDbPolyline
90
4
70
1
43
0.0
10
-178.73749999999998
20
31.099999999999994
10
-192.73750000000001
20
31.099999999999994
10
-192.73750000000001
20
45.099999999999994
10
-178.73749999999998
20
45.099999999999994
0
LWPOLYLINE
5
108
100
AcDbEntity
8
0
100
AcDbPolyline
90
4
70
1
43
0.0
10
-183.5
20
-7.0000000000000107
10
-197.5
20
-7.0000000000000107
10
-197.5
20
6.9999999999999929
10
-183.5
20
6.9999999999999929
0
LWPOLYLINE
5
109
100
AcDbEntity
8
0
100
AcDbPolyline
90
4
70
1
43
0.0
10
-145.11250000000001
20
26.050000000000004
10
-131.11249999999998
20
26.050000000000004
10
-131.11249999999998
20
12.050000000000001
10
-145.11250000000001
20
12.050000000000001
0
LWPOLYLINE
5
110
100
AcDbEntity
8
0
100
AcDbPolyline
90
4
70
1
43
0.0
10
-197.78750000000002
20
50.149999999999999
10
-211.78750000000002
20
50.149999999999999
10
-211.78750000000002
20
64.149999999999991
10
-197.78750000000002
20
64.149999999999991
0
LWPOLYLINE
5
111
100
AcDbEntity
8
0
100
AcDbPolyline
90
4
70
1
43
0.0
10
-164.16250000000002
20
26.050000000000004
10
-150.16249999999999
20
26.050000000000004
10
-150.16249999999999
20
12.050000000000001
10
-164.16250000000002
20
12.050000000000001
0
LWPOLYLINE
5
112
100
AcDbEntity
8
0
100
AcDbPolyline
90
4
70
1
43
0.0
10
-90.34375
20
64.149999999999991
10
-76.343750000000014
20
64.149999999999991
10
-76.343750000000014
20
50.149999999999999
10
-90.34375
20
50.149999999999999
0
LWPOLYLINE
5
113
100
AcDbEntity
8
0
100
AcDbPolyline
90
4
70
1
43
0.0
10
-139.40674999999999
20
49.149999999999991
10
-146.40675000000002
20
49.149999999999991
10
-146.40675000000002
20
64.149999999999991
10
-139.40674999999999
20
64.149999999999991
0
LWPOLYLINE
5
114
100
AcDbEntity
8
0
100
AcDbPolyline
90
4
70
1
43
0.0
10
-12.050000000000002
20
6.9999999999999929
10
-12.050000000000002
20
-7.0000000000000107
10
-26.050000000000004
20
-7.0000000000000107
10
-26.050000000000004
20
6.9999999999999929
0
LWPOLYLINE
5
115
100
AcDbEntity
8
0
100
AcDbPolyline
90
4
70
1
43
0.0
10
-216.83750000000003
20
31.099999999999994
10
-230.83750000000003
20
31.099999999999994
10
-230.83750000000003
20
45.099999999999994
10
-216.83750000000003
20
45.099999999999994
0
LWPOLYLINE
5
116
100
AcDbEntity
8
0
100
AcDbPolyline
90
4
70
1
43
0.0
10
-107.01250000000002
20
26.050000000000004
10
-93.012499999999989
20
26.050000000000004
10
-93.012499999999989
20
12.050000000000001
10
-107.01250000000002
20
12.050000000000001
0
LWPOLYLINE
5
117
100
AcDbEntity
8
0
100
AcDbPolyline
90
4
70
1
43
0.0
10
-183.21250000000003
20
26.050000000000004
10
-169.21250000000001
20
26.050000000000004
10
-169.21250000000001
20
12.050000000000001
10
-183.21250000000003
20
12.050000000000001
0
LWPOLYLINE
5
118
100
AcDbEntity
8
0
100
AcDbPolyline
90
4
70
1
43
0.0
10
-140.63749999999999
20
45.099999999999994
10
-140.63749999999999
20
31.099999999999994
10
-154.63750000000002
20
31.099999999999994
10
-154.63750000000002
20
45.099999999999994
0
LWPOLYLINE
5
119
100
AcDbEntity
8
0
100
AcDbPolyline
90
4
70
1
43
0.0
10
-145.40000000000003
20
6.9999999999999929
10
-145.40000000000003
20
-7.0000000000000107
10
-159.40000000000001
20
-7.0000000000000107
10
-159.40000000000001
20
6.9999999999999929
0
LWPOLYLINE
5
120
100
AcDbEntity
8
0
100
AcDbPolyline
90
4
70
1
43
0.0
10
-135.58750000000003
20
31.099999999999994
10
-135.58750000000003
20
45.099999999999994
10
-121.58750000000001
20
45.099999999999994
10
-121.58750000000001
20
31.099999999999994
0
LWPOLYLINE
5
121
100
AcDbEntity
8
0
100
AcDbPolyline
90
4
70
1
43
0.0
10
-107.30000000000001
20
-7.0000000000000107
10
-121.29999999999998
20
-7.0000000000000107
10
-121.29999999999998
20
6.9999999999999929
10
-107.30000000000001
20
6.9999999999999929
0
LWPOLYLINE
5
122
100
AcDbEntity
8
0
100
AcDbPolyline
90
4
70
1
43
0.0
10
-226.07500000000002
20
26.050000000000004
10
-212.07499999999999
20
26.050000000000004
10
-212.07499999999999
20
12.050000000000001
10
-226.07500000000002
20
12.050000000000001
0
LWPOLYLINE
5
123
100
AcDbEntity
8
0
100
AcDbPolyline
90
4
70
1
43
0.0
10
-16.8125
20
64.149999999999991
10
-16.8125
20
50.149999999999999
10
-30.812500000000007
20
50.149999999999999
10
-30.812500000000007
20
64.149999999999991
0
LWPOLYLINE
5
124
100
AcDbEntity
8
0
100
AcDbPolyline
90
4
70
1
43
0.0
10
-102.53749999999999
20
31.099999999999994
10
-116.53750000000002
20
31.099999999999994
10
-116.53750000000002
20
45.099999999999994
10
-102.53749999999999
20
45.099999999999994
0
LWPOLYLINE
5
125
100
AcDbEntity
8
0
100
AcDbPolyline
90
4
70
1
43
0.0
10
-40.337500000000006
20
31.099999999999994
10
-40.337500000000006
20
45.099999999999994
10
-26.337499999999999
20
45.099999999999994
10
-26.337499999999999
20
31.099999999999994
0
LWPOLYLINE
5
126
100
AcDbEntity
8
0
100
AcDbPolyline
90
4
70
1
43
0.0
10
-45.38750000000001
20
31.099999999999994
10
-59.387499999999996
20
31.099999999999994
10
-59.387499999999996
20
45.099999999999994
10
-45.38750000000001
20
45.099999999999994
0
LWPOLYLINE
5
127
100
AcDbEntity
8
0
100
AcDbPolyline
90
4
70
1
43
0.0
10
-173.68750000000003
20
31.099999999999994
10
-173.68750000000003
20
45.099999999999994
10
-159.6875
20
45.099999999999994
10
-159.6875
20
31.099999999999994
0
LWPOLYLINE
5
128
100
AcDbEntity
8
0
100
AcDbPolyline
90
4
70
1
43
0.0
10
-83.487500000000026
20
45.099999999999994
10
-83.487500000000026
20
31.099999999999994
10
-97.487500000000011
20
31.099999999999994
10
-97.487500000000011
20
45.099999999999994
0
LWPOLYLINE
5
129
100
AcDbEntity
8
0
100
AcDbPolyline
90
4
70
1
43
0.0
10
-52.243750000000006
20
50.149999999999999
10
-52.243750000000006
20
64.149999999999991
10
-38.243749999999999
20
64.149999999999991
10
-38.243749999999999
20
50.149999999999999
0
LWPOLYLINE
5
130
100
AcDbEntity
8
0
100
AcDbPolyline
90
4
70
1
43
0.0
10
-211.78750000000002
20
45.099999999999994
10
-197.78750000000002
20
45.099999999999994
10
-197.78750000000002
20
31.099999999999994
10
-211.78750000000002
20
31.099999999999994
0
LWPOLYLINE
5
131
100
AcDbEntity
8
0
100
AcDbPolyline
90
4
70
1
43
0.0
10
-54.912500000000009
20
12.050000000000001
10
-68.912500000000009
20
12.050000000000001
10
-68.912500000000009
20
26.050000000000004
10
-54.912500000000009
20
26.050000000000004
0
LWPOLYLINE
5
132
100
AcDbEntity
8
0
100
AcDbPolyline
90
4
70
1
43
0.0
10
-223.69375000000002
20
6.9999999999999929
10
-209.69374999999999
20
6.9999999999999929
10
-209.69374999999999
20
-7.0000000000000107
10
-223.69375000000002
20
-7.0000000000000107
0
LWPOLYLINE
5
133
100
AcDbEntity
8
0
100
AcDbPolyline
90
4
70
1
43
0.0
10
-216.83750000000003
20
64.149999999999991
10
-216.83750000000003
20
50.149999999999999
10
-230.83750000000003
20
50.149999999999999
10
-230.83750000000003
20
64.149999999999991
0
LWPOLYLINE
5
134
100
AcDbEntity
8
0
100
AcDbPolyline
90
8
70
1
43
0.0
10
-157.30625000000001
20
50.149999999999999
10
-163.18125000000003
20
50.149999999999999
10
-163.18125000000003
20
49.149999999999991
10
-170.18125000000001
20
49.149999999999991
10
-170.18125000000001
20
50.149999999999999
10
-171.30625000000003
20
50.149999999999999
10
-171.30625000000003
20
64.149999999999991
10
-157.30625000000001
20
64.149999999999991
0
LWPOLYLINE
5
135
100
AcDbEntity
8
0
100
AcDbPolyline
90
4
70
1
43
0.0
10
-112.0625
20
26.050000000000004
10
-112.0625
20
12.050000000000001
10
-126.06250000000003
20
12.050000000000001
10
-126.06250000000003
20
26.050000000000004
0
LWPOLYLINE
5
136
100
AcDbEntity
8
0
100
AcDbPolyline
90
4
70
1
43
0.0
10
-7
20
6.9999999999999929
10
7.0000000000000018
20
6.9999999999999929
10
7.0000000000000018
20
-7.0000000000000107
10
-7
20
-7.0000000000000107
0
LWPOLYLINE
5
137
100
AcDbEntity
8
0
100
AcDbPolyline
90
4
70
1
43
0.0
10
-202.26249999999999
20
12.050000000000001
10
-202.26249999999999
20
26.050000000000004
10
-188.26250000000002
20
26.050000000000004
10
-188.26250000000002
20
12.050000000000001
0
LWPOLYLINE
5
138
100
AcDbEntity
8
0
100
AcDbPolyline
90
4
70
1
43
0.0
10
-192.73750000000001
20
64.149999999999991
10
-178.73749999999998
20
64.149999999999991
10
-178.73749999999998
20
50.149999999999999
10
-192.73750000000001
20
50.149999999999999
0
LWPOLYLINE
5
139
100
AcDbEntity
8
0
100
AcDbPolyline
90
4
70
1
43
0.0
10
-49.862500000000011
20
26.050000000000004
10
-35.862500000000004
20
26.050000000000004
10
-35.862500000000004
20
12.050000000000001
10
-49.862500000000011
20
12.050000000000001
0
LWPOLYLINE
5
140
100
AcDbEntity
8
0
100
AcDbPolyline
90
4
70
1
43
0.0
10
-63.181250000000006
20
64.149999999999991
10
-63.181250000000006
20
49.149999999999991
10
-74.905750000000012
20
49.149999999999991
10
-74.905750000000012
20
64.149999999999991
0
LWPOLYLINE
5
141
100
AcDbEntity
8
0
100
AcDbPolyline
90
4
70
1
43
0.0
10
-73.962500000000006
20
26.050000000000004
10
-73.962500000000006
20
12.050000000000001
10
-87.962500000000006
20
12.050000000000001
10
-87.962500000000006
20
26.050000000000004
0
LWPOLYLINE
5
142
100
AcDbEntity
8
0
100
AcDbPolyline
90
4
70
1
43
0.0
10
-102.25000000000001
20
-7.0000000000000107
10
-102.25000000000001
20
6.9999999999999929
10
-88.250000000000028
20
6.9999999999999929
10
-88.250000000000028
20
-7.0000000000000107
0
LWPOLYLINE
5
143
100
AcDbEntity
8
0
100
AcDbPolyline
90
4
70
1
43
0.0
10
-78.437500000000014
20
45.099999999999994
10
-64.437500000000014
20
45.099999999999994
10
-64.437500000000014
20
31.099999999999994
10
-78.437500000000014
20
31.099999999999994
0
LWPOLYLINE
5
144
100
AcDbEntity
8
0
100
AcDbPolyline
90
4
70
1
43
0.0
10
-98.781749999999988
20
64.149999999999991
10
-91.781749999999988
20
64.149999999999991
10
-91.781749999999988
20
49.149999999999991
10
-98.781749999999988
20
49.149999999999991
0
LWPOLYLINE
5
145
100
AcDbEntity
8
0
100
AcDbPolyline
90
4
70
1
43
0.0
10
-0.14375000000000249
20
45.099999999999994
10
-0.14375000000000249
20
31.099999999999994
10
-14.143749999999999
20
31.099999999999994
10
-14.143749999999999
20
45.099999999999994
0
LWPOLYLINE
5
146
100
AcDbEntity
8
0
100
AcDbPolyline
90
4
70
1
43
0.0
10
4.6187500000000004
20
12.050000000000001
10
-9.3812500000000014
20
12.050000000000001
10
-9.3812500000000014
20
26.050000000000004
10
4.6187500000000004
20
26.050000000000004
0
LWPOLYLINE
5
147
100
AcDbEntity
8
0
100
AcDbPolyline
90
4
70
1
43
0.0
10
-178.44999999999999
20
-7.0000000000000107
10
-178.44999999999999
20
6.9999999999999929
10
-164.44999999999999
20
6.9999999999999929
10
-164.44999999999999
20
-7.0000000000000107
0
LWPOLYLINE
5
148
100
AcDbEntity
8
0
100
AcDbPolyline
90
4
70
1
43
0.0
10
-73.674999999999983
20
-26.050000000000001
10
-73.674999999999983
20
-12.049999999999979
10
-59.675000000000018
20
-12.049999999999986
10
-59.675000000000018
20
-26.050000000000001
0
LWPOLYLINE
5
149
100
AcDbEntity
8
0
100
AcDbPolyline
90
4
70
1
43
0.0
10
-16.525000000000002
20
-12.049999999999997
10
-2.524999999999995
20
-12.049999999999997
10
-2.5249999999999995
20
-26.050000000000008
10
-16.525000000000006
20
-26.050000000000001
0
LWPOLYLINE
5
150
100
AcDbEntity
8
0
100
AcDbPolyline
90
4
70
1
43
0.0
10
-78.725000000000037
20
-26.050000000000001
10
-92.725000000000051
20
-26.050000000000001
10
-92.725000000000051
20
-12.049999999999979
10
-78.725000000000037
20
-12.049999999999979
0
LWPOLYLINE
5
151
100
AcDbEntity
8
0
100
AcDbPolyline
90
4
70
1
43
0.0
10
-40.625000000000014
20
-26.050000000000001
10
-54.625000000000021
20
-26.050000000000001
10
-54.625000000000021
20
-12.049999999999986
10
-40.625000000000014
20
-12.049999999999986
0
LWPOLYLINE
5
152
100
AcDbEntity
8
0
100
AcDbPolyline
90
4
70
1
43
0.0
10
-21.575000000000003
20
-12.049999999999997
10
-21.575000000000003
20
-26.050000000000001
10
-35.575000000000003
20
-26.050000000000001
10
-35.575000000000003
20
-12.049999999999986
0
LWPOLYLINE
5
153
100
AcDbEntity
8
0
100
AcDbPolyline
90
4
70
1
43
0.0
10
-111.77500000000002
20
-26.04999999999999
10
-111.77500000000002
20
-12.049999999999997
10
-97.775000000000034
20
-12.049999999999997
10
-97.775000000000034
20
-26.050000000000001
0
CIRCLE
5
154
100
AcDbEntity
8
0
100
AcDbCircle
10
-7.6967499999999767
20
-31.575000000000024
30
0
40
1.25
210
0
220
-0
230
1
0
CIRCLE
5
155
100
AcDbEntity
8
0
100
AcDbCircle
10
-216.14075
20
-31.575000000000042
30
0
40
1.25
210
0
220
-0
230
1
0
CIRCLE
5
156
100
AcDbEntity
8
0
100
AcDbCircle
10
-7.6967499999999767
20
69.67500000000004
30
0
40
1.25
210
0
220
-0
230
1
0
CIRCLE
5
157
100
AcDbEntity
8
0
100
AcDbCircle
10
-216.14075
20
69.675000000000011
30
0
40
1.25
210
0
220
-0
230
1
0
LWPOLYLINE
5
158
100
AcDbEntity
8
0
100
AcDbPolyline
90
80
70
1
43
0.0
10
-12.19674999999997
20
68.674999999999997
42
0.4142135623730846
10
-11.196749999999973
20
67.674999999999997
10
-3.196749999999966
20
67.67500000000004
10
-3.196749999999966
20
68.674999999999997
42
0.41421356237309159
10
-6.1967499999999731
20
71.675000000000011
10
-15.196749999999959
20
71.675000000000026
42
0.41421356237310542
10
-16.196749999999991
20
70.674999999999983
10
-16.196749999999955
20
69.67500000000004
10
-51.696749999999973
20
69.67500000000004
42
0.41421356237310281
10
-52.696749999999987
20
68.674999999999997
10
-52.696749999999959
20
66.67500000000004
10
-171.14075
20
66.675000000000026
10
-171.14075
20
68.674999999999983
42
0.41421356237309503
10
-172.14075000000003
20
69.674999999999983
10
-207.64074999999997
20
69.674999999999955
10
-207.64074999999997
20
70.674999999999955
42
0.41421356237308982
10
-208.64075
20
71.674999999999969
10
-217.64074999999997
20
71.675000000000011
42
0.41421356237309503
10
-220.64075000000003
20
68.674999999999955
10
-220.64075000000003
20
67.674999999999997
10
-212.64074999999997
20
67.674999999999983
42
0.41421356237309503
10
-211.64074999999997
20
68.674999999999997
42
-0.41421356237309764
10
-210.64074999999997
20
69.675000000000011
10
-209.64075000000003
20
69.675000000000011
10
-209.64075000000003
20
68.674999999999955
42
0.41421356237307944
10
-208.64075
20
67.674999999999997
10
-174.14074999999997
20
67.675000000000011
10
-174.14074999999997
20
66.675000000000026
10
-230.36249999999995
20
66.675000000000011
42
0.41421356237309159
10
-233.36250000000001
20
63.674999999999997
10
-233.36250000000001
20
-11.575000000000042
42
0.41421356237309076
10
-230.36249999999995
20
-14.575000000000049
10
-216.36249999999995
20
-14.575000000000012
42
-0.41421356237307455
10
-214.36250000000001
20
-16.575000000000042
10
-214.36250000000001
20
-25.575000000000045
42
0.41421356237307771
10
-211.36249999999995
20
-28.575000000000053
10
-174.14074999999997
20
-28.575000000000017
10
-174.14074999999997
20
-29.575000000000031
10
-208.64075
20
-29.575000000000031
42
0.41421356237306384
10
-209.64075000000003
20
-30.575000000000045
10
-209.64075000000003
20
-31.575000000000042
10
-210.64075000000003
20
-31.575000000000056
42
-0.41421356237307294
10
-211.64074999999997
20
-30.575000000000045
42
0.41421356237309503
10
-212.64074999999997
20
-29.575000000000067
10
-220.64075000000003
20
-29.575000000000049
10
-220.64075000000003
20
-31.57500000000006
42
0.41421356237310802
10
-218.64075
20
-33.575000000000031
10
-208.64075
20
-33.575000000000017
42
0.41421356237309503
10
-207.64074999999997
20
-32.575000000000038
10
-207.64074999999997
20
-31.575000000000024
10
-172.14075000000003
20
-31.574999999999989
42
0.41421356237307944
10
-171.14075
20
-30.575000000000028
10
-171.14075
20
-28.575000000000017
10
-52.69674999999998
20
-28.575000000000017
10
-52.69674999999998
20
-30.57500000000001
42
0.41421356237309503
10
-51.696749999999973
20
-31.575000000000024
10
-16.196749999999991
20
-31.575000000000006
10
-16.196749999999973
20
-32.575000000000017
42
0.41421356237309503
10
-15.196749999999977
20
-33.575000000000017
10
-6.1967499999999909
20
-33.575000000000017
42
0.41421356237309681
10
-3.196749999999966
20
-30.57500000000001
10
-3.1967499999999838
20
-29.575000000000014
10
-11.196749999999991
20
-29.574999999999996
42
0.41421356237309503
10
-12.196749999999987
20
-30.57500000000001
42
-0.41421356237309764
10
-13.196749999999984
20
-31.575000000000024
10
-14.196749999999998
20
-31.575000000000024
10
-14.196749999999998
20
-30.57500000000001
42
0.41421356237308982
10
-15.196749999999994
20
-29.575000000000031
10
-49.696749999999966
20
-29.575000000000031
10
-49.696749999999966
20
-28.575000000000017
10
6.5250000000000163
20
-28.574999999999999
42
0.41421356237309337
10
9.5250000000000057
20
-25.574999999999992
10
9.5250000000000057
20
63.675000000000033
42
0.41421356237309853
10
6.5249999999999631
20
66.67500000000004
10
-49.696749999999966
20
66.67500000000004
10
-49.696749999999966
20
67.67500000000004
10
-15.196749999999959
20
67.67500000000004
42
0.41421356237308982
10
-14.196749999999945
20
68.67500000000004
10
-14.196749999999962
20
69.67500000000004
10
-13.196749999999966
20
69.67500000000004
42
-0.41421356237311191
0
ENDSEC
0
SECTION
2
OBJECTS
0
DICTIONARY
5
C
100
AcDbDictionary
3
ACAD_GROUP
350
D
3
ACAD_MLINESTYLE
350
17
0
DICTIONARY
5
D
100
AcDbDictionary
0
DICTIONARY
5
1A
330
C
100
AcDbDictionary
0
DICTIONARY
5
17
100
AcDbDictionary
0
ENDSEC
0
EOF
