0
SECTION
2
HEADER
9
$INSUNITS
70
4
9
$ACADVER
1
AC1014
9
$HANDSEED
5
FFFF
0
ENDSEC
0
SECTION
2
TABLES
0
TABLE
2
VPORT
5
8
100
AcDbSymbolTable
0
ENDTAB
0
TABLE
2
LTYPE
5
5
100
AcDbSymbolTable
0
LTYPE
5
14
100
AcDbSymbolTableRecord
100
AcDbLinetypeTableRecord
2
BYBLOCK
70
0
0
LTYPE
5
15
100
AcDbSymbolTableRecord
100
AcDbLinetypeTableRecord
2
BYLAYER
70
0
0
ENDTAB
0
TABLE
2
LAYER
5
2
100
AcDbSymbolTable
70
2
0
LAYER
5
50
100
AcDbSymbolTableRecord
100
AcDbLayerTableRecord
2
0
70
0
6
CONTINUOUS
0
ENDTAB
0
TABLE
2
STYLE
5
3
100
AcDbSymbolTable
70
1
0
STYLE
5
11
100
AcDbSymbolTableRecord
100
AcDbTextStyleTableRecord
2
STANDARD
70
0
0
ENDTAB
0
TABLE
2
VIEW
5
6
100
AcDbSymbolTable
70
0
0
ENDTAB
0
TABLE
2
UCS
5
7
100
AcDbSymbolTable
70
0
0
ENDTAB
0
TABLE
2
APPID
5
9
100
AcDbSymbolTable
70
2
0
APPID
5
12
100
AcDbSymbolTableRecord
100
AcDbRegAppTableRecord
2
ACAD
70
0
0
ENDTAB
0
TABLE
2
DIMSTYLE
5
A
100
AcDbSymbolTable
70
1
0
ENDTAB
0
TABLE
2
BLOCK_RECORD
5
1
100
AcDbSymbolTable
70
1
0
BLOCK_RECORD
5
1F
100
AcDbSymbolTableRecord
100
AcDbBlockTableRecord
2
*MODEL_SPACE
0
BLOCK_RECORD
5
1B
100
AcDbSymbolTableRecord
100
AcDbBlockTableRecord
2
*PAPER_SPACE
0
ENDTAB
0
ENDSEC
0
SECTION
2
BLOCKS
0
BLOCK
5
20
100
AcDbEntity
100
AcDbBlockBegin
2
*MODEL_SPACE
0
ENDBLK
5
21
100
AcDbEntity
100
AcDbBlockEnd
0
BLOCK
5
1C
100
AcDbEntity
100
AcDbBlockBegin
2
*PAPER_SPACE
0
ENDBLK
5
1D
100
AcDbEntity
100
AcDbBlockEnd
0
ENDSEC
0
SECTION
2
ENTITIES
0
LWPOLYLINE
5
100
100
AcDbEntity
8
0
100
AcDbPolyline
90
40
70
1
43
0.0
10
-220.15760161513805
20
71.150000000000006
10
-222.6138812012579
20
71.149999999999991
42
-9.9498743710683968
10
-223.11137491981111
20
71.149999999999991
10
-228.22939838486201
20
71.150000000000006
10
-230.53879946162098
20
67.150000000000006
42
-0.26794919243100146
10
-232.270850269189
20
66.149999999999963
10
-232.33750000000001
20
66.149999999999977
42
0.41421356237295454
10
-232.83749999999998
20
65.649999999999963
10
-232.83750000000001
20
-8.500000000000032
42
0.4142135623731269
10
-232.33750000000001
20
-9.0000000000000231
10
-232.27085026918999
20
-9.0000000000000231
42
-0.26794919243115595
10
-230.53879946162115
20
-10.000000000000099
10
-228.22939838486201
20
-14.000000000000039
10
-223.11111879874204
20
-14.000000000000039
42
-9.9498743710669757
10
-222.61362508018877
20
-14.000000000000039
10
-220.15760161513805
20
-14.000000000000036
10
-217.84820053837905
20
-9.9999999999999716
42
-0.26794919243111359
10
-216.11614973081004
20
-9.0000000000000586
10
-7.7213502691895997
20
-9
42
-0.26794919243113025
10
-5.9892994616207353
20
-10.000000000000025
10
-3.6798983848623124
20
-14.000000000000007
10
-1.2236187987422307
20
-14.000000000000004
42
-9.9498743710601811
10
-0.72612508018862643
20
-14.000000000000004
10
4.3918983848622526
20
-14
10
6.7012994616207466
20
-10.000000000000002
42
-0.26794919243112997
10
8.4333502691896811
20
-9
10
8.5000000000000142
20
-9
42
0.41421356237308721
10
9.0000000000000018
20
-8.4999999999999964
10
8.9999999999999858
20
65.649999999999991
42
0.41421356237340068
10
8.4999999999994458
20
66.150000000000034
10
8.4333502691896101
20
66.149999999999991
42
-0.26794919243112308
10
6.7012994616207413
20
67.150000000000034
10
4.3918983848622517
20
71.150000000000034
10
-0.72638120125811445
20
71.150000000000034
42
-9.9498743710743476
10
-1.2238749198110246
20
71.150000000000034
10
-3.6798983848622058
20
71.150000000000034
10
-5.9892994616207069
20
67.150000000000048
42
-0.26794919243112941
10
-7.7213502691895997
20
66.150000000000034
10
-216.11614973081004
20
66.149999999999977
42
-0.26794919243113252
10
-217.8482005383789
20
67.150000000000048
0
LWPOLYLINE
5
101
100
AcDbEntity
8
0
100
AcDbPolyline
90
4
70
1
43
0.0
10
-64.437500000000014
20
31.100000000000001
10
-78.437500000000014
20
31.100000000000001
10
-78.437500000000014
20
45.100000000000009
10
-64.437500000000014
20
45.100000000000009
0
LWPOLYLINE
5
102
100
AcDbEntity
8
0
100
AcDbPolyline
90
4
70
1
43
0.0
10
-112.0625
20
12.050000000000002
10
-126.06250000000001
20
12.050000000000002
10
-126.06250000000001
20
26.050000000000004
10
-112.0625
20
26.050000000000004
0
LWPOLYLINE
5
103
100
AcDbEntity
8
0
100
AcDbPolyline
90
4
70
1
43
0.0
10
-69.200000000000003
20
-7
10
-83.199999999999989
20
-7
10
-83.199999999999989
20
7
10
-69.200000000000003
20
7
0
LWPOLYLINE
5
104
100
AcDbEntity
8
0
100
AcDbPolyline
90
4
70
1
43
0.0
10
-94.01925
20
64.150000000000006
10
-87.019250000000014
20
64.150000000000006
10
-87.019250000000014
20
49.149999999999999
10
-94.01925
20
49.149999999999999
0
LWPOLYLINE
5
105
100
AcDbEntity
8
0
100
AcDbPolyline
90
4
70
1
43
0.0
10
-197.78750000000002
20
64.150000000000006
10
-197.78750000000002
20
50.150000000000006
10
-211.78750000000002
20
50.150000000000006
10
-211.78750000000002
20
64.150000000000006
0
LWPOLYLINE
5
106
100
AcDbEntity
8
0
100
AcDbPolyline
90
4
70
1
43
0.0
10
-35.862500000000004
20
12.050000000000002
10
-49.862500000000011
20
12.050000000000002
10
-49.862500000000011
20
26.050000000000004
10
-35.862500000000004
20
26.050000000000004
0
LWPOLYLINE
5
107
100
AcDbEntity
8
0
100
AcDbPolyline
90
4
70
1
43
0.0
10
-223.69375000000002
20
-7
10
-223.69375000000002
20
7
10
-209.69374999999999
20
7
10
-209.69374999999999
20
-7
0
LWPOLYLINE
5
108
100
AcDbEntity
8
0
100
AcDbPolyline
90
4
70
1
43
0.0
10
-164.44999999999999
20
-7
10
-178.44999999999999
20
-7
10
-178.44999999999999
20
7
10
-164.44999999999999
20
7
0
LWPOLYLINE
5
109
100
AcDbEntity
8
0
100
AcDbPolyline
90
4
70
1
43
0.0
10
-154.63750000000002
20
31.100000000000001
10
-154.63750000000002
20
45.100000000000009
10
-140.63749999999999
20
45.100000000000009
10
-140.63749999999999
20
31.100000000000001
0
LWPOLYLINE
5
110
100
AcDbEntity
8
0
100
AcDbPolyline
90
4
70
1
43
0.0
10
-59.387499999999996
20
45.100000000000009
10
-45.38750000000001
20
45.100000000000009
10
-45.38750000000001
20
31.100000000000001
10
-59.387499999999996
20
31.100000000000001
0
LWPOLYLINE
5
111
100
AcDbEntity
8
0
100
AcDbPolyline
90
4
70
1
43
0.0
10
-12.050000000000002
20
-7
10
-26.050000000000004
20
-7
10
-26.050000000000004
20
7
10
-12.050000000000002
20
7
0
LWPOLYLINE
5
112
100
AcDbEntity
8
0
100
AcDbPolyline
90
4
70
1
43
0.0
10
-192.73750000000001
20
50.150000000000006
10
-192.73750000000001
20
64.150000000000006
10
-178.73749999999998
20
64.150000000000006
10
-178.73749999999998
20
50.150000000000006
0
LWPOLYLINE
5
113
100
AcDbEntity
8
0
100
AcDbPolyline
90
4
70
1
43
0.0
10
-202.26249999999999
20
26.050000000000004
10
-188.26250000000002
20
26.050000000000004
10
-188.26250000000002
20
12.050000000000002
10
-202.26249999999999
20
12.050000000000002
0
LWPOLYLINE
5
114
100
AcDbEntity
8
0
100
AcDbPolyline
90
8
70
1
43
0.0
10
-110.76824999999999
20
49.149999999999999
10
-117.76825000000001
20
49.149999999999999
10
-117.76825000000001
20
50.150000000000006
10
-133.20625000000001
20
50.150000000000006
10
-133.20625000000001
20
64.150000000000006
10
-104.91875
20
64.150000000000006
10
-104.91875
20
50.150000000000006
10
-110.76824999999999
20
50.150000000000006
0
LWPOLYLINE
5
115
100
AcDbEntity
8
0
100
AcDbPolyline
90
4
70
1
43
0.0
10
-159.6875
20
31.100000000000001
10
-173.68750000000003
20
31.100000000000001
10
-173.68750000000003
20
45.100000000000009
10
-159.6875
20
45.100000000000009
0
LWPOLYLINE
5
116
100
AcDbEntity
8
0
100
AcDbPolyline
90
4
70
1
43
0.0
10
-50.150000000000006
20
7
10
-50.150000000000006
20
-7
10
-64.150000000000006
20
-7
10
-64.150000000000006
20
7
0
LWPOLYLINE
5
117
100
AcDbEntity
8
0
100
AcDbPolyline
90
4
70
1
43
0.0
10
-0.14375000000000027
20
45.100000000000009
10
-0.14375000000000027
20
31.100000000000001
10
-14.143749999999999
20
31.100000000000001
10
-14.143749999999999
20
45.100000000000009
0
LWPOLYLINE
5
118
100
AcDbEntity
8
0
100
AcDbPolyline
90
4
70
1
43
0.0
10
-70.143250000000009
20
64.150000000000006
10
-58.418750000000003
20
64.150000000000006
10
-58.418750000000003
20
49.149999999999999
10
-70.143250000000009
20
49.149999999999999
0
LWPOLYLINE
5
119
100
AcDbEntity
8
0
100
AcDbPolyline
90
4
70
1
43
0.0
10
-71.581250000000011
20
50.150000000000006
10
-85.581250000000011
20
50.150000000000006
10
-85.581250000000011
20
64.150000000000006
10
-71.581250000000011
20
64.150000000000006
0
LWPOLYLINE
5
120
100
AcDbEntity
8
0
100
AcDbPolyline
90
4
70
1
43
0.0
10
-40.337500000000006
20
45.100000000000009
10
-26.337499999999999
20
45.100000000000009
10
-26.337499999999999
20
31.100000000000001
10
-40.337500000000006
20
31.100000000000001
0
LWPOLYLINE
5
121
100
AcDbEntity
8
0
100
AcDbPolyline
90
4
70
1
43
0.0
10
-68.912500000000009
20
26.050000000000004
10
-54.912500000000009
20
26.050000000000004
10
-54.912500000000009
20
12.050000000000002
10
-68.912500000000009
20
12.050000000000002
0
LWPOLYLINE
5
122
100
AcDbEntity
8
0
100
AcDbPolyline
90
4
70
1
43
0.0
10
-87.962500000000006
20
12.050000000000002
10
-87.962500000000006
20
26.050000000000004
10
-73.962500000000006
20
26.050000000000004
10
-73.962500000000006
20
12.050000000000002
0
LWPOLYLINE
5
123
100
AcDbEntity
8
0
100
AcDbPolyline
90
4
70
1
43
0.0
10
-126.34999999999999
20
7
10
-126.34999999999999
20
-7
10
-140.34999999999999
20
-7
10
-140.34999999999999
20
7
0
LWPOLYLINE
5
124
100
AcDbEntity
8
0
100
AcDbPolyline
90
4
70
1
43
0.0
10
-121.29999999999998
20
-7
10
-121.29999999999998
20
7
10
-107.30000000000001
20
7
10
-107.30000000000001
20
-7
0
LWPOLYLINE
5
125
100
AcDbEntity
8
0
100
AcDbPolyline
90
4
70
1
43
0.0
10
-9.3812500000000014
20
12.050000000000002
10
-9.3812500000000014
20
26.050000000000004
10
4.6187499999999986
20
26.050000000000004
10
4.6187499999999986
20
12.050000000000002
0
LWPOLYLINE
5
126
100
AcDbEntity
8
0
100
AcDbPolyline
90
4
70
1
43
0.0
10
-16.8125
20
12.050000000000002
10
-30.812500000000007
20
12.050000000000002
10
-30.812500000000007
20
26.050000000000004
10
-16.8125
20
26.050000000000004
0
LWPOLYLINE
5
127
100
AcDbEntity
8
0
100
AcDbPolyline
90
4
70
1
43
0.0
10
-192.73750000000001
20
45.100000000000009
10
-178.73749999999998
20
45.100000000000009
10
-178.73749999999998
20
31.100000000000001
10
-192.73750000000001
20
31.100000000000001
0
LWPOLYLINE
5
128
100
AcDbEntity
8
0
100
AcDbPolyline
90
4
70
1
43
0.0
10
-121.58750000000001
20
31.100000000000001
10
-135.58750000000001
20
31.100000000000001
10
-135.58750000000001
20
45.100000000000009
10
-121.58750000000001
20
45.100000000000009
0
LWPOLYLINE
5
129
100
AcDbEntity
8
0
100
AcDbPolyline
90
4
70
1
43
0.0
10
-102.25000000000001
20
7
10
-88.250000000000014
20
7
10
-88.250000000000014
20
-7
10
-102.25000000000001
20
-7
0
LWPOLYLINE
5
130
100
AcDbEntity
8
0
100
AcDbPolyline
90
8
70
1
43
0.0
10
-168.92499999999998
20
64.150000000000006
10
-152.54374999999999
20
64.150000000000006
10
-152.54374999999999
20
50.150000000000006
10
-158.41874999999999
20
50.150000000000006
10
-158.41874999999999
20
49.149999999999999
10
-165.41875000000002
20
49.149999999999999
10
-165.41875000000002
20
50.150000000000006
10
-168.92499999999998
20
50.150000000000006
0
LWPOLYLINE
5
131
100
AcDbEntity
8
0
100
AcDbPolyline
90
4
70
1
43
0.0
10
-212.07499999999999
20
26.050000000000004
10
-212.07499999999999
20
12.050000000000002
10
-226.07500000000002
20
12.050000000000002
10
-226.07500000000002
20
26.050000000000004
0
LWPOLYLINE
5
132
100
AcDbEntity
8
0
100
AcDbPolyline
90
12
70
1
43
0.0
10
-205.87450000000001
20
45.100000000000009
10
-205.87450000000001
20
46.100000000000001
10
-198.87450000000001
20
46.100000000000001
10
-198.87450000000001
20
45.100000000000009
10
-197.78750000000002
20
45.100000000000009
10
-197.78750000000002
20
31.100000000000001
10
-230.83750000000003
20
31.100000000000001
10
-230.83750000000003
20
45.100000000000009
10
-229.75049999999999
20
45.100000000000009
10
-229.75049999999999
20
46.100000000000001
10
-222.75049999999999
20
46.100000000000001
10
-222.75049999999999
20
45.100000000000009
0
LWPOLYLINE
5
133
100
AcDbEntity
8
0
100
AcDbPolyline
90
4
70
1
43
0.0
10
-216.83750000000003
20
50.150000000000006
10
-230.83750000000003
20
50.150000000000006
10
-230.83750000000003
20
64.150000000000006
10
-216.83750000000003
20
64.150000000000006
0
LWPOLYLINE
5
134
100
AcDbEntity
8
0
100
AcDbPolyline
90
4
70
1
43
0.0
10
-150.16249999999999
20
12.050000000000002
10
-164.16250000000002
20
12.050000000000002
10
-164.16250000000002
20
26.050000000000004
10
-150.16249999999999
20
26.050000000000004
0
LWPOLYLINE
5
135
100
AcDbEntity
8
0
100
AcDbPolyline
90
4
70
1
43
0.0
10
-45.100000000000009
20
7
10
-31.100000000000001
20
7
10
-31.100000000000001
20
-7
10
-45.100000000000009
20
-7
0
LWPOLYLINE
5
136
100
AcDbEntity
8
0
100
AcDbPolyline
90
4
70
1
43
0.0
10
-141.64425
20
64.150000000000006
10
-134.64425
20
64.150000000000006
10
-134.64425
20
49.149999999999999
10
-141.64425
20
49.149999999999999
0
LWPOLYLINE
5
137
100
AcDbEntity
8
0
100
AcDbPolyline
90
4
70
1
43
0.0
10
-97.487500000000011
20
45.100000000000009
10
-83.487500000000011
20
45.100000000000009
10
-83.487500000000011
20
31.100000000000001
10
-97.487500000000011
20
31.100000000000001
0
LWPOLYLINE
5
138
100
AcDbEntity
8
0
100
AcDbPolyline
90
4
70
1
43
0.0
10
-14.431250000000004
20
50.150000000000006
10
-28.431249999999999
20
50.150000000000006
10
-28.431249999999999
20
64.150000000000006
10
-14.431250000000004
20
64.150000000000006
0
LWPOLYLINE
5
139
100
AcDbEntity
8
0
100
AcDbPolyline
90
4
70
1
43
0.0
10
-102.53749999999999
20
31.100000000000001
10
-116.53750000000001
20
31.100000000000001
10
-116.53750000000001
20
45.100000000000009
10
-102.53749999999999
20
45.100000000000009
0
LWPOLYLINE
5
140
100
AcDbEntity
8
0
100
AcDbPolyline
90
4
70
1
43
0.0
10
-7
20
7
10
7
20
7
10
7
20
-7
10
-7
20
-7
0
LWPOLYLINE
5
141
100
AcDbEntity
8
0
100
AcDbPolyline
90
4
70
1
43
0.0
10
-169.21250000000001
20
26.050000000000004
10
-169.21250000000001
20
12.050000000000002
10
-183.21250000000003
20
12.050000000000002
10
-183.21250000000003
20
26.050000000000004
0
LWPOLYLINE
5
142
100
AcDbEntity
8
0
100
AcDbPolyline
90
4
70
1
43
0.0
10
-49.862500000000011
20
50.150000000000006
10
-49.862500000000011
20
64.150000000000006
10
-35.862500000000004
20
64.150000000000006
10
-35.862500000000004
20
50.150000000000006
0
LWPOLYLINE
5
143
100
AcDbEntity
8
0
100
AcDbPolyline
90
4
70
1
43
0.0
10
7
20
50.150000000000006
10
-7
20
50.150000000000006
10
-7
20
64.150000000000006
10
7
20
64.150000000000006
0
LWPOLYLINE
5
144
100
AcDbEntity
8
0
100
AcDbPolyline
90
4
70
1
43
0.0
10
-145.40000000000001
20
7
10
-145.40000000000001
20
-7
10
-159.40000000000001
20
-7
10
-159.40000000000001
20
7
0
LWPOLYLINE
5
145
100
AcDbEntity
8
0
100
AcDbPolyline
90
4
70
1
43
0.0
10
-107.0125
20
26.050000000000004
10
-93.012499999999989
20
26.050000000000004
10
-93.012499999999989
20
12.050000000000002
10
-107.0125
20
12.050000000000002
0
LWPOLYLINE
5
146
100
AcDbEntity
8
0
100
AcDbPolyline
90
4
70
1
43
0.0
10
-131.11249999999998
20
12.050000000000002
10
-145.11249999999998
20
12.050000000000002
10
-145.11249999999998
20
26.050000000000004
10
-131.11249999999998
20
26.050000000000004
0
LWPOLYLINE
5
147
100
AcDbEntity
8
0
100
AcDbPolyline
90
4
70
1
43
0.0
10
-197.5
20
7
10
-183.5
20
7
10
-183.5
20
-7
10
-197.5
20
-7
0
ENDSEC
0
SECTION
2
OBJECTS
0
DICTIONARY
5
C
100
AcDbDictionary
3
ACAD_GROUP
350
D
3
ACAD_MLINESTYLE
350
17
0
DICTIONARY
5
D
100
AcDbDictionary
0
DICTIONARY
5
1A
330
C
100
AcDbDictionary
0
DICTIONARY
5
17
100
AcDbDictionary
0
ENDSEC
0
EOF
