0
SECTION
2
HEADER
9
$INSUNITS
70
4
9
$ACADVER
1
AC1014
9
$HANDSEED
5
FFFF
0
ENDSEC
0
SECTION
2
TABLES
0
TABLE
2
VPORT
5
8
100
AcDbSymbolTable
0
ENDTAB
0
TABLE
2
LTYPE
5
5
100
AcDbSymbolTable
0
LTYPE
5
14
100
AcDbSymbolTableRecord
100
AcDbLinetypeTableRecord
2
BYBLOCK
70
0
0
LTYPE
5
15
100
AcDbSymbolTableRecord
100
AcDbLinetypeTableRecord
2
BYLAYER
70
0
0
ENDTAB
0
TABLE
2
LAYER
5
2
100
AcDbSymbolTable
70
2
0
LAYER
5
50
100
AcDbSymbolTableRecord
100
AcDbLayerTableRecord
2
0
70
0
6
CONTINUOUS
0
ENDTAB
0
TABLE
2
STYLE
5
3
100
AcDbSymbolTable
70
1
0
STYLE
5
11
100
AcDbSymbolTableRecord
100
AcDbTextStyleTableRecord
2
STANDARD
70
0
0
ENDTAB
0
TABLE
2
VIEW
5
6
100
AcDbSymbolTable
70
0
0
ENDTAB
0
TABLE
2
UCS
5
7
100
AcDbSymbolTable
70
0
0
ENDTAB
0
TABLE
2
APPID
5
9
100
AcDbSymbolTable
70
2
0
APPID
5
12
100
AcDbSymbolTableRecord
100
AcDbRegAppTableRecord
2
ACAD
70
0
0
ENDTAB
0
TABLE
2
DIMSTYLE
5
A
100
AcDbSymbolTable
70
1
0
ENDTAB
0
TABLE
2
BLOCK_RECORD
5
1
100
AcDbSymbolTable
70
1
0
BLOCK_RECORD
5
1F
100
AcDbSymbolTableRecord
100
AcDbBlockTableRecord
2
*MODEL_SPACE
0
BLOCK_RECORD
5
1B
100
AcDbSymbolTableRecord
100
AcDbBlockTableRecord
2
*PAPER_SPACE
0
ENDTAB
0
ENDSEC
0
SECTION
2
BLOCKS
0
BLOCK
5
20
100
AcDbEntity
100
AcDbBlockBegin
2
*MODEL_SPACE
0
ENDBLK
5
21
100
AcDbEntity
100
AcDbBlockEnd
0
BLOCK
5
1C
100
AcDbEntity
100
AcDbBlockBegin
2
*PAPER_SPACE
0
ENDBLK
5
1D
100
AcDbEntity
100
AcDbBlockEnd
0
ENDSEC
0
SECTION
2
ENTITIES
0
LWPOLYLINE
5
100
100
AcDbEntity
8
0
100
AcDbPolyline
90
32
70
1
43
0.0
10
-220.15760161513805
20
-14.000000000000036
10
-217.84820053837905
20
-9.9999999999999698
42
-0.26794919243111287
10
-216.11614973081004
20
-9.0000000000000568
10
-7.7213502691895997
20
-9
42
-0.2679491924311313
10
-5.9892994616207362
20
-10.000000000000021
10
-3.6798983848623124
20
-14.000000000000007
10
4.3918983848622517
20
-14
10
6.7012994616207466
20
-10.000000000000002
42
-0.26794919243112975
10
8.4333502691896793
20
-9
10
8.5000000000000142
20
-9
42
0.41421356237308593
10
9.0000000000000018
20
-8.4999999999999982
10
8.9999999999999858
20
65.649999999999991
42
0.4142135623733838
10
8.49999999999946
20
66.150000000000034
10
8.4333502691896101
20
66.149999999999991
42
-0.26794919243112048
10
6.7012994616207404
20
67.150000000000034
10
4.3918983848622517
20
71.150000000000034
10
-3.6798983848622058
20
71.150000000000034
10
-5.9892994616207087
20
67.150000000000034
42
-0.26794919243113069
10
-7.7213502691895997
20
66.150000000000034
10
-216.11614973081004
20
66.149999999999977
42
-0.26794919243114285
10
-217.84820053837888
20
67.150000000000048
10
-220.15760161513805
20
71.150000000000006
10
-228.22939838486201
20
71.150000000000006
10
-230.53879946162098
20
67.150000000000006
42
-0.26794919243100146
10
-232.270850269189
20
66.149999999999963
10
-232.33750000000001
20
66.149999999999977
42
0.41421356237298057
10
-232.83750000000001
20
65.649999999999963
10
-232.83750000000001
20
-8.500000000000032
42
0.41421356237312623
10
-232.33750000000001
20
-9.0000000000000178
10
-232.27085026918999
20
-9.0000000000000266
42
-0.26794919243116488
10
-230.53879946162115
20
-10.000000000000099
10
-228.22939838486201
20
-14.000000000000039
0
LWPOLYLINE
5
101
100
AcDbEntity
8
0
100
AcDbPolyline
90
8
70
1
43
0.0
10
-169.218747665
20
26.049999999999969
10
-156.21874766500002
20
26.049999999999997
42
-0.41421356237313145
10
-155.71874766500002
20
25.549999999999962
10
-155.71874766500002
20
12.549999999999972
42
-0.41421356237313794
10
-156.21874766500002
20
12.049999999999965
10
-169.21874766500002
20
12.049999999999921
42
-0.41421356237308982
10
-169.71874766500002
20
12.549999999999955
10
-169.71874766500002
20
25.549999999999962
42
-0.41421356237314444
0
LWPOLYLINE
5
102
100
AcDbEntity
8
0
100
AcDbPolyline
90
8
70
1
43
0.0
10
-118.67708166500002
20
25.549999999999979
42
0.41421356237306639
10
-119.17708166500006
20
26.050000000000008
10
-132.17708166500003
20
26.049999999999969
42
0.41421356237314189
10
-132.67708166500003
20
25.549999999999979
10
-132.67708166500003
20
12.549999999999955
42
0.41421356237311713
10
-132.17708166500003
20
12.049999999999983
10
-119.17708166500006
20
12.049999999999965
42
0.41421356237314316
10
-118.67708166500002
20
12.549999999999972
0
LWPOLYLINE
5
103
100
AcDbEntity
8
0
100
AcDbPolyline
90
8
70
1
43
0.0
10
-214.16875000000002
20
50.649999999999963
10
-214.16875000000002
20
63.649999999999991
42
-0.41421356237300661
10
-213.66874999999999
20
64.149999999999991
10
-200.66874999999999
20
64.150000000000006
42
-0.41421356237314189
10
-200.16874999999999
20
63.649999999999991
10
-200.16874999999999
20
50.649999999999963
42
-0.41421356237314189
10
-200.66874999999999
20
50.149999999999963
10
-213.66874999999999
20
50.149999999999949
42
-0.41421356237313667
0
LWPOLYLINE
5
104
100
AcDbEntity
8
0
100
AcDbPolyline
90
8
70
1
43
0.0
10
-20.906250000000028
20
29.899999999999984
10
-26.906250000000043
20
29.899999999999981
42
-0.41421356237310281
10
-27.406250000000014
20
30.399999999999974
10
-27.406249999999996
20
43.399999999999991
42
-0.41421356237304302
10
-26.906250000000043
20
43.899999999999999
10
-20.906250000000028
20
43.899999999999991
42
-0.41421356237311846
10
-20.406250000000057
20
43.399999999999991
10
-20.40625000000006
20
30.399999999999974
42
-0.41421356237310281
0
LWPOLYLINE
5
105
100
AcDbEntity
8
0
100
AcDbPolyline
90
8
70
1
43
0.0
10
-122.88359374999999
20
45.099999999999973
42
0.41421356237312101
10
-123.38359374999997
20
44.599999999999973
10
-123.38359374999999
20
31.599999999999973
42
0.41421356237312101
10
-122.88359374999999
20
31.099999999999952
10
-109.88359375000002
20
31.099999999999959
42
0.41421356237310025
10
-109.38359374999997
20
31.599999999999973
10
-109.38359374999997
20
44.599999999999973
42
0.41421356237313667
10
-109.88359375000002
20
45.09999999999998
0
LWPOLYLINE
5
106
100
AcDbEntity
8
0
100
AcDbPolyline
90
8
70
1
43
0.0
10
-183.926875
20
-6.5000000000000391
42
0.41421356237313928
10
-183.426875
20
-7.0000000000000506
10
-170.426875
20
-7.0000000000000284
42
0.41421356237297147
10
-169.92687500000002
20
-6.5000000000000391
10
-169.926875
20
6.499999999999968
42
0.41421356237312884
10
-170.426875
20
6.9999999999999574
10
-183.426875
20
6.9999999999999751
42
0.41421356237308204
10
-183.926875
20
6.499999999999968
0
LWPOLYLINE
5
107
100
AcDbEntity
8
0
100
AcDbPolyline
90
8
70
1
43
0.0
10
-39.910624999999982
20
6.4999999999999858
42
0.41421356237310414
10
-40.410624999999989
20
6.9999999999999911
10
-53.410624999999996
20
6.9999999999999929
42
0.41421356237312817
10
-53.910625000000024
20
6.4999999999999858
10
-53.910625000000003
20
-6.5000000000000213
42
0.41421356237310281
10
-53.410624999999996
20
-7.0000000000000284
10
-40.410624999999989
20
-7.0000000000000107
42
0.4142135623730625
10
-39.910624999999982
20
-6.5000000000000213
0
LWPOLYLINE
5
108
100
AcDbEntity
8
0
100
AcDbPolyline
90
8
70
1
43
0.0
10
-33.481249999999996
20
63.650000000000013
42
0.41421356237312623
10
-33.981250000000003
20
64.150000000000006
10
-46.98125000000001
20
64.150000000000006
42
0.41421356237311063
10
-47.481250000000031
20
63.650000000000013
10
-47.481250000000017
20
50.649999999999977
42
0.41421356237308982
10
-46.98125000000001
20
50.149999999999977
10
-33.981250000000003
20
50.149999999999977
42
0.41421356237308204
10
-33.481249999999996
20
50.649999999999977
0
LWPOLYLINE
5
109
100
AcDbEntity
8
0
100
AcDbPolyline
90
8
70
1
43
0.0
10
-77.058125000000004
20
6.499999999999968
10
-77.05812499999999
20
-6.5000000000000213
42
-0.41421356237303847
10
-77.558124999999976
20
-7.0000000000000284
10
-90.558125000000018
20
-7.0000000000000027
42
-0.41421356237310086
10
-91.05812499999999
20
-6.5000000000000213
10
-91.058124999999976
20
6.499999999999968
42
-0.41421356237310347
10
-90.558125000000018
20
6.9999999999999751
10
-77.558124999999976
20
6.9999999999999414
42
-0.41421356237309631
0
LWPOLYLINE
5
110
100
AcDbEntity
8
0
100
AcDbPolyline
90
8
70
1
43
0.0
10
-196.93125000000009
20
10.849999999999973
10
-202.93125000000003
20
10.84999999999998
42
-0.41421356237313273
10
-203.43125000000003
20
11.34999999999998
10
-203.43125000000001
20
24.349999999999987
42
-0.41421356237303258
10
-202.93125000000003
20
24.849999999999977
10
-196.93125000000009
20
24.849999999999955
42
-0.41421356237315488
10
-196.43125000000009
20
24.349999999999987
10
-196.43125000000009
20
11.34999999999998
42
-0.41421356237313273
0
LWPOLYLINE
5
111
100
AcDbEntity
8
0
100
AcDbPolyline
90
8
70
1
43
0.0
10
-58.093749665000018
20
26.049999999999986
10
-45.093749665000011
20
26.049999999999976
42
-0.41421356237310025
10
-44.593749665000004
20
25.549999999999979
10
-44.593749665000004
20
12.54999999999999
42
-0.41421356237310542
10
-45.093749665000011
20
12.049999999999983
10
-58.093749665000018
20
12.049999999999967
42
-0.41421356237308332
10
-58.593749665000026
20
12.549999999999955
10
-58.593749665000047
20
25.549999999999979
42
-0.41421356237309243
0
LWPOLYLINE
5
112
100
AcDbEntity
8
0
100
AcDbPolyline
90
8
70
1
43
0.0
10
-54.519531249999993
20
31.099999999999977
10
-67.51953125
20
31.099999999999973
42
-0.41421356237312884
10
-68.019531249999972
20
31.599999999999984
10
-68.019531249999972
20
44.59999999999998
42
-0.41421356237310025
10
-67.51953125
20
45.09999999999998
10
-54.519531249999993
20
45.099999999999966
42
-0.41421356237313145
10
-54.019531249999986
20
44.59999999999998
10
-54.01953125
20
31.599999999999984
42
-0.41421356237309243
0
LWPOLYLINE
5
113
100
AcDbEntity
8
0
100
AcDbPolyline
90
8
70
1
43
0.0
10
3.59375
20
43.399999999999999
10
3.5937500000000004
20
30.399999999999991
42
-0.4142135623731526
10
3.0937499999999574
20
29.899999999999984
10
-2.9062499999999858
20
29.899999999999945
42
-0.41421356237309825
10
-3.4062500000000284
20
30.399999999999991
10
-3.4062499999999973
20
43.399999999999999
42
-0.41421356237309764
10
-2.9062499999999858
20
43.900000000000006
10
3.0937499999999574
20
43.900000000000041
42
-0.41421356237308593
0
LWPOLYLINE
5
114
100
AcDbEntity
8
0
100
AcDbPolyline
90
8
70
1
43
0.0
10
-205.43125000000003
20
12.049999999999965
42
0.41421356237305212
10
-204.93125000000009
20
12.549999999999972
10
-204.93125000000006
20
25.549999999999962
42
0.41421356237302737
10
-205.43125000000003
20
26.050000000000004
10
-218.43125000000001
20
26.049999999999969
42
0.41421356237313406
10
-218.93125000000001
20
25.549999999999962
10
-218.93125000000001
20
12.549999999999955
42
0.41421356237314577
10
-218.43125000000001
20
12.049999999999983
0
LWPOLYLINE
5
115
100
AcDbEntity
8
0
100
AcDbPolyline
90
8
70
1
43
0.0
10
-118.41875000000002
20
64.150000000000006
10
-105.41875000000005
20
64.149999999999949
42
-0.41421356237312623
10
-104.91875000000005
20
63.650000000000006
10
-104.91875
20
50.64999999999997
42
-0.414213562373069
10
-105.41875000000005
20
50.14999999999997
10
-118.41875000000002
20
50.149999999999991
42
-0.41421356237312101
10
-118.91875000000002
20
50.64999999999997
10
-118.91875000000006
20
63.650000000000006
42
-0.41421356237310542
0
LWPOLYLINE
5
116
100
AcDbEntity
8
0
100
AcDbPolyline
90
8
70
1
43
0.0
10
-64.918750000000045
20
62.94999999999996
10
-58.91875000000006
20
62.94999999999996
42
-0.41421356237316265
10
-58.418750000000017
20
62.449999999999967
10
-58.41875000000001
20
49.44999999999996
42
-0.41421356237312101
10
-58.91875000000006
20
48.949999999999989
10
-64.918750000000003
20
48.949999999999953
42
-0.41421356237307422
10
-65.418750000000045
20
49.44999999999996
10
-65.418750000000031
20
62.449999999999967
42
-0.4142135623730534
0
LWPOLYLINE
5
117
100
AcDbEntity
8
0
100
AcDbPolyline
90
8
70
1
43
0.0
10
-96.131875000000022
20
-7.0000000000000284
42
0.41421356237307422
10
-95.63187499999998
20
-6.5000000000000213
10
-95.63187499999998
20
6.499999999999968
42
0.41421356237310025
10
-96.131875000000022
20
7.0000000000000107
10
-109.13187499999999
20
6.9999999999999751
42
0.4142135623730937
10
-109.63187500000001
20
6.499999999999968
10
-109.63187500000001
20
-6.5000000000000213
42
0.41421356237312235
10
-109.13187499999999
20
-7.0000000000000284
0
LWPOLYLINE
5
118
100
AcDbEntity
8
0
100
AcDbPolyline
90
8
70
1
43
0.0
10
-146.77937499999999
20
-6.5000000000000391
42
0.41421356237312429
10
-146.27937500000004
20
-6.9999999999999893
10
-133.27937499999996
20
-7.0000000000000284
42
0.41421356237310347
10
-132.77937500000002
20
-6.5000000000000213
10
-132.77937500000002
20
6.499999999999968
42
0.41421356237306706
10
-133.27937499999996
20
6.9999999999999929
10
-146.27937500000004
20
6.9999999999999751
42
0.41421356237300855
10
-146.77937499999999
20
6.499999999999968
0
LWPOLYLINE
5
119
100
AcDbEntity
8
0
100
AcDbPolyline
90
8
70
1
43
0.0
10
-225.57500000000002
20
6.9999999999999574
42
0.41421356237304563
10
-226.07500000000002
20
6.4999999999999503
10
-226.07500000000002
20
-6.5000000000000391
42
0.41421356237311713
10
-225.57500000000002
20
-7.0000000000000639
10
-212.57499999999999
20
-7.0000000000000462
42
0.41421356237310936
10
-212.07499999999996
20
-6.5000000000000391
10
-212.07499999999999
20
6.4999999999999503
42
0.41421356237312884
10
-212.57499999999999
20
6.9999999999999396
0
LWPOLYLINE
5
120
100
AcDbEntity
8
0
100
AcDbPolyline
90
8
70
1
43
0.0
10
-85.974218749999977
20
45.09999999999998
42
0.41421356237313145
10
-86.474218749999991
20
44.59999999999998
10
-86.474218749999991
20
31.599999999999984
42
0.41421356237314189
10
-85.974218749999977
20
31.099999999999994
10
-72.974218749999977
20
31.099999999999977
42
0.41421356237310542
10
-72.474218750000006
20
31.599999999999984
10
-72.474218750000006
20
44.59999999999998
42
0.41421356237314189
10
-72.974218749999977
20
45.09999999999998
0
LWPOLYLINE
5
121
100
AcDbEntity
8
0
100
AcDbPolyline
90
8
70
1
43
0.0
10
-200.16874999999999
20
44.599999999999966
42
0.41421356237311063
10
-200.66874999999999
20
45.099999999999994
10
-213.66874999999999
20
45.099999999999966
42
0.41421356237300661
10
-214.16875000000002
20
44.599999999999966
10
-214.16875000000002
20
31.599999999999966
42
0.41421356237313667
10
-213.66874999999999
20
31.099999999999941
10
-200.66874999999999
20
31.099999999999959
42
0.41421356237314705
10
-200.16874999999999
20
31.599999999999966
0
LWPOLYLINE
5
122
100
AcDbEntity
8
0
100
AcDbPolyline
90
8
70
1
43
0.0
10
-165.24765625000001
20
31.099999999999959
42
0.41421356237319906
10
-164.74765625000003
20
31.599999999999966
10
-164.74765625000003
20
44.599999999999966
42
0.4142135623730534
10
-165.24765625000001
20
45.099999999999973
10
-178.24765625000001
20
45.099999999999966
42
0.41421356237316787
10
-178.74765625000003
20
44.599999999999966
10
-178.74765625000003
20
31.599999999999966
42
0.41421356237316787
10
-178.24765625000001
20
31.099999999999994
0
LWPOLYLINE
5
123
100
AcDbEntity
8
0
100
AcDbPolyline
90
8
70
1
43
0.0
10
-216.16875000000007
20
29.899999999999949
10
-222.16875000000002
20
29.899999999999917
42
-0.41421356237305079
10
-222.66874999999999
20
30.399999999999956
10
-222.66874999999999
20
43.399999999999963
42
-0.41421356237309503
10
-222.16874999999999
20
43.899999999999963
10
-216.16875000000007
20
43.899999999999963
42
-0.41421356237317308
10
-215.66874999999999
20
43.399999999999963
10
-215.66874999999993
20
30.399999999999956
42
-0.41421356237314189
0
LWPOLYLINE
5
124
100
AcDbEntity
8
0
100
AcDbPolyline
90
8
70
1
43
0.0
10
-127.83828125000002
20
44.599999999999973
10
-127.83828124999999
20
31.599999999999973
42
-0.41421356237313928
10
-128.33828124999999
20
31.099999999999959
10
-141.33828125000002
20
31.099999999999923
42
-0.41421356237310025
10
-141.83828125000005
20
31.599999999999973
10
-141.83828125000005
20
44.599999999999973
42
-0.41421356237310542
10
-141.33828125000002
20
45.099999999999973
10
-128.33828124999999
20
45.099999999999952
42
-0.41421356237316265
0
LWPOLYLINE
5
125
100
AcDbEntity
8
0
100
AcDbPolyline
90
8
70
1
43
0.0
10
-36.064843750000009
20
31.099999999999977
42
0.41421356237309764
10
-35.564843750000009
20
31.599999999999984
10
-35.564843750000001
20
44.59999999999998
42
0.41421356237309243
10
-36.064843750000009
20
45.099999999999994
10
-49.064843750000016
20
45.09999999999998
42
0.41421356237311063
10
-49.564843750000009
20
44.59999999999998
10
-49.564843750000023
20
31.599999999999984
42
0.41421356237310802
10
-49.064843750000016
20
31.099999999999966
0
LWPOLYLINE
5
126
100
AcDbEntity
8
0
100
AcDbPolyline
90
8
70
1
43
0.0
10
-192.16875000000002
20
29.899999999999949
42
0.41421356237305079
10
-191.66875000000007
20
30.399999999999956
10
-191.66875000000005
20
43.34999999999998
42
0.41421356237308982
10
-192.16875000000002
20
43.850000000000009
10
-198.16874999999999
20
43.849999999999987
42
0.414213562373069
10
-198.66875000000007
20
43.34999999999998
10
-198.66875000000007
20
30.399999999999974
42
0.41421356237308982
10
-198.16874999999999
20
29.899999999999931
0
LWPOLYLINE
5
127
100
AcDbEntity
8
0
100
AcDbPolyline
90
8
70
1
43
0.0
10
-0.64374999999998295
20
12.050000000000001
42
0.4142135623730952
10
-0.14374999999999333
20
12.54999999999999
10
-0.14375000000001137
20
25.549999999999997
42
0.41421356237308188
10
-0.64374999999998295
20
26.049999999999951
10
-13.643750000000026
20
26.049999999999986
42
0.41421356237308854
10
-14.143750000000033
20
25.549999999999997
10
-14.143749999999997
20
12.54999999999999
42
0.41421356237309503
10
-13.643750000000026
20
12.049999999999983
0
LWPOLYLINE
5
128
100
AcDbEntity
8
0
100
AcDbPolyline
90
8
70
1
43
0.0
10
-150.69791466500004
20
26.049999999999969
10
-137.69791466500004
20
26.049999999999962
42
-0.41421356237307944
10
-137.19791466500004
20
25.549999999999979
10
-137.19791466500001
20
12.549999999999972
42
-0.41421356237311846
10
-137.69791466500004
20
12.049999999999965
10
-150.6979146650001
20
12.049999999999955
42
-0.41421356237307033
10
-151.19791466500004
20
12.549999999999955
10
-151.19791466500004
20
25.549999999999962
42
-0.41421356237313928
0
LWPOLYLINE
5
129
100
AcDbEntity
8
0
100
AcDbPolyline
90
8
70
1
43
0.0
10
-5.4062499999999858
20
31.099999999999994
10
-18.406250000000028
20
31.099999999999959
42
-0.41421356237304818
10
-18.90625
20
31.599999999999994
10
-18.906250000000032
20
44.599999999999994
42
-0.41421356237309764
10
-18.406250000000028
20
45.099999999999987
10
-5.4062499999999858
20
45.099999999999966
42
-0.41421356237309631
10
-4.9062500000000142
20
44.599999999999994
10
-4.9062499999999796
20
31.599999999999994
42
-0.41421356237308915
0
LWPOLYLINE
5
130
100
AcDbEntity
8
0
100
AcDbPolyline
90
8
70
1
43
0.0
10
1.7374999999999829
20
-7.0000000000000107
42
0.4142135623730856
10
2.2374999999999896
20
-6.5000000000000213
10
2.2375000000000256
20
6.4999999999999858
42
0.41421356237309537
10
1.7374999999999829
20
6.9999999999999929
10
-11.262499999999989
20
6.9999999999999751
42
0.4142135623730957
10
-11.762500000000031
20
6.4999999999999858
10
-11.76249999999996
20
-6.5000000000000213
42
0.4142135623730937
10
-11.262499999999989
20
-6.9999999999999929
0
LWPOLYLINE
5
131
100
AcDbEntity
8
0
100
AcDbPolyline
90
8
70
1
43
0.0
10
-100.15624866500005
20
25.549999999999979
10
-100.15624866500005
20
12.549999999999972
42
-0.41421356237308982
10
-100.65624866500002
20
12.049999999999983
10
-113.65624866500006
20
12.049999999999981
42
-0.41421356237309631
10
-114.15624866500004
20
12.549999999999955
10
-114.15624866500002
20
25.549999999999979
42
-0.41421356237316009
10
-113.65624866500002
20
26.049999999999969
10
-100.65624866500002
20
26.049999999999983
42
-0.41421356237307161
0
LWPOLYLINE
5
132
100
AcDbEntity
8
0
100
AcDbPolyline
90
8
70
1
43
0.0
10
-34.83687500000002
20
6.9999999999999929
10
-21.836874999999978
20
6.9999999999999591
42
-0.41421356237309631
10
-21.336875000000006
20
6.4999999999999858
10
-21.336874999999988
20
-6.5000000000000213
42
-0.41421356237309048
10
-21.836874999999978
20
-7.0000000000000107
10
-34.83687500000002
20
-6.9999999999999947
42
-0.41421356237309631
10
-35.336874999999992
20
-6.5000000000000213
10
-35.336875000000049
20
6.4999999999999858
42
-0.41421356237308854
0
LWPOLYLINE
5
133
100
AcDbEntity
8
0
100
AcDbPolyline
90
8
70
1
43
0.0
10
-158.41875000000005
20
62.450000000000031
10
-158.4187500000001
20
49.450000000000017
42
-0.41421356237316787
10
-158.9187500000001
20
48.950000000000038
10
-164.91875000000005
20
48.950000000000038
42
-0.41421356237315748
10
-165.41875000000005
20
49.45000000000001
10
-165.41875000000005
20
62.450000000000017
42
-0.41421356237323032
10
-164.91875000000005
20
62.950000000000024
10
-158.9187500000001
20
62.950000000000031
42
-0.41421356237313667
0
LWPOLYLINE
5
134
100
AcDbEntity
8
0
100
AcDbPolyline
90
8
70
1
43
0.0
10
-63.114582665000007
20
25.549999999999979
10
-63.114582665000007
20
12.54999999999999
42
-0.41421356237313794
10
-63.614582665000015
20
12.049999999999983
10
-76.614582664999986
20
12.049999999999947
42
-0.41421356237307422
10
-77.114582665000029
20
12.549999999999955
10
-77.114582665000029
20
25.549999999999979
42
-0.41421356237315488
10
-76.614582664999986
20
26.049999999999969
10
-63.614582665000015
20
26.049999999999976
42
-0.41421356237310025
0
LWPOLYLINE
5
135
100
AcDbEntity
8
0
100
AcDbPolyline
90
8
70
1
43
0.0
10
-176.85625000000002
20
50.149999999999963
42
0.4142135623730378
10
-176.35625000000005
20
50.649999999999963
10
-176.35625000000002
20
63.649999999999991
42
0.41421356237315227
10
-176.85625000000002
20
64.149999999999977
10
-189.85624999999999
20
64.149999999999991
42
0.41421356237300661
10
-190.35624999999999
20
63.649999999999991
10
-190.35624999999999
20
50.649999999999963
42
0.41421356237313667
10
-189.85624999999999
20
50.149999999999949
0
LWPOLYLINE
5
136
100
AcDbEntity
8
0
100
AcDbPolyline
90
8
70
1
43
0.0
10
-174.23958066500006
20
25.549999999999962
42
0.41421356237312623
10
-174.73958066500003
20
26.049999999999986
10
-187.73958066500003
20
26.049999999999969
42
0.41421356237314444
10
-188.23958066500006
20
25.549999999999962
10
-188.23958066500006
20
12.549999999999955
42
0.41421356237307944
10
-187.73958066500006
20
12.049999999999965
10
-174.73958066500006
20
12.049999999999965
42
0.41421356237314316
10
-174.23958066500006
20
12.549999999999972
0
LWPOLYLINE
5
137
100
AcDbEntity
8
0
100
AcDbPolyline
90
8
70
1
43
0.0
10
-58.984375
20
-7.0000000000000284
10
-71.984375
20
-6.9999999999999964
42
-0.41421356237310736
10
-72.484375000000014
20
-6.5000000000000213
10
-72.484375
20
6.499999999999968
42
-0.41421356237310608
10
-71.984375
20
6.9999999999999751
10
-58.984375
20
6.9999999999999885
42
-0.41421356237310281
10
-58.484374999999993
20
6.4999999999999858
10
-58.484374999999993
20
-6.5000000000000213
42
-0.41421356237310281
0
LWPOLYLINE
5
138
100
AcDbEntity
8
0
100
AcDbPolyline
90
8
70
1
43
0.0
10
-40.072916664999987
20
12.54999999999999
42
0.41421356237309243
10
-39.57291666499998
20
12.049999999999979
10
-26.572916665000008
20
12.049999999999983
42
0.41421356237309243
10
-26.072916665000001
20
12.54999999999999
10
-26.072916665000037
20
25.549999999999997
42
0.41421356237308204
10
-26.572916665000008
20
26.049999999999951
10
-39.572916665000015
20
26.049999999999986
42
0.41421356237314189
10
-40.072916665000022
20
25.549999999999979
0
LWPOLYLINE
5
139
100
AcDbEntity
8
0
100
AcDbPolyline
90
8
70
1
43
0.0
10
-9.6687500000000171
20
63.65000000000002
42
0.41421356237309631
10
-10.168749999999989
20
64.149999999999991
10
-23.168750000000031
20
64.150000000000006
42
0.41421356237310025
10
-23.668750000000021
20
63.650000000000013
10
-23.668750000000003
20
50.649999999999977
42
0.41421356237305079
10
-23.168750000000031
20
50.149999999999977
10
-10.168749999999989
20
50.149999999999991
42
0.41421356237310025
10
-9.6687499999999993
20
50.649999999999984
0
LWPOLYLINE
5
140
100
AcDbEntity
8
0
100
AcDbPolyline
90
8
70
1
43
0.0
10
-104.92890625000001
20
31.599999999999973
42
0.41421356237307683
10
-104.42890625000004
20
31.099999999999962
10
-91.428906249999997
20
31.099999999999977
42
0.41421356237311846
10
-90.928906250000026
20
31.599999999999984
10
-90.928906250000026
20
44.59999999999998
42
0.41421356237317308
10
-91.428906249999997
20
45.099999999999966
10
-104.42890625000004
20
45.099999999999973
42
0.41421356237312101
10
-104.92890625000001
20
44.599999999999973
0
LWPOLYLINE
5
141
100
AcDbEntity
8
0
100
AcDbPolyline
90
8
70
1
43
0.0
10
-227.43125000000006
20
11.349999999999962
42
0.4142135623730781
10
-226.93125000000003
20
10.849999999999948
10
-220.93125000000003
20
10.849999999999955
42
0.41421356237317436
10
-220.43125000000003
20
11.349999999999962
10
-220.43125000000003
20
24.349999999999969
42
0.41421356237313667
10
-220.93125000000003
20
24.849999999999959
10
-226.93125000000003
20
24.849999999999977
42
0.41421356237307944
10
-227.43125000000006
20
24.349999999999969
0
LWPOLYLINE
5
142
100
AcDbEntity
8
0
100
AcDbPolyline
90
8
70
1
43
0.0
10
-159.79296875
20
45.099999999999973
10
-146.79296874999994
20
45.099999999999966
42
-0.41421356237310542
10
-146.29296875000006
20
44.599999999999973
10
-146.29296875000006
20
31.599999999999973
42
-0.41421356237320428
10
-146.79296874999994
20
31.099999999999959
10
-159.79296875
20
31.099999999999987
42
-0.41421356237316787
10
-160.29296875
20
31.599999999999973
10
-160.29296875
20
44.599999999999973
42
-0.41421356237315748
0
LWPOLYLINE
5
143
100
AcDbEntity
8
0
100
AcDbPolyline
90
8
70
1
43
0.0
10
-95.135415665000025
20
26.049999999999969
42
0.41421356237316009
10
-95.635415665000011
20
25.549999999999979
10
-95.635415664999996
20
12.549999999999955
42
0.41421356237309631
10
-95.135415665000025
20
12.049999999999983
10
-82.135415664999982
20
12.049999999999983
42
0.41421356237308982
10
-81.635415665000011
20
12.549999999999972
10
-81.635415665000011
20
25.549999999999979
42
0.41421356237307161
10
-82.135415664999982
20
26.049999999999986
0
LWPOLYLINE
5
144
100
AcDbEntity
8
0
100
AcDbPolyline
90
8
70
1
43
0.0
10
-164.85312500000003
20
6.9999999999999751
42
0.41421356237313861
10
-165.35312500000003
20
6.499999999999968
10
-165.35312500000003
20
-6.5000000000000391
42
0.41421356237313928
10
-164.85312500000003
20
-7.0000000000000284
10
-151.85312500000003
20
-7.0000000000000284
42
0.41421356237298901
10
-151.35312500000003
20
-6.5000000000000391
10
-151.35312500000001
20
6.499999999999968
42
0.41421356237314444
10
-151.85312500000003
20
6.9999999999999574
0
LWPOLYLINE
5
145
100
AcDbEntity
8
0
100
AcDbPolyline
90
8
70
1
43
0.0
10
-114.20562500000003
20
6.499999999999968
10
-114.20562500000003
20
-6.5000000000000213
42
-0.41421356237313339
10
-114.705625
20
-7.0000000000000284
10
-127.705625
20
-6.9999999999999964
42
-0.41421356237311779
10
-128.205625
20
-6.5000000000000213
10
-128.20562500000003
20
6.499999999999968
42
-0.41421356237312235
10
-127.705625
20
6.9999999999999751
10
-114.705625
20
6.9999999999999494
42
-0.41421356237310086
0
LWPOLYLINE
5
146
100
AcDbEntity
8
0
100
AcDbPolyline
90
8
70
1
43
0.0
10
-189.00062500000001
20
-7.0000000000000284
42
0.41421356237310086
10
-188.50062500000004
20
-6.5000000000000391
10
-188.50062500000001
20
6.499999999999968
42
0.41421356237313273
10
-189.00062500000001
20
6.9999999999999751
10
-202.00062500000001
20
6.9999999999999574
42
0.41421356237299095
10
-202.50062499999999
20
6.4999999999999503
10
-202.50062499999999
20
-6.5000000000000391
42
0.4142135623730534
10
-202.00062500000001
20
-7.0000000000000462
0
ENDSEC
0
SECTION
2
OBJECTS
0
DICTIONARY
5
C
100
AcDbDictionary
3
ACAD_GROUP
350
D
3
ACAD_MLINESTYLE
350
17
0
DICTIONARY
5
D
100
AcDbDictionary
0
DICTIONARY
5
1A
330
C
100
AcDbDictionary
0
DICTIONARY
5
17
100
AcDbDictionary
0
ENDSEC
0
EOF
