0
SECTION
2
HEADER
9
$INSUNITS
70
4
9
$ACADVER
1
AC1014
9
$HANDSEED
5
FFFF
0
ENDSEC
0
SECTION
2
TABLES
0
TABLE
2
VPORT
5
8
100
AcDbSymbolTable
0
ENDTAB
0
TABLE
2
LTYPE
5
5
100
AcDbSymbolTable
0
LTYPE
5
14
100
AcDbSymbolTableRecord
100
AcDbLinetypeTableRecord
2
BYBLOCK
70
0
0
LTYPE
5
15
100
AcDbSymbolTableRecord
100
AcDbLinetypeTableRecord
2
BYLAYER
70
0
0
ENDTAB
0
TABLE
2
LAYER
5
2
100
AcDbSymbolTable
70
2
0
LAYER
5
50
100
AcDbSymbolTableRecord
100
AcDbLayerTableRecord
2
0
70
0
6
CONTINUOUS
0
ENDTAB
0
TABLE
2
STYLE
5
3
100
AcDbSymbolTable
70
1
0
STYLE
5
11
100
AcDbSymbolTableRecord
100
AcDbTextStyleTableRecord
2
STANDARD
70
0
0
ENDTAB
0
TABLE
2
VIEW
5
6
100
AcDbSymbolTable
70
0
0
ENDTAB
0
TABLE
2
UCS
5
7
100
AcDbSymbolTable
70
0
0
ENDTAB
0
TABLE
2
APPID
5
9
100
AcDbSymbolTable
70
2
0
APPID
5
12
100
AcDbSymbolTableRecord
100
AcDbRegAppTableRecord
2
ACAD
70
0
0
ENDTAB
0
TABLE
2
DIMSTYLE
5
A
100
AcDbSymbolTable
70
1
0
ENDTAB
0
TABLE
2
BLOCK_RECORD
5
1
100
AcDbSymbolTable
70
1
0
BLOCK_RECORD
5
1F
100
AcDbSymbolTableRecord
100
AcDbBlockTableRecord
2
*MODEL_SPACE
0
BLOCK_RECORD
5
1B
100
AcDbSymbolTableRecord
100
AcDbBlockTableRecord
2
*PAPER_SPACE
0
ENDTAB
0
ENDSEC
0
SECTION
2
BLOCKS
0
BLOCK
5
20
100
AcDbEntity
100
AcDbBlockBegin
2
*MODEL_SPACE
0
ENDBLK
5
21
100
AcDbEntity
100
AcDbBlockEnd
0
BLOCK
5
1C
100
AcDbEntity
100
AcDbBlockBegin
2
*PAPER_SPACE
0
ENDBLK
5
1D
100
AcDbEntity
100
AcDbBlockEnd
0
ENDSEC
0
SECTION
2
ENTITIES
0
ARC
5
100
100
AcDbEntity
8
0
100
AcDbCircle
10
13.185447761194027
20
65.716742344419174
30
0
40
0.49999999999999573
210
-0
220
0
230
1
100
AcDbArc
50
-78.811944248677179
51
52.120780325476773
0
ARC
5
101
100
AcDbEntity
8
0
100
AcDbCircle
10
11.850000000000023
20
63.999999999999986
30
0
40
2.6749999999999945
210
0
220
-0
230
1
100
AcDbArc
50
52.120780325478577
51
89.999999999999972
0
LINE
5
102
100
AcDbEntity
8
0
100
AcDbLine
10
11.850000000000025
20
66.674999999999969
30
0
11
-235.68750000000009
21
66.674999999999969
31
0
0
ARC
5
103
100
AcDbEntity
8
0
100
AcDbCircle
10
-235.68750000000009
20
63.99999999999995
30
0
40
2.6750000000000185
210
0
220
-0
230
1
100
AcDbArc
50
90
51
127.87921967452066
0
ARC
5
104
100
AcDbEntity
8
0
100
AcDbCircle
10
-237.02294776119408
20
65.716742344419146
30
0
40
0.50000000000002176
210
0
220
0
230
1
100
AcDbArc
50
127.87921967452091
51
258.81194424867255
0
ARC
5
105
100
AcDbEntity
8
0
100
AcDbCircle
10
-237.36249999999998
20
63.99999999999995
30
0
40
1.2499999999999791
210
0
220
0
230
1
100
AcDbArc
50
-78.811944248679566
51
78.811944248682664
0
ARC
5
106
100
AcDbEntity
8
0
100
AcDbCircle
10
-237.02294776119408
20
62.28325765558079
30
0
40
0.49999999999998884
210
0
220
0
230
1
100
AcDbArc
50
101.18805575132046
51
232.12078032548015
0
ARC
5
107
100
AcDbEntity
8
0
100
AcDbCircle
10
-235.68750000000009
20
63.99999999999995
30
0
40
2.6749999999999563
210
0
220
0
230
1
100
AcDbArc
50
232.12078032547907
51
270
0
LINE
5
108
100
AcDbEntity
8
0
100
AcDbLine
10
-235.68750000000009
20
61.324999999999967
30
0
11
-234.86250000000007
21
61.325000000000003
31
0
0
ARC
5
109
100
AcDbEntity
8
0
100
AcDbCircle
10
-234.8625000000001
20
59.824999999999918
30
0
40
1.5000000000000924
210
0
220
-0
230
1
100
AcDbArc
50
0
51
89.99999999999892
0
LINE
5
110
100
AcDbEntity
8
0
100
AcDbLine
10
-233.36250000000001
20
59.824999999999982
30
0
11
-233.36250000000004
21
-2.6750000000000007
31
0
0
ARC
5
111
100
AcDbEntity
8
0
100
AcDbCircle
10
-234.86250000000001
20
-2.6750000000000087
30
0
40
1.5000000000000313
210
0
220
0
230
1
100
AcDbArc
50
-90
51
0
0
LINE
5
112
100
AcDbEntity
8
0
100
AcDbLine
10
-234.86250000000001
20
-4.1750000000000398
30
0
11
-235.68750000000006
21
-4.1750000000000398
31
0
0
ARC
5
113
100
AcDbEntity
8
0
100
AcDbCircle
10
-235.68750000000006
20
-6.8500000000000405
30
0
40
2.6750000000000007
210
0
220
-0
230
1
100
AcDbArc
50
90
51
127.87921967452186
0
ARC
5
114
100
AcDbEntity
8
0
100
AcDbCircle
10
-237.02294776119405
20
-5.1332576555808629
30
0
40
0.5000000000000191
210
0
220
0
230
1
100
AcDbArc
50
127.87921967452607
51
258.81194424867368
0
ARC
5
115
100
AcDbEntity
8
0
100
AcDbCircle
10
-237.36249999999998
20
-6.8500000000000334
30
0
40
1.250000000000036
210
-0
220
0
230
1
100
AcDbArc
50
-78.811944248678756
51
78.811944248680717
0
ARC
5
116
100
AcDbEntity
8
0
100
AcDbCircle
10
-237.02294776119405
20
-8.5667423444192181
30
0
40
0.4999999999999627
210
0
220
0
230
1
100
AcDbArc
50
101.18805575132103
51
232.12078032547791
0
ARC
5
117
100
AcDbEntity
8
0
100
AcDbCircle
10
-235.68750000000006
20
-6.8500000000000405
30
0
40
2.6749999999999456
210
0
220
0
230
1
100
AcDbArc
50
232.12078032547888
51
270
0
LINE
5
118
100
AcDbEntity
8
0
100
AcDbLine
10
-235.68750000000006
20
-9.5250000000000323
30
0
11
11.850000001181655
21
-9.5250000000000146
31
0
0
ARC
5
119
100
AcDbEntity
8
0
100
AcDbCircle
10
11.849999999605743
20
-6.8500000000010974
30
0
40
2.6749999999989171
210
-0
220
0
230
1
100
AcDbArc
50
270.00000003375447
51
307.87921976709669
0
ARC
5
120
100
AcDbEntity
8
0
100
AcDbCircle
10
13.185447764541181
20
-8.5667423435064105
30
0
40
0.49999999999999201
210
-0
220
0
230
1
100
AcDbArc
50
-52.120780232903314
51
78.811944360388225
0
ARC
5
121
100
AcDbEntity
8
0
100
AcDbCircle
10
13.524999999999991
20
-6.8499999984251936
30
0
40
1.2499999999999909
210
0
220
0
230
1
100
AcDbArc
50
101.18805574742268
51
258.81194436038817
0
ARC
5
122
100
AcDbEntity
8
0
100
AcDbCircle
10
13.18544776131084
20
-5.1332576539829144
30
0
40
0.50000000000000544
210
-0
220
0
230
1
100
AcDbArc
50
-78.811944252574193
51
52.120780340713559
0
ARC
5
123
100
AcDbEntity
8
0
100
AcDbCircle
10
11.849999999605743
20
-6.8500000000010974
30
0
40
2.6750000015759072
210
0
220
-0
230
1
100
AcDbArc
50
52.12078034071471
51
90
0
LINE
5
124
100
AcDbEntity
8
0
100
AcDbLine
10
11.849999999605743
20
-4.1749999984251929
30
0
11
11.024999999999991
21
-4.1750000000000043
31
0
0
ARC
5
125
100
AcDbEntity
8
0
100
AcDbCircle
10
11.024999999999991
20
-2.6750000000000012
30
0
40
1.4999999999999858
210
0
220
0
230
1
100
AcDbArc
50
180
51
270
0
LINE
5
126
100
AcDbEntity
8
0
100
AcDbLine
10
9.5250000000000057
20
-2.6750000000000007
30
0
11
9.5250000000000057
21
59.825000000000017
31
0
0
ARC
5
127
100
AcDbEntity
8
0
100
AcDbCircle
10
11.024999999999993
20
59.82500000000001
30
0
40
1.4999999999999947
210
0
220
0
230
1
100
AcDbArc
50
90.000000000000071
51
180
0
LINE
5
128
100
AcDbEntity
8
0
100
AcDbLine
10
11.024999999999991
20
61.325000000000003
30
0
11
11.849999999999987
21
61.325000000000003
31
0
0
ARC
5
129
100
AcDbEntity
8
0
100
AcDbCircle
10
11.850000000000023
20
63.999999999999986
30
0
40
2.6749999999999829
210
0
220
0
230
1
100
AcDbArc
50
269.9999999999992
51
307.87921967452075
0
ARC
5
130
100
AcDbEntity
8
0
100
AcDbCircle
10
13.185447761194027
20
62.283257655580826
30
0
40
0.50000000000000833
210
-0
220
0
230
1
100
AcDbArc
50
-52.120780325482137
51
78.811944248681158
0
ARC
5
131
100
AcDbEntity
8
0
100
AcDbCircle
10
13.52499999999999
20
63.999999999999986
30
0
40
1.2500000000000202
210
0
220
0
230
1
100
AcDbArc
50
101.18805575132173
51
258.81194424867641
0
LWPOLYLINE
5
132
100
AcDbEntity
8
0
100
AcDbPolyline
90
8
70
1
43
0.0
10
-137.19791466500004
20
25.549999999999979
42
0.41421356237307422
10
-137.69791466500004
20
26.049999999999986
10
-150.69791466500004
20
26.049999999999972
42
0.41421356237313406
10
-151.19791466500004
20
25.549999999999976
10
-151.19791466500004
20
12.549999999999955
42
0.41421356237307683
10
-150.6979146650001
20
12.049999999999974
10
-137.69791466500004
20
12.049999999999974
42
0.41421356237313145
10
-137.19791466500004
20
12.549999999999976
0
LWPOLYLINE
5
133
100
AcDbEntity
8
0
100
AcDbPolyline
90
8
70
1
43
0.0
10
-169.71874766500002
20
12.549999999999955
10
-169.71874766500002
20
25.549999999999976
42
-0.41421356237313928
10
-169.218747665
20
26.049999999999972
10
-156.21874766500002
20
26.049999999999983
42
-0.41421356237313667
10
-155.71874766500002
20
25.549999999999976
10
-155.71874766500002
20
12.549999999999972
42
-0.41421356237313406
10
-156.21874766500002
20
12.049999999999969
10
-169.218747665
20
12.049999999999931
42
-0.41421356237314577
0
LWPOLYLINE
5
134
100
AcDbEntity
8
0
100
AcDbPolyline
90
8
70
1
43
0.0
10
-198.28749999999999
20
50.14999999999997
42
0.41421356237298579
10
-197.78750000000002
20
50.649999999999963
10
-197.78750000000002
20
63.650000000000006
42
0.4142135623730846
10
-198.28749999999999
20
64.150000000000034
10
-213.66874999999999
20
64.149999999999991
42
0.41421356237300139
10
-214.16875000000002
20
63.650000000000006
10
-214.16875000000002
20
50.649999999999963
42
0.41421356237313667
10
-213.66874999999999
20
50.149999999999949
0
LWPOLYLINE
5
135
100
AcDbEntity
8
0
100
AcDbPolyline
90
8
70
1
43
0.0
10
-165.24765625000001
20
31.099999999999962
42
0.41421356237320167
10
-164.74765625000003
20
31.599999999999969
10
-164.74765625000003
20
44.599999999999973
42
0.41421356237304818
10
-165.24765625000001
20
45.09999999999998
10
-178.24765625000001
20
45.099999999999966
42
0.41421356237317308
10
-178.74765625000003
20
44.599999999999973
10
-178.74765625000003
20
31.599999999999969
42
0.41421356237316787
10
-178.24765625000001
20
31.099999999999991
0
LWPOLYLINE
5
136
100
AcDbEntity
8
0
100
AcDbPolyline
90
8
70
1
43
0.0
10
-183.926875
20
-6.500000000000032
10
-183.92687500000005
20
6.4999999999999662
42
-0.41421356237308204
10
-183.426875
20
6.9999999999999734
10
-170.426875
20
6.9999999999999645
42
-0.41421356237313017
10
-169.926875
20
6.499999999999968
10
-169.92687500000005
20
-6.5000000000000302
42
-0.41421356237300594
10
-170.426875
20
-7.0000000000000302
10
-183.426875
20
-7.0000000000000089
42
-0.41421356237316009
0
LWPOLYLINE
5
137
100
AcDbEntity
8
0
100
AcDbPolyline
90
8
70
1
43
0.0
10
-203.43125000000003
20
11.349999999999977
10
-203.43125000000001
20
24.349999999999984
42
-0.4142135623730378
10
-202.93125000000003
20
24.84999999999998
10
-196.93125000000009
20
24.849999999999955
42
-0.41421356237315748
10
-196.43125000000009
20
24.349999999999984
10
-196.43125000000009
20
11.349999999999977
42
-0.41421356237313017
10
-196.93125000000009
20
10.849999999999977
10
-202.93125000000003
20
10.849999999999975
42
-0.41421356237313273
0
LWPOLYLINE
5
138
100
AcDbEntity
8
0
100
AcDbPolyline
90
8
70
1
43
0.0
10
-20.406250000000057
20
43.399999999999999
10
-20.40625000000005
20
30.399999999999977
42
-0.41421356237310542
10
-20.906250000000028
20
29.899999999999981
10
-26.906250000000043
20
29.899999999999999
42
-0.41421356237310025
10
-27.406250000000014
20
30.399999999999977
10
-27.406249999999996
20
43.399999999999999
42
-0.41421356237304302
10
-26.906250000000043
20
43.900000000000006
10
-20.906250000000028
20
43.899999999999991
42
-0.41421356237309503
0
LWPOLYLINE
5
139
100
AcDbEntity
8
0
100
AcDbPolyline
90
8
70
1
43
0.0
10
-0.64374999999998295
20
12.050000000000001
42
0.41421356237309265
10
-0.14374999999998
20
12.549999999999999
10
-0.14375000000001142
20
25.549999999999997
42
0.41421356237308571
10
-0.64374999999998295
20
26.049999999999962
10
-13.643750000000026
20
26.04999999999999
42
0.41421356237309115
10
-14.143749999999997
20
25.549999999999994
10
-14.143749999999997
20
12.549999999999994
42
0.41421356237309503
10
-13.643750000000026
20
12.049999999999997
0
LWPOLYLINE
5
140
100
AcDbEntity
8
0
100
AcDbPolyline
90
8
70
1
43
0.0
10
-46.981250000000045
20
64.150000000000006
10
-33.981250000000003
20
64.150000000000006
42
-0.41421356237309503
10
-33.481250000000031
20
63.65000000000002
10
-33.481249999999996
20
50.649999999999977
42
-0.41421356237307422
10
-33.981250000000003
20
50.149999999999991
10
-46.981250000000045
20
50.150000000000034
42
-0.41421356237310025
10
-47.481250000000017
20
50.649999999999977
10
-47.481250000000031
20
63.65000000000002
42
-0.41421356237307422
0
LWPOLYLINE
5
141
100
AcDbEntity
8
0
100
AcDbPolyline
90
8
70
1
43
0.0
10
6.4999999999999858
20
50.149999999999991
10
-6.4999999999999858
20
50.149999999999949
42
-0.41421356237308593
10
-7.0000000000000284
20
50.649999999999991
10
-6.9999999999999885
20
63.65000000000002
42
-0.41421356237310281
10
-6.4999999999999858
20
64.150000000000034
10
6.4999999999999858
20
64.150000000000063
42
-0.41421356237308593
10
7.0000000000000284
20
63.65000000000002
10
6.9999999999999742
20
50.649999999999991
42
-0.41421356237311519
0
LWPOLYLINE
5
142
100
AcDbEntity
8
0
100
AcDbPolyline
90
8
70
1
43
0.0
10
-86.474218749999991
20
31.599999999999987
10
-86.474218749999991
20
44.599999999999994
42
-0.41421356237315227
10
-85.974218749999977
20
45.09999999999998
10
-72.974218749999977
20
45.099999999999966
42
-0.41421356237313667
10
-72.474218750000006
20
44.599999999999994
10
-72.474218749999991
20
31.599999999999987
42
-0.41421356237310802
10
-72.974218749999977
20
31.09999999999998
10
-85.974218749999977
20
31.100000000000001
42
-0.41421356237314444
0
LWPOLYLINE
5
143
100
AcDbEntity
8
0
100
AcDbPolyline
90
8
70
1
43
0.0
10
-95.63187499999998
20
6.4999999999999769
10
-95.63187499999998
20
-6.5000000000000213
42
-0.41421356237309503
10
-96.131875000000022
20
-7.0000000000000195
10
-109.13187499999999
20
-7.0000000000000293
42
-0.4142135623730957
10
-109.63187500000001
20
-6.5000000000000213
10
-109.63187500000001
20
6.4999999999999751
42
-0.4142135623730957
10
-109.13187499999999
20
6.9999999999999822
10
-96.131875000000022
20
7.0000000000000213
42
-0.41421356237309631
0
LWPOLYLINE
5
144
100
AcDbEntity
8
0
100
AcDbPolyline
90
8
70
1
43
0.0
10
-26.072916665000037
20
25.549999999999994
10
-26.072916664999994
20
12.54999999999999
42
-0.41421356237309243
10
-26.572916665000008
20
12.049999999999986
10
-39.57291666499998
20
12.05000000000002
42
-0.41421356237309115
10
-40.072916664999951
20
12.549999999999986
10
-40.072916665000022
20
25.54999999999999
42
-0.41421356237313928
10
-39.57291666499998
20
26.049999999999986
10
-26.572916665000008
20
26.049999999999947
42
-0.41421356237309503
0
LWPOLYLINE
5
145
100
AcDbEntity
8
0
100
AcDbPolyline
90
8
70
1
43
0.0
10
3.59375
20
43.399999999999999
42
0.41421356237308593
10
3.0937499999999574
20
43.900000000000041
10
-2.9062499999999858
20
43.900000000000006
42
0.41421356237310314
10
-3.4062500000000284
20
43.399999999999999
10
-3.4062500000000284
20
30.399999999999988
42
0.41421356237309404
10
-2.9062499999999858
20
29.899999999999952
10
3.0937499999999574
20
29.899999999999988
42
0.41421356237314672
10
3.59375
20
30.399999999999988
0
LWPOLYLINE
5
146
100
AcDbEntity
8
0
100
AcDbPolyline
90
8
70
1
43
0.0
10
-58.59374966499999
20
12.549999999999969
42
0.41421356237308593
10
-58.093749665000018
20
12.050000000000011
10
-45.093749664999976
20
12.049999999999983
42
0.41421356237304691
10
-44.593749665000004
20
12.549999999999986
10
-44.593749665000004
20
25.54999999999999
42
0.41421356237308721
10
-45.093749665000047
20
26.050000000000033
10
-58.093749665000018
20
26.049999999999986
42
0.41421356237310542
10
-58.593749665000061
20
25.54999999999999
0
LWPOLYLINE
5
147
100
AcDbEntity
8
0
100
AcDbPolyline
90
8
70
1
43
0.0
10
-35.564843749999966
20
44.599999999999994
42
0.41421356237308721
10
-36.064843750000009
20
45.100000000000037
10
-49.06484374999998
20
45.09999999999998
42
0.41421356237312623
10
-49.564843750000023
20
44.599999999999994
10
-49.564843750000023
20
31.599999999999987
42
0.41421356237310025
10
-49.06484374999998
20
31.09999999999998
10
-36.064843750000009
20
31.09999999999998
42
0.41421356237310025
10
-35.564843749999966
20
31.599999999999987
0
LWPOLYLINE
5
148
100
AcDbEntity
8
0
100
AcDbPolyline
90
8
70
1
43
0.0
10
-9.6687500000000171
20
63.65000000000002
42
0.41421356237309631
10
-10.168749999999989
20
64.149999999999991
10
-25.549999999999997
20
64.150000000000006
42
0.41421356237308204
10
-26.049999999999986
20
63.65000000000002
10
-26.049999999999969
20
50.649999999999977
42
0.41421356237310281
10
-25.549999999999997
20
50.149999999999991
10
-10.168749999999989
20
50.149999999999991
42
0.41421356237308593
10
-9.6687500000000171
20
50.649999999999977
0
LWPOLYLINE
5
149
100
AcDbEntity
8
0
100
AcDbPolyline
90
8
70
1
43
0.0
10
-104.92890625000001
20
31.59999999999998
10
-104.92890625000003
20
44.599999999999973
42
-0.41421356237312623
10
-104.42890625000004
20
45.09999999999998
10
-91.428906249999997
20
45.099999999999966
42
-0.41421356237311585
10
-90.928906250000026
20
44.599999999999994
10
-90.928906249999983
20
31.599999999999987
42
-0.41421356237312101
10
-91.428906249999997
20
31.09999999999998
10
-104.42890625000004
20
31.099999999999966
42
-0.41421356237307683
0
LWPOLYLINE
5
150
100
AcDbEntity
8
0
100
AcDbPolyline
90
8
70
1
43
0.0
10
-165.41875000000005
20
49.450000000000017
42
0.41421356237314705
10
-164.91875000000007
20
48.950000000000031
10
-158.9187500000001
20
48.950000000000045
42
0.41421356237315748
10
-158.4187500000001
20
49.450000000000017
10
-158.41875000000005
20
62.450000000000031
42
0.41421356237313667
10
-158.9187500000001
20
62.950000000000031
10
-164.91875000000005
20
62.950000000000031
42
0.41421356237323032
10
-165.41875000000005
20
62.450000000000031
0
LWPOLYLINE
5
151
100
AcDbEntity
8
0
100
AcDbPolyline
90
8
70
1
43
0.0
10
-218.93125000000001
20
12.549999999999969
10
-218.93125000000001
20
25.549999999999965
42
-0.41421356237313145
10
-218.43125000000001
20
26.049999999999969
10
-205.43125000000003
20
26.050000000000043
42
-0.41421356237302998
10
-204.93125000000006
20
25.549999999999969
10
-204.93125000000006
20
12.549999999999972
42
-0.41421356237307422
10
-205.43125000000003
20
12.049999999999974
10
-218.43125000000001
20
12.049999999999976
42
-0.41421356237312756
0
LWPOLYLINE
5
152
100
AcDbEntity
8
0
100
AcDbPolyline
90
14
70
1
43
0.0
10
-197.20234375000001
20
43.849999999999994
10
-197.20234375000001
20
44.599999999999994
42
-0.41421356237313667
10
-196.70234375000001
20
45.099999999999994
10
-183.70234374999995
20
45.100000000000016
42
-0.4142135623730846
10
-183.20234374999998
20
44.599999999999994
10
-183.20234374999998
20
31.599999999999987
42
-0.41421356237320689
10
-183.70234374999998
20
31.099999999999991
10
-191.66875000000005
20
31.099999999999991
10
-191.66875000000005
20
30.399999999999959
42
-0.41421356237307422
10
-192.16875000000002
20
29.899999999999963
10
-198.16874999999999
20
29.89999999999991
42
-0.41421356237308982
10
-198.66875000000007
20
30.399999999999977
10
-198.66875000000005
20
43.349999999999994
42
-0.41421356237307422
10
-198.16874999999999
20
43.849999999999994
0
LWPOLYLINE
5
153
100
AcDbEntity
8
0
100
AcDbPolyline
90
8
70
1
43
0.0
10
-132.17708166500003
20
26.049999999999976
42
0.41421356237313406
10
-132.67708166500003
20
25.549999999999979
10
-132.67708166500003
20
12.549999999999958
42
0.41421356237311846
10
-132.17708166500003
20
12.049999999999983
10
-119.17708166500006
20
12.049999999999974
42
0.41421356237314316
10
-118.67708166500002
20
12.549999999999976
10
-118.67708166500002
20
25.549999999999979
42
0.41421356237306639
10
-119.17708166500006
20
26.049999999999986
0
LWPOLYLINE
5
154
100
AcDbEntity
8
0
100
AcDbPolyline
90
8
70
1
43
0.0
10
-132.77937500000002
20
6.4999999999999725
42
0.41421356237307616
10
-133.27937499999996
20
6.9999999999999831
10
-146.27937500000004
20
6.9999999999999769
42
0.41421356237300982
10
-146.77937499999999
20
6.4999999999999698
10
-146.77937499999999
20
-6.5000000000000258
42
0.41421356237316137
10
-146.27937500000004
20
-6.9999999999999973
10
-133.27937499999996
20
-7.0000000000000266
42
0.41421356237310025
10
-132.77937500000002
20
-6.5000000000000258
0
LWPOLYLINE
5
155
100
AcDbEntity
8
0
100
AcDbPolyline
90
8
70
1
43
0.0
10
-123.38359374999999
20
31.59999999999998
10
-123.38359374999997
20
44.599999999999973
42
-0.41421356237312623
10
-122.88359374999999
20
45.09999999999998
10
-109.88359375000002
20
45.09999999999998
42
-0.41421356237313667
10
-109.38359374999997
20
44.599999999999973
10
-109.38359374999997
20
31.59999999999998
42
-0.41421356237311846
10
-109.88359375000002
20
31.099999999999973
10
-122.88359374999999
20
31.099999999999962
42
-0.41421356237312101
0
LWPOLYLINE
5
156
100
AcDbEntity
8
0
100
AcDbPolyline
90
8
70
1
43
0.0
10
-128.205625
20
-6.5000000000000258
10
-128.20562500000003
20
6.4999999999999725
42
-0.41421356237312235
10
-127.705625
20
6.9999999999999796
10
-114.705625
20
6.9999999999999751
42
-0.41421356237309115
10
-114.20562500000003
20
6.4999999999999751
10
-114.20562500000003
20
-6.5000000000000213
42
-0.41421356237312884
10
-114.705625
20
-7.000000000000024
10
-127.705625
20
-6.9999999999999769
42
-0.41421356237312495
0
LWPOLYLINE
5
157
100
AcDbEntity
8
0
100
AcDbPolyline
90
8
70
1
43
0.0
10
-189.00062500000001
20
-7.0000000000000329
42
0.41421356237308071
10
-188.50062500000001
20
-6.500000000000032
10
-188.50062500000001
20
6.4999999999999662
42
0.41421356237313472
10
-189.00062500000001
20
6.9999999999999822
10
-202.00062500000001
20
6.9999999999999707
42
0.41421356237299095
10
-202.50062499999999
20
6.4999999999999636
10
-202.50062499999999
20
-6.5000000000000346
42
0.4142135623730534
10
-202.00062500000001
20
-7.0000000000000444
0
LWPOLYLINE
5
158
100
AcDbEntity
8
0
100
AcDbPolyline
90
8
70
1
43
0.0
10
-128.33828124999999
20
31.099999999999973
42
0.41421356237313928
10
-127.83828124999999
20
31.59999999999998
10
-127.83828125000002
20
44.599999999999973
42
0.41421356237315748
10
-128.33828124999999
20
45.099999999999966
10
-141.33828125000002
20
45.09999999999998
42
0.41421356237312101
10
-141.83828125000005
20
44.599999999999973
10
-141.83828125000005
20
31.59999999999998
42
0.41421356237310025
10
-141.33828125000002
20
31.09999999999998
0
LWPOLYLINE
5
159
100
AcDbEntity
8
0
100
AcDbPolyline
90
8
70
1
43
0.0
10
-226.93125000000003
20
24.849999999999977
42
0.41421356237307944
10
-227.43125000000006
20
24.349999999999969
10
-227.43125000000006
20
11.349999999999962
42
0.41421356237307549
10
-226.93125000000003
20
10.849999999999946
10
-220.93125000000003
20
10.849999999999964
42
0.41421356237317175
10
-220.43125000000003
20
11.349999999999962
10
-220.43125000000003
20
24.349999999999969
42
0.41421356237314444
10
-220.93125000000003
20
24.849999999999973
0
LWPOLYLINE
5
160
100
AcDbEntity
8
0
100
AcDbPolyline
90
8
70
1
43
0.0
10
-174.23958066500006
20
25.549999999999976
10
-174.23958066500006
20
12.549999999999972
42
-0.41421356237313928
10
-174.73958066500006
20
12.049999999999969
10
-187.73958066500006
20
12.049999999999974
42
-0.41421356237309764
10
-188.23958066500006
20
12.549999999999951
10
-188.23958066500006
20
25.549999999999969
42
-0.41421356237313928
10
-187.73958066500003
20
26.049999999999969
10
-174.73958066500006
20
26.04999999999999
42
-0.41421356237314189
0
LWPOLYLINE
5
161
100
AcDbEntity
8
0
100
AcDbPolyline
90
8
70
1
43
0.0
10
-58.418750000000017
20
62.449999999999974
42
0.41421356237315748
10
-58.91875000000006
20
62.94999999999996
10
-64.918750000000045
20
62.94999999999996
42
0.41421356237304302
10
-65.418750000000045
20
62.449999999999974
10
-65.418750000000045
20
49.449999999999967
42
0.41421356237307944
10
-64.918750000000003
20
48.94999999999996
10
-58.91875000000006
20
48.949999999999996
42
0.41421356237314189
10
-58.418750000000017
20
49.449999999999967
0
LWPOLYLINE
5
162
100
AcDbEntity
8
0
100
AcDbPolyline
90
8
70
1
43
0.0
10
-100.15624866500005
20
25.549999999999983
10
-100.15624866500005
20
12.549999999999981
42
-0.41421356237313145
10
-100.65624866500002
20
12.049999999999979
10
-113.65624866500006
20
12.049999999999983
42
-0.41421356237309764
10
-114.15624866500004
20
12.549999999999958
10
-114.15624866500004
20
25.549999999999979
42
-0.41421356237313667
10
-113.65624866500002
20
26.049999999999976
10
-100.65624866500002
20
26.04999999999999
42
-0.41421356237307422
0
LWPOLYLINE
5
163
100
AcDbEntity
8
0
100
AcDbPolyline
90
8
70
1
43
0.0
10
-53.910625000000039
20
-6.5000000000000169
42
0.41421356237308593
10
-53.410624999999996
20
-7.0000000000000622
10
-40.410625000000024
20
-7.0000000000000151
42
0.41421356237309437
10
-39.910624999999982
20
-6.5000000000000124
10
-39.910624999999982
20
6.499999999999984
42
0.41421356237308332
10
-40.410625000000024
20
6.9999999999999796
10
-53.410624999999996
20
6.9999999999999885
42
0.4142135623731607
10
-53.910625000000046
20
6.4999999999999813
0
LWPOLYLINE
5
164
100
AcDbEntity
8
0
100
AcDbPolyline
90
8
70
1
43
0.0
10
2.2375000000000256
20
6.4999999999999876
42
0.41421356237309243
10
1.7374999999999829
20
7.0000000000000284
10
-11.262499999999989
20
6.9999999999999858
42
0.41421356237310086
10
-11.762499999999976
20
6.4999999999999858
10
-11.76249999999996
20
-6.5000000000000124
42
0.4142135623730937
10
-11.262499999999989
20
-7.0000000000000107
10
1.7374999999999829
20
-7.0000000000000107
42
0.41421356237308982
10
2.2374999999999945
20
-6.5000000000000107
0
LWPOLYLINE
5
165
100
AcDbEntity
8
0
100
AcDbPolyline
90
8
70
1
43
0.0
10
-35.336874999999992
20
-6.5000000000000142
42
0.41421356237309631
10
-34.83687500000002
20
-6.9999999999999885
10
-21.836874999999978
20
-7.0000000000000107
42
0.41421356237310281
10
-21.336875000000006
20
-6.5000000000000124
10
-21.336875000000006
20
6.4999999999999858
42
0.41421356237309698
10
-21.836874999999978
20
6.9999999999999618
10
-34.83687500000002
20
6.9999999999999911
42
0.41421356237309243
10
-35.336875000000035
20
6.499999999999984
0
LWPOLYLINE
5
166
100
AcDbEntity
8
0
100
AcDbPolyline
90
8
70
1
43
0.0
10
-18.90625
20
31.599999999999998
10
-18.906250000000036
20
44.599999999999994
42
-0.41421356237310542
10
-18.406250000000028
20
45.099999999999994
10
-5.4062499999999858
20
45.099999999999966
42
-0.41421356237309631
10
-4.9062500000000142
20
44.599999999999994
10
-4.9062499999999716
20
31.599999999999994
42
-0.41421356237308332
10
-5.4062499999999858
20
31.099999999999991
10
-18.406250000000028
20
31.099999999999962
42
-0.41421356237304818
0
LWPOLYLINE
5
167
100
AcDbEntity
8
0
100
AcDbPolyline
90
14
70
1
43
0.0
10
-223.19375000000002
20
45.099999999999966
42
0.41421356237305862
10
-223.69375000000005
20
44.599999999999973
10
-223.69375000000005
20
31.599999999999969
42
0.4142135623730846
10
-223.19375000000002
20
31.099999999999962
10
-222.66874999999999
20
31.099999999999962
10
-222.66874999999999
20
30.399999999999959
42
0.41421356237305601
10
-222.16875000000002
20
29.899999999999945
10
-216.16875000000007
20
29.899999999999952
42
0.41421356237313928
10
-215.66874999999996
20
30.399999999999959
10
-215.66874999999999
20
31.099999999999962
10
-200.66874999999999
20
31.099999999999962
42
0.41421356237314966
10
-200.16874999999999
20
31.599999999999969
10
-200.16874999999999
20
44.599999999999973
42
0.41421356237313667
10
-200.66874999999999
20
45.09999999999998
0
LWPOLYLINE
5
168
100
AcDbEntity
8
0
100
AcDbPolyline
90
8
70
1
43
0.0
10
-68.019531249999972
20
31.599999999999987
10
-68.019531249999972
20
44.599999999999994
42
-0.41421356237310542
10
-67.51953125
20
45.09999999999998
10
-54.519531249999957
20
45.099999999999966
42
-0.41421356237310542
10
-54.019531249999986
20
44.599999999999994
10
-54.019531249999972
20
31.599999999999987
42
-0.41421356237309503
10
-54.519531249999957
20
31.09999999999998
10
-67.51953125
20
31.099999999999977
42
-0.41421356237312884
0
LWPOLYLINE
5
169
100
AcDbEntity
8
0
100
AcDbPolyline
90
8
70
1
43
0.0
10
-77.058125000000004
20
6.4999999999999787
10
-77.058125000000018
20
-6.5000000000000169
42
-0.41421356237302737
10
-77.558124999999976
20
-7.0000000000000195
10
-90.558125000000018
20
-7
42
-0.41421356237309892
10
-91.05812499999999
20
-6.5000000000000213
10
-91.058124999999976
20
6.4999999999999769
42
-0.4142135623731022
10
-90.558125000000018
20
6.999999999999984
10
-77.558124999999976
20
6.9999999999999343
42
-0.41421356237308526
0
LWPOLYLINE
5
170
100
AcDbEntity
8
0
100
AcDbPolyline
90
8
70
1
43
0.0
10
-58.984375
20
-7.0000000000000151
42
0.41421356237310281
10
-58.484375000000014
20
-6.5000000000000169
10
-58.484375000000028
20
6.4999999999999813
42
0.41421356237309764
10
-58.984375
20
6.9999999999999556
10
-71.984375
20
6.9999999999999858
42
0.41421356237308526
10
-72.484375000000014
20
6.4999999999999787
10
-72.484375000000014
20
-6.5000000000000195
42
0.41421356237310675
10
-71.984375
20
-6.9999999999999885
0
LWPOLYLINE
5
171
100
AcDbEntity
8
0
100
AcDbPolyline
90
8
70
1
43
0.0
10
-77.114582665000029
20
12.549999999999963
10
-77.114582665000029
20
25.549999999999983
42
-0.41421356237315227
10
-76.614582664999986
20
26.049999999999983
10
-63.614582665000015
20
26.050000000000033
42
-0.4142135623730846
10
-63.114582664999972
20
25.54999999999999
10
-63.114582664999972
20
12.549999999999986
42
-0.41421356237315354
10
-63.614582665000015
20
12.049999999999983
10
-76.614582664999986
20
12.049999999999946
42
-0.41421356237307033
0
LWPOLYLINE
5
172
100
AcDbEntity
8
0
100
AcDbPolyline
90
8
70
1
43
0.0
10
-82.135415664999982
20
12.049999999999979
10
-95.135415665000025
20
12.049999999999986
42
-0.41421356237309764
10
-95.635415664999996
20
12.549999999999963
10
-95.635415665000039
20
25.549999999999983
42
-0.41421356237313667
10
-95.135415665000025
20
26.049999999999983
10
-82.135415664999982
20
26.04999999999999
42
-0.41421356237307422
10
-81.635415665000011
20
25.549999999999983
10
-81.635415665000011
20
12.549999999999981
42
-0.41421356237313145
0
LWPOLYLINE
5
173
100
AcDbEntity
8
0
100
AcDbPolyline
90
8
70
1
43
0.0
10
-105.41875000000005
20
50.14999999999997
10
-118.41875000000002
20
50.149999999999977
42
-0.41421356237315227
10
-118.91875000000002
20
50.649999999999977
10
-118.91875000000006
20
63.650000000000006
42
-0.41421356237312101
10
-118.41875000000002
20
64.150000000000006
10
-105.41875000000005
20
64.149999999999949
42
-0.41421356237312623
10
-104.91875000000005
20
63.650000000000006
10
-104.91875000000002
20
50.649999999999977
42
-0.41421356237310542
0
LWPOLYLINE
5
174
100
AcDbEntity
8
0
100
AcDbPolyline
90
8
70
1
43
0.0
10
-212.07499999999999
20
6.4999999999999609
42
0.4142135623731269
10
-212.57499999999999
20
6.999999999999952
10
-225.57500000000002
20
6.9999999999999618
42
0.41421356237304169
10
-226.07500000000002
20
6.4999999999999609
10
-226.07500000000002
20
-6.5000000000000391
42
0.41421356237311519
10
-225.57500000000002
20
-7.0000000000000595
10
-212.57499999999999
20
-7.0000000000000355
42
0.41421356237310802
10
-212.07499999999996
20
-6.5000000000000346
0
LWPOLYLINE
5
175
100
AcDbEntity
8
0
100
AcDbPolyline
90
8
70
1
43
0.0
10
-164.85312500000003
20
6.9999999999999751
42
0.41421356237314122
10
-165.35312500000003
20
6.499999999999968
10
-165.35312500000003
20
-6.5000000000000302
42
0.41421356237314122
10
-164.85312500000003
20
-7.000000000000024
10
-151.85312500000003
20
-7.0000000000000284
42
0.41421356237298901
10
-151.35312500000003
20
-6.5000000000000284
10
-151.35312500000001
20
6.4999999999999698
42
0.41421356237314577
10
-151.85312500000003
20
6.9999999999999618
0
LWPOLYLINE
5
176
100
AcDbEntity
8
0
100
AcDbPolyline
90
8
70
1
43
0.0
10
-160.29296875
20
31.59999999999998
42
0.41421356237316787
10
-159.79296875
20
31.099999999999991
10
-146.79296874999994
20
31.099999999999973
42
0.4142135623731783
10
-146.29296875000006
20
31.59999999999998
10
-146.29296875000006
20
44.599999999999973
42
0.41421356237308982
10
-146.79296874999994
20
45.099999999999966
10
-159.79296875
20
45.09999999999998
42
0.41421356237316265
10
-160.29296875
20
44.599999999999973
0
LWPOLYLINE
5
177
100
AcDbEntity
8
0
100
AcDbPolyline
90
8
70
1
43
0.0
10
-230.83750000000003
20
50.649999999999963
10
-230.83750000000009
20
63.650000000000006
42
-0.41421356237310025
10
-230.33750000000001
20
64.150000000000006
10
-217.33750000000001
20
64.149999999999949
42
-0.41421356237312623
10
-216.83750000000003
20
63.650000000000006
10
-216.83750000000003
20
50.649999999999963
42
-0.41421356237304302
10
-217.33750000000001
20
50.149999999999949
10
-230.33750000000001
20
50.149999999999999
42
-0.41421356237311063
0
LWPOLYLINE
5
178
100
AcDbEntity
8
0
100
AcDbPolyline
90
8
70
1
43
0.0
10
-176.85625000000002
20
50.14999999999997
42
0.41421356237303258
10
-176.35625000000005
20
50.649999999999963
10
-176.35625000000002
20
63.650000000000006
42
0.41421356237315227
10
-176.85625000000002
20
64.149999999999977
10
-189.85624999999999
20
64.149999999999991
42
0.41421356237300139
10
-190.35624999999999
20
63.650000000000006
10
-190.35624999999999
20
50.649999999999963
42
0.41421356237313667
10
-189.85624999999999
20
50.149999999999949
0
ENDSEC
0
SECTION
2
OBJECTS
0
DICTIONARY
5
C
100
AcDbDictionary
3
ACAD_GROUP
350
D
3
ACAD_MLINESTYLE
350
17
0
DICTIONARY
5
D
100
AcDbDictionary
0
DICTIONARY
5
1A
330
C
100
AcDbDictionary
0
DICTIONARY
5
17
100
AcDbDictionary
0
ENDSEC
0
EOF
