0
SECTION
2
HEADER
9
$INSUNITS
70
4
9
$ACADVER
1
AC1014
9
$HANDSEED
5
FFFF
0
ENDSEC
0
SECTION
2
TABLES
0
TABLE
2
VPORT
5
8
100
AcDbSymbolTable
0
ENDTAB
0
TABLE
2
LTYPE
5
5
100
AcDbSymbolTable
0
LTYPE
5
14
100
AcDbSymbolTableRecord
100
AcDbLinetypeTableRecord
2
BYBLOCK
70
0
0
LTYPE
5
15
100
AcDbSymbolTableRecord
100
AcDbLinetypeTableRecord
2
BYLAYER
70
0
0
ENDTAB
0
TABLE
2
LAYER
5
2
100
AcDbSymbolTable
70
2
0
LAYER
5
50
100
AcDbSymbolTableRecord
100
AcDbLayerTableRecord
2
0
70
0
6
CONTINUOUS
0
ENDTAB
0
TABLE
2
STYLE
5
3
100
AcDbSymbolTable
70
1
0
STYLE
5
11
100
AcDbSymbolTableRecord
100
AcDbTextStyleTableRecord
2
STANDARD
70
0
0
ENDTAB
0
TABLE
2
VIEW
5
6
100
AcDbSymbolTable
70
0
0
ENDTAB
0
TABLE
2
UCS
5
7
100
AcDbSymbolTable
70
0
0
ENDTAB
0
TABLE
2
APPID
5
9
100
AcDbSymbolTable
70
2
0
APPID
5
12
100
AcDbSymbolTableRecord
100
AcDbRegAppTableRecord
2
ACAD
70
0
0
ENDTAB
0
TABLE
2
DIMSTYLE
5
A
100
AcDbSymbolTable
70
1
0
ENDTAB
0
TABLE
2
BLOCK_RECORD
5
1
100
AcDbSymbolTable
70
1
0
BLOCK_RECORD
5
1F
100
AcDbSymbolTableRecord
100
AcDbBlockTableRecord
2
*MODEL_SPACE
0
BLOCK_RECORD
5
1B
100
AcDbSymbolTableRecord
100
AcDbBlockTableRecord
2
*PAPER_SPACE
0
ENDTAB
0
ENDSEC
0
SECTION
2
BLOCKS
0
BLOCK
5
20
100
AcDbEntity
100
AcDbBlockBegin
2
*MODEL_SPACE
0
ENDBLK
5
21
100
AcDbEntity
100
AcDbBlockEnd
0
BLOCK
5
1C
100
AcDbEntity
100
AcDbBlockBegin
2
*PAPER_SPACE
0
ENDBLK
5
1D
100
AcDbEntity
100
AcDbBlockEnd
0
ENDSEC
0
SECTION
2
ENTITIES
0
LINE
5
100
100
AcDbEntity
8
0
100
AcDbLine
10
11.850000000000023
20
66.674999999999969
30
0
11
-235.68750000000009
21
66.674999999999969
31
0
0
LINE
5
101
100
AcDbEntity
8
0
100
AcDbLine
10
-235.68750000000006
20
-9.5250000000000146
30
0
11
11.850000001181655
21
-9.5250000000000146
31
0
0
ARC
5
102
100
AcDbEntity
8
0
100
AcDbCircle
10
-235.68750000000009
20
63.99999999999995
30
0
40
2.6750000000000185
210
0
220
-0
230
1
100
AcDbArc
50
90
51
127.87921967452066
0
ARC
5
103
100
AcDbEntity
8
0
100
AcDbCircle
10
-237.02294776119408
20
65.716742344419146
30
0
40
0.50000000000002176
210
0
220
0
230
1
100
AcDbArc
50
127.87921967452091
51
258.81194424867255
0
ARC
5
104
100
AcDbEntity
8
0
100
AcDbCircle
10
-237.36249999999998
20
63.99999999999995
30
0
40
1.2499999999999791
210
0
220
0
230
1
100
AcDbArc
50
-78.811944248679566
51
78.811944248682664
0
ARC
5
105
100
AcDbEntity
8
0
100
AcDbCircle
10
-237.02294776119408
20
62.28325765558079
30
0
40
0.49999999999998884
210
0
220
0
230
1
100
AcDbArc
50
101.18805575132046
51
232.12078032548015
0
ARC
5
106
100
AcDbEntity
8
0
100
AcDbCircle
10
-235.68750000000009
20
63.99999999999995
30
0
40
2.6749999999999563
210
0
220
0
230
1
100
AcDbArc
50
232.12078032547907
51
270
0
LINE
5
107
100
AcDbEntity
8
0
100
AcDbLine
10
-235.68750000000009
20
61.324999999999967
30
0
11
-234.86250000000007
21
61.325000000000003
31
0
0
ARC
5
108
100
AcDbEntity
8
0
100
AcDbCircle
10
-234.8625000000001
20
59.824999999999918
30
0
40
1.5000000000000924
210
0
220
-0
230
1
100
AcDbArc
50
0
51
89.99999999999892
0
LINE
5
109
100
AcDbEntity
8
0
100
AcDbLine
10
-233.36250000000001
20
59.824999999999982
30
0
11
-233.36250000000004
21
-2.6750000000000007
31
0
0
ARC
5
110
100
AcDbEntity
8
0
100
AcDbCircle
10
-234.86250000000001
20
-2.6750000000000087
30
0
40
1.5000000000000313
210
0
220
0
230
1
100
AcDbArc
50
-90
51
0
0
LINE
5
111
100
AcDbEntity
8
0
100
AcDbLine
10
-234.86250000000001
20
-4.1750000000000398
30
0
11
-235.68750000000006
21
-4.1750000000000398
31
0
0
ARC
5
112
100
AcDbEntity
8
0
100
AcDbCircle
10
-235.68750000000006
20
-6.8500000000000405
30
0
40
2.6750000000000007
210
0
220
-0
230
1
100
AcDbArc
50
90
51
127.87921967452186
0
ARC
5
113
100
AcDbEntity
8
0
100
AcDbCircle
10
-237.02294776119405
20
-5.1332576555808629
30
0
40
0.5000000000000191
210
0
220
0
230
1
100
AcDbArc
50
127.87921967452607
51
258.81194424867368
0
ARC
5
114
100
AcDbEntity
8
0
100
AcDbCircle
10
-237.36249999999998
20
-6.8500000000000334
30
0
40
1.250000000000036
210
-0
220
0
230
1
100
AcDbArc
50
-78.811944248678756
51
78.811944248680717
0
ARC
5
115
100
AcDbEntity
8
0
100
AcDbCircle
10
-237.02294776119405
20
-8.5667423444192181
30
0
40
0.4999999999999627
210
0
220
0
230
1
100
AcDbArc
50
101.18805575132103
51
232.12078032547791
0
ARC
5
116
100
AcDbEntity
8
0
100
AcDbCircle
10
-235.68750000000006
20
-6.8500000000000405
30
0
40
2.6749999999999456
210
0
220
0
230
1
100
AcDbArc
50
232.12078032547888
51
270
0
ARC
5
117
100
AcDbEntity
8
0
100
AcDbCircle
10
13.185447761194027
20
65.716742344419174
30
0
40
0.49999999999999573
210
-0
220
0
230
1
100
AcDbArc
50
-78.811944248677179
51
52.120780325476773
0
ARC
5
118
100
AcDbEntity
8
0
100
AcDbCircle
10
11.850000000000023
20
63.999999999999986
30
0
40
2.6749999999999945
210
0
220
-0
230
1
100
AcDbArc
50
52.120780325478577
51
90
0
ARC
5
119
100
AcDbEntity
8
0
100
AcDbCircle
10
11.849999999605743
20
-6.8500000000010974
30
0
40
2.6749999999989171
210
-0
220
0
230
1
100
AcDbArc
50
270.00000003375447
51
307.87921976709669
0
ARC
5
120
100
AcDbEntity
8
0
100
AcDbCircle
10
13.185447764541181
20
-8.5667423435064105
30
0
40
0.49999999999999201
210
-0
220
0
230
1
100
AcDbArc
50
-52.120780232903314
51
78.811944360388225
0
ARC
5
121
100
AcDbEntity
8
0
100
AcDbCircle
10
13.524999999999991
20
-6.8499999984251936
30
0
40
1.2499999999999909
210
0
220
0
230
1
100
AcDbArc
50
101.18805574742268
51
258.81194436038817
0
ARC
5
122
100
AcDbEntity
8
0
100
AcDbCircle
10
13.18544776131084
20
-5.1332576539829144
30
0
40
0.50000000000000544
210
-0
220
0
230
1
100
AcDbArc
50
-78.811944252574193
51
52.120780340713559
0
ARC
5
123
100
AcDbEntity
8
0
100
AcDbCircle
10
11.849999999605743
20
-6.8500000000010974
30
0
40
2.6750000015759072
210
0
220
-0
230
1
100
AcDbArc
50
52.12078034071471
51
90
0
LINE
5
124
100
AcDbEntity
8
0
100
AcDbLine
10
11.849999999605743
20
-4.1749999984251929
30
0
11
11.024999999999991
21
-4.1750000000000043
31
0
0
ARC
5
125
100
AcDbEntity
8
0
100
AcDbCircle
10
11.024999999999991
20
-2.6750000000000012
30
0
40
1.4999999999999858
210
0
220
0
230
1
100
AcDbArc
50
180
51
270
0
LINE
5
126
100
AcDbEntity
8
0
100
AcDbLine
10
9.5250000000000057
20
-2.6750000000000007
30
0
11
9.5250000000000057
21
59.825000000000017
31
0
0
ARC
5
127
100
AcDbEntity
8
0
100
AcDbCircle
10
11.024999999999993
20
59.82500000000001
30
0
40
1.4999999999999947
210
0
220
0
230
1
100
AcDbArc
50
90.000000000000071
51
180
0
LINE
5
128
100
AcDbEntity
8
0
100
AcDbLine
10
11.024999999999991
20
61.325000000000003
30
0
11
11.849999999999987
21
61.325000000000003
31
0
0
ARC
5
129
100
AcDbEntity
8
0
100
AcDbCircle
10
11.850000000000023
20
63.999999999999986
30
0
40
2.6749999999999829
210
0
220
0
230
1
100
AcDbArc
50
269.9999999999992
51
307.87921967452075
0
ARC
5
130
100
AcDbEntity
8
0
100
AcDbCircle
10
13.185447761194027
20
62.283257655580826
30
0
40
0.50000000000000833
210
-0
220
0
230
1
100
AcDbArc
50
-52.120780325482137
51
78.811944248681158
0
ARC
5
131
100
AcDbEntity
8
0
100
AcDbCircle
10
13.52499999999999
20
63.999999999999986
30
0
40
1.2500000000000202
210
0
220
0
230
1
100
AcDbArc
50
101.18805575132173
51
258.81194424867641
0
LWPOLYLINE
5
132
100
AcDbEntity
8
0
100
AcDbPolyline
90
8
70
1
43
0.0
10
-96.110182000000165
20
31.1000000000002
10
-109.11018200000004
20
31.10000000000019
42
-0.41421356237312101
10
-109.61018200000005
20
31.600000000000172
10
-109.61018200000005
20
44.599999999999994
42
-0.41421356237300139
10
-109.11018200000004
20
45.099999999999973
10
-96.110182000000151
20
45.100000000000044
42
-0.41421356237313145
10
-95.610182000000222
20
44.599999999999994
10
-95.610182000000222
20
31.600000000000172
42
-0.41421356237302998
0
LWPOLYLINE
5
133
100
AcDbEntity
8
0
100
AcDbPolyline
90
8
70
1
43
0.0
10
-174.87790000000012
20
12.550000000000079
10
-174.87790000000007
20
25.550000000000015
42
-0.41421356237296758
10
-174.3779000000001
20
26.049999999999986
10
-161.37790000000001
20
26.050000000000097
42
-0.41421356237307683
10
-160.87790000000007
20
25.550000000000015
10
-160.87790000000007
20
12.550000000000079
42
-0.41421356237309631
10
-161.37790000000001
20
12.050000000000107
10
-174.3779000000001
20
12.050000000000072
42
-0.41421356237313667
0
LWPOLYLINE
5
134
100
AcDbEntity
8
0
100
AcDbPolyline
90
8
70
1
43
0.0
10
-142.72480000000004
20
-6.9999999999999307
10
-155.72480000000002
20
-6.9999999999999378
42
-0.41421356237311974
10
-156.22480000000007
20
-6.4999999999999414
10
-156.22480000000007
20
6.5000000000000124
42
-0.41421356237302936
10
-155.72480000000002
20
7.0000000000000551
10
-142.72480000000004
20
7.0000000000000382
42
-0.41421356237310608
10
-142.22480000000007
20
6.5000000000000124
10
-142.2248000000001
20
-6.4999999999999414
42
-0.41421356237300982
0
LWPOLYLINE
5
135
100
AcDbEntity
8
0
100
AcDbPolyline
90
8
70
1
43
0.0
10
-123.57170000000008
20
6.5000000000000124
42
0.41421356237313794
10
-124.07170000000005
20
7.0000000000000213
10
-137.07170000000002
20
6.999999999999984
42
0.41421356237304691
10
-137.57170000000005
20
6.5000000000000124
10
-137.57170000000005
20
-6.4999999999999414
42
0.41421356237312235
10
-137.07170000000002
20
-6.9999999999999485
10
-124.07170000000005
20
-6.9999999999999485
42
0.41421356237301371
10
-123.57170000000008
20
-6.4999999999999414
0
LWPOLYLINE
5
136
100
AcDbEntity
8
0
100
AcDbPolyline
90
8
70
1
43
0.0
10
-183.578182
20
45.099999999999952
42
0.41421356237318346
10
-184.07818200000003
20
44.600000000000001
10
-184.07818200000008
20
31.600000000000179
42
0.41421356237315488
10
-183.578182
20
31.100000000000207
10
-170.5781820000002
20
31.100000000000172
42
0.4142135623729884
10
-170.07818200000025
20
31.600000000000179
10
-170.07818200000025
20
44.600000000000001
42
0.41421356237318346
10
-170.5781820000002
20
45.100000000000037
0
LWPOLYLINE
5
137
100
AcDbEntity
8
0
100
AcDbPolyline
90
8
70
1
43
0.0
10
-67.113636000000014
20
45.100000999999907
10
-54.11363600000012
20
45.100000999999928
42
-0.41421356237309503
10
-53.613636000000184
20
44.600000999999907
10
-53.613636000000177
20
31.600001000000031
42
-0.41421356237302737
10
-54.11363600000012
20
31.100001000000059
10
-67.113636000000014
20
31.100001000000074
42
-0.41421356237316526
10
-67.613636000000028
20
31.600001000000042
10
-67.613636000000042
20
44.600000999999914
42
-0.41421356237302737
0
LWPOLYLINE
5
138
100
AcDbEntity
8
0
100
AcDbPolyline
90
8
70
1
43
0.0
10
-118.91860000000005
20
12.55000000000007
10
-118.91860000000005
20
25.550000000000004
42
-0.41421356237307422
10
-118.4186
20
26.050000000000011
10
-105.41860000000003
20
26.050000000000043
42
-0.41421356237314444
10
-104.91860000000004
20
25.550000000000004
10
-104.91860000000005
20
12.55000000000007
42
-0.41421356237305862
10
-105.41860000000001
20
12.050000000000072
10
-118.41860000000004
20
12.050000000000056
42
-0.41421356237314055
0
LWPOLYLINE
5
139
100
AcDbEntity
8
0
100
AcDbPolyline
90
8
70
1
43
0.0
10
-44.306200000000047
20
31.600000000000055
10
-44.306200000000047
20
44.600000000000009
42
-0.41421356237302737
10
-43.806200000000004
20
45.099999999999987
10
-30.806199999999997
20
45.100000000000051
42
-0.41421356237309243
10
-30.306200000000018
20
44.600000000000009
10
-30.306200000000057
20
31.600000000000055
42
-0.41421356237304563
10
-30.806199999999997
20
31.100000000000065
10
-43.806199999999968
20
31.100000000000065
42
-0.41421356237316787
0
LWPOLYLINE
5
140
100
AcDbEntity
8
0
100
AcDbPolyline
90
8
70
1
43
0.0
10
-68.112400000000008
20
-6.9999999999999307
10
-81.112400000000022
20
-6.9999999999999352
42
-0.41421356237302481
10
-81.612400000000036
20
-6.4999999999999414
10
-81.612400000000051
20
6.5000000000000124
42
-0.41421356237305018
10
-81.112400000000022
20
7.0000000000000018
10
-68.112400000000008
20
7.0000000000000382
42
-0.4142135623731269
10
-67.612400000000065
20
6.5000000000000124
10
-67.612400000000036
20
-6.4999999999999414
42
-0.41421356237302026
0
LWPOLYLINE
5
141
100
AcDbEntity
8
0
100
AcDbPolyline
90
8
70
1
43
0.0
10
-225.5750000000001
20
45.099993999999825
10
-212.57500000000027
20
45.09999399999991
42
-0.41421356237311063
10
-212.07500000000036
20
44.599993999999874
10
-212.07500000000041
20
31.599994000000066
42
-0.41421356237311324
10
-212.57500000000027
20
31.099994000000155
10
-225.5750000000001
20
31.099994000000123
42
-0.41421356237311846
10
-226.07500000000022
20
31.599994000000066
10
-226.07500000000022
20
44.599993999999874
42
-0.41421356237312101
0
LWPOLYLINE
5
142
100
AcDbEntity
8
0
100
AcDbPolyline
90
8
70
1
43
0.0
10
-6.5000000000000213
20
26.049999999999969
42
0.41421356237303325
10
-7.0000000000000293
20
25.549999999999997
10
-7.0000000000000284
20
12.550000000000061
42
0.41421356237313534
10
-6.5000000000000213
20
12.050000000000054
10
6.4999999999999858
20
12.050000000000072
42
0.41421356237306639
10
6.9999999999999574
20
12.550000000000061
10
6.9999999999999751
20
25.549999999999997
42
0.41421356237312557
10
6.4999999999999858
20
26.05000000000004
0
LWPOLYLINE
5
143
100
AcDbEntity
8
0
100
AcDbPolyline
90
8
70
1
43
0.0
10
-123.57170000000008
20
25.550000000000004
10
-123.57170000000008
20
12.55000000000007
42
-0.41421356237304563
10
-124.07170000000005
20
12.050000000000045
10
-137.07170000000002
20
12.050000000000054
42
-0.41421356237312623
10
-137.57170000000005
20
12.550000000000079
10
-137.57170000000008
20
25.550000000000015
42
-0.41421356237302481
10
-137.07170000000002
20
26.050000000000022
10
-124.07170000000001
20
26.049999999999997
42
-0.41421356237318868
0
LWPOLYLINE
5
144
100
AcDbEntity
8
0
100
AcDbPolyline
90
8
70
1
43
0.0
10
-217.3372
20
12.050000000000063
42
0.41421356237297796
10
-216.83720000000005
20
12.550000000000088
10
-216.8372
20
25.550000000000026
42
0.41421356237306384
10
-217.33720000000005
20
26.050000000000075
10
-230.33719999999994
20
26.049999999999986
42
0.41421356237311324
10
-230.83720000000005
20
25.550000000000026
10
-230.83720000000005
20
12.550000000000097
42
0.41421356237319906
10
-230.33719999999994
20
12.050000000000081
0
LWPOLYLINE
5
145
100
AcDbEntity
8
0
100
AcDbPolyline
90
8
70
1
43
0.0
10
-25.653100000000038
20
31.600000000000055
10
-25.653100000000041
20
44.600000000000009
42
-0.41421356237301959
10
-25.153099999999995
20
45.100000000000009
10
-12.153099999999988
20
45.100000000000044
42
-0.41421356237309631
10
-11.653100000000025
20
44.600000000000009
10
-11.653100000000016
20
31.600000000000055
42
-0.414213562373069
10
-12.153100000000023
20
31.10000000000003
10
-25.15310000000003
20
31.10000000000008
42
-0.41421356237312362
0
LWPOLYLINE
5
146
100
AcDbEntity
8
0
100
AcDbPolyline
90
8
70
1
43
0.0
10
-198.6841
20
-6.9999999999999485
42
0.41421356237301893
10
-198.18410000000006
20
-6.4999999999999236
10
-198.18410000000006
20
6.5000000000000302
42
0.41421356237305212
10
-198.68410000000006
20
7.0000000000000551
10
-211.6841
20
7.0000000000000018
42
0.41421356237309698
10
-212.18410000000006
20
6.5000000000000302
10
-212.18410000000006
20
-6.4999999999999236
42
0.4142135623732095
10
-211.6841
20
-6.9999999999998952
0
LWPOLYLINE
5
147
100
AcDbEntity
8
0
100
AcDbPolyline
90
8
70
1
43
0.0
10
-146.84418200000005
20
31.600000000000179
42
0.41421356237314444
10
-146.34418200000002
20
31.100000000000229
10
-133.34418200000016
20
31.100000000000207
42
0.41421356237302737
10
-132.84418200000027
20
31.600000000000179
10
-132.84418200000022
20
44.600000000000001
42
0.41421356237315748
10
-133.34418200000016
20
45.100000000000044
10
-146.34418200000002
20
45.09999999999998
42
0.41421356237303258
10
-146.84418200000007
20
44.600000000000001
0
LWPOLYLINE
5
148
100
AcDbEntity
8
0
100
AcDbPolyline
90
8
70
1
43
0.0
10
-90.993182000000019
20
31.600000000000172
42
0.41421356237308721
10
-90.493182000000004
20
31.100000000000193
10
-77.493182000000161
20
31.1000000000002
42
0.41421356237302998
10
-76.993182000000218
20
31.600000000000172
10
-76.993182000000203
20
44.599999999999994
42
0.41421356237310542
10
-77.493182000000161
20
45.100000000000037
10
-90.493182000000004
20
45.09999999999998
42
0.4142135623730222
10
-90.993182000000047
20
44.599999999999994
0
LWPOLYLINE
5
149
100
AcDbEntity
8
0
100
AcDbPolyline
90
8
70
1
43
0.0
10
-114.72718200000017
20
31.1000000000002
10
-127.727182
20
31.1000000000002
42
-0.41421356237311585
10
-128.227182
20
31.600000000000172
10
-128.22718200000003
20
44.599999999999994
42
-0.41421356237303258
10
-127.727182
20
45.099999999999973
10
-114.72718200000017
20
45.100000000000016
42
-0.41421356237314705
10
-114.22718200000023
20
44.599999999999994
10
-114.22718200000023
20
31.600000000000172
42
-0.41421356237305079
0
LWPOLYLINE
5
150
100
AcDbEntity
8
0
100
AcDbPolyline
90
8
70
1
43
0.0
10
-165.46118200000009
20
31.600000000000179
42
0.41421356237312623
10
-164.96118200000006
20
31.100000000000225
10
-151.96118200000018
20
31.100000000000179
42
0.41421356237301438
10
-151.46118200000021
20
31.600000000000179
10
-151.46118200000021
20
44.600000000000001
42
0.41421356237313667
10
-151.96118200000018
20
45.100000000000051
10
-164.96118200000006
20
45.100000000000044
42
0.41421356237301699
10
-165.46118200000009
20
44.600000000000001
0
LWPOLYLINE
5
151
100
AcDbEntity
8
0
100
AcDbPolyline
90
26
70
1
43
0.0
10
-37.013000000000069
20
50.150000000000034
10
-37.013000000000083
20
49.650000000000034
42
-0.41421356237310802
10
-37.513000000000076
20
49.150000000000027
10
-43.51300000000009
20
49.150000000000048
42
-0.41421356237311063
10
-44.013000000000098
20
49.650000000000041
10
-44.013000000000098
20
50.150000000000034
10
-44.60000000000008
20
50.150000000000063
42
-0.41421356237313145
10
-45.100000000000087
20
50.650000000000041
10
-45.100000000000094
20
63.649999999999991
42
-0.41421356237311063
10
-44.60000000000008
20
64.150000000000006
10
6.4999999999998437
20
64.149999999999977
42
-0.41421356237309764
10
6.9999999999998508
20
63.649999999999977
10
6.9999999999998526
20
50.65000000000002
42
-0.41421356237310675
10
6.4999999999998437
20
50.149999999999999
10
5.9129999999998262
20
50.149999999999999
10
5.9129999999998457
20
49.650000000000027
42
-0.41421356237308593
10
5.4129999999998901
20
49.149999999999999
10
-0.58700000000012409
20
49.150000000000027
42
-0.41421356237309814
10
-1.0870000000001312
20
49.650000000000027
10
-1.0870000000001312
20
50.150000000000034
10
-13.137000000000079
20
50.150000000000006
10
-13.137000000000128
20
49.650000000000034
42
-0.41421356237310802
10
-13.637000000000121
20
49.150000000000027
10
-24.463000000000044
20
49.149999999999984
42
-0.41421356237310025
10
-24.963000000000086
20
49.650000000000034
10
-24.963000000000086
20
50.150000000000006
0
LWPOLYLINE
5
152
100
AcDbEntity
8
0
100
AcDbPolyline
90
8
70
1
43
0.0
10
-57.793750000000053
20
50.150000000000034
42
0.41421356237307422
10
-57.293750000000081
20
50.650000000000041
10
-57.293750000000081
20
63.649999999999991
42
0.41421356237309503
10
-57.793750000000017
20
64.150000000000006
10
-70.79375000000006
20
64.149999999999977
42
0.4142135623730846
10
-71.293750000000017
20
63.649999999999977
10
-71.293750000000031
20
50.650000000000006
42
0.41421356237307422
10
-70.79375000000006
20
50.149999999999999
0
LWPOLYLINE
5
153
100
AcDbEntity
8
0
100
AcDbPolyline
90
8
70
1
43
0.0
10
6.4999999999999858
20
-6.9999999999998952
42
0.41421356237305601
10
6.9999999999999218
20
-6.4999999999999591
10
6.9999999999999307
20
6.4999999999999947
42
0.41421356237310414
10
6.4999999999999858
20
7.0000000000000284
10
-6.4999999999999858
20
7.0000000000000018
42
0.41421356237303325
10
-7.0000000000000284
20
6.4999999999999947
10
-7.0000000000000107
20
-6.4999999999999591
42
0.4142135623731269
10
-6.5000000000000213
20
-6.9999999999999307
0
LWPOLYLINE
5
154
100
AcDbEntity
8
0
100
AcDbPolyline
90
8
70
1
43
0.0
10
-12.153100000000023
20
-6.9999999999999485
10
-25.153099999999995
20
-6.9999999999999289
42
-0.41421356237314577
10
-25.653100000000038
20
-6.4999999999999414
10
-25.653100000000038
20
6.5000000000000124
42
-0.41421356237303653
10
-25.153099999999995
20
7.0000000000000195
10
-12.153100000000023
20
7.0000000000000284
42
-0.41421356237312884
10
-11.653100000000043
20
6.4999999999999947
10
-11.653100000000034
20
-6.4999999999999591
42
-0.41421356237305407
0
LWPOLYLINE
5
155
100
AcDbEntity
8
0
100
AcDbPolyline
90
14
70
1
43
0.0
10
-193.99374999999989
20
49.650000000000027
10
-193.99374999999989
20
50.150000000000034
10
-196.99999999999991
20
50.150000000000041
42
-0.41421356237316265
10
-197.49999999999986
20
50.65000000000002
10
-197.49999999999989
20
63.649999999999991
42
-0.41421356237316265
10
-196.99999999999991
20
64.150000000000006
10
-183.99999999999991
20
64.149999999999991
42
-0.41421356237313145
10
-183.49999999999991
20
63.649999999999991
10
-183.49999999999989
20
50.65000000000002
42
-0.41421356237311063
10
-183.99999999999991
20
50.15000000000002
10
-186.99374999999989
20
50.150000000000034
10
-186.99374999999989
20
49.650000000000027
42
-0.41421356237314705
10
-187.49374999999989
20
49.15000000000002
10
-193.49374999999986
20
49.15000000000002
42
-0.41421356237313667
0
LWPOLYLINE
5
156
100
AcDbEntity
8
0
100
AcDbPolyline
90
8
70
1
43
0.0
10
-62.95930000000002
20
-6.4999999999999591
10
-62.95930000000002
20
6.5000000000000124
42
-0.41421356237303258
10
-62.459300000000013
20
6.999999999999984
10
-49.459300000000006
20
7.0000000000000338
42
-0.41421356237313989
10
-48.959300000000063
20
6.5000000000000124
10
-48.95930000000007
20
-6.4999999999999414
42
-0.41421356237304496
10
-49.459300000000006
20
-6.9999999999999307
10
-62.459300000000013
20
-6.9999999999999325
42
-0.41421356237311713
0
LWPOLYLINE
5
157
100
AcDbEntity
8
0
100
AcDbPolyline
90
8
70
1
43
0.0
10
-188.69518200000022
20
44.600000000000001
42
0.41421356237318346
10
-189.19518200000022
20
45.100000000000051
10
-202.19518200000005
20
45.099999999999952
42
0.4142135623730378
10
-202.69518199999999
20
44.600000000000001
10
-202.69518200000005
20
31.600000000000179
42
0.41421356237315748
10
-202.19518200000005
20
31.100000000000215
10
-189.19518200000022
20
31.100000000000172
42
0.4142135623729884
10
-188.69518200000022
20
31.600000000000179
0
LWPOLYLINE
5
158
100
AcDbEntity
8
0
100
AcDbPolyline
90
38
70
1
43
0.0
10
-168.48174999999986
20
49.15000000000002
10
-176.86299999999986
20
49.150000000000006
42
-0.41421356237313667
10
-177.36299999999986
20
49.65000000000002
10
-177.36299999999986
20
63.649999999999991
42
-0.41421356237313145
10
-176.86299999999986
20
64.150000000000006
10
-168.48174999999986
20
64.149999999999991
42
-0.014196078503754577
10
-168.45337500270995
20
64.149194209923536
42
-0.014196081227465735
10
-168.42499999999984
20
64.149999999999977
10
-153.04374999999996
20
64.150000000313611
42
-0.014196081244827902
10
-153.01537499723682
20
64.14919421023464
42
-0.014196078486095031
10
-152.98699999999994
20
64.149999999999977
10
-128.00049999999996
20
64.150000000313611
42
-0.014196081244827902
10
-127.97212499723682
20
64.14919421023464
42
-0.01419607848564741
10
-127.94374999999999
20
64.149999999999977
10
-112.5625
20
64.149999999999991
42
-0.014196078503271755
10
-112.53412500271014
20
64.149194209923536
42
-0.014196081227511263
10
-112.50575000000001
20
64.149999999999977
10
-104.12450000000004
20
64.150000000000006
42
-0.41421356237309503
10
-103.62450000000003
20
63.649999999999991
10
-103.62450000000003
20
49.649999999999999
42
-0.41421356237311063
10
-104.12450000000004
20
49.150000000000006
10
-112.50575000000001
20
49.149999999999984
42
-0.41421356237310025
10
-113.00575000000002
20
49.649999999999999
10
-113.00575000000002
20
50.150000000000013
10
-127.50049999999999
20
50.149999999999999
10
-127.50049999999996
20
49.650000000000006
42
-0.41421356237311585
10
-128.00049999999996
20
49.15000000000002
10
-136.38174999999993
20
49.149999999999956
42
-0.41421356237310025
10
-136.88174999999998
20
49.650000000000006
10
-136.8817499999999
20
50.149999999999999
10
-144.10574999999997
20
50.150000000000013
10
-144.10574999999994
20
49.650000000000041
42
-0.41421356237307422
10
-144.60574999999992
20
49.150000000000034
10
-152.98699999999994
20
49.150000000000034
42
-0.41421356237310025
10
-153.48699999999994
20
49.650000000000048
10
-153.48699999999994
20
50.15000000000002
10
-167.98174999999989
20
50.150000000000006
10
-167.98174999999983
20
49.65000000000002
42
-0.41421356237307422
0
LWPOLYLINE
5
159
100
AcDbEntity
8
0
100
AcDbPolyline
90
8
70
1
43
0.0
10
-100.26550000000007
20
-6.4999999999999414
10
-100.26550000000007
20
6.5000000000000124
42
-0.41421356237300855
10
-99.765500000000031
20
7.0000000000000195
10
-86.76550000000006
20
7.0000000000000426
42
-0.41421356237306706
10
-86.265500000000088
20
6.5000000000000124
10
-86.26550000000006
20
-6.4999999999999414
42
-0.41421356237302087
10
-86.76550000000006
20
-6.9999999999999307
10
-99.765500000000031
20
-6.9999999999999485
42
-0.41421356237307422
0
LWPOLYLINE
5
160
100
AcDbEntity
8
0
100
AcDbPolyline
90
8
70
1
43
0.0
10
-174.87790000000012
20
-6.4999999999999236
42
0.4142135623730781
10
-174.3779000000001
20
-6.9999999999999023
10
-161.37790000000001
20
-6.9999999999998774
42
0.41421356237305079
10
-160.8779000000001
20
-6.4999999999999414
10
-160.87790000000007
20
6.5000000000000124
42
0.41421356237305079
10
-161.37790000000001
20
7.0000000000000462
10
-174.3779000000001
20
7.0000000000000018
42
0.41421356237296691
10
-174.87790000000007
20
6.5000000000000302
0
LWPOLYLINE
5
161
100
AcDbEntity
8
0
100
AcDbPolyline
90
8
70
1
43
0.0
10
-99.765500000000017
20
26.050000000000011
10
-86.765500000000046
20
26.050000000000033
42
-0.41421356237312623
10
-86.265500000000031
20
25.550000000000004
10
-86.26550000000006
20
12.55000000000007
42
-0.41421356237307422
10
-86.76550000000006
20
12.050000000000063
10
-99.765500000000031
20
12.050000000000052
42
-0.41421356237311191
10
-100.26550000000009
20
12.55000000000007
10
-100.26550000000003
20
25.550000000000004
42
-0.41421356237299878
0
LWPOLYLINE
5
162
100
AcDbEntity
8
0
100
AcDbPolyline
90
8
70
1
43
0.0
10
-180.03099999999995
20
12.050000000000081
42
0.41421356237304302
10
-179.53100000000009
20
12.550000000000079
10
-179.53100000000012
20
25.550000000000015
42
0.4142135623731939
10
-180.03100000000001
20
26.050000000000075
10
-193.03100000000006
20
26.049999999999986
42
0.41421356237296758
10
-193.53100000000006
20
25.550000000000015
10
-193.53100000000006
20
12.550000000000079
42
0.41421356237305729
10
-193.03100000000006
20
12.050000000000063
0
LWPOLYLINE
5
163
100
AcDbEntity
8
0
100
AcDbPolyline
90
8
70
1
43
0.0
10
-212.18410000000006
20
12.550000000000088
10
-212.18410000000006
20
25.550000000000026
42
-0.41421356237309764
10
-211.6841
20
26.049999999999997
10
-198.68410000000006
20
26.050000000000097
42
-0.41421356237307683
10
-198.18410000000006
20
25.550000000000015
10
-198.18410000000006
20
12.550000000000079
42
-0.41421356237298579
10
-198.68409999999994
20
12.050000000000054
10
-211.6841
20
12.050000000000086
42
-0.41421356237323809
0
LWPOLYLINE
5
164
100
AcDbEntity
8
0
100
AcDbPolyline
90
8
70
1
43
0.0
10
-155.72480000000002
20
26.050000000000047
42
0.41421356237301177
10
-156.22480000000007
20
25.550000000000015
10
-156.2248000000001
20
12.550000000000079
42
0.41421356237313928
10
-155.72480000000002
20
12.050000000000063
10
-142.72480000000004
20
12.050000000000063
42
0.41421356237305601
10
-142.22480000000007
20
12.550000000000079
10
-142.22480000000002
20
25.550000000000015
42
0.41421356237318346
10
-142.72480000000004
20
26.05000000000004
0
LWPOLYLINE
5
165
100
AcDbEntity
8
0
100
AcDbPolyline
90
8
70
1
43
0.0
10
-193.53100000000006
20
-6.4999999999999236
42
0.41421356237301826
10
-193.03100000000006
20
-6.9999999999999059
10
-180.03099999999995
20
-6.999999999999913
42
0.41421356237304169
10
-179.53100000000009
20
-6.4999999999999236
10
-179.53100000000012
20
6.5000000000000302
42
0.41421356237305079
10
-180.03100000000001
20
7.0000000000000373
10
-193.03100000000006
20
7.0000000000000018
42
0.41421356237296691
10
-193.53100000000006
20
6.5000000000000302
0
LWPOLYLINE
5
166
100
AcDbEntity
8
0
100
AcDbPolyline
90
8
70
1
43
0.0
10
-30.806199999999997
20
12.050000000000063
42
0.41421356237304691
10
-30.306200000000061
20
12.550000000000061
10
-30.306200000000043
20
25.549999999999997
42
0.41421356237310802
10
-30.806199999999997
20
26.05000000000004
10
-43.806200000000004
20
26.049999999999986
42
0.41421356237301959
10
-44.306200000000047
20
25.549999999999997
10
-44.306200000000054
20
12.550000000000061
42
0.41421356237316526
10
-43.806199999999968
20
12.050000000000054
0
LWPOLYLINE
5
167
100
AcDbEntity
8
0
100
AcDbPolyline
90
8
70
1
43
0.0
10
-81.612400000000065
20
12.55000000000007
42
0.41421356237312235
10
-81.112400000000008
20
12.05000000000007
10
-68.112400000000008
20
12.050000000000063
42
0.4142135623730378
10
-67.612400000000036
20
12.55000000000007
10
-67.612400000000022
20
25.550000000000004
42
0.41421356237312362
10
-68.112400000000008
20
26.050000000000047
10
-81.112400000000008
20
26.049999999999997
42
0.41421356237303519
10
-81.612400000000036
20
25.550000000000004
0
LWPOLYLINE
5
168
100
AcDbEntity
8
0
100
AcDbPolyline
90
8
70
1
43
0.0
10
-105.41860000000003
20
-6.9999999999999307
42
0.41421356237300982
10
-104.91860000000008
20
-6.4999999999999414
10
-104.91860000000011
20
6.5000000000000124
42
0.41421356237307683
10
-105.41860000000003
20
7.0000000000000373
10
-118.41860000000004
20
7.0000000000000018
42
0.41421356237302481
10
-118.91860000000005
20
6.5000000000000124
10
-118.91860000000003
20
-6.4999999999999414
42
0.414213562373136
10
-118.41860000000004
20
-6.9999999999999307
0
LWPOLYLINE
5
169
100
AcDbEntity
8
0
100
AcDbPolyline
90
8
70
1
43
0.0
10
-30.306200000000068
20
6.5000000000000124
42
0.41421356237310025
10
-30.806199999999997
20
7.0000000000000284
10
-43.80620000000004
20
7.0000000000000018
42
0.41421356237300982
10
-44.306200000000047
20
6.5000000000000124
10
-44.306200000000061
20
-6.4999999999999414
42
0.41421356237315032
10
-43.806199999999968
20
-6.9999999999999307
10
-30.806199999999997
20
-6.999999999999913
42
0.41421356237303197
10
-30.306200000000061
20
-6.4999999999999414
0
LWPOLYLINE
5
170
100
AcDbEntity
8
0
100
AcDbPolyline
90
8
70
1
43
0.0
10
-25.153099999999995
20
26.049999999999986
10
-12.153099999999988
20
26.05000000000004
42
-0.41421356237310414
10
-11.653100000000034
20
25.549999999999997
10
-11.653100000000054
20
12.550000000000061
42
-0.4142135623730625
10
-12.153100000000023
20
12.050000000000072
10
-25.15310000000003
20
12.050000000000052
42
-0.41421356237313794
10
-25.653100000000038
20
12.550000000000061
10
-25.65310000000002
20
25.549999999999997
42
-0.41421356237303258
0
LWPOLYLINE
5
171
100
AcDbEntity
8
0
100
AcDbPolyline
90
14
70
1
43
0.0
10
-83.98750000000004
20
50.150000000000013
10
-86.99375000000002
20
50.150000000000013
10
-86.993750000000006
20
49.650000000000006
42
-0.41421356237307944
10
-87.493750000000063
20
49.150000000000034
10
-93.49375000000002
20
49.150000000000048
42
-0.41421356237307944
10
-93.993750000000048
20
49.650000000000006
10
-93.993750000000006
20
50.150000000000013
10
-96.98750000000004
20
50.15000000000002
42
-0.41421356237314189
10
-97.487500000000011
20
50.650000000000041
10
-97.487500000000011
20
63.649999999999991
42
-0.41421356237310542
10
-96.98750000000004
20
64.149999999999977
10
-83.98750000000004
20
64.149999999999977
42
-0.41421356237310542
10
-83.487500000000026
20
63.649999999999991
10
-83.487500000000026
20
50.650000000000013
42
-0.41421356237310542
0
LWPOLYLINE
5
172
100
AcDbEntity
8
0
100
AcDbPolyline
90
8
70
1
43
0.0
10
-62.959300000000056
20
12.55000000000007
10
-62.95930000000002
20
25.550000000000004
42
-0.41421356237303258
10
-62.459300000000013
20
26.049999999999976
10
-49.459300000000006
20
26.050000000000047
42
-0.41421356237310025
10
-48.959300000000056
20
25.549999999999997
10
-48.959300000000034
20
12.550000000000061
42
-0.41421356237305079
10
-49.459300000000006
20
12.050000000000036
10
-62.459300000000013
20
12.050000000000058
42
-0.41421356237317047
0
LWPOLYLINE
5
173
100
AcDbEntity
8
0
100
AcDbPolyline
90
8
70
1
43
0.0
10
-210.19374999999991
20
50.150000000000034
10
-223.19374999999985
20
50.149999999999991
42
-0.41421356237307944
10
-223.69374999999985
20
50.650000000000006
10
-223.69374999999977
20
63.649999999999977
42
-0.41421356237310542
10
-223.19374999999985
20
64.149999999999977
10
-210.19374999999991
20
64.149999999999949
42
-0.41421356237315227
10
-209.69374999999982
20
63.649999999999991
10
-209.69374999999982
20
50.65000000000002
42
-0.41421356237317308
0
LWPOLYLINE
5
174
100
AcDbEntity
8
0
100
AcDbPolyline
90
8
70
1
43
0.0
10
-216.83720000000008
20
6.5000000000000302
42
0.41421356237301438
10
-217.33720000000005
20
7.0000000000000773
10
-230.33719999999994
20
7.0000000000000018
42
0.41421356237311713
10
-230.83720000000005
20
6.5000000000000302
10
-230.83720000000005
20
-6.4999999999999236
42
0.41421356237317958
10
-230.33719999999994
20
-6.9999999999998952
10
-217.33720000000005
20
-6.9999999999999485
42
0.41421356237298707
10
-216.83720000000005
20
-6.4999999999999236
0
LWPOLYLINE
5
175
100
AcDbEntity
8
0
100
AcDbPolyline
90
8
70
1
43
0.0
10
-6.5000000000000213
20
45.100000000000016
42
0.41421356237300333
10
-7.000000000000032
20
44.600000000000009
10
-7.0000000000000284
20
31.600000000000055
42
0.41421356237314838
10
-6.4999999999999858
20
31.100000000000065
10
6.4999999999999858
20
31.10000000000003
42
0.41421356237306772
10
6.9999999999999929
20
31.600000000000055
10
6.9999999999999929
20
44.600000000000009
42
0.41421356237311324
10
6.4999999999999858
20
45.100000000000044
0
ENDSEC
0
SECTION
2
OBJECTS
0
DICTIONARY
5
C
100
AcDbDictionary
3
ACAD_GROUP
350
D
3
ACAD_MLINESTYLE
350
17
0
DICTIONARY
5
D
100
AcDbDictionary
0
DICTIONARY
5
1A
330
C
100
AcDbDictionary
0
DICTIONARY
5
17
100
AcDbDictionary
0
ENDSEC
0
EOF
