0
SECTION
2
HEADER
9
$INSUNITS
70
4
9
$ACADVER
1
AC1014
9
$HANDSEED
5
FFFF
0
ENDSEC
0
SECTION
2
TABLES
0
TABLE
2
VPORT
5
8
100
AcDbSymbolTable
0
ENDTAB
0
TABLE
2
LTYPE
5
5
100
AcDbSymbolTable
0
LTYPE
5
14
100
AcDbSymbolTableRecord
100
AcDbLinetypeTableRecord
2
BYBLOCK
70
0
0
LTYPE
5
15
100
AcDbSymbolTableRecord
100
AcDbLinetypeTableRecord
2
BYLAYER
70
0
0
ENDTAB
0
TABLE
2
LAYER
5
2
100
AcDbSymbolTable
70
2
0
LAYER
5
50
100
AcDbSymbolTableRecord
100
AcDbLayerTableRecord
2
0
70
0
6
CONTINUOUS
0
ENDTAB
0
TABLE
2
STYLE
5
3
100
AcDbSymbolTable
70
1
0
STYLE
5
11
100
AcDbSymbolTableRecord
100
AcDbTextStyleTableRecord
2
STANDARD
70
0
0
ENDTAB
0
TABLE
2
VIEW
5
6
100
AcDbSymbolTable
70
0
0
ENDTAB
0
TABLE
2
UCS
5
7
100
AcDbSymbolTable
70
0
0
ENDTAB
0
TABLE
2
APPID
5
9
100
AcDbSymbolTable
70
2
0
APPID
5
12
100
AcDbSymbolTableRecord
100
AcDbRegAppTableRecord
2
ACAD
70
0
0
ENDTAB
0
TABLE
2
DIMSTYLE
5
A
100
AcDbSymbolTable
70
1
0
ENDTAB
0
TABLE
2
BLOCK_RECORD
5
1
100
AcDbSymbolTable
70
1
0
BLOCK_RECORD
5
1F
100
AcDbSymbolTableRecord
100
AcDbBlockTableRecord
2
*MODEL_SPACE
0
BLOCK_RECORD
5
1B
100
AcDbSymbolTableRecord
100
AcDbBlockTableRecord
2
*PAPER_SPACE
0
ENDTAB
0
ENDSEC
0
SECTION
2
BLOCKS
0
BLOCK
5
20
100
AcDbEntity
100
AcDbBlockBegin
2
*MODEL_SPACE
0
ENDBLK
5
21
100
AcDbEntity
100
AcDbBlockEnd
0
BLOCK
5
1C
100
AcDbEntity
100
AcDbBlockBegin
2
*PAPER_SPACE
0
ENDBLK
5
1D
100
AcDbEntity
100
AcDbBlockEnd
0
ENDSEC
0
SECTION
2
ENTITIES
0
LWPOLYLINE
5
100
100
AcDbEntity
8
0
100
AcDbPolyline
90
20
70
1
43
0.0
10
-141.11251980819549
20
66.674999999999983
10
-235.68750000000009
20
66.674999999999969
42
0.16680089524658986
10
-237.32994724652605
20
66.111395756929326
42
0.64280669860174167
10
-237.11996268656725
20
65.226244531727943
42
-0.82158383625780507
10
-237.11996268656719
20
62.773755468271979
42
0.64280669860180772
10
-237.32994724652602
20
61.888604243070631
42
0.16680089524659039
10
-235.68750000000009
20
61.324999999999967
10
-234.86250000000007
20
61.32500000000001
42
-0.41421356237307599
10
-233.36250000000001
20
59.824999999999982
10
-233.36250000000001
20
-2.6750000000000003
42
-0.41421356237309659
10
-234.86250000000001
20
-4.1750000000000398
10
-235.68750000000006
20
-4.1750000000000398
42
0.1668008952465955
10
-237.32994724652605
20
-4.7386042430707187
42
0.64280669860171624
10
-237.11996268656722
20
-5.6237554682719999
42
-0.82158383625777942
10
-237.11996268656716
20
-8.0762445317280562
42
0.64280669860179063
10
-237.32994724652599
20
-8.9613957569293454
42
0.16680089524659106
10
-235.68750000000006
20
-9.5250000000000146
10
-141.11251980819529
20
-9.5250000000000146
42
0.41421356237309276
10
-138.11251980819526
20
-6.5250000000000075
10
-138.11251980819549
20
63.67499999999999
42
0.41421356237309337
0
LWPOLYLINE
5
101
100
AcDbEntity
8
0
100
AcDbPolyline
90
4
70
1
43
0.0
10
-178.73749999999998
20
-7
10
-192.73750000000001
20
-7
10
-192.73750000000001
20
7
10
-178.73749999999998
20
7
0
LWPOLYLINE
5
102
100
AcDbEntity
8
0
100
AcDbPolyline
90
4
70
1
43
0.0
10
-197.78750000000002
20
26.050000000000004
10
-197.78750000000002
20
12.050000000000002
10
-211.78750000000002
20
12.050000000000002
10
-211.78750000000002
20
26.050000000000004
0
LWPOLYLINE
5
103
100
AcDbEntity
8
0
100
AcDbPolyline
90
4
70
1
43
0.0
10
-216.83750000000003
20
50.150000000000006
10
-230.83750000000003
20
50.150000000000006
10
-230.83750000000003
20
64.150000000000006
10
-216.83750000000003
20
64.150000000000006
0
LWPOLYLINE
5
104
100
AcDbEntity
8
0
100
AcDbPolyline
90
12
70
1
43
0.0
10
-140.63749999999999
20
50.150000000000006
10
-141.72450000000001
20
50.150000000000006
10
-141.72450000000001
20
49.149999999999999
10
-151.13749999999999
20
49.149999999999999
10
-151.13749999999999
20
50.150000000000006
10
-165.60050000000001
20
50.150000000000006
10
-165.60050000000001
20
49.149999999999999
10
-172.60050000000001
20
49.149999999999999
10
-172.60050000000001
20
50.150000000000006
10
-173.68750000000003
20
50.150000000000006
10
-173.68750000000003
20
64.150000000000006
10
-140.63749999999999
20
64.150000000000006
0
LWPOLYLINE
5
105
100
AcDbEntity
8
0
100
AcDbPolyline
90
4
70
1
43
0.0
10
-140.63749999999999
20
26.050000000000004
10
-140.63749999999999
20
12.050000000000002
10
-154.63750000000002
20
12.050000000000002
10
-154.63750000000002
20
26.050000000000004
0
LWPOLYLINE
5
106
100
AcDbEntity
8
0
100
AcDbPolyline
90
4
70
1
43
0.0
10
-173.68750000000003
20
7
10
-159.6875
20
7
10
-159.6875
20
-7
10
-173.68750000000003
20
-7
0
LWPOLYLINE
5
107
100
AcDbEntity
8
0
100
AcDbPolyline
90
4
70
1
43
0.0
10
-173.68750000000003
20
31.100000000000001
10
-173.68750000000003
20
45.100000000000009
10
-159.6875
20
45.100000000000009
10
-159.6875
20
31.100000000000001
0
LWPOLYLINE
5
108
100
AcDbEntity
8
0
100
AcDbPolyline
90
4
70
1
43
0.0
10
-197.78750000000002
20
64.150000000000006
10
-197.78750000000002
20
50.150000000000006
10
-211.78750000000002
20
50.150000000000006
10
-211.78750000000002
20
64.150000000000006
0
LWPOLYLINE
5
109
100
AcDbEntity
8
0
100
AcDbPolyline
90
4
70
1
43
0.0
10
-230.83750000000003
20
26.050000000000004
10
-216.83750000000003
20
26.050000000000004
10
-216.83750000000003
20
12.050000000000002
10
-230.83750000000003
20
12.050000000000002
0
LWPOLYLINE
5
110
100
AcDbEntity
8
0
100
AcDbPolyline
90
4
70
1
43
0.0
10
-211.78750000000002
20
-7
10
-211.78750000000002
20
7
10
-197.78750000000002
20
7
10
-197.78750000000002
20
-7
0
LWPOLYLINE
5
111
100
AcDbEntity
8
0
100
AcDbPolyline
90
4
70
1
43
0.0
10
-178.73749999999998
20
26.050000000000004
10
-178.73749999999998
20
12.050000000000002
10
-192.73750000000001
20
12.050000000000002
10
-192.73750000000001
20
26.050000000000004
0
LWPOLYLINE
5
112
100
AcDbEntity
8
0
100
AcDbPolyline
90
4
70
1
43
0.0
10
-230.83750000000003
20
45.100000000000009
10
-216.83750000000003
20
45.100000000000009
10
-216.83750000000003
20
31.100000000000001
10
-230.83750000000003
20
31.100000000000001
0
LWPOLYLINE
5
113
100
AcDbEntity
8
0
100
AcDbPolyline
90
4
70
1
43
0.0
10
-192.73750000000001
20
31.100000000000001
10
-192.73750000000001
20
45.100000000000009
10
-178.73749999999998
20
45.100000000000009
10
-178.73749999999998
20
31.100000000000001
0
LWPOLYLINE
5
114
100
AcDbEntity
8
0
100
AcDbPolyline
90
4
70
1
43
0.0
10
-173.68750000000003
20
12.050000000000002
10
-173.68750000000003
20
26.050000000000004
10
-159.6875
20
26.050000000000004
10
-159.6875
20
12.050000000000002
0
LWPOLYLINE
5
115
100
AcDbEntity
8
0
100
AcDbPolyline
90
4
70
1
43
0.0
10
-154.63750000000002
20
-7
10
-154.63750000000002
20
7
10
-140.63749999999999
20
7
10
-140.63749999999999
20
-7
0
LWPOLYLINE
5
116
100
AcDbEntity
8
0
100
AcDbPolyline
90
4
70
1
43
0.0
10
-154.63750000000002
20
31.100000000000001
10
-154.63750000000002
20
45.100000000000009
10
-140.63749999999999
20
45.100000000000009
10
-140.63749999999999
20
31.100000000000001
0
LWPOLYLINE
5
117
100
AcDbEntity
8
0
100
AcDbPolyline
90
8
70
1
43
0.0
10
-178.73749999999998
20
64.150000000000006
10
-178.73749999999998
20
50.150000000000006
10
-182.23749999999998
20
50.150000000000006
10
-182.23749999999998
20
49.149999999999999
10
-189.23749999999998
20
49.149999999999999
10
-189.23749999999998
20
50.150000000000006
10
-192.73750000000001
20
50.150000000000006
10
-192.73750000000001
20
64.150000000000006
0
LWPOLYLINE
5
118
100
AcDbEntity
8
0
100
AcDbPolyline
90
4
70
1
43
0.0
10
-211.78750000000002
20
31.100000000000001
10
-211.78750000000002
20
45.100000000000009
10
-197.78750000000002
20
45.100000000000009
10
-197.78750000000002
20
31.100000000000001
0
LWPOLYLINE
5
119
100
AcDbEntity
8
0
100
AcDbPolyline
90
4
70
1
43
0.0
10
-230.83750000000003
20
-7
10
-230.83750000000003
20
7
10
-216.83750000000003
20
7
10
-216.83750000000003
20
-7
0
ENDSEC
0
SECTION
2
OBJECTS
0
DICTIONARY
5
C
100
AcDbDictionary
3
ACAD_GROUP
350
D
3
ACAD_MLINESTYLE
350
17
0
DICTIONARY
5
D
100
AcDbDictionary
0
DICTIONARY
5
1A
330
C
100
AcDbDictionary
0
DICTIONARY
5
17
100
AcDbDictionary
0
ENDSEC
0
EOF
