0
SECTION
2
HEADER
9
$INSUNITS
70
4
9
$ACADVER
1
AC1014
9
$HANDSEED
5
FFFF
0
ENDSEC
0
SECTION
2
TABLES
0
TABLE
2
VPORT
5
8
100
AcDbSymbolTable
0
ENDTAB
0
TABLE
2
LTYPE
5
5
100
AcDbSymbolTable
0
LTYPE
5
14
100
AcDbSymbolTableRecord
100
AcDbLinetypeTableRecord
2
BYBLOCK
70
0
0
LTYPE
5
15
100
AcDbSymbolTableRecord
100
AcDbLinetypeTableRecord
2
BYLAYER
70
0
0
ENDTAB
0
TABLE
2
LAYER
5
2
100
AcDbSymbolTable
70
2
0
LAYER
5
50
100
AcDbSymbolTableRecord
100
AcDbLayerTableRecord
2
0
70
0
6
CONTINUOUS
0
ENDTAB
0
TABLE
2
STYLE
5
3
100
AcDbSymbolTable
70
1
0
STYLE
5
11
100
AcDbSymbolTableRecord
100
AcDbTextStyleTableRecord
2
STANDARD
70
0
0
ENDTAB
0
TABLE
2
VIEW
5
6
100
AcDbSymbolTable
70
0
0
ENDTAB
0
TABLE
2
UCS
5
7
100
AcDbSymbolTable
70
0
0
ENDTAB
0
TABLE
2
APPID
5
9
100
AcDbSymbolTable
70
2
0
APPID
5
12
100
AcDbSymbolTableRecord
100
AcDbRegAppTableRecord
2
ACAD
70
0
0
ENDTAB
0
TABLE
2
DIMSTYLE
5
A
100
AcDbSymbolTable
70
1
0
ENDTAB
0
TABLE
2
BLOCK_RECORD
5
1
100
AcDbSymbolTable
70
1
0
BLOCK_RECORD
5
1F
100
AcDbSymbolTableRecord
100
AcDbBlockTableRecord
2
*MODEL_SPACE
0
BLOCK_RECORD
5
1B
100
AcDbSymbolTableRecord
100
AcDbBlockTableRecord
2
*PAPER_SPACE
0
ENDTAB
0
ENDSEC
0
SECTION
2
BLOCKS
0
BLOCK
5
20
100
AcDbEntity
100
AcDbBlockBegin
2
*MODEL_SPACE
0
ENDBLK
5
21
100
AcDbEntity
100
AcDbBlockEnd
0
BLOCK
5
1C
100
AcDbEntity
100
AcDbBlockBegin
2
*PAPER_SPACE
0
ENDBLK
5
1D
100
AcDbEntity
100
AcDbBlockEnd
0
ENDSEC
0
SECTION
2
ENTITIES
0
LWPOLYLINE
5
100
100
AcDbEntity
8
0
100
AcDbPolyline
90
24
70
1
43
0.0
10
-216.11614973081004
20
-9.0000000000000586
10
-141.11251980819529
20
-9.0000000000000373
42
0.41421356237309204
10
-138.11251980819526
20
-6.000000000000032
10
-138.11251980819549
20
63.150000000000006
42
0.41421356237309337
10
-141.11251980819549
20
66.150000000000006
10
-216.11614973081004
20
66.149999999999977
42
-0.26794919243113252
10
-217.8482005383789
20
67.150000000000048
10
-220.15760161513805
20
71.150000000000006
10
-222.6138812012579
20
71.149999999999991
42
-9.9498743710683968
10
-223.11137491981111
20
71.149999999999991
10
-228.22939838486201
20
71.150000000000006
10
-230.53879946162098
20
67.150000000000006
42
-0.26794919243100146
10
-232.270850269189
20
66.149999999999963
10
-232.33750000000001
20
66.149999999999977
42
0.41421356237295454
10
-232.83749999999998
20
65.649999999999963
10
-232.83750000000001
20
-8.500000000000032
42
0.4142135623731269
10
-232.33750000000001
20
-9.0000000000000231
10
-232.27085026918999
20
-9.0000000000000231
42
-0.26794919243115595
10
-230.53879946162115
20
-10.000000000000099
10
-228.22939838486201
20
-14.000000000000039
10
-223.11111879874204
20
-14.000000000000039
42
-9.9498743710669757
10
-222.61362508018877
20
-14.000000000000039
10
-220.15760161513805
20
-14.000000000000036
10
-217.84820053837905
20
-9.9999999999999716
42
-0.26794919243111359
0
LWPOLYLINE
5
101
100
AcDbEntity
8
0
100
AcDbPolyline
90
4
70
1
43
0.0
10
-230.83750000000003
20
-7
10
-230.83750000000003
20
7
10
-216.83750000000003
20
7
10
-216.83750000000003
20
-7
0
LWPOLYLINE
5
102
100
AcDbEntity
8
0
100
AcDbPolyline
90
4
70
1
43
0.0
10
-211.78750000000002
20
31.100000000000001
10
-211.78750000000002
20
45.100000000000009
10
-197.78750000000002
20
45.100000000000009
10
-197.78750000000002
20
31.100000000000001
0
LWPOLYLINE
5
103
100
AcDbEntity
8
0
100
AcDbPolyline
90
8
70
1
43
0.0
10
-178.73749999999998
20
64.150000000000006
10
-178.73749999999998
20
50.150000000000006
10
-182.23749999999998
20
50.150000000000006
10
-182.23749999999998
20
49.149999999999999
10
-189.23749999999998
20
49.149999999999999
10
-189.23749999999998
20
50.150000000000006
10
-192.73750000000001
20
50.150000000000006
10
-192.73750000000001
20
64.150000000000006
0
LWPOLYLINE
5
104
100
AcDbEntity
8
0
100
AcDbPolyline
90
4
70
1
43
0.0
10
-154.63750000000002
20
31.100000000000001
10
-154.63750000000002
20
45.100000000000009
10
-140.63749999999999
20
45.100000000000009
10
-140.63749999999999
20
31.100000000000001
0
LWPOLYLINE
5
105
100
AcDbEntity
8
0
100
AcDbPolyline
90
4
70
1
43
0.0
10
-154.63750000000002
20
-7
10
-154.63750000000002
20
7
10
-140.63749999999999
20
7
10
-140.63749999999999
20
-7
0
LWPOLYLINE
5
106
100
AcDbEntity
8
0
100
AcDbPolyline
90
4
70
1
43
0.0
10
-173.68750000000003
20
12.050000000000002
10
-173.68750000000003
20
26.050000000000004
10
-159.6875
20
26.050000000000004
10
-159.6875
20
12.050000000000002
0
LWPOLYLINE
5
107
100
AcDbEntity
8
0
100
AcDbPolyline
90
4
70
1
43
0.0
10
-192.73750000000001
20
31.100000000000001
10
-192.73750000000001
20
45.100000000000009
10
-178.73749999999998
20
45.100000000000009
10
-178.73749999999998
20
31.100000000000001
0
LWPOLYLINE
5
108
100
AcDbEntity
8
0
100
AcDbPolyline
90
4
70
1
43
0.0
10
-230.83750000000003
20
45.100000000000009
10
-216.83750000000003
20
45.100000000000009
10
-216.83750000000003
20
31.100000000000001
10
-230.83750000000003
20
31.100000000000001
0
LWPOLYLINE
5
109
100
AcDbEntity
8
0
100
AcDbPolyline
90
4
70
1
43
0.0
10
-178.73749999999998
20
26.050000000000004
10
-178.73749999999998
20
12.050000000000002
10
-192.73750000000001
20
12.050000000000002
10
-192.73750000000001
20
26.050000000000004
0
LWPOLYLINE
5
110
100
AcDbEntity
8
0
100
AcDbPolyline
90
4
70
1
43
0.0
10
-211.78750000000002
20
-7
10
-211.78750000000002
20
7
10
-197.78750000000002
20
7
10
-197.78750000000002
20
-7
0
LWPOLYLINE
5
111
100
AcDbEntity
8
0
100
AcDbPolyline
90
4
70
1
43
0.0
10
-230.83750000000003
20
26.050000000000004
10
-216.83750000000003
20
26.050000000000004
10
-216.83750000000003
20
12.050000000000002
10
-230.83750000000003
20
12.050000000000002
0
LWPOLYLINE
5
112
100
AcDbEntity
8
0
100
AcDbPolyline
90
4
70
1
43
0.0
10
-197.78750000000002
20
64.150000000000006
10
-197.78750000000002
20
50.150000000000006
10
-211.78750000000002
20
50.150000000000006
10
-211.78750000000002
20
64.150000000000006
0
LWPOLYLINE
5
113
100
AcDbEntity
8
0
100
AcDbPolyline
90
4
70
1
43
0.0
10
-173.68750000000003
20
31.100000000000001
10
-173.68750000000003
20
45.100000000000009
10
-159.6875
20
45.100000000000009
10
-159.6875
20
31.100000000000001
0
LWPOLYLINE
5
114
100
AcDbEntity
8
0
100
AcDbPolyline
90
4
70
1
43
0.0
10
-173.68750000000003
20
7
10
-159.6875
20
7
10
-159.6875
20
-7
10
-173.68750000000003
20
-7
0
LWPOLYLINE
5
115
100
AcDbEntity
8
0
100
AcDbPolyline
90
4
70
1
43
0.0
10
-140.63749999999999
20
26.050000000000004
10
-140.63749999999999
20
12.050000000000002
10
-154.63750000000002
20
12.050000000000002
10
-154.63750000000002
20
26.050000000000004
0
LWPOLYLINE
5
116
100
AcDbEntity
8
0
100
AcDbPolyline
90
12
70
1
43
0.0
10
-140.63749999999999
20
50.150000000000006
10
-141.72450000000001
20
50.150000000000006
10
-141.72450000000001
20
49.149999999999999
10
-151.13749999999999
20
49.149999999999999
10
-151.13749999999999
20
50.150000000000006
10
-165.60050000000001
20
50.150000000000006
10
-165.60050000000001
20
49.149999999999999
10
-172.60050000000001
20
49.149999999999999
10
-172.60050000000001
20
50.150000000000006
10
-173.68750000000003
20
50.150000000000006
10
-173.68750000000003
20
64.150000000000006
10
-140.63749999999999
20
64.150000000000006
0
LWPOLYLINE
5
117
100
AcDbEntity
8
0
100
AcDbPolyline
90
4
70
1
43
0.0
10
-216.83750000000003
20
50.150000000000006
10
-230.83750000000003
20
50.150000000000006
10
-230.83750000000003
20
64.150000000000006
10
-216.83750000000003
20
64.150000000000006
0
LWPOLYLINE
5
118
100
AcDbEntity
8
0
100
AcDbPolyline
90
4
70
1
43
0.0
10
-197.78750000000002
20
26.050000000000004
10
-197.78750000000002
20
12.050000000000002
10
-211.78750000000002
20
12.050000000000002
10
-211.78750000000002
20
26.050000000000004
0
LWPOLYLINE
5
119
100
AcDbEntity
8
0
100
AcDbPolyline
90
4
70
1
43
0.0
10
-178.73749999999998
20
-7
10
-192.73750000000001
20
-7
10
-192.73750000000001
20
7
10
-178.73749999999998
20
7
0
ENDSEC
0
SECTION
2
OBJECTS
0
DICTIONARY
5
C
100
AcDbDictionary
3
ACAD_GROUP
350
D
3
ACAD_MLINESTYLE
350
17
0
DICTIONARY
5
D
100
AcDbDictionary
0
DICTIONARY
5
1A
330
C
100
AcDbDictionary
0
DICTIONARY
5
17
100
AcDbDictionary
0
ENDSEC
0
EOF
