0
SECTION
2
HEADER
9
$INSUNITS
70
4
9
$ACADVER
1
AC1014
9
$HANDSEED
5
FFFF
0
ENDSEC
0
SECTION
2
TABLES
0
TABLE
2
VPORT
5
8
100
AcDbSymbolTable
0
ENDTAB
0
TABLE
2
LTYPE
5
5
100
AcDbSymbolTable
0
LTYPE
5
14
100
AcDbSymbolTableRecord
100
AcDbLinetypeTableRecord
2
BYBLOCK
70
0
0
LTYPE
5
15
100
AcDbSymbolTableRecord
100
AcDbLinetypeTableRecord
2
BYLAYER
70
0
0
ENDTAB
0
TABLE
2
LAYER
5
2
100
AcDbSymbolTable
70
2
0
LAYER
5
50
100
AcDbSymbolTableRecord
100
AcDbLayerTableRecord
2
0
70
0
6
CONTINUOUS
0
ENDTAB
0
TABLE
2
STYLE
5
3
100
AcDbSymbolTable
70
1
0
STYLE
5
11
100
AcDbSymbolTableRecord
100
AcDbTextStyleTableRecord
2
STANDARD
70
0
0
ENDTAB
0
TABLE
2
VIEW
5
6
100
AcDbSymbolTable
70
0
0
ENDTAB
0
TABLE
2
UCS
5
7
100
AcDbSymbolTable
70
0
0
ENDTAB
0
TABLE
2
APPID
5
9
100
AcDbSymbolTable
70
2
0
APPID
5
12
100
AcDbSymbolTableRecord
100
AcDbRegAppTableRecord
2
ACAD
70
0
0
ENDTAB
0
TABLE
2
DIMSTYLE
5
A
100
AcDbSymbolTable
70
1
0
ENDTAB
0
TABLE
2
BLOCK_RECORD
5
1
100
AcDbSymbolTable
70
1
0
BLOCK_RECORD
5
1F
100
AcDbSymbolTableRecord
100
AcDbBlockTableRecord
2
*MODEL_SPACE
0
BLOCK_RECORD
5
1B
100
AcDbSymbolTableRecord
100
AcDbBlockTableRecord
2
*PAPER_SPACE
0
ENDTAB
0
ENDSEC
0
SECTION
2
BLOCKS
0
BLOCK
5
20
100
AcDbEntity
100
AcDbBlockBegin
2
*MODEL_SPACE
0
ENDBLK
5
21
100
AcDbEntity
100
AcDbBlockEnd
0
BLOCK
5
1C
100
AcDbEntity
100
AcDbBlockBegin
2
*PAPER_SPACE
0
ENDBLK
5
1D
100
AcDbEntity
100
AcDbBlockEnd
0
ENDSEC
0
SECTION
2
ENTITIES
0
LWPOLYLINE
5
100
100
AcDbEntity
8
0
100
AcDbPolyline
90
24
70
1
43
0.0
10
-5.9892994616207353
20
-10.000000000000025
42
0.26794919243113025
10
-7.7213502691895997
20
-9
10
-82.725008611758597
20
-9.0000000000000124
42
-0.41421356237309337
10
-85.725008611758611
20
-6.0000000000000231
10
-85.725008611758611
20
63.150000000000013
42
-0.41421356237309337
10
-82.725008611758597
20
66.150000000000006
10
-7.7213502691895997
20
66.150000000000034
42
0.26794919243112941
10
-5.9892994616206963
20
67.150000000000034
10
-3.6798983848622058
20
71.150000000000034
10
-1.2238749198110246
20
71.150000000000034
42
9.9498743710743476
10
-0.7263812012581139
20
71.150000000000034
10
4.3918983848622517
20
71.150000000000034
10
6.7012994616207413
20
67.150000000000034
42
0.26794919243112303
10
8.4333502691896101
20
66.149999999999991
10
8.4999999999994458
20
66.15000000000002
42
-0.41421356237340068
10
8.9999999999999858
20
65.649999999999991
10
9
20
-8.4999999999999964
42
-0.41421356237308721
10
8.5000000000000142
20
-9
10
8.4333502691896811
20
-9
42
0.26794919243113008
10
6.7012994616207422
20
-10
10
4.3918983848622517
20
-14
10
-0.72612508018862643
20
-14.000000000000004
42
9.9498743710601811
10
-1.2236187987422302
20
-14.000000000000004
10
-3.6798983848623124
20
-14.000000000000007
0
LWPOLYLINE
5
101
100
AcDbEntity
8
0
100
AcDbPolyline
90
4
70
1
43
0.0
10
-45.100000000000009
20
26.050000000000004
10
-31.100000000000001
20
26.050000000000004
10
-31.100000000000001
20
12.050000000000002
10
-45.100000000000009
20
12.050000000000002
0
LWPOLYLINE
5
102
100
AcDbEntity
8
0
100
AcDbPolyline
90
4
70
1
43
0.0
10
-50.150000000000006
20
31.100000000000001
10
-64.150000000000006
20
31.100000000000001
10
-64.150000000000006
20
45.100000000000009
10
-50.150000000000006
20
45.100000000000009
0
LWPOLYLINE
5
103
100
AcDbEntity
8
0
100
AcDbPolyline
90
4
70
1
43
0.0
10
-69.200000000000003
20
45.100000000000009
10
-69.200000000000003
20
31.100000000000001
10
-83.199999999999989
20
31.100000000000001
10
-83.199999999999989
20
45.100000000000009
0
LWPOLYLINE
5
104
100
AcDbEntity
8
0
100
AcDbPolyline
90
4
70
1
43
0.0
10
-26.050000000000004
20
-7
10
-26.050000000000004
20
7
10
-12.050000000000002
20
7
10
-12.050000000000002
20
-7
0
LWPOLYLINE
5
105
100
AcDbEntity
8
0
100
AcDbPolyline
90
4
70
1
43
0.0
10
-31.100000000000001
20
7
10
-31.100000000000001
20
-7
10
-45.100000000000009
20
-7
10
-45.100000000000009
20
7
0
LWPOLYLINE
5
106
100
AcDbEntity
8
0
100
AcDbPolyline
90
4
70
1
43
0.0
10
7
20
26.050000000000004
10
7
20
12.050000000000002
10
-7
20
12.050000000000002
10
-7
20
26.050000000000004
0
LWPOLYLINE
5
107
100
AcDbEntity
8
0
100
AcDbPolyline
90
4
70
1
43
0.0
10
-50.150000000000006
20
12.050000000000002
10
-64.150000000000006
20
12.050000000000002
10
-64.150000000000006
20
26.050000000000004
10
-50.150000000000006
20
26.050000000000004
0
LWPOLYLINE
5
108
100
AcDbEntity
8
0
100
AcDbPolyline
90
4
70
1
43
0.0
10
-12.050000000000002
20
64.150000000000006
10
-12.050000000000002
20
50.150000000000006
10
-26.050000000000004
20
50.150000000000006
10
-26.050000000000004
20
64.150000000000006
0
LWPOLYLINE
5
109
100
AcDbEntity
8
0
100
AcDbPolyline
90
8
70
1
43
0.0
10
-45.100000000000009
20
64.150000000000006
10
-31.100000000000001
20
64.150000000000006
10
-31.100000000000001
20
50.150000000000006
10
-34.600000000000009
20
50.150000000000006
10
-34.600000000000009
20
49.149999999999999
10
-41.600000000000009
20
49.149999999999999
10
-41.600000000000009
20
50.150000000000006
10
-45.100000000000009
20
50.150000000000006
0
LWPOLYLINE
5
110
100
AcDbEntity
8
0
100
AcDbPolyline
90
4
70
1
43
0.0
10
-45.100000000000009
20
31.100000000000001
10
-45.100000000000009
20
45.100000000000009
10
-31.100000000000001
20
45.100000000000009
10
-31.100000000000001
20
31.100000000000001
0
LWPOLYLINE
5
111
100
AcDbEntity
8
0
100
AcDbPolyline
90
4
70
1
43
0.0
10
7
20
7
10
7
20
-7
10
-7
20
-7
10
-7
20
7
0
LWPOLYLINE
5
112
100
AcDbEntity
8
0
100
AcDbPolyline
90
4
70
1
43
0.0
10
-7
20
64.150000000000006
10
7
20
64.150000000000006
10
7
20
50.150000000000006
10
-7
20
50.150000000000006
0
LWPOLYLINE
5
113
100
AcDbEntity
8
0
100
AcDbPolyline
90
4
70
1
43
0.0
10
-50.150000000000006
20
50.150000000000006
10
-64.150000000000006
20
50.150000000000006
10
-64.150000000000006
20
64.150000000000006
10
-50.150000000000006
20
64.150000000000006
0
LWPOLYLINE
5
114
100
AcDbEntity
8
0
100
AcDbPolyline
90
4
70
1
43
0.0
10
-64.150000000000006
20
7
10
-50.150000000000006
20
7
10
-50.150000000000006
20
-7
10
-64.150000000000006
20
-7
0
LWPOLYLINE
5
115
100
AcDbEntity
8
0
100
AcDbPolyline
90
4
70
1
43
0.0
10
7
20
31.100000000000001
10
-7
20
31.100000000000001
10
-7
20
45.100000000000009
10
7
20
45.100000000000009
0
LWPOLYLINE
5
116
100
AcDbEntity
8
0
100
AcDbPolyline
90
4
70
1
43
0.0
10
-69.200000000000003
20
-7
10
-83.199999999999989
20
-7
10
-83.199999999999989
20
7
10
-69.200000000000003
20
7
0
LWPOLYLINE
5
117
100
AcDbEntity
8
0
100
AcDbPolyline
90
4
70
1
43
0.0
10
-26.050000000000004
20
12.050000000000002
10
-26.050000000000004
20
26.050000000000004
10
-12.050000000000002
20
26.050000000000004
10
-12.050000000000002
20
12.050000000000002
0
LWPOLYLINE
5
118
100
AcDbEntity
8
0
100
AcDbPolyline
90
4
70
1
43
0.0
10
-12.050000000000002
20
31.100000000000001
10
-26.050000000000004
20
31.100000000000001
10
-26.050000000000004
20
45.100000000000009
10
-12.050000000000002
20
45.100000000000009
0
LWPOLYLINE
5
119
100
AcDbEntity
8
0
100
AcDbPolyline
90
4
70
1
43
0.0
10
-83.199999999999989
20
26.050000000000004
10
-69.200000000000003
20
26.050000000000004
10
-69.200000000000003
20
12.050000000000002
10
-83.199999999999989
20
12.050000000000002
0
LWPOLYLINE
5
120
100
AcDbEntity
8
0
100
AcDbPolyline
90
8
70
1
43
0.0
10
-83.199999999999989
20
50.150000000000006
10
-83.199999999999989
20
64.150000000000006
10
-69.200000000000003
20
64.150000000000006
10
-69.200000000000003
20
50.150000000000006
10
-72.700000000000003
20
50.150000000000006
10
-72.700000000000003
20
49.149999999999999
10
-79.700000000000003
20
49.149999999999999
10
-79.700000000000003
20
50.150000000000006
0
ENDSEC
0
SECTION
2
OBJECTS
0
DICTIONARY
5
C
100
AcDbDictionary
3
ACAD_GROUP
350
D
3
ACAD_MLINESTYLE
350
17
0
DICTIONARY
5
D
100
AcDbDictionary
0
DICTIONARY
5
1A
330
C
100
AcDbDictionary
0
DICTIONARY
5
17
100
AcDbDictionary
0
ENDSEC
0
EOF
