0
SECTION
2
HEADER
9
$INSUNITS
70
4
9
$ACADVER
1
AC1014
9
$HANDSEED
5
FFFF
0
ENDSEC
0
SECTION
2
TABLES
0
TABLE
2
VPORT
5
8
100
AcDbSymbolTable
0
ENDTAB
0
TABLE
2
LTYPE
5
5
100
AcDbSymbolTable
0
LTYPE
5
14
100
AcDbSymbolTableRecord
100
AcDbLinetypeTableRecord
2
BYBLOCK
70
0
0
LTYPE
5
15
100
AcDbSymbolTableRecord
100
AcDbLinetypeTableRecord
2
BYLAYER
70
0
0
ENDTAB
0
TABLE
2
LAYER
5
2
100
AcDbSymbolTable
70
2
0
LAYER
5
50
100
AcDbSymbolTableRecord
100
AcDbLayerTableRecord
2
0
70
0
6
CONTINUOUS
0
ENDTAB
0
TABLE
2
STYLE
5
3
100
AcDbSymbolTable
70
1
0
STYLE
5
11
100
AcDbSymbolTableRecord
100
AcDbTextStyleTableRecord
2
STANDARD
70
0
0
ENDTAB
0
TABLE
2
VIEW
5
6
100
AcDbSymbolTable
70
0
0
ENDTAB
0
TABLE
2
UCS
5
7
100
AcDbSymbolTable
70
0
0
ENDTAB
0
TABLE
2
APPID
5
9
100
AcDbSymbolTable
70
2
0
APPID
5
12
100
AcDbSymbolTableRecord
100
AcDbRegAppTableRecord
2
ACAD
70
0
0
ENDTAB
0
TABLE
2
DIMSTYLE
5
A
100
AcDbSymbolTable
70
1
0
ENDTAB
0
TABLE
2
BLOCK_RECORD
5
1
100
AcDbSymbolTable
70
1
0
BLOCK_RECORD
5
1F
100
AcDbSymbolTableRecord
100
AcDbBlockTableRecord
2
*MODEL_SPACE
0
BLOCK_RECORD
5
1B
100
AcDbSymbolTableRecord
100
AcDbBlockTableRecord
2
*PAPER_SPACE
0
ENDTAB
0
ENDSEC
0
SECTION
2
BLOCKS
0
BLOCK
5
20
100
AcDbEntity
100
AcDbBlockBegin
2
*MODEL_SPACE
0
ENDBLK
5
21
100
AcDbEntity
100
AcDbBlockEnd
0
BLOCK
5
1C
100
AcDbEntity
100
AcDbBlockBegin
2
*PAPER_SPACE
0
ENDBLK
5
1D
100
AcDbEntity
100
AcDbBlockEnd
0
ENDSEC
0
SECTION
2
ENTITIES
0
LWPOLYLINE
5
100
100
AcDbEntity
8
0
100
AcDbPolyline
90
32
70
1
43
0.0
10
-220.15760161513805
20
-14.000000000000036
10
-217.84820053837905
20
-9.9999999999999698
42
-0.26794919243111287
10
-216.11614973081004
20
-9.0000000000000568
10
-7.7213502691895997
20
-9
42
-0.2679491924311313
10
-5.9892994616207362
20
-10.000000000000021
10
-3.6798983848623124
20
-14.000000000000007
10
4.3918983848622517
20
-14
10
6.7012994616207466
20
-10.000000000000002
42
-0.26794919243112975
10
8.4333502691896793
20
-9
10
8.5000000000000142
20
-9
42
0.41421356237308593
10
9.0000000000000018
20
-8.4999999999999982
10
8.9999999999999858
20
65.649999999999991
42
0.4142135623733838
10
8.49999999999946
20
66.150000000000034
10
8.4333502691896101
20
66.149999999999991
42
-0.26794919243112048
10
6.7012994616207404
20
67.150000000000034
10
4.3918983848622517
20
71.150000000000034
10
-3.6798983848622058
20
71.150000000000034
10
-5.9892994616207087
20
67.150000000000034
42
-0.26794919243113069
10
-7.7213502691895997
20
66.150000000000034
10
-216.11614973081004
20
66.149999999999977
42
-0.26794919243114285
10
-217.84820053837888
20
67.150000000000048
10
-220.15760161513805
20
71.150000000000006
10
-228.22939838486201
20
71.150000000000006
10
-230.53879946162098
20
67.150000000000006
42
-0.26794919243100146
10
-232.270850269189
20
66.149999999999963
10
-232.33750000000001
20
66.149999999999977
42
0.41421356237298057
10
-232.83750000000001
20
65.649999999999963
10
-232.83750000000001
20
-8.500000000000032
42
0.41421356237312623
10
-232.33750000000001
20
-9.0000000000000178
10
-232.27085026918999
20
-9.0000000000000266
42
-0.26794919243116488
10
-230.53879946162115
20
-10.000000000000099
10
-228.22939838486201
20
-14.000000000000039
0
LWPOLYLINE
5
101
100
AcDbEntity
8
0
100
AcDbPolyline
90
4
70
1
43
0.0
10
-49.862499999999912
20
50.149999999999793
10
-49.862499999999912
20
64.14999999999975
10
-35.862499999999997
20
64.149999999999764
10
-35.862499999999926
20
50.149999999999807
0
LWPOLYLINE
5
102
100
AcDbEntity
8
0
100
AcDbPolyline
90
4
70
1
43
0.0
10
-16.812499999999986
20
26.049999999999915
10
-16.812499999999915
20
12.049999999999944
10
-30.812499999999901
20
12.049999999999926
10
-30.812499999999972
20
26.049999999999898
0
LWPOLYLINE
5
103
100
AcDbEntity
8
0
100
AcDbPolyline
90
4
70
1
43
0.0
10
-73.962499999999807
20
12.049999999999898
10
-87.962499999999793
20
12.04999999999988
10
-87.962499999999793
20
26.049999999999869
10
-73.962499999999807
20
26.049999999999862
0
LWPOLYLINE
5
104
100
AcDbEntity
8
0
100
AcDbPolyline
90
4
70
1
43
0.0
10
-212.07499999999936
20
12.049999999999788
10
-226.07499999999933
20
12.049999999999773
10
-226.07499999999936
20
26.049999999999738
10
-212.07499999999939
20
26.049999999999756
0
LWPOLYLINE
5
105
100
AcDbEntity
8
0
100
AcDbPolyline
90
4
70
1
43
0.0
10
-59.387499999999918
20
45.099999999999802
10
-45.387499999999932
20
45.099999999999824
10
-45.387499999999932
20
31.099999999999888
10
-59.387499999999847
20
31.09999999999987
0
LWPOLYLINE
5
106
100
AcDbEntity
8
0
100
AcDbPolyline
90
4
70
1
43
0.0
10
-35.862499999999926
20
12.04999999999993
10
-49.862499999999841
20
12.049999999999912
10
-49.862499999999912
20
26.04999999999988
10
-35.862499999999926
20
26.049999999999898
0
LWPOLYLINE
5
107
100
AcDbEntity
8
0
100
AcDbPolyline
90
4
70
1
43
0.0
10
-87.962499999999793
20
50.149999999999764
10
-87.962499999999793
20
64.149999999999721
10
-73.962499999999807
20
64.14999999999975
10
-73.962499999999878
20
50.149999999999778
0
LWPOLYLINE
5
108
100
AcDbEntity
8
0
100
AcDbPolyline
90
4
70
1
43
0.0
10
-12.049999999999983
20
6.9999999999999751
10
-12.049999999999912
20
-6.9999999999999929
10
-26.049999999999969
20
-6.9999999999999929
10
-26.049999999999969
20
6.9999999999999574
0
LWPOLYLINE
5
109
100
AcDbEntity
8
0
100
AcDbPolyline
90
4
70
1
43
0.0
10
-153.66249999999962
20
64.149999999999679
10
-153.66249999999962
20
49.149999999999736
10
-160.66249999999957
20
49.149999999999721
10
-160.66249999999962
20
64.149999999999665
0
LWPOLYLINE
5
110
100
AcDbEntity
8
0
100
AcDbPolyline
90
4
70
1
43
0.0
10
-83.487499999999812
20
45.099999999999767
10
-83.487499999999812
20
31.099999999999834
10
-97.487499999999798
20
31.099999999999845
10
-97.487499999999798
20
45.099999999999774
0
LWPOLYLINE
5
111
100
AcDbEntity
8
0
100
AcDbPolyline
90
4
70
1
43
0.0
10
-150.16249999999957
20
26.04999999999982
10
-150.16249999999957
20
12.049999999999855
10
-164.16249999999957
20
12.049999999999837
10
-164.16249999999957
20
26.049999999999809
0
LWPOLYLINE
5
112
100
AcDbEntity
8
0
100
AcDbPolyline
90
4
70
1
43
0.0
10
-185.59374999999955
20
64.14999999999965
10
-171.59374999999957
20
64.14999999999965
10
-171.59374999999955
20
50.149999999999721
10
-185.59374999999955
20
50.149999999999707
0
LWPOLYLINE
5
113
100
AcDbEntity
8
0
100
AcDbPolyline
90
4
70
1
43
0.0
10
-211.7874999999994
20
31.099999999999728
10
-211.78749999999945
20
45.099999999999696
10
-197.78749999999948
20
45.09999999999971
10
-197.78749999999945
20
31.099999999999746
0
LWPOLYLINE
5
114
100
AcDbEntity
8
0
100
AcDbPolyline
90
4
70
1
43
0.0
10
-40.337499999999906
20
45.099999999999824
10
-26.337499999999991
20
45.099999999999838
10
-26.337499999999991
20
31.099999999999888
10
-40.337499999999906
20
31.099999999999888
0
LWPOLYLINE
5
115
100
AcDbEntity
8
0
100
AcDbPolyline
90
4
70
1
43
0.0
10
-188.26249999999948
20
12.049999999999823
10
-202.26249999999939
20
12.049999999999805
10
-202.26249999999942
20
26.049999999999773
10
-188.26249999999948
20
26.049999999999791
0
LWPOLYLINE
5
116
100
AcDbEntity
8
0
100
AcDbPolyline
90
4
70
1
43
0.0
10
-207.02499999999947
20
64.14999999999965
10
-193.02499999999952
20
64.14999999999965
10
-193.02499999999949
20
50.149999999999686
10
-207.02499999999944
20
50.149999999999686
0
LWPOLYLINE
5
117
100
AcDbEntity
8
0
100
AcDbPolyline
90
4
70
1
43
0.0
10
-54.912499999999866
20
12.049999999999912
10
-68.912499999999781
20
12.049999999999898
10
-68.912499999999852
20
26.049999999999862
10
-54.912499999999866
20
26.04999999999988
0
LWPOLYLINE
5
118
100
AcDbEntity
8
0
100
AcDbPolyline
90
4
70
1
43
0.0
10
-145.39999999999958
20
-7.0000000000001084
10
-159.39999999999955
20
-7.0000000000001172
10
-159.39999999999955
20
6.9999999999998508
10
-145.39999999999961
20
6.9999999999998685
0
LWPOLYLINE
5
119
100
AcDbEntity
8
0
100
AcDbPolyline
90
4
70
1
43
0.0
10
-228.45624999999933
20
50.14999999999965
10
-228.45624999999939
20
64.149999999999622
10
-214.45624999999944
20
64.149999999999622
10
-214.45624999999939
20
50.149999999999665
0
LWPOLYLINE
5
120
100
AcDbEntity
8
0
100
AcDbPolyline
90
4
70
1
43
0.0
10
-135.58749999999969
20
45.09999999999976
10
-121.58749999999969
20
45.09999999999976
10
-121.58749999999969
20
31.09999999999981
10
-135.58749999999964
20
31.09999999999981
0
LWPOLYLINE
5
121
100
AcDbEntity
8
0
100
AcDbPolyline
90
4
70
1
43
0.0
10
-9.3812499999999943
20
12.049999999999962
10
-9.3812499999999943
20
26.049999999999926
10
4.6187499999999915
20
26.049999999999926
10
4.6187499999999915
20
12.049999999999956
0
LWPOLYLINE
5
122
100
AcDbEntity
8
0
100
AcDbPolyline
90
4
70
1
43
0.0
10
-216.83749999999944
20
45.099999999999696
10
-216.83749999999944
20
31.099999999999728
10
-230.83749999999935
20
31.09999999999971
10
-230.83749999999938
20
45.099999999999682
0
LWPOLYLINE
5
123
100
AcDbEntity
8
0
100
AcDbPolyline
90
4
70
1
43
0.0
10
-31.099999999999923
20
-7.0000000000000107
10
-45.099999999999838
20
-7.0000000000000107
10
-45.099999999999838
20
6.9999999999999396
10
-31.099999999999923
20
6.9999999999999396
0
LWPOLYLINE
5
124
100
AcDbEntity
8
0
100
AcDbPolyline
90
4
70
1
43
0.0
10
-178.44999999999945
20
-7.0000000000001172
10
-178.44999999999945
20
6.999999999999833
10
-164.44999999999951
20
6.9999999999998508
10
-164.44999999999951
20
-7.0000000000001172
0
LWPOLYLINE
5
125
100
AcDbEntity
8
0
100
AcDbPolyline
90
4
70
1
43
0.0
10
-69.199999999999804
20
-7.0000000000000462
10
-83.199999999999719
20
-7.0000000000000462
10
-83.199999999999719
20
6.9999999999999218
10
-69.199999999999804
20
6.9999999999999218
0
LWPOLYLINE
5
126
100
AcDbEntity
8
0
100
AcDbPolyline
90
4
70
1
43
0.0
10
-197.4999999999994
20
-7.000000000000135
10
-197.49999999999943
20
6.9999999999998153
10
-183.49999999999949
20
6.999999999999833
10
-183.49999999999943
20
-7.0000000000001172
0
LWPOLYLINE
5
127
100
AcDbEntity
8
0
100
AcDbPolyline
90
4
70
1
43
0.0
10
-88.249999999999744
20
-7.0000000000000639
10
-102.24999999999973
20
-7.0000000000000728
10
-102.24999999999973
20
6.9999999999998863
10
-88.249999999999744
20
6.9999999999999041
0
LWPOLYLINE
5
128
100
AcDbEntity
8
0
100
AcDbPolyline
90
4
70
1
43
0.0
10
-183.21249999999949
20
26.049999999999791
10
-169.21249999999955
20
26.049999999999809
10
-169.21249999999952
20
12.049999999999837
10
-183.21249999999949
20
12.049999999999823
0
LWPOLYLINE
5
129
100
AcDbEntity
8
0
100
AcDbPolyline
90
4
70
1
43
0.0
10
-96.512499999999761
20
49.149999999999785
10
-103.51249999999972
20
49.149999999999771
10
-103.51249999999972
20
64.149999999999721
10
-96.512499999999761
20
64.149999999999721
0
LWPOLYLINE
5
130
100
AcDbEntity
8
0
100
AcDbPolyline
90
4
70
1
43
0.0
10
-107.29999999999968
20
-7.0000000000000728
10
-121.29999999999964
20
-7.0000000000000906
10
-121.29999999999967
20
6.9999999999998774
10
-107.29999999999968
20
6.9999999999998952
0
LWPOLYLINE
5
131
100
AcDbEntity
8
0
100
AcDbPolyline
90
4
70
1
43
0.0
10
-58.412499999999881
20
49.149999999999814
10
-65.412499999999838
20
49.149999999999814
10
-65.412499999999838
20
64.14999999999975
10
-58.412499999999881
20
64.14999999999975
0
LWPOLYLINE
5
132
100
AcDbEntity
8
0
100
AcDbPolyline
90
4
70
1
43
0.0
10
6.9999999999999574
20
6.999999999999984
10
6.9999999999999574
20
-6.999999999999984
10
-6.9999999999999574
20
-6.9999999999999929
10
-6.9999999999999574
20
6.9999999999999751
0
LWPOLYLINE
5
133
100
AcDbEntity
8
0
100
AcDbPolyline
90
4
70
1
43
0.0
10
-131.11249999999961
20
64.149999999999693
10
-131.11249999999961
20
50.14999999999975
10
-145.11249999999961
20
50.149999999999729
10
-145.11249999999961
20
64.149999999999679
0
LWPOLYLINE
5
134
100
AcDbEntity
8
0
100
AcDbPolyline
90
4
70
1
43
0.0
10
-159.68749999999957
20
45.099999999999731
10
-159.68749999999957
20
31.099999999999781
10
-173.68749999999955
20
31.099999999999763
10
-173.68749999999955
20
45.099999999999731
0
LWPOLYLINE
5
135
100
AcDbEntity
8
0
100
AcDbPolyline
90
4
70
1
43
0.0
10
-64.437499999999872
20
45.099999999999802
10
-64.437499999999872
20
31.09999999999987
10
-78.437499999999787
20
31.099999999999852
10
-78.437499999999787
20
45.099999999999781
0
LWPOLYLINE
5
136
100
AcDbEntity
8
0
100
AcDbPolyline
90
4
70
1
43
0.0
10
-0.14375000000001137
20
45.099999999999845
10
-0.14375000000001137
20
31.099999999999895
10
-14.143749999999997
20
31.099999999999888
10
-14.143749999999997
20
45.099999999999838
0
LWPOLYLINE
5
137
100
AcDbEntity
8
0
100
AcDbPolyline
90
4
70
1
43
0.0
10
-116.53749999999974
20
45.099999999999774
10
-102.53749999999975
20
45.099999999999774
10
-102.53749999999975
20
31.099999999999824
10
-116.53749999999971
20
31.099999999999824
0
LWPOLYLINE
5
138
100
AcDbEntity
8
0
100
AcDbPolyline
90
4
70
1
43
0.0
10
-140.63749999999965
20
31.099999999999788
10
-154.63749999999959
20
31.099999999999774
10
-154.63749999999962
20
45.099999999999724
10
-140.63749999999965
20
45.099999999999739
0
LWPOLYLINE
5
139
100
AcDbEntity
8
0
100
AcDbPolyline
90
4
70
1
43
0.0
10
-93.012499999999747
20
26.049999999999869
10
-93.012499999999747
20
12.04999999999988
10
-107.0124999999997
20
12.049999999999867
10
-107.01249999999973
20
26.049999999999855
0
LWPOLYLINE
5
140
100
AcDbEntity
8
0
100
AcDbPolyline
90
4
70
1
43
0.0
10
-131.11249999999961
20
12.049999999999867
10
-145.11249999999959
20
12.049999999999855
10
-145.11249999999959
20
26.04999999999982
10
-131.11249999999961
20
26.049999999999834
0
LWPOLYLINE
5
141
100
AcDbEntity
8
0
100
AcDbPolyline
90
4
70
1
43
0.0
10
-112.06249999999969
20
12.049999999999867
10
-126.06249999999967
20
12.049999999999867
10
-126.06249999999967
20
26.049999999999834
10
-112.06249999999969
20
26.049999999999855
0
LWPOLYLINE
5
142
100
AcDbEntity
8
0
100
AcDbPolyline
90
4
70
1
43
0.0
10
-64.149999999999849
20
-7.0000000000000284
10
-64.149999999999849
20
6.9999999999999396
10
-50.149999999999935
20
6.9999999999999218
10
-50.149999999999864
20
-7.0000000000000284
0
LWPOLYLINE
5
143
100
AcDbEntity
8
0
100
AcDbPolyline
90
4
70
1
43
0.0
10
6.9999999999998863
20
64.149999999999807
10
6.9999999999999574
20
50.149999999999835
10
-7.0000000000000284
20
50.149999999999821
10
-7.0000000000000284
20
64.149999999999793
0
LWPOLYLINE
5
144
100
AcDbEntity
8
0
100
AcDbPolyline
90
4
70
1
43
0.0
10
-126.34999999999962
20
6.9999999999998774
10
-126.34999999999962
20
-7.0000000000000906
10
-140.34999999999957
20
-7.0000000000001084
10
-140.34999999999962
20
6.9999999999998597
0
LWPOLYLINE
5
145
100
AcDbEntity
8
0
100
AcDbPolyline
90
4
70
1
43
0.0
10
-178.73749999999947
20
31.099999999999763
10
-192.73749999999947
20
31.099999999999746
10
-192.73749999999947
20
45.09999999999971
10
-178.73749999999947
20
45.099999999999731
0
LWPOLYLINE
5
146
100
AcDbEntity
8
0
100
AcDbPolyline
90
4
70
1
43
0.0
10
-122.56249999999966
20
64.149999999999721
10
-115.5624999999997
20
64.149999999999721
10
-115.5624999999997
20
49.149999999999771
10
-122.56249999999966
20
49.14999999999975
0
LWPOLYLINE
5
147
100
AcDbEntity
8
0
100
AcDbPolyline
90
4
70
1
43
0.0
10
-28.431249999999935
20
64.149999999999764
10
-14.43125000000002
20
64.149999999999764
10
-14.43125000000002
20
50.149999999999807
10
-28.431249999999935
20
50.149999999999828
0
LWPOLYLINE
5
148
100
AcDbEntity
8
0
100
AcDbPolyline
90
4
70
1
43
0.0
10
-209.69374999999999
20
7
10
-209.69374999999999
20
-7
10
-223.69375000000002
20
-7
10
-223.69375000000002
20
7
0
ENDSEC
0
SECTION
2
OBJECTS
0
DICTIONARY
5
C
100
AcDbDictionary
3
ACAD_GROUP
350
D
3
ACAD_MLINESTYLE
350
17
0
DICTIONARY
5
D
100
AcDbDictionary
0
DICTIONARY
5
1A
330
C
100
AcDbDictionary
0
DICTIONARY
5
17
100
AcDbDictionary
0
ENDSEC
0
EOF
