0
SECTION
2
HEADER
9
$INSUNITS
70
4
9
$ACADVER
1
AC1014
9
$HANDSEED
5
FFFF
0
ENDSEC
0
SECTION
2
TABLES
0
TABLE
2
VPORT
5
8
100
AcDbSymbolTable
0
ENDTAB
0
TABLE
2
LTYPE
5
5
100
AcDbSymbolTable
0
LTYPE
5
14
100
AcDbSymbolTableRecord
100
AcDbLinetypeTableRecord
2
BYBLOCK
70
0
0
LTYPE
5
15
100
AcDbSymbolTableRecord
100
AcDbLinetypeTableRecord
2
BYLAYER
70
0
0
ENDTAB
0
TABLE
2
LAYER
5
2
100
AcDbSymbolTable
70
2
0
LAYER
5
50
100
AcDbSymbolTableRecord
100
AcDbLayerTableRecord
2
0
70
0
6
CONTINUOUS
0
ENDTAB
0
TABLE
2
STYLE
5
3
100
AcDbSymbolTable
70
1
0
STYLE
5
11
100
AcDbSymbolTableRecord
100
AcDbTextStyleTableRecord
2
STANDARD
70
0
0
ENDTAB
0
TABLE
2
VIEW
5
6
100
AcDbSymbolTable
70
0
0
ENDTAB
0
TABLE
2
UCS
5
7
100
AcDbSymbolTable
70
0
0
ENDTAB
0
TABLE
2
APPID
5
9
100
AcDbSymbolTable
70
2
0
APPID
5
12
100
AcDbSymbolTableRecord
100
AcDbRegAppTableRecord
2
ACAD
70
0
0
ENDTAB
0
TABLE
2
DIMSTYLE
5
A
100
AcDbSymbolTable
70
1
0
ENDTAB
0
TABLE
2
BLOCK_RECORD
5
1
100
AcDbSymbolTable
70
1
0
BLOCK_RECORD
5
1F
100
AcDbSymbolTableRecord
100
AcDbBlockTableRecord
2
*MODEL_SPACE
0
BLOCK_RECORD
5
1B
100
AcDbSymbolTableRecord
100
AcDbBlockTableRecord
2
*PAPER_SPACE
0
ENDTAB
0
ENDSEC
0
SECTION
2
BLOCKS
0
BLOCK
5
20
100
AcDbEntity
100
AcDbBlockBegin
2
*MODEL_SPACE
0
ENDBLK
5
21
100
AcDbEntity
100
AcDbBlockEnd
0
BLOCK
5
1C
100
AcDbEntity
100
AcDbBlockBegin
2
*PAPER_SPACE
0
ENDBLK
5
1D
100
AcDbEntity
100
AcDbBlockEnd
0
ENDSEC
0
SECTION
2
ENTITIES
0
LWPOLYLINE
5
100
100
AcDbEntity
8
0
100
AcDbPolyline
90
12
70
1
43
0.0
10
-20.791376400490421
20
6.9979999999999931
42
0.65765271621990751
10
-20.779787661484107
20
12.047999999999996
10
-11.519000000000021
20
12.047999999999996
10
-11.519000000000021
20
26.048000000000002
10
-25.51900000000003
20
26.048000000000002
10
-25.51900000000003
20
12.047999999999996
10
-22.970215701845206
20
12.047999999999998
42
0.65765271621990773
10
-22.958626962838892
20
6.9979999999999931
10
-25.51900000000003
20
6.9979999999999931
10
-25.51900000000003
20
-7.002000000000006
10
-11.519000000000021
20
-7.002000000000006
10
-11.519000000000021
20
6.9979999999999931
0
LWPOLYLINE
5
101
100
AcDbEntity
8
0
100
AcDbPolyline
90
12
70
1
43
0.0
10
-129.76614048286876
20
31.097999999999995
42
0.65961207950651768
10
-129.52093669874583
20
26.048000000000005
10
-137.59900000000005
20
26.048000000000002
10
-137.59900000000005
20
12.047999999999996
10
-123.59900000000003
20
12.047999999999996
10
-123.59900000000003
20
26.048000000000002
10
-127.6036534645836
20
26.048000000000002
42
0.65961207950652634
10
-127.35844968046067
20
31.097999999999995
10
-123.59900000000003
20
31.097999999999995
10
-123.59900000000003
20
45.097999999999999
10
-137.59900000000005
20
45.097999999999999
10
-137.59900000000005
20
31.097999999999995
0
LWPOLYLINE
5
102
100
AcDbEntity
8
0
100
AcDbPolyline
90
12
70
1
43
0.0
10
-99.170215701845279
20
12.048000000000002
42
0.65765271621990395
10
-99.15862696283881
20
6.9979999999999869
10
-100.23900000000003
20
6.9979999999999931
10
-100.23900000000003
20
-7.002000000000006
10
-86.239000000000033
20
-7.002000000000006
10
-86.239000000000033
20
6.9979999999999931
10
-96.991376400490481
20
6.9979999999999931
42
0.65765271621991184
10
-96.979787661484025
20
12.047999999999996
10
-86.239000000000033
20
12.047999999999996
10
-86.239000000000033
20
26.048000000000002
10
-100.23900000000003
20
26.048000000000002
10
-100.23900000000003
20
12.047999999999996
0
LWPOLYLINE
5
103
100
AcDbEntity
8
0
100
AcDbPolyline
90
8
70
1
43
0.0
10
9.7749983183353706
20
-6.5244999999999997
10
9.7749983183353351
20
63.675401000000051
42
0.41421356237309503
10
6.774998318335328
20
66.675401000000051
10
-230.61229508166474
20
66.675401000000022
42
0.41421356237309159
10
-233.61229508166474
20
63.675401000000051
10
-233.61229508166471
20
-6.5244999999999642
42
0.41421356237309503
10
-230.61229508166468
20
-9.5244999999999713
10
6.7749983183353635
20
-9.5245000000000068
42
0.41421356237309503
0
LWPOLYLINE
5
104
100
AcDbEntity
8
0
100
AcDbPolyline
90
10
70
1
43
0.0
10
-174.95900000000003
20
57.744167416240238
42
0.35100469497446318
10
-174.95900000000003
20
54.306634583759831
10
-174.95900000000003
20
50.147999999999996
10
-172.56900000000002
20
50.147999999999996
10
-172.56900000000002
20
49.147999999999996
10
-164.82900000000004
20
49.147999999999996
10
-164.82900000000004
20
50.147999999999996
10
-160.95900000000003
20
50.147999999999996
10
-160.95900000000003
20
64.147999999999996
10
-174.95900000000003
20
64.147999999999996
0
LWPOLYLINE
5
105
100
AcDbEntity
8
0
100
AcDbPolyline
90
14
70
1
43
0.0
10
-67.559000000000026
20
53.095759059497709
42
1.1298178975693309
10
-67.559000000000026
20
58.555042940502311
10
-67.559000000000026
20
64.147999999999996
10
-100.23900000000003
20
64.147999999999996
10
-100.23900000000003
20
50.147999999999996
10
-99.337000000000032
20
50.147999999999996
10
-99.337000000000032
20
49.147999999999996
10
-90.109000000000037
20
49.147999999999996
10
-90.109000000000037
20
50.147999999999996
10
-75.461000000000027
20
50.147999999999996
10
-75.461000000000027
20
49.147999999999996
10
-68.461000000000041
20
49.147999999999996
10
-68.461000000000041
20
50.147999999999996
10
-67.559000000000026
20
50.147999999999996
0
LWPOLYLINE
5
106
100
AcDbEntity
8
0
100
AcDbPolyline
90
6
70
1
43
0.0
10
-198.37172146470053
20
6.9979999999999931
10
-198.31900000000002
20
6.9979999999999931
10
-198.31900000000002
20
-7.002000000000006
10
-212.31900000000002
20
-7.002000000000006
10
-212.31900000000002
20
6.9979999999999931
10
-203.85286869862875
20
6.998000000000002
42
-1.0864513843267205
0
LWPOLYLINE
5
107
100
AcDbEntity
8
0
100
AcDbPolyline
90
6
70
1
43
0.0
10
-17.700915005276258
20
45.097999999999999
10
-11.519000000000021
20
45.097999999999999
10
-11.519000000000021
20
31.097999999999995
10
-25.51900000000003
20
31.097999999999995
10
-25.51900000000003
20
45.097999999999999
10
-22.949088358053039
20
45.098000000000013
42
-0.73450355788276067
0
LWPOLYLINE
5
108
100
AcDbEntity
8
0
100
AcDbPolyline
90
4
70
1
43
0.0
10
-198.31900000000002
20
64.147999999999996
10
-198.31900000000002
20
50.147999999999996
10
-212.31900000000002
20
50.147999999999996
10
-212.31900000000002
20
64.147999999999996
0
LWPOLYLINE
5
109
100
AcDbEntity
8
0
100
AcDbPolyline
90
4
70
1
43
0.0
10
-212.31900000000002
20
31.097999999999995
10
-212.31900000000002
20
45.097999999999999
10
-198.31900000000002
20
45.097999999999999
10
-198.31900000000002
20
31.097999999999995
0
LWPOLYLINE
5
110
100
AcDbEntity
8
0
100
AcDbPolyline
90
4
70
1
43
0.0
10
-48.879000000000033
20
-7.002000000000006
10
-62.879000000000019
20
-7.002000000000006
10
-62.879000000000019
20
6.9979999999999931
10
-48.879000000000033
20
6.9979999999999931
0
LWPOLYLINE
5
111
100
AcDbEntity
8
0
100
AcDbPolyline
90
8
70
1
43
0.0
10
-59.009000000000036
20
49.147999999999996
10
-59.009000000000036
20
50.147999999999996
10
-62.879000000000019
20
50.147999999999996
10
-62.879000000000019
20
64.147999999999996
10
-48.879000000000033
20
64.147999999999996
10
-48.879000000000033
20
50.147999999999996
10
-51.269000000000027
20
50.147999999999996
10
-51.269000000000027
20
49.147999999999996
0
LWPOLYLINE
5
112
100
AcDbEntity
8
0
100
AcDbPolyline
90
12
70
1
43
0.0
10
-123.59900000000003
20
64.147999999999996
10
-123.59900000000003
20
50.147999999999996
10
-124.50100000000005
20
50.147999999999996
10
-124.50100000000005
20
49.147999999999996
10
-133.72900000000004
20
49.147999999999996
10
-133.72900000000004
20
50.147999999999996
10
-148.37700000000001
20
50.147999999999996
10
-148.37700000000001
20
49.147999999999996
10
-155.37700000000004
20
49.147999999999996
10
-155.37700000000004
20
50.147999999999996
10
-156.27900000000002
20
50.147999999999996
10
-156.27900000000002
20
64.147999999999996
0
LWPOLYLINE
5
113
100
AcDbEntity
8
0
100
AcDbPolyline
90
4
70
1
43
0.0
10
-179.63899999999998
20
6.9979999999999931
10
-179.63899999999998
20
-7.002000000000006
10
-193.63900000000001
20
-7.002000000000006
10
-193.63900000000001
20
6.9979999999999931
0
LWPOLYLINE
5
114
100
AcDbEntity
8
0
100
AcDbPolyline
90
4
70
1
43
0.0
10
-193.63900000000001
20
26.048000000000002
10
-179.63899999999998
20
26.048000000000002
10
-179.63899999999998
20
12.047999999999996
10
-193.63900000000001
20
12.047999999999996
0
LWPOLYLINE
5
115
100
AcDbEntity
8
0
100
AcDbPolyline
90
4
70
1
43
0.0
10
-193.63900000000001
20
50.147999999999996
10
-193.63900000000001
20
64.147999999999996
10
-179.63899999999998
20
64.147999999999996
10
-179.63899999999998
20
50.147999999999996
0
LWPOLYLINE
5
116
100
AcDbEntity
8
0
100
AcDbPolyline
90
4
70
1
43
0.0
10
-216.99900000000002
20
-7.002000000000006
10
-230.99900000000002
20
-7.002000000000006
10
-230.99900000000002
20
6.9979999999999931
10
-216.99900000000002
20
6.9979999999999931
0
LWPOLYLINE
5
117
100
AcDbEntity
8
0
100
AcDbPolyline
90
4
70
1
43
0.0
10
-6.8390000000000235
20
50.147999999999996
10
-6.8390000000000235
20
64.147999999999996
10
7.1609999999999774
20
64.147999999999996
10
7.1609999999999774
20
50.147999999999996
0
LWPOLYLINE
5
118
100
AcDbEntity
8
0
100
AcDbPolyline
90
4
70
1
43
0.0
10
-44.199000000000041
20
-7.002000000000006
10
-44.199000000000041
20
6.9979999999999931
10
-30.19900000000003
20
6.9979999999999931
10
-30.19900000000003
20
-7.002000000000006
0
LWPOLYLINE
5
119
100
AcDbEntity
8
0
100
AcDbPolyline
90
4
70
1
43
0.0
10
-67.559000000000026
20
45.097999999999999
10
-67.559000000000026
20
31.097999999999995
10
-81.559000000000026
20
31.097999999999995
10
-81.559000000000026
20
45.097999999999999
0
LWPOLYLINE
5
120
100
AcDbEntity
8
0
100
AcDbPolyline
90
4
70
1
43
0.0
10
7.1609999999999774
20
6.9979999999999931
10
7.1609999999999774
20
-7.002000000000006
10
-6.8390000000000235
20
-7.002000000000006
10
-6.8390000000000235
20
6.9979999999999931
0
LWPOLYLINE
5
121
100
AcDbEntity
8
0
100
AcDbPolyline
90
4
70
1
43
0.0
10
-67.559000000000026
20
6.9979999999999931
10
-67.559000000000026
20
-7.002000000000006
10
-81.559000000000026
20
-7.002000000000006
10
-81.559000000000026
20
6.9979999999999931
0
LWPOLYLINE
5
122
100
AcDbEntity
8
0
100
AcDbPolyline
90
4
70
1
43
0.0
10
-118.91900000000001
20
31.097999999999995
10
-118.91900000000001
20
45.097999999999999
10
-104.91900000000003
20
45.097999999999999
10
-104.91900000000003
20
31.097999999999995
0
LWPOLYLINE
5
123
100
AcDbEntity
8
0
100
AcDbPolyline
90
4
70
1
43
0.0
10
-48.879000000000033
20
31.097999999999995
10
-62.879000000000019
20
31.097999999999995
10
-62.879000000000019
20
45.097999999999999
10
-48.879000000000033
20
45.097999999999999
0
LWPOLYLINE
5
124
100
AcDbEntity
8
0
100
AcDbPolyline
90
4
70
1
43
0.0
10
-100.23900000000003
20
45.097999999999999
10
-86.239000000000033
20
45.097999999999999
10
-86.239000000000033
20
31.097999999999995
10
-100.23900000000003
20
31.097999999999995
0
LWPOLYLINE
5
125
100
AcDbEntity
8
0
100
AcDbPolyline
90
4
70
1
43
0.0
10
-81.559000000000026
20
26.048000000000002
10
-67.559000000000026
20
26.048000000000002
10
-67.559000000000026
20
12.047999999999996
10
-81.559000000000026
20
12.047999999999996
0
LWPOLYLINE
5
126
100
AcDbEntity
8
0
100
AcDbPolyline
90
4
70
1
43
0.0
10
-104.91900000000003
20
12.047999999999996
10
-118.91900000000001
20
12.047999999999996
10
-118.91900000000001
20
26.048000000000002
10
-104.91900000000003
20
26.048000000000002
0
LWPOLYLINE
5
127
100
AcDbEntity
8
0
100
AcDbPolyline
90
4
70
1
43
0.0
10
-174.95900000000003
20
6.9979999999999931
10
-160.95900000000003
20
6.9979999999999931
10
-160.95900000000003
20
-7.002000000000006
10
-174.95900000000003
20
-7.002000000000006
0
LWPOLYLINE
5
128
100
AcDbEntity
8
0
100
AcDbPolyline
90
4
70
1
43
0.0
10
-179.63899999999998
20
45.097999999999999
10
-179.63899999999998
20
31.097999999999995
10
-193.63900000000001
20
31.097999999999995
10
-193.63900000000001
20
45.097999999999999
0
LWPOLYLINE
5
129
100
AcDbEntity
8
0
100
AcDbPolyline
90
4
70
1
43
0.0
10
-44.199000000000041
20
50.147999999999996
10
-44.199000000000041
20
64.147999999999996
10
-30.19900000000003
20
64.147999999999996
10
-30.19900000000003
20
50.147999999999996
0
LWPOLYLINE
5
130
100
AcDbEntity
8
0
100
AcDbPolyline
90
4
70
1
43
0.0
10
-198.31900000000002
20
26.048000000000002
10
-198.31900000000002
20
12.047999999999996
10
-212.31900000000002
20
12.047999999999996
10
-212.31900000000002
20
26.048000000000002
0
LWPOLYLINE
5
131
100
AcDbEntity
8
0
100
AcDbPolyline
90
4
70
1
43
0.0
10
-6.8390000000000235
20
45.097999999999999
10
7.1609999999999774
20
45.097999999999999
10
7.1609999999999774
20
31.097999999999995
10
-6.8390000000000235
20
31.097999999999995
0
LWPOLYLINE
5
132
100
AcDbEntity
8
0
100
AcDbPolyline
90
4
70
1
43
0.0
10
-118.91900000000001
20
50.147999999999996
10
-118.91900000000001
20
64.147999999999996
10
-104.91900000000003
20
64.147999999999996
10
-104.91900000000003
20
50.147999999999996
0
LWPOLYLINE
5
133
100
AcDbEntity
8
0
100
AcDbPolyline
90
4
70
1
43
0.0
10
-25.51900000000003
20
50.147999999999996
10
-25.51900000000003
20
64.147999999999996
10
-11.519000000000021
20
64.147999999999996
10
-11.519000000000021
20
50.147999999999996
0
LWPOLYLINE
5
134
100
AcDbEntity
8
0
100
AcDbPolyline
90
4
70
1
43
0.0
10
-174.95900000000003
20
31.097999999999995
10
-174.95900000000003
20
45.097999999999999
10
-160.95900000000003
20
45.097999999999999
10
-160.95900000000003
20
31.097999999999995
0
LWPOLYLINE
5
135
100
AcDbEntity
8
0
100
AcDbPolyline
90
4
70
1
43
0.0
10
7.1609999999999774
20
26.048000000000002
10
7.1609999999999774
20
12.047999999999996
10
-6.8390000000000235
20
12.047999999999996
10
-6.8390000000000235
20
26.048000000000002
0
LWPOLYLINE
5
136
100
AcDbEntity
8
0
100
AcDbPolyline
90
4
70
1
43
0.0
10
-44.199000000000041
20
45.097999999999999
10
-30.19900000000003
20
45.097999999999999
10
-30.19900000000003
20
31.097999999999995
10
-44.199000000000041
20
31.097999999999995
0
LWPOLYLINE
5
137
100
AcDbEntity
8
0
100
AcDbPolyline
90
4
70
1
43
0.0
10
-216.99900000000002
20
45.097999999999999
10
-216.99900000000002
20
31.097999999999995
10
-230.99900000000002
20
31.097999999999995
10
-230.99900000000002
20
45.097999999999999
0
LWPOLYLINE
5
138
100
AcDbEntity
8
0
100
AcDbPolyline
90
4
70
1
43
0.0
10
-44.199000000000041
20
26.048000000000002
10
-30.19900000000003
20
26.048000000000002
10
-30.19900000000003
20
12.047999999999996
10
-44.199000000000041
20
12.047999999999996
0
LWPOLYLINE
5
139
100
AcDbEntity
8
0
100
AcDbPolyline
90
4
70
1
43
0.0
10
-118.91900000000001
20
6.9979999999999931
10
-104.91900000000003
20
6.9979999999999931
10
-104.91900000000003
20
-7.002000000000006
10
-118.91900000000001
20
-7.002000000000006
0
LWPOLYLINE
5
140
100
AcDbEntity
8
0
100
AcDbPolyline
90
4
70
1
43
0.0
10
-156.27900000000002
20
12.047999999999996
10
-156.27900000000002
20
26.048000000000002
10
-142.27900000000002
20
26.048000000000002
10
-142.27900000000002
20
12.047999999999996
0
LWPOLYLINE
5
141
100
AcDbEntity
8
0
100
AcDbPolyline
90
4
70
1
43
0.0
10
-48.879000000000033
20
26.048000000000002
10
-48.879000000000033
20
12.047999999999996
10
-62.879000000000019
20
12.047999999999996
10
-62.879000000000019
20
26.048000000000002
0
LWPOLYLINE
5
142
100
AcDbEntity
8
0
100
AcDbPolyline
90
4
70
1
43
0.0
10
-230.99900000000002
20
26.048000000000002
10
-216.99900000000002
20
26.048000000000002
10
-216.99900000000002
20
12.047999999999996
10
-230.99900000000002
20
12.047999999999996
0
LWPOLYLINE
5
143
100
AcDbEntity
8
0
100
AcDbPolyline
90
4
70
1
43
0.0
10
-174.95900000000003
20
26.048000000000002
10
-160.95900000000003
20
26.048000000000002
10
-160.95900000000003
20
12.047999999999996
10
-174.95900000000003
20
12.047999999999996
0
LWPOLYLINE
5
144
100
AcDbEntity
8
0
100
AcDbPolyline
90
4
70
1
43
0.0
10
-216.99900000000002
20
50.147999999999996
10
-230.99900000000002
20
50.147999999999996
10
-230.99900000000002
20
64.147999999999996
10
-216.99900000000002
20
64.147999999999996
0
LWPOLYLINE
5
145
100
AcDbEntity
8
0
100
AcDbPolyline
90
4
70
1
43
0.0
10
-142.27900000000002
20
45.097999999999999
10
-142.27900000000002
20
31.097999999999995
10
-156.27900000000002
20
31.097999999999995
10
-156.27900000000002
20
45.097999999999999
0
LWPOLYLINE
5
146
100
AcDbEntity
8
0
100
AcDbPolyline
90
4
70
1
43
0.0
10
-123.59900000000003
20
6.9979999999999931
10
-123.59900000000003
20
-7.002000000000006
10
-137.59900000000005
20
-7.002000000000006
10
-137.59900000000005
20
6.9979999999999931
0
LWPOLYLINE
5
147
100
AcDbEntity
8
0
100
AcDbPolyline
90
4
70
1
43
0.0
10
-142.27900000000002
20
-7.002000000000006
10
-156.27900000000002
20
-7.002000000000006
10
-156.27900000000002
20
6.9979999999999931
10
-142.27900000000002
20
6.9979999999999931
0
ENDSEC
0
SECTION
2
OBJECTS
0
DICTIONARY
5
C
100
AcDbDictionary
3
ACAD_GROUP
350
D
3
ACAD_MLINESTYLE
350
17
0
DICTIONARY
5
D
100
AcDbDictionary
0
DICTIONARY
5
1A
330
C
100
AcDbDictionary
0
DICTIONARY
5
17
100
AcDbDictionary
0
ENDSEC
0
EOF
