0
SECTION
2
HEADER
9
$INSUNITS
70
4
9
$ACADVER
1
AC1014
9
$HANDSEED
5
FFFF
0
ENDSEC
0
SECTION
2
TABLES
0
TABLE
2
VPORT
5
8
100
AcDbSymbolTable
0
ENDTAB
0
TABLE
2
LTYPE
5
5
100
AcDbSymbolTable
0
LTYPE
5
14
100
AcDbSymbolTableRecord
100
AcDbLinetypeTableRecord
2
BYBLOCK
70
0
0
LTYPE
5
15
100
AcDbSymbolTableRecord
100
AcDbLinetypeTableRecord
2
BYLAYER
70
0
0
ENDTAB
0
TABLE
2
LAYER
5
2
100
AcDbSymbolTable
70
2
0
LAYER
5
50
100
AcDbSymbolTableRecord
100
AcDbLayerTableRecord
2
0
70
0
6
CONTINUOUS
0
ENDTAB
0
TABLE
2
STYLE
5
3
100
AcDbSymbolTable
70
1
0
STYLE
5
11
100
AcDbSymbolTableRecord
100
AcDbTextStyleTableRecord
2
STANDARD
70
0
0
ENDTAB
0
TABLE
2
VIEW
5
6
100
AcDbSymbolTable
70
0
0
ENDTAB
0
TABLE
2
UCS
5
7
100
AcDbSymbolTable
70
0
0
ENDTAB
0
TABLE
2
APPID
5
9
100
AcDbSymbolTable
70
2
0
APPID
5
12
100
AcDbSymbolTableRecord
100
AcDbRegAppTableRecord
2
ACAD
70
0
0
ENDTAB
0
TABLE
2
DIMSTYLE
5
A
100
AcDbSymbolTable
70
1
0
ENDTAB
0
TABLE
2
BLOCK_RECORD
5
1
100
AcDbSymbolTable
70
1
0
BLOCK_RECORD
5
1F
100
AcDbSymbolTableRecord
100
AcDbBlockTableRecord
2
*MODEL_SPACE
0
BLOCK_RECORD
5
1B
100
AcDbSymbolTableRecord
100
AcDbBlockTableRecord
2
*PAPER_SPACE
0
ENDTAB
0
ENDSEC
0
SECTION
2
BLOCKS
0
BLOCK
5
20
100
AcDbEntity
100
AcDbBlockBegin
2
*MODEL_SPACE
0
ENDBLK
5
21
100
AcDbEntity
100
AcDbBlockEnd
0
BLOCK
5
1C
100
AcDbEntity
100
AcDbBlockBegin
2
*PAPER_SPACE
0
ENDBLK
5
1D
100
AcDbEntity
100
AcDbBlockEnd
0
ENDSEC
0
SECTION
2
ENTITIES
0
LINE
5
100
100
AcDbEntity
8
0
100
AcDbLine
10
11.850000000000023
20
66.674999999999969
30
0
11
-235.68750000000009
21
66.674999999999969
31
0
0
LINE
5
101
100
AcDbEntity
8
0
100
AcDbLine
10
-235.68750000000006
20
-9.5250000000000146
30
0
11
11.850000001181655
21
-9.5250000000000146
31
0
0
ARC
5
102
100
AcDbEntity
8
0
100
AcDbCircle
10
-235.68750000000009
20
63.99999999999995
30
0
40
2.6750000000000185
210
0
220
-0
230
1
100
AcDbArc
50
90
51
127.87921967452066
0
ARC
5
103
100
AcDbEntity
8
0
100
AcDbCircle
10
-237.02294776119408
20
65.716742344419146
30
0
40
0.50000000000002176
210
0
220
0
230
1
100
AcDbArc
50
127.87921967452091
51
258.81194424867255
0
ARC
5
104
100
AcDbEntity
8
0
100
AcDbCircle
10
-237.36249999999998
20
63.99999999999995
30
0
40
1.2499999999999791
210
0
220
0
230
1
100
AcDbArc
50
-78.811944248679566
51
78.811944248682664
0
ARC
5
105
100
AcDbEntity
8
0
100
AcDbCircle
10
-237.02294776119408
20
62.28325765558079
30
0
40
0.49999999999998884
210
0
220
0
230
1
100
AcDbArc
50
101.18805575132046
51
232.12078032548015
0
ARC
5
106
100
AcDbEntity
8
0
100
AcDbCircle
10
-235.68750000000009
20
63.99999999999995
30
0
40
2.6749999999999563
210
0
220
0
230
1
100
AcDbArc
50
232.12078032547907
51
270
0
LINE
5
107
100
AcDbEntity
8
0
100
AcDbLine
10
-235.68750000000009
20
61.324999999999967
30
0
11
-234.86250000000007
21
61.325000000000003
31
0
0
ARC
5
108
100
AcDbEntity
8
0
100
AcDbCircle
10
-234.8625000000001
20
59.824999999999918
30
0
40
1.5000000000000924
210
0
220
-0
230
1
100
AcDbArc
50
0
51
89.99999999999892
0
LINE
5
109
100
AcDbEntity
8
0
100
AcDbLine
10
-233.36250000000001
20
59.824999999999982
30
0
11
-233.36250000000004
21
-2.6750000000000007
31
0
0
ARC
5
110
100
AcDbEntity
8
0
100
AcDbCircle
10
-234.86250000000001
20
-2.6750000000000087
30
0
40
1.5000000000000313
210
0
220
0
230
1
100
AcDbArc
50
-90
51
0
0
LINE
5
111
100
AcDbEntity
8
0
100
AcDbLine
10
-234.86250000000001
20
-4.1750000000000398
30
0
11
-235.68750000000006
21
-4.1750000000000398
31
0
0
ARC
5
112
100
AcDbEntity
8
0
100
AcDbCircle
10
-235.68750000000006
20
-6.8500000000000405
30
0
40
2.6750000000000007
210
0
220
-0
230
1
100
AcDbArc
50
90
51
127.87921967452186
0
ARC
5
113
100
AcDbEntity
8
0
100
AcDbCircle
10
-237.02294776119405
20
-5.1332576555808629
30
0
40
0.5000000000000191
210
0
220
0
230
1
100
AcDbArc
50
127.87921967452607
51
258.81194424867368
0
ARC
5
114
100
AcDbEntity
8
0
100
AcDbCircle
10
-237.36249999999998
20
-6.8500000000000334
30
0
40
1.250000000000036
210
-0
220
0
230
1
100
AcDbArc
50
-78.811944248678756
51
78.811944248680717
0
ARC
5
115
100
AcDbEntity
8
0
100
AcDbCircle
10
-237.02294776119405
20
-8.5667423444192181
30
0
40
0.4999999999999627
210
0
220
0
230
1
100
AcDbArc
50
101.18805575132103
51
232.12078032547791
0
ARC
5
116
100
AcDbEntity
8
0
100
AcDbCircle
10
-235.68750000000006
20
-6.8500000000000405
30
0
40
2.6749999999999456
210
0
220
0
230
1
100
AcDbArc
50
232.12078032547888
51
270
0
ARC
5
117
100
AcDbEntity
8
0
100
AcDbCircle
10
13.185447761194027
20
65.716742344419174
30
0
40
0.49999999999999573
210
-0
220
0
230
1
100
AcDbArc
50
-78.811944248677179
51
52.120780325476773
0
ARC
5
118
100
AcDbEntity
8
0
100
AcDbCircle
10
11.850000000000023
20
63.999999999999986
30
0
40
2.6749999999999945
210
0
220
-0
230
1
100
AcDbArc
50
52.120780325478577
51
90
0
ARC
5
119
100
AcDbEntity
8
0
100
AcDbCircle
10
11.849999999605743
20
-6.8500000000010974
30
0
40
2.6749999999989171
210
-0
220
0
230
1
100
AcDbArc
50
270.00000003375447
51
307.87921976709669
0
ARC
5
120
100
AcDbEntity
8
0
100
AcDbCircle
10
13.185447764541181
20
-8.5667423435064105
30
0
40
0.49999999999999201
210
-0
220
0
230
1
100
AcDbArc
50
-52.120780232903314
51
78.811944360388225
0
ARC
5
121
100
AcDbEntity
8
0
100
AcDbCircle
10
13.524999999999991
20
-6.8499999984251936
30
0
40
1.2499999999999909
210
0
220
0
230
1
100
AcDbArc
50
101.18805574742268
51
258.81194436038817
0
ARC
5
122
100
AcDbEntity
8
0
100
AcDbCircle
10
13.18544776131084
20
-5.1332576539829144
30
0
40
0.50000000000000544
210
-0
220
0
230
1
100
AcDbArc
50
-78.811944252574193
51
52.120780340713559
0
ARC
5
123
100
AcDbEntity
8
0
100
AcDbCircle
10
11.849999999605743
20
-6.8500000000010974
30
0
40
2.6750000015759072
210
0
220
-0
230
1
100
AcDbArc
50
52.12078034071471
51
90
0
LINE
5
124
100
AcDbEntity
8
0
100
AcDbLine
10
11.849999999605743
20
-4.1749999984251929
30
0
11
11.024999999999991
21
-4.1750000000000043
31
0
0
ARC
5
125
100
AcDbEntity
8
0
100
AcDbCircle
10
11.024999999999991
20
-2.6750000000000012
30
0
40
1.4999999999999858
210
0
220
0
230
1
100
AcDbArc
50
180
51
270
0
LINE
5
126
100
AcDbEntity
8
0
100
AcDbLine
10
9.5250000000000057
20
-2.6750000000000007
30
0
11
9.5250000000000057
21
59.825000000000017
31
0
0
ARC
5
127
100
AcDbEntity
8
0
100
AcDbCircle
10
11.024999999999993
20
59.82500000000001
30
0
40
1.4999999999999947
210
0
220
0
230
1
100
AcDbArc
50
90.000000000000071
51
180
0
LINE
5
128
100
AcDbEntity
8
0
100
AcDbLine
10
11.024999999999991
20
61.325000000000003
30
0
11
11.849999999999987
21
61.325000000000003
31
0
0
ARC
5
129
100
AcDbEntity
8
0
100
AcDbCircle
10
11.850000000000023
20
63.999999999999986
30
0
40
2.6749999999999829
210
0
220
0
230
1
100
AcDbArc
50
269.9999999999992
51
307.87921967452075
0
ARC
5
130
100
AcDbEntity
8
0
100
AcDbCircle
10
13.185447761194027
20
62.283257655580826
30
0
40
0.50000000000000833
210
-0
220
0
230
1
100
AcDbArc
50
-52.120780325482137
51
78.811944248681158
0
ARC
5
131
100
AcDbEntity
8
0
100
AcDbCircle
10
13.52499999999999
20
63.999999999999986
30
0
40
1.2500000000000202
210
0
220
0
230
1
100
AcDbArc
50
101.18805575132173
51
258.81194424867641
0
LWPOLYLINE
5
132
100
AcDbEntity
8
0
100
AcDbPolyline
90
4
70
1
43
0.0
10
-30.812500000000007
20
12.050000000000002
10
-30.812500000000007
20
26.050000000000004
10
-16.8125
20
26.050000000000004
10
-16.8125
20
12.050000000000002
0
LWPOLYLINE
5
133
100
AcDbEntity
8
0
100
AcDbPolyline
90
6
70
1
43
0.0
10
-194.00000000000003
20
49.149999999999999
10
-194.00000000000003
20
50.150000000000006
10
-230.83750000000003
20
50.150000000000006
10
-230.83750000000003
20
64.150000000000006
10
-148.93174999999999
20
64.150000000000006
10
-148.93174999999999
20
49.149999999999999
0
LWPOLYLINE
5
134
100
AcDbEntity
8
0
100
AcDbPolyline
90
4
70
1
43
0.0
10
-140.34999999999999
20
7
10
-126.34999999999999
20
7
10
-126.34999999999999
20
-7
10
-140.34999999999999
20
-7
0
LWPOLYLINE
5
135
100
AcDbEntity
8
0
100
AcDbPolyline
90
4
70
1
43
0.0
10
-154.63750000000002
20
31.100000000000001
10
-154.63750000000002
20
45.100000000000009
10
-140.63749999999999
20
45.100000000000009
10
-140.63749999999999
20
31.100000000000001
0
LWPOLYLINE
5
136
100
AcDbEntity
8
0
100
AcDbPolyline
90
4
70
1
43
0.0
10
-178.44999999999999
20
7
10
-164.44999999999999
20
7
10
-164.44999999999999
20
-7
10
-178.44999999999999
20
-7
0
LWPOLYLINE
5
137
100
AcDbEntity
8
0
100
AcDbPolyline
90
4
70
1
43
0.0
10
-35.862500000000004
20
12.050000000000002
10
-49.862500000000011
20
12.050000000000002
10
-49.862500000000011
20
26.050000000000004
10
-35.862500000000004
20
26.050000000000004
0
LWPOLYLINE
5
138
100
AcDbEntity
8
0
100
AcDbPolyline
90
4
70
1
43
0.0
10
-40.337500000000006
20
31.100000000000001
10
-40.337500000000006
20
45.100000000000009
10
-26.337499999999999
20
45.100000000000009
10
-26.337499999999999
20
31.100000000000001
0
LWPOLYLINE
5
139
100
AcDbEntity
8
0
100
AcDbPolyline
90
4
70
1
43
0.0
10
-54.912500000000009
20
12.050000000000002
10
-68.912500000000009
20
12.050000000000002
10
-68.912500000000009
20
26.050000000000004
10
-54.912500000000009
20
26.050000000000004
0
LWPOLYLINE
5
140
100
AcDbEntity
8
0
100
AcDbPolyline
90
4
70
1
43
0.0
10
-145.40000000000001
20
-7
10
-159.40000000000001
20
-7
10
-159.40000000000001
20
7
10
-145.40000000000001
20
7
0
LWPOLYLINE
5
141
100
AcDbEntity
8
0
100
AcDbPolyline
90
4
70
1
43
0.0
10
-150.16249999999999
20
12.050000000000002
10
-164.16250000000002
20
12.050000000000002
10
-164.16250000000002
20
26.050000000000004
10
-150.16249999999999
20
26.050000000000004
0
LWPOLYLINE
5
142
100
AcDbEntity
8
0
100
AcDbPolyline
90
4
70
1
43
0.0
10
-135.58750000000001
20
31.100000000000001
10
-135.58750000000001
20
45.100000000000009
10
-121.58750000000001
20
45.100000000000009
10
-121.58750000000001
20
31.100000000000001
0
LWPOLYLINE
5
143
100
AcDbEntity
8
0
100
AcDbPolyline
90
4
70
1
43
0.0
10
-50.150000000000006
20
-7
10
-64.150000000000006
20
-7
10
-64.150000000000006
20
7
10
-50.150000000000006
20
7
0
LWPOLYLINE
5
144
100
AcDbEntity
8
0
100
AcDbPolyline
90
4
70
1
43
0.0
10
-12.050000000000002
20
7
10
-12.050000000000002
20
-7
10
-26.050000000000004
20
-7
10
-26.050000000000004
20
7
0
LWPOLYLINE
5
145
100
AcDbEntity
8
0
100
AcDbPolyline
90
4
70
1
43
0.0
10
-230.83750000000003
20
45.100000000000009
10
-216.83750000000003
20
45.100000000000009
10
-216.83750000000003
20
31.100000000000001
10
-230.83750000000003
20
31.100000000000001
0
LWPOLYLINE
5
146
100
AcDbEntity
8
0
100
AcDbPolyline
90
4
70
1
43
0.0
10
-107.0125
20
12.050000000000002
10
-107.0125
20
26.050000000000004
10
-93.012499999999989
20
26.050000000000004
10
-93.012499999999989
20
12.050000000000002
0
LWPOLYLINE
5
147
100
AcDbEntity
8
0
100
AcDbPolyline
90
4
70
1
43
0.0
10
-73.962500000000006
20
26.050000000000004
10
-73.962500000000006
20
12.050000000000002
10
-87.962500000000006
20
12.050000000000002
10
-87.962500000000006
20
26.050000000000004
0
LWPOLYLINE
5
148
100
AcDbEntity
8
0
100
AcDbPolyline
90
4
70
1
43
0.0
10
-31.100000000000001
20
-7
10
-45.100000000000009
20
-7
10
-45.100000000000009
20
7
10
-31.100000000000001
20
7
0
LWPOLYLINE
5
149
100
AcDbEntity
8
0
100
AcDbPolyline
90
4
70
1
43
0.0
10
-112.0625
20
12.050000000000002
10
-126.06250000000001
20
12.050000000000002
10
-126.06250000000001
20
26.050000000000004
10
-112.0625
20
26.050000000000004
0
LWPOLYLINE
5
150
100
AcDbEntity
8
0
100
AcDbPolyline
90
4
70
1
43
0.0
10
-9.3812500000000014
20
26.050000000000004
10
4.6187499999999986
20
26.050000000000004
10
4.6187499999999986
20
12.050000000000002
10
-9.3812500000000014
20
12.050000000000002
0
LWPOLYLINE
5
151
100
AcDbEntity
8
0
100
AcDbPolyline
90
4
70
1
43
0.0
10
-173.68750000000003
20
45.100000000000009
10
-159.6875
20
45.100000000000009
10
-159.6875
20
31.100000000000001
10
-173.68750000000003
20
31.100000000000001
0
LWPOLYLINE
5
152
100
AcDbEntity
8
0
100
AcDbPolyline
90
4
70
1
43
0.0
10
-102.25000000000001
20
7
10
-88.250000000000014
20
7
10
-88.250000000000014
20
-7
10
-102.25000000000001
20
-7
0
LWPOLYLINE
5
153
100
AcDbEntity
8
0
100
AcDbPolyline
90
28
70
1
43
0.0
10
-44.125000000000007
20
49.149999999999999
10
-79.668250000000015
20
49.149999999999999
10
-79.668250000000015
20
50.150000000000006
10
-82.256750000000011
20
50.150000000000006
10
-82.256750000000011
20
49.149999999999999
10
-103.54424999999999
20
49.149999999999999
10
-103.54424999999999
20
50.150000000000006
10
-110.76824999999999
20
50.150000000000006
10
-110.76824999999999
20
49.149999999999999
10
-122.56250000000001
20
49.149999999999999
10
-122.56250000000001
20
50.150000000000006
10
-125.05575
20
50.150000000000006
10
-125.05575
20
49.149999999999999
10
-132.05574999999999
20
49.149999999999999
10
-132.05574999999999
20
50.150000000000006
10
-134.64425000000003
20
50.150000000000006
10
-134.64425000000003
20
49.149999999999999
10
-146.40675000000002
20
49.149999999999999
10
-146.40675000000002
20
50.150000000000006
10
-147.49375000000001
20
50.150000000000006
10
-147.49375000000001
20
64.150000000000006
10
6.9999999999999929
20
64.150000000000006
10
7.0000000000000018
20
50.150000000000006
10
-34.600000000000009
20
50.150000000000006
10
-34.600000000000009
20
49.149999999999999
10
-41.600000000000009
20
49.149999999999999
10
-41.600000000000009
20
50.150000000000006
10
-44.125000000000007
20
50.150000000000006
0
LWPOLYLINE
5
154
100
AcDbEntity
8
0
100
AcDbPolyline
90
4
70
1
43
0.0
10
-83.199999999999989
20
7
10
-69.200000000000003
20
7
10
-69.200000000000003
20
-7
10
-83.199999999999989
20
-7
0
LWPOLYLINE
5
155
100
AcDbEntity
8
0
100
AcDbPolyline
90
4
70
1
43
0.0
10
-197.5
20
7
10
-183.5
20
7
10
-183.5
20
-7
10
-197.5
20
-7
0
LWPOLYLINE
5
156
100
AcDbEntity
8
0
100
AcDbPolyline
90
4
70
1
43
0.0
10
-121.29999999999998
20
-7
10
-121.29999999999998
20
7
10
-107.30000000000001
20
7
10
-107.30000000000001
20
-7
0
LWPOLYLINE
5
157
100
AcDbEntity
8
0
100
AcDbPolyline
90
4
70
1
43
0.0
10
-45.38750000000001
20
45.100000000000009
10
-45.38750000000001
20
31.100000000000001
10
-59.387499999999996
20
31.100000000000001
10
-59.387499999999996
20
45.100000000000009
0
LWPOLYLINE
5
158
100
AcDbEntity
8
0
100
AcDbPolyline
90
4
70
1
43
0.0
10
-14.143749999999999
20
45.100000000000009
10
-0.14375000000000027
20
45.100000000000009
10
-0.14375000000000027
20
31.100000000000001
10
-14.143749999999999
20
31.100000000000001
0
LWPOLYLINE
5
159
100
AcDbEntity
8
0
100
AcDbPolyline
90
4
70
1
43
0.0
10
-145.11249999999998
20
12.050000000000002
10
-145.11249999999998
20
26.050000000000004
10
-131.11249999999998
20
26.050000000000004
10
-131.11249999999998
20
12.050000000000002
0
LWPOLYLINE
5
160
100
AcDbEntity
8
0
100
AcDbPolyline
90
4
70
1
43
0.0
10
-212.07499999999999
20
26.050000000000004
10
-212.07499999999999
20
12.050000000000002
10
-226.07500000000002
20
12.050000000000002
10
-226.07500000000002
20
26.050000000000004
0
LWPOLYLINE
5
161
100
AcDbEntity
8
0
100
AcDbPolyline
90
4
70
1
43
0.0
10
-102.53749999999999
20
31.100000000000001
10
-116.53750000000001
20
31.100000000000001
10
-116.53750000000001
20
45.100000000000009
10
-102.53749999999999
20
45.100000000000009
0
LWPOLYLINE
5
162
100
AcDbEntity
8
0
100
AcDbPolyline
90
4
70
1
43
0.0
10
7
20
7
10
7
20
-7
10
-7
20
-7
10
-7
20
7
0
LWPOLYLINE
5
163
100
AcDbEntity
8
0
100
AcDbPolyline
90
4
70
1
43
0.0
10
-83.487500000000011
20
31.100000000000001
10
-97.487500000000011
20
31.100000000000001
10
-97.487500000000011
20
45.100000000000009
10
-83.487500000000011
20
45.100000000000009
0
LWPOLYLINE
5
164
100
AcDbEntity
8
0
100
AcDbPolyline
90
4
70
1
43
0.0
10
-169.21250000000001
20
12.050000000000002
10
-183.21250000000003
20
12.050000000000002
10
-183.21250000000003
20
26.050000000000004
10
-169.21250000000001
20
26.050000000000004
0
LWPOLYLINE
5
165
100
AcDbEntity
8
0
100
AcDbPolyline
90
4
70
1
43
0.0
10
-64.437500000000014
20
45.100000000000009
10
-64.437500000000014
20
31.100000000000001
10
-78.437500000000014
20
31.100000000000001
10
-78.437500000000014
20
45.100000000000009
0
LWPOLYLINE
5
166
100
AcDbEntity
8
0
100
AcDbPolyline
90
4
70
1
43
0.0
10
-178.73749999999998
20
45.100000000000009
10
-178.73749999999998
20
31.100000000000001
10
-192.73750000000001
20
31.100000000000001
10
-192.73750000000001
20
45.100000000000009
0
LWPOLYLINE
5
167
100
AcDbEntity
8
0
100
AcDbPolyline
90
4
70
1
43
0.0
10
-188.26250000000002
20
26.050000000000004
10
-188.26250000000002
20
12.050000000000002
10
-202.26249999999999
20
12.050000000000002
10
-202.26249999999999
20
26.050000000000004
0
LWPOLYLINE
5
168
100
AcDbEntity
8
0
100
AcDbPolyline
90
4
70
1
43
0.0
10
-209.69374999999999
20
-7
10
-223.69375000000002
20
-7
10
-223.69375000000002
20
7
10
-209.69374999999999
20
7
0
LWPOLYLINE
5
169
100
AcDbEntity
8
0
100
AcDbPolyline
90
4
70
1
43
0.0
10
-211.78750000000002
20
31.100000000000001
10
-211.78750000000002
20
45.100000000000009
10
-197.78750000000002
20
45.100000000000009
10
-197.78750000000002
20
31.100000000000001
0
ENDSEC
0
SECTION
2
OBJECTS
0
DICTIONARY
5
C
100
AcDbDictionary
3
ACAD_GROUP
350
D
3
ACAD_MLINESTYLE
350
17
0
DICTIONARY
5
D
100
AcDbDictionary
0
DICTIONARY
5
1A
330
C
100
AcDbDictionary
0
DICTIONARY
5
17
100
AcDbDictionary
0
ENDSEC
0
EOF
