0
SECTION
2
HEADER
9
$INSUNITS
70
4
9
$ACADVER
1
AC1014
9
$HANDSEED
5
FFFF
0
ENDSEC
0
SECTION
2
TABLES
0
TABLE
2
VPORT
5
8
100
AcDbSymbolTable
0
ENDTAB
0
TABLE
2
LTYPE
5
5
100
AcDbSymbolTable
0
LTYPE
5
14
100
AcDbSymbolTableRecord
100
AcDbLinetypeTableRecord
2
BYBLOCK
70
0
0
LTYPE
5
15
100
AcDbSymbolTableRecord
100
AcDbLinetypeTableRecord
2
BYLAYER
70
0
0
ENDTAB
0
TABLE
2
LAYER
5
2
100
AcDbSymbolTable
70
2
0
LAYER
5
50
100
AcDbSymbolTableRecord
100
AcDbLayerTableRecord
2
0
70
0
6
CONTINUOUS
0
ENDTAB
0
TABLE
2
STYLE
5
3
100
AcDbSymbolTable
70
1
0
STYLE
5
11
100
AcDbSymbolTableRecord
100
AcDbTextStyleTableRecord
2
STANDARD
70
0
0
ENDTAB
0
TABLE
2
VIEW
5
6
100
AcDbSymbolTable
70
0
0
ENDTAB
0
TABLE
2
UCS
5
7
100
AcDbSymbolTable
70
0
0
ENDTAB
0
TABLE
2
APPID
5
9
100
AcDbSymbolTable
70
2
0
APPID
5
12
100
AcDbSymbolTableRecord
100
AcDbRegAppTableRecord
2
ACAD
70
0
0
ENDTAB
0
TABLE
2
DIMSTYLE
5
A
100
AcDbSymbolTable
70
1
0
ENDTAB
0
TABLE
2
BLOCK_RECORD
5
1
100
AcDbSymbolTable
70
1
0
BLOCK_RECORD
5
1F
100
AcDbSymbolTableRecord
100
AcDbBlockTableRecord
2
*MODEL_SPACE
0
BLOCK_RECORD
5
1B
100
AcDbSymbolTableRecord
100
AcDbBlockTableRecord
2
*PAPER_SPACE
0
ENDTAB
0
ENDSEC
0
SECTION
2
BLOCKS
0
BLOCK
5
20
100
AcDbEntity
100
AcDbBlockBegin
2
*MODEL_SPACE
0
ENDBLK
5
21
100
AcDbEntity
100
AcDbBlockEnd
0
BLOCK
5
1C
100
AcDbEntity
100
AcDbBlockBegin
2
*PAPER_SPACE
0
ENDBLK
5
1D
100
AcDbEntity
100
AcDbBlockEnd
0
ENDSEC
0
SECTION
2
ENTITIES
0
LWPOLYLINE
5
100
100
AcDbEntity
8
0
100
AcDbPolyline
90
33
70
1
43
0.0
10
-210.54737193946545
20
-9.5250000000000234
10
-13.290128060534629
20
-9.5250000000000021
42
-0.19891236737965939
10
-10.691510639674027
20
-10.601382579139447
10
-6.5513825791394371
20
-14.741510639674038
42
0.19891236737965812
10
-4.6598719394654351
20
-15.52500000000002
10
2.7098719394654136
20
-15.525000000000029
42
0.19891236737965912
10
4.601382579139436
20
-14.741510639674047
10
8.7415106396740061
20
-10.601382579139456
42
0.19891236737965831
10
9.5249999999999968
20
-8.7098719394654367
10
9.5249999999999968
20
65.859871939465435
42
0.19891236737965917
10
8.7415106396740114
20
67.751382579139431
10
4.6013825791394547
20
71.891510639673982
42
0.19891236737965973
10
2.7098719394654314
20
72.674999999999997
10
-4.6598719394654342
20
72.674999999999997
42
0.19891236737965912
10
-6.551382579139454
20
71.891510639673982
10
-10.691510639673973
20
67.751382579139459
42
-0.19891236737965395
10
-13.290128060534556
20
66.674999999999983
10
-210.54737193946545
20
66.674999999999983
42
-0.19891236737966367
10
-213.14598936032604
20
67.751382579139431
10
-217.28611742086053
20
71.891510639673982
42
0.19891236737965676
10
-219.17762806053452
20
72.674999999999955
10
-226.54737193946545
20
72.674999999999983
42
0.19891236737966531
10
-228.43888257913937
20
71.891510639673982
10
-232.5790106396741
20
67.751382579139388
42
0.19891236737964224
10
-233.36250000000001
20
65.859871939465393
10
-233.36250000000001
20
-8.70987193946549
42
0.19891236737964213
10
-232.57901063967395
20
-10.601382579139518
10
-228.43888257913946
20
-14.741510639674056
42
0.19891236737966431
10
-226.54737193946545
20
-15.52500000000002
10
-219.17762806053452
20
-15.525000000000029
42
0.19891236737965104
10
-217.28611742086053
20
-14.741510639674047
10
-213.1139614890067
20
-10.56935470782169
42
2.9736771361377151e-05
10
-213.11387590590095
20
-10.569661164363461
42
-0.19572211633001141
0
CIRCLE
5
101
100
AcDbEntity
8
0
100
AcDbCircle
10
-222.86237193946539
20
-12.775000000000034
30
0
40
1.25
210
0
220
-0
230
1
0
CIRCLE
5
102
100
AcDbEntity
8
0
100
AcDbCircle
10
-222.86262806053452
20
69.924999999999983
30
0
40
1.25
210
0
220
-0
230
1
0
CIRCLE
5
103
100
AcDbEntity
8
0
100
AcDbCircle
10
-0.97512806053456913
20
69.924999999999983
30
0
40
1.25
210
0
220
-0
230
1
0
CIRCLE
5
104
100
AcDbEntity
8
0
100
AcDbCircle
10
-0.97487193946542927
20
-12.775000000000034
30
0
40
1.25
210
0
220
-0
230
1
0
LWPOLYLINE
5
105
100
AcDbEntity
8
0
100
AcDbPolyline
90
4
70
1
43
0.0
10
-30.812500000000007
20
12.050000000000002
10
-30.812500000000007
20
26.050000000000004
10
-16.8125
20
26.050000000000004
10
-16.8125
20
12.050000000000002
0
LWPOLYLINE
5
106
100
AcDbEntity
8
0
100
AcDbPolyline
90
6
70
1
43
0.0
10
-194.00000000000003
20
49.149999999999999
10
-194.00000000000003
20
50.150000000000006
10
-230.83750000000003
20
50.150000000000006
10
-230.83750000000003
20
64.150000000000006
10
-148.93174999999999
20
64.150000000000006
10
-148.93174999999999
20
49.149999999999999
0
LWPOLYLINE
5
107
100
AcDbEntity
8
0
100
AcDbPolyline
90
4
70
1
43
0.0
10
-140.34999999999999
20
7
10
-126.34999999999999
20
7
10
-126.34999999999999
20
-7
10
-140.34999999999999
20
-7
0
LWPOLYLINE
5
108
100
AcDbEntity
8
0
100
AcDbPolyline
90
4
70
1
43
0.0
10
-154.63750000000002
20
31.100000000000001
10
-154.63750000000002
20
45.100000000000009
10
-140.63749999999999
20
45.100000000000009
10
-140.63749999999999
20
31.100000000000001
0
LWPOLYLINE
5
109
100
AcDbEntity
8
0
100
AcDbPolyline
90
4
70
1
43
0.0
10
-178.44999999999999
20
7
10
-164.44999999999999
20
7
10
-164.44999999999999
20
-7
10
-178.44999999999999
20
-7
0
LWPOLYLINE
5
110
100
AcDbEntity
8
0
100
AcDbPolyline
90
4
70
1
43
0.0
10
-35.862500000000004
20
12.050000000000002
10
-49.862500000000011
20
12.050000000000002
10
-49.862500000000011
20
26.050000000000004
10
-35.862500000000004
20
26.050000000000004
0
LWPOLYLINE
5
111
100
AcDbEntity
8
0
100
AcDbPolyline
90
4
70
1
43
0.0
10
-40.337500000000006
20
31.100000000000001
10
-40.337500000000006
20
45.100000000000009
10
-26.337499999999999
20
45.100000000000009
10
-26.337499999999999
20
31.100000000000001
0
LWPOLYLINE
5
112
100
AcDbEntity
8
0
100
AcDbPolyline
90
4
70
1
43
0.0
10
-54.912500000000009
20
12.050000000000002
10
-68.912500000000009
20
12.050000000000002
10
-68.912500000000009
20
26.050000000000004
10
-54.912500000000009
20
26.050000000000004
0
LWPOLYLINE
5
113
100
AcDbEntity
8
0
100
AcDbPolyline
90
4
70
1
43
0.0
10
-145.40000000000001
20
-7
10
-159.40000000000001
20
-7
10
-159.40000000000001
20
7
10
-145.40000000000001
20
7
0
LWPOLYLINE
5
114
100
AcDbEntity
8
0
100
AcDbPolyline
90
4
70
1
43
0.0
10
-150.16249999999999
20
12.050000000000002
10
-164.16250000000002
20
12.050000000000002
10
-164.16250000000002
20
26.050000000000004
10
-150.16249999999999
20
26.050000000000004
0
LWPOLYLINE
5
115
100
AcDbEntity
8
0
100
AcDbPolyline
90
4
70
1
43
0.0
10
-135.58750000000001
20
31.100000000000001
10
-135.58750000000001
20
45.100000000000009
10
-121.58750000000001
20
45.100000000000009
10
-121.58750000000001
20
31.100000000000001
0
LWPOLYLINE
5
116
100
AcDbEntity
8
0
100
AcDbPolyline
90
4
70
1
43
0.0
10
-50.150000000000006
20
-7
10
-64.150000000000006
20
-7
10
-64.150000000000006
20
7
10
-50.150000000000006
20
7
0
LWPOLYLINE
5
117
100
AcDbEntity
8
0
100
AcDbPolyline
90
4
70
1
43
0.0
10
-12.050000000000002
20
7
10
-12.050000000000002
20
-7
10
-26.050000000000004
20
-7
10
-26.050000000000004
20
7
0
LWPOLYLINE
5
118
100
AcDbEntity
8
0
100
AcDbPolyline
90
4
70
1
43
0.0
10
-230.83750000000003
20
45.100000000000009
10
-216.83750000000003
20
45.100000000000009
10
-216.83750000000003
20
31.100000000000001
10
-230.83750000000003
20
31.100000000000001
0
LWPOLYLINE
5
119
100
AcDbEntity
8
0
100
AcDbPolyline
90
4
70
1
43
0.0
10
-107.0125
20
12.050000000000002
10
-107.0125
20
26.050000000000004
10
-93.012499999999989
20
26.050000000000004
10
-93.012499999999989
20
12.050000000000002
0
LWPOLYLINE
5
120
100
AcDbEntity
8
0
100
AcDbPolyline
90
4
70
1
43
0.0
10
-73.962500000000006
20
26.050000000000004
10
-73.962500000000006
20
12.050000000000002
10
-87.962500000000006
20
12.050000000000002
10
-87.962500000000006
20
26.050000000000004
0
LWPOLYLINE
5
121
100
AcDbEntity
8
0
100
AcDbPolyline
90
4
70
1
43
0.0
10
-31.100000000000001
20
-7
10
-45.100000000000009
20
-7
10
-45.100000000000009
20
7
10
-31.100000000000001
20
7
0
LWPOLYLINE
5
122
100
AcDbEntity
8
0
100
AcDbPolyline
90
4
70
1
43
0.0
10
-112.0625
20
12.050000000000002
10
-126.06250000000001
20
12.050000000000002
10
-126.06250000000001
20
26.050000000000004
10
-112.0625
20
26.050000000000004
0
LWPOLYLINE
5
123
100
AcDbEntity
8
0
100
AcDbPolyline
90
4
70
1
43
0.0
10
-9.3812500000000014
20
26.050000000000004
10
4.6187499999999986
20
26.050000000000004
10
4.6187499999999986
20
12.050000000000002
10
-9.3812500000000014
20
12.050000000000002
0
LWPOLYLINE
5
124
100
AcDbEntity
8
0
100
AcDbPolyline
90
4
70
1
43
0.0
10
-173.68750000000003
20
45.100000000000009
10
-159.6875
20
45.100000000000009
10
-159.6875
20
31.100000000000001
10
-173.68750000000003
20
31.100000000000001
0
LWPOLYLINE
5
125
100
AcDbEntity
8
0
100
AcDbPolyline
90
4
70
1
43
0.0
10
-102.25000000000001
20
7
10
-88.250000000000014
20
7
10
-88.250000000000014
20
-7
10
-102.25000000000001
20
-7
0
LWPOLYLINE
5
126
100
AcDbEntity
8
0
100
AcDbPolyline
90
28
70
1
43
0.0
10
-44.125000000000007
20
49.149999999999999
10
-79.668250000000015
20
49.149999999999999
10
-79.668250000000015
20
50.150000000000006
10
-82.256750000000011
20
50.150000000000006
10
-82.256750000000011
20
49.149999999999999
10
-103.54424999999999
20
49.149999999999999
10
-103.54424999999999
20
50.150000000000006
10
-110.76824999999999
20
50.150000000000006
10
-110.76824999999999
20
49.149999999999999
10
-122.56250000000001
20
49.149999999999999
10
-122.56250000000001
20
50.150000000000006
10
-125.05575
20
50.150000000000006
10
-125.05575
20
49.149999999999999
10
-132.05574999999999
20
49.149999999999999
10
-132.05574999999999
20
50.150000000000006
10
-134.64425000000003
20
50.150000000000006
10
-134.64425000000003
20
49.149999999999999
10
-146.40675000000002
20
49.149999999999999
10
-146.40675000000002
20
50.150000000000006
10
-147.49375000000001
20
50.150000000000006
10
-147.49375000000001
20
64.150000000000006
10
6.9999999999999929
20
64.150000000000006
10
7.0000000000000018
20
50.150000000000006
10
-34.600000000000009
20
50.150000000000006
10
-34.600000000000009
20
49.149999999999999
10
-41.600000000000009
20
49.149999999999999
10
-41.600000000000009
20
50.150000000000006
10
-44.125000000000007
20
50.150000000000006
0
LWPOLYLINE
5
127
100
AcDbEntity
8
0
100
AcDbPolyline
90
4
70
1
43
0.0
10
-83.199999999999989
20
7
10
-69.200000000000003
20
7
10
-69.200000000000003
20
-7
10
-83.199999999999989
20
-7
0
LWPOLYLINE
5
128
100
AcDbEntity
8
0
100
AcDbPolyline
90
4
70
1
43
0.0
10
-197.5
20
7
10
-183.5
20
7
10
-183.5
20
-7
10
-197.5
20
-7
0
LWPOLYLINE
5
129
100
AcDbEntity
8
0
100
AcDbPolyline
90
4
70
1
43
0.0
10
-121.29999999999998
20
-7
10
-121.29999999999998
20
7
10
-107.30000000000001
20
7
10
-107.30000000000001
20
-7
0
LWPOLYLINE
5
130
100
AcDbEntity
8
0
100
AcDbPolyline
90
4
70
1
43
0.0
10
-45.38750000000001
20
45.100000000000009
10
-45.38750000000001
20
31.100000000000001
10
-59.387499999999996
20
31.100000000000001
10
-59.387499999999996
20
45.100000000000009
0
LWPOLYLINE
5
131
100
AcDbEntity
8
0
100
AcDbPolyline
90
4
70
1
43
0.0
10
-14.143749999999999
20
45.100000000000009
10
-0.14375000000000027
20
45.100000000000009
10
-0.14375000000000027
20
31.100000000000001
10
-14.143749999999999
20
31.100000000000001
0
LWPOLYLINE
5
132
100
AcDbEntity
8
0
100
AcDbPolyline
90
4
70
1
43
0.0
10
-145.11249999999998
20
12.050000000000002
10
-145.11249999999998
20
26.050000000000004
10
-131.11249999999998
20
26.050000000000004
10
-131.11249999999998
20
12.050000000000002
0
LWPOLYLINE
5
133
100
AcDbEntity
8
0
100
AcDbPolyline
90
4
70
1
43
0.0
10
-212.07499999999999
20
26.050000000000004
10
-212.07499999999999
20
12.050000000000002
10
-226.07500000000002
20
12.050000000000002
10
-226.07500000000002
20
26.050000000000004
0
LWPOLYLINE
5
134
100
AcDbEntity
8
0
100
AcDbPolyline
90
4
70
1
43
0.0
10
-102.53749999999999
20
31.100000000000001
10
-116.53750000000001
20
31.100000000000001
10
-116.53750000000001
20
45.100000000000009
10
-102.53749999999999
20
45.100000000000009
0
LWPOLYLINE
5
135
100
AcDbEntity
8
0
100
AcDbPolyline
90
4
70
1
43
0.0
10
7
20
7
10
7
20
-7
10
-7
20
-7
10
-7
20
7
0
LWPOLYLINE
5
136
100
AcDbEntity
8
0
100
AcDbPolyline
90
4
70
1
43
0.0
10
-83.487500000000011
20
31.100000000000001
10
-97.487500000000011
20
31.100000000000001
10
-97.487500000000011
20
45.100000000000009
10
-83.487500000000011
20
45.100000000000009
0
LWPOLYLINE
5
137
100
AcDbEntity
8
0
100
AcDbPolyline
90
4
70
1
43
0.0
10
-169.21250000000001
20
12.050000000000002
10
-183.21250000000003
20
12.050000000000002
10
-183.21250000000003
20
26.050000000000004
10
-169.21250000000001
20
26.050000000000004
0
LWPOLYLINE
5
138
100
AcDbEntity
8
0
100
AcDbPolyline
90
4
70
1
43
0.0
10
-64.437500000000014
20
45.100000000000009
10
-64.437500000000014
20
31.100000000000001
10
-78.437500000000014
20
31.100000000000001
10
-78.437500000000014
20
45.100000000000009
0
LWPOLYLINE
5
139
100
AcDbEntity
8
0
100
AcDbPolyline
90
4
70
1
43
0.0
10
-178.73749999999998
20
45.100000000000009
10
-178.73749999999998
20
31.100000000000001
10
-192.73750000000001
20
31.100000000000001
10
-192.73750000000001
20
45.100000000000009
0
LWPOLYLINE
5
140
100
AcDbEntity
8
0
100
AcDbPolyline
90
4
70
1
43
0.0
10
-188.26250000000002
20
26.050000000000004
10
-188.26250000000002
20
12.050000000000002
10
-202.26249999999999
20
12.050000000000002
10
-202.26249999999999
20
26.050000000000004
0
LWPOLYLINE
5
141
100
AcDbEntity
8
0
100
AcDbPolyline
90
4
70
1
43
0.0
10
-202.54999999999939
20
-7.000000000000135
10
-232.52529999999936
20
-7.0000000000001705
10
-232.52529999999939
20
6.9999999999998064
10
-202.54999999999939
20
6.9999999999998153
0
LWPOLYLINE
5
142
100
AcDbEntity
8
0
100
AcDbPolyline
90
4
70
1
43
0.0
10
-211.78750000000002
20
31.100000000000001
10
-211.78750000000002
20
45.100000000000009
10
-197.78750000000002
20
45.100000000000009
10
-197.78750000000002
20
31.100000000000001
0
ENDSEC
0
SECTION
2
OBJECTS
0
DICTIONARY
5
C
100
AcDbDictionary
3
ACAD_GROUP
350
D
3
ACAD_MLINESTYLE
350
17
0
DICTIONARY
5
D
100
AcDbDictionary
0
DICTIONARY
5
1A
330
C
100
AcDbDictionary
0
DICTIONARY
5
17
100
AcDbDictionary
0
ENDSEC
0
EOF
