0
SECTION
2
HEADER
9
$INSUNITS
70
4
9
$ACADVER
1
AC1014
9
$HANDSEED
5
FFFF
0
ENDSEC
0
SECTION
2
TABLES
0
TABLE
2
VPORT
5
8
100
AcDbSymbolTable
0
ENDTAB
0
TABLE
2
LTYPE
5
5
100
AcDbSymbolTable
0
LTYPE
5
14
100
AcDbSymbolTableRecord
100
AcDbLinetypeTableRecord
2
BYBLOCK
70
0
0
LTYPE
5
15
100
AcDbSymbolTableRecord
100
AcDbLinetypeTableRecord
2
BYLAYER
70
0
0
ENDTAB
0
TABLE
2
LAYER
5
2
100
AcDbSymbolTable
70
2
0
LAYER
5
50
100
AcDbSymbolTableRecord
100
AcDbLayerTableRecord
2
0
70
0
6
CONTINUOUS
0
ENDTAB
0
TABLE
2
STYLE
5
3
100
AcDbSymbolTable
70
1
0
STYLE
5
11
100
AcDbSymbolTableRecord
100
AcDbTextStyleTableRecord
2
STANDARD
70
0
0
ENDTAB
0
TABLE
2
VIEW
5
6
100
AcDbSymbolTable
70
0
0
ENDTAB
0
TABLE
2
UCS
5
7
100
AcDbSymbolTable
70
0
0
ENDTAB
0
TABLE
2
APPID
5
9
100
AcDbSymbolTable
70
2
0
APPID
5
12
100
AcDbSymbolTableRecord
100
AcDbRegAppTableRecord
2
ACAD
70
0
0
ENDTAB
0
TABLE
2
DIMSTYLE
5
A
100
AcDbSymbolTable
70
1
0
ENDTAB
0
TABLE
2
BLOCK_RECORD
5
1
100
AcDbSymbolTable
70
1
0
BLOCK_RECORD
5
1F
100
AcDbSymbolTableRecord
100
AcDbBlockTableRecord
2
*MODEL_SPACE
0
BLOCK_RECORD
5
1B
100
AcDbSymbolTableRecord
100
AcDbBlockTableRecord
2
*PAPER_SPACE
0
ENDTAB
0
ENDSEC
0
SECTION
2
BLOCKS
0
BLOCK
5
20
100
AcDbEntity
100
AcDbBlockBegin
2
*MODEL_SPACE
0
ENDBLK
5
21
100
AcDbEntity
100
AcDbBlockEnd
0
BLOCK
5
1C
100
AcDbEntity
100
AcDbBlockBegin
2
*PAPER_SPACE
0
ENDBLK
5
1D
100
AcDbEntity
100
AcDbBlockEnd
0
ENDSEC
0
SECTION
2
ENTITIES
0
LWPOLYLINE
5
100
100
AcDbEntity
8
0
100
AcDbPolyline
90
4
70
1
43
0.0
10
-73.674999999999983
20
-26.050000000000001
10
-73.674999999999983
20
-12.049999999999979
10
-59.675000000000018
20
-12.049999999999986
10
-59.675000000000018
20
-26.050000000000001
0
LWPOLYLINE
5
101
100
AcDbEntity
8
0
100
AcDbPolyline
90
4
70
1
43
0.0
10
-16.525000000000002
20
-12.049999999999997
10
-2.524999999999995
20
-12.049999999999997
10
-2.5249999999999995
20
-26.050000000000008
10
-16.525000000000006
20
-26.050000000000001
0
LWPOLYLINE
5
102
100
AcDbEntity
8
0
100
AcDbPolyline
90
4
70
1
43
0.0
10
-78.725000000000037
20
-26.050000000000001
10
-92.725000000000051
20
-26.050000000000001
10
-92.725000000000051
20
-12.049999999999979
10
-78.725000000000037
20
-12.049999999999979
0
LWPOLYLINE
5
103
100
AcDbEntity
8
0
100
AcDbPolyline
90
4
70
1
43
0.0
10
-40.625000000000014
20
-26.050000000000001
10
-54.625000000000021
20
-26.050000000000001
10
-54.625000000000021
20
-12.049999999999986
10
-40.625000000000014
20
-12.049999999999986
0
LWPOLYLINE
5
104
100
AcDbEntity
8
0
100
AcDbPolyline
90
4
70
1
43
0.0
10
-21.575000000000003
20
-12.049999999999997
10
-21.575000000000003
20
-26.050000000000001
10
-35.575000000000003
20
-26.050000000000001
10
-35.575000000000003
20
-12.049999999999986
0
LWPOLYLINE
5
105
100
AcDbEntity
8
0
100
AcDbPolyline
90
4
70
1
43
0.0
10
-111.77500000000002
20
-26.04999999999999
10
-111.77500000000002
20
-12.049999999999997
10
-97.775000000000034
20
-12.049999999999997
10
-97.775000000000034
20
-26.050000000000001
0
CIRCLE
5
106
100
AcDbEntity
8
0
100
AcDbCircle
10
5.5130000000000035
20
-14.275000000000038
30
0
40
1.749999999999998
210
0
220
-0
230
1
0
CIRCLE
5
107
100
AcDbEntity
8
0
100
AcDbCircle
10
5.5130000000000035
20
-25.325000000000042
30
0
40
1.749999999999998
210
0
220
-0
230
1
0
CIRCLE
5
108
100
AcDbEntity
8
0
100
AcDbCircle
10
5.5130000000000035
20
-19.80000000000004
30
0
40
1.749999999999998
210
0
220
-0
230
1
0
ARC
5
109
100
AcDbEntity
8
0
100
AcDbCircle
10
-235.68750000000006
20
-6.8499999999999872
30
0
40
2.6749999999999865
210
0
220
0
230
1
100
AcDbArc
50
232.12078032547873
51
270
0
LINE
5
110
100
AcDbEntity
8
0
100
AcDbLine
10
-235.68750000000006
20
-9.5249999999999719
30
0
11
-117.97499999999999
21
-9.5250000000000057
31
0
0
ARC
5
111
100
AcDbEntity
8
0
100
AcDbCircle
10
-117.97500000000005
20
-13.200000000000049
30
0
40
3.6750000000000504
210
0
220
-0
230
1
100
AcDbArc
50
0
51
89.999999999999119
0
LINE
5
112
100
AcDbEntity
8
0
100
AcDbLine
10
-114.3
20
-13.200000000000038
30
0
11
-114.30000000000004
21
-25.900000000000016
31
0
0
ARC
5
113
100
AcDbEntity
8
0
100
AcDbCircle
10
-111.62500000000001
20
-25.900000000000016
30
0
40
2.6750000000000185
210
0
220
0
230
1
100
AcDbArc
50
180
51
270
0
LINE
5
114
100
AcDbEntity
8
0
100
AcDbLine
10
-111.62500000000001
20
-28.575000000000035
30
0
11
6.8499999999999872
21
-28.575000000000035
31
0
0
ARC
5
115
100
AcDbEntity
8
0
100
AcDbCircle
10
6.850000000000005
20
-25.900000000000034
30
0
40
2.6750000000000007
210
0
220
0
230
1
100
AcDbArc
50
-90.000000000000398
51
0
0
LINE
5
116
100
AcDbEntity
8
0
100
AcDbLine
10
9.5250000000000057
20
-25.900000000000034
30
0
11
9.5249999999999879
21
-11.025000000000027
31
0
0
ARC
5
117
100
AcDbEntity
8
0
100
AcDbCircle
10
11.025000000000009
20
-11.025000000000027
30
0
40
1.5000000000000036
210
0
220
-0
230
1
100
AcDbArc
50
90
51
180
0
LINE
5
118
100
AcDbEntity
8
0
100
AcDbLine
10
11.025000000000009
20
-9.5250000000000234
30
0
11
11.850000001181655
21
-9.5250000000000234
31
0
0
ARC
5
119
100
AcDbEntity
8
0
100
AcDbCircle
10
11.849999999605751
20
-6.8500000000011063
30
0
40
2.6749999999989171
210
-0
220
0
230
1
100
AcDbArc
50
270.00000003375425
51
307.87921976709686
0
ARC
5
120
100
AcDbEntity
8
0
100
AcDbCircle
10
13.185447764541198
20
-8.5667423435064194
30
0
40
0.49999999999999201
210
-0
220
0
230
1
100
AcDbArc
50
-52.120780232903314
51
78.811944360388225
0
ARC
5
121
100
AcDbEntity
8
0
100
AcDbCircle
10
13.525000000000009
20
-6.8499999984252113
30
0
40
1.2500000000000047
210
0
220
0
230
1
100
AcDbArc
50
101.1880557474238
51
258.81194436038805
0
ARC
5
122
100
AcDbEntity
8
0
100
AcDbCircle
10
13.185447761310849
20
-5.1332576539829233
30
0
40
0.500000000000002
210
-0
220
0
230
1
100
AcDbArc
50
-78.811944252576225
51
52.120780340714482
0
ARC
5
123
100
AcDbEntity
8
0
100
AcDbCircle
10
11.849999999605751
20
-6.8500000000011063
30
0
40
2.6750000015759037
210
0
220
-0
230
1
100
AcDbArc
50
52.120780340714887
51
89.999999999999801
0
LINE
5
124
100
AcDbEntity
8
0
100
AcDbLine
10
11.84999999960576
20
-4.1749999984252124
30
0
11
11.025
21
-4.1750000000000131
31
0
0
ARC
5
125
100
AcDbEntity
8
0
100
AcDbCircle
10
11.025
20
-2.6750000000000176
30
0
40
1.4999999999999947
210
0
220
0
230
1
100
AcDbArc
50
180
51
270
0
LINE
5
126
100
AcDbEntity
8
0
100
AcDbLine
10
9.5250000000000057
20
-2.6750000000000185
30
0
11
9.5250000000000234
21
59.825000000000017
31
0
0
ARC
5
127
100
AcDbEntity
8
0
100
AcDbCircle
10
11.025000000000011
20
59.82500000000001
30
0
40
1.4999999999999947
210
0
220
0
230
1
100
AcDbArc
50
90.000000000000071
51
180
0
LINE
5
128
100
AcDbEntity
8
0
100
AcDbLine
10
11.025000000000009
20
61.325000000000003
30
0
11
11.850000000000014
21
61.325000000000003
31
0
0
ARC
5
129
100
AcDbEntity
8
0
100
AcDbCircle
10
11.850000000000032
20
63.999999999999986
30
0
40
2.6749999999999829
210
0
220
0
230
1
100
AcDbArc
50
269.9999999999996
51
307.87921967452144
0
ARC
5
130
100
AcDbEntity
8
0
100
AcDbCircle
10
13.185447761194045
20
62.283257655580812
30
0
40
0.49999999999999123
210
-0
220
0
230
1
100
AcDbArc
50
-52.120780325478528
51
78.811944248677236
0
ARC
5
131
100
AcDbEntity
8
0
100
AcDbCircle
10
13.525000000000023
20
63.999999999999979
30
0
40
1.2500000000000302
210
0
220
0
230
1
100
AcDbArc
50
101.18805575132198
51
258.81194424867732
0
ARC
5
132
100
AcDbEntity
8
0
100
AcDbCircle
10
13.185447761194053
20
65.716742344419174
30
0
40
0.49999999999999573
210
-0
220
0
230
1
100
AcDbArc
50
-78.811944248677179
51
52.120780325477249
0
ARC
5
133
100
AcDbEntity
8
0
100
AcDbCircle
10
11.850000000000032
20
63.999999999999986
30
0
40
2.6750000000000091
210
0
220
-0
230
1
100
AcDbArc
50
52.120780325478371
51
89.999999999999972
0
LINE
5
134
100
AcDbEntity
8
0
100
AcDbLine
10
11.850000000000033
20
66.674999999999969
30
0
11
-235.68750000000006
21
66.675000000000026
31
0
0
ARC
5
135
100
AcDbEntity
8
0
100
AcDbCircle
10
-235.68750000000006
20
64
30
0
40
2.6750000000000185
210
0
220
-0
230
1
100
AcDbArc
50
90
51
127.87921967452077
0
ARC
5
136
100
AcDbEntity
8
0
100
AcDbCircle
10
-237.02294776119405
20
65.716742344419202
30
0
40
0.50000000000002176
210
0
220
0
230
1
100
AcDbArc
50
127.87921967452193
51
258.81194424868016
0
ARC
5
137
100
AcDbEntity
8
0
100
AcDbCircle
10
-237.36249999999995
20
63.999999999999986
30
0
40
1.2499999999999964
210
0
220
0
230
1
100
AcDbArc
50
-78.81194424867968
51
78.811944248679808
0
ARC
5
138
100
AcDbEntity
8
0
100
AcDbCircle
10
-237.02294776119405
20
62.283257655580826
30
0
40
0.49999999999997147
210
0
220
0
230
1
100
AcDbArc
50
101.18805575132076
51
232.12078032547504
0
ARC
5
139
100
AcDbEntity
8
0
100
AcDbCircle
10
-235.68750000000006
20
64
30
0
40
2.6749999999999643
210
0
220
0
230
1
100
AcDbArc
50
232.12078032547831
51
270
0
LINE
5
140
100
AcDbEntity
8
0
100
AcDbLine
10
-235.68750000000006
20
61.325000000000017
30
0
11
-234.86250000000001
21
61.32500000000006
31
0
0
ARC
5
141
100
AcDbEntity
8
0
100
AcDbCircle
10
-234.86250000000001
20
59.824999999999974
30
0
40
1.5000000000000568
210
0
220
-0
230
1
100
AcDbArc
50
0
51
90
0
LINE
5
142
100
AcDbEntity
8
0
100
AcDbLine
10
-233.36249999999995
20
59.825000000000031
30
0
11
-233.36250000000004
21
-2.6749999999999474
31
0
0
ARC
5
143
100
AcDbEntity
8
0
100
AcDbCircle
10
-234.86249999999998
20
-2.674999999999998
30
0
40
1.4999999999999885
210
0
220
0
230
1
100
AcDbArc
50
-90.000000000001123
51
0
0
LINE
5
144
100
AcDbEntity
8
0
100
AcDbLine
10
-234.86250000000001
20
-4.1749999999999865
30
0
11
-235.68750000000006
21
-4.1749999999999865
31
0
0
ARC
5
145
100
AcDbEntity
8
0
100
AcDbCircle
10
-235.68750000000006
20
-6.8499999999999872
30
0
40
2.6750000000000007
210
0
220
-0
230
1
100
AcDbArc
50
90
51
127.87921967452107
0
ARC
5
146
100
AcDbEntity
8
0
100
AcDbCircle
10
-237.02294776119405
20
-5.1332576555808096
30
0
40
0.50000000000001477
210
0
220
0
230
1
100
AcDbArc
50
127.87921967452193
51
258.81194424867977
0
ARC
5
147
100
AcDbEntity
8
0
100
AcDbCircle
10
-237.36249999999995
20
-6.8499999999999872
30
0
40
1.2500000000000138
210
0
220
0
230
1
100
AcDbArc
50
-78.811944248679879
51
78.811944248679623
0
ARC
5
148
100
AcDbEntity
8
0
100
AcDbCircle
10
-237.02294776119405
20
-8.5667423444191826
30
0
40
0.49999999999998884
210
0
220
0
230
1
100
AcDbArc
50
101.18805575132046
51
232.12078032547572
0
LWPOLYLINE
5
149
100
AcDbEntity
8
0
100
AcDbPolyline
90
4
70
1
43
0.0
10
-7
20
50.150000000000006
10
-7
20
64.149999999999991
10
7
20
64.149999999999991
10
7
20
50.150000000000006
0
LWPOLYLINE
5
150
100
AcDbEntity
8
0
100
AcDbPolyline
90
4
70
1
43
0.0
10
-135.58750000000001
20
-7.0000000000000107
10
-135.58750000000001
20
6.9999999999999929
10
-121.58750000000001
20
6.9999999999999929
10
-121.58750000000001
20
-7.0000000000000107
0
LWPOLYLINE
5
151
100
AcDbEntity
8
0
100
AcDbPolyline
90
4
70
1
43
0.0
10
-192.73750000000004
20
64.149999999999991
10
-178.73750000000001
20
64.149999999999991
10
-178.73750000000001
20
50.150000000000006
10
-192.73750000000001
20
50.150000000000006
0
LWPOLYLINE
5
152
100
AcDbEntity
8
0
100
AcDbPolyline
90
4
70
1
43
0.0
10
-230.83750000000003
20
6.9999999999999929
10
-216.83750000000003
20
6.9999999999999929
10
-216.83750000000003
20
-7.0000000000000107
10
-230.83750000000003
20
-7.0000000000000107
0
LWPOLYLINE
5
153
100
AcDbEntity
8
0
100
AcDbPolyline
90
4
70
1
43
0.0
10
-102.25000000000001
20
6.9999999999999929
10
-88.250000000000014
20
6.9999999999999929
10
-88.250000000000014
20
-7.0000000000000107
10
-102.25000000000001
20
-7.0000000000000107
0
LWPOLYLINE
5
154
100
AcDbEntity
8
0
100
AcDbPolyline
90
4
70
1
43
0.0
10
-154.63750000000002
20
12.050000000000001
10
-154.63750000000002
20
26.050000000000004
10
-140.63749999999999
20
26.050000000000004
10
-140.63749999999999
20
12.050000000000001
0
LWPOLYLINE
5
155
100
AcDbEntity
8
0
100
AcDbPolyline
90
4
70
1
43
0.0
10
-140.63749999999999
20
31.099999999999994
10
-154.63750000000002
20
31.099999999999994
10
-154.63750000000002
20
45.099999999999994
10
-140.63749999999999
20
45.099999999999994
0
LWPOLYLINE
5
156
100
AcDbEntity
8
0
100
AcDbPolyline
90
4
70
1
43
0.0
10
-83.199999999999989
20
31.099999999999994
10
-83.199999999999989
20
45.099999999999994
10
-69.200000000000003
20
45.099999999999994
10
-69.200000000000003
20
31.099999999999994
0
LWPOLYLINE
5
157
100
AcDbEntity
8
0
100
AcDbPolyline
90
4
70
1
43
0.0
10
-211.78750000000002
20
26.050000000000004
10
-197.78750000000002
20
26.050000000000004
10
-197.78750000000002
20
12.050000000000001
10
-211.78750000000002
20
12.050000000000001
0
LWPOLYLINE
5
158
100
AcDbEntity
8
0
100
AcDbPolyline
90
4
70
1
43
0.0
10
-121.58750000000001
20
26.050000000000004
10
-121.58750000000001
20
12.050000000000001
10
-135.58750000000001
20
12.050000000000001
10
-135.58750000000001
20
26.050000000000004
0
LWPOLYLINE
5
159
100
AcDbEntity
8
0
100
AcDbPolyline
90
4
70
1
43
0.0
10
-31.100000000000001
20
12.050000000000001
10
-45.100000000000009
20
12.050000000000001
10
-45.100000000000009
20
26.050000000000004
10
-31.100000000000001
20
26.050000000000004
0
LWPOLYLINE
5
160
100
AcDbEntity
8
0
100
AcDbPolyline
90
4
70
1
43
0.0
10
-50.150000000000006
20
12.050000000000001
10
-64.150000000000006
20
12.050000000000001
10
-64.150000000000006
20
26.050000000000004
10
-50.150000000000006
20
26.050000000000004
0
LWPOLYLINE
5
161
100
AcDbEntity
8
0
100
AcDbPolyline
90
4
70
1
43
0.0
10
-26.050000000000004
20
26.050000000000004
10
-12.050000000000002
20
26.050000000000004
10
-12.050000000000002
20
12.050000000000001
10
-26.050000000000004
20
12.050000000000001
0
LWPOLYLINE
5
162
100
AcDbEntity
8
0
100
AcDbPolyline
90
4
70
1
43
0.0
10
-211.78750000000002
20
64.149999999999991
10
-197.78750000000002
20
64.149999999999991
10
-197.78750000000002
20
50.150000000000006
10
-211.78750000000002
20
50.150000000000006
0
LWPOLYLINE
5
163
100
AcDbEntity
8
0
100
AcDbPolyline
90
4
70
1
43
0.0
10
-192.73750000000004
20
26.050000000000004
10
-178.73750000000001
20
26.050000000000004
10
-178.73749999999998
20
12.050000000000001
10
-192.73750000000001
20
12.050000000000001
0
LWPOLYLINE
5
164
100
AcDbEntity
8
0
100
AcDbPolyline
90
4
70
1
43
0.0
10
-64.150000000000006
20
45.099999999999994
10
-50.150000000000006
20
45.099999999999994
10
-50.150000000000006
20
31.099999999999994
10
-64.150000000000006
20
31.099999999999994
0
LWPOLYLINE
5
165
100
AcDbEntity
8
0
100
AcDbPolyline
90
4
70
1
43
0.0
10
-12.050000000000002
20
31.099999999999994
10
-26.050000000000004
20
31.099999999999994
10
-26.050000000000004
20
45.099999999999994
10
-12.050000000000002
20
45.099999999999994
0
LWPOLYLINE
5
166
100
AcDbEntity
8
0
100
AcDbPolyline
90
4
70
1
43
0.0
10
-216.83750000000003
20
26.050000000000004
10
-216.83750000000003
20
12.050000000000001
10
-230.83750000000003
20
12.050000000000001
10
-230.83750000000003
20
26.050000000000004
0
LWPOLYLINE
5
167
100
AcDbEntity
8
0
100
AcDbPolyline
90
4
70
1
43
0.0
10
7
20
-7.0000000000000107
10
-7
20
-7.0000000000000107
10
-7
20
6.9999999999999929
10
7
20
6.9999999999999929
0
LWPOLYLINE
5
168
100
AcDbEntity
8
0
100
AcDbPolyline
90
4
70
1
43
0.0
10
-170.18750000000006
20
49.149999999999991
10
-170.18750000000006
20
64.149999999999991
10
-163.1875
20
64.149999999999991
10
-163.1875
20
49.149999999999991
0
LWPOLYLINE
5
169
100
AcDbEntity
8
0
100
AcDbPolyline
90
4
70
1
43
0.0
10
-31.100000000000001
20
50.150000000000006
10
-45.100000000000009
20
50.150000000000006
10
-45.100000000000009
20
64.149999999999991
10
-31.100000000000001
20
64.149999999999991
0
LWPOLYLINE
5
170
100
AcDbEntity
8
0
100
AcDbPolyline
90
4
70
1
43
0.0
10
-211.78750000000002
20
31.099999999999994
10
-211.78750000000002
20
45.099999999999994
10
-197.78750000000002
20
45.099999999999994
10
-197.78750000000002
20
31.099999999999994
0
LWPOLYLINE
5
171
100
AcDbEntity
8
0
100
AcDbPolyline
90
4
70
1
43
0.0
10
-140.63749999999999
20
64.149999999999991
10
-140.63749999999999
20
50.150000000000006
10
-154.63750000000002
20
50.150000000000006
10
-154.63750000000002
20
64.149999999999991
0
LWPOLYLINE
5
172
100
AcDbEntity
8
0
100
AcDbPolyline
90
4
70
1
43
0.0
10
-230.83750000000003
20
64.149999999999991
10
-216.83750000000003
20
64.149999999999991
10
-216.83750000000003
20
50.150000000000006
10
-230.83750000000003
20
50.150000000000006
0
LWPOLYLINE
5
173
100
AcDbEntity
8
0
100
AcDbPolyline
90
4
70
1
43
0.0
10
-64.150000000000006
20
-7.0000000000000107
10
-64.150000000000006
20
6.9999999999999929
10
-50.150000000000006
20
6.9999999999999929
10
-50.150000000000006
20
-7.0000000000000107
0
LWPOLYLINE
5
174
100
AcDbEntity
8
0
100
AcDbPolyline
90
4
70
1
43
0.0
10
-192.73750000000001
20
-7.0000000000000107
10
-192.73750000000004
20
6.9999999999999929
10
-178.73750000000001
20
6.9999999999999929
10
-178.73750000000001
20
-7.0000000000000107
0
LWPOLYLINE
5
175
100
AcDbEntity
8
0
100
AcDbPolyline
90
4
70
1
43
0.0
10
-230.83750000000003
20
45.099999999999994
10
-216.83750000000003
20
45.099999999999994
10
-216.83750000000003
20
31.099999999999994
10
-230.83750000000003
20
31.099999999999994
0
LWPOLYLINE
5
176
100
AcDbEntity
8
0
100
AcDbPolyline
90
4
70
1
43
0.0
10
-132.08750000000003
20
64.149999999999991
10
-125.08750000000001
20
64.149999999999991
10
-125.08750000000001
20
49.149999999999991
10
-132.08750000000003
20
49.149999999999991
0
LWPOLYLINE
5
177
100
AcDbEntity
8
0
100
AcDbPolyline
90
4
70
1
43
0.0
10
-88.250000000000014
20
12.050000000000001
10
-102.25000000000001
20
12.050000000000001
10
-102.25000000000001
20
26.050000000000004
10
-88.250000000000014
20
26.050000000000004
0
LWPOLYLINE
5
178
100
AcDbEntity
8
0
100
AcDbPolyline
90
4
70
1
43
0.0
10
-53.650000000000006
20
64.149999999999991
10
-53.650000000000006
20
49.149999999999991
10
-60.650000000000006
20
49.149999999999991
10
-60.650000000000006
20
64.149999999999991
0
LWPOLYLINE
5
179
100
AcDbEntity
8
0
100
AcDbPolyline
90
4
70
1
43
0.0
10
-159.68750000000003
20
-7.0000000000000107
10
-173.68750000000006
20
-7.0000000000000107
10
-173.68750000000003
20
6.9999999999999929
10
-159.68749999999997
20
6.9999999999999929
0
LWPOLYLINE
5
180
100
AcDbEntity
8
0
100
AcDbPolyline
90
4
70
1
43
0.0
10
-102.25000000000001
20
31.099999999999994
10
-102.25000000000001
20
45.099999999999994
10
-88.250000000000014
20
45.099999999999994
10
-88.250000000000014
20
31.099999999999994
0
LWPOLYLINE
5
181
100
AcDbEntity
8
0
100
AcDbPolyline
90
4
70
1
43
0.0
10
-83.199999999999989
20
6.9999999999999929
10
-69.200000000000003
20
6.9999999999999929
10
-69.200000000000003
20
-7.0000000000000107
10
-83.199999999999989
20
-7.0000000000000107
0
LWPOLYLINE
5
182
100
AcDbEntity
8
0
100
AcDbPolyline
90
4
70
1
43
0.0
10
-69.200000000000003
20
50.150000000000006
10
-83.199999999999989
20
50.150000000000006
10
-83.199999999999989
20
64.149999999999991
10
-69.200000000000003
20
64.149999999999991
0
LWPOLYLINE
5
183
100
AcDbEntity
8
0
100
AcDbPolyline
90
4
70
1
43
0.0
10
-91.75
20
49.149999999999991
10
-98.75
20
49.149999999999991
10
-98.75
20
64.149999999999991
10
-91.75
20
64.149999999999991
0
LWPOLYLINE
5
184
100
AcDbEntity
8
0
100
AcDbPolyline
90
4
70
1
43
0.0
10
-31.100000000000001
20
6.9999999999999929
10
-31.100000000000001
20
-7.0000000000000107
10
-45.100000000000009
20
-7.0000000000000107
10
-45.100000000000009
20
6.9999999999999929
0
LWPOLYLINE
5
185
100
AcDbEntity
8
0
100
AcDbPolyline
90
4
70
1
43
0.0
10
-173.68750000000003
20
45.099999999999994
10
-159.68749999999997
20
45.099999999999994
10
-159.68750000000003
20
31.099999999999994
10
-173.68750000000006
20
31.099999999999994
0
LWPOLYLINE
5
186
100
AcDbEntity
8
0
100
AcDbPolyline
90
4
70
1
43
0.0
10
-31.100000000000001
20
45.099999999999994
10
-31.100000000000001
20
31.099999999999994
10
-45.100000000000009
20
31.099999999999994
10
-45.100000000000009
20
45.099999999999994
0
LWPOLYLINE
5
187
100
AcDbEntity
8
0
100
AcDbPolyline
90
4
70
1
43
0.0
10
-135.58750000000001
20
45.099999999999994
10
-121.58750000000001
20
45.099999999999994
10
-121.58750000000001
20
31.099999999999994
10
-135.58750000000001
20
31.099999999999994
0
LWPOLYLINE
5
188
100
AcDbEntity
8
0
100
AcDbPolyline
90
4
70
1
43
0.0
10
7
20
31.099999999999994
10
-7
20
31.099999999999994
10
-7
20
45.099999999999994
10
7
20
45.099999999999994
0
LWPOLYLINE
5
189
100
AcDbEntity
8
0
100
AcDbPolyline
90
4
70
1
43
0.0
10
-159.68750000000003
20
12.050000000000001
10
-173.68750000000006
20
12.050000000000001
10
-173.68750000000003
20
26.050000000000004
10
-159.68749999999997
20
26.050000000000004
0
LWPOLYLINE
5
190
100
AcDbEntity
8
0
100
AcDbPolyline
90
4
70
1
43
0.0
10
-69.200000000000003
20
26.050000000000004
10
-69.200000000000003
20
12.050000000000001
10
-83.199999999999989
20
12.050000000000001
10
-83.199999999999989
20
26.050000000000004
0
LWPOLYLINE
5
191
100
AcDbEntity
8
0
100
AcDbPolyline
90
4
70
1
43
0.0
10
-140.63749999999999
20
6.9999999999999929
10
-140.63749999999999
20
-7.0000000000000107
10
-154.63750000000002
20
-7.0000000000000107
10
-154.63750000000002
20
6.9999999999999929
0
LWPOLYLINE
5
192
100
AcDbEntity
8
0
100
AcDbPolyline
90
4
70
1
43
0.0
10
-12.050000000000002
20
50.150000000000006
10
-26.050000000000004
20
50.150000000000006
10
-26.050000000000004
20
64.149999999999991
10
-12.050000000000002
20
64.149999999999991
0
LWPOLYLINE
5
193
100
AcDbEntity
8
0
100
AcDbPolyline
90
4
70
1
43
0.0
10
-26.050000000000004
20
-7.0000000000000107
10
-26.050000000000004
20
6.9999999999999929
10
-12.050000000000002
20
6.9999999999999929
10
-12.050000000000002
20
-7.0000000000000107
0
LWPOLYLINE
5
194
100
AcDbEntity
8
0
100
AcDbPolyline
90
4
70
1
43
0.0
10
7
20
12.050000000000001
10
-7
20
12.050000000000001
10
-7
20
26.050000000000004
10
7
20
26.050000000000004
0
LWPOLYLINE
5
195
100
AcDbEntity
8
0
100
AcDbPolyline
90
4
70
1
43
0.0
10
-192.73750000000004
20
45.099999999999994
10
-178.73750000000001
20
45.099999999999994
10
-178.73750000000001
20
31.099999999999994
10
-192.73750000000001
20
31.099999999999994
0
LWPOLYLINE
5
196
100
AcDbEntity
8
0
100
AcDbPolyline
90
4
70
1
43
0.0
10
-197.78750000000002
20
-7.0000000000000107
10
-211.78750000000002
20
-7.0000000000000107
10
-211.78750000000002
20
6.9999999999999929
10
-197.78750000000002
20
6.9999999999999929
0
ENDSEC
0
SECTION
2
OBJECTS
0
DICTIONARY
5
C
100
AcDbDictionary
3
ACAD_GROUP
350
D
3
ACAD_MLINESTYLE
350
17
0
DICTIONARY
5
D
100
AcDbDictionary
0
DICTIONARY
5
1A
330
C
100
AcDbDictionary
0
DICTIONARY
5
17
100
AcDbDictionary
0
ENDSEC
0
EOF
