0
SECTION
2
HEADER
9
$INSUNITS
70
4
9
$ACADVER
1
AC1014
9
$HANDSEED
5
FFFF
0
ENDSEC
0
SECTION
2
TABLES
0
TABLE
2
VPORT
5
8
100
AcDbSymbolTable
0
ENDTAB
0
TABLE
2
LTYPE
5
5
100
AcDbSymbolTable
0
LTYPE
5
14
100
AcDbSymbolTableRecord
100
AcDbLinetypeTableRecord
2
BYBLOCK
70
0
0
LTYPE
5
15
100
AcDbSymbolTableRecord
100
AcDbLinetypeTableRecord
2
BYLAYER
70
0
0
ENDTAB
0
TABLE
2
LAYER
5
2
100
AcDbSymbolTable
70
2
0
LAYER
5
50
100
AcDbSymbolTableRecord
100
AcDbLayerTableRecord
2
0
70
0
6
CONTINUOUS
0
ENDTAB
0
TABLE
2
STYLE
5
3
100
AcDbSymbolTable
70
1
0
STYLE
5
11
100
AcDbSymbolTableRecord
100
AcDbTextStyleTableRecord
2
STANDARD
70
0
0
ENDTAB
0
TABLE
2
VIEW
5
6
100
AcDbSymbolTable
70
0
0
ENDTAB
0
TABLE
2
UCS
5
7
100
AcDbSymbolTable
70
0
0
ENDTAB
0
TABLE
2
APPID
5
9
100
AcDbSymbolTable
70
2
0
APPID
5
12
100
AcDbSymbolTableRecord
100
AcDbRegAppTableRecord
2
ACAD
70
0
0
ENDTAB
0
TABLE
2
DIMSTYLE
5
A
100
AcDbSymbolTable
70
1
0
ENDTAB
0
TABLE
2
BLOCK_RECORD
5
1
100
AcDbSymbolTable
70
1
0
BLOCK_RECORD
5
1F
100
AcDbSymbolTableRecord
100
AcDbBlockTableRecord
2
*MODEL_SPACE
0
BLOCK_RECORD
5
1B
100
AcDbSymbolTableRecord
100
AcDbBlockTableRecord
2
*PAPER_SPACE
0
ENDTAB
0
ENDSEC
0
SECTION
2
BLOCKS
0
BLOCK
5
20
100
AcDbEntity
100
AcDbBlockBegin
2
*MODEL_SPACE
0
ENDBLK
5
21
100
AcDbEntity
100
AcDbBlockEnd
0
BLOCK
5
1C
100
AcDbEntity
100
AcDbBlockBegin
2
*PAPER_SPACE
0
ENDBLK
5
1D
100
AcDbEntity
100
AcDbBlockEnd
0
ENDSEC
0
SECTION
2
ENTITIES
0
LWPOLYLINE
5
100
100
AcDbEntity
8
0
100
AcDbPolyline
90
4
70
1
43
0.0
10
-35.575000000000003
20
-12.049999999999986
10
-21.575000000000003
20
-12.049999999999997
10
-21.575000000000003
20
-26.050000000000001
10
-35.575000000000003
20
-26.050000000000001
0
LWPOLYLINE
5
101
100
AcDbEntity
8
0
100
AcDbPolyline
90
4
70
1
43
0.0
10
-40.625000000000014
20
-12.049999999999986
10
-40.625000000000014
20
-26.050000000000001
10
-54.625000000000021
20
-26.050000000000001
10
-54.625000000000021
20
-12.049999999999986
0
LWPOLYLINE
5
102
100
AcDbEntity
8
0
100
AcDbPolyline
90
4
70
1
43
0.0
10
-59.675000000000018
20
-26.050000000000001
10
-73.674999999999983
20
-26.050000000000001
10
-73.674999999999983
20
-12.049999999999979
10
-59.675000000000018
20
-12.049999999999986
0
CIRCLE
5
103
100
AcDbEntity
8
0
100
AcDbCircle
10
5.5130000000000035
20
-25.32500000000001
30
0
40
1.7500000000000004
210
0
220
-0
230
1
0
LWPOLYLINE
5
104
100
AcDbEntity
8
0
100
AcDbPolyline
90
4
70
1
43
0.0
10
-97.775000000000034
20
-26.050000000000001
10
-111.77500000000002
20
-26.04999999999999
10
-111.77500000000002
20
-12.049999999999997
10
-97.775000000000034
20
-12.049999999999997
0
LWPOLYLINE
5
105
100
AcDbEntity
8
0
100
AcDbPolyline
90
4
70
1
43
0.0
10
-78.725000000000037
20
-12.049999999999979
10
-78.725000000000037
20
-26.050000000000001
10
-92.725000000000051
20
-26.050000000000001
10
-92.725000000000051
20
-12.049999999999979
0
CIRCLE
5
106
100
AcDbEntity
8
0
100
AcDbCircle
10
5.5130000000000035
20
-19.800000000000008
30
0
40
1.7500000000000004
210
0
220
-0
230
1
0
LWPOLYLINE
5
107
100
AcDbEntity
8
0
100
AcDbPolyline
90
4
70
1
43
0.0
10
-16.525000000000006
20
-26.050000000000001
10
-16.525000000000002
20
-12.049999999999997
10
-2.524999999999995
20
-12.049999999999997
10
-2.5249999999999995
20
-26.050000000000008
0
CIRCLE
5
108
100
AcDbEntity
8
0
100
AcDbCircle
10
5.5130000000000035
20
-14.274999999999999
30
0
40
1.749999999999998
210
0
220
-0
230
1
0
LWPOLYLINE
5
109
100
AcDbEntity
8
0
100
AcDbPolyline
90
23
70
1
43
0.0
10
-173.86249999999995
20
69.675000000000011
10
-233.36250000000001
20
69.674999999999997
42
0.4142135623730846
10
-236.36250000000001
20
66.675000000000026
10
-236.36250000000001
20
31.575000000000045
42
0.99999999999999989
10
-236.36250000000001
20
25.575000000000031
10
-236.36250000000001
20
-9.5249999999999666
42
0.41421356237310458
10
-233.36250000000001
20
-12.524999999999991
10
-173.86249999999995
20
-12.524999999999945
42
0.99999999999999989
10
-167.86249999999995
20
-12.524999999999981
10
-117.29999999999997
20
-12.524999999999991
10
-117.30000000000001
20
-28.574999999999996
42
0.41421356237308554
10
-114.3
20
-31.574999999999985
10
-56.138000000000034
20
-31.574999999999985
42
0.99999999999999989
10
-50.137999999999998
20
-31.575000000000003
10
9.5250000000000057
20
-31.57500000000001
42
0.41421356237309503
10
12.524999999999999
20
-28.575000000000014
10
12.524999999999999
20
16.050000000000001
42
0.99999999999999989
10
12.525000000000004
20
22.049999999999997
10
12.525000000000009
20
66.674999999999983
42
0.41421356237309115
10
9.5250000000000057
20
69.674999999999997
10
-50.137999999999998
20
69.674999999999997
42
0.99999999999999989
10
-56.138000000000012
20
69.675000000000011
10
-167.86249999999995
20
69.674999999999983
42
0.99999999999999989
0
LWPOLYLINE
5
110
100
AcDbEntity
8
0
100
AcDbPolyline
90
4
70
1
43
0.0
10
-7
20
50.150000000000006
10
-7
20
64.149999999999991
10
7
20
64.149999999999991
10
7
20
50.150000000000006
0
LWPOLYLINE
5
111
100
AcDbEntity
8
0
100
AcDbPolyline
90
4
70
1
43
0.0
10
-135.58750000000001
20
-7.0000000000000107
10
-135.58750000000001
20
6.9999999999999929
10
-121.58750000000001
20
6.9999999999999929
10
-121.58750000000001
20
-7.0000000000000107
0
LWPOLYLINE
5
112
100
AcDbEntity
8
0
100
AcDbPolyline
90
4
70
1
43
0.0
10
-192.73750000000004
20
64.149999999999991
10
-178.73750000000001
20
64.149999999999991
10
-178.73750000000001
20
50.150000000000006
10
-192.73750000000001
20
50.150000000000006
0
LWPOLYLINE
5
113
100
AcDbEntity
8
0
100
AcDbPolyline
90
4
70
1
43
0.0
10
-230.83750000000003
20
6.9999999999999929
10
-216.83750000000003
20
6.9999999999999929
10
-216.83750000000003
20
-7.0000000000000107
10
-230.83750000000003
20
-7.0000000000000107
0
LWPOLYLINE
5
114
100
AcDbEntity
8
0
100
AcDbPolyline
90
4
70
1
43
0.0
10
-102.25000000000001
20
6.9999999999999929
10
-88.250000000000014
20
6.9999999999999929
10
-88.250000000000014
20
-7.0000000000000107
10
-102.25000000000001
20
-7.0000000000000107
0
LWPOLYLINE
5
115
100
AcDbEntity
8
0
100
AcDbPolyline
90
4
70
1
43
0.0
10
-154.63750000000002
20
12.050000000000001
10
-154.63750000000002
20
26.050000000000004
10
-140.63749999999999
20
26.050000000000004
10
-140.63749999999999
20
12.050000000000001
0
LWPOLYLINE
5
116
100
AcDbEntity
8
0
100
AcDbPolyline
90
4
70
1
43
0.0
10
-140.63749999999999
20
31.099999999999994
10
-154.63750000000002
20
31.099999999999994
10
-154.63750000000002
20
45.099999999999994
10
-140.63749999999999
20
45.099999999999994
0
LWPOLYLINE
5
117
100
AcDbEntity
8
0
100
AcDbPolyline
90
4
70
1
43
0.0
10
-83.199999999999989
20
31.099999999999994
10
-83.199999999999989
20
45.099999999999994
10
-69.200000000000003
20
45.099999999999994
10
-69.200000000000003
20
31.099999999999994
0
LWPOLYLINE
5
118
100
AcDbEntity
8
0
100
AcDbPolyline
90
4
70
1
43
0.0
10
-211.78750000000002
20
26.050000000000004
10
-197.78750000000002
20
26.050000000000004
10
-197.78750000000002
20
12.050000000000001
10
-211.78750000000002
20
12.050000000000001
0
LWPOLYLINE
5
119
100
AcDbEntity
8
0
100
AcDbPolyline
90
4
70
1
43
0.0
10
-121.58750000000001
20
26.050000000000004
10
-121.58750000000001
20
12.050000000000001
10
-135.58750000000001
20
12.050000000000001
10
-135.58750000000001
20
26.050000000000004
0
LWPOLYLINE
5
120
100
AcDbEntity
8
0
100
AcDbPolyline
90
4
70
1
43
0.0
10
-31.100000000000001
20
12.050000000000001
10
-45.100000000000009
20
12.050000000000001
10
-45.100000000000009
20
26.050000000000004
10
-31.100000000000001
20
26.050000000000004
0
LWPOLYLINE
5
121
100
AcDbEntity
8
0
100
AcDbPolyline
90
4
70
1
43
0.0
10
-50.150000000000006
20
12.050000000000001
10
-64.150000000000006
20
12.050000000000001
10
-64.150000000000006
20
26.050000000000004
10
-50.150000000000006
20
26.050000000000004
0
LWPOLYLINE
5
122
100
AcDbEntity
8
0
100
AcDbPolyline
90
4
70
1
43
0.0
10
-26.050000000000004
20
26.050000000000004
10
-12.050000000000002
20
26.050000000000004
10
-12.050000000000002
20
12.050000000000001
10
-26.050000000000004
20
12.050000000000001
0
LWPOLYLINE
5
123
100
AcDbEntity
8
0
100
AcDbPolyline
90
4
70
1
43
0.0
10
-211.78750000000002
20
64.149999999999991
10
-197.78750000000002
20
64.149999999999991
10
-197.78750000000002
20
50.150000000000006
10
-211.78750000000002
20
50.150000000000006
0
LWPOLYLINE
5
124
100
AcDbEntity
8
0
100
AcDbPolyline
90
4
70
1
43
0.0
10
-192.73750000000004
20
26.050000000000004
10
-178.73750000000001
20
26.050000000000004
10
-178.73749999999998
20
12.050000000000001
10
-192.73750000000001
20
12.050000000000001
0
LWPOLYLINE
5
125
100
AcDbEntity
8
0
100
AcDbPolyline
90
4
70
1
43
0.0
10
-64.150000000000006
20
45.099999999999994
10
-50.150000000000006
20
45.099999999999994
10
-50.150000000000006
20
31.099999999999994
10
-64.150000000000006
20
31.099999999999994
0
LWPOLYLINE
5
126
100
AcDbEntity
8
0
100
AcDbPolyline
90
4
70
1
43
0.0
10
-12.050000000000002
20
31.099999999999994
10
-26.050000000000004
20
31.099999999999994
10
-26.050000000000004
20
45.099999999999994
10
-12.050000000000002
20
45.099999999999994
0
LWPOLYLINE
5
127
100
AcDbEntity
8
0
100
AcDbPolyline
90
4
70
1
43
0.0
10
-216.83750000000003
20
26.050000000000004
10
-216.83750000000003
20
12.050000000000001
10
-230.83750000000003
20
12.050000000000001
10
-230.83750000000003
20
26.050000000000004
0
LWPOLYLINE
5
128
100
AcDbEntity
8
0
100
AcDbPolyline
90
4
70
1
43
0.0
10
7
20
-7.0000000000000107
10
-7
20
-7.0000000000000107
10
-7
20
6.9999999999999929
10
7
20
6.9999999999999929
0
LWPOLYLINE
5
129
100
AcDbEntity
8
0
100
AcDbPolyline
90
4
70
1
43
0.0
10
-170.18750000000006
20
49.149999999999991
10
-170.18750000000006
20
64.149999999999991
10
-163.1875
20
64.149999999999991
10
-163.1875
20
49.149999999999991
0
LWPOLYLINE
5
130
100
AcDbEntity
8
0
100
AcDbPolyline
90
4
70
1
43
0.0
10
-31.100000000000001
20
50.150000000000006
10
-45.100000000000009
20
50.150000000000006
10
-45.100000000000009
20
64.149999999999991
10
-31.100000000000001
20
64.149999999999991
0
LWPOLYLINE
5
131
100
AcDbEntity
8
0
100
AcDbPolyline
90
4
70
1
43
0.0
10
-211.78750000000002
20
31.099999999999994
10
-211.78750000000002
20
45.099999999999994
10
-197.78750000000002
20
45.099999999999994
10
-197.78750000000002
20
31.099999999999994
0
LWPOLYLINE
5
132
100
AcDbEntity
8
0
100
AcDbPolyline
90
4
70
1
43
0.0
10
-140.63749999999999
20
64.149999999999991
10
-140.63749999999999
20
50.150000000000006
10
-154.63750000000002
20
50.150000000000006
10
-154.63750000000002
20
64.149999999999991
0
LWPOLYLINE
5
133
100
AcDbEntity
8
0
100
AcDbPolyline
90
4
70
1
43
0.0
10
-230.83750000000003
20
64.149999999999991
10
-216.83750000000003
20
64.149999999999991
10
-216.83750000000003
20
50.150000000000006
10
-230.83750000000003
20
50.150000000000006
0
LWPOLYLINE
5
134
100
AcDbEntity
8
0
100
AcDbPolyline
90
4
70
1
43
0.0
10
-64.150000000000006
20
-7.0000000000000107
10
-64.150000000000006
20
6.9999999999999929
10
-50.150000000000006
20
6.9999999999999929
10
-50.150000000000006
20
-7.0000000000000107
0
LWPOLYLINE
5
135
100
AcDbEntity
8
0
100
AcDbPolyline
90
4
70
1
43
0.0
10
-192.73750000000001
20
-7.0000000000000107
10
-192.73750000000004
20
6.9999999999999929
10
-178.73750000000001
20
6.9999999999999929
10
-178.73750000000001
20
-7.0000000000000107
0
LWPOLYLINE
5
136
100
AcDbEntity
8
0
100
AcDbPolyline
90
4
70
1
43
0.0
10
-230.83750000000003
20
45.099999999999994
10
-216.83750000000003
20
45.099999999999994
10
-216.83750000000003
20
31.099999999999994
10
-230.83750000000003
20
31.099999999999994
0
LWPOLYLINE
5
137
100
AcDbEntity
8
0
100
AcDbPolyline
90
4
70
1
43
0.0
10
-132.08750000000003
20
64.149999999999991
10
-125.08750000000001
20
64.149999999999991
10
-125.08750000000001
20
49.149999999999991
10
-132.08750000000003
20
49.149999999999991
0
LWPOLYLINE
5
138
100
AcDbEntity
8
0
100
AcDbPolyline
90
4
70
1
43
0.0
10
-88.250000000000014
20
12.050000000000001
10
-102.25000000000001
20
12.050000000000001
10
-102.25000000000001
20
26.050000000000004
10
-88.250000000000014
20
26.050000000000004
0
LWPOLYLINE
5
139
100
AcDbEntity
8
0
100
AcDbPolyline
90
4
70
1
43
0.0
10
-53.650000000000006
20
64.149999999999991
10
-53.650000000000006
20
49.149999999999991
10
-60.650000000000006
20
49.149999999999991
10
-60.650000000000006
20
64.149999999999991
0
LWPOLYLINE
5
140
100
AcDbEntity
8
0
100
AcDbPolyline
90
4
70
1
43
0.0
10
-159.68750000000003
20
-7.0000000000000107
10
-173.68750000000006
20
-7.0000000000000107
10
-173.68750000000003
20
6.9999999999999929
10
-159.68749999999997
20
6.9999999999999929
0
LWPOLYLINE
5
141
100
AcDbEntity
8
0
100
AcDbPolyline
90
4
70
1
43
0.0
10
-102.25000000000001
20
31.099999999999994
10
-102.25000000000001
20
45.099999999999994
10
-88.250000000000014
20
45.099999999999994
10
-88.250000000000014
20
31.099999999999994
0
LWPOLYLINE
5
142
100
AcDbEntity
8
0
100
AcDbPolyline
90
4
70
1
43
0.0
10
-83.199999999999989
20
6.9999999999999929
10
-69.200000000000003
20
6.9999999999999929
10
-69.200000000000003
20
-7.0000000000000107
10
-83.199999999999989
20
-7.0000000000000107
0
LWPOLYLINE
5
143
100
AcDbEntity
8
0
100
AcDbPolyline
90
4
70
1
43
0.0
10
-69.200000000000003
20
50.150000000000006
10
-83.199999999999989
20
50.150000000000006
10
-83.199999999999989
20
64.149999999999991
10
-69.200000000000003
20
64.149999999999991
0
LWPOLYLINE
5
144
100
AcDbEntity
8
0
100
AcDbPolyline
90
4
70
1
43
0.0
10
-91.75
20
49.149999999999991
10
-98.75
20
49.149999999999991
10
-98.75
20
64.149999999999991
10
-91.75
20
64.149999999999991
0
LWPOLYLINE
5
145
100
AcDbEntity
8
0
100
AcDbPolyline
90
4
70
1
43
0.0
10
-31.100000000000001
20
6.9999999999999929
10
-31.100000000000001
20
-7.0000000000000107
10
-45.100000000000009
20
-7.0000000000000107
10
-45.100000000000009
20
6.9999999999999929
0
LWPOLYLINE
5
146
100
AcDbEntity
8
0
100
AcDbPolyline
90
4
70
1
43
0.0
10
-173.68750000000003
20
45.099999999999994
10
-159.68749999999997
20
45.099999999999994
10
-159.68750000000003
20
31.099999999999994
10
-173.68750000000006
20
31.099999999999994
0
LWPOLYLINE
5
147
100
AcDbEntity
8
0
100
AcDbPolyline
90
4
70
1
43
0.0
10
-31.100000000000001
20
45.099999999999994
10
-31.100000000000001
20
31.099999999999994
10
-45.100000000000009
20
31.099999999999994
10
-45.100000000000009
20
45.099999999999994
0
LWPOLYLINE
5
148
100
AcDbEntity
8
0
100
AcDbPolyline
90
4
70
1
43
0.0
10
-135.58750000000001
20
45.099999999999994
10
-121.58750000000001
20
45.099999999999994
10
-121.58750000000001
20
31.099999999999994
10
-135.58750000000001
20
31.099999999999994
0
LWPOLYLINE
5
149
100
AcDbEntity
8
0
100
AcDbPolyline
90
4
70
1
43
0.0
10
7
20
31.099999999999994
10
-7
20
31.099999999999994
10
-7
20
45.099999999999994
10
7
20
45.099999999999994
0
LWPOLYLINE
5
150
100
AcDbEntity
8
0
100
AcDbPolyline
90
4
70
1
43
0.0
10
-159.68750000000003
20
12.050000000000001
10
-173.68750000000006
20
12.050000000000001
10
-173.68750000000003
20
26.050000000000004
10
-159.68749999999997
20
26.050000000000004
0
LWPOLYLINE
5
151
100
AcDbEntity
8
0
100
AcDbPolyline
90
4
70
1
43
0.0
10
-69.200000000000003
20
26.050000000000004
10
-69.200000000000003
20
12.050000000000001
10
-83.199999999999989
20
12.050000000000001
10
-83.199999999999989
20
26.050000000000004
0
LWPOLYLINE
5
152
100
AcDbEntity
8
0
100
AcDbPolyline
90
4
70
1
43
0.0
10
-140.63749999999999
20
6.9999999999999929
10
-140.63749999999999
20
-7.0000000000000107
10
-154.63750000000002
20
-7.0000000000000107
10
-154.63750000000002
20
6.9999999999999929
0
LWPOLYLINE
5
153
100
AcDbEntity
8
0
100
AcDbPolyline
90
4
70
1
43
0.0
10
-12.050000000000002
20
50.150000000000006
10
-26.050000000000004
20
50.150000000000006
10
-26.050000000000004
20
64.149999999999991
10
-12.050000000000002
20
64.149999999999991
0
LWPOLYLINE
5
154
100
AcDbEntity
8
0
100
AcDbPolyline
90
4
70
1
43
0.0
10
-26.050000000000004
20
-7.0000000000000107
10
-26.050000000000004
20
6.9999999999999929
10
-12.050000000000002
20
6.9999999999999929
10
-12.050000000000002
20
-7.0000000000000107
0
LWPOLYLINE
5
155
100
AcDbEntity
8
0
100
AcDbPolyline
90
4
70
1
43
0.0
10
7
20
12.050000000000001
10
-7
20
12.050000000000001
10
-7
20
26.050000000000004
10
7
20
26.050000000000004
0
LWPOLYLINE
5
156
100
AcDbEntity
8
0
100
AcDbPolyline
90
4
70
1
43
0.0
10
-192.73750000000004
20
45.099999999999994
10
-178.73750000000001
20
45.099999999999994
10
-178.73750000000001
20
31.099999999999994
10
-192.73750000000001
20
31.099999999999994
0
LWPOLYLINE
5
157
100
AcDbEntity
8
0
100
AcDbPolyline
90
4
70
1
43
0.0
10
-197.78750000000002
20
-7.0000000000000107
10
-211.78750000000002
20
-7.0000000000000107
10
-211.78750000000002
20
6.9999999999999929
10
-197.78750000000002
20
6.9999999999999929
0
ENDSEC
0
SECTION
2
OBJECTS
0
DICTIONARY
5
C
100
AcDbDictionary
3
ACAD_GROUP
350
D
3
ACAD_MLINESTYLE
350
17
0
DICTIONARY
5
D
100
AcDbDictionary
0
DICTIONARY
5
1A
330
C
100
AcDbDictionary
0
DICTIONARY
5
17
100
AcDbDictionary
0
ENDSEC
0
EOF
