0
SECTION
2
HEADER
9
$INSUNITS
70
4
9
$ACADVER
1
AC1014
9
$HANDSEED
5
FFFF
0
ENDSEC
0
SECTION
2
TABLES
0
TABLE
2
VPORT
5
8
100
AcDbSymbolTable
0
ENDTAB
0
TABLE
2
LTYPE
5
5
100
AcDbSymbolTable
0
LTYPE
5
14
100
AcDbSymbolTableRecord
100
AcDbLinetypeTableRecord
2
BYBLOCK
70
0
0
LTYPE
5
15
100
AcDbSymbolTableRecord
100
AcDbLinetypeTableRecord
2
BYLAYER
70
0
0
ENDTAB
0
TABLE
2
LAYER
5
2
100
AcDbSymbolTable
70
2
0
LAYER
5
50
100
AcDbSymbolTableRecord
100
AcDbLayerTableRecord
2
0
70
0
6
CONTINUOUS
0
ENDTAB
0
TABLE
2
STYLE
5
3
100
AcDbSymbolTable
70
1
0
STYLE
5
11
100
AcDbSymbolTableRecord
100
AcDbTextStyleTableRecord
2
STANDARD
70
0
0
ENDTAB
0
TABLE
2
VIEW
5
6
100
AcDbSymbolTable
70
0
0
ENDTAB
0
TABLE
2
UCS
5
7
100
AcDbSymbolTable
70
0
0
ENDTAB
0
TABLE
2
APPID
5
9
100
AcDbSymbolTable
70
2
0
APPID
5
12
100
AcDbSymbolTableRecord
100
AcDbRegAppTableRecord
2
ACAD
70
0
0
ENDTAB
0
TABLE
2
DIMSTYLE
5
A
100
AcDbSymbolTable
70
1
0
ENDTAB
0
TABLE
2
BLOCK_RECORD
5
1
100
AcDbSymbolTable
70
1
0
BLOCK_RECORD
5
1F
100
AcDbSymbolTableRecord
100
AcDbBlockTableRecord
2
*MODEL_SPACE
0
BLOCK_RECORD
5
1B
100
AcDbSymbolTableRecord
100
AcDbBlockTableRecord
2
*PAPER_SPACE
0
ENDTAB
0
ENDSEC
0
SECTION
2
BLOCKS
0
BLOCK
5
20
100
AcDbEntity
100
AcDbBlockBegin
2
*MODEL_SPACE
0
ENDBLK
5
21
100
AcDbEntity
100
AcDbBlockEnd
0
BLOCK
5
1C
100
AcDbEntity
100
AcDbBlockBegin
2
*PAPER_SPACE
0
ENDBLK
5
1D
100
AcDbEntity
100
AcDbBlockEnd
0
ENDSEC
0
SECTION
2
ENTITIES
0
LWPOLYLINE
5
100
100
AcDbEntity
8
0
100
AcDbPolyline
90
32
70
1
43
0.0
10
-220.15760161513805
20
-14.000000000000036
10
-217.84820053837905
20
-9.9999999999999698
42
-0.26794919243111287
10
-216.11614973081004
20
-9.0000000000000568
10
-7.7213502691895997
20
-9
42
-0.2679491924311313
10
-5.9892994616207362
20
-10.000000000000021
10
-3.6798983848623124
20
-14.000000000000007
10
4.3918983848622517
20
-14
10
6.7012994616207466
20
-10.000000000000002
42
-0.26794919243112975
10
8.4333502691896793
20
-9
10
8.5000000000000142
20
-9
42
0.41421356237308593
10
9.0000000000000018
20
-8.4999999999999982
10
8.9999999999999858
20
65.649999999999991
42
0.4142135623733838
10
8.49999999999946
20
66.150000000000034
10
8.4333502691896101
20
66.149999999999991
42
-0.26794919243112048
10
6.7012994616207404
20
67.150000000000034
10
4.3918983848622517
20
71.150000000000034
10
-3.6798983848622058
20
71.150000000000034
10
-5.9892994616207087
20
67.150000000000034
42
-0.26794919243113069
10
-7.7213502691895997
20
66.150000000000034
10
-216.11614973081004
20
66.149999999999977
42
-0.26794919243114285
10
-217.84820053837888
20
67.150000000000048
10
-220.15760161513805
20
71.150000000000006
10
-228.22939838486201
20
71.150000000000006
10
-230.53879946162098
20
67.150000000000006
42
-0.26794919243100146
10
-232.270850269189
20
66.149999999999963
10
-232.33750000000001
20
66.149999999999977
42
0.41421356237298057
10
-232.83750000000001
20
65.649999999999963
10
-232.83750000000001
20
-8.500000000000032
42
0.41421356237312623
10
-232.33750000000001
20
-9.0000000000000178
10
-232.27085026918999
20
-9.0000000000000266
42
-0.26794919243116488
10
-230.53879946162115
20
-10.000000000000099
10
-228.22939838486201
20
-14.000000000000039
0
LWPOLYLINE
5
101
100
AcDbEntity
8
0
100
AcDbPolyline
90
4
70
1
43
0.0
10
-88.250000000000014
20
26.050000000000004
10
-88.250000000000014
20
12.050000000000002
10
-102.25000000000001
20
12.050000000000002
10
-102.25000000000001
20
26.050000000000004
0
LWPOLYLINE
5
102
100
AcDbEntity
8
0
100
AcDbPolyline
90
4
70
1
43
0.0
10
-230.83750000000003
20
45.100000000000009
10
-216.83750000000003
20
45.100000000000009
10
-216.83750000000003
20
31.100000000000001
10
-230.83750000000003
20
31.100000000000001
0
LWPOLYLINE
5
103
100
AcDbEntity
8
0
100
AcDbPolyline
90
4
70
1
43
0.0
10
-50.150000000000006
20
31.100000000000001
10
-64.150000000000006
20
31.100000000000001
10
-64.150000000000006
20
45.100000000000009
10
-50.150000000000006
20
45.100000000000009
0
LWPOLYLINE
5
104
100
AcDbEntity
8
0
100
AcDbPolyline
90
4
70
1
43
0.0
10
-57.006250000000009
20
64.150000000000006
10
-43.006250000000009
20
64.150000000000006
10
-43.006250000000009
20
50.150000000000006
10
-57.006250000000009
20
50.150000000000006
0
LWPOLYLINE
5
105
100
AcDbEntity
8
0
100
AcDbPolyline
90
4
70
1
43
0.0
10
-140.63749999999999
20
26.050000000000004
10
-140.63749999999999
20
12.050000000000002
10
-154.63750000000002
20
12.050000000000002
10
-154.63750000000002
20
26.050000000000004
0
LWPOLYLINE
5
106
100
AcDbEntity
8
0
100
AcDbPolyline
90
4
70
1
43
0.0
10
-230.83750000000003
20
-7
10
-230.83750000000003
20
7
10
-216.83750000000003
20
7
10
-216.83750000000003
20
-7
0
LWPOLYLINE
5
107
100
AcDbEntity
8
0
100
AcDbPolyline
90
4
70
1
43
0.0
10
-31.100000000000001
20
7
10
-31.100000000000001
20
-7
10
-45.100000000000009
20
-7
10
-45.100000000000009
20
7
0
LWPOLYLINE
5
108
100
AcDbEntity
8
0
100
AcDbPolyline
90
4
70
1
43
0.0
10
-211.78750000000002
20
45.100000000000009
10
-197.78750000000002
20
45.100000000000009
10
-197.78750000000002
20
31.100000000000001
10
-211.78750000000002
20
31.100000000000001
0
LWPOLYLINE
5
109
100
AcDbEntity
8
0
100
AcDbPolyline
90
4
70
1
43
0.0
10
-12.050000000000002
20
26.050000000000004
10
-12.050000000000002
20
12.050000000000002
10
-26.050000000000004
20
12.050000000000002
10
-26.050000000000004
20
26.050000000000004
0
LWPOLYLINE
5
110
100
AcDbEntity
8
0
100
AcDbPolyline
90
4
70
1
43
0.0
10
-26.050000000000004
20
-7
10
-26.050000000000004
20
7
10
-12.050000000000002
20
7
10
-12.050000000000002
20
-7
0
LWPOLYLINE
5
111
100
AcDbEntity
8
0
100
AcDbPolyline
90
4
70
1
43
0.0
10
-128.44374999999999
20
31.100000000000001
10
-128.44374999999999
20
45.100000000000009
10
-114.44375000000001
20
45.100000000000009
10
-114.44375000000001
20
31.100000000000001
0
LWPOLYLINE
5
112
100
AcDbEntity
8
0
100
AcDbPolyline
90
4
70
1
43
0.0
10
-140.63749999999999
20
7
10
-140.63749999999999
20
-7
10
-154.63750000000002
20
-7
10
-154.63750000000002
20
7
0
LWPOLYLINE
5
113
100
AcDbEntity
8
0
100
AcDbPolyline
90
4
70
1
43
0.0
10
-192.73750000000001
20
12.050000000000002
10
-192.73750000000001
20
26.050000000000004
10
-178.73749999999998
20
26.050000000000004
10
-178.73749999999998
20
12.050000000000002
0
LWPOLYLINE
5
114
100
AcDbEntity
8
0
100
AcDbPolyline
90
4
70
1
43
0.0
10
-173.68750000000003
20
45.100000000000009
10
-159.6875
20
45.100000000000009
10
-159.6875
20
31.100000000000001
10
-173.68750000000003
20
31.100000000000001
0
LWPOLYLINE
5
115
100
AcDbEntity
8
0
100
AcDbPolyline
90
4
70
1
43
0.0
10
-159.6875
20
-7
10
-173.68750000000003
20
-7
10
-173.68750000000003
20
7
10
-159.6875
20
7
0
LWPOLYLINE
5
116
100
AcDbEntity
8
0
100
AcDbPolyline
90
4
70
1
43
0.0
10
-50.150000000000006
20
26.050000000000004
10
-50.150000000000006
20
12.050000000000002
10
-64.150000000000006
20
12.050000000000002
10
-64.150000000000006
20
26.050000000000004
0
LWPOLYLINE
5
117
100
AcDbEntity
8
0
100
AcDbPolyline
90
4
70
1
43
0.0
10
-19.193750000000001
20
50.150000000000006
10
-33.193750000000009
20
50.150000000000006
10
-33.193750000000009
20
64.150000000000006
10
-19.193750000000001
20
64.150000000000006
0
LWPOLYLINE
5
118
100
AcDbEntity
8
0
100
AcDbPolyline
90
4
70
1
43
0.0
10
-192.73750000000001
20
7
10
-178.73749999999998
20
7
10
-178.73749999999998
20
-7
10
-192.73750000000001
20
-7
0
LWPOLYLINE
5
119
100
AcDbEntity
8
0
100
AcDbPolyline
90
4
70
1
43
0.0
10
-69.200000000000003
20
7
10
-69.200000000000003
20
-7
10
-83.199999999999989
20
-7
10
-83.199999999999989
20
7
0
LWPOLYLINE
5
120
100
AcDbEntity
8
0
100
AcDbPolyline
90
6
70
1
43
0.0
10
-133.49375000000003
20
64.150000000000006
10
-133.49375000000003
20
50.150000000000006
10
-148.93174999999999
20
50.150000000000006
10
-148.93174999999999
20
49.149999999999999
10
-155.93174999999999
20
49.149999999999999
10
-155.93174999999999
20
64.150000000000006
0
LWPOLYLINE
5
121
100
AcDbEntity
8
0
100
AcDbPolyline
90
4
70
1
43
0.0
10
-88.250000000000014
20
-7
10
-102.25000000000001
20
-7
10
-102.25000000000001
20
7
10
-88.250000000000014
20
7
0
LWPOLYLINE
5
122
100
AcDbEntity
8
0
100
AcDbPolyline
90
4
70
1
43
0.0
10
-211.78750000000002
20
7
10
-197.78750000000002
20
7
10
-197.78750000000002
20
-7
10
-211.78750000000002
20
-7
0
LWPOLYLINE
5
123
100
AcDbEntity
8
0
100
AcDbPolyline
90
4
70
1
43
0.0
10
-173.68750000000003
20
26.050000000000004
10
-159.6875
20
26.050000000000004
10
-159.6875
20
12.050000000000002
10
-173.68750000000003
20
12.050000000000002
0
LWPOLYLINE
5
124
100
AcDbEntity
8
0
100
AcDbPolyline
90
4
70
1
43
0.0
10
-50.150000000000006
20
-7
10
-64.150000000000006
20
-7
10
-64.150000000000006
20
7
10
-50.150000000000006
20
7
0
LWPOLYLINE
5
125
100
AcDbEntity
8
0
100
AcDbPolyline
90
4
70
1
43
0.0
10
-216.83750000000003
20
26.050000000000004
10
-216.83750000000003
20
12.050000000000002
10
-230.83750000000003
20
12.050000000000002
10
-230.83750000000003
20
26.050000000000004
0
LWPOLYLINE
5
126
100
AcDbEntity
8
0
100
AcDbPolyline
90
4
70
1
43
0.0
10
-128.44374999999999
20
26.050000000000004
10
-114.44375000000001
20
26.050000000000004
10
-114.44375000000001
20
12.050000000000002
10
-128.44374999999999
20
12.050000000000002
0
LWPOLYLINE
5
127
100
AcDbEntity
8
0
100
AcDbPolyline
90
4
70
1
43
0.0
10
-154.63750000000002
20
45.100000000000009
10
-140.63749999999999
20
45.100000000000009
10
-140.63749999999999
20
31.100000000000001
10
-154.63750000000002
20
31.100000000000001
0
LWPOLYLINE
5
128
100
AcDbEntity
8
0
100
AcDbPolyline
90
4
70
1
43
0.0
10
-69.200000000000003
20
12.050000000000002
10
-83.199999999999989
20
12.050000000000002
10
-83.199999999999989
20
26.050000000000004
10
-69.200000000000003
20
26.050000000000004
0
LWPOLYLINE
5
129
100
AcDbEntity
8
0
100
AcDbPolyline
90
4
70
1
43
0.0
10
-178.73749999999998
20
31.100000000000001
10
-192.73750000000001
20
31.100000000000001
10
-192.73750000000001
20
45.100000000000009
10
-178.73749999999998
20
45.100000000000009
0
LWPOLYLINE
5
130
100
AcDbEntity
8
0
100
AcDbPolyline
90
4
70
1
43
0.0
10
7
20
-7
10
-7
20
-7
10
-7
20
7
10
7
20
7
0
LWPOLYLINE
5
131
100
AcDbEntity
8
0
100
AcDbPolyline
90
4
70
1
43
0.0
10
-45.100000000000009
20
26.050000000000004
10
-31.100000000000001
20
26.050000000000004
10
-31.100000000000001
20
12.050000000000002
10
-45.100000000000009
20
12.050000000000002
0
LWPOLYLINE
5
132
100
AcDbEntity
8
0
100
AcDbPolyline
90
22
70
1
43
0.0
10
-74.943750000000009
20
50.150000000000006
10
-77.462500000000006
20
50.150000000000006
10
-77.462500000000006
20
49.149999999999999
10
-84.462499999999991
20
49.149999999999999
10
-84.462499999999991
20
50.150000000000006
10
-84.5745
20
50.150000000000006
10
-84.5745
20
49.149999999999999
10
-91.5745
20
49.149999999999999
10
-91.5745
20
50.150000000000006
10
-106.03749999999999
20
50.150000000000006
10
-106.03749999999999
20
49.149999999999999
10
-115.45050000000001
20
49.149999999999999
10
-115.45050000000001
20
50.150000000000006
10
-125.05575
20
50.150000000000006
10
-125.05575
20
49.149999999999999
10
-132.08750000000003
20
49.149999999999999
10
-132.08750000000003
20
64.150000000000006
10
-64.437500000000014
20
64.150000000000006
10
-64.437500000000014
20
50.150000000000006
10
-67.937500000000014
20
50.150000000000006
10
-67.937500000000014
20
49.149999999999999
10
-74.943750000000009
20
49.149999999999999
0
LWPOLYLINE
5
133
100
AcDbEntity
8
0
100
AcDbPolyline
90
6
70
1
43
0.0
10
-163.1875
20
64.150000000000006
10
-163.1875
20
49.149999999999999
10
-179.71250000000001
20
49.149999999999999
10
-179.71250000000001
20
50.150000000000006
10
-230.83750000000003
20
50.150000000000006
10
-230.83750000000003
20
64.150000000000006
0
LWPOLYLINE
5
134
100
AcDbEntity
8
0
100
AcDbPolyline
90
4
70
1
43
0.0
10
-31.100000000000001
20
45.100000000000009
10
-31.100000000000001
20
31.100000000000001
10
-45.100000000000009
20
31.100000000000001
10
-45.100000000000009
20
45.100000000000009
0
LWPOLYLINE
5
135
100
AcDbEntity
8
0
100
AcDbPolyline
90
4
70
1
43
0.0
10
-9.3812500000000014
20
50.150000000000006
10
-9.3812500000000014
20
64.150000000000006
10
4.6187499999999986
20
64.150000000000006
10
4.6187499999999986
20
50.150000000000006
0
LWPOLYLINE
5
136
100
AcDbEntity
8
0
100
AcDbPolyline
90
4
70
1
43
0.0
10
-69.200000000000003
20
31.100000000000001
10
-83.199999999999989
20
31.100000000000001
10
-83.199999999999989
20
45.100000000000009
10
-69.200000000000003
20
45.100000000000009
0
LWPOLYLINE
5
137
100
AcDbEntity
8
0
100
AcDbPolyline
90
4
70
1
43
0.0
10
-114.44375000000001
20
-7
10
-128.44374999999999
20
-7
10
-128.44374999999999
20
7
10
-114.44375000000001
20
7
0
LWPOLYLINE
5
138
100
AcDbEntity
8
0
100
AcDbPolyline
90
4
70
1
43
0.0
10
7
20
31.100000000000001
10
-7
20
31.100000000000001
10
-7
20
45.100000000000009
10
7
20
45.100000000000009
0
LWPOLYLINE
5
139
100
AcDbEntity
8
0
100
AcDbPolyline
90
4
70
1
43
0.0
10
-7
20
26.050000000000004
10
7
20
26.050000000000004
10
7
20
12.050000000000002
10
-7
20
12.050000000000002
0
LWPOLYLINE
5
140
100
AcDbEntity
8
0
100
AcDbPolyline
90
4
70
1
43
0.0
10
-88.250000000000014
20
45.100000000000009
10
-88.250000000000014
20
31.100000000000001
10
-102.25000000000001
20
31.100000000000001
10
-102.25000000000001
20
45.100000000000009
0
LWPOLYLINE
5
141
100
AcDbEntity
8
0
100
AcDbPolyline
90
4
70
1
43
0.0
10
-26.050000000000004
20
31.100000000000001
10
-26.050000000000004
20
45.100000000000009
10
-12.050000000000002
20
45.100000000000009
10
-12.050000000000002
20
31.100000000000001
0
LWPOLYLINE
5
142
100
AcDbEntity
8
0
100
AcDbPolyline
90
4
70
1
43
0.0
10
-211.78750000000002
20
26.050000000000004
10
-197.78750000000002
20
26.050000000000004
10
-197.78750000000002
20
12.050000000000002
10
-211.78750000000002
20
12.050000000000002
0
ENDSEC
0
SECTION
2
OBJECTS
0
DICTIONARY
5
C
100
AcDbDictionary
3
ACAD_GROUP
350
D
3
ACAD_MLINESTYLE
350
17
0
DICTIONARY
5
D
100
AcDbDictionary
0
DICTIONARY
5
1A
330
C
100
AcDbDictionary
0
DICTIONARY
5
17
100
AcDbDictionary
0
ENDSEC
0
EOF
