  0
SECTION
  2
HEADER
  9
$ACADVER
  1
AC1027
  9
$ACADMAINTVER
 70
   125
  9
$DWGCODEPAGE
  3
ANSI_1252
  9
$REQUIREDVERSIONS
160
                 0
  9
$INSBASE
 10
0.0
 20
0.0
 30
0.0
  9
$EXTMIN
 10
1.000000000000000E+20
 20
1.000000000000000E+20
 30
1.000000000000000E+20
  9
$EXTMAX
 10
-1.000000000000000E+20
 20
-1.000000000000000E+20
 30
-1.000000000000000E+20
  9
$LIMMIN
 10
0.0
 20
0.0
  9
$LIMMAX
 10
12.0
 20
9.0
  9
$ORTHOMODE
 70
     0
  9
$REGENMODE
 70
     1
  9
$FILLMODE
 70
     1
  9
$QTEXTMODE
 70
     0
  9
$MIRRTEXT
 70
     0
  9
$LTSCALE
 40
1.0
  9
$ATTMODE
 70
     1
  9
$TEXTSIZE
 40
0.2
  9
$TRACEWID
 40
0.05
  9
$TEXTSTYLE
  7
Standard
  9
$CLAYER
  8
0
  9
$CELTYPE
  6
ByLayer
  9
$CECOLOR
 62
   256
  9
$CELTSCALE
 40
1.0
  9
$DISPSILH
 70
     0
  9
$DIMSCALE
 40
1.0
  9
$DIMASZ
 40
0.18
  9
$DIMEXO
 40
0.0625
  9
$DIMDLI
 40
0.38
  9
$DIMRND
 40
0.0
  9
$DIMDLE
 40
0.0
  9
$DIMEXE
 40
0.18
  9
$DIMTP
 40
0.0
  9
$DIMTM
 40
0.0
  9
$DIMTXT
 40
0.18
  9
$DIMCEN
 40
0.09
  9
$DIMTSZ
 40
0.0
  9
$DIMTOL
 70
     0
  9
$DIMLIM
 70
     0
  9
$DIMTIH
 70
     1
  9
$DIMTOH
 70
     1
  9
$DIMSE1
 70
     0
  9
$DIMSE2
 70
     0
  9
$DIMTAD
 70
     0
  9
$DIMZIN
 70
     0
  9
$DIMBLK
  1

  9
$DIMASO
 70
     1
  9
$DIMSHO
 70
     1
  9
$DIMPOST
  1

  9
$DIMAPOST
  1

  9
$DIMALT
 70
     0
  9
$DIMALTD
 70
     2
  9
$DIMALTF
 40
25.4
  9
$DIMLFAC
 40
1.0
  9
$DIMTOFL
 70
     0
  9
$DIMTVP
 40
0.0
  9
$DIMTIX
 70
     0
  9
$DIMSOXD
 70
     0
  9
$DIMSAH
 70
     0
  9
$DIMBLK1
  1

  9
$DIMBLK2
  1

  9
$DIMSTYLE
  2
Standard
  9
$DIMCLRD
 70
     0
  9
$DIMCLRE
 70
     0
  9
$DIMCLRT
 70
     0
  9
$DIMTFAC
 40
1.0
  9
$DIMGAP
 40
0.09
  9
$DIMJUST
 70
     0
  9
$DIMSD1
 70
     0
  9
$DIMSD2
 70
     0
  9
$DIMTOLJ
 70
     1
  9
$DIMTZIN
 70
     0
  9
$DIMALTZ
 70
     0
  9
$DIMALTTZ
 70
     0
  9
$DIMUPT
 70
     0
  9
$DIMDEC
 70
     4
  9
$DIMTDEC
 70
     4
  9
$DIMALTU
 70
     2
  9
$DIMALTTD
 70
     2
  9
$DIMTXSTY
  7
Standard
  9
$DIMAUNIT
 70
     0
  9
$DIMADEC
 70
     0
  9
$DIMALTRND
 40
0.0
  9
$DIMAZIN
 70
     0
  9
$DIMDSEP
 70
    46
  9
$DIMATFIT
 70
     3
  9
$DIMFRAC
 70
     0
  9
$DIMLDRBLK
  1

  9
$DIMLUNIT
 70
     2
  9
$DIMLWD
 70
    -2
  9
$DIMLWE
 70
    -2
  9
$DIMTMOVE
 70
     0
  9
$DIMFXL
 40
1.0
  9
$DIMFXLON
 70
     0
  9
$DIMJOGANG
 40
0.7853981633974483
  9
$DIMTFILL
 70
     0
  9
$DIMTFILLCLR
 70
     0
  9
$DIMARCSYM
 70
     0
  9
$DIMLTYPE
  6

  9
$DIMLTEX1
  6

  9
$DIMLTEX2
  6

  9
$DIMTXTDIRECTION
 70
     0
  9
$LUNITS
 70
     2
  9
$LUPREC
 70
     4
  9
$SKETCHINC
 40
0.1
  9
$FILLETRAD
 40
0.0
  9
$AUNITS
 70
     0
  9
$AUPREC
 70
     0
  9
$MENU
  1
.
  9
$ELEVATION
 40
0.0
  9
$PELEVATION
 40
0.0
  9
$THICKNESS
 40
0.0
  9
$LIMCHECK
 70
     0
  9
$CHAMFERA
 40
0.0
  9
$CHAMFERB
 40
0.0
  9
$CHAMFERC
 40
0.0
  9
$CHAMFERD
 40
0.0
  9
$SKPOLY
 70
     0
  9
$TDCREATE
 40
2459419.072824074
  9
$TDUCREATE
 40
2459419.072824074
  9
$TDUPDATE
 40
2459419.072824074
  9
$TDUUPDATE
 40
2459419.072824074
  9
$TDINDWG
 40
0.0000115741
  9
$TDUSRTIMER
 40
0.0000115741
  9
$USRTIMER
 70
     1
  9
$ANGBASE
 50
0.0
  9
$ANGDIR
 70
     0
  9
$PDMODE
 70
     0
  9
$PDSIZE
 40
0.0
  9
$PLINEWID
 40
0.0
  9
$SPLFRAME
 70
     0
  9
$SPLINETYPE
 70
     6
  9
$SPLINESEGS
 70
     8
  9
$HANDSEED
  5
2E3
  9
$SURFTAB1
 70
     6
  9
$SURFTAB2
 70
     6
  9
$SURFTYPE
 70
     6
  9
$SURFU
 70
     6
  9
$SURFV
 70
     6
  9
$UCSBASE
  2

  9
$UCSNAME
  2

  9
$UCSORG
 10
0.0
 20
0.0
 30
0.0
  9
$UCSXDIR
 10
1.0
 20
0.0
 30
0.0
  9
$UCSYDIR
 10
0.0
 20
1.0
 30
0.0
  9
$UCSORTHOREF
  2

  9
$UCSORTHOVIEW
 70
     0
  9
$UCSORGTOP
 10
0.0
 20
0.0
 30
0.0
  9
$UCSORGBOTTOM
 10
0.0
 20
0.0
 30
0.0
  9
$UCSORGLEFT
 10
0.0
 20
0.0
 30
0.0
  9
$UCSORGRIGHT
 10
0.0
 20
0.0
 30
0.0
  9
$UCSORGFRONT
 10
0.0
 20
0.0
 30
0.0
  9
$UCSORGBACK
 10
0.0
 20
0.0
 30
0.0
  9
$PUCSBASE
  2

  9
$PUCSNAME
  2

  9
$PUCSORG
 10
0.0
 20
0.0
 30
0.0
  9
$PUCSXDIR
 10
1.0
 20
0.0
 30
0.0
  9
$PUCSYDIR
 10
0.0
 20
1.0
 30
0.0
  9
$PUCSORTHOREF
  2

  9
$PUCSORTHOVIEW
 70
     0
  9
$PUCSORGTOP
 10
0.0
 20
0.0
 30
0.0
  9
$PUCSORGBOTTOM
 10
0.0
 20
0.0
 30
0.0
  9
$PUCSORGLEFT
 10
0.0
 20
0.0
 30
0.0
  9
$PUCSORGRIGHT
 10
0.0
 20
0.0
 30
0.0
  9
$PUCSORGFRONT
 10
0.0
 20
0.0
 30
0.0
  9
$PUCSORGBACK
 10
0.0
 20
0.0
 30
0.0
  9
$USERI1
 70
     0
  9
$USERI2
 70
     0
  9
$USERI3
 70
     0
  9
$USERI4
 70
     0
  9
$USERI5
 70
     0
  9
$USERR1
 40
0.0
  9
$USERR2
 40
0.0
  9
$USERR3
 40
0.0
  9
$USERR4
 40
0.0
  9
$USERR5
 40
0.0
  9
$WORLDVIEW
 70
     1
  9
$SHADEDGE
 70
     3
  9
$SHADEDIF
 70
    70
  9
$TILEMODE
 70
     1
  9
$MAXACTVP
 70
    64
  9
$PINSBASE
 10
0.0
 20
0.0
 30
0.0
  9
$PLIMCHECK
 70
     0
  9
$PEXTMIN
 10
1.000000000000000E+20
 20
1.000000000000000E+20
 30
1.000000000000000E+20
  9
$PEXTMAX
 10
-1.000000000000000E+20
 20
-1.000000000000000E+20
 30
-1.000000000000000E+20
  9
$PLIMMIN
 10
0.0
 20
0.0
  9
$PLIMMAX
 10
12.0
 20
9.0
  9
$UNITMODE
 70
     0
  9
$VISRETAIN
 70
     1
  9
$PLINEGEN
 70
     0
  9
$PSLTSCALE
 70
     1
  9
$TREEDEPTH
 70
  3020
  9
$CMLSTYLE
  2
Standard
  9
$CMLJUST
 70
     0
  9
$CMLSCALE
 40
1.0
  9
$PROXYGRAPHICS
 70
     1
  9
$MEASUREMENT
 70
     0
  9
$CELWEIGHT
370
    -1
  9
$ENDCAPS
280
     0
  9
$JOINSTYLE
280
     0
  9
$LWDISPLAY
290
     0
  9
$INSUNITS
 70
     5
  9
$HYPERLINKBASE
  1

  9
$STYLESHEET
  1

  9
$XEDIT
290
     1
  9
$CEPSNTYPE
380
     0
  9
$PSTYLEMODE
290
     1
  9
$FINGERPRINTGUID
  2
{7225BDD4-F4B7-B44F-A354-AA24DC13ECE8}
  9
$VERSIONGUID
  2
{ABFDE697-7006-B44C-9092-EBC1CAA018DD}
  9
$EXTNAMES
290
     1
  9
$PSVPSCALE
 40
0.0
  9
$OLESTARTUP
290
     0
  9
$SORTENTS
280
   127
  9
$INDEXCTL
280
     0
  9
$HIDETEXT
280
     1
  9
$XCLIPFRAME
280
     2
  9
$HALOGAP
280
     0
  9
$OBSCOLOR
 70
   257
  9
$OBSLTYPE
280
     0
  9
$INTERSECTIONDISPLAY
280
     0
  9
$INTERSECTIONCOLOR
 70
   257
  9
$DIMASSOC
280
     2
  9
$PROJECTNAME
  1

  9
$CAMERADISPLAY
290
     0
  9
$LENSLENGTH
 40
50.0
  9
$CAMERAHEIGHT
 40
0.0
  9
$STEPSPERSEC
 40
2.0
  9
$STEPSIZE
 40
6.0
  9
$3DDWFPREC
 40
2.0
  9
$PSOLWIDTH
 40
0.25
  9
$PSOLHEIGHT
 40
4.0
  9
$LOFTANG1
 40
1.570796326794896
  9
$LOFTANG2
 40
1.570796326794896
  9
$LOFTMAG1
 40
0.0
  9
$LOFTMAG2
 40
0.0
  9
$LOFTPARAM
 70
     7
  9
$LOFTNORMALS
280
     1
  9
$LATITUDE
 40
37.795
  9
$LONGITUDE
 40
-122.394
  9
$NORTHDIRECTION
 40
0.0
  9
$TIMEZONE
 70
 -8000
  9
$LIGHTGLYPHDISPLAY
280
     1
  9
$TILEMODELIGHTSYNCH
280
     1
  9
$CMATERIAL
347
11
  9
$SOLIDHIST
280
     0
  9
$SHOWHIST
280
     1
  9
$DWFFRAME
280
     2
  9
$DGNFRAME
280
     0
  9
$REALWORLDSCALE
290
     1
  9
$INTERFERECOLOR
 62
     1
  9
$INTERFEREOBJVS
345
33
  9
$INTERFEREVPVS
346
30
  9
$CSHADOW
280
     0
  9
$SHADOWPLANELOCATION
 40
0.0
  0
ENDSEC
  0
SECTION
  2
CLASSES
  0
CLASS
  1
ACDBDICTIONARYWDFLT
  2
AcDbDictionaryWithDefault
  3
ObjectDBX Classes
 90
        0
 91
        1
280
     0
281
     0
  0
CLASS
  1
MATERIAL
  2
AcDbMaterial
  3
ObjectDBX Classes
 90
     1153
 91
        3
280
     0
281
     0
  0
CLASS
  1
VISUALSTYLE
  2
AcDbVisualStyle
  3
ObjectDBX Classes
 90
     4095
 91
       24
280
     0
281
     0
  0
CLASS
  1
SCALE
  2
AcDbScale
  3
ObjectDBX Classes
 90
     1153
 91
       17
280
     0
281
     0
  0
CLASS
  1
TABLESTYLE
  2
AcDbTableStyle
  3
ObjectDBX Classes
 90
     4095
 91
        1
280
     0
281
     0
  0
CLASS
  1
MLEADERSTYLE
  2
AcDbMLeaderStyle
  3
ACDB_MLEADERSTYLE_CLASS
 90
     4095
 91
        1
280
     0
281
     0
  0
CLASS
  1
ACDBSECTIONVIEWSTYLE
  2
AcDbSectionViewStyle
  3
ObjectDBX Classes
 90
     1025
 91
        1
280
     0
281
     0
  0
CLASS
  1
ACDBDETAILVIEWSTYLE
  2
AcDbDetailViewStyle
  3
ObjectDBX Classes
 90
     1025
 91
        1
280
     0
281
     0
  0
CLASS
  1
DICTIONARYVAR
  2
AcDbDictionaryVar
  3
ObjectDBX Classes
 90
        0
 91
        5
280
     0
281
     0
  0
CLASS
  1
CELLSTYLEMAP
  2
AcDbCellStyleMap
  3
ObjectDBX Classes
 90
     1152
 91
        1
280
     0
281
     0
  0
ENDSEC
  0
SECTION
  2
TABLES
  0
TABLE
  2
VPORT
  5
8
330
0
100
AcDbSymbolTable
 70
     1
1001
ACAD
1000
DbSaveVer
1071
      247
  0
VPORT
  5
57
330
8
100
AcDbSymbolTableRecord
100
AcDbViewportTableRecord
  2
*Active
 70
     0
 10
0.0
 20
0.0
 11
1.0
 21
1.0
 12
500.0
 22
500.0
 13
0.0
 23
0.0
 14
1.0
 24
1.0
 15
0.0
 25
0.0
 16
0.0
 26
0.0
 36
1.0
 17
0.0
 27
0.0
 37
0.0
 40
12.0
 41
1.0
 42
50.0
 43
0.0
 44
0.0
 50
0.0
 51
0.0
 71
     0
 72
   100
 73
     1
 74
     1
 75
     0
 76
     0
 77
     0
 78
     0
281
     0
 65
     1
110
0.0
120
0.0
130
0.0
111
1.0
121
0.0
131
0.0
112
0.0
122
1.0
132
0.0
 79
     0
146
0.0
 60
     3
 61
     5
292
     1
282
     1
141
0.0
142
0.0
 63
   250
421
  3355443
  0
ENDTAB
  0
TABLE
  2
LTYPE
  5
5
330
0
100
AcDbSymbolTable
 70
     1
  0
LTYPE
  5
5B
330
5
100
AcDbSymbolTableRecord
100
AcDbLinetypeTableRecord
  2
ByBlock
 70
     0
  3

 72
    65
 73
     0
 40
0.0
  0
LTYPE
  5
5C
330
5
100
AcDbSymbolTableRecord
100
AcDbLinetypeTableRecord
  2
ByLayer
 70
     0
  3

 72
    65
 73
     0
 40
0.0
  0
LTYPE
  5
5D
330
5
100
AcDbSymbolTableRecord
100
AcDbLinetypeTableRecord
  2
Continuous
 70
     0
  3
Solid line
 72
    65
 73
     0
 40
0.0
  0
ENDTAB
  0
TABLE
  2
LAYER
  5
2
330
0
100
AcDbSymbolTable
 70
     2
  0
LAYER
  5
54
330
2
100
AcDbSymbolTableRecord
100
AcDbLayerTableRecord
  2
0
 70
     0
 62
     7
  6
Continuous
370
    -3
390
F
347
21
348
0
  0
LAYER
  5
7A
330
2
100
AcDbSymbolTableRecord
100
AcDbLayerTableRecord
  2
plate standard v5_0
 70
     0
 62
     7
  6
Continuous
370
    -3
390
F
347
21
348
0
1001
NFusion_SketchTransform
1000
1.000000;0.000000;0.000000;0.000000;0.000000;1.000000;0.000000;0.000000;0.000000;0.000000;1.000000;0.000000;0.000000;0.000000;0.000000;1.000000
  0
ENDTAB
  0
TABLE
  2
STYLE
  5
3
330
0
100
AcDbSymbolTable
 70
     2
  0
STYLE
  5
55
330
3
100
AcDbSymbolTableRecord
100
AcDbTextStyleTableRecord
  2
Standard
 70
     0
 40
0.0
 41
1.0
 50
0.0
 71
     0
 42
0.2
  3
txt
  4

  0
STYLE
  5
5A
330
3
100
AcDbSymbolTableRecord
100
AcDbTextStyleTableRecord
  2
Annotative
 70
     0
 40
0.0
 41
1.0
 50
0.0
 71
     0
 42
0.2
  3
txt
  4

1001
AcadAnnotative
1000
AnnotativeData
1002
{
1070
     1
1070
     1
1002
}
  0
ENDTAB
  0
TABLE
  2
VIEW
  5
6
330
0
100
AcDbSymbolTable
 70
     0
  0
ENDTAB
  0
TABLE
  2
UCS
  5
7
330
0
100
AcDbSymbolTable
 70
     0
  0
ENDTAB
  0
TABLE
  2
APPID
  5
9
330
0
100
AcDbSymbolTable
 70
     4
  0
APPID
  5
56
330
9
100
AcDbSymbolTableRecord
100
AcDbRegAppTableRecord
  2
ACAD
 70
     0
  0
APPID
  5
5E
330
9
100
AcDbSymbolTableRecord
100
AcDbRegAppTableRecord
  2
AcadAnnotative
 70
     0
  0
APPID
  5
78
330
9
100
AcDbSymbolTableRecord
100
AcDbRegAppTableRecord
  2
EDIT_IN_FUSION_ACAD_ADDIN
 70
     0
  0
APPID
  5
79
330
9
100
AcDbSymbolTableRecord
100
AcDbRegAppTableRecord
  2
NFusion_SketchTransform
 70
     0
  0
ENDTAB
  0
TABLE
  2
DIMSTYLE
  5
A
330
0
100
AcDbSymbolTable
 70
     2
100
AcDbDimStyleTable
 71
     0
  0
DIMSTYLE
105
58
330
A
100
AcDbSymbolTableRecord
100
AcDbDimStyleTableRecord
  2
Standard
 70
     0
340
55
  0
DIMSTYLE
105
59
330
A
100
AcDbSymbolTableRecord
100
AcDbDimStyleTableRecord
  2
Annotative
 70
     0
340
55
1001
AcadAnnotative
1000
AnnotativeData
1002
{
1070
     1
1070
     1
1002
}
  0
ENDTAB
  0
TABLE
  2
BLOCK_RECORD
  5
1
330
0
100
AcDbSymbolTable
 70
     1
  0
BLOCK_RECORD
  5
70
330
1
100
AcDbSymbolTableRecord
100
AcDbBlockTableRecord
  2
*Model_Space
340
73
 70
     0
280
     1
281
     0
  0
BLOCK_RECORD
  5
6C
330
1
100
AcDbSymbolTableRecord
100
AcDbBlockTableRecord
  2
*Paper_Space
340
6F
 70
     0
280
     1
281
     0
  0
BLOCK_RECORD
  5
74
330
1
100
AcDbSymbolTableRecord
100
AcDbBlockTableRecord
  2
*Paper_Space0
340
77
 70
     0
280
     1
281
     0
  0
ENDTAB
  0
ENDSEC
  0
SECTION
  2
BLOCKS
  0
BLOCK
  5
71
330
70
100
AcDbEntity
  8
0
100
AcDbBlockBegin
  2
*Model_Space
 70
     0
 10
0.0
 20
0.0
 30
0.0
  3
*Model_Space
  1

  0
ENDBLK
  5
72
330
70
100
AcDbEntity
  8
0
100
AcDbBlockEnd
  0
BLOCK
  5
6D
330
6C
100
AcDbEntity
 67
     1
  8
0
100
AcDbBlockBegin
  2
*Paper_Space
 70
     0
 10
0.0
 20
0.0
 30
0.0
  3
*Paper_Space
  1

  0
ENDBLK
  5
6E
330
6C
100
AcDbEntity
 67
     1
  8
0
100
AcDbBlockEnd
  0
BLOCK
  5
75
330
74
100
AcDbEntity
 67
     1
  8
0
100
AcDbBlockBegin
  2
*Paper_Space0
 70
     0
 10
0.0
 20
0.0
 30
0.0
  3
*Paper_Space0
  1

  0
ENDBLK
  5
76
330
74
100
AcDbEntity
 67
     1
  8
0
100
AcDbBlockEnd
  0
ENDSEC
  0
SECTION
  2
ENTITIES
  0
POINT
  5
7B
330
70
100
AcDbEntity
  8
plate standard v5_0
100
AcDbPoint
 10
-4.361250000000001
 20
3.5075
 30
0.0
  0
POINT
  5
7C
330
70
100
AcDbEntity
  8
plate standard v5_0
100
AcDbPoint
 10
-4.361250000000001
 20
3.5075
 30
0.0
  0
POINT
  5
7D
330
70
100
AcDbEntity
  8
plate standard v5_0
100
AcDbPoint
 10
-4.211250000000001
 20
3.5075
 30
0.0
  0
POINT
  5
7E
330
70
100
AcDbEntity
  8
plate standard v5_0
100
AcDbPoint
 10
-2.440000037252903
 20
5.770000086426737
 30
0.0
  0
POINT
  5
7F
330
70
100
AcDbEntity
  8
plate standard v5_0
100
AcDbPoint
 10
-2.440000037252902
 20
1.970000029802324
 30
0.0
  0
POINT
  5
80
330
70
100
AcDbEntity
  8
plate standard v5_0
100
AcDbPoint
 10
-2.440000037252902
 20
1.770000029802324
 30
0.0
  0
POINT
  5
81
330
70
100
AcDbEntity
  8
plate standard v5_0
100
AcDbPoint
 10
-2.440000037252903
 20
5.570000086426737
 30
0.0
  0
LINE
  5
82
330
70
100
AcDbEntity
  8
plate standard v5_0
100
AcDbLine
 10
-5.9675
 20
0.3025
 30
0.0
 11
-5.9675
 21
1.6025
 31
0.0
  0
LINE
  5
83
330
70
100
AcDbEntity
  8
plate standard v5_0
100
AcDbLine
 10
-11.1275
 20
0.2525000000000002
 30
0.0
 11
-9.8275
 21
0.2525000000000002
 31
0.0
  0
LINE
  5
84
330
70
100
AcDbEntity
  8
plate standard v5_0
100
AcDbLine
 10
-6.0175
 20
1.6525
 30
0.0
 11
-7.317499999999999
 21
1.6525
 31
0.0
  0
ARC
  5
85
330
70
100
AcDbEntity
  8
plate standard v5_0
100
AcDbCircle
 10
-5.412499999999999
 20
1.602499999999999
 30
0.0
 40
0.0500000000000009
100
AcDbArc
 50
90.00000000000204
 51
179.9999999999992
  0
LINE
  5
86
330
70
100
AcDbEntity
  8
plate standard v5_0
100
AcDbLine
 10
-2.2075
 20
1.6525
 30
0.0
 11
-3.5075
 21
1.6525
 31
0.0
  0
LINE
  5
87
330
70
100
AcDbEntity
  8
plate standard v5_0
100
AcDbLine
 10
-20.6525
 20
0.2525000000000003
 30
0.0
 11
-19.3525
 21
0.2525000000000003
 31
0.0
  0
ARC
  5
88
330
70
100
AcDbEntity
  8
plate standard v5_0
100
AcDbCircle
 10
-3.5075
 20
0.3025000000000003
 30
0.0
 40
0.0500000000000003
100
AcDbArc
 50
180.0000000000004
 51
270.0000000000005
  0
ARC
  5
89
330
70
100
AcDbEntity
  8
plate standard v5_0
100
AcDbCircle
 10
0.4525000000000006
 20
7.317500000000006
 30
0.0
 40
0.1999999999999993
210
0.0
220
0.0
230
-1.0
100
AcDbArc
 50
90.0
 51
180.0
  0
LINE
  5
8A
330
70
100
AcDbEntity
  8
plate standard v5_0
100
AcDbLine
 10
-7.317499999999999
 20
0.2524999999999999
 30
0.0
 11
-6.0175
 21
0.2525000000000001
 31
0.0
  0
ARC
  5
8B
330
70
100
AcDbEntity
  8
plate standard v5_0
100
AcDbCircle
 10
-7.317499999999999
 20
0.3024999999999997
 30
0.0
 40
0.0499999999999998
100
AcDbArc
 50
179.9999999999996
 51
270.0
  0
ARC
  5
8C
330
70
100
AcDbEntity
  8
plate standard v5_0
100
AcDbCircle
 10
-6.0175
 20
1.6025
 30
0.0
 40
0.0500000000000007
100
AcDbArc
 50
0.0
 51
89.99999999999898
  0
ARC
  5
8D
330
70
100
AcDbEntity
  8
plate standard v5_0
100
AcDbCircle
 10
-4.112500000000001
 20
0.3025000000000016
 30
0.0
 40
0.0500000000000016
100
AcDbArc
 50
270.0000000000021
 51
359.9999999999982
  0
ARC
  5
8E
330
70
100
AcDbEntity
  8
plate standard v5_0
100
AcDbCircle
 10
-2.2075
 20
1.6025
 30
0.0
 40
0.0499999999999998
100
AcDbArc
 50
359.9999999999995
 51
89.99999999999948
  0
LINE
  5
8F
330
70
100
AcDbEntity
  8
plate standard v5_0
100
AcDbLine
 10
-3.5575
 20
1.6025
 30
0.0
 11
-3.5575
 21
0.3025
 31
0.0
  0
LINE
  5
90
330
70
100
AcDbEntity
  8
plate standard v5_0
100
AcDbLine
 10
-14.9375
 20
0.2525000000000002
 30
0.0
 11
-13.6375
 21
0.2525000000000002
 31
0.0
  0
ARC
  5
91
330
70
100
AcDbEntity
  8
plate standard v5_0
100
AcDbCircle
 10
-22.68625000000001
 20
5.4125
 30
0.0
 40
0.0500000000000043
100
AcDbArc
 50
0.0000000000010178
 51
89.99999999999186
  0
LINE
  5
92
330
70
100
AcDbEntity
  8
plate standard v5_0
100
AcDbLine
 10
-7.922499999999998
 20
1.6525
 30
0.0
 11
-9.2225
 21
1.6525
 31
0.0
  0
LINE
  5
93
330
70
100
AcDbEntity
  8
plate standard v5_0
100
AcDbLine
 10
-2.1575
 20
0.3025
 30
0.0
 11
-2.1575
 21
1.6025
 31
0.0
  0
ARC
  5
94
330
70
100
AcDbEntity
  8
plate standard v5_0
100
AcDbCircle
 10
-13.6375
 20
1.602499999999998
 30
0.0
 40
0.0500000000000025
100
AcDbArc
 50
0.0000000000020356
 51
89.99999999999797
  0
LINE
  5
95
330
70
100
AcDbEntity
  8
plate standard v5_0
100
AcDbLine
 10
-11.7325
 20
1.6525
 30
0.0
 11
-13.0325
 21
1.6525
 31
0.0
  0
ARC
  5
96
330
70
100
AcDbEntity
  8
plate standard v5_0
100
AcDbCircle
 10
-22.68625000000001
 20
4.112499999999998
 30
0.0
 40
0.0499999999999981
100
AcDbArc
 50
270.0000000000041
 51
0.0000000000020356
  0
LINE
  5
97
330
70
100
AcDbEntity
  8
plate standard v5_0
100
AcDbLine
 10
-23.98625
 20
5.967499999999998
 30
0.0
 11
-22.68625
 21
5.9675
 31
0.0
  0
ARC
  5
98
330
70
100
AcDbEntity
  8
plate standard v5_0
100
AcDbCircle
 10
-22.68625000000001
 20
7.317499999999999
 30
0.0
 40
0.0500000000000007
100
AcDbArc
 50
0.0
 51
89.99999999999593
  0
ARC
  5
99
330
70
100
AcDbEntity
  8
plate standard v5_0
100
AcDbCircle
 10
0.4461491673103706
 20
0.3024999999999995
 30
0.0
 40
0.1999999999999996
210
0.0
220
0.0
230
-1.0
100
AcDbArc
 50
194.4775121859298
 51
269.9999999999998
  0
LINE
  5
9A
330
70
100
AcDbEntity
  8
plate standard v5_0
100
AcDbLine
 10
-5.4625
 20
1.6025
 30
0.0
 11
-5.4625
 21
0.3025
 31
0.0
  0
ARC
  5
9B
330
70
100
AcDbEntity
  8
plate standard v5_0
100
AcDbCircle
 10
23.84260083268963
 20
7.317499999999991
 30
0.0
 40
0.2000000000000067
210
0.0
220
0.0
230
-1.0
100
AcDbArc
 50
14.47751218593148
 51
89.99999999999898
  0
ARC
  5
9C
330
70
100
AcDbEntity
  8
plate standard v5_0
100
AcDbCircle
 10
-22.68625000000001
 20
6.017499999999998
 30
0.0
 40
0.0499999999999981
100
AcDbArc
 50
270.0000000000041
 51
0.0000000000020356
  0
ARC
  5
9D
330
70
100
AcDbEntity
  8
plate standard v5_0
100
AcDbCircle
 10
-5.412499999999999
 20
0.3025000000000005
 30
0.0
 40
0.0500000000000007
100
AcDbArc
 50
180.0000000000006
 51
269.999999999998
  0
ARC
  5
9E
330
70
100
AcDbEntity
  8
plate standard v5_0
100
AcDbCircle
 10
-3.507499999999999
 20
1.602499999999999
 30
0.0
 40
0.0500000000000009
100
AcDbArc
 50
90.00000000000049
 51
179.9999999999992
  0
LINE
  5
9F
330
70
100
AcDbEntity
  8
plate standard v5_0
100
AcDbLine
 10
-23.98625
 20
4.062499999999999
 30
0.0
 11
-22.68625
 21
4.0625
 31
0.0
  0
ARC
  5
A0
330
70
100
AcDbEntity
  8
plate standard v5_0
100
AcDbCircle
 10
-6.0175
 20
0.3024999999999996
 30
0.0
 40
0.0499999999999995
100
AcDbArc
 50
270.0
 51
0.0000000000004453
  0
LINE
  5
A1
330
70
100
AcDbEntity
  8
plate standard v5_0
100
AcDbLine
 10
-22.68625
 20
7.367499999999998
 30
0.0
 11
-24.03625
 21
7.367499999999998
 31
0.0
  0
LINE
  5
A2
330
70
100
AcDbEntity
  8
plate standard v5_0
100
AcDbLine
 10
-4.0625
 20
0.3025
 30
0.0
 11
-4.0625
 21
1.6025
 31
0.0
  0
ARC
  5
A3
330
70
100
AcDbEntity
  8
plate standard v5_0
100
AcDbCircle
 10
-7.317499999999999
 20
1.6025
 30
0.0
 40
0.0500000000000001
100
AcDbArc
 50
90.0
 51
180.0000000000002
  0
ARC
  5
A4
330
70
100
AcDbEntity
  8
plate standard v5_0
100
AcDbCircle
 10
-4.112499999999999
 20
1.6025
 30
0.0
 40
0.0499999999999998
100
AcDbArc
 50
359.9999999999995
 51
89.99999999999898
  0
LINE
  5
A5
330
70
100
AcDbEntity
  8
plate standard v5_0
100
AcDbLine
 10
-23.84260083268963
 20
7.517499999999998
 30
0.0
 11
-0.4525000000000006
 21
7.517500000000005
 31
0.0
  0
LINE
  5
A6
330
70
100
AcDbEntity
  8
plate standard v5_0
100
AcDbLine
 10
-22.63625000000001
 20
6.0175
 30
0.0
 11
-22.63625000000001
 21
7.317499999999999
 31
0.0
  0
LINE
  5
A7
330
70
100
AcDbEntity
  8
plate standard v5_0
100
AcDbLine
 10
-9.2225
 20
0.2525000000000002
 30
0.0
 11
-7.922499999999998
 21
0.2525000000000001
 31
0.0
  0
LINE
  5
A8
330
70
100
AcDbEntity
  8
plate standard v5_0
100
AcDbLine
 10
-5.412500000000001
 20
0.2524999999999998
 30
0.0
 11
-4.112499999999999
 21
0.2525
 31
0.0
  0
ARC
  5
A9
330
70
100
AcDbEntity
  8
plate standard v5_0
100
AcDbCircle
 10
-2.207499999999999
 20
0.3024999999999992
 30
0.0
 40
0.0499999999999992
100
AcDbArc
 50
269.9999999999995
 51
0.0000000000008906
  0
LINE
  5
AA
330
70
100
AcDbEntity
  8
plate standard v5_0
100
AcDbLine
 10
-7.367499999999998
 20
1.6025
 30
0.0
 11
-7.367499999999998
 21
0.3025
 31
0.0
  0
LINE
  5
AB
330
70
100
AcDbEntity
  8
plate standard v5_0
100
AcDbLine
 10
-17.4475
 20
1.6525
 30
0.0
 11
-18.7475
 21
1.6525
 31
0.0
  0
ARC
  5
AC
330
70
100
AcDbEntity
  8
plate standard v5_0
100
AcDbCircle
 10
-9.827500000000004
 20
0.302500000000003
 30
0.0
 40
0.0500000000000028
100
AcDbArc
 50
270.0000000000041
 51
359.9999999999966
  0
ARC
  5
AD
330
70
100
AcDbEntity
  8
plate standard v5_0
100
AcDbCircle
 10
-18.7475
 20
1.602500000000005
 30
0.0
 40
0.0499999999999952
100
AcDbArc
 50
89.99999999999593
 51
180.0000000000058
  0
ARC
  5
AE
330
70
100
AcDbEntity
  8
plate standard v5_0
100
AcDbCircle
 10
-7.9225
 20
0.3025000000000017
 30
0.0
 40
0.0500000000000016
100
AcDbArc
 50
270.0000000000021
 51
359.999999999998
  0
ARC
  5
AF
330
70
100
AcDbEntity
  8
plate standard v5_0
100
AcDbCircle
 10
-15.5425
 20
0.3025000000000023
 30
0.0
 40
0.0500000000000019
100
AcDbArc
 50
270.0000000000021
 51
359.9999999999974
  0
ARC
  5
B0
330
70
100
AcDbEntity
  8
plate standard v5_0
100
AcDbCircle
 10
-20.65250000000001
 20
0.3024999999999987
 30
0.0
 40
0.0499999999999972
100
AcDbArc
 50
179.9999999999984
 51
270.0000000000041
  0
ARC
  5
B1
330
70
100
AcDbEntity
  8
plate standard v5_0
100
AcDbCircle
 10
-1.6025
 20
0.3025000000000002
 30
0.0
 40
0.0500000000000003
100
AcDbArc
 50
180.0000000000002
 51
270.0
  0
LINE
  5
B2
330
70
100
AcDbEntity
  8
plate standard v5_0
100
AcDbLine
 10
-17.3975
 20
0.3025
 30
0.0
 11
-17.3975
 21
1.6025
 31
0.0
  0
ARC
  5
B3
330
70
100
AcDbEntity
  8
plate standard v5_0
100
AcDbCircle
 10
-13.6375
 20
0.3025000000000022
 30
0.0
 40
0.050000000000002
100
AcDbArc
 50
270.0000000000021
 51
359.9999999999974
  0
LINE
  5
B4
330
70
100
AcDbEntity
  8
plate standard v5_0
100
AcDbLine
 10
-22.68625
 20
5.462500000000004
 30
0.0
 11
-23.98625
 21
5.4625
 31
0.0
  0
LINE
  5
B5
330
70
100
AcDbEntity
  8
plate standard v5_0
100
AcDbLine
 10
-11.6825
 20
0.3025
 30
0.0
 11
-11.6825
 21
1.6025
 31
0.0
  0
ARC
  5
B6
330
70
100
AcDbEntity
  8
plate standard v5_0
100
AcDbCircle
 10
-16.8425
 20
1.6025
 30
0.0
 40
0.0499999999999996
100
AcDbArc
 50
90.0
 51
180.0000000000007
  0
LINE
  5
B7
330
70
100
AcDbEntity
  8
plate standard v5_0
100
AcDbLine
 10
-1.6525
 20
1.6025
 30
0.0
 11
-1.6525
 21
0.3025
 31
0.0
  0
LINE
  5
B8
330
70
100
AcDbEntity
  8
plate standard v5_0
100
AcDbLine
 10
-4.112499999999998
 20
1.6525
 30
0.0
 11
-5.412500000000001
 21
1.6525
 31
0.0
  0
LINE
  5
B9
330
70
100
AcDbEntity
  8
plate standard v5_0
100
AcDbLine
 10
-16.8925
 20
1.6025
 30
0.0
 11
-16.8925
 21
0.3025
 31
0.0
  0
LINE
  5
BA
330
70
100
AcDbEntity
  8
plate standard v5_0
100
AcDbLine
 10
-0.3024999897755201
 20
1.6525
 30
0.0
 11
-1.6025
 21
1.6525
 31
0.0
  0
LINE
  5
BB
330
70
100
AcDbEntity
  8
plate standard v5_0
100
AcDbLine
 10
-13.0825
 20
1.6025
 30
0.0
 11
-13.0825
 21
0.3025
 31
0.0
  0
ARC
  5
BC
330
70
100
AcDbEntity
  8
plate standard v5_0
100
AcDbCircle
 10
-15.5425
 20
1.602499999999998
 30
0.0
 40
0.0500000000000025
100
AcDbArc
 50
0.0000000000020356
 51
89.99999999999797
  0
ARC
  5
BD
330
70
100
AcDbEntity
  8
plate standard v5_0
100
AcDbCircle
 10
-9.222500000000001
 20
0.3025000000000012
 30
0.0
 40
0.0500000000000007
100
AcDbArc
 50
180.0000000000014
 51
270.0000000000021
  0
ARC
  5
BE
330
70
100
AcDbEntity
  8
plate standard v5_0
100
AcDbCircle
 10
-14.9375
 20
0.3024999999999999
 30
0.0
 40
0.0499999999999989
100
AcDbArc
 50
179.9999999999999
 51
270.0000000000021
  0
LINE
  5
BF
330
70
100
AcDbEntity
  8
plate standard v5_0
100
AcDbLine
 10
-3.5075
 20
0.2525
 30
0.0
 11
-2.2075
 21
0.2525
 31
0.0
  0
ARC
  5
C0
330
70
100
AcDbEntity
  8
plate standard v5_0
100
AcDbCircle
 10
-7.922499999999998
 20
1.6025
 30
0.0
 40
0.0499999999999998
100
AcDbArc
 50
359.9999999999995
 51
89.99999999999898
  0
LINE
  5
C1
330
70
100
AcDbEntity
  8
plate standard v5_0
100
AcDbLine
 10
-20.70250000000001
 20
1.6025
 30
0.0
 11
-20.70250000000001
 21
0.3025
 31
0.0
  0
LINE
  5
C2
330
70
100
AcDbEntity
  8
plate standard v5_0
100
AcDbLine
 10
-19.3525
 20
1.652499999999998
 30
0.0
 11
-20.6525
 21
1.6525
 31
0.0
  0
LINE
  5
C3
330
70
100
AcDbEntity
  8
plate standard v5_0
100
AcDbLine
 10
-0.4461491673103701
 20
0.1024999999999999
 30
0.0
 11
-23.83625
 21
0.1024999999999971
 31
0.0
  0
LINE
  5
C4
330
70
100
AcDbEntity
  8
plate standard v5_0
100
AcDbLine
 10
-9.272500000000002
 20
1.6025
 30
0.0
 11
-9.272500000000002
 21
0.3025
 31
0.0
  0
LINE
  5
C5
330
70
100
AcDbEntity
  8
plate standard v5_0
100
AcDbLine
 10
-1.6025
 20
0.2525
 30
0.0
 11
-0.2524999999999999
 21
0.2525
 31
0.0
  0
LINE
  5
C6
330
70
100
AcDbEntity
  8
plate standard v5_0
100
AcDbLine
 10
-15.5425
 20
1.6525
 30
0.0
 11
-16.8425
 21
1.6525
 31
0.0
  0
ARC
  5
C7
330
70
100
AcDbEntity
  8
plate standard v5_0
100
AcDbCircle
 10
-11.1275
 20
0.3025
 30
0.0
 40
0.0499999999999989
100
AcDbArc
 50
180.0
 51
270.0000000000021
  0
ARC
  5
C8
330
70
100
AcDbEntity
  8
plate standard v5_0
100
AcDbCircle
 10
23.83625
 20
0.3025000000000012
 30
0.0
 40
0.2000000000000041
210
0.0
220
0.0
230
-1.0
100
AcDbArc
 50
270.000000000001
 51
359.9999999999997
  0
LINE
  5
C9
330
70
100
AcDbEntity
  8
plate standard v5_0
100
AcDbLine
 10
-18.79749999999999
 20
1.6025
 30
0.0
 11
-18.7975
 21
0.3025
 31
0.0
  0
ARC
  5
CA
330
70
100
AcDbEntity
  8
plate standard v5_0
100
AcDbCircle
 10
-13.0325
 20
1.602499999999999
 30
0.0
 40
0.0500000000000007
100
AcDbArc
 50
90.0
 51
179.9999999999995
  0
LINE
  5
CB
330
70
100
AcDbEntity
  8
plate standard v5_0
100
AcDbLine
 10
-11.1775
 20
1.6025
 30
0.0
 11
-11.1775
 21
0.3025
 31
0.0
  0
LINE
  5
CC
330
70
100
AcDbEntity
  8
plate standard v5_0
100
AcDbLine
 10
-19.3025
 20
0.3025
 30
0.0
 11
-19.3025
 21
1.6025
 31
0.0
  0
LINE
  5
CD
330
70
100
AcDbEntity
  8
plate standard v5_0
100
AcDbLine
 10
-13.5875
 20
0.3025
 30
0.0
 11
-13.5875
 21
1.6025
 31
0.0
  0
LINE
  5
CE
330
70
100
AcDbEntity
  8
plate standard v5_0
100
AcDbLine
 10
-4.826875000000001
 20
7.367499999999998
 30
0.0
 11
-6.126874999999998
 21
7.367499999999998
 31
0.0
  0
LINE
  5
CF
330
70
100
AcDbEntity
  8
plate standard v5_0
100
AcDbLine
 10
-16.8425
 20
0.2525000000000003
 30
0.0
 11
-15.5425
 21
0.2525000000000003
 31
0.0
  0
ARC
  5
D0
330
70
100
AcDbEntity
  8
plate standard v5_0
100
AcDbCircle
 10
-18.7475
 20
0.3024999999999991
 30
0.0
 40
0.0500000000000007
100
AcDbArc
 50
179.999999999999
 51
270.0
  0
ARC
  5
D1
330
70
100
AcDbEntity
  8
plate standard v5_0
100
AcDbCircle
 10
-1.602499999999999
 20
1.602499999999999
 30
0.0
 40
0.0500000000000007
100
AcDbArc
 50
90.00000000000049
 51
179.9999999999995
  0
LINE
  5
D2
330
70
100
AcDbEntity
  8
plate standard v5_0
100
AcDbLine
 10
-22.63625000000001
 20
4.112499999999999
 30
0.0
 11
-22.63625000000001
 21
5.412500000000001
 31
0.0
  0
ARC
  5
D3
330
70
100
AcDbEntity
  8
plate standard v5_0
100
AcDbCircle
 10
-16.8425
 20
0.3024999999999987
 30
0.0
 40
0.0499999999999972
100
AcDbArc
 50
179.9999999999984
 51
270.0000000000041
  0
ARC
  5
D4
330
70
100
AcDbEntity
  8
plate standard v5_0
100
AcDbCircle
 10
-17.4475
 20
1.602500000000001
 30
0.0
 40
0.0499999999999972
100
AcDbArc
 50
359.9999999999984
 51
90.00000000000406
  0
LINE
  5
D5
330
70
100
AcDbEntity
  8
plate standard v5_0
100
AcDbLine
 10
-13.6375
 20
1.6525
 30
0.0
 11
-14.9375
 21
1.6525
 31
0.0
  0
LINE
  5
D6
330
70
100
AcDbEntity
  8
plate standard v5_0
100
AcDbLine
 10
-9.8275
 20
1.6525
 30
0.0
 11
-11.1275
 21
1.6525
 31
0.0
  0
ARC
  5
D7
330
70
100
AcDbEntity
  8
plate standard v5_0
100
AcDbCircle
 10
-9.222500000000001
 20
1.602499999999999
 30
0.0
 40
0.0500000000000009
100
AcDbArc
 50
89.99999999999797
 51
179.9999999999992
  0
ARC
  5
D8
330
70
100
AcDbEntity
  8
plate standard v5_0
100
AcDbCircle
 10
-20.6525
 20
1.6025
 30
0.0
 40
0.0499999999999996
100
AcDbArc
 50
90.0
 51
180.0000000000007
  0
ARC
  5
D9
330
70
100
AcDbEntity
  8
plate standard v5_0
100
AcDbCircle
 10
-19.3525
 20
1.602500000000001
 30
0.0
 40
0.0499999999999972
100
AcDbArc
 50
359.9999999999984
 51
90.00000000000406
  0
ARC
  5
DA
330
70
100
AcDbEntity
  8
plate standard v5_0
100
AcDbCircle
 10
-13.0325
 20
0.3024999999999999
 30
0.0
 40
0.0499999999999989
100
AcDbArc
 50
179.9999999999999
 51
270.0000000000021
  0
ARC
  5
DB
330
70
100
AcDbEntity
  8
plate standard v5_0
100
AcDbCircle
 10
-11.1275
 20
1.602499999999999
 30
0.0
 40
0.0500000000000007
100
AcDbArc
 50
90.0
 51
179.9999999999995
  0
LINE
  5
DC
330
70
100
AcDbEntity
  8
plate standard v5_0
100
AcDbLine
 10
-21.12875
 20
2.157499999999999
 30
0.0
 11
-19.82875
 21
2.1575
 31
0.0
  0
ARC
  5
DD
330
70
100
AcDbEntity
  8
plate standard v5_0
100
AcDbCircle
 10
-17.4475
 20
0.3024999999999993
 30
0.0
 40
0.0499999999999989
100
AcDbArc
 50
269.9999999999959
 51
0.0000000000008269
  0
LINE
  5
DE
330
70
100
AcDbEntity
  8
plate standard v5_0
100
AcDbLine
 10
-4.53875
 20
2.2075
 30
0.0
 11
-4.53875
 21
3.5075
 31
0.0
  0
ARC
  5
DF
330
70
100
AcDbEntity
  8
plate standard v5_0
100
AcDbCircle
 10
-22.08125
 20
6.017499999999999
 30
0.0
 40
0.0500000000000007
100
AcDbArc
 50
179.999999999999
 51
270.0
  0
LINE
  5
E0
330
70
100
AcDbEntity
  8
plate standard v5_0
100
AcDbLine
 10
-2.63375
 20
6.0175
 30
0.0
 11
-2.63375
 21
7.317499999999999
 31
0.0
  0
ARC
  5
E1
330
70
100
AcDbEntity
  8
plate standard v5_0
100
AcDbCircle
 10
-0.5406249999999996
 20
6.0175
 30
0.0
 40
0.0499999999999998
100
AcDbArc
 50
269.9999999999996
 51
0.0
  0
LINE
  5
E2
330
70
100
AcDbEntity
  8
plate standard v5_0
100
AcDbLine
 10
-18.7475
 20
0.2524999999999984
 30
0.0
 11
-17.4475
 21
0.2525000000000003
 31
0.0
  0
ARC
  5
E3
330
70
100
AcDbEntity
  8
plate standard v5_0
100
AcDbCircle
 10
-14.9375
 20
1.602499999999999
 30
0.0
 40
0.0500000000000007
100
AcDbArc
 50
90.0
 51
179.9999999999995
  0
LINE
  5
E4
330
70
100
AcDbEntity
  8
plate standard v5_0
100
AcDbLine
 10
-3.98375
 20
5.9675
 30
0.0
 11
-2.683749999999999
 21
5.9675
 31
0.0
  0
LINE
  5
E5
330
70
100
AcDbEntity
  8
plate standard v5_0
100
AcDbLine
 10
-0.4906249999999998
 20
6.0175
 30
0.0
 11
-0.490625
 21
7.317499999999999
 31
0.0
  0
ARC
  5
E6
330
70
100
AcDbEntity
  8
plate standard v5_0
100
AcDbCircle
 10
-21.971875
 20
0.3024999999999953
 30
0.0
 40
0.049999999999995
100
AcDbArc
 50
269.9999999999959
 51
0.0000000000053433
  0
LINE
  5
E7
330
70
100
AcDbEntity
  8
plate standard v5_0
100
AcDbLine
 10
-14.9875
 20
1.6025
 30
0.0
 11
-14.9875
 21
0.3025
 31
0.0
  0
ARC
  5
E8
330
70
100
AcDbEntity
  8
plate standard v5_0
100
AcDbCircle
 10
-9.827499999999998
 20
1.602500000000002
 30
0.0
 40
0.0499999999999972
100
AcDbArc
 50
359.9999999999969
 51
90.00000000000204
  0
LINE
  5
E9
330
70
100
AcDbEntity
  8
plate standard v5_0
100
AcDbLine
 10
-22.08125
 20
5.9675
 30
0.0
 11
-20.78125
 21
5.9675
 31
0.0
  0
LINE
  5
EA
330
70
100
AcDbEntity
  8
plate standard v5_0
100
AcDbLine
 10
-15.4925
 20
0.3025
 30
0.0
 11
-15.4925
 21
1.6025
 31
0.0
  0
LINE
  5
EB
330
70
100
AcDbEntity
  8
plate standard v5_0
100
AcDbLine
 10
-20.78125
 20
7.367499999999998
 30
0.0
 11
-22.08125
 21
7.367499999999998
 31
0.0
  0
LINE
  5
EC
330
70
100
AcDbEntity
  8
plate standard v5_0
100
AcDbLine
 10
-1.840625
 20
2.1575
 30
0.0
 11
-0.540625
 21
2.1575
 31
0.0
  0
ARC
  5
ED
330
70
100
AcDbEntity
  8
plate standard v5_0
100
AcDbCircle
 10
-21.12875
 20
2.207499999999999
 30
0.0
 40
0.0500000000000007
100
AcDbArc
 50
179.9999999999995
 51
270.0
  0
ARC
  5
EE
330
70
100
AcDbEntity
  8
plate standard v5_0
100
AcDbCircle
 10
-11.7325
 20
1.602500000000002
 30
0.0
 40
0.0499999999999972
100
AcDbArc
 50
359.9999999999974
 51
90.00000000000204
  0
LINE
  5
EF
330
70
100
AcDbEntity
  8
plate standard v5_0
100
AcDbLine
 10
-7.872499999999998
 20
0.3025
 30
0.0
 11
-7.872499999999998
 21
1.6025
 31
0.0
  0
ARC
  5
F0
330
70
100
AcDbEntity
  8
plate standard v5_0
100
AcDbCircle
 10
-4.826874999999999
 20
6.0175
 30
0.0
 40
0.0499999999999998
100
AcDbArc
 50
269.999999999999
 51
0.0
  0
ARC
  5
F1
330
70
100
AcDbEntity
  8
plate standard v5_0
100
AcDbCircle
 10
-3.983750000000002
 20
6.017499999999999
 30
0.0
 40
0.0499999999999989
100
AcDbArc
 50
179.999999999999
 51
270.0000000000025
  0
LINE
  5
F2
330
70
100
AcDbEntity
  8
plate standard v5_0
100
AcDbLine
 10
-23.271875
 20
0.2525000000000004
 30
0.0
 11
-21.971875
 21
0.2525000000000003
 31
0.0
  0
LINE
  5
F3
330
70
100
AcDbEntity
  8
plate standard v5_0
100
AcDbLine
 10
-23.32187500000001
 20
1.6025
 30
0.0
 11
-23.32187500000001
 21
0.3025
 31
0.0
  0
LINE
  5
F4
330
70
100
AcDbEntity
  8
plate standard v5_0
100
AcDbLine
 10
-6.126875
 20
5.9675
 30
0.0
 11
-4.826875
 21
5.9675
 31
0.0
  0
LINE
  5
F5
330
70
100
AcDbEntity
  8
plate standard v5_0
100
AcDbLine
 10
-22.13125
 20
7.317499999999999
 30
0.0
 11
-22.13125
 21
6.0175
 31
0.0
  0
ARC
  5
F6
330
70
100
AcDbEntity
  8
plate standard v5_0
100
AcDbCircle
 10
-4.826874999999998
 20
7.317499999999999
 30
0.0
 40
0.0499999999999989
100
AcDbArc
 50
359.999999999999
 51
90.00000000000305
  0
LINE
  5
F7
330
70
100
AcDbEntity
  8
plate standard v5_0
100
AcDbLine
 10
-4.033749999999999
 20
7.317499999999999
 30
0.0
 11
-4.033750000000001
 21
6.0175
 31
0.0
  0
ARC
  5
F8
330
70
100
AcDbEntity
  8
plate standard v5_0
100
AcDbCircle
 10
-22.08125
 20
7.317500000000003
 30
0.0
 40
0.0499999999999954
100
AcDbArc
 50
89.99999999999593
 51
180.000000000005
  0
ARC
  5
F9
330
70
100
AcDbEntity
  8
plate standard v5_0
100
AcDbCircle
 10
-23.271875
 20
0.3025000000000037
 30
0.0
 40
0.0500000000000043
100
AcDbArc
 50
180.0000000000042
 51
270.0
  0
ARC
  5
FA
330
70
100
AcDbEntity
  8
plate standard v5_0
100
AcDbCircle
 10
-1.840625
 20
6.0175
 30
0.0
 40
0.0500000000000001
100
AcDbArc
 50
180.0
 51
270.0000000000002
  0
LINE
  5
FB
330
70
100
AcDbEntity
  8
plate standard v5_0
100
AcDbLine
 10
-1.840625
 20
5.9675
 30
0.0
 11
-0.540625
 21
5.9675
 31
0.0
  0
ARC
  5
FC
330
70
100
AcDbEntity
  8
plate standard v5_0
100
AcDbCircle
 10
-11.7325
 20
0.302500000000003
 30
0.0
 40
0.0500000000000028
100
AcDbArc
 50
270.0000000000041
 51
359.9999999999966
  0
LINE
  5
FD
330
70
100
AcDbEntity
  8
plate standard v5_0
100
AcDbLine
 10
-21.971875
 20
1.6525
 30
0.0
 11
-23.271875
 21
1.6525
 31
0.0
  0
LINE
  5
FE
330
70
100
AcDbEntity
  8
plate standard v5_0
100
AcDbLine
 10
-0.5406249999999986
 20
7.367499999999998
 30
0.0
 11
-1.840624999999999
 21
7.367499999999998
 31
0.0
  0
ARC
  5
FF
330
70
100
AcDbEntity
  8
plate standard v5_0
100
AcDbCircle
 10
3.983749999999998
 20
3.507499999999999
 30
0.0
 40
0.0500000000000007
210
0.0
220
0.0
230
-1.0
100
AcDbArc
 50
0.0000000000005089
 51
89.99999999999849
  0
LINE
  5
100
330
70
100
AcDbEntity
  8
plate standard v5_0
100
AcDbLine
 10
-2.683749999999999
 20
7.367499999999998
 30
0.0
 11
-3.983750000000001
 21
7.367499999999998
 31
0.0
  0
LINE
  5
101
330
70
100
AcDbEntity
  8
plate standard v5_0
100
AcDbLine
 10
-4.58875
 20
3.5575
 30
0.0
 11
-5.888750000000001
 21
3.5575
 31
0.0
  0
LINE
  5
102
330
70
100
AcDbEntity
  8
plate standard v5_0
100
AcDbLine
 10
-13.0325
 20
0.252500000000001
 30
0.0
 11
-11.7325
 21
0.2525000000000002
 31
0.0
  0
ARC
  5
103
330
70
100
AcDbEntity
  8
plate standard v5_0
100
AcDbCircle
 10
-2.683749999999999
 20
7.317499999999999
 30
0.0
 40
0.0499999999999994
100
AcDbArc
 50
0.0
 51
90.00000000000049
  0
LINE
  5
104
330
70
100
AcDbEntity
  8
plate standard v5_0
100
AcDbLine
 10
-21.92187500000001
 20
0.3025
 30
0.0
 11
-21.921875
 21
1.6025
 31
0.0
  0
ARC
  5
105
330
70
100
AcDbEntity
  8
plate standard v5_0
100
AcDbCircle
 10
-0.5406250000000007
 20
7.317499999999998
 30
0.0
 40
0.0500000000000007
100
AcDbArc
 50
0.0000000000010178
 51
89.99999999999758
  0
LINE
  5
106
330
70
100
AcDbEntity
  8
plate standard v5_0
100
AcDbLine
 10
-9.777500000000001
 20
0.3025
 30
0.0
 11
-9.777500000000001
 21
1.6025
 31
0.0
  0
ARC
  5
107
330
70
100
AcDbEntity
  8
plate standard v5_0
100
AcDbCircle
 10
-19.3525
 20
0.3024999999999993
 30
0.0
 40
0.0499999999999989
100
AcDbArc
 50
269.9999999999959
 51
0.0000000000008269
  0
ARC
  5
108
330
70
100
AcDbEntity
  8
plate standard v5_0
100
AcDbCircle
 10
-21.12875
 20
3.507500000000005
 30
0.0
 40
0.0499999999999958
100
AcDbArc
 50
89.99999999999593
 51
180.0000000000056
  0
ARC
  5
109
330
70
100
AcDbEntity
  8
plate standard v5_0
100
AcDbCircle
 10
-2.683749999999999
 20
6.0175
 30
0.0
 40
0.0499999999999998
100
AcDbArc
 50
269.9999999999995
 51
0.0
  0
ARC
  5
10A
330
70
100
AcDbEntity
  8
plate standard v5_0
100
AcDbCircle
 10
-17.92374999999999
 20
2.207499999999995
 30
0.0
 40
0.0499999999999949
100
AcDbArc
 50
269.9999999999919
 51
0.0000000000050889
  0
ARC
  5
10B
330
70
100
AcDbEntity
  8
plate standard v5_0
100
AcDbCircle
 10
-1.840625
 20
2.2075
 30
0.0
 40
0.0500000000000005
100
AcDbArc
 50
180.0000000000005
 51
269.9999999999998
  0
ARC
  5
10C
330
70
100
AcDbEntity
  8
plate standard v5_0
100
AcDbCircle
 10
-0.5406250000000003
 20
2.2075
 30
0.0
 40
0.0500000000000003
100
AcDbArc
 50
270.0000000000004
 51
359.999999999999
  0
ARC
  5
10D
330
70
100
AcDbEntity
  8
plate standard v5_0
100
AcDbCircle
 10
-9.69875
 20
3.507499999999999
 30
0.0
 40
0.0500000000000012
100
AcDbArc
 50
90.0
 51
179.9999999999995
  0
LINE
  5
10E
330
70
100
AcDbEntity
  8
plate standard v5_0
100
AcDbLine
 10
-4.033750000000001
 20
2.2075
 30
0.0
 11
-4.033749999999999
 21
3.5075
 31
0.0
  0
ARC
  5
10F
330
70
100
AcDbEntity
  8
plate standard v5_0
100
AcDbCircle
 10
-1.840625
 20
7.317499999999998
 30
0.0
 40
0.0500000000000007
100
AcDbArc
 50
89.99999999999948
 51
179.999999999999
  0
ARC
  5
110
330
70
100
AcDbEntity
  8
plate standard v5_0
100
AcDbCircle
 10
3.983750000000001
 20
2.2075
 30
0.0
 40
0.0499999999999998
210
0.0
220
0.0
230
-1.0
100
AcDbArc
 50
269.9999999999985
 51
0.0
  0
LINE
  5
111
330
70
100
AcDbEntity
  8
plate standard v5_0
100
AcDbLine
 10
-19.82875
 20
3.557500000000004
 30
0.0
 11
-21.12875
 21
3.5575
 31
0.0
  0
LINE
  5
112
330
70
100
AcDbEntity
  8
plate standard v5_0
100
AcDbLine
 10
-5.888750000000001
 20
2.1575
 30
0.0
 11
-4.58875
 21
2.1575
 31
0.0
  0
LINE
  5
113
330
70
100
AcDbEntity
  8
plate standard v5_0
100
AcDbLine
 10
-1.890625
 20
7.317499999999999
 30
0.0
 11
-1.890625
 21
6.0175
 31
0.0
  0
ARC
  5
114
330
70
100
AcDbEntity
  8
plate standard v5_0
100
AcDbCircle
 10
-4.58875
 20
3.5075
 30
0.0
 40
0.0500000000000007
100
AcDbArc
 50
0.0
 51
89.99999999999898
  0
ARC
  5
115
330
70
100
AcDbEntity
  8
plate standard v5_0
100
AcDbCircle
 10
-3.983750000000002
 20
7.3175
 30
0.0
 40
0.0499999999999981
100
AcDbArc
 50
89.99999999999898
 51
180.000000000002
  0
LINE
  5
116
330
70
100
AcDbEntity
  8
plate standard v5_0
100
AcDbLine
 10
-2.683749999999999
 20
2.1575
 30
0.0
 11
-3.98375
 21
2.1575
 31
0.0
  0
ARC
  5
117
330
70
100
AcDbEntity
  8
plate standard v5_0
100
AcDbCircle
 10
7.79375
 20
2.2075
 30
0.0
 40
0.0500000000000003
210
0.0
220
0.0
230
-1.0
100
AcDbArc
 50
270.0
 51
359.999999999999
  0
ARC
  5
118
330
70
100
AcDbEntity
  8
plate standard v5_0
100
AcDbCircle
 10
-21.971875
 20
1.6025
 30
0.0
 40
0.0500000000000007
100
AcDbArc
 50
359.9999999999992
 51
90.0
  0
ARC
  5
119
330
70
100
AcDbEntity
  8
plate standard v5_0
100
AcDbCircle
 10
-10.30375
 20
3.507499999999999
 30
0.0
 40
0.0500000000000007
100
AcDbArc
 50
0.0000000000005089
 51
90.0
  0
LINE
  5
11A
330
70
100
AcDbEntity
  8
plate standard v5_0
100
AcDbLine
 10
-8.746250000000001
 20
5.4625
 30
0.0
 11
-7.44625
 21
5.4625
 31
0.0
  0
ARC
  5
11B
330
70
100
AcDbEntity
  8
plate standard v5_0
100
AcDbCircle
 10
-23.271875
 20
1.602499999999998
 30
0.0
 40
0.0500000000000021
100
AcDbArc
 50
89.99999999999593
 51
179.9999999999979
  0
ARC
  5
11C
330
70
100
AcDbEntity
  8
plate standard v5_0
100
AcDbCircle
 10
-4.58875
 20
2.2075
 30
0.0
 40
0.0500000000000003
100
AcDbArc
 50
270.0
 51
359.999999999999
  0
LINE
  5
11D
330
70
100
AcDbEntity
  8
plate standard v5_0
100
AcDbLine
 10
-13.55875
 20
3.5075
 30
0.0
 11
-13.55875
 21
2.2075
 31
0.0
  0
LINE
  5
11E
330
70
100
AcDbEntity
  8
plate standard v5_0
100
AcDbLine
 10
-4.776874999999999
 20
6.0175
 30
0.0
 11
-4.776874999999999
 21
7.317499999999999
 31
0.0
  0
LINE
  5
11F
330
70
100
AcDbEntity
  8
plate standard v5_0
100
AcDbLine
 10
-3.98375
 20
3.5575
 30
0.0
 11
-2.683749999999999
 21
3.5575
 31
0.0
  0
LINE
  5
120
330
70
100
AcDbEntity
  8
plate standard v5_0
100
AcDbLine
 10
-6.49375
 20
2.1575
 30
0.0
 11
-7.79375
 21
2.1575
 31
0.0
  0
LINE
  5
121
330
70
100
AcDbEntity
  8
plate standard v5_0
100
AcDbLine
 10
-7.396250000000001
 20
5.412500000000001
 30
0.0
 11
-7.396250000000001
 21
4.112499999999999
 31
0.0
  0
ARC
  5
122
330
70
100
AcDbEntity
  8
plate standard v5_0
100
AcDbCircle
 10
-12.20875
 20
2.207500000000001
 30
0.0
 40
0.0500000000000007
100
AcDbArc
 50
270.0
 51
359.9999999999984
  0
ARC
  5
123
330
70
100
AcDbEntity
  8
plate standard v5_0
100
AcDbCircle
 10
6.493750000000001
 20
3.5075
 30
0.0
 40
0.0500000000000003
210
0.0
220
0.0
230
-1.0
100
AcDbArc
 50
90.00000000000103
 51
180.0000000000005
  0
LINE
  5
124
330
70
100
AcDbEntity
  8
plate standard v5_0
100
AcDbLine
 10
-19.22375
 20
2.157499999999999
 30
0.0
 11
-17.92375
 21
2.1575
 31
0.0
  0
ARC
  5
125
330
70
100
AcDbEntity
  8
plate standard v5_0
100
AcDbCircle
 10
-8.398749999999999
 20
3.5075
 30
0.0
 40
0.0500000000000007
100
AcDbArc
 50
359.9999999999995
 51
89.99999999999797
  0
ARC
  5
126
330
70
100
AcDbEntity
  8
plate standard v5_0
100
AcDbCircle
 10
-19.82875
 20
2.207499999999999
 30
0.0
 40
0.0499999999999985
100
AcDbArc
 50
270.0000000000041
 51
0.0000000000010178
  0
LINE
  5
127
330
70
100
AcDbEntity
  8
plate standard v5_0
100
AcDbLine
 10
-1.890625
 20
3.5075
 30
0.0
 11
-1.890625
 21
2.2075
 31
0.0
  0
ARC
  5
128
330
70
100
AcDbEntity
  8
plate standard v5_0
100
AcDbCircle
 10
2.68375
 20
3.5075
 30
0.0
 40
0.0500000000000007
210
0.0
220
0.0
230
-1.0
100
AcDbArc
 50
90.00000000000049
 51
180.0
  0
LINE
  5
129
330
70
100
AcDbEntity
  8
plate standard v5_0
100
AcDbLine
 10
-7.84375
 20
2.2075
 30
0.0
 11
-7.84375
 21
3.5075
 31
0.0
  0
ARC
  5
12A
330
70
100
AcDbEntity
  8
plate standard v5_0
100
AcDbCircle
 10
-19.82875000000001
 20
3.507499999999999
 30
0.0
 40
0.0500000000000043
100
AcDbArc
 50
0.0000000000005089
 51
89.99999999999186
  0
LINE
  5
12B
330
70
100
AcDbEntity
  8
plate standard v5_0
100
AcDbLine
 10
-0.4906250000000001
 20
2.2075
 30
0.0
 11
-0.490625
 21
3.5075
 31
0.0
  0
LINE
  5
12C
330
70
100
AcDbEntity
  8
plate standard v5_0
100
AcDbLine
 10
-19.77875
 20
2.2075
 30
0.0
 11
-19.77875
 21
3.5075
 31
0.0
  0
ARC
  5
12D
330
70
100
AcDbEntity
  8
plate standard v5_0
100
AcDbCircle
 10
6.49375
 20
2.2075
 30
0.0
 40
0.0499999999999998
210
0.0
220
0.0
230
-1.0
100
AcDbArc
 50
180.0000000000005
 51
270.0
  0
LINE
  5
12E
330
70
100
AcDbEntity
  8
plate standard v5_0
100
AcDbLine
 10
-19.27375000000001
 20
3.5075
 30
0.0
 11
-19.27375000000001
 21
2.2075
 31
0.0
  0
LINE
  5
12F
330
70
100
AcDbEntity
  8
plate standard v5_0
100
AcDbLine
 10
-14.11375
 20
3.5575
 30
0.0
 11
-15.41375
 21
3.5575
 31
0.0
  0
ARC
  5
130
330
70
100
AcDbEntity
  8
plate standard v5_0
100
AcDbCircle
 10
-0.5406250000000006
 20
3.5075
 30
0.0
 40
0.0500000000000006
100
AcDbArc
 50
0.0
 51
89.99999999999962
  0
LINE
  5
131
330
70
100
AcDbEntity
  8
plate standard v5_0
100
AcDbLine
 10
-17.87375
 20
2.2075
 30
0.0
 11
-17.87375
 21
3.5075
 31
0.0
  0
ARC
  5
132
330
70
100
AcDbEntity
  8
plate standard v5_0
100
AcDbCircle
 10
2.683749999999998
 20
2.207499999999999
 30
0.0
 40
0.0499999999999989
210
0.0
220
0.0
230
-1.0
100
AcDbArc
 50
179.9999999999995
 51
270.000000000001
  0
ARC
  5
133
330
70
100
AcDbEntity
  8
plate standard v5_0
100
AcDbCircle
 10
7.793749999999999
 20
3.5075
 30
0.0
 40
0.0500000000000007
210
0.0
220
0.0
230
-1.0
100
AcDbArc
 50
0.0
 51
89.99999999999898
  0
ARC
  5
134
330
70
100
AcDbEntity
  8
plate standard v5_0
100
AcDbCircle
 10
-17.31875
 20
3.507500000000001
 30
0.0
 40
0.0499999999999998
100
AcDbArc
 50
90.0
 51
180.000000000001
  0
ARC
  5
135
330
70
100
AcDbEntity
  8
plate standard v5_0
100
AcDbCircle
 10
-1.840625
 20
3.5075
 30
0.0
 40
0.0500000000000003
100
AcDbArc
 50
90.00000000000026
 51
180.0000000000005
  0
LINE
  5
136
330
70
100
AcDbEntity
  8
plate standard v5_0
100
AcDbLine
 10
-23.51
 20
3.5575
 30
0.0
 11
-22.21
 21
3.5575
 31
0.0
  0
LINE
  5
137
330
70
100
AcDbEntity
  8
plate standard v5_0
100
AcDbLine
 10
-21.17875
 20
3.5075
 30
0.0
 11
-21.17875
 21
2.2075
 31
0.0
  0
ARC
  5
138
330
70
100
AcDbEntity
  8
plate standard v5_0
100
AcDbCircle
 10
-5.888749999999999
 20
2.2075
 30
0.0
 40
0.0500000000000007
100
AcDbArc
 50
180.000000000001
 51
269.999999999998
  0
ARC
  5
139
330
70
100
AcDbEntity
  8
plate standard v5_0
100
AcDbCircle
 10
-16.01875
 20
3.507499999999999
 30
0.0
 40
0.0500000000000007
100
AcDbArc
 50
0.0000000000005089
 51
90.0
  0
ARC
  5
13A
330
70
100
AcDbEntity
  8
plate standard v5_0
100
AcDbCircle
 10
-11.60375
 20
3.507499999999998
 30
0.0
 40
0.0500000000000029
100
AcDbArc
 50
90.00000000000204
 51
179.9999999999974
  0
LINE
  5
13B
330
70
100
AcDbEntity
  8
plate standard v5_0
100
AcDbLine
 10
-8.398749999999997
 20
3.557500000000001
 30
0.0
 11
-9.69875
 21
3.5575
 31
0.0
  0
ARC
  5
13C
330
70
100
AcDbEntity
  8
plate standard v5_0
100
AcDbCircle
 10
-5.88875
 20
3.507500000000001
 30
0.0
 40
0.0499999999999998
100
AcDbArc
 50
90.00000000000103
 51
180.000000000001
  0
LINE
  5
13D
330
70
100
AcDbEntity
  8
plate standard v5_0
100
AcDbLine
 10
-10.25375
 20
2.2075
 30
0.0
 11
-10.25375
 21
3.5075
 31
0.0
  0
LINE
  5
13E
330
70
100
AcDbEntity
  8
plate standard v5_0
100
AcDbLine
 10
-6.443750000000001
 20
3.5075
 30
0.0
 11
-6.44375
 21
2.2075
 31
0.0
  0
LINE
  5
13F
330
70
100
AcDbEntity
  8
plate standard v5_0
100
AcDbLine
 10
-14.06375
 20
2.2075
 30
0.0
 11
-14.06375
 21
3.5075
 31
0.0
  0
ARC
  5
140
330
70
100
AcDbEntity
  8
plate standard v5_0
100
AcDbCircle
 10
-13.50875
 20
3.507499999999998
 30
0.0
 40
0.0500000000000029
100
AcDbArc
 50
90.00000000000204
 51
179.9999999999974
  0
LINE
  5
141
330
70
100
AcDbEntity
  8
plate standard v5_0
100
AcDbLine
 10
-15.46375
 20
3.5075
 30
0.0
 11
-15.46375
 21
2.2075
 31
0.0
  0
LINE
  5
142
330
70
100
AcDbEntity
  8
plate standard v5_0
100
AcDbLine
 10
-15.96875
 20
2.2075
 30
0.0
 11
-15.96875
 21
3.5075
 31
0.0
  0
ARC
  5
143
330
70
100
AcDbEntity
  8
plate standard v5_0
100
AcDbCircle
 10
7.446249999999999
 20
5.412500000000002
 30
0.0
 40
0.0499999999999981
210
0.0
220
0.0
230
-1.0
100
AcDbArc
 50
89.99999999999797
 51
180.000000000001
  0
ARC
  5
144
330
70
100
AcDbEntity
  8
plate standard v5_0
100
AcDbCircle
 10
-19.22375
 20
2.207500000000001
 30
0.0
 40
0.0500000000000043
100
AcDbArc
 50
180.000000000002
 51
270.0
  0
ARC
  5
145
330
70
100
AcDbEntity
  8
plate standard v5_0
100
AcDbCircle
 10
-10.30375
 20
2.207500000000001
 30
0.0
 40
0.0500000000000007
100
AcDbArc
 50
270.0
 51
359.9999999999984
  0
LINE
  5
146
330
70
100
AcDbEntity
  8
plate standard v5_0
100
AcDbLine
 10
-4.98625
 20
5.412500000000001
 30
0.0
 11
-4.98625
 21
4.112499999999999
 31
0.0
  0
LINE
  5
147
330
70
100
AcDbEntity
  8
plate standard v5_0
100
AcDbLine
 10
-7.44625
 20
4.0625
 30
0.0
 11
-8.746250000000001
 21
4.062499999999999
 31
0.0
  0
ARC
  5
148
330
70
100
AcDbEntity
  8
plate standard v5_0
100
AcDbCircle
 10
22.21
 20
3.507500000000001
 30
0.0
 40
0.0499999999999998
210
0.0
220
0.0
230
-1.0
100
AcDbArc
 50
90.0
 51
180.000000000001
  0
LINE
  5
149
330
70
100
AcDbEntity
  8
plate standard v5_0
100
AcDbLine
 10
-0.5406250000000003
 20
3.5575
 30
0.0
 11
-1.840625
 21
3.5575
 31
0.0
  0
ARC
  5
14A
330
70
100
AcDbEntity
  8
plate standard v5_0
100
AcDbCircle
 10
-15.41375
 20
3.507499999999997
 30
0.0
 40
0.0500000000000034
100
AcDbArc
 50
90.0
 51
179.9999999999969
  0
LINE
  5
14B
330
70
100
AcDbEntity
  8
plate standard v5_0
100
AcDbLine
 10
-17.36875
 20
3.5075
 30
0.0
 11
-17.36875
 21
2.2075
 31
0.0
  0
ARC
  5
14C
330
70
100
AcDbEntity
  8
plate standard v5_0
100
AcDbCircle
 10
-13.50875
 20
2.207500000000001
 30
0.0
 40
0.0500000000000025
100
AcDbArc
 50
180.000000000002
 51
269.999999999998
  0
LINE
  5
14D
330
70
100
AcDbEntity
  8
plate standard v5_0
100
AcDbLine
 10
-15.41375
 20
2.157499999999999
 30
0.0
 11
-14.11375
 21
2.1575
 31
0.0
  0
LINE
  5
14E
330
70
100
AcDbEntity
  8
plate standard v5_0
100
AcDbLine
 10
-12.15875
 20
2.2075
 30
0.0
 11
-12.15875
 21
3.5075
 31
0.0
  0
ARC
  5
14F
330
70
100
AcDbEntity
  8
plate standard v5_0
100
AcDbCircle
 10
-15.41375
 20
2.207500000000003
 30
0.0
 40
0.0500000000000043
100
AcDbArc
 50
180.0000000000035
 51
270.0
  0
LINE
  5
150
330
70
100
AcDbEntity
  8
plate standard v5_0
100
AcDbLine
 10
-23.56
 20
2.2075
 30
0.0
 11
-23.56
 21
3.5075
 31
0.0
  0
LINE
  5
151
330
70
100
AcDbEntity
  8
plate standard v5_0
100
AcDbLine
 10
-16.01875
 20
3.5575
 30
0.0
 11
-17.31875
 21
3.5575
 31
0.0
  0
ARC
  5
152
330
70
100
AcDbEntity
  8
plate standard v5_0
100
AcDbCircle
 10
23.51
 20
3.5075
 30
0.0
 40
0.0500000000000007
210
0.0
220
0.0
230
-1.0
100
AcDbArc
 50
359.9999999999995
 51
90.0
  0
LINE
  5
153
330
70
100
AcDbEntity
  8
plate standard v5_0
100
AcDbLine
 10
-11.65375
 20
3.5075
 30
0.0
 11
-11.65375
 21
2.2075
 31
0.0
  0
LINE
  5
154
330
70
100
AcDbEntity
  8
plate standard v5_0
100
AcDbLine
 10
-9.748750000000001
 20
3.5075
 30
0.0
 11
-9.748750000000001
 21
2.2075
 31
0.0
  0
ARC
  5
155
330
70
100
AcDbEntity
  8
plate standard v5_0
100
AcDbCircle
 10
-17.31875
 20
2.207499999999997
 30
0.0
 40
0.0499999999999972
100
AcDbArc
 50
179.9999999999974
 51
270.0000000000041
  0
ARC
  5
156
330
70
100
AcDbEntity
  8
plate standard v5_0
100
AcDbCircle
 10
-12.20875
 20
3.507499999999999
 30
0.0
 40
0.0500000000000007
100
AcDbArc
 50
0.0000000000005089
 51
90.0
  0
ARC
  5
157
330
70
100
AcDbEntity
  8
plate standard v5_0
100
AcDbCircle
 10
8.746249999999999
 20
4.112500000000001
 30
0.0
 40
0.0500000000000025
210
0.0
220
0.0
230
-1.0
100
AcDbArc
 50
270.0000000000021
 51
359.999999999998
  0
ARC
  5
158
330
70
100
AcDbEntity
  8
plate standard v5_0
100
AcDbCircle
 10
-11.60375
 20
2.207500000000001
 30
0.0
 40
0.0500000000000025
100
AcDbArc
 50
180.000000000002
 51
269.999999999998
  0
ARC
  5
159
330
70
100
AcDbEntity
  8
plate standard v5_0
100
AcDbCircle
 10
-8.398749999999997
 20
2.207499999999999
 30
0.0
 40
0.0499999999999989
100
AcDbArc
 50
270.0
 51
0.0000000000005089
  0
ARC
  5
15A
330
70
100
AcDbEntity
  8
plate standard v5_0
100
AcDbCircle
 10
-14.11375
 20
2.207500000000001
 30
0.0
 40
0.0500000000000007
100
AcDbArc
 50
270.0
 51
359.9999999999984
  0
ARC
  5
15B
330
70
100
AcDbEntity
  8
plate standard v5_0
100
AcDbCircle
 10
23.51
 20
2.207499999999995
 30
0.0
 40
0.0499999999999958
210
0.0
220
0.0
230
-1.0
100
AcDbArc
 50
269.9999999999959
 51
0.0000000000055978
  0
ARC
  5
15C
330
70
100
AcDbEntity
  8
plate standard v5_0
100
AcDbCircle
 10
7.446250000000001
 20
4.1125
 30
0.0
 40
0.0500000000000007
210
0.0
220
0.0
230
-1.0
100
AcDbArc
 50
180.000000000001
 51
269.999999999999
  0
ARC
  5
15D
330
70
100
AcDbEntity
  8
plate standard v5_0
100
AcDbCircle
 10
-14.11375
 20
3.507499999999999
 30
0.0
 40
0.0500000000000007
100
AcDbArc
 50
0.0000000000005089
 51
90.0
  0
LINE
  5
15E
330
70
100
AcDbEntity
  8
plate standard v5_0
100
AcDbLine
 10
-5.93875
 20
3.5075
 30
0.0
 11
-5.93875
 21
2.2075
 31
0.0
  0
ARC
  5
15F
330
70
100
AcDbEntity
  8
plate standard v5_0
100
AcDbCircle
 10
-17.92375
 20
3.5075
 30
0.0
 40
0.0500000000000007
100
AcDbArc
 50
359.9999999999995
 51
90.0
  0
LINE
  5
160
330
70
100
AcDbEntity
  8
plate standard v5_0
100
AcDbLine
 10
-8.348749999999999
 20
2.2075
 30
0.0
 11
-8.348749999999999
 21
3.5075
 31
0.0
  0
ARC
  5
161
330
70
100
AcDbEntity
  8
plate standard v5_0
100
AcDbCircle
 10
22.21
 20
2.207499999999997
 30
0.0
 40
0.0499999999999972
210
0.0
220
0.0
230
-1.0
100
AcDbArc
 50
179.9999999999974
 51
270.0000000000041
  0
LINE
  5
162
330
70
100
AcDbEntity
  8
plate standard v5_0
100
AcDbLine
 10
-2.633749999999999
 20
3.5075
 30
0.0
 11
-2.63375
 21
2.2075
 31
0.0
  0
LINE
  5
163
330
70
100
AcDbEntity
  8
plate standard v5_0
100
AcDbLine
 10
-7.79375
 20
3.5575
 30
0.0
 11
-6.49375
 21
3.5575
 31
0.0
  0
LINE
  5
164
330
70
100
AcDbEntity
  8
plate standard v5_0
100
AcDbLine
 10
-17.92375
 20
3.557500000000001
 30
0.0
 11
-19.22375
 21
3.5575
 31
0.0
  0
ARC
  5
165
330
70
100
AcDbEntity
  8
plate standard v5_0
100
AcDbCircle
 10
-9.69875
 20
2.2075
 30
0.0
 40
0.0500000000000007
100
AcDbArc
 50
180.0
 51
270.0
  0
LINE
  5
166
330
70
100
AcDbEntity
  8
plate standard v5_0
100
AcDbLine
 10
-8.796250000000002
 20
4.112499999999999
 30
0.0
 11
-8.79625
 21
5.412500000000001
 31
0.0
  0
ARC
  5
167
330
70
100
AcDbEntity
  8
plate standard v5_0
100
AcDbCircle
 10
-14.46125
 20
5.412499999999999
 30
0.0
 40
0.0500000000000007
100
AcDbArc
 50
90.0
 51
179.9999999999979
  0
LINE
  5
168
330
70
100
AcDbEntity
  8
plate standard v5_0
100
AcDbLine
 10
-3.586250000000001
 20
4.112499999999999
 30
0.0
 11
-3.586250000000001
 21
5.412500000000001
 31
0.0
  0
LINE
  5
169
330
70
100
AcDbEntity
  8
plate standard v5_0
100
AcDbLine
 10
-5.49125
 20
4.112499999999999
 30
0.0
 11
-5.49125
 21
5.412500000000001
 31
0.0
  0
ARC
  5
16A
330
70
100
AcDbEntity
  8
plate standard v5_0
100
AcDbCircle
 10
-1.016875
 20
5.412499999999999
 30
0.0
 40
0.0500000000000009
100
AcDbArc
 50
0.0000000000020356
 51
89.99999999999898
  0
ARC
  5
16B
330
70
100
AcDbEntity
  8
plate standard v5_0
100
AcDbCircle
 10
16.36625000000001
 20
4.112499999999994
 30
0.0
 40
0.0499999999999954
210
0.0
220
0.0
230
-1.0
100
AcDbArc
 50
269.9999999999959
 51
0.0000000000061067
  0
LINE
  5
16C
330
70
100
AcDbEntity
  8
plate standard v5_0
100
AcDbLine
 10
-3.636249999999999
 20
5.4625
 30
0.0
 11
-4.93625
 21
5.4625
 31
0.0
  0
LINE
  5
16D
330
70
100
AcDbEntity
  8
plate standard v5_0
100
AcDbLine
 10
-14.51125
 20
5.412500000000001
 30
0.0
 11
-14.51125
 21
4.112499999999999
 31
0.0
  0
LINE
  5
16E
330
70
100
AcDbEntity
  8
plate standard v5_0
100
AcDbLine
 10
-16.41625
 20
4.112499999999999
 30
0.0
 11
-16.41625
 21
5.412500000000001
 31
0.0
  0
LINE
  5
16F
330
70
100
AcDbEntity
  8
plate standard v5_0
100
AcDbLine
 10
-20.17625
 20
4.062499999999997
 30
0.0
 11
-18.87625
 21
4.0625
 31
0.0
  0
LINE
  5
170
330
70
100
AcDbEntity
  8
plate standard v5_0
100
AcDbLine
 10
-12.55625
 20
5.4625
 30
0.0
 11
-11.25625
 21
5.462500000000002
 31
0.0
  0
LINE
  5
171
330
70
100
AcDbEntity
  8
plate standard v5_0
100
AcDbLine
 10
-4.93625
 20
4.0625
 30
0.0
 11
-3.636249999999999
 21
4.0625
 31
0.0
  0
LINE
  5
172
330
70
100
AcDbEntity
  8
plate standard v5_0
100
AcDbLine
 10
-1.016874999999999
 20
5.4625
 30
0.0
 11
-2.316875
 21
5.4625
 31
0.0
  0
ARC
  5
173
330
70
100
AcDbEntity
  8
plate standard v5_0
100
AcDbCircle
 10
12.55625
 20
5.412499999999997
 30
0.0
 40
0.0500000000000025
210
0.0
220
0.0
230
-1.0
100
AcDbArc
 50
0.0000000000040711
 51
89.99999999999797
  0
ARC
  5
174
330
70
100
AcDbEntity
  8
plate standard v5_0
100
AcDbCircle
 10
-19.22375
 20
3.507499999999996
 30
0.0
 40
0.0500000000000043
100
AcDbArc
 50
90.0
 51
179.9999999999959
  0
ARC
  5
175
330
70
100
AcDbEntity
  8
plate standard v5_0
100
AcDbCircle
 10
-3.63625
 20
5.4125
 30
0.0
 40
0.0499999999999994
100
AcDbArc
 50
0.0000000000010178
 51
89.99999999999898
  0
ARC
  5
176
330
70
100
AcDbEntity
  8
plate standard v5_0
100
AcDbCircle
 10
-16.01875
 20
2.207500000000001
 30
0.0
 40
0.0500000000000007
100
AcDbArc
 50
270.0
 51
359.9999999999984
  0
ARC
  5
177
330
70
100
AcDbEntity
  8
plate standard v5_0
100
AcDbCircle
 10
22.08125
 20
5.412500000000002
 30
0.0
 40
0.0499999999999972
210
0.0
220
0.0
230
-1.0
100
AcDbArc
 50
359.999999999999
 51
90.00000000000406
  0
ARC
  5
178
330
70
100
AcDbEntity
  8
plate standard v5_0
100
AcDbCircle
 10
-1.016874999999999
 20
4.112499999999999
 30
0.0
 40
0.0499999999999998
100
AcDbArc
 50
269.9999999999995
 51
359.999999999999
  0
ARC
  5
179
330
70
100
AcDbEntity
  8
plate standard v5_0
100
AcDbCircle
 10
-13.16125
 20
4.1125
 30
0.0
 40
0.0500000000000007
100
AcDbArc
 50
270.0
 51
359.999999999999
  0
LINE
  5
17A
330
70
100
AcDbEntity
  8
plate standard v5_0
100
AcDbLine
 10
-16.36625
 20
5.4625
 30
0.0
 11
-15.06625
 21
5.462500000000002
 31
0.0
  0
ARC
  5
17B
330
70
100
AcDbEntity
  8
plate standard v5_0
100
AcDbCircle
 10
-18.87624999999999
 20
4.112499999999998
 30
0.0
 40
0.0499999999999989
100
AcDbArc
 50
269.9999999999959
 51
0.0000000000010178
  0
LINE
  5
17C
330
70
100
AcDbEntity
  8
plate standard v5_0
100
AcDbLine
 10
-10.30375
 20
3.5575
 30
0.0
 11
-11.60375
 21
3.5575
 31
0.0
  0
LINE
  5
17D
330
70
100
AcDbEntity
  8
plate standard v5_0
100
AcDbLine
 10
-17.31875
 20
2.1575
 30
0.0
 11
-16.01875
 21
2.1575
 31
0.0
  0
LINE
  5
17E
330
70
100
AcDbEntity
  8
plate standard v5_0
100
AcDbLine
 10
-10.65125
 20
4.062499999999999
 30
0.0
 11
-9.35125
 21
4.0625
 31
0.0
  0
ARC
  5
17F
330
70
100
AcDbEntity
  8
plate standard v5_0
100
AcDbCircle
 10
-20.17625
 20
4.112499999999998
 30
0.0
 40
0.0500000000000007
100
AcDbArc
 50
179.9999999999979
 51
269.9999999999959
  0
ARC
  5
180
330
70
100
AcDbEntity
  8
plate standard v5_0
100
AcDbCircle
 10
-5.541250000000002
 20
4.112500000000001
 30
0.0
 40
0.0500000000000016
100
AcDbArc
 50
270.000000000001
 51
359.999999999998
  0
ARC
  5
181
330
70
100
AcDbEntity
  8
plate standard v5_0
100
AcDbCircle
 10
-2.316874999999998
 20
5.412499999999998
 30
0.0
 40
0.0500000000000016
100
AcDbArc
 50
90.00000000000152
 51
179.9999999999969
  0
ARC
  5
182
330
70
100
AcDbEntity
  8
plate standard v5_0
100
AcDbCircle
 10
-6.841249999999999
 20
4.112499999999999
 30
0.0
 40
0.0499999999999998
100
AcDbArc
 50
180.0
 51
270.0
  0
ARC
  5
183
330
70
100
AcDbEntity
  8
plate standard v5_0
100
AcDbCircle
 10
16.36625000000001
 20
5.412500000000002
 30
0.0
 40
0.0499999999999972
210
0.0
220
0.0
230
-1.0
100
AcDbArc
 50
359.999999999999
 51
90.00000000000406
  0
LINE
  5
184
330
70
100
AcDbEntity
  8
plate standard v5_0
100
AcDbLine
 10
-22.16
 20
3.5075
 30
0.0
 11
-22.16
 21
2.2075
 31
0.0
  0
LINE
  5
185
330
70
100
AcDbEntity
  8
plate standard v5_0
100
AcDbLine
 10
-18.87625
 20
5.462500000000002
 30
0.0
 11
-20.17625
 21
5.4625
 31
0.0
  0
ARC
  5
186
330
70
100
AcDbEntity
  8
plate standard v5_0
100
AcDbCircle
 10
11.25625
 20
4.1125
 30
0.0
 40
0.0500000000000007
210
0.0
220
0.0
230
-1.0
100
AcDbArc
 50
180.000000000001
 51
270.0
  0
LINE
  5
187
330
70
100
AcDbEntity
  8
plate standard v5_0
100
AcDbLine
 10
-11.20625
 20
5.412500000000001
 30
0.0
 11
-11.20625
 21
4.112499999999999
 31
0.0
  0
LINE
  5
188
330
70
100
AcDbEntity
  8
plate standard v5_0
100
AcDbLine
 10
-12.20875
 20
3.5575
 30
0.0
 11
-13.50875
 21
3.5575
 31
0.0
  0
LINE
  5
189
330
70
100
AcDbEntity
  8
plate standard v5_0
100
AcDbLine
 10
-12.60625
 20
4.112499999999999
 30
0.0
 11
-12.60625
 21
5.412500000000001
 31
0.0
  0
LINE
  5
18A
330
70
100
AcDbEntity
  8
plate standard v5_0
100
AcDbLine
 10
-18.82625
 20
4.112499999999999
 30
0.0
 11
-18.82625
 21
5.412500000000001
 31
0.0
  0
ARC
  5
18B
330
70
100
AcDbEntity
  8
plate standard v5_0
100
AcDbCircle
 10
-9.351249999999998
 20
5.412500000000004
 30
0.0
 40
0.0499999999999972
100
AcDbArc
 50
359.9999999999959
 51
90.00000000000204
  0
LINE
  5
18C
330
70
100
AcDbEntity
  8
plate standard v5_0
100
AcDbLine
 10
-11.60375
 20
2.157499999999999
 30
0.0
 11
-10.30375
 21
2.1575
 31
0.0
  0
ARC
  5
18D
330
70
100
AcDbEntity
  8
plate standard v5_0
100
AcDbCircle
 10
-9.351250000000003
 20
4.112500000000002
 30
0.0
 40
0.0500000000000025
100
AcDbArc
 50
270.0000000000041
 51
359.9999999999969
  0
LINE
  5
18E
330
70
100
AcDbEntity
  8
plate standard v5_0
100
AcDbLine
 10
-2.366874999999999
 20
5.412500000000001
 30
0.0
 11
-2.366874999999999
 21
4.112499999999999
 31
0.0
  0
ARC
  5
18F
330
70
100
AcDbEntity
  8
plate standard v5_0
100
AcDbCircle
 10
-13.16125
 20
5.412500000000002
 30
0.0
 40
0.0500000000000007
100
AcDbArc
 50
359.999999999999
 51
90.0
  0
ARC
  5
190
330
70
100
AcDbEntity
  8
plate standard v5_0
100
AcDbCircle
 10
-4.93625
 20
4.112499999999999
 30
0.0
 40
0.0499999999999998
100
AcDbArc
 50
180.0
 51
270.0
  0
LINE
  5
191
330
70
100
AcDbEntity
  8
plate standard v5_0
100
AcDbLine
 10
-9.35125
 20
5.462500000000002
 30
0.0
 11
-10.65125
 21
5.4625
 31
0.0
  0
ARC
  5
192
330
70
100
AcDbEntity
  8
plate standard v5_0
100
AcDbCircle
 10
15.06625
 20
5.412500000000002
 30
0.0
 40
0.0499999999999998
210
0.0
220
0.0
230
-1.0
100
AcDbArc
 50
90.0
 51
180.000000000001
  0
ARC
  5
193
330
70
100
AcDbEntity
  8
plate standard v5_0
100
AcDbCircle
 10
-14.46125
 20
4.112500000000001
 30
0.0
 40
0.0500000000000025
100
AcDbArc
 50
180.000000000002
 51
269.999999999998
  0
ARC
  5
194
330
70
100
AcDbEntity
  8
plate standard v5_0
100
AcDbCircle
 10
8.746250000000001
 20
5.412500000000001
 30
0.0
 40
0.0499999999999989
210
0.0
220
0.0
230
-1.0
100
AcDbArc
 50
0.0
 51
90.0
  0
LINE
  5
195
330
70
100
AcDbEntity
  8
plate standard v5_0
100
AcDbLine
 10
-13.11125
 20
4.112499999999999
 30
0.0
 11
-13.11125
 21
5.412500000000001
 31
0.0
  0
LINE
  5
196
330
70
100
AcDbEntity
  8
plate standard v5_0
100
AcDbLine
 10
-6.841249999999999
 20
4.0625
 30
0.0
 11
-5.541250000000001
 21
4.0625
 31
0.0
  0
LINE
  5
197
330
70
100
AcDbEntity
  8
plate standard v5_0
100
AcDbLine
 10
-9.69875
 20
2.157499999999999
 30
0.0
 11
-8.398749999999997
 21
2.1575
 31
0.0
  0
ARC
  5
198
330
70
100
AcDbEntity
  8
plate standard v5_0
100
AcDbCircle
 10
-4.936249999999999
 20
5.412499999999998
 30
0.0
 40
0.0500000000000016
100
AcDbArc
 50
90.00000000000103
 51
179.9999999999969
  0
ARC
  5
199
330
70
100
AcDbEntity
  8
plate standard v5_0
100
AcDbCircle
 10
-2.316874999999997
 20
4.112500000000001
 30
0.0
 40
0.0500000000000021
100
AcDbArc
 50
180.000000000002
 51
269.9999999999974
  0
LINE
  5
19A
330
70
100
AcDbEntity
  8
plate standard v5_0
100
AcDbLine
 10
-6.89125
 20
5.412500000000001
 30
0.0
 11
-6.891249999999999
 21
4.112499999999999
 31
0.0
  0
LINE
  5
19B
330
70
100
AcDbEntity
  8
plate standard v5_0
100
AcDbLine
 10
-18.32125
 20
4.112499999999999
 30
0.0
 11
-18.32125
 21
5.412500000000001
 31
0.0
  0
ARC
  5
19C
330
70
100
AcDbEntity
  8
plate standard v5_0
100
AcDbCircle
 10
20.78125000000001
 20
4.1125
 30
0.0
 40
0.0500000000000043
210
0.0
220
0.0
230
-1.0
100
AcDbArc
 50
180.000000000001
 51
269.9999999999919
  0
ARC
  5
19D
330
70
100
AcDbEntity
  8
plate standard v5_0
100
AcDbCircle
 10
18.27125
 20
4.112499999999999
 30
0.0
 40
0.0500000000000007
210
0.0
220
0.0
230
-1.0
100
AcDbArc
 50
270.0000000000041
 51
0.0
  0
ARC
  5
19E
330
70
100
AcDbEntity
  8
plate standard v5_0
100
AcDbCircle
 10
18.27125
 20
5.4125
 30
0.0
 40
0.0499999999999972
210
0.0
220
0.0
230
-1.0
100
AcDbArc
 50
0.0000000000010178
 51
90.0
  0
ARC
  5
19F
330
70
100
AcDbEntity
  8
plate standard v5_0
100
AcDbCircle
 10
-10.65125
 20
5.412500000000003
 30
0.0
 40
0.0499999999999972
100
AcDbArc
 50
89.99999999999797
 51
180.000000000002
  0
LINE
  5
1A0
330
70
100
AcDbEntity
  8
plate standard v5_0
100
AcDbLine
 10
-22.21
 20
2.1575
 30
0.0
 11
-23.51
 21
2.157499999999999
 31
0.0
  0
ARC
  5
1A1
330
70
100
AcDbEntity
  8
plate standard v5_0
100
AcDbCircle
 10
-18.87624999999999
 20
5.412500000000003
 30
0.0
 40
0.0499999999999972
100
AcDbArc
 50
359.999999999998
 51
90.00000000000406
  0
LINE
  5
1A2
330
70
100
AcDbEntity
  8
plate standard v5_0
100
AcDbLine
 10
-0.9668749999999997
 20
4.112499999999998
 30
0.0
 11
-0.9668749999999999
 21
5.412500000000001
 31
0.0
  0
ARC
  5
1A3
330
70
100
AcDbEntity
  8
plate standard v5_0
100
AcDbCircle
 10
16.97125
 20
4.112499999999998
 30
0.0
 40
0.0500000000000007
210
0.0
220
0.0
230
-1.0
100
AcDbArc
 50
179.9999999999979
 51
269.9999999999959
  0
ARC
  5
1A4
330
70
100
AcDbEntity
  8
plate standard v5_0
100
AcDbCircle
 10
-10.65125
 20
4.112499999999998
 30
0.0
 40
0.0500000000000007
100
AcDbArc
 50
179.999999999999
 51
269.9999999999959
  0
ARC
  5
1A5
330
70
100
AcDbEntity
  8
plate standard v5_0
100
AcDbCircle
 10
15.06625
 20
4.1125
 30
0.0
 40
0.0500000000000007
210
0.0
220
0.0
230
-1.0
100
AcDbArc
 50
180.000000000001
 51
270.0
  0
ARC
  5
1A6
330
70
100
AcDbEntity
  8
plate standard v5_0
100
AcDbCircle
 10
16.97124999999999
 20
5.412500000000006
 30
0.0
 40
0.0499999999999954
210
0.0
220
0.0
230
-1.0
100
AcDbArc
 50
89.99999999999593
 51
180.0000000000061
  0
ARC
  5
1A7
330
70
100
AcDbEntity
  8
plate standard v5_0
100
AcDbCircle
 10
11.25625
 20
5.412500000000002
 30
0.0
 40
0.0499999999999998
210
0.0
220
0.0
230
-1.0
100
AcDbArc
 50
90.0
 51
180.000000000001
  0
LINE
  5
1A8
330
70
100
AcDbEntity
  8
plate standard v5_0
100
AcDbLine
 10
-22.08125
 20
5.462499999999999
 30
0.0
 11
-20.78125
 21
5.462500000000002
 31
0.0
  0
ARC
  5
1A9
330
70
100
AcDbEntity
  8
plate standard v5_0
100
AcDbCircle
 10
22.08125
 20
4.112499999999994
 30
0.0
 40
0.0499999999999954
210
0.0
220
0.0
230
-1.0
100
AcDbArc
 50
269.9999999999959
 51
0.0000000000061067
  0
LINE
  5
1AA
330
70
100
AcDbEntity
  8
plate standard v5_0
100
AcDbLine
 10
-16.92125
 20
5.412500000000001
 30
0.0
 11
-16.92125
 21
4.112499999999999
 31
0.0
  0
LINE
  5
1AB
330
70
100
AcDbEntity
  8
plate standard v5_0
100
AcDbLine
 10
-11.25625
 20
4.0625
 30
0.0
 11
-12.55625
 21
4.062499999999999
 31
0.0
  0
LINE
  5
1AC
330
70
100
AcDbEntity
  8
plate standard v5_0
100
AcDbLine
 10
-14.46125
 20
4.062499999999999
 30
0.0
 11
-13.16125
 21
4.0625
 31
0.0
  0
ARC
  5
1AD
330
70
100
AcDbEntity
  8
plate standard v5_0
100
AcDbCircle
 10
20.78125
 20
5.412500000000004
 30
0.0
 40
0.0499999999999981
210
0.0
220
0.0
230
-1.0
100
AcDbArc
 50
90.00000000000406
 51
180.000000000003
  0
LINE
  5
1AE
330
70
100
AcDbEntity
  8
plate standard v5_0
100
AcDbLine
 10
-13.16125
 20
5.462500000000003
 30
0.0
 11
-14.46125
 21
5.4625
 31
0.0
  0
ARC
  5
1AF
330
70
100
AcDbEntity
  8
plate standard v5_0
100
AcDbCircle
 10
12.55625
 20
4.112500000000001
 30
0.0
 40
0.0500000000000025
210
0.0
220
0.0
230
-1.0
100
AcDbArc
 50
270.0000000000021
 51
359.999999999998
  0
LINE
  5
1B0
330
70
100
AcDbEntity
  8
plate standard v5_0
100
AcDbLine
 10
-5.541250000000001
 20
5.4625
 30
0.0
 11
-6.841249999999999
 21
5.4625
 31
0.0
  0
ARC
  5
1B1
330
70
100
AcDbEntity
  8
plate standard v5_0
100
AcDbCircle
 10
-20.17625000000001
 20
5.412500000000006
 30
0.0
 40
0.0499999999999936
100
AcDbArc
 50
89.99999999999186
 51
180.0000000000061
  0
LINE
  5
1B2
330
70
100
AcDbEntity
  8
plate standard v5_0
100
AcDbLine
 10
-16.97124999999999
 20
4.062499999999997
 30
0.0
 11
-18.27125
 21
4.062499999999999
 31
0.0
  0
ARC
  5
1B3
330
70
100
AcDbEntity
  8
plate standard v5_0
100
AcDbCircle
 10
-3.636249999999999
 20
4.112499999999998
 30
0.0
 40
0.0499999999999981
100
AcDbArc
 50
270.0
 51
0.0000000000020356
  0
LINE
  5
1B4
330
70
100
AcDbEntity
  8
plate standard v5_0
100
AcDbLine
 10
-15.06625
 20
4.0625
 30
0.0
 11
-16.36625
 21
4.062499999999999
 31
0.0
  0
LINE
  5
1B5
330
70
100
AcDbEntity
  8
plate standard v5_0
100
AcDbLine
 10
-19.71450337376706
 20
7.367499999999998
 30
0.0
 11
-4.900000073015689
 21
7.367499999999998
 31
0.0
  0
LINE
  5
1B6
330
70
100
AcDbEntity
  8
plate standard v5_0
100
AcDbLine
 10
-21.31877699709617
 20
7.367499999999998
 30
0.0
 11
-19.288125
 21
7.367499999999998
 31
0.0
  0
LINE
  5
1B7
330
70
100
AcDbEntity
  8
plate standard v5_0
100
AcDbLine
 10
-9.301250000000001
 20
4.112499999999999
 30
0.0
 11
-9.301250000000001
 21
5.412500000000001
 31
0.0
  0
LINE
  5
1B8
330
70
100
AcDbEntity
  8
plate standard v5_0
100
AcDbLine
 10
-2.316875
 20
4.0625
 30
0.0
 11
-1.016874999999999
 21
4.0625
 31
0.0
  0
LINE
  5
1B9
330
70
100
AcDbEntity
  8
plate standard v5_0
100
AcDbLine
 10
-20.78125
 20
4.062499999999996
 30
0.0
 11
-22.08125
 21
4.062499999999999
 31
0.0
  0
LINE
  5
1BA
330
70
100
AcDbEntity
  8
plate standard v5_0
100
AcDbLine
 10
-18.27125
 20
5.4625
 30
0.0
 11
-16.97125
 21
5.462500000000002
 31
0.0
  0
LINE
  5
1BB
330
70
100
AcDbEntity
  8
plate standard v5_0
100
AcDbLine
 10
-20.73125
 20
5.412500000000001
 30
0.0
 11
-20.73125
 21
4.112499999999999
 31
0.0
  0
ARC
  5
1BC
330
70
100
AcDbEntity
  8
plate standard v5_0
100
AcDbCircle
 10
-5.54125
 20
5.4125
 30
0.0
 40
0.0499999999999998
100
AcDbArc
 50
0.0000000000010178
 51
90.00000000000103
  0
LINE
  5
1BD
330
70
100
AcDbEntity
  8
plate standard v5_0
100
AcDbLine
 10
-13.50875
 20
2.157499999999999
 30
0.0
 11
-12.20875
 21
2.1575
 31
0.0
  0
ARC
  5
1BE
330
70
100
AcDbEntity
  8
plate standard v5_0
100
AcDbCircle
 10
-6.841249999999998
 20
5.412499999999998
 30
0.0
 40
0.0500000000000016
100
AcDbArc
 50
90.00000000000103
 51
179.9999999999969
  0
LINE
  5
1BF
330
70
100
AcDbEntity
  8
plate standard v5_0
100
AcDbLine
 10
-15.01625
 20
5.412500000000001
 30
0.0
 11
-15.01625
 21
4.112499999999999
 31
0.0
  0
LINE
  5
1C0
330
70
100
AcDbEntity
  8
plate standard v5_0
100
AcDbLine
 10
-22.13125
 20
4.112499999999999
 30
0.0
 11
-22.13125
 21
5.412500000000001
 31
0.0
  0
LINE
  5
1C1
330
70
100
AcDbEntity
  8
plate standard v5_0
100
AcDbLine
 10
-20.78125
 20
5.9675
 30
0.0
 11
-6.126875
 21
5.9675
 31
0.0
  0
LINE
  5
1C2
330
70
100
AcDbEntity
  8
plate standard v5_0
100
AcDbLine
 10
-20.22625
 20
5.412500000000001
 30
0.0
 11
-20.22625
 21
4.112499999999999
 31
0.0
  0
LINE
  5
1C3
330
70
100
AcDbEntity
  8
plate standard v5_0
100
AcDbLine
 10
-0.3024999897755201
 20
1.6525
 30
0.0
 11
-0.2500000046365465
 21
1.652523168624221
 31
0.0
  0
LINE
  5
1C4
330
70
100
AcDbEntity
  8
plate standard v5_0
100
AcDbLine
 10
-10.70125
 20
5.412500000000001
 30
0.0
 11
-10.70125
 21
4.112499999999999
 31
0.0
  0
LINE
  5
1C5
330
70
100
AcDbEntity
  8
plate standard v5_0
100
AcDbLine
 10
-0.2500000046365465
 20
1.652523168624221
 30
0.0
 11
-0.2525000000000013
 21
7.317500000000006
 31
0.0
  0
ARC
  5
1C6
330
70
100
AcDbEntity
  8
plate standard v5_0
100
AcDbCircle
 10
-3.76520601566602
 20
1.581806688343071
 30
0.0
 40
0.0800000000000001
100
AcDbArc
 50
0.0
 51
89.33670757215454
  0
LINE
  5
1C7
330
70
100
AcDbEntity
  8
plate standard v5_0
100
AcDbLine
 10
-3.821132506514015
 20
1.662459518978094
 30
0.0
 11
-3.854369919677281
 21
1.662803945624199
 31
0.0
  0
LINE
  5
1C8
330
70
100
AcDbEntity
  8
plate standard v5_0
100
AcDbLine
 10
-21.63000032186508
 20
1.890000029802324
 30
0.0
 11
-21.63000032186508
 21
1.850000029802322
 31
0.0
  0
ARC
  5
1C9
330
70
100
AcDbEntity
  8
plate standard v5_0
100
AcDbCircle
 10
-2.520000037252903
 20
1.850000029802322
 30
0.0
 40
0.0800000000000001
100
AcDbArc
 50
270.0
 51
0.0
  0
ARC
  5
1CA
330
70
100
AcDbEntity
  8
plate standard v5_0
100
AcDbCircle
 10
-2.520000037252903
 20
5.650000086426734
 30
0.0
 40
0.0800000000000001
100
AcDbArc
 50
270.0
 51
0.0
  0
LINE
  5
1CB
330
70
100
AcDbEntity
  8
plate standard v5_0
100
AcDbLine
 10
-24.03625
 20
5.967499999999998
 30
0.0
 11
-23.98100113903638
 21
5.967499999999998
 31
0.0
  0
LINE
  5
1CC
330
70
100
AcDbEntity
  8
plate standard v5_0
100
AcDbLine
 10
-21.55000032186508
 20
3.670000055134296
 30
0.0
 11
-2.520000037252902
 21
3.670000055134296
 31
0.0
  0
LINE
  5
1CD
330
70
100
AcDbEntity
  8
plate standard v5_0
100
AcDbLine
 10
-3.68520601566602
 20
0.3525245405190667
 30
0.0
 11
-3.68520601566602
 21
1.581806688343071
 31
0.0
  0
ARC
  5
1CE
330
70
100
AcDbEntity
  8
plate standard v5_0
100
AcDbCircle
 10
-2.520000037252903
 20
1.890000029802324
 30
0.0
 40
0.0800000000000001
100
AcDbArc
 50
0.0
 51
90.0
  0
ARC
  5
1CF
330
70
100
AcDbEntity
  8
plate standard v5_0
100
AcDbCircle
 10
-2.520000037252903
 20
5.690000086426737
 30
0.0
 40
0.0800000000000001
100
AcDbArc
 50
0.0
 51
90.0
  0
ARC
  5
1D0
330
70
100
AcDbEntity
  8
plate standard v5_0
100
AcDbCircle
 10
-21.55000032186508
 20
1.850000029802322
 30
0.0
 40
0.0799999999999983
100
AcDbArc
 50
180.0
 51
270.0
  0
LINE
  5
1D1
330
70
100
AcDbEntity
  8
plate standard v5_0
100
AcDbLine
 10
-21.62786478858198
 20
5.690000086426737
 30
0.0
 11
-21.62786478858198
 21
5.650000086426735
 31
0.0
  0
LINE
  5
1D2
330
70
100
AcDbEntity
  8
plate standard v5_0
100
AcDbLine
 10
-21.55000032186508
 20
1.770000029802324
 30
0.0
 11
-2.520000037252902
 21
1.770000029802322
 31
0.0
  0
ARC
  5
1D3
330
70
100
AcDbEntity
  8
plate standard v5_0
100
AcDbCircle
 10
-21.55000032186508
 20
1.890000029802324
 30
0.0
 40
0.0800000000000001
100
AcDbArc
 50
90.0
 51
180.0
  0
LINE
  5
1D4
330
70
100
AcDbEntity
  8
plate standard v5_0
100
AcDbLine
 10
-2.440000037252902
 20
3.750000055134296
 30
0.0
 11
-2.440000037252902
 21
3.820000058114528
 31
0.0
  0
LINE
  5
1D5
330
70
100
AcDbEntity
  8
plate standard v5_0
100
AcDbLine
 10
-2.440000037252902
 20
1.850000029802322
 30
0.0
 11
-2.440000037252902
 21
1.890000029802324
 31
0.0
  0
LINE
  5
1D6
330
70
100
AcDbEntity
  8
plate standard v5_0
100
AcDbLine
 10
-21.54786478858198
 20
5.570000086426737
 30
0.0
 11
-2.520000037252902
 21
5.570000086426734
 31
0.0
  0
LINE
  5
1D7
330
70
100
AcDbEntity
  8
plate standard v5_0
100
AcDbLine
 10
-21.63000032186508
 20
3.820000058114528
 30
0.0
 11
-21.63000032186508
 21
3.750000055134294
 31
0.0
  0
ARC
  5
1D8
330
70
100
AcDbEntity
  8
plate standard v5_0
100
AcDbCircle
 10
-21.55000032186508
 20
3.750000055134294
 30
0.0
 40
0.0799999999999983
100
AcDbArc
 50
180.0
 51
270.0
  0
ARC
  5
1D9
330
70
100
AcDbEntity
  8
plate standard v5_0
100
AcDbCircle
 10
-21.55000032186508
 20
3.820000058114528
 30
0.0
 40
0.0800000000000001
100
AcDbArc
 50
90.0
 51
180.0
  0
ARC
  5
1DA
330
70
100
AcDbEntity
  8
plate standard v5_0
100
AcDbCircle
 10
-21.54786478858198
 20
5.690000086426737
 30
0.0
 40
0.0800000000000001
100
AcDbArc
 50
90.0
 51
180.0
  0
LINE
  5
1DB
330
70
100
AcDbEntity
  8
plate standard v5_0
100
AcDbLine
 10
-24.03625
 20
0.3025000000000002
 30
0.0
 11
-24.03625
 21
4.062499999999999
 31
0.0
  0
LINE
  5
1DC
330
70
100
AcDbEntity
  8
plate standard v5_0
100
AcDbLine
 10
-2.520000037252902
 20
3.900000058114528
 30
0.0
 11
-21.55000032186508
 21
3.900000058114528
 31
0.0
  0
ARC
  5
1DD
330
70
100
AcDbEntity
  8
plate standard v5_0
100
AcDbCircle
 10
-5.67020601566602
 20
0.3525245405190667
 30
0.0
 40
0.08
100
AcDbArc
 50
270.0
 51
0.0
  0
LINE
  5
1DE
330
70
100
AcDbEntity
  8
plate standard v5_0
100
AcDbLine
 10
-5.59020601566602
 20
0.3525245405190667
 30
0.0
 11
-5.59020601566602
 21
1.581806688343071
 31
0.0
  0
LINE
  5
1DF
330
70
100
AcDbEntity
  8
plate standard v5_0
100
AcDbLine
 10
-2.440000037252903
 20
5.650000086426734
 30
0.0
 11
-2.440000037252903
 21
5.690000086426737
 31
0.0
  0
ARC
  5
1E0
330
70
100
AcDbEntity
  8
plate standard v5_0
100
AcDbCircle
 10
-2.520000037252902
 20
3.820000058114528
 30
0.0
 40
0.0800000000000001
100
AcDbArc
 50
0.0
 51
90.0
  0
LINE
  5
1E1
330
70
100
AcDbEntity
  8
plate standard v5_0
100
AcDbLine
 10
-24.03625
 20
5.967499999999998
 30
0.0
 11
-24.03625
 21
5.4625
 31
0.0
  0
LINE
  5
1E2
330
70
100
AcDbEntity
  8
plate standard v5_0
100
AcDbLine
 10
-23.98625
 20
5.4625
 30
0.0
 11
-24.03625
 21
5.4625
 31
0.0
  0
ARC
  5
1E3
330
70
100
AcDbEntity
  8
plate standard v5_0
100
AcDbCircle
 10
-21.54786478858198
 20
5.650000086426735
 30
0.0
 40
0.0799999999999983
100
AcDbArc
 50
180.0
 51
270.0
  0
ARC
  5
1E4
330
70
100
AcDbEntity
  8
plate standard v5_0
100
AcDbCircle
 10
-5.67020601566602
 20
1.581806688343071
 30
0.0
 40
0.0800000000000001
100
AcDbArc
 50
0.0
 51
89.33670757215422
  0
LINE
  5
1E5
330
70
100
AcDbEntity
  8
plate standard v5_0
100
AcDbLine
 10
-2.520000037252903
 20
5.770000086426737
 30
0.0
 11
-21.54786478858198
 21
5.770000086426737
 31
0.0
  0
ARC
  5
1E6
330
70
100
AcDbEntity
  8
plate standard v5_0
100
AcDbCircle
 10
-3.76520601566602
 20
0.3525245405190667
 30
0.0
 40
0.08
100
AcDbArc
 50
270.0
 51
0.0
  0
ARC
  5
1E7
330
70
100
AcDbEntity
  8
plate standard v5_0
100
AcDbCircle
 10
-3.855198884682444
 20
0.3525245405190667
 30
0.0
 40
0.0800000000000001
100
AcDbArc
 50
180.0
 51
270.0
  0
LINE
  5
1E8
330
70
100
AcDbEntity
  8
plate standard v5_0
100
AcDbLine
 10
-23.98625
 20
4.062499999999999
 30
0.0
 11
-24.03625
 21
4.062499999999999
 31
0.0
  0
LINE
  5
1E9
330
70
100
AcDbEntity
  8
plate standard v5_0
100
AcDbLine
 10
-5.726132506514015
 20
1.662459518978094
 30
0.0
 11
-5.669279905410775
 21
1.661801327662185
 31
0.0
  0
LINE
  5
1EA
330
70
100
AcDbEntity
  8
plate standard v5_0
100
AcDbLine
 10
-3.821132506514015
 20
1.662459518978094
 30
0.0
 11
-3.764279905410775
 21
1.661801327662185
 31
0.0
  0
LINE
  5
1EB
330
70
100
AcDbEntity
  8
plate standard v5_0
100
AcDbLine
 10
-5.726132506514015
 20
1.662459518978094
 30
0.0
 11
-5.759369919677281
 21
1.662803945624199
 31
0.0
  0
LINE
  5
1EC
330
70
100
AcDbEntity
  8
plate standard v5_0
100
AcDbLine
 10
-5.760198884682445
 20
0.2725245405190667
 30
0.0
 11
-5.67020601566602
 21
0.2725245405190667
 31
0.0
  0
LINE
  5
1ED
330
70
100
AcDbEntity
  8
plate standard v5_0
100
AcDbLine
 10
-2.520000037252903
 20
1.970000029802324
 30
0.0
 11
-21.55000032186508
 21
1.970000029802324
 31
0.0
  0
LINE
  5
1EE
330
70
100
AcDbEntity
  8
plate standard v5_0
100
AcDbLine
 10
-3.855198884682444
 20
0.2725245405190667
 30
0.0
 11
-3.76520601566602
 21
0.2725245405190667
 31
0.0
  0
ARC
  5
1EF
330
70
100
AcDbEntity
  8
plate standard v5_0
100
AcDbCircle
 10
-2.520000037252902
 20
3.750000055134296
 30
0.0
 40
0.0800000000000001
100
AcDbArc
 50
270.0
 51
0.0
  0
ARC
  5
1F0
330
70
100
AcDbEntity
  8
plate standard v5_0
100
AcDbCircle
 10
-3.855198884682396
 20
1.582808240633069
 30
0.0
 40
0.0800000000000479
100
AcDbArc
 50
89.40628692298604
 51
180.0
  0
LINE
  5
1F1
330
70
100
AcDbEntity
  8
plate standard v5_0
100
AcDbLine
 10
-3.935198884682444
 20
1.582808240633069
 30
0.0
 11
-3.935198884682444
 21
0.3525245405190667
 31
0.0
  0
ARC
  5
1F2
330
70
100
AcDbEntity
  8
plate standard v5_0
100
AcDbCircle
 10
-5.760198884682445
 20
0.3525245405190667
 30
0.0
 40
0.0800000000000001
100
AcDbArc
 50
180.0
 51
270.0
  0
ARC
  5
1F3
330
70
100
AcDbEntity
  8
plate standard v5_0
100
AcDbCircle
 10
-9.48020601566602
 20
0.3525245405190667
 30
0.0
 40
0.08
100
AcDbArc
 50
270.0
 51
0.0
  0
LINE
  5
1F4
330
70
100
AcDbEntity
  8
plate standard v5_0
100
AcDbLine
 10
-9.400206015666022
 20
0.3525245405190667
 30
0.0
 11
-9.400206015666022
 21
1.581806688343071
 31
0.0
  0
LINE
  5
1F5
330
70
100
AcDbEntity
  8
plate standard v5_0
100
AcDbLine
 10
-15.28519888468244
 20
0.2725245405190667
 30
0.0
 11
-15.19520601566602
 21
0.2725245405190667
 31
0.0
  0
LINE
  5
1F6
330
70
100
AcDbEntity
  8
plate standard v5_0
100
AcDbLine
 10
-9.536132506514015
 20
1.662459518978094
 30
0.0
 11
-9.479279905410775
 21
1.661801327662185
 31
0.0
  0
ARC
  5
1F7
330
70
100
AcDbEntity
  8
plate standard v5_0
100
AcDbCircle
 10
-9.570198884682397
 20
1.582808240633069
 30
0.0
 40
0.080000000000048
100
AcDbArc
 50
89.40628692298508
 51
180.0
  0
ARC
  5
1F8
330
70
100
AcDbEntity
  8
plate standard v5_0
100
AcDbCircle
 10
-7.665198884682444
 20
0.3525245405190667
 30
0.0
 40
0.0800000000000001
100
AcDbArc
 50
180.0
 51
270.0
  0
LINE
  5
1F9
330
70
100
AcDbEntity
  8
plate standard v5_0
100
AcDbLine
 10
-17.02020601566602
 20
0.3525245405190667
 30
0.0
 11
-17.02020601566602
 21
1.581806688343071
 31
0.0
  0
ARC
  5
1FA
330
70
100
AcDbEntity
  8
plate standard v5_0
100
AcDbCircle
 10
-17.10020601566602
 20
1.581806688343071
 30
0.0
 40
0.0799999999999983
100
AcDbArc
 50
0.0
 51
89.33670757215358
  0
ARC
  5
1FB
330
70
100
AcDbEntity
  8
plate standard v5_0
100
AcDbCircle
 10
-15.19520601566602
 20
0.3525245405190667
 30
0.0
 40
0.08
100
AcDbArc
 50
270.0
 51
0.0
  0
LINE
  5
1FC
330
70
100
AcDbEntity
  8
plate standard v5_0
100
AcDbLine
 10
-9.570198884682445
 20
0.2725245405190667
 30
0.0
 11
-9.48020601566602
 21
0.2725245405190667
 31
0.0
  0
LINE
  5
1FD
330
70
100
AcDbEntity
  8
plate standard v5_0
100
AcDbLine
 10
-7.49520601566602
 20
0.3525245405190667
 30
0.0
 11
-7.49520601566602
 21
1.581806688343071
 31
0.0
  0
LINE
  5
1FE
330
70
100
AcDbEntity
  8
plate standard v5_0
100
AcDbLine
 10
-7.631132506514015
 20
1.662459518978094
 30
0.0
 11
-7.574279905410776
 21
1.661801327662185
 31
0.0
  0
LINE
  5
1FF
330
70
100
AcDbEntity
  8
plate standard v5_0
100
AcDbLine
 10
-7.631132506514015
 20
1.662459518978094
 30
0.0
 11
-7.664369919677282
 21
1.662803945624199
 31
0.0
  0
LINE
  5
200
330
70
100
AcDbEntity
  8
plate standard v5_0
100
AcDbLine
 10
-13.38019888468245
 20
0.2725245405190667
 30
0.0
 11
-13.29020601566602
 21
0.2725245405190667
 31
0.0
  0
LINE
  5
201
330
70
100
AcDbEntity
  8
plate standard v5_0
100
AcDbLine
 10
-9.536132506514015
 20
1.662459518978094
 30
0.0
 11
-9.569369919677281
 21
1.662803945624199
 31
0.0
  0
LINE
  5
202
330
70
100
AcDbEntity
  8
plate standard v5_0
100
AcDbLine
 10
-7.665198884682444
 20
0.2725245405190667
 30
0.0
 11
-7.575206015666021
 21
0.2725245405190667
 31
0.0
  0
ARC
  5
203
330
70
100
AcDbEntity
  8
plate standard v5_0
100
AcDbCircle
 10
-7.575206015666021
 20
1.581806688343071
 30
0.0
 40
0.0800000000000001
100
AcDbArc
 50
0.0
 51
89.33670757215486
  0
LINE
  5
204
330
70
100
AcDbEntity
  8
plate standard v5_0
100
AcDbLine
 10
-15.25113250651402
 20
1.662459518978094
 30
0.0
 11
-15.19427990541078
 21
1.661801327662185
 31
0.0
  0
ARC
  5
205
330
70
100
AcDbEntity
  8
plate standard v5_0
100
AcDbCircle
 10
-9.570198884682445
 20
0.3525245405190667
 30
0.0
 40
0.0800000000000001
100
AcDbArc
 50
180.0
 51
270.0
  0
ARC
  5
206
330
70
100
AcDbEntity
  8
plate standard v5_0
100
AcDbCircle
 10
-13.29020601566602
 20
0.3525245405190667
 30
0.0
 40
0.08
100
AcDbArc
 50
270.0
 51
0.0
  0
LINE
  5
207
330
70
100
AcDbEntity
  8
plate standard v5_0
100
AcDbLine
 10
-13.21020601566602
 20
0.3525245405190667
 30
0.0
 11
-13.21020601566602
 21
1.581806688343071
 31
0.0
  0
ARC
  5
208
330
70
100
AcDbEntity
  8
plate standard v5_0
100
AcDbCircle
 10
-7.575206015666021
 20
0.3525245405190667
 30
0.0
 40
0.08
100
AcDbArc
 50
270.0
 51
0.0
  0
ARC
  5
209
330
70
100
AcDbEntity
  8
plate standard v5_0
100
AcDbCircle
 10
-15.19520601566602
 20
1.581806688343071
 30
0.0
 40
0.0800000000000001
100
AcDbArc
 50
0.0
 51
89.33670757215486
  0
LINE
  5
20A
330
70
100
AcDbEntity
  8
plate standard v5_0
100
AcDbLine
 10
-15.25113250651402
 20
1.662459518978094
 30
0.0
 11
-15.28436991967728
 21
1.662803945624199
 31
0.0
  0
ARC
  5
20B
330
70
100
AcDbEntity
  8
plate standard v5_0
100
AcDbCircle
 10
-13.29020601566602
 20
1.581806688343071
 30
0.0
 40
0.0800000000000019
100
AcDbArc
 50
0.0
 51
89.33670757215358
  0
LINE
  5
20C
330
70
100
AcDbEntity
  8
plate standard v5_0
100
AcDbLine
 10
-17.19019888468244
 20
0.2725245405190667
 30
0.0
 11
-17.10020601566602
 21
0.2725245405190667
 31
0.0
  0
LINE
  5
20D
330
70
100
AcDbEntity
  8
plate standard v5_0
100
AcDbLine
 10
-13.34613250651402
 20
1.662459518978094
 30
0.0
 11
-13.28927990541078
 21
1.661801327662185
 31
0.0
  0
LINE
  5
20E
330
70
100
AcDbEntity
  8
plate standard v5_0
100
AcDbLine
 10
-17.15613250651401
 20
1.662459518978094
 30
0.0
 11
-17.09927990541077
 21
1.661801327662185
 31
0.0
  0
LINE
  5
20F
330
70
100
AcDbEntity
  8
plate standard v5_0
100
AcDbLine
 10
-13.34613250651402
 20
1.662459518978094
 30
0.0
 11
-13.37936991967728
 21
1.662803945624199
 31
0.0
  0
ARC
  5
210
330
70
100
AcDbEntity
  8
plate standard v5_0
100
AcDbCircle
 10
-13.38019888468239
 20
1.582808240633069
 30
0.0
 40
0.0800000000000479
100
AcDbArc
 50
89.40628692298636
 51
180.0
  0
ARC
  5
211
330
70
100
AcDbEntity
  8
plate standard v5_0
100
AcDbCircle
 10
-13.38019888468245
 20
0.3525245405190667
 30
0.0
 40
0.0800000000000001
100
AcDbArc
 50
180.0
 51
270.0
  0
ARC
  5
212
330
70
100
AcDbEntity
  8
plate standard v5_0
100
AcDbCircle
 10
-17.19019888468244
 20
0.3525245405190667
 30
0.0
 40
0.0800000000000019
100
AcDbArc
 50
180.0
 51
270.0
  0
ARC
  5
213
330
70
100
AcDbEntity
  8
plate standard v5_0
100
AcDbCircle
 10
-17.1901988846824
 20
1.582808240633069
 30
0.0
 40
0.080000000000048
100
AcDbArc
 50
89.40628692298508
 51
180.0
  0
LINE
  5
214
330
70
100
AcDbEntity
  8
plate standard v5_0
100
AcDbLine
 10
-13.46019888468245
 20
1.582808240633069
 30
0.0
 11
-13.46019888468245
 21
0.3525245405190667
 31
0.0
  0
ARC
  5
215
330
70
100
AcDbEntity
  8
plate standard v5_0
100
AcDbCircle
 10
-7.665198884682396
 20
1.582808240633069
 30
0.0
 40
0.0800000000000479
100
AcDbArc
 50
89.40628692298636
 51
180.0
  0
ARC
  5
216
330
70
100
AcDbEntity
  8
plate standard v5_0
100
AcDbCircle
 10
-17.10020601566602
 20
0.3525245405190667
 30
0.0
 40
0.08
100
AcDbArc
 50
270.0
 51
0.0
  0
ARC
  5
217
330
70
100
AcDbEntity
  8
plate standard v5_0
100
AcDbCircle
 10
-9.48020601566602
 20
1.581806688343071
 30
0.0
 40
0.0799999999999983
100
AcDbArc
 50
0.0
 51
89.33670757215484
  0
LINE
  5
218
330
70
100
AcDbEntity
  8
plate standard v5_0
100
AcDbLine
 10
-9.650198884682446
 20
1.582808240633069
 30
0.0
 11
-9.650198884682446
 21
0.3525245405190667
 31
0.0
  0
LINE
  5
219
330
70
100
AcDbEntity
  8
plate standard v5_0
100
AcDbLine
 10
-17.27019888468245
 20
1.582808240633069
 30
0.0
 11
-17.27019888468245
 21
0.3525245405190667
 31
0.0
  0
LINE
  5
21A
330
70
100
AcDbEntity
  8
plate standard v5_0
100
AcDbLine
 10
-5.840198884682445
 20
1.582808240633069
 30
0.0
 11
-5.840198884682445
 21
0.3525245405190667
 31
0.0
  0
ARC
  5
21B
330
70
100
AcDbEntity
  8
plate standard v5_0
100
AcDbCircle
 10
-15.28519888468244
 20
0.3525245405190667
 30
0.0
 40
0.0800000000000001
100
AcDbArc
 50
180.0
 51
270.0
  0
ARC
  5
21C
330
70
100
AcDbEntity
  8
plate standard v5_0
100
AcDbCircle
 10
-5.760198884682396
 20
1.582808240633069
 30
0.0
 40
0.0800000000000479
100
AcDbArc
 50
89.40628692298572
 51
180.0
  0
LINE
  5
21D
330
70
100
AcDbEntity
  8
plate standard v5_0
100
AcDbLine
 10
-17.15613250651401
 20
1.662459518978094
 30
0.0
 11
-17.18936991967728
 21
1.662803945624199
 31
0.0
  0
ARC
  5
21E
330
70
100
AcDbEntity
  8
plate standard v5_0
100
AcDbCircle
 10
-15.2851988846824
 20
1.582808240633069
 30
0.0
 40
0.0800000000000479
100
AcDbArc
 50
89.40628692298636
 51
180.0
  0
LINE
  5
21F
330
70
100
AcDbEntity
  8
plate standard v5_0
100
AcDbLine
 10
-7.745198884682444
 20
1.582808240633069
 30
0.0
 11
-7.745198884682444
 21
0.3525245405190667
 31
0.0
  0
LINE
  5
220
330
70
100
AcDbEntity
  8
plate standard v5_0
100
AcDbLine
 10
-15.36519888468244
 20
1.582808240633069
 30
0.0
 11
-15.36519888468244
 21
0.3525245405190667
 31
0.0
  0
LINE
  5
221
330
70
100
AcDbEntity
  8
plate standard v5_0
100
AcDbLine
 10
-15.11520601566602
 20
0.3525245405190667
 30
0.0
 11
-15.11520601566602
 21
1.581806688343071
 31
0.0
  0
ARC
  5
222
330
70
100
AcDbEntity
  8
plate standard v5_0
100
AcDbCircle
 10
-17.66669888468245
 20
2.257524540519066
 30
0.0
 40
0.0800000000000019
100
AcDbArc
 50
180.0
 51
270.0
  0
LINE
  5
223
330
70
100
AcDbEntity
  8
plate standard v5_0
100
AcDbLine
 10
-15.59170601566602
 20
2.257524540519066
 30
0.0
 11
-15.59170601566602
 21
3.486806688343071
 31
0.0
  0
LINE
  5
224
330
70
100
AcDbEntity
  8
plate standard v5_0
100
AcDbLine
 10
-15.72763250651402
 20
3.567459518978094
 30
0.0
 11
-15.76086991967728
 21
3.567803945624199
 31
0.0
  0
ARC
  5
225
330
70
100
AcDbEntity
  8
plate standard v5_0
100
AcDbCircle
 10
-15.67170601566602
 20
2.257524540519066
 30
0.0
 40
0.0800000000000001
100
AcDbArc
 50
270.0
 51
0.0
  0
LINE
  5
226
330
70
100
AcDbEntity
  8
plate standard v5_0
100
AcDbLine
 10
-11.55519888468244
 20
1.582808240633069
 30
0.0
 11
-11.55519888468244
 21
0.3525245405190667
 31
0.0
  0
LINE
  5
227
330
70
100
AcDbEntity
  8
plate standard v5_0
100
AcDbLine
 10
-19.09519888468244
 20
0.2725245405190667
 30
0.0
 11
-19.00520601566602
 21
0.2725245405190667
 31
0.0
  0
ARC
  5
228
330
70
100
AcDbEntity
  8
plate standard v5_0
100
AcDbCircle
 10
-17.57670601566602
 20
2.257524540519066
 30
0.0
 40
0.0800000000000001
100
AcDbArc
 50
270.0
 51
0.0
  0
LINE
  5
229
330
70
100
AcDbEntity
  8
plate standard v5_0
100
AcDbLine
 10
-11.44113250651401
 20
1.662459518978094
 30
0.0
 11
-11.47436991967728
 21
1.662803945624199
 31
0.0
  0
LINE
  5
22A
330
70
100
AcDbEntity
  8
plate standard v5_0
100
AcDbLine
 10
-15.72763250651402
 20
3.567459518978094
 30
0.0
 11
-15.67077990541078
 21
3.566801327662186
 31
0.0
  0
LINE
  5
22B
330
70
100
AcDbEntity
  8
plate standard v5_0
100
AcDbLine
 10
-19.53763250651402
 20
3.567459518978094
 30
0.0
 11
-19.48077990541078
 21
3.566801327662186
 31
0.0
  0
ARC
  5
22C
330
70
100
AcDbEntity
  8
plate standard v5_0
100
AcDbCircle
 10
-15.7616988846824
 20
3.487808240633069
 30
0.0
 40
0.0800000000000482
100
AcDbArc
 50
89.40628692298636
 51
180.0
  0
LINE
  5
22D
330
70
100
AcDbEntity
  8
plate standard v5_0
100
AcDbLine
 10
-11.44113250651401
 20
1.662459518978094
 30
0.0
 11
-11.38427990541077
 21
1.661801327662185
 31
0.0
  0
ARC
  5
22E
330
70
100
AcDbEntity
  8
plate standard v5_0
100
AcDbCircle
 10
-15.76169888468245
 20
2.257524540519066
 30
0.0
 40
0.0800000000000001
100
AcDbArc
 50
180.0
 51
270.0
  0
ARC
  5
22F
330
70
100
AcDbEntity
  8
plate standard v5_0
100
AcDbCircle
 10
-19.48170601566602
 20
3.486806688343071
 30
0.0
 40
0.0799999999999983
100
AcDbArc
 50
0.0
 51
89.33670757215358
  0
ARC
  5
230
330
70
100
AcDbEntity
  8
plate standard v5_0
100
AcDbCircle
 10
-19.48170601566602
 20
2.257524540519066
 30
0.0
 40
0.0800000000000001
100
AcDbArc
 50
270.0
 51
0.0
  0
ARC
  5
231
330
70
100
AcDbEntity
  8
plate standard v5_0
100
AcDbCircle
 10
-17.6666988846824
 20
3.487808240633069
 30
0.0
 40
0.0800000000000482
100
AcDbArc
 50
89.40628692298508
 51
180.0
  0
ARC
  5
232
330
70
100
AcDbEntity
  8
plate standard v5_0
100
AcDbCircle
 10
-19.57169888468245
 20
2.257524540519066
 30
0.0
 40
0.0800000000000019
100
AcDbArc
 50
180.0
 51
270.0
  0
LINE
  5
233
330
70
100
AcDbEntity
  8
plate standard v5_0
100
AcDbLine
 10
-19.06113250651402
 20
1.662459518978094
 30
0.0
 11
-19.00427990541077
 21
1.661801327662185
 31
0.0
  0
ARC
  5
234
330
70
100
AcDbEntity
  8
plate standard v5_0
100
AcDbCircle
 10
-19.00520601566602
 20
0.3525245405190667
 30
0.0
 40
0.08
100
AcDbArc
 50
270.0
 51
0.0
  0
ARC
  5
235
330
70
100
AcDbEntity
  8
plate standard v5_0
100
AcDbCircle
 10
-19.5716988846824
 20
3.487808240633069
 30
0.0
 40
0.0800000000000482
100
AcDbArc
 50
89.40628692298508
 51
180.0
  0
LINE
  5
236
330
70
100
AcDbEntity
  8
plate standard v5_0
100
AcDbLine
 10
-17.66669888468245
 20
2.177524540519066
 30
0.0
 11
-17.57670601566602
 21
2.177524540519066
 31
0.0
  0
LINE
  5
237
330
70
100
AcDbEntity
  8
plate standard v5_0
100
AcDbLine
 10
-15.84169888468245
 20
3.487808240633069
 30
0.0
 11
-15.84169888468245
 21
2.257524540519066
 31
0.0
  0
LINE
  5
238
330
70
100
AcDbEntity
  8
plate standard v5_0
100
AcDbLine
 10
-13.85669888468245
 20
2.177524540519066
 30
0.0
 11
-13.76670601566602
 21
2.177524540519066
 31
0.0
  0
ARC
  5
239
330
70
100
AcDbEntity
  8
plate standard v5_0
100
AcDbCircle
 10
-11.38520601566602
 20
0.3525245405190667
 30
0.0
 40
0.08
100
AcDbArc
 50
270.0
 51
0.0
  0
ARC
  5
23A
330
70
100
AcDbEntity
  8
plate standard v5_0
100
AcDbCircle
 10
-11.38520601566602
 20
1.581806688343071
 30
0.0
 40
0.0800000000000001
100
AcDbArc
 50
0.0
 51
89.33670757215486
  0
ARC
  5
23B
330
70
100
AcDbEntity
  8
plate standard v5_0
100
AcDbCircle
 10
-11.4751988846824
 20
1.582808240633069
 30
0.0
 40
0.0800000000000479
100
AcDbArc
 50
89.40628692298636
 51
180.0
  0
LINE
  5
23C
330
70
100
AcDbEntity
  8
plate standard v5_0
100
AcDbLine
 10
-18.92520601566602
 20
0.3525245405190667
 30
0.0
 11
-18.92520601566602
 21
1.581806688343071
 31
0.0
  0
LINE
  5
23D
330
70
100
AcDbEntity
  8
plate standard v5_0
100
AcDbLine
 10
-19.06113250651402
 20
1.662459518978094
 30
0.0
 11
-19.09436991967728
 21
1.662803945624199
 31
0.0
  0
ARC
  5
23E
330
70
100
AcDbEntity
  8
plate standard v5_0
100
AcDbCircle
 10
-11.47519888468244
 20
0.3525245405190667
 30
0.0
 40
0.0800000000000001
100
AcDbArc
 50
180.0
 51
270.0
  0
LINE
  5
23F
330
70
100
AcDbEntity
  8
plate standard v5_0
100
AcDbLine
 10
-17.74669888468245
 20
3.487808240633069
 30
0.0
 11
-17.74669888468245
 21
2.257524540519066
 31
0.0
  0
ARC
  5
240
330
70
100
AcDbEntity
  8
plate standard v5_0
100
AcDbCircle
 10
-19.0951988846824
 20
1.582808240633069
 30
0.0
 40
0.080000000000048
100
AcDbArc
 50
89.40628692298508
 51
180.0
  0
LINE
  5
241
330
70
100
AcDbEntity
  8
plate standard v5_0
100
AcDbLine
 10
-11.47519888468244
 20
0.2725245405190667
 30
0.0
 11
-11.38520601566602
 21
0.2725245405190667
 31
0.0
  0
LINE
  5
242
330
70
100
AcDbEntity
  8
plate standard v5_0
100
AcDbLine
 10
-19.17519888468245
 20
1.582808240633069
 30
0.0
 11
-19.17519888468245
 21
0.3525245405190667
 31
0.0
  0
LINE
  5
243
330
70
100
AcDbEntity
  8
plate standard v5_0
100
AcDbLine
 10
-19.65169888468245
 20
3.487808240633069
 30
0.0
 11
-19.65169888468245
 21
2.257524540519066
 31
0.0
  0
ARC
  5
244
330
70
100
AcDbEntity
  8
plate standard v5_0
100
AcDbCircle
 10
-19.00520601566602
 20
1.581806688343071
 30
0.0
 40
0.0799999999999983
100
AcDbArc
 50
0.0
 51
89.33670757215358
  0
LINE
  5
245
330
70
100
AcDbEntity
  8
plate standard v5_0
100
AcDbLine
 10
-17.49670601566602
 20
2.257524540519066
 30
0.0
 11
-17.49670601566602
 21
3.486806688343071
 31
0.0
  0
ARC
  5
246
330
70
100
AcDbEntity
  8
plate standard v5_0
100
AcDbCircle
 10
-17.57670601566602
 20
3.486806688343071
 30
0.0
 40
0.0799999999999983
100
AcDbArc
 50
0.0
 51
89.33670757215358
  0
LINE
  5
247
330
70
100
AcDbEntity
  8
plate standard v5_0
100
AcDbLine
 10
-15.76169888468245
 20
2.177524540519066
 30
0.0
 11
-15.67170601566602
 21
2.177524540519066
 31
0.0
  0
ARC
  5
248
330
70
100
AcDbEntity
  8
plate standard v5_0
100
AcDbCircle
 10
-15.67170601566602
 20
3.486806688343071
 30
0.0
 40
0.0800000000000001
100
AcDbArc
 50
0.0
 51
89.33670757215486
  0
LINE
  5
249
330
70
100
AcDbEntity
  8
plate standard v5_0
100
AcDbLine
 10
-19.57169888468245
 20
2.177524540519066
 30
0.0
 11
-19.48170601566602
 21
2.177524540519066
 31
0.0
  0
LINE
  5
24A
330
70
100
AcDbEntity
  8
plate standard v5_0
100
AcDbLine
 10
-19.40170601566602
 20
2.257524540519066
 30
0.0
 11
-19.40170601566602
 21
3.486806688343071
 31
0.0
  0
LINE
  5
24B
330
70
100
AcDbEntity
  8
plate standard v5_0
100
AcDbLine
 10
-11.30520601566602
 20
0.3525245405190667
 30
0.0
 11
-11.30520601566602
 21
1.581806688343071
 31
0.0
  0
LINE
  5
24C
330
70
100
AcDbEntity
  8
plate standard v5_0
100
AcDbLine
 10
-19.53763250651402
 20
3.567459518978094
 30
0.0
 11
-19.57086991967728
 21
3.567803945624199
 31
0.0
  0
ARC
  5
24D
330
70
100
AcDbEntity
  8
plate standard v5_0
100
AcDbCircle
 10
-19.09519888468244
 20
0.3525245405190667
 30
0.0
 40
0.0800000000000019
100
AcDbArc
 50
180.0
 51
270.0
  0
LINE
  5
24E
330
70
100
AcDbEntity
  8
plate standard v5_0
100
AcDbLine
 10
-17.63263250651402
 20
3.567459518978094
 30
0.0
 11
-17.57577990541077
 21
3.566801327662186
 31
0.0
  0
LINE
  5
24F
330
70
100
AcDbEntity
  8
plate standard v5_0
100
AcDbLine
 10
-17.63263250651402
 20
3.567459518978094
 30
0.0
 11
-17.66586991967728
 21
3.567803945624199
 31
0.0
  0
LINE
  5
250
330
70
100
AcDbEntity
  8
plate standard v5_0
100
AcDbLine
 10
-13.68670601566602
 20
2.257524540519066
 30
0.0
 11
-13.68670601566602
 21
3.486806688343071
 31
0.0
  0
ARC
  5
251
330
70
100
AcDbEntity
  8
plate standard v5_0
100
AcDbCircle
 10
-11.86170601566602
 20
2.257524540519066
 30
0.0
 40
0.0800000000000001
100
AcDbArc
 50
270.0
 51
0.0
  0
LINE
  5
252
330
70
100
AcDbEntity
  8
plate standard v5_0
100
AcDbLine
 10
-10.01263250651401
 20
3.567459518978094
 30
0.0
 11
-10.04586991967728
 21
3.567803945624199
 31
0.0
  0
ARC
  5
253
330
70
100
AcDbEntity
  8
plate standard v5_0
100
AcDbCircle
 10
-8.051706015666022
 20
3.486806688343071
 30
0.0
 40
0.0800000000000001
100
AcDbArc
 50
0.0
 51
89.33670757215486
  0
ARC
  5
254
330
70
100
AcDbEntity
  8
plate standard v5_0
100
AcDbCircle
 10
-13.85669888468245
 20
2.257524540519066
 30
0.0
 40
0.0800000000000001
100
AcDbArc
 50
180.0
 51
270.0
  0
LINE
  5
255
330
70
100
AcDbEntity
  8
plate standard v5_0
100
AcDbLine
 10
-13.93669888468245
 20
3.487808240633069
 30
0.0
 11
-13.93669888468245
 21
2.257524540519066
 31
0.0
  0
LINE
  5
256
330
70
100
AcDbEntity
  8
plate standard v5_0
100
AcDbLine
 10
-13.82263250651402
 20
3.567459518978094
 30
0.0
 11
-13.85586991967728
 21
3.567803945624199
 31
0.0
  0
ARC
  5
257
330
70
100
AcDbEntity
  8
plate standard v5_0
100
AcDbCircle
 10
-13.76670601566602
 20
2.257524540519066
 30
0.0
 40
0.0800000000000001
100
AcDbArc
 50
270.0
 51
0.0
  0
ARC
  5
258
330
70
100
AcDbEntity
  8
plate standard v5_0
100
AcDbCircle
 10
-13.8566988846824
 20
3.487808240633069
 30
0.0
 40
0.0800000000000482
100
AcDbArc
 50
89.40628692298636
 51
180.0
  0
LINE
  5
259
330
70
100
AcDbEntity
  8
plate standard v5_0
100
AcDbLine
 10
-11.91763250651401
 20
3.567459518978094
 30
0.0
 11
-11.95086991967728
 21
3.567803945624199
 31
0.0
  0
LINE
  5
25A
330
70
100
AcDbEntity
  8
plate standard v5_0
100
AcDbLine
 10
-13.82263250651402
 20
3.567459518978094
 30
0.0
 11
-13.76577990541077
 21
3.566801327662186
 31
0.0
  0
ARC
  5
25B
330
70
100
AcDbEntity
  8
plate standard v5_0
100
AcDbCircle
 10
-11.9516988846824
 20
3.487808240633069
 30
0.0
 40
0.0800000000000482
100
AcDbArc
 50
89.40628692298636
 51
180.0
  0
ARC
  5
25C
330
70
100
AcDbEntity
  8
plate standard v5_0
100
AcDbCircle
 10
-9.956706015666021
 20
3.486806688343071
 30
0.0
 40
0.0799999999999983
100
AcDbArc
 50
0.0
 51
89.33670757215484
  0
LINE
  5
25D
330
70
100
AcDbEntity
  8
plate standard v5_0
100
AcDbLine
 10
-10.01263250651401
 20
3.567459518978094
 30
0.0
 11
-9.955779905410777
 21
3.566801327662186
 31
0.0
  0
LINE
  5
25E
330
70
100
AcDbEntity
  8
plate standard v5_0
100
AcDbLine
 10
-8.107632506514017
 20
3.567459518978094
 30
0.0
 11
-8.140869919677284
 21
3.567803945624199
 31
0.0
  0
ARC
  5
25F
330
70
100
AcDbEntity
  8
plate standard v5_0
100
AcDbCircle
 10
-10.04669888468245
 20
2.257524540519066
 30
0.0
 40
0.0800000000000001
100
AcDbArc
 50
180.0
 51
270.0
  0
ARC
  5
260
330
70
100
AcDbEntity
  8
plate standard v5_0
100
AcDbCircle
 10
-8.141698884682446
 20
2.257524540519066
 30
0.0
 40
0.0800000000000001
100
AcDbArc
 50
180.0
 51
270.0
  0
LINE
  5
261
330
70
100
AcDbEntity
  8
plate standard v5_0
100
AcDbLine
 10
-6.236698884682446
 20
2.177524540519066
 30
0.0
 11
-6.146706015666022
 21
2.177524540519066
 31
0.0
  0
LINE
  5
262
330
70
100
AcDbEntity
  8
plate standard v5_0
100
AcDbLine
 10
-6.066706015666022
 20
2.257524540519066
 30
0.0
 11
-6.066706015666022
 21
3.486806688343071
 31
0.0
  0
ARC
  5
263
330
70
100
AcDbEntity
  8
plate standard v5_0
100
AcDbCircle
 10
-6.236698884682446
 20
2.257524540519066
 30
0.0
 40
0.0800000000000001
100
AcDbArc
 50
180.0
 51
270.0
  0
LINE
  5
264
330
70
100
AcDbEntity
  8
plate standard v5_0
100
AcDbLine
 10
-6.316698884682447
 20
3.487808240633069
 30
0.0
 11
-6.316698884682447
 21
2.257524540519066
 31
0.0
  0
LINE
  5
265
330
70
100
AcDbEntity
  8
plate standard v5_0
100
AcDbLine
 10
-6.202632506514016
 20
3.567459518978094
 30
0.0
 11
-6.145779905410776
 21
3.566801327662186
 31
0.0
  0
ARC
  5
266
330
70
100
AcDbEntity
  8
plate standard v5_0
100
AcDbCircle
 10
-10.0466988846824
 20
3.487808240633069
 30
0.0
 40
0.0800000000000482
100
AcDbArc
 50
89.40628692298508
 51
180.0
  0
LINE
  5
267
330
70
100
AcDbEntity
  8
plate standard v5_0
100
AcDbLine
 10
-10.12669888468245
 20
3.487808240633069
 30
0.0
 11
-10.12669888468245
 21
2.257524540519066
 31
0.0
  0
LINE
  5
268
330
70
100
AcDbEntity
  8
plate standard v5_0
100
AcDbLine
 10
-8.221698884682446
 20
3.487808240633069
 30
0.0
 11
-8.221698884682446
 21
2.257524540519066
 31
0.0
  0
LINE
  5
269
330
70
100
AcDbEntity
  8
plate standard v5_0
100
AcDbLine
 10
-11.95169888468244
 20
2.177524540519066
 30
0.0
 11
-11.86170601566602
 21
2.177524540519066
 31
0.0
  0
ARC
  5
26A
330
70
100
AcDbEntity
  8
plate standard v5_0
100
AcDbCircle
 10
-6.236698884682398
 20
3.487808240633069
 30
0.0
 40
0.0800000000000482
100
AcDbArc
 50
89.40628692298572
 51
180.0
  0
ARC
  5
26B
330
70
100
AcDbEntity
  8
plate standard v5_0
100
AcDbCircle
 10
-13.76670601566602
 20
3.486806688343071
 30
0.0
 40
0.0800000000000019
100
AcDbArc
 50
0.0
 51
89.33670757215358
  0
ARC
  5
26C
330
70
100
AcDbEntity
  8
plate standard v5_0
100
AcDbCircle
 10
-11.95169888468244
 20
2.257524540519066
 30
0.0
 40
0.0800000000000001
100
AcDbArc
 50
180.0
 51
270.0
  0
ARC
  5
26D
330
70
100
AcDbEntity
  8
plate standard v5_0
100
AcDbCircle
 10
-6.146706015666022
 20
3.486806688343071
 30
0.0
 40
0.0800000000000001
100
AcDbArc
 50
0.0
 51
89.33670757215422
  0
LINE
  5
26E
330
70
100
AcDbEntity
  8
plate standard v5_0
100
AcDbLine
 10
-10.04669888468245
 20
2.177524540519066
 30
0.0
 11
-9.956706015666021
 21
2.177524540519066
 31
0.0
  0
ARC
  5
26F
330
70
100
AcDbEntity
  8
plate standard v5_0
100
AcDbCircle
 10
-9.956706015666021
 20
2.257524540519066
 30
0.0
 40
0.0800000000000001
100
AcDbArc
 50
270.0
 51
0.0
  0
LINE
  5
270
330
70
100
AcDbEntity
  8
plate standard v5_0
100
AcDbLine
 10
-11.91763250651401
 20
3.567459518978094
 30
0.0
 11
-11.86077990541078
 21
3.566801327662186
 31
0.0
  0
LINE
  5
271
330
70
100
AcDbEntity
  8
plate standard v5_0
100
AcDbLine
 10
-11.78170601566602
 20
2.257524540519066
 30
0.0
 11
-11.78170601566602
 21
3.486806688343071
 31
0.0
  0
ARC
  5
272
330
70
100
AcDbEntity
  8
plate standard v5_0
100
AcDbCircle
 10
-11.86170601566602
 20
3.486806688343071
 30
0.0
 40
0.0800000000000001
100
AcDbArc
 50
0.0
 51
89.33670757215486
  0
LINE
  5
273
330
70
100
AcDbEntity
  8
plate standard v5_0
100
AcDbLine
 10
-9.876706015666023
 20
2.257524540519066
 30
0.0
 11
-9.876706015666023
 21
3.486806688343071
 31
0.0
  0
ARC
  5
274
330
70
100
AcDbEntity
  8
plate standard v5_0
100
AcDbCircle
 10
-8.051706015666022
 20
2.257524540519066
 30
0.0
 40
0.0800000000000001
100
AcDbArc
 50
270.0
 51
0.0
  0
ARC
  5
275
330
70
100
AcDbEntity
  8
plate standard v5_0
100
AcDbCircle
 10
-6.146706015666022
 20
2.257524540519066
 30
0.0
 40
0.0800000000000001
100
AcDbArc
 50
270.0
 51
0.0
  0
LINE
  5
276
330
70
100
AcDbEntity
  8
plate standard v5_0
100
AcDbLine
 10
-8.107632506514017
 20
3.567459518978094
 30
0.0
 11
-8.050779905410777
 21
3.566801327662186
 31
0.0
  0
LINE
  5
277
330
70
100
AcDbEntity
  8
plate standard v5_0
100
AcDbLine
 10
-8.141698884682446
 20
2.177524540519066
 30
0.0
 11
-8.051706015666022
 21
2.177524540519066
 31
0.0
  0
LINE
  5
278
330
70
100
AcDbEntity
  8
plate standard v5_0
100
AcDbLine
 10
-12.03169888468244
 20
3.487808240633069
 30
0.0
 11
-12.03169888468244
 21
2.257524540519066
 31
0.0
  0
LINE
  5
279
330
70
100
AcDbEntity
  8
plate standard v5_0
100
AcDbLine
 10
-7.971706015666022
 20
2.257524540519066
 30
0.0
 11
-7.971706015666022
 21
3.486806688343071
 31
0.0
  0
ARC
  5
27A
330
70
100
AcDbEntity
  8
plate standard v5_0
100
AcDbCircle
 10
-8.141698884682398
 20
3.487808240633069
 30
0.0
 40
0.0800000000000482
100
AcDbArc
 50
89.40628692298636
 51
180.0
  0
LINE
  5
27B
330
70
100
AcDbEntity
  8
plate standard v5_0
100
AcDbLine
 10
-6.202632506514016
 20
3.567459518978094
 30
0.0
 11
-6.235869919677282
 21
3.567803945624199
 31
0.0
  0
LINE
  5
27C
330
70
100
AcDbEntity
  8
plate standard v5_0
100
AcDbLine
 10
-4.297632506514016
 20
3.567459518978094
 30
0.0
 11
-4.240779905410777
 21
3.566801327662186
 31
0.0
  0
ARC
  5
27D
330
70
100
AcDbEntity
  8
plate standard v5_0
100
AcDbCircle
 10
-18.52970601566602
 20
5.391806688343072
 30
0.0
 40
0.0799999999999983
100
AcDbArc
 50
0.0
 51
89.33670757215358
  0
LINE
  5
27E
330
70
100
AcDbEntity
  8
plate standard v5_0
100
AcDbLine
 10
-16.54470601566602
 20
4.162524540519067
 30
0.0
 11
-16.54470601566602
 21
5.391806688343072
 31
0.0
  0
LINE
  5
27F
330
70
100
AcDbEntity
  8
plate standard v5_0
100
AcDbLine
 10
-20.60469888468245
 20
5.392808240633069
 30
0.0
 11
-20.60469888468245
 21
4.162524540519067
 31
0.0
  0
ARC
  5
280
330
70
100
AcDbEntity
  8
plate standard v5_0
100
AcDbCircle
 10
-16.62470601566602
 20
4.162524540519067
 30
0.0
 40
0.0800000000000001
100
AcDbArc
 50
270.0
 51
0.0
  0
LINE
  5
281
330
70
100
AcDbEntity
  8
plate standard v5_0
100
AcDbLine
 10
-20.49063250651402
 20
5.472459518978094
 30
0.0
 11
-20.52386991967729
 21
5.4728039456242
 31
0.0
  0
LINE
  5
282
330
70
100
AcDbEntity
  8
plate standard v5_0
100
AcDbLine
 10
-16.68063250651401
 20
5.472459518978094
 30
0.0
 11
-16.71386991967728
 21
5.4728039456242
 31
0.0
  0
ARC
  5
283
330
70
100
AcDbEntity
  8
plate standard v5_0
100
AcDbCircle
 10
-20.52469888468245
 20
4.162524540519067
 30
0.0
 40
0.0800000000000019
100
AcDbArc
 50
180.0
 51
270.0
  0
ARC
  5
284
330
70
100
AcDbEntity
  8
plate standard v5_0
100
AcDbCircle
 10
-4.241706015666022
 20
2.257524540519066
 30
0.0
 40
0.0800000000000001
100
AcDbArc
 50
270.0
 51
0.0
  0
LINE
  5
285
330
70
100
AcDbEntity
  8
plate standard v5_0
100
AcDbLine
 10
-4.411698884682445
 20
3.487808240633069
 30
0.0
 11
-4.411698884682445
 21
2.257524540519066
 31
0.0
  0
LINE
  5
286
330
70
100
AcDbEntity
  8
plate standard v5_0
100
AcDbLine
 10
-20.35470601566602
 20
4.162524540519067
 30
0.0
 11
-20.35470601566602
 21
5.391806688343072
 31
0.0
  0
ARC
  5
287
330
70
100
AcDbEntity
  8
plate standard v5_0
100
AcDbCircle
 10
-4.331698884682397
 20
3.487808240633069
 30
0.0
 40
0.0800000000000482
100
AcDbArc
 50
89.40628692298636
 51
180.0
  0
ARC
  5
288
330
70
100
AcDbEntity
  8
plate standard v5_0
100
AcDbCircle
 10
-4.241706015666022
 20
3.486806688343071
 30
0.0
 40
0.0800000000000001
100
AcDbArc
 50
0.0
 51
89.33670757215486
  0
ARC
  5
289
330
70
100
AcDbEntity
  8
plate standard v5_0
100
AcDbCircle
 10
-20.5246988846824
 20
5.392808240633069
 30
0.0
 40
0.0800000000000482
100
AcDbArc
 50
89.40628692298508
 51
180.0
  0
LINE
  5
28A
330
70
100
AcDbEntity
  8
plate standard v5_0
100
AcDbLine
 10
-20.52469888468245
 20
4.082524540519067
 30
0.0
 11
-20.43470601566602
 21
4.082524540519067
 31
0.0
  0
ARC
  5
28B
330
70
100
AcDbEntity
  8
plate standard v5_0
100
AcDbCircle
 10
-18.52970601566602
 20
4.162524540519067
 30
0.0
 40
0.0800000000000001
100
AcDbArc
 50
270.0
 51
0.0
  0
ARC
  5
28C
330
70
100
AcDbEntity
  8
plate standard v5_0
100
AcDbCircle
 10
-18.6196988846824
 20
5.392808240633069
 30
0.0
 40
0.0800000000000482
100
AcDbArc
 50
89.40628692298508
 51
180.0
  0
ARC
  5
28D
330
70
100
AcDbEntity
  8
plate standard v5_0
100
AcDbCircle
 10
-16.71469888468245
 20
4.162524540519067
 30
0.0
 40
0.0799999999999983
100
AcDbArc
 50
180.0
 51
270.0
  0
ARC
  5
28E
330
70
100
AcDbEntity
  8
plate standard v5_0
100
AcDbCircle
 10
-18.61969888468244
 20
4.162524540519067
 30
0.0
 40
0.0800000000000019
100
AcDbArc
 50
180.0
 51
270.0
  0
LINE
  5
28F
330
70
100
AcDbEntity
  8
plate standard v5_0
100
AcDbLine
 10
-14.80969888468244
 20
4.082524540519067
 30
0.0
 11
-14.71970601566602
 21
4.082524540519067
 31
0.0
  0
ARC
  5
290
330
70
100
AcDbEntity
  8
plate standard v5_0
100
AcDbCircle
 10
-14.71970601566602
 20
4.162524540519067
 30
0.0
 40
0.0800000000000001
100
AcDbArc
 50
270.0
 51
0.0
  0
LINE
  5
291
330
70
100
AcDbEntity
  8
plate standard v5_0
100
AcDbLine
 10
-4.331698884682445
 20
2.177524540519066
 30
0.0
 11
-4.241706015666022
 21
2.177524540519066
 31
0.0
  0
LINE
  5
292
330
70
100
AcDbEntity
  8
plate standard v5_0
100
AcDbLine
 10
-14.63970601566602
 20
4.162524540519067
 30
0.0
 11
-14.63970601566602
 21
5.391806688343072
 31
0.0
  0
LINE
  5
293
330
70
100
AcDbEntity
  8
plate standard v5_0
100
AcDbLine
 10
-20.49063250651402
 20
5.472459518978094
 30
0.0
 11
-20.43377990541078
 21
5.471801327662186
 31
0.0
  0
ARC
  5
294
330
70
100
AcDbEntity
  8
plate standard v5_0
100
AcDbCircle
 10
-16.7146988846824
 20
5.392808240633069
 30
0.0
 40
0.0800000000000482
100
AcDbArc
 50
89.40628692298764
 51
180.0
  0
LINE
  5
295
330
70
100
AcDbEntity
  8
plate standard v5_0
100
AcDbLine
 10
-18.69969888468245
 20
5.392808240633069
 30
0.0
 11
-18.69969888468245
 21
4.162524540519067
 31
0.0
  0
ARC
  5
296
330
70
100
AcDbEntity
  8
plate standard v5_0
100
AcDbCircle
 10
-16.62470601566602
 20
5.391806688343072
 30
0.0
 40
0.0799999999999983
100
AcDbArc
 50
0.0
 51
89.33670757215612
  0
ARC
  5
297
330
70
100
AcDbEntity
  8
plate standard v5_0
100
AcDbCircle
 10
-14.71970601566602
 20
5.391806688343072
 30
0.0
 40
0.0800000000000019
100
AcDbArc
 50
0.0
 51
89.33670757215358
  0
LINE
  5
298
330
70
100
AcDbEntity
  8
plate standard v5_0
100
AcDbLine
 10
-14.77563250651401
 20
5.472459518978094
 30
0.0
 11
-14.71877990541077
 21
5.471801327662186
 31
0.0
  0
LINE
  5
299
330
70
100
AcDbEntity
  8
plate standard v5_0
100
AcDbLine
 10
-4.297632506514016
 20
3.567459518978094
 30
0.0
 11
-4.330869919677283
 21
3.567803945624199
 31
0.0
  0
LINE
  5
29A
330
70
100
AcDbEntity
  8
plate standard v5_0
100
AcDbLine
 10
-14.77563250651401
 20
5.472459518978094
 30
0.0
 11
-14.80886991967728
 21
5.4728039456242
 31
0.0
  0
ARC
  5
29B
330
70
100
AcDbEntity
  8
plate standard v5_0
100
AcDbCircle
 10
-20.43470601566602
 20
4.162524540519067
 30
0.0
 40
0.0800000000000001
100
AcDbArc
 50
270.0
 51
0.0
  0
ARC
  5
29C
330
70
100
AcDbEntity
  8
plate standard v5_0
100
AcDbCircle
 10
-14.8096988846824
 20
5.392808240633069
 30
0.0
 40
0.0800000000000482
100
AcDbArc
 50
89.40628692298636
 51
180.0
  0
LINE
  5
29D
330
70
100
AcDbEntity
  8
plate standard v5_0
100
AcDbLine
 10
-16.71469888468245
 20
4.082524540519067
 30
0.0
 11
-16.62470601566602
 21
4.082524540519067
 31
0.0
  0
LINE
  5
29E
330
70
100
AcDbEntity
  8
plate standard v5_0
100
AcDbLine
 10
-4.161706015666021
 20
2.257524540519066
 30
0.0
 11
-4.161706015666021
 21
3.486806688343071
 31
0.0
  0
LINE
  5
29F
330
70
100
AcDbEntity
  8
plate standard v5_0
100
AcDbLine
 10
-16.68063250651401
 20
5.472459518978094
 30
0.0
 11
-16.62377990541077
 21
5.471801327662186
 31
0.0
  0
LINE
  5
2A0
330
70
100
AcDbEntity
  8
plate standard v5_0
100
AcDbLine
 10
-18.61969888468244
 20
4.082524540519067
 30
0.0
 11
-18.52970601566602
 21
4.082524540519067
 31
0.0
  0
ARC
  5
2A1
330
70
100
AcDbEntity
  8
plate standard v5_0
100
AcDbCircle
 10
-14.80969888468244
 20
4.162524540519067
 30
0.0
 40
0.0800000000000001
100
AcDbArc
 50
180.0
 51
270.0
  0
LINE
  5
2A2
330
70
100
AcDbEntity
  8
plate standard v5_0
100
AcDbLine
 10
-14.88969888468244
 20
5.392808240633069
 30
0.0
 11
-14.88969888468244
 21
4.162524540519067
 31
0.0
  0
LINE
  5
2A3
330
70
100
AcDbEntity
  8
plate standard v5_0
100
AcDbLine
 10
-18.44970601566602
 20
4.162524540519067
 30
0.0
 11
-18.44970601566602
 21
5.391806688343072
 31
0.0
  0
LINE
  5
2A4
330
70
100
AcDbEntity
  8
plate standard v5_0
100
AcDbLine
 10
-18.58563250651402
 20
5.472459518978094
 30
0.0
 11
-18.61886991967728
 21
5.4728039456242
 31
0.0
  0
ARC
  5
2A5
330
70
100
AcDbEntity
  8
plate standard v5_0
100
AcDbCircle
 10
-4.331698884682445
 20
2.257524540519066
 30
0.0
 40
0.0800000000000001
100
AcDbArc
 50
180.0
 51
270.0
  0
ARC
  5
2A6
330
70
100
AcDbEntity
  8
plate standard v5_0
100
AcDbCircle
 10
-20.43470601566602
 20
5.391806688343072
 30
0.0
 40
0.0799999999999983
100
AcDbArc
 50
0.0
 51
89.33670757215358
  0
LINE
  5
2A7
330
70
100
AcDbEntity
  8
plate standard v5_0
100
AcDbLine
 10
-18.58563250651402
 20
5.472459518978094
 30
0.0
 11
-18.52877990541077
 21
5.471801327662186
 31
0.0
  0
LINE
  5
2A8
330
70
100
AcDbEntity
  8
plate standard v5_0
100
AcDbLine
 10
-16.79469888468245
 20
5.392808240633069
 30
0.0
 11
-16.79469888468245
 21
4.162524540519067
 31
0.0
  0
LINE
  5
2A9
330
70
100
AcDbEntity
  8
plate standard v5_0
100
AcDbLine
 10
-5.250632506514016
 20
5.472459518978094
 30
0.0
 11
-5.283869919677282
 21
5.4728039456242
 31
0.0
  0
ARC
  5
2AA
330
70
100
AcDbEntity
  8
plate standard v5_0
100
AcDbCircle
 10
-5.284698884682397
 20
5.392808240633069
 30
0.0
 40
0.0800000000000482
100
AcDbArc
 50
89.40628692298636
 51
180.0
  0
ARC
  5
2AB
330
70
100
AcDbEntity
  8
plate standard v5_0
100
AcDbCircle
 10
-5.284698884682445
 20
4.162524540519067
 30
0.0
 40
0.0800000000000001
100
AcDbArc
 50
180.0
 51
270.0
  0
ARC
  5
2AC
330
70
100
AcDbEntity
  8
plate standard v5_0
100
AcDbCircle
 10
-10.9996988846824
 20
5.392808240633069
 30
0.0
 40
0.0800000000000482
100
AcDbArc
 50
89.40628692298508
 51
180.0
  0
ARC
  5
2AD
330
70
100
AcDbEntity
  8
plate standard v5_0
100
AcDbCircle
 10
-12.81470601566602
 20
4.162524540519067
 30
0.0
 40
0.0800000000000001
100
AcDbArc
 50
270.0
 51
0.0
  0
LINE
  5
2AE
330
70
100
AcDbEntity
  8
plate standard v5_0
100
AcDbLine
 10
-12.90469888468244
 20
4.082524540519067
 30
0.0
 11
-12.81470601566602
 21
4.082524540519067
 31
0.0
  0
LINE
  5
2AF
330
70
100
AcDbEntity
  8
plate standard v5_0
100
AcDbLine
 10
-12.73470601566602
 20
4.162524540519067
 30
0.0
 11
-12.73470601566602
 21
5.391806688343072
 31
0.0
  0
ARC
  5
2B0
330
70
100
AcDbEntity
  8
plate standard v5_0
100
AcDbCircle
 10
-12.9046988846824
 20
5.392808240633069
 30
0.0
 40
0.0800000000000482
100
AcDbArc
 50
89.40628692298636
 51
180.0
  0
ARC
  5
2B1
330
70
100
AcDbEntity
  8
plate standard v5_0
100
AcDbCircle
 10
-10.90970601566602
 20
4.162524540519067
 30
0.0
 40
0.0800000000000001
100
AcDbArc
 50
270.0
 51
0.0
  0
ARC
  5
2B2
330
70
100
AcDbEntity
  8
plate standard v5_0
100
AcDbCircle
 10
-7.099706015666021
 20
4.162524540519067
 30
0.0
 40
0.0800000000000001
100
AcDbArc
 50
270.0
 51
0.0
  0
LINE
  5
2B3
330
70
100
AcDbEntity
  8
plate standard v5_0
100
AcDbLine
 10
-9.094698884682445
 20
4.082524540519067
 30
0.0
 11
-9.004706015666021
 21
4.082524540519067
 31
0.0
  0
ARC
  5
2B4
330
70
100
AcDbEntity
  8
plate standard v5_0
100
AcDbCircle
 10
-9.094698884682397
 20
5.392808240633069
 30
0.0
 40
0.0800000000000482
100
AcDbArc
 50
89.40628692298636
 51
180.0
  0
ARC
  5
2B5
330
70
100
AcDbEntity
  8
plate standard v5_0
100
AcDbCircle
 10
-9.094698884682445
 20
4.162524540519067
 30
0.0
 40
0.0800000000000001
100
AcDbArc
 50
180.0
 51
270.0
  0
LINE
  5
2B6
330
70
100
AcDbEntity
  8
plate standard v5_0
100
AcDbLine
 10
-7.189698884682446
 20
4.082524540519067
 30
0.0
 11
-7.099706015666021
 21
4.082524540519067
 31
0.0
  0
ARC
  5
2B7
330
70
100
AcDbEntity
  8
plate standard v5_0
100
AcDbCircle
 10
-9.004706015666021
 20
5.391806688343072
 30
0.0
 40
0.0800000000000001
100
AcDbArc
 50
0.0
 51
89.33670757215486
  0
LINE
  5
2B8
330
70
100
AcDbEntity
  8
plate standard v5_0
100
AcDbLine
 10
-7.019706015666021
 20
4.162524540519067
 30
0.0
 11
-7.019706015666021
 21
5.391806688343072
 31
0.0
  0
ARC
  5
2B9
330
70
100
AcDbEntity
  8
plate standard v5_0
100
AcDbCircle
 10
-7.099706015666021
 20
5.391806688343072
 30
0.0
 40
0.0800000000000001
100
AcDbArc
 50
0.0
 51
89.33670757215422
  0
LINE
  5
2BA
330
70
100
AcDbEntity
  8
plate standard v5_0
100
AcDbLine
 10
-7.155632506514016
 20
5.472459518978094
 30
0.0
 11
-7.188869919677282
 21
5.4728039456242
 31
0.0
  0
ARC
  5
2BB
330
70
100
AcDbEntity
  8
plate standard v5_0
100
AcDbCircle
 10
-7.189698884682446
 20
4.162524540519067
 30
0.0
 40
0.0800000000000001
100
AcDbArc
 50
180.0
 51
270.0
  0
LINE
  5
2BC
330
70
100
AcDbEntity
  8
plate standard v5_0
100
AcDbLine
 10
-7.269698884682446
 20
5.392808240633069
 30
0.0
 11
-7.269698884682446
 21
4.162524540519067
 31
0.0
  0
ARC
  5
2BD
330
70
100
AcDbEntity
  8
plate standard v5_0
100
AcDbCircle
 10
-5.194706015666021
 20
4.162524540519067
 30
0.0
 40
0.0800000000000001
100
AcDbArc
 50
270.0
 51
0.0
  0
ARC
  5
2BE
330
70
100
AcDbEntity
  8
plate standard v5_0
100
AcDbCircle
 10
-10.90970601566602
 20
5.391806688343072
 30
0.0
 40
0.0799999999999983
100
AcDbArc
 50
0.0
 51
89.33670757215484
  0
ARC
  5
2BF
330
70
100
AcDbEntity
  8
plate standard v5_0
100
AcDbCircle
 10
-9.004706015666021
 20
4.162524540519067
 30
0.0
 40
0.0800000000000001
100
AcDbArc
 50
270.0
 51
0.0
  0
ARC
  5
2C0
330
70
100
AcDbEntity
  8
plate standard v5_0
100
AcDbCircle
 10
-10.99969888468244
 20
4.162524540519067
 30
0.0
 40
0.0800000000000001
100
AcDbArc
 50
180.0
 51
270.0
  0
LINE
  5
2C1
330
70
100
AcDbEntity
  8
plate standard v5_0
100
AcDbLine
 10
-8.924706015666021
 20
4.162524540519067
 30
0.0
 11
-8.924706015666021
 21
5.391806688343072
 31
0.0
  0
ARC
  5
2C2
330
70
100
AcDbEntity
  8
plate standard v5_0
100
AcDbCircle
 10
-12.81470601566602
 20
5.391806688343072
 30
0.0
 40
0.0800000000000001
100
AcDbArc
 50
0.0
 51
89.33670757215486
  0
LINE
  5
2C3
330
70
100
AcDbEntity
  8
plate standard v5_0
100
AcDbLine
 10
-9.174698884682445
 20
5.392808240633069
 30
0.0
 11
-9.174698884682445
 21
4.162524540519067
 31
0.0
  0
LINE
  5
2C4
330
70
100
AcDbEntity
  8
plate standard v5_0
100
AcDbLine
 10
-5.284698884682445
 20
4.082524540519067
 30
0.0
 11
-5.194706015666021
 21
4.082524540519067
 31
0.0
  0
LINE
  5
2C5
330
70
100
AcDbEntity
  8
plate standard v5_0
100
AcDbLine
 10
-5.114706015666021
 20
4.162524540519067
 30
0.0
 11
-5.114706015666021
 21
5.391806688343072
 31
0.0
  0
ARC
  5
2C6
330
70
100
AcDbEntity
  8
plate standard v5_0
100
AcDbCircle
 10
-12.90469888468244
 20
4.162524540519067
 30
0.0
 40
0.0800000000000001
100
AcDbArc
 50
180.0
 51
270.0
  0
LINE
  5
2C7
330
70
100
AcDbEntity
  8
plate standard v5_0
100
AcDbLine
 10
-12.98469888468244
 20
5.392808240633069
 30
0.0
 11
-12.98469888468244
 21
4.162524540519067
 31
0.0
  0
LINE
  5
2C8
330
70
100
AcDbEntity
  8
plate standard v5_0
100
AcDbLine
 10
-10.99969888468244
 20
4.082524540519067
 30
0.0
 11
-10.90970601566602
 21
4.082524540519067
 31
0.0
  0
LINE
  5
2C9
330
70
100
AcDbEntity
  8
plate standard v5_0
100
AcDbLine
 10
-10.82970601566602
 20
4.162524540519067
 30
0.0
 11
-10.82970601566602
 21
5.391806688343072
 31
0.0
  0
LINE
  5
2CA
330
70
100
AcDbEntity
  8
plate standard v5_0
100
AcDbLine
 10
-12.87063250651401
 20
5.472459518978094
 30
0.0
 11
-12.90386991967728
 21
5.4728039456242
 31
0.0
  0
LINE
  5
2CB
330
70
100
AcDbEntity
  8
plate standard v5_0
100
AcDbLine
 10
-10.96563250651401
 20
5.472459518978094
 30
0.0
 11
-10.99886991967728
 21
5.4728039456242
 31
0.0
  0
LINE
  5
2CC
330
70
100
AcDbEntity
  8
plate standard v5_0
100
AcDbLine
 10
-11.07969888468244
 20
5.392808240633069
 30
0.0
 11
-11.07969888468244
 21
4.162524540519067
 31
0.0
  0
LINE
  5
2CD
330
70
100
AcDbEntity
  8
plate standard v5_0
100
AcDbLine
 10
-9.060632506514016
 20
5.472459518978094
 30
0.0
 11
-9.093869919677283
 21
5.4728039456242
 31
0.0
  0
LINE
  5
2CE
330
70
100
AcDbEntity
  8
plate standard v5_0
100
AcDbLine
 10
-7.155632506514016
 20
5.472459518978094
 30
0.0
 11
-7.098779905410776
 21
5.471801327662186
 31
0.0
  0
ARC
  5
2CF
330
70
100
AcDbEntity
  8
plate standard v5_0
100
AcDbCircle
 10
-7.189698884682397
 20
5.392808240633069
 30
0.0
 40
0.0800000000000482
100
AcDbArc
 50
89.40628692298572
 51
180.0
  0
LINE
  5
2D0
330
70
100
AcDbEntity
  8
plate standard v5_0
100
AcDbLine
 10
-9.060632506514016
 20
5.472459518978094
 30
0.0
 11
-9.003779905410777
 21
5.471801327662186
 31
0.0
  0
ARC
  5
2D1
330
70
100
AcDbEntity
  8
plate standard v5_0
100
AcDbCircle
 10
-5.194706015666021
 20
5.391806688343072
 30
0.0
 40
0.0800000000000001
100
AcDbArc
 50
0.0
 51
89.33670757215486
  0
LINE
  5
2D2
330
70
100
AcDbEntity
  8
plate standard v5_0
100
AcDbLine
 10
-10.96563250651401
 20
5.472459518978094
 30
0.0
 11
-10.90877990541077
 21
5.471801327662186
 31
0.0
  0
LINE
  5
2D3
330
70
100
AcDbEntity
  8
plate standard v5_0
100
AcDbLine
 10
-5.250632506514016
 20
5.472459518978094
 30
0.0
 11
-5.193779905410776
 21
5.471801327662186
 31
0.0
  0
LINE
  5
2D4
330
70
100
AcDbEntity
  8
plate standard v5_0
100
AcDbLine
 10
-12.87063250651401
 20
5.472459518978094
 30
0.0
 11
-12.81377990541078
 21
5.471801327662186
 31
0.0
  0
LINE
  5
2D5
330
70
100
AcDbEntity
  8
plate standard v5_0
100
AcDbLine
 10
-5.364698884682445
 20
5.392808240633069
 30
0.0
 11
-5.364698884682445
 21
4.162524540519067
 31
0.0
  0
ENDSEC
  0
SECTION
  2
OBJECTS
  0
DICTIONARY
  5
C
330
0
100
AcDbDictionary
281
     1
  3
ACAD_COLOR
350
63
  3
ACAD_DETAILVIEWSTYLE
350
6A
  3
ACAD_GROUP
350
D
  3
ACAD_LAYOUT
350
62
  3
ACAD_MATERIAL
350
10
  3
ACAD_MLEADERSTYLE
350
66
  3
ACAD_MLINESTYLE
350
5F
  3
ACAD_PLOTSETTINGS
350
61
  3
ACAD_PLOTSTYLENAME
350
E
  3
ACAD_SCALELIST
350
42
  3
ACAD_SECTIONVIEWSTYLE
350
68
  3
ACAD_TABLESTYLE
350
64
  3
ACAD_VISUALSTYLE
350
29
  3
ACDB_RECOMPOSE_DATA
350
2DE
  3
AcDbVariableDictionary
350
2D6
  0
DICTIONARY
  5
63
102
{ACAD_REACTORS
330
C
102
}
330
C
100
AcDbDictionary
281
     1
  0
DICTIONARY
  5
6A
102
{ACAD_REACTORS
330
C
102
}
330
C
100
AcDbDictionary
281
     1
  3
Imperial24
350
6B
  0
DICTIONARY
  5
D
102
{ACAD_REACTORS
330
C
102
}
330
C
100
AcDbDictionary
281
     1
  0
DICTIONARY
  5
62
102
{ACAD_REACTORS
330
C
102
}
330
C
100
AcDbDictionary
281
     1
  3
Layout1
350
6F
  3
Layout2
350
77
  3
Model
350
73
  0
DICTIONARY
  5
10
102
{ACAD_REACTORS
330
C
102
}
330
C
100
AcDbDictionary
281
     1
  3
ByBlock
350
19
  3
ByLayer
350
11
  3
Global
350
21
  0
DICTIONARY
  5
66
102
{ACAD_REACTORS
330
C
102
}
330
C
100
AcDbDictionary
281
     1
  3
Standard
350
67
  0
DICTIONARY
  5
5F
102
{ACAD_REACTORS
330
C
102
}
330
C
100
AcDbDictionary
281
     1
  3
Standard
350
60
  0
DICTIONARY
  5
61
102
{ACAD_REACTORS
330
C
102
}
330
C
100
AcDbDictionary
281
     1
  0
ACDBDICTIONARYWDFLT
  5
E
102
{ACAD_REACTORS
330
C
102
}
330
C
100
AcDbDictionary
281
     1
  3
Normal
350
F
100
AcDbDictionaryWithDefault
340
F
  0
DICTIONARY
  5
42
102
{ACAD_REACTORS
330
C
102
}
330
C
100
AcDbDictionary
281
     1
  3
A0
350
43
  3
A1
350
44
  3
A2
350
45
  3
A3
350
46
  3
A4
350
47
  3
A5
350
48
  3
A6
350
49
  3
A7
350
4A
  3
A8
350
4B
  3
A9
350
4C
  3
B0
350
4D
  3
B1
350
4E
  3
B2
350
4F
  3
B3
350
50
  3
B4
350
51
  3
B5
350
52
  3
B6
350
53
  0
DICTIONARY
  5
68
102
{ACAD_REACTORS
330
C
102
}
330
C
100
AcDbDictionary
281
     1
  3
Imperial24
350
69
  0
DICTIONARY
  5
64
102
{ACAD_REACTORS
330
C
102
}
330
C
100
AcDbDictionary
281
     1
  3
Standard
350
65
  0
DICTIONARY
  5
29
102
{ACAD_REACTORS
330
C
102
}
330
C
100
AcDbDictionary
281
     1
  3
2dWireframe
350
2F
  3
Basic
350
2E
  3
Brighten
350
35
  3
ColorChange
350
39
  3
Conceptual
350
32
  3
Dim
350
34
  3
EdgeColorOff
350
41
  3
Facepattern
350
38
  3
Flat
350
2A
  3
FlatWithEdges
350
2B
  3
Gouraud
350
2C
  3
GouraudWithEdges
350
2D
  3
Hidden
350
31
  3
JitterOff
350
3F
  3
Linepattern
350
37
  3
OverhangOff
350
40
  3
Realistic
350
33
  3
Shaded
350
3E
  3
Shaded with edges
350
3D
  3
Shades of Gray
350
3A
  3
Sketchy
350
3B
  3
Thicken
350
36
  3
Wireframe
350
30
  3
X-Ray
350
3C
  0
XRECORD
  5
2DE
102
{ACAD_REACTORS
330
C
102
}
330
C
100
AcDbXrecord
280
     1
 90
        1
330
65
  0
DICTIONARY
  5
2D6
102
{ACAD_REACTORS
330
C
102
}
330
C
100
AcDbDictionary
281
     1
  3
CANNOSCALE
350
2DB
  3
CMLEADERSTYLE
350
2D8
  3
CTABLESTYLE
350
2D7
  3
CVIEWDETAILSTYLE
350
2D9
  3
CVIEWSECTIONSTYLE
350
2DA
  0
ACDBDETAILVIEWSTYLE
  5
6B
102
{ACAD_XDICTIONARY
360
2E1
102
}
102
{ACAD_REACTORS
330
6A
102
}
330
6A
100
AcDbModelDocViewStyle
 70
     0
  3
Imperial24
290
     0
100
AcDbDetailViewStyle
 70
     0
 71
     0
 90
        3
 71
     1
340
55
 62
   256
 40
0.24
340
0
 62
   256
 40
0.24
300

 40
0.36
280
     3
 71
     2
340
5D
 90
       25
 62
   256
 71
     3
340
55
 62
   256
 40
0.24
 90
        1
 40
0.75
 90
        1
300
%<\AcVar ViewType \f "%tc1">% %<\AcVar ViewDetailId>%\PSCALE %<\AcVar ViewScale \f "%sn">%
 71
     4
340
5D
 90
       25
 62
   256
340
5D
 90
       25
 62
   256
280
     0
  0
LAYOUT
  5
6F
102
{ACAD_REACTORS
330
62
102
}
330
62
100
AcDbPlotSettings
  1

  2

  4

  6

 40
0.0
 41
0.0
 42
0.0
 43
0.0
 44
0.0
 45
0.0
 46
0.0
 47
0.0
 48
0.0
 49
0.0
140
0.0
141
0.0
142
1.0
143
1.0
 70
   688
 72
     0
 73
     0
 74
     5
  7

 75
    16
147
1.0
 76
     0
 77
     2
 78
   300
148
0.0
149
0.0
100
AcDbLayout
  1
Layout1
 70
     1
 71
     1
 10
0.0
 20
0.0
 11
12.0
 21
9.0
 12
0.0
 22
0.0
 32
0.0
 14
0.0
 24
0.0
 34
0.0
 15
0.0
 25
0.0
 35
0.0
146
0.0
 13
0.0
 23
0.0
 33
0.0
 16
1.0
 26
0.0
 36
0.0
 17
0.0
 27
1.0
 37
0.0
 76
     0
330
6C
  0
LAYOUT
  5
77
102
{ACAD_REACTORS
330
62
102
}
330
62
100
AcDbPlotSettings
  1

  2

  4

  6

 40
0.0
 41
0.0
 42
0.0
 43
0.0
 44
0.0
 45
0.0
 46
0.0
 47
0.0
 48
0.0
 49
0.0
140
0.0
141
0.0
142
1.0
143
1.0
 70
   688
 72
     0
 73
     0
 74
     5
  7

 75
    16
147
1.0
 76
     0
 77
     2
 78
   300
148
0.0
149
0.0
100
AcDbLayout
  1
Layout2
 70
     1
 71
     2
 10
0.0
 20
0.0
 11
12.0
 21
9.0
 12
0.0
 22
0.0
 32
0.0
 14
0.0
 24
0.0
 34
0.0
 15
0.0
 25
0.0
 35
0.0
146
0.0
 13
0.0
 23
0.0
 33
0.0
 16
1.0
 26
0.0
 36
0.0
 17
0.0
 27
1.0
 37
0.0
 76
     0
330
74
  0
LAYOUT
  5
73
102
{ACAD_REACTORS
330
62
102
}
330
62
100
AcDbPlotSettings
  1

  2

  4

  6

 40
0.0
 41
0.0
 42
0.0
 43
0.0
 44
0.0
 45
0.0
 46
0.0
 47
0.0
 48
0.0
 49
0.0
140
0.0
141
0.0
142
1.0
143
1.0
 70
  1712
 72
     0
 73
     0
 74
     0
  7

 75
     0
147
1.0
 76
     0
 77
     2
 78
   300
148
0.0
149
0.0
100
AcDbLayout
  1
Model
 70
     1
 71
     0
 10
0.0
 20
0.0
 11
12.0
 21
9.0
 12
0.0
 22
0.0
 32
0.0
 14
0.0
 24
0.0
 34
0.0
 15
0.0
 25
0.0
 35
0.0
146
0.0
 13
0.0
 23
0.0
 33
0.0
 16
1.0
 26
0.0
 36
0.0
 17
0.0
 27
1.0
 37
0.0
 76
     0
330
70
  0
MATERIAL
  5
19
102
{ACAD_XDICTIONARY
360
1A
102
}
102
{ACAD_REACTORS
330
10
102
}
330
10
100
AcDbMaterial
  1
ByBlock
 72
     0
 43
0.0208333333333333
 43
0.0
 43
0.0
 43
0.0
 43
0.0
 43
0.0208333333333333
 43
0.0
 43
0.0
 43
0.0
 43
0.0
 43
1.0
 43
0.0
 43
0.0
 43
0.0
 43
0.0
 43
1.0
 77
     0
 47
0.0208333333333333
 47
0.0
 47
0.0
 47
0.0
 47
0.0
 47
0.0208333333333333
 47
0.0
 47
0.0
 47
0.0
 47
0.0
 47
1.0
 47
0.0
 47
0.0
 47
0.0
 47
0.0
 47
1.0
171
     0
 49
0.0208333333333333
 49
0.0
 49
0.0
 49
0.0
 49
0.0
 49
0.0208333333333333
 49
0.0
 49
0.0
 49
0.0
 49
0.0
 49
1.0
 49
0.0
 49
0.0
 49
0.0
 49
0.0
 49
1.0
175
     0
142
0.0208333333333333
142
0.0
142
0.0
142
0.0
142
0.0
142
0.0208333333333333
142
0.0
142
0.0
142
0.0
142
0.0
142
1.0
142
0.0
142
0.0
142
0.0
142
0.0
142
1.0
179
     0
144
0.0208333333333333
144
0.0
144
0.0
144
0.0
144
0.0
144
0.0208333333333333
144
0.0
144
0.0
144
0.0
144
0.0
144
1.0
144
0.0
144
0.0
144
0.0
144
0.0
144
1.0
147
0.0208333333333333
147
0.0
147
0.0
147
0.0
147
0.0
147
0.0208333333333333
147
0.0
147
0.0
147
0.0
147
0.0
147
1.0
147
0.0
147
0.0
147
0.0
147
0.0
147
1.0
  0
MATERIAL
  5
11
102
{ACAD_XDICTIONARY
360
12
102
}
102
{ACAD_REACTORS
330
10
102
}
330
10
100
AcDbMaterial
  1
ByLayer
 72
     0
 43
0.0208333333333333
 43
0.0
 43
0.0
 43
0.0
 43
0.0
 43
0.0208333333333333
 43
0.0
 43
0.0
 43
0.0
 43
0.0
 43
1.0
 43
0.0
 43
0.0
 43
0.0
 43
0.0
 43
1.0
 77
     0
 47
0.0208333333333333
 47
0.0
 47
0.0
 47
0.0
 47
0.0
 47
0.0208333333333333
 47
0.0
 47
0.0
 47
0.0
 47
0.0
 47
1.0
 47
0.0
 47
0.0
 47
0.0
 47
0.0
 47
1.0
171
     0
 49
0.0208333333333333
 49
0.0
 49
0.0
 49
0.0
 49
0.0
 49
0.0208333333333333
 49
0.0
 49
0.0
 49
0.0
 49
0.0
 49
1.0
 49
0.0
 49
0.0
 49
0.0
 49
0.0
 49
1.0
175
     0
142
0.0208333333333333
142
0.0
142
0.0
142
0.0
142
0.0
142
0.0208333333333333
142
0.0
142
0.0
142
0.0
142
0.0
142
1.0
142
0.0
142
0.0
142
0.0
142
0.0
142
1.0
179
     0
144
0.0208333333333333
144
0.0
144
0.0
144
0.0
144
0.0
144
0.0208333333333333
144
0.0
144
0.0
144
0.0
144
0.0
144
1.0
144
0.0
144
0.0
144
0.0
144
0.0
144
1.0
147
0.0208333333333333
147
0.0
147
0.0
147
0.0
147
0.0
147
0.0208333333333333
147
0.0
147
0.0
147
0.0
147
0.0
147
1.0
147
0.0
147
0.0
147
0.0
147
0.0
147
1.0
  0
MATERIAL
  5
21
102
{ACAD_XDICTIONARY
360
22
102
}
102
{ACAD_REACTORS
330
10
102
}
330
10
100
AcDbMaterial
  1
Global
 72
     0
 43
0.0208333333333333
 43
0.0
 43
0.0
 43
0.0
 43
0.0
 43
0.0208333333333333
 43
0.0
 43
0.0
 43
0.0
 43
0.0
 43
1.0
 43
0.0
 43
0.0
 43
0.0
 43
0.0
 43
1.0
 77
     0
 47
0.0208333333333333
 47
0.0
 47
0.0
 47
0.0
 47
0.0
 47
0.0208333333333333
 47
0.0
 47
0.0
 47
0.0
 47
0.0
 47
1.0
 47
0.0
 47
0.0
 47
0.0
 47
0.0
 47
1.0
171
     0
 49
0.0208333333333333
 49
0.0
 49
0.0
 49
0.0
 49
0.0
 49
0.0208333333333333
 49
0.0
 49
0.0
 49
0.0
 49
0.0
 49
1.0
 49
0.0
 49
0.0
 49
0.0
 49
0.0
 49
1.0
175
     0
142
0.0208333333333333
142
0.0
142
0.0
142
0.0
142
0.0
142
0.0208333333333333
142
0.0
142
0.0
142
0.0
142
0.0
142
1.0
142
0.0
142
0.0
142
0.0
142
0.0
142
1.0
179
     0
144
0.0208333333333333
144
0.0
144
0.0
144
0.0
144
0.0
144
0.0208333333333333
144
0.0
144
0.0
144
0.0
144
0.0
144
1.0
144
0.0
144
0.0
144
0.0
144
0.0
144
1.0
147
0.0208333333333333
147
0.0
147
0.0
147
0.0
147
0.0
147
0.0208333333333333
147
0.0
147
0.0
147
0.0
147
0.0
147
1.0
147
0.0
147
0.0
147
0.0
147
0.0
147
1.0
  0
MLEADERSTYLE
  5
67
102
{ACAD_REACTORS
330
66
102
}
330
66
100
AcDbMLeaderStyle
179
     2
170
     2
171
     1
172
     0
 90
        2
 40
0.0
 41
0.0
173
     1
 91
-1056964608
340
5B
 92
       -2
290
     1
 42
0.09
291
     1
 43
0.36
  3
Standard
 44
0.18
300

342
55
174
     1
178
     6
175
     1
176
     0
 93
-1056964608
 45
0.18
292
     0
297
     0
 46
0.18
 94
-1056964608
 47
1.0
 49
1.0
140
1.0
293
     1
141
0.0
294
     1
177
     0
142
1.0
295
     0
296
     0
143
0.125
271
     0
272
     9
273
     9
298
     1
  0
MLINESTYLE
  5
60
102
{ACAD_REACTORS
330
5F
102
}
330
5F
100
AcDbMlineStyle
  2
STANDARD
 70
     0
  3

 62
   256
 51
90.0
 52
90.0
 71
     2
 49
0.5
 62
   256
  6
BYLAYER
 49
-0.5
 62
   256
  6
BYLAYER
  0
ACDBPLACEHOLDER
  5
F
102
{ACAD_REACTORS
330
E
102
}
330
E
  0
SCALE
  5
43
102
{ACAD_REACTORS
330
42
102
}
330
42
100
AcDbScale
 70
     0
300
1:1
140
1.0
141
1.0
290
     1
  0
SCALE
  5
44
102
{ACAD_REACTORS
330
42
102
}
330
42
100
AcDbScale
 70
     0
300
1/128" = 1'-0"
140
0.0078125
141
12.0
290
     0
  0
SCALE
  5
45
102
{ACAD_REACTORS
330
42
102
}
330
42
100
AcDbScale
 70
     0
300
1/64" = 1'-0"
140
0.015625
141
12.0
290
     0
  0
SCALE
  5
46
102
{ACAD_REACTORS
330
42
102
}
330
42
100
AcDbScale
 70
     0
300
1/32" = 1'-0"
140
0.03125
141
12.0
290
     0
  0
SCALE
  5
47
102
{ACAD_REACTORS
330
42
102
}
330
42
100
AcDbScale
 70
     0
300
1/16" = 1'-0"
140
0.0625
141
12.0
290
     0
  0
SCALE
  5
48
102
{ACAD_REACTORS
330
42
102
}
330
42
100
AcDbScale
 70
     0
300
3/32" = 1'-0"
140
0.09375
141
12.0
290
     0
  0
SCALE
  5
49
102
{ACAD_REACTORS
330
42
102
}
330
42
100
AcDbScale
 70
     0
300
1/8" = 1'-0"
140
0.125
141
12.0
290
     0
  0
SCALE
  5
4A
102
{ACAD_REACTORS
330
42
102
}
330
42
100
AcDbScale
 70
     0
300
3/16" = 1'-0"
140
0.1875
141
12.0
290
     0
  0
SCALE
  5
4B
102
{ACAD_REACTORS
330
42
102
}
330
42
100
AcDbScale
 70
     0
300
1/4" = 1'-0"
140
0.25
141
12.0
290
     0
  0
SCALE
  5
4C
102
{ACAD_REACTORS
330
42
102
}
330
42
100
AcDbScale
 70
     0
300
3/8" = 1'-0"
140
0.375
141
12.0
290
     0
  0
SCALE
  5
4D
102
{ACAD_REACTORS
330
42
102
}
330
42
100
AcDbScale
 70
     0
300
1/2" = 1'-0"
140
0.5
141
12.0
290
     0
  0
SCALE
  5
4E
102
{ACAD_REACTORS
330
42
102
}
330
42
100
AcDbScale
 70
     0
300
3/4" = 1'-0"
140
0.75
141
12.0
290
     0
  0
SCALE
  5
4F
102
{ACAD_REACTORS
330
42
102
}
330
42
100
AcDbScale
 70
     0
300
1" = 1'-0"
140
1.0
141
12.0
290
     0
  0
SCALE
  5
50
102
{ACAD_REACTORS
330
42
102
}
330
42
100
AcDbScale
 70
     0
300
1-1/2" = 1'-0"
140
1.5
141
12.0
290
     0
  0
SCALE
  5
51
102
{ACAD_REACTORS
330
42
102
}
330
42
100
AcDbScale
 70
     0
300
3" = 1'-0"
140
3.0
141
12.0
290
     0
  0
SCALE
  5
52
102
{ACAD_REACTORS
330
42
102
}
330
42
100
AcDbScale
 70
     0
300
6" = 1'-0"
140
6.0
141
12.0
290
     0
  0
SCALE
  5
53
102
{ACAD_REACTORS
330
42
102
}
330
42
100
AcDbScale
 70
     0
300
1'-0" = 1'-0"
140
12.0
141
12.0
290
     0
  0
ACDBSECTIONVIEWSTYLE
  5
69
102
{ACAD_XDICTIONARY
360
2DF
102
}
102
{ACAD_REACTORS
330
68
102
}
330
68
100
AcDbModelDocViewStyle
 70
     0
  3
Imperial24
290
     0
100
AcDbSectionViewStyle
 70
     0
 71
     0
 90
       78
 71
     1
340
55
 62
   256
 40
0.24
340
0
340
0
 62
   256
 40
0.24
300
I, O, Q, S, X, Z
 40
0.48
 90
        3
 40
0.18
 90
        1
 71
     2
340
5D
 90
       25
 62
   256
340
5D
 90
       50
 62
   256
 40
0.24
 40
0.0
 40
0.24
 71
     3
340
55
 62
   256
 40
0.24
 90
        1
 40
0.75
 90
        1
300
%<\AcVar ViewType \f "%tc1">% %<\AcVar ViewSectionStartId>%-%<\AcVar ViewSectionEndId>%\PSCALE %<\AcVar ViewScale \f "%sn">%
 71
     4
 62
   256
 62
   257
300
ANSI31
 40
1.0
 90
        0
290
     0
290
     0
 90
        6
 40
0.0
 40
1.570796326794896
 40
0.2617993877991494
 40
1.308996938995747
 40
-0.2617993877991494
 40
1.832595714594046
  0
TABLESTYLE
  5
65
102
{ACAD_XDICTIONARY
360
2DC
102
}
102
{ACAD_REACTORS
330
64
102
}
330
64
100
AcDbTableStyle
280
     0
  3
Standard
 70
     0
 71
     0
 40
0.06
 41
0.06
280
     0
281
     0
  7
Standard
140
0.18
170
     2
 62
     0
 63
     7
283
     0
 90
      512
 91
        0
  1

274
    -2
284
     1
 64
     0
275
    -2
285
     1
 65
     0
276
    -2
286
     1
 66
     0
277
    -2
287
     1
 67
     0
278
    -2
288
     1
 68
     0
279
    -2
289
     1
 69
     0
  7
Standard
140
0.25
170
     5
 62
     0
 63
     7
283
     0
 90
      512
 91
        0
  1

274
    -2
284
     1
 64
     0
275
    -2
285
     1
 65
     0
276
    -2
286
     1
 66
     0
277
    -2
287
     1
 67
     0
278
    -2
288
     1
 68
     0
279
    -2
289
     1
 69
     0
  7
Standard
140
0.18
170
     5
 62
     0
 63
     7
283
     0
 90
      512
 91
        0
  1

274
    -2
284
     1
 64
     0
275
    -2
285
     1
 65
     0
276
    -2
286
     1
 66
     0
277
    -2
287
     1
 67
     0
278
    -2
288
     1
 68
     0
279
    -2
289
     1
 69
     0
  0
VISUALSTYLE
  5
2F
102
{ACAD_REACTORS
330
29
102
}
330
29
100
AcDbVisualStyle
  2
2dWireframe
 70
     4
177
     3
291
     0
 70
    58
 90
        0
176
     1
 90
        2
176
     1
 90
        0
176
     1
 90
        0
176
     1
 40
0.6
176
     1
 40
30.0
176
     1
 62
     7
420
 16777215
176
     1
 90
        1
176
     1
 90
        4
176
     1
 62
     7
176
     1
 62
   257
176
     1
 90
        1
176
     1
 90
        1
176
     1
 40
1.0
176
     1
 90
        0
176
     1
 62
   257
176
     1
 40
1.0
176
     1
 90
        1
176
     1
 90
        6
176
     1
 90
        2
176
     1
 62
     7
176
     1
 90
        5
176
     1
 90
        0
176
     1
 90
        0
176
     1
290
     0
176
     1
 90
        1
176
     1
 40
0.0
176
     1
 90
        0
176
     1
290
     1
176
     1
290
     1
176
     1
290
     0
176
     1
290
     0
176
     1
290
     0
176
     1
290
     0
176
     1
290
     0
176
     1
290
     0
176
     1
290
     0
176
     1
 90
       50
176
     1
 40
0.0
176
     1
 40
1.0
176
     1
 90
        0
176
     1
 62
    18
420
        0
176
     1
 90
       50
176
     1
 90
        3
176
     1
 62
     5
420
      255
176
     1
290
     0
176
     1
 90
       50
176
     1
 90
       50
176
     1
 90
       50
176
     1
290
     0
176
     1
 90
       50
176
     1
 62
   256
176
     0
 40
1.0
176
     0
 90
        2
176
     1
  1
strokes_ogs.tif
176
     1
290
     0
176
     1
 40
1.0
176
     1
 40
1.0
176
     1
1001
ACAD
1000
AcDbSavedByObjectVersion
1070
     0
  0
VISUALSTYLE
  5
2E
102
{ACAD_REACTORS
330
29
102
}
330
29
100
AcDbVisualStyle
  2
Basic
 70
     7
177
     3
291
     1
 70
    58
 90
        1
176
     1
 90
        0
176
     1
 90
        1
176
     1
 90
        0
176
     1
 40
0.6
176
     1
 40
30.0
176
     1
 62
     7
420
 16777215
176
     1
 90
        0
176
     1
 90
        4
176
     1
 62
     7
176
     1
 62
   257
176
     1
 90
        1
176
     1
 90
        1
176
     1
 40
1.0
176
     1
 90
        8
176
     1
 62
     7
176
     1
 40
1.0
176
     1
 90
        1
176
     1
 90
        6
176
     1
 90
        2
176
     1
 62
     7
176
     1
 90
        5
176
     1
 90
        0
176
     1
 90
        0
176
     1
290
     0
176
     1
 90
        1
176
     1
 40
0.0
176
     1
 90
        0
176
     1
290
     0
176
     1
290
     1
176
     1
290
     1
176
     1
290
     0
176
     1
290
     0
176
     1
290
     0
176
     1
290
     0
176
     1
290
     0
176
     1
290
     0
176
     1
 90
       50
176
     1
 40
0.0
176
     1
 40
1.0
176
     1
 90
        0
176
     1
 62
    18
420
        0
176
     1
 90
       50
176
     1
 90
        3
176
     1
 62
     5
420
      255
176
     1
290
     0
176
     1
 90
       50
176
     1
 90
       50
176
     1
 90
       50
176
     1
290
     0
176
     1
 90
       50
176
     1
 62
   256
176
     0
 40
1.0
176
     0
 90
        2
176
     1
  1
strokes_ogs.tif
176
     1
290
     0
176
     1
 40
1.0
176
     1
 40
1.0
176
     1
1001
ACAD
1000
AcDbSavedByObjectVersion
1070
     0
  0
VISUALSTYLE
  5
35
102
{ACAD_REACTORS
330
29
102
}
330
29
100
AcDbVisualStyle
  2
Brighten
 70
    12
177
     3
291
     1
 70
    58
 90
        2
176
     1
 90
        2
176
     1
 90
        0
176
     1
 90
        0
176
     1
 40
0.6
176
     1
 40
30.0
176
     1
 62
     7
420
 16777215
176
     1
 90
        1
176
     1
 90
        4
176
     1
 62
     7
176
     1
 62
   257
176
     1
 90
        1
176
     1
 90
        1
176
     1
 40
1.0
176
     1
 90
        8
176
     1
 62
     7
176
     1
 40
1.0
176
     1
 90
        1
176
     1
 90
        6
176
     1
 90
        2
176
     1
 62
     7
176
     1
 90
        5
176
     1
 90
        0
176
     1
 90
        0
176
     1
290
     0
176
     1
 90
        1
176
     1
 40
50.0
176
     1
 90
        0
176
     1
290
     0
176
     1
290
     1
176
     1
290
     1
176
     1
290
     0
176
     1
290
     0
176
     1
290
     0
176
     1
290
     0
176
     1
290
     0
176
     1
290
     0
176
     1
 90
       50
176
     1
 40
0.0
176
     1
 40
1.0
176
     1
 90
        0
176
     1
 62
    18
420
        0
176
     1
 90
       50
176
     1
 90
        3
176
     1
 62
     5
420
      255
176
     1
290
     0
176
     1
 90
       50
176
     1
 90
       50
176
     1
 90
       50
176
     1
290
     0
176
     1
 90
       50
176
     1
 62
   256
176
     0
 40
1.0
176
     0
 90
        2
176
     1
  1
strokes_ogs.tif
176
     1
290
     0
176
     1
 40
1.0
176
     1
 40
1.0
176
     1
1001
ACAD
1000
AcDbSavedByObjectVersion
1070
     0
  0
VISUALSTYLE
  5
39
102
{ACAD_REACTORS
330
29
102
}
330
29
100
AcDbVisualStyle
  2
ColorChange
 70
    16
177
     3
291
     1
 70
    58
 90
        2
176
     1
 90
        2
176
     1
 90
        3
176
     1
 90
        0
176
     1
 40
0.6
176
     1
 40
30.0
176
     1
 62
     8
420
  8421504
176
     1
 90
        1
176
     1
 90
        4
176
     1
 62
     7
176
     1
 62
   257
176
     1
 90
        1
176
     1
 90
        1
176
     1
 40
1.0
176
     1
 90
        8
176
     1
 62
     8
420
  8421504
176
     1
 40
1.0
176
     1
 90
        1
176
     1
 90
        6
176
     1
 90
        2
176
     1
 62
     7
176
     1
 90
        5
176
     1
 90
        0
176
     1
 90
        0
176
     1
290
     0
176
     1
 90
        1
176
     1
 40
0.0
176
     1
 90
        0
176
     1
290
     0
176
     1
290
     1
176
     1
290
     1
176
     1
290
     0
176
     1
290
     0
176
     1
290
     0
176
     1
290
     0
176
     1
290
     0
176
     1
290
     0
176
     1
 90
       50
176
     1
 40
0.0
176
     1
 40
1.0
176
     1
 90
        0
176
     1
 62
    18
420
        0
176
     1
 90
       50
176
     1
 90
        3
176
     1
 62
     5
420
      255
176
     1
290
     0
176
     1
 90
       50
176
     1
 90
       50
176
     1
 90
       50
176
     1
290
     0
176
     1
 90
       50
176
     1
 62
   256
176
     0
 40
1.0
176
     0
 90
        2
176
     1
  1
strokes_ogs.tif
176
     1
290
     0
176
     1
 40
1.0
176
     1
 40
1.0
176
     1
1001
ACAD
1000
AcDbSavedByObjectVersion
1070
     0
  0
VISUALSTYLE
  5
32
102
{ACAD_REACTORS
330
29
102
}
330
29
100
AcDbVisualStyle
  2
Conceptual
 70
     9
177
     3
291
     0
 70
    58
 90
        3
176
     1
 90
        2
176
     1
 90
        0
176
     1
 90
        0
176
     1
 40
0.6
176
     1
 40
30.0
176
     1
 62
     7
420
 16777215
176
     1
 90
        2
176
     1
 90
        2
176
     1
 62
     7
176
     1
 62
   257
176
     1
 90
        1
176
     1
 90
        1
176
     1
 40
179.0
176
     1
 90
        8
176
     1
 62
     7
176
     1
 40
1.0
176
     1
 90
        1
176
     1
 90
        6
176
     1
 90
        2
176
     1
 62
     7
176
     1
 90
        3
176
     1
 90
        0
176
     1
 90
        0
176
     1
290
     0
176
     1
 90
        1
176
     1
 40
0.0
176
     1
 90
        0
176
     1
290
     0
176
     1
290
     1
176
     1
290
     1
176
     1
290
     0
176
     1
290
     0
176
     1
290
     0
176
     1
290
     0
176
     1
290
     0
176
     1
290
     0
176
     1
 90
       50
176
     1
 40
0.0
176
     1
 40
1.0
176
     1
 90
        0
176
     1
 62
    18
420
        0
176
     1
 90
       50
176
     1
 90
        3
176
     1
 62
     5
420
      255
176
     1
290
     0
176
     1
 90
       50
176
     1
 90
       50
176
     1
 90
       50
176
     1
290
     0
176
     1
 90
       50
176
     1
 62
   256
176
     0
 40
1.0
176
     0
 90
        2
176
     1
  1
strokes_ogs.tif
176
     1
290
     0
176
     1
 40
1.0
176
     1
 40
1.0
176
     1
1001
ACAD
1000
AcDbSavedByObjectVersion
1070
     0
  0
VISUALSTYLE
  5
34
102
{ACAD_REACTORS
330
29
102
}
330
29
100
AcDbVisualStyle
  2
Dim
 70
    11
177
     3
291
     1
 70
    58
 90
        2
176
     1
 90
        2
176
     1
 90
        0
176
     1
 90
        0
176
     1
 40
0.6
176
     1
 40
30.0
176
     1
 62
     7
420
 16777215
176
     1
 90
        1
176
     1
 90
        4
176
     1
 62
     7
176
     1
 62
   257
176
     1
 90
        1
176
     1
 90
        1
176
     1
 40
1.0
176
     1
 90
        8
176
     1
 62
     7
176
     1
 40
1.0
176
     1
 90
        1
176
     1
 90
        6
176
     1
 90
        2
176
     1
 62
     7
176
     1
 90
        5
176
     1
 90
        0
176
     1
 90
        0
176
     1
290
     0
176
     1
 90
        1
176
     1
 40
-50.0
176
     1
 90
        0
176
     1
290
     0
176
     1
290
     1
176
     1
290
     1
176
     1
290
     0
176
     1
290
     0
176
     1
290
     0
176
     1
290
     0
176
     1
290
     0
176
     1
290
     0
176
     1
 90
       50
176
     1
 40
0.0
176
     1
 40
1.0
176
     1
 90
        0
176
     1
 62
    18
420
        0
176
     1
 90
       50
176
     1
 90
        3
176
     1
 62
     5
420
      255
176
     1
290
     0
176
     1
 90
       50
176
     1
 90
       50
176
     1
 90
       50
176
     1
290
     0
176
     1
 90
       50
176
     1
 62
   256
176
     0
 40
1.0
176
     0
 90
        2
176
     1
  1
strokes_ogs.tif
176
     1
290
     0
176
     1
 40
1.0
176
     1
 40
1.0
176
     1
1001
ACAD
1000
AcDbSavedByObjectVersion
1070
     0
  0
VISUALSTYLE
  5
41
102
{ACAD_REACTORS
330
29
102
}
330
29
100
AcDbVisualStyle
  2
EdgeColorOff
 70
    22
177
     3
291
     1
 70
    58
 90
        2
176
     0
 90
        2
176
     0
 90
        0
176
     0
 90
        0
176
     0
 40
0.6
176
     0
 40
30.0
176
     0
 62
     7
420
 16777215
176
     0
 90
        1
176
     0
 90
        4
176
     0
 62
     7
176
     0
 62
   257
176
     0
 90
        1
176
     0
 90
        1
176
     0
 40
1.0
176
     0
 90
        8
176
     2
 62
     7
176
     0
 40
1.0
176
     0
 90
        1
176
     0
 90
        6
176
     0
 90
        2
176
     0
 62
     7
176
     0
 90
        5
176
     0
 90
        0
176
     0
 90
        0
176
     0
290
     0
176
     0
 90
        1
176
     0
 40
0.0
176
     0
 90
        0
176
     0
290
     0
176
     0
290
     1
176
     0
290
     1
176
     0
290
     0
176
     0
290
     0
176
     0
290
     0
176
     0
290
     0
176
     0
290
     0
176
     0
290
     0
176
     0
 90
       50
176
     0
 40
0.0
176
     0
 40
1.0
176
     0
 90
        0
176
     0
 62
    18
420
        0
176
     0
 90
       50
176
     0
 90
        3
176
     0
 62
     5
420
      255
176
     0
290
     0
176
     0
 90
       50
176
     0
 90
       50
176
     0
 90
       50
176
     0
290
     0
176
     0
 90
       50
176
     0
 62
   256
176
     0
 40
1.0
176
     0
 90
        2
176
     0
  1
strokes_ogs.tif
176
     0
290
     0
176
     0
 40
1.0
176
     0
 40
1.0
176
     0
1001
ACAD
1000
AcDbSavedByObjectVersion
1070
     0
  0
VISUALSTYLE
  5
38
102
{ACAD_REACTORS
330
29
102
}
330
29
100
AcDbVisualStyle
  2
Facepattern
 70
    15
177
     3
291
     1
 70
    58
 90
        2
176
     1
 90
        2
176
     1
 90
        0
176
     1
 90
        0
176
     1
 40
0.6
176
     1
 40
30.0
176
     1
 62
     7
420
 16777215
176
     1
 90
        1
176
     1
 90
        4
176
     1
 62
     7
176
     1
 62
   257
176
     1
 90
        1
176
     1
 90
        1
176
     1
 40
1.0
176
     1
 90
        8
176
     1
 62
     7
176
     1
 40
1.0
176
     1
 90
        1
176
     1
 90
        6
176
     1
 90
        2
176
     1
 62
     7
176
     1
 90
        5
176
     1
 90
        0
176
     1
 90
        0
176
     1
290
     0
176
     1
 90
        1
176
     1
 40
0.0
176
     1
 90
        0
176
     1
290
     0
176
     1
290
     1
176
     1
290
     1
176
     1
290
     0
176
     1
290
     0
176
     1
290
     0
176
     1
290
     0
176
     1
290
     0
176
     1
290
     0
176
     1
 90
       50
176
     1
 40
0.0
176
     1
 40
1.0
176
     1
 90
        0
176
     1
 62
    18
420
        0
176
     1
 90
       50
176
     1
 90
        3
176
     1
 62
     5
420
      255
176
     1
290
     0
176
     1
 90
       50
176
     1
 90
       50
176
     1
 90
       50
176
     1
290
     0
176
     1
 90
       50
176
     1
 62
   256
176
     0
 40
1.0
176
     0
 90
        2
176
     1
  1
strokes_ogs.tif
176
     1
290
     0
176
     1
 40
1.0
176
     1
 40
1.0
176
     1
1001
ACAD
1000
AcDbSavedByObjectVersion
1070
     0
  0
VISUALSTYLE
  5
2A
102
{ACAD_REACTORS
330
29
102
}
330
29
100
AcDbVisualStyle
  2
Flat
 70
     0
177
     3
291
     1
 70
    58
 90
        2
176
     1
 90
        1
176
     1
 90
        1
176
     1
 90
        2
176
     1
 40
0.6
176
     1
 40
30.0
176
     1
 62
     7
420
 16777215
176
     1
 90
        0
176
     1
 90
        0
176
     1
 62
     7
176
     1
 62
   257
176
     1
 90
        1
176
     1
 90
        1
176
     1
 40
1.0
176
     1
 90
        8
176
     1
 62
     7
176
     1
 40
1.0
176
     1
 90
        1
176
     1
 90
        6
176
     1
 90
        2
176
     1
 62
     7
176
     1
 90
        5
176
     1
 90
        0
176
     1
 90
        0
176
     1
290
     0
176
     1
 90
       13
176
     1
 40
0.0
176
     1
 90
        0
176
     1
290
     0
176
     1
290
     1
176
     1
290
     1
176
     1
290
     0
176
     1
290
     0
176
     1
290
     0
176
     1
290
     0
176
     1
290
     0
176
     1
290
     0
176
     1
 90
       50
176
     1
 40
0.0
176
     1
 40
1.0
176
     1
 90
        0
176
     1
 62
    18
420
        0
176
     1
 90
       50
176
     1
 90
        3
176
     1
 62
     5
420
      255
176
     1
290
     0
176
     1
 90
       50
176
     1
 90
       50
176
     1
 90
       50
176
     1
290
     0
176
     1
 90
       50
176
     1
 62
   256
176
     0
 40
1.0
176
     0
 90
        2
176
     1
  1
strokes_ogs.tif
176
     1
290
     0
176
     1
 40
1.0
176
     1
 40
1.0
176
     1
1001
ACAD
1000
AcDbSavedByObjectVersion
1070
     0
  0
VISUALSTYLE
  5
2B
102
{ACAD_REACTORS
330
29
102
}
330
29
100
AcDbVisualStyle
  2
FlatWithEdges
 70
     1
177
     3
291
     1
 70
    58
 90
        2
176
     1
 90
        1
176
     1
 90
        1
176
     1
 90
        2
176
     1
 40
0.6
176
     1
 40
30.0
176
     1
 62
     7
420
 16777215
176
     1
 90
        1
176
     1
 90
        0
176
     1
 62
     7
176
     1
 62
   257
176
     1
 90
        1
176
     1
 90
        1
176
     1
 40
1.0
176
     1
 90
        0
176
     1
 62
   257
176
     1
 40
1.0
176
     1
 90
        1
176
     1
 90
        6
176
     1
 90
        2
176
     1
 62
     7
176
     1
 90
        5
176
     1
 90
        0
176
     1
 90
        0
176
     1
290
     0
176
     1
 90
       13
176
     1
 40
0.0
176
     1
 90
        0
176
     1
290
     0
176
     1
290
     1
176
     1
290
     1
176
     1
290
     0
176
     1
290
     0
176
     1
290
     0
176
     1
290
     0
176
     1
290
     0
176
     1
290
     0
176
     1
 90
       50
176
     1
 40
0.0
176
     1
 40
1.0
176
     1
 90
        0
176
     1
 62
    18
420
        0
176
     1
 90
       50
176
     1
 90
        3
176
     1
 62
     5
420
      255
176
     1
290
     0
176
     1
 90
       50
176
     1
 90
       50
176
     1
 90
       50
176
     1
290
     0
176
     1
 90
       50
176
     1
 62
   256
176
     0
 40
1.0
176
     0
 90
        2
176
     1
  1
strokes_ogs.tif
176
     1
290
     0
176
     1
 40
1.0
176
     1
 40
1.0
176
     1
1001
ACAD
1000
AcDbSavedByObjectVersion
1070
     0
  0
VISUALSTYLE
  5
2C
102
{ACAD_REACTORS
330
29
102
}
330
29
100
AcDbVisualStyle
  2
Gouraud
 70
     2
177
     3
291
     1
 70
    58
 90
        2
176
     1
 90
        2
176
     1
 90
        1
176
     1
 90
        2
176
     1
 40
0.6
176
     1
 40
30.0
176
     1
 62
     7
420
 16777215
176
     1
 90
        0
176
     1
 90
        0
176
     1
 62
     7
176
     1
 62
   257
176
     1
 90
        1
176
     1
 90
        1
176
     1
 40
1.0
176
     1
 90
        0
176
     1
 62
     7
176
     1
 40
1.0
176
     1
 90
        1
176
     1
 90
        6
176
     1
 90
        2
176
     1
 62
     7
176
     1
 90
        5
176
     1
 90
        0
176
     1
 90
        0
176
     1
290
     0
176
     1
 90
       13
176
     1
 40
0.0
176
     1
 90
        0
176
     1
290
     0
176
     1
290
     1
176
     1
290
     1
176
     1
290
     0
176
     1
290
     0
176
     1
290
     0
176
     1
290
     0
176
     1
290
     0
176
     1
290
     0
176
     1
 90
       50
176
     1
 40
0.0
176
     1
 40
1.0
176
     1
 90
        0
176
     1
 62
    18
420
        0
176
     1
 90
       50
176
     1
 90
        3
176
     1
 62
     5
420
      255
176
     1
290
     0
176
     1
 90
       50
176
     1
 90
       50
176
     1
 90
       50
176
     1
290
     0
176
     1
 90
       50
176
     1
 62
   256
176
     0
 40
1.0
176
     0
 90
        2
176
     1
  1
strokes_ogs.tif
176
     1
290
     0
176
     1
 40
1.0
176
     1
 40
1.0
176
     1
1001
ACAD
1000
AcDbSavedByObjectVersion
1070
     0
  0
VISUALSTYLE
  5
2D
102
{ACAD_REACTORS
330
29
102
}
330
29
100
AcDbVisualStyle
  2
GouraudWithEdges
 70
     3
177
     3
291
     1
 70
    58
 90
        2
176
     1
 90
        2
176
     1
 90
        1
176
     1
 90
        2
176
     1
 40
0.6
176
     1
 40
30.0
176
     1
 62
     7
420
 16777215
176
     1
 90
        1
176
     1
 90
        0
176
     1
 62
     7
176
     1
 62
   257
176
     1
 90
        1
176
     1
 90
        1
176
     1
 40
1.0
176
     1
 90
        0
176
     1
 62
   257
176
     1
 40
1.0
176
     1
 90
        1
176
     1
 90
        6
176
     1
 90
        2
176
     1
 62
     7
176
     1
 90
        5
176
     1
 90
        0
176
     1
 90
        0
176
     1
290
     0
176
     1
 90
       13
176
     1
 40
0.0
176
     1
 90
        0
176
     1
290
     0
176
     1
290
     1
176
     1
290
     1
176
     1
290
     0
176
     1
290
     0
176
     1
290
     0
176
     1
290
     0
176
     1
290
     0
176
     1
290
     0
176
     1
 90
       50
176
     1
 40
0.0
176
     1
 40
1.0
176
     1
 90
        0
176
     1
 62
    18
420
        0
176
     1
 90
       50
176
     1
 90
        3
176
     1
 62
     5
420
      255
176
     1
290
     0
176
     1
 90
       50
176
     1
 90
       50
176
     1
 90
       50
176
     1
290
     0
176
     1
 90
       50
176
     1
 62
   256
176
     0
 40
1.0
176
     0
 90
        2
176
     1
  1
strokes_ogs.tif
176
     1
290
     0
176
     1
 40
1.0
176
     1
 40
1.0
176
     1
1001
ACAD
1000
AcDbSavedByObjectVersion
1070
     0
  0
VISUALSTYLE
  5
31
102
{ACAD_REACTORS
330
29
102
}
330
29
100
AcDbVisualStyle
  2
Hidden
 70
     6
177
     3
291
     0
 70
    58
 90
        1
176
     1
 90
        2
176
     1
 90
        2
176
     1
 90
        0
176
     1
 40
0.6
176
     1
 40
30.0
176
     1
 62
     7
420
 16777215
176
     1
 90
        2
176
     1
 90
        2
176
     1
 62
     7
176
     1
 62
   257
176
     1
 90
        2
176
     1
 90
        1
176
     1
 40
40.0
176
     1
 90
        0
176
     1
 62
   257
176
     1
 40
1.0
176
     1
 90
        1
176
     1
 90
        6
176
     1
 90
        2
176
     1
 62
     7
176
     1
 90
        3
176
     1
 90
        0
176
     1
 90
        0
176
     1
290
     0
176
     1
 90
        1
176
     1
 40
0.0
176
     1
 90
        0
176
     1
290
     0
176
     1
290
     1
176
     1
290
     1
176
     1
290
     0
176
     1
290
     0
176
     1
290
     0
176
     1
290
     0
176
     1
290
     0
176
     1
290
     0
176
     1
 90
       50
176
     1
 40
0.0
176
     1
 40
1.0
176
     1
 90
        0
176
     1
 62
    18
420
        0
176
     1
 90
       50
176
     1
 90
        3
176
     1
 62
     5
420
      255
176
     1
290
     0
176
     1
 90
       50
176
     1
 90
       50
176
     1
 90
       50
176
     1
290
     0
176
     1
 90
       50
176
     1
 62
   256
176
     0
 40
1.0
176
     0
 90
        2
176
     1
  1
strokes_ogs.tif
176
     1
290
     0
176
     1
 40
1.0
176
     1
 40
1.0
176
     1
1001
ACAD
1000
AcDbSavedByObjectVersion
1070
     0
  0
VISUALSTYLE
  5
3F
102
{ACAD_REACTORS
330
29
102
}
330
29
100
AcDbVisualStyle
  2
JitterOff
 70
    20
177
     3
291
     1
 70
    58
 90
        2
176
     0
 90
        2
176
     0
 90
        0
176
     0
 90
        0
176
     0
 40
0.6
176
     0
 40
30.0
176
     0
 62
     7
420
 16777215
176
     0
 90
        1
176
     0
 90
        4
176
     0
 62
     7
176
     0
 62
   257
176
     0
 90
        1
176
     0
 90
        1
176
     0
 40
1.0
176
     0
 90
       10
176
     2
 62
     7
176
     0
 40
1.0
176
     0
 90
        1
176
     0
 90
        6
176
     0
 90
        2
176
     0
 62
     7
176
     0
 90
        5
176
     0
 90
        0
176
     0
 90
        0
176
     0
290
     0
176
     0
 90
        1
176
     0
 40
0.0
176
     0
 90
        0
176
     0
290
     0
176
     0
290
     1
176
     0
290
     1
176
     0
290
     0
176
     0
290
     0
176
     0
290
     0
176
     0
290
     0
176
     0
290
     0
176
     0
290
     0
176
     0
 90
       50
176
     0
 40
0.0
176
     0
 40
1.0
176
     0
 90
        0
176
     0
 62
    18
420
        0
176
     0
 90
       50
176
     0
 90
        3
176
     0
 62
     5
420
      255
176
     0
290
     0
176
     0
 90
       50
176
     0
 90
       50
176
     0
 90
       50
176
     0
290
     0
176
     0
 90
       50
176
     0
 62
   256
176
     0
 40
1.0
176
     0
 90
        2
176
     0
  1
strokes_ogs.tif
176
     0
290
     0
176
     0
 40
1.0
176
     0
 40
1.0
176
     0
1001
ACAD
1000
AcDbSavedByObjectVersion
1070
     0
  0
VISUALSTYLE
  5
37
102
{ACAD_REACTORS
330
29
102
}
330
29
100
AcDbVisualStyle
  2
Linepattern
 70
    14
177
     3
291
     1
 70
    58
 90
        2
176
     1
 90
        2
176
     1
 90
        0
176
     1
 90
        0
176
     1
 40
0.6
176
     1
 40
30.0
176
     1
 62
     7
420
 16777215
176
     1
 90
        1
176
     1
 90
        4
176
     1
 62
     7
176
     1
 62
   257
176
     1
 90
        7
176
     1
 90
        7
176
     1
 40
1.0
176
     1
 90
        8
176
     1
 62
     7
176
     1
 40
1.0
176
     1
 90
        1
176
     1
 90
        6
176
     1
 90
        2
176
     1
 62
     7
176
     1
 90
        5
176
     1
 90
        0
176
     1
 90
        0
176
     1
290
     0
176
     1
 90
        1
176
     1
 40
0.0
176
     1
 90
        0
176
     1
290
     0
176
     1
290
     1
176
     1
290
     1
176
     1
290
     0
176
     1
290
     0
176
     1
290
     0
176
     1
290
     0
176
     1
290
     0
176
     1
290
     0
176
     1
 90
       50
176
     1
 40
0.0
176
     1
 40
1.0
176
     1
 90
        0
176
     1
 62
    18
420
        0
176
     1
 90
       50
176
     1
 90
        3
176
     1
 62
     5
420
      255
176
     1
290
     0
176
     1
 90
       50
176
     1
 90
       50
176
     1
 90
       50
176
     1
290
     0
176
     1
 90
       50
176
     1
 62
   256
176
     0
 40
1.0
176
     0
 90
        2
176
     1
  1
strokes_ogs.tif
176
     1
290
     0
176
     1
 40
1.0
176
     1
 40
1.0
176
     1
1001
ACAD
1000
AcDbSavedByObjectVersion
1070
     0
  0
VISUALSTYLE
  5
40
102
{ACAD_REACTORS
330
29
102
}
330
29
100
AcDbVisualStyle
  2
OverhangOff
 70
    21
177
     3
291
     1
 70
    58
 90
        2
176
     0
 90
        2
176
     0
 90
        0
176
     0
 90
        0
176
     0
 40
0.6
176
     0
 40
30.0
176
     0
 62
     7
420
 16777215
176
     0
 90
        1
176
     0
 90
        4
176
     0
 62
     7
176
     0
 62
   257
176
     0
 90
        1
176
     0
 90
        1
176
     0
 40
1.0
176
     0
 90
        9
176
     2
 62
     7
176
     0
 40
1.0
176
     0
 90
        1
176
     0
 90
        6
176
     0
 90
        2
176
     0
 62
     7
176
     0
 90
        5
176
     0
 90
        0
176
     0
 90
        0
176
     0
290
     0
176
     0
 90
        1
176
     0
 40
0.0
176
     0
 90
        0
176
     0
290
     0
176
     0
290
     1
176
     0
290
     1
176
     0
290
     0
176
     0
290
     0
176
     0
290
     0
176
     0
290
     0
176
     0
290
     0
176
     0
290
     0
176
     0
 90
       50
176
     0
 40
0.0
176
     0
 40
1.0
176
     0
 90
        0
176
     0
 62
    18
420
        0
176
     0
 90
       50
176
     0
 90
        3
176
     0
 62
     5
420
      255
176
     0
290
     0
176
     0
 90
       50
176
     0
 90
       50
176
     0
 90
       50
176
     0
290
     0
176
     0
 90
       50
176
     0
 62
   256
176
     0
 40
1.0
176
     0
 90
        2
176
     0
  1
strokes_ogs.tif
176
     0
290
     0
176
     0
 40
1.0
176
     0
 40
1.0
176
     0
1001
ACAD
1000
AcDbSavedByObjectVersion
1070
     0
  0
VISUALSTYLE
  5
33
102
{ACAD_REACTORS
330
29
102
}
330
29
100
AcDbVisualStyle
  2
Realistic
 70
     8
177
     3
291
     0
 70
    58
 90
        2
176
     1
 90
        3
176
     1
 90
        0
176
     1
 90
        2
176
     1
 40
0.6
176
     1
 40
30.0
176
     1
 62
     7
420
 16777215
176
     1
 90
        0
176
     1
 90
        0
176
     1
 62
     7
176
     1
 62
   257
176
     1
 90
        1
176
     1
 90
        1
176
     1
 40
1.0
176
     1
 90
        8
176
     1
 62
   257
176
     1
 40
1.0
176
     1
 90
        1
176
     1
 90
        6
176
     1
 90
        2
176
     1
 62
     7
176
     1
 90
        3
176
     1
 90
        0
176
     1
 90
        0
176
     1
290
     0
176
     1
 90
       13
176
     1
 40
0.0
176
     1
 90
        0
176
     1
290
     0
176
     1
290
     1
176
     1
290
     1
176
     1
290
     0
176
     1
290
     0
176
     1
290
     0
176
     1
290
     0
176
     1
290
     0
176
     1
290
     0
176
     1
 90
       50
176
     1
 40
0.0
176
     1
 40
1.0
176
     1
 90
        0
176
     1
 62
    18
420
        0
176
     1
 90
       50
176
     1
 90
        3
176
     1
 62
     5
420
      255
176
     1
290
     0
176
     1
 90
       50
176
     1
 90
       50
176
     1
 90
       50
176
     1
290
     0
176
     1
 90
       50
176
     1
 62
   256
176
     0
 40
1.0
176
     0
 90
        2
176
     1
  1
strokes_ogs.tif
176
     1
290
     0
176
     1
 40
1.0
176
     1
 40
1.0
176
     1
1001
ACAD
1000
AcDbSavedByObjectVersion
1070
     0
  0
VISUALSTYLE
  5
3E
102
{ACAD_REACTORS
330
29
102
}
330
29
100
AcDbVisualStyle
  2
Shaded
 70
    27
177
     3
291
     0
 70
    58
 90
        2
176
     1
 90
        2
176
     1
 90
        1
176
     1
 90
        2
176
     1
 40
0.6
176
     1
 40
30.0
176
     1
 62
     7
420
 16777215
176
     1
 90
        0
176
     1
 90
        4
176
     1
 62
     7
176
     1
 62
   257
176
     1
 90
        1
176
     1
 90
        1
176
     1
 40
1.0
176
     1
 90
        8
176
     1
 62
   257
176
     1
 40
1.0
176
     1
 90
        1
176
     1
 90
        6
176
     1
 90
        2
176
     1
 62
     8
420
  7895160
176
     1
 90
        3
176
     1
 90
        0
176
     1
 90
        0
176
     1
290
     0
176
     1
 90
        5
176
     1
 40
0.0
176
     1
 90
        0
176
     1
290
     0
176
     1
290
     1
176
     1
290
     1
176
     1
290
     0
176
     1
290
     0
176
     1
290
     0
176
     1
290
     0
176
     1
290
     0
176
     1
290
     0
176
     1
 90
       50
176
     1
 40
0.0
176
     1
 40
1.0
176
     1
 90
        0
176
     1
 62
    18
420
        0
176
     1
 90
       50
176
     1
 90
        3
176
     1
 62
     5
420
      255
176
     1
290
     0
176
     1
 90
       50
176
     1
 90
       50
176
     1
 90
       50
176
     1
290
     0
176
     1
 90
       50
176
     1
 62
   256
176
     0
 40
1.0
176
     0
 90
        2
176
     1
  1
strokes_ogs.tif
176
     1
290
     0
176
     1
 40
1.0
176
     1
 40
1.0
176
     1
1001
ACAD
1000
AcDbSavedByObjectVersion
1070
     0
  0
VISUALSTYLE
  5
3D
102
{ACAD_REACTORS
330
29
102
}
330
29
100
AcDbVisualStyle
  2
Shaded with edges
 70
    26
177
     3
291
     0
 70
    58
 90
        2
176
     1
 90
        2
176
     1
 90
        1
176
     1
 90
        2
176
     1
 40
0.6
176
     1
 40
30.0
176
     1
 62
     7
420
 16777215
176
     1
 90
        1
176
     1
 90
        2
176
     1
 62
     7
176
     1
 62
   257
176
     1
 90
        2
176
     1
 90
        1
176
     1
 40
1.0
176
     1
 90
        8
176
     1
 62
   257
176
     1
 40
1.0
176
     1
 90
        1
176
     1
 90
        6
176
     1
 90
        2
176
     1
 62
     7
176
     1
 90
        3
176
     1
 90
        0
176
     1
 90
        0
176
     1
290
     0
176
     1
 90
        5
176
     1
 40
0.0
176
     1
 90
        0
176
     1
290
     0
176
     1
290
     1
176
     1
290
     1
176
     1
290
     0
176
     1
290
     0
176
     1
290
     0
176
     1
290
     0
176
     1
290
     0
176
     1
290
     0
176
     1
 90
       50
176
     1
 40
0.0
176
     1
 40
1.0
176
     1
 90
        0
176
     1
 62
    18
420
        0
176
     1
 90
       50
176
     1
 90
        3
176
     1
 62
     5
420
      255
176
     1
290
     0
176
     1
 90
       50
176
     1
 90
       50
176
     1
 90
       50
176
     1
290
     0
176
     1
 90
       50
176
     1
 62
   256
176
     0
 40
1.0
176
     0
 90
        2
176
     1
  1
strokes_ogs.tif
176
     1
290
     0
176
     1
 40
1.0
176
     1
 40
1.0
176
     1
1001
ACAD
1000
AcDbSavedByObjectVersion
1070
     0
  0
VISUALSTYLE
  5
3A
102
{ACAD_REACTORS
330
29
102
}
330
29
100
AcDbVisualStyle
  2
Shades of Gray
 70
    23
177
     3
291
     0
 70
    58
 90
        2
176
     1
 90
        2
176
     1
 90
        3
176
     1
 90
        0
176
     1
 40
0.6
176
     1
 40
30.0
176
     1
 62
     7
420
 16777215
176
     1
 90
        2
176
     1
 90
        2
176
     1
 62
     7
176
     1
 62
     7
176
     1
 90
        1
176
     1
 90
        1
176
     1
 40
40.0
176
     1
 90
        8
176
     1
 62
     7
176
     1
 40
1.0
176
     1
 90
        1
176
     1
 90
        6
176
     1
 90
        2
176
     1
 62
     7
176
     1
 90
        3
176
     1
 90
        0
176
     1
 90
        0
176
     1
290
     0
176
     1
 90
        1
176
     1
 40
0.0
176
     1
 90
        0
176
     1
290
     0
176
     1
290
     1
176
     1
290
     1
176
     1
290
     0
176
     1
290
     0
176
     1
290
     0
176
     1
290
     0
176
     1
290
     0
176
     1
290
     0
176
     1
 90
       50
176
     1
 40
0.0
176
     1
 40
1.0
176
     1
 90
        0
176
     1
 62
    18
420
        0
176
     1
 90
       50
176
     1
 90
        3
176
     1
 62
     5
420
      255
176
     1
290
     0
176
     1
 90
       50
176
     1
 90
       50
176
     1
 90
       50
176
     1
290
     0
176
     1
 90
       50
176
     1
 62
   256
176
     0
 40
1.0
176
     0
 90
        2
176
     1
  1
strokes_ogs.tif
176
     1
290
     0
176
     1
 40
1.0
176
     1
 40
1.0
176
     1
1001
ACAD
1000
AcDbSavedByObjectVersion
1070
     0
  0
VISUALSTYLE
  5
3B
102
{ACAD_REACTORS
330
29
102
}
330
29
100
AcDbVisualStyle
  2
Sketchy
 70
    24
177
     3
291
     0
 70
    58
 90
        1
176
     1
 90
        2
176
     1
 90
        2
176
     1
 90
        0
176
     1
 40
0.6
176
     1
 40
30.0
176
     1
 62
     7
420
 16777215
176
     1
 90
        2
176
     1
 90
        2
176
     1
 62
     7
176
     1
 62
     7
176
     1
 90
        1
176
     1
 90
        1
176
     1
 40
40.0
176
     1
 90
       11
176
     1
 62
     7
176
     1
 40
1.0
176
     1
 90
        1
176
     1
 90
        6
176
     1
 90
        2
176
     1
 62
     7
176
     1
 90
        6
176
     1
 90
        0
176
     1
 90
        0
176
     1
290
     0
176
     1
 90
        1
176
     1
 40
0.0
176
     1
 90
        0
176
     1
290
     0
176
     1
290
     1
176
     1
290
     1
176
     1
290
     0
176
     1
290
     0
176
     1
290
     0
176
     1
290
     0
176
     1
290
     0
176
     1
290
     0
176
     1
 90
       50
176
     1
 40
0.0
176
     1
 40
1.0
176
     1
 90
        0
176
     1
 62
    18
420
        0
176
     1
 90
       50
176
     1
 90
        3
176
     1
 62
     5
420
      255
176
     1
290
     0
176
     1
 90
       50
176
     1
 90
       50
176
     1
 90
       50
176
     1
290
     0
176
     1
 90
       50
176
     1
 62
   256
176
     0
 40
1.0
176
     0
 90
        2
176
     1
  1
strokes_ogs.tif
176
     1
290
     0
176
     1
 40
1.0
176
     1
 40
1.0
176
     1
1001
ACAD
1000
AcDbSavedByObjectVersion
1070
     0
  0
VISUALSTYLE
  5
36
102
{ACAD_REACTORS
330
29
102
}
330
29
100
AcDbVisualStyle
  2
Thicken
 70
    13
177
     3
291
     1
 70
    58
 90
        2
176
     1
 90
        2
176
     1
 90
        0
176
     1
 90
        0
176
     1
 40
0.6
176
     1
 40
30.0
176
     1
 62
     7
420
 16777215
176
     1
 90
        1
176
     1
 90
        4
176
     1
 62
     7
176
     1
 62
   257
176
     1
 90
        1
176
     1
 90
        1
176
     1
 40
1.0
176
     1
 90
       12
176
     1
 62
     7
176
     1
 40
1.0
176
     1
 90
        1
176
     1
 90
        6
176
     1
 90
        2
176
     1
 62
     7
176
     1
 90
        5
176
     1
 90
        0
176
     1
 90
        0
176
     1
290
     0
176
     1
 90
        1
176
     1
 40
0.0
176
     1
 90
        0
176
     1
290
     0
176
     1
290
     1
176
     1
290
     1
176
     1
290
     0
176
     1
290
     0
176
     1
290
     0
176
     1
290
     0
176
     1
290
     0
176
     1
290
     0
176
     1
 90
       50
176
     1
 40
0.0
176
     1
 40
1.0
176
     1
 90
        0
176
     1
 62
    18
420
        0
176
     1
 90
       50
176
     1
 90
        3
176
     1
 62
     5
420
      255
176
     1
290
     0
176
     1
 90
       50
176
     1
 90
       50
176
     1
 90
       50
176
     1
290
     0
176
     1
 90
       50
176
     1
 62
   256
176
     0
 40
1.0
176
     0
 90
        2
176
     1
  1
strokes_ogs.tif
176
     1
290
     0
176
     1
 40
1.0
176
     1
 40
1.0
176
     1
1001
ACAD
1000
AcDbSavedByObjectVersion
1070
     0
  0
VISUALSTYLE
  5
30
102
{ACAD_REACTORS
330
29
102
}
330
29
100
AcDbVisualStyle
  2
Wireframe
 70
     5
177
     3
291
     0
 70
    58
 90
        0
176
     1
 90
        2
176
     1
 90
        0
176
     1
 90
        0
176
     1
 40
0.6
176
     1
 40
30.0
176
     1
 62
     7
420
 16777215
176
     1
 90
        1
176
     1
 90
        4
176
     1
 62
     7
176
     1
 62
   257
176
     1
 90
        1
176
     1
 90
        1
176
     1
 40
1.0
176
     1
 90
        0
176
     1
 62
   257
176
     1
 40
1.0
176
     1
 90
        1
176
     1
 90
        6
176
     1
 90
        2
176
     1
 62
     7
176
     1
 90
        3
176
     1
 90
        0
176
     1
 90
        0
176
     1
290
     0
176
     1
 90
        1
176
     1
 40
0.0
176
     1
 90
        0
176
     1
290
     0
176
     1
290
     1
176
     1
290
     1
176
     1
290
     0
176
     1
290
     0
176
     1
290
     0
176
     1
290
     0
176
     1
290
     0
176
     1
290
     0
176
     1
 90
       50
176
     1
 40
0.0
176
     1
 40
1.0
176
     1
 90
        0
176
     1
 62
    18
420
        0
176
     1
 90
       50
176
     1
 90
        3
176
     1
 62
     5
420
      255
176
     1
290
     0
176
     1
 90
       50
176
     1
 90
       50
176
     1
 90
       50
176
     1
290
     0
176
     1
 90
       50
176
     1
 62
   256
176
     0
 40
1.0
176
     0
 90
        2
176
     1
  1
strokes_ogs.tif
176
     1
290
     0
176
     1
 40
1.0
176
     1
 40
1.0
176
     1
1001
ACAD
1000
AcDbSavedByObjectVersion
1070
     0
  0
VISUALSTYLE
  5
3C
102
{ACAD_REACTORS
330
29
102
}
330
29
100
AcDbVisualStyle
  2
X-Ray
 70
    25
177
     3
291
     0
 70
    58
 90
        2
176
     1
 90
        2
176
     1
 90
        1
176
     1
 90
        1
176
     1
 40
0.5
176
     1
 40
30.0
176
     1
 62
     7
420
 16777215
176
     1
 90
        1
176
     1
 90
        0
176
     1
 62
     7
176
     1
 62
   257
176
     1
 90
        1
176
     1
 90
        1
176
     1
 40
1.0
176
     1
 90
        8
176
     1
 62
     7
176
     1
 40
1.0
176
     1
 90
        1
176
     1
 90
        6
176
     1
 90
        2
176
     1
 62
     7
176
     1
 90
        3
176
     1
 90
        0
176
     1
 90
        0
176
     1
290
     0
176
     1
 90
       13
176
     1
 40
0.0
176
     1
 90
        0
176
     1
290
     0
176
     1
290
     1
176
     1
290
     1
176
     1
290
     0
176
     1
290
     0
176
     1
290
     0
176
     1
290
     0
176
     1
290
     0
176
     1
290
     0
176
     1
 90
       50
176
     1
 40
0.0
176
     1
 40
1.0
176
     1
 90
        0
176
     1
 62
    18
420
        0
176
     1
 90
       50
176
     1
 90
        3
176
     1
 62
     5
420
      255
176
     1
290
     0
176
     1
 90
       50
176
     1
 90
       50
176
     1
 90
       50
176
     1
290
     0
176
     1
 90
       50
176
     1
 62
   256
176
     0
 40
1.0
176
     0
 90
        2
176
     1
  1
strokes_ogs.tif
176
     1
290
     0
176
     1
 40
1.0
176
     1
 40
1.0
176
     1
1001
ACAD
1000
AcDbSavedByObjectVersion
1070
     0
  0
DICTIONARYVAR
  5
2DB
102
{ACAD_REACTORS
330
2D6
102
}
330
2D6
100
DictionaryVariables
280
     0
  1
1:1
  0
DICTIONARYVAR
  5
2D8
102
{ACAD_REACTORS
330
2D6
102
}
330
2D6
100
DictionaryVariables
280
     0
  1
STANDARD
  0
DICTIONARYVAR
  5
2D7
102
{ACAD_REACTORS
330
2D6
102
}
330
2D6
100
DictionaryVariables
280
     0
  1
STANDARD
  0
DICTIONARYVAR
  5
2D9
102
{ACAD_REACTORS
330
2D6
102
}
330
2D6
100
DictionaryVariables
280
     0
  1
Imperial24
  0
DICTIONARYVAR
  5
2DA
102
{ACAD_REACTORS
330
2D6
102
}
330
2D6
100
DictionaryVariables
280
     0
  1
Imperial24
  0
DICTIONARY
  5
2E1
330
6B
100
AcDbDictionary
280
     1
281
     1
  3
ACAD_XREC_ROUNDTRIP
360
2E2
  0
DICTIONARY
  5
1A
330
19
100
AcDbDictionary
280
     1
281
     1
  3
BUMPTILE
360
1C
  3
DIFFUSETILE
360
1B
  3
OPACITYTILE
360
1F
  3
REFLECTIONTILE
360
1E
  3
REFRACTIONTILE
360
20
  3
SPECULARTILE
360
1D
  0
DICTIONARY
  5
12
330
11
100
AcDbDictionary
280
     1
281
     1
  3
BUMPTILE
360
14
  3
DIFFUSETILE
360
13
  3
OPACITYTILE
360
17
  3
REFLECTIONTILE
360
16
  3
REFRACTIONTILE
360
18
  3
SPECULARTILE
360
15
  0
DICTIONARY
  5
22
330
21
100
AcDbDictionary
280
     1
281
     1
  3
BUMPTILE
360
24
  3
DIFFUSETILE
360
23
  3
OPACITYTILE
360
27
  3
REFLECTIONTILE
360
26
  3
REFRACTIONTILE
360
28
  3
SPECULARTILE
360
25
  0
DICTIONARY
  5
2DF
330
69
100
AcDbDictionary
280
     1
281
     1
  3
ACAD_XREC_ROUNDTRIP
360
2E0
  0
DICTIONARY
  5
2DC
330
65
100
AcDbDictionary
280
     1
281
     1
  3
ACAD_ROUNDTRIP_2008_TABLESTYLE_CELLSTYLEMAP
360
2DD
  0
XRECORD
  5
2E2
102
{ACAD_REACTORS
330
2E1
102
}
330
2E1
100
AcDbXrecord
280
     1
102
DISPLAYNAME
  1
Imperial24
102
FLAGS
 90
        0
  0
XRECORD
  5
1C
102
{ACAD_REACTORS
330
1A
102
}
330
1A
100
AcDbXrecord
280
     1
270
     1
271
     1
  0
XRECORD
  5
1B
102
{ACAD_REACTORS
330
1A
102
}
330
1A
100
AcDbXrecord
280
     1
270
     1
271
     1
  0
XRECORD
  5
1F
102
{ACAD_REACTORS
330
1A
102
}
330
1A
100
AcDbXrecord
280
     1
270
     1
271
     1
  0
XRECORD
  5
1E
102
{ACAD_REACTORS
330
1A
102
}
330
1A
100
AcDbXrecord
280
     1
270
     1
271
     1
  0
XRECORD
  5
20
102
{ACAD_REACTORS
330
1A
102
}
330
1A
100
AcDbXrecord
280
     1
270
     1
271
     1
  0
XRECORD
  5
1D
102
{ACAD_REACTORS
330
1A
102
}
330
1A
100
AcDbXrecord
280
     1
270
     1
271
     1
  0
XRECORD
  5
14
102
{ACAD_REACTORS
330
12
102
}
330
12
100
AcDbXrecord
280
     1
270
     1
271
     1
  0
XRECORD
  5
13
102
{ACAD_REACTORS
330
12
102
}
330
12
100
AcDbXrecord
280
     1
270
     1
271
     1
  0
XRECORD
  5
17
102
{ACAD_REACTORS
330
12
102
}
330
12
100
AcDbXrecord
280
     1
270
     1
271
     1
  0
XRECORD
  5
16
102
{ACAD_REACTORS
330
12
102
}
330
12
100
AcDbXrecord
280
     1
270
     1
271
     1
  0
XRECORD
  5
18
102
{ACAD_REACTORS
330
12
102
}
330
12
100
AcDbXrecord
280
     1
270
     1
271
     1
  0
XRECORD
  5
15
102
{ACAD_REACTORS
330
12
102
}
330
12
100
AcDbXrecord
280
     1
270
     1
271
     1
  0
XRECORD
  5
24
102
{ACAD_REACTORS
330
22
102
}
330
22
100
AcDbXrecord
280
     1
270
     1
271
     1
  0
XRECORD
  5
23
102
{ACAD_REACTORS
330
22
102
}
330
22
100
AcDbXrecord
280
     1
270
     1
271
     1
  0
XRECORD
  5
27
102
{ACAD_REACTORS
330
22
102
}
330
22
100
AcDbXrecord
280
     1
270
     1
271
     1
  0
XRECORD
  5
26
102
{ACAD_REACTORS
330
22
102
}
330
22
100
AcDbXrecord
280
     1
270
     1
271
     1
  0
XRECORD
  5
28
102
{ACAD_REACTORS
330
22
102
}
330
22
100
AcDbXrecord
280
     1
270
     1
271
     1
  0
XRECORD
  5
25
102
{ACAD_REACTORS
330
22
102
}
330
22
100
AcDbXrecord
280
     1
270
     1
271
     1
  0
XRECORD
  5
2E0
102
{ACAD_REACTORS
330
2DF
102
}
330
2DF
100
AcDbXrecord
280
     1
102
DISPLAYNAME
  1
Imperial24
102
FLAGS
 90
        0
  0
CELLSTYLEMAP
  5
2DD
102
{ACAD_REACTORS
330
2DC
102
}
330
2DC
100
AcDbCellStyleMap
 90
        3
300
CELLSTYLE
  1
TABLEFORMAT_BEGIN
 90
        5
170
     1
 91
        0
 92
    32768
 62
   257
 93
        1
300
CONTENTFORMAT
  1
CONTENTFORMAT_BEGIN
 90
        0
 91
        0
 92
      512
 93
        0
300

 40
0.0
140
1.0
 94
        5
 62
     0
340
55
144
0.25
309
CONTENTFORMAT_END
171
     0
 94
        0
309
TABLEFORMAT_END
  1
CELLSTYLE_BEGIN
 90
        1
 91
        1
300
_TITLE
309
CELLSTYLE_END
300
CELLSTYLE
  1
TABLEFORMAT_BEGIN
 90
        5
170
     1
 91
        0
 92
        0
 62
   257
 93
        1
300
CONTENTFORMAT
  1
CONTENTFORMAT_BEGIN
 90
        0
 91
        0
 92
      512
 93
        0
300

 40
0.0
140
1.0
 94
        5
 62
     0
340
55
144
0.18
309
CONTENTFORMAT_END
171
     0
 94
        0
309
TABLEFORMAT_END
  1
CELLSTYLE_BEGIN
 90
        2
 91
        1
300
_HEADER
309
CELLSTYLE_END
300
CELLSTYLE
  1
TABLEFORMAT_BEGIN
 90
        5
170
     1
 91
        0
 92
        0
 62
   257
 93
        1
300
CONTENTFORMAT
  1
CONTENTFORMAT_BEGIN
 90
        0
 91
        0
 92
      512
 93
        0
300

 40
0.0
140
1.0
 94
        2
 62
     0
340
55
144
0.18
309
CONTENTFORMAT_END
171
     0
 94
        0
309
TABLEFORMAT_END
  1
CELLSTYLE_BEGIN
 90
        3
 91
        2
300
_DATA
309
CELLSTYLE_END
  0
ENDSEC
  0
EOF
