0
SECTION
2
HEADER
9
$INSUNITS
70
4
9
$ACADVER
1
AC1014
9
$HANDSEED
5
FFFF
0
ENDSEC
0
SECTION
2
TABLES
0
TABLE
2
VPORT
5
8
100
AcDbSymbolTable
0
ENDTAB
0
TABLE
2
LTYPE
5
5
100
AcDbSymbolTable
0
LTYPE
5
14
100
AcDbSymbolTableRecord
100
AcDbLinetypeTableRecord
2
BYBLOCK
70
0
0
LTYPE
5
15
100
AcDbSymbolTableRecord
100
AcDbLinetypeTableRecord
2
BYLAYER
70
0
0
ENDTAB
0
TABLE
2
LAYER
5
2
100
AcDbSymbolTable
70
2
0
LAYER
5
50
100
AcDbSymbolTableRecord
100
AcDbLayerTableRecord
2
0
70
0
6
CONTINUOUS
0
ENDTAB
0
TABLE
2
STYLE
5
3
100
AcDbSymbolTable
70
1
0
STYLE
5
11
100
AcDbSymbolTableRecord
100
AcDbTextStyleTableRecord
2
STANDARD
70
0
0
ENDTAB
0
TABLE
2
VIEW
5
6
100
AcDbSymbolTable
70
0
0
ENDTAB
0
TABLE
2
UCS
5
7
100
AcDbSymbolTable
70
0
0
ENDTAB
0
TABLE
2
APPID
5
9
100
AcDbSymbolTable
70
2
0
APPID
5
12
100
AcDbSymbolTableRecord
100
AcDbRegAppTableRecord
2
ACAD
70
0
0
ENDTAB
0
TABLE
2
DIMSTYLE
5
A
100
AcDbSymbolTable
70
1
0
ENDTAB
0
TABLE
2
BLOCK_RECORD
5
1
100
AcDbSymbolTable
70
1
0
BLOCK_RECORD
5
1F
100
AcDbSymbolTableRecord
100
AcDbBlockTableRecord
2
*MODEL_SPACE
0
BLOCK_RECORD
5
1B
100
AcDbSymbolTableRecord
100
AcDbBlockTableRecord
2
*PAPER_SPACE
0
ENDTAB
0
ENDSEC
0
SECTION
2
BLOCKS
0
BLOCK
5
20
100
AcDbEntity
100
AcDbBlockBegin
2
*MODEL_SPACE
0
ENDBLK
5
21
100
AcDbEntity
100
AcDbBlockEnd
0
BLOCK
5
1C
100
AcDbEntity
100
AcDbBlockBegin
2
*PAPER_SPACE
0
ENDBLK
5
1D
100
AcDbEntity
100
AcDbBlockEnd
0
ENDSEC
0
SECTION
2
ENTITIES
0
LWPOLYLINE
5
100
100
AcDbEntity
8
0
100
AcDbPolyline
90
8
70
1
43
0.0
10
-226.36250000000004
20
54.125000000000021
42
0.41421356237307944
10
-226.86250000000001
20
54.625000000000021
10
-239.86250000000001
20
54.624999999999993
42
0.41421356237315748
10
-240.36250000000001
20
54.125000000000021
10
-240.36249999999998
20
41.125
42
0.41421356237312623
10
-239.86250000000001
20
40.624999999999964
10
-226.86250000000001
20
40.625000000000007
42
0.41421356237304302
10
-226.36250000000007
20
41.125
0
LWPOLYLINE
5
101
100
AcDbEntity
8
0
100
AcDbPolyline
90
32
70
1
43
0.0
10
-1.0250000000005299
20
75.675000000000011
42
-0.41421356237338469
10
-0.52499999999999947
20
75.174999999999983
10
-0.52499999999999702
20
1.0250000000000006
42
-0.41421356237309515
10
-1.0249999999999999
20
0.52499999999999702
10
-1.0916497308103201
20
0.52500000000000036
42
0.26794919243112963
10
-2.8237005383792506
20
-0.47499999999999931
10
-5.1331016151377504
20
-4.4749999999999996
10
-13.204898384862304
20
-4.4750000000000094
10
-15.514299461620736
20
-0.4750000000000224
42
0.26794919243112986
10
-17.246350269189605
20
0.52499999999999991
10
-225.64114973081004
20
0.52500000000000002
42
0.26794919243111193
10
-227.37320053837905
20
-0.47499999999994824
10
-229.68260161513803
20
-4.4750000000000094
10
-237.75439838486199
20
-4.4750000000000112
10
-240.06379946162116
20
-0.47500000000007864
42
0.26794919243115806
10
-241.79585026919
20
0.52500000000000102
10
-241.86250000000001
20
0.52500000000001101
42
-0.41421356237312623
10
-242.36250000000001
20
1.0250000000000004
10
-242.36250000000001
20
75.174999999999983
42
-0.41421356237301699
10
-241.86250000000001
20
75.674999999999983
10
-241.795850269189
20
75.674999999999983
42
0.26794919243100146
10
-240.06379946162099
20
76.675000000000026
10
-237.75439838486199
20
80.675000000000026
10
-229.68260161513803
20
80.675000000000026
10
-227.37320053837891
20
76.675000000000068
42
0.26794919243112497
10
-225.64114973081004
20
75.674999999999983
10
-17.246350269189605
20
75.675000000000026
42
0.26794919243112914
10
-15.514299461620702
20
76.675000000000026
10
-13.204898384862208
20
80.675000000000026
10
-5.1331016151377504
20
80.675000000000026
10
-2.8237005383792493
20
76.675000000000026
42
0.26794919243112453
10
-1.0916497308103701
20
75.674999999999983
0
LWPOLYLINE
5
102
100
AcDbEntity
8
0
100
AcDbPolyline
90
8
70
1
43
0.0
10
-222.10000000000002
20
21.574999999999996
42
0.41421356237300916
10
-221.59999999999999
20
22.074999999999999
10
-221.59999999999999
20
35.075000000000003
42
0.41421356237310802
10
-222.10000000000002
20
35.575000000000017
10
-235.10000000000002
20
35.57500000000001
42
0.41421356237313667
10
-235.60000000000002
20
35.075000000000003
10
-235.60000000000002
20
22.074999999999999
42
0.41421356237315748
10
-235.10000000000002
20
21.575000000000017
0
LWPOLYLINE
5
103
100
AcDbEntity
8
0
100
AcDbPolyline
90
20
70
1
43
0.0
10
-26.837499999999999
20
35.57500000000001
10
-35.862499999999997
20
35.57500000000001
10
-35.862500000000011
20
54.125000000000028
42
0.41421356237306123
10
-36.362500000000004
20
54.625
10
-201.76249999999999
20
54.624999999999993
42
0.41421356237315748
10
-202.26249999999999
20
54.125000000000021
10
-202.26249999999999
20
35.57500000000001
10
-211.28749999999999
20
35.57500000000001
42
0.41421356237313667
10
-211.78750000000002
20
35.075000000000003
10
-211.78750000000002
20
22.074999999999999
42
0.41421356237315748
10
-211.28749999999999
20
21.575000000000017
10
-207.02500000000001
20
21.57500000000001
10
-207.02500000000001
20
3.0249999999999999
42
0.4142135623730222
10
-206.52500000000003
20
2.5249999999999959
10
-22.075000000000003
20
2.5249999999999995
42
0.41421356237309892
10
-21.575000000000006
20
3.0249999999999999
10
-21.575000000000017
20
16.024999999999999
42
0.41421356237308982
10
-22.074999999999999
20
16.525000000000002
10
-26.337499999999999
20
16.524999999999999
10
-26.337499999999995
20
35.075000000000003
42
0.41421356237309243
0
LWPOLYLINE
5
104
100
AcDbEntity
8
0
100
AcDbPolyline
90
8
70
1
43
0.0
10
-5.4062499999999991
20
21.57500000000001
10
-18.40625
20
21.575000000000006
42
-0.41421356237309503
10
-18.906250000000004
20
22.074999999999999
10
-18.906250000000004
20
35.075000000000003
42
-0.41421356237309631
10
-18.40625
20
35.57500000000001
10
-5.4062499999999991
20
35.57500000000001
42
-0.4142135623730937
10
-4.9062499999999964
20
35.075000000000003
10
-4.90625
20
22.074999999999999
42
-0.41421356237310086
0
LWPOLYLINE
5
105
100
AcDbEntity
8
0
100
AcDbPolyline
90
8
70
1
43
0.0
10
-220.8125
20
40.624999999999964
10
-207.8125
20
40.625000000000014
42
0.41421356237310025
10
-207.31250000000011
20
41.125
10
-207.31250000000003
20
54.125000000000021
42
0.41421356237307944
10
-207.8125
20
54.625000000000021
10
-220.8125
20
54.624999999999993
42
0.41421356237315748
10
-221.3125
20
54.125000000000021
10
-221.31249999999997
20
41.125
42
0.41421356237312623
0
LWPOLYLINE
5
106
100
AcDbEntity
8
0
100
AcDbPolyline
90
8
70
1
43
0.0
10
-16.525000000000002
20
3.0249999999999999
42
0.41421356237309342
10
-16.024999999999999
20
2.5249999999999995
10
-3.0249999999999999
20
2.5249999999999999
42
0.41421356237309437
10
-2.5249999999999999
20
3.0249999999999999
10
-2.5250000000000004
20
16.024999999999999
42
0.4142135623730957
10
-3.0249999999999999
20
16.524999999999999
10
-16.024999999999999
20
16.525000000000002
42
0.41421356237308982
10
-16.525000000000002
20
16.024999999999999
0
LWPOLYLINE
5
107
100
AcDbEntity
8
0
100
AcDbPolyline
90
8
70
1
43
0.0
10
-61.768749999999997
20
60.175000000000018
42
0.41421356237313145
10
-61.268749999999997
20
59.675000000000011
10
-48.268750000000004
20
59.675000000000004
42
0.41421356237311063
10
-47.768749999999997
20
60.175000000000018
10
-47.768750000000004
20
73.175000000000026
42
0.41421356237311063
10
-48.268750000000004
20
73.67500000000004
10
-61.268749999999997
20
73.67500000000004
42
0.41421356237308982
10
-61.768749999999997
20
73.175000000000026
0
LWPOLYLINE
5
108
100
AcDbEntity
8
0
100
AcDbPolyline
90
8
70
1
43
0.0
10
-5.4062499999999991
20
73.674999999999983
10
-18.40625
20
73.674999999999983
42
0.41421356237309764
10
-18.90625
20
73.174999999999983
10
-18.906250000000004
20
60.174999999999997
42
0.41421356237309503
10
-18.406250000000007
20
59.675000000000004
10
-5.4062500000000027
20
59.675000000000004
42
0.41421356237312429
10
-4.9062500000000044
20
60.174999999999997
10
-4.9062499999999982
20
73.174999999999983
42
0.41421356237309631
0
LWPOLYLINE
5
109
100
AcDbEntity
8
0
100
AcDbPolyline
90
8
70
1
43
0.0
10
-10.168749999999999
20
54.625
10
-23.168749999999999
20
54.625
42
0.41421356237308721
10
-23.668750000000006
20
54.125000000000021
10
-23.668749999999996
20
41.124999999999986
42
0.41421356237306639
10
-23.168749999999999
20
40.625
10
-10.168749999999999
20
40.624999999999993
42
0.41421356237310936
10
-9.6687499999999975
20
41.125000000000007
10
-9.6687500000000011
20
54.125000000000021
42
0.41421356237306384
0
LWPOLYLINE
5
110
100
AcDbEntity
8
0
100
AcDbPolyline
90
8
70
1
43
0.0
10
-233.21875000000009
20
3.0249999999999999
42
0.41421356237313373
10
-232.71875
20
2.5249999999999946
10
-219.71875
20
2.5250000000000048
42
0.41421356237310869
10
-219.21875000000003
20
3.0249999999999999
10
-219.21875000000003
20
16.024999999999999
42
0.41421356237311452
10
-219.71875
20
16.52500000000002
10
-232.71875
20
16.524999999999991
42
0.41421356237312756
10
-233.21875000000009
20
16.024999999999999
0
LWPOLYLINE
5
111
100
AcDbEntity
8
0
100
AcDbPolyline
90
8
70
1
43
0.0
10
-26.337500000000009
20
60.174999999999997
10
-26.337499999999995
20
73.174999999999983
42
0.41421356237309764
10
-26.837499999999999
20
73.674999999999983
10
-39.837499999999999
20
73.674999999999983
42
0.41421356237310281
10
-40.337499999999991
20
73.175000000000026
10
-40.337500000000013
20
60.175000000000018
42
0.41421356237309764
10
-39.837499999999999
20
59.675000000000011
10
-26.837499999999999
20
59.675000000000011
42
0.41421356237308204
0
LWPOLYLINE
5
112
100
AcDbEntity
8
0
100
AcDbPolyline
90
8
70
1
43
0.0
10
-84.430750000000003
20
73.175000000000026
10
-84.430750000000003
20
59.175000000000011
42
0.41421356237310542
10
-83.930750000000032
20
58.675000000000026
10
-77.930750000000003
20
58.674999999999997
42
0.4142135623730846
10
-77.430750000000018
20
59.175000000000011
10
-77.430750000000032
20
73.175000000000026
42
0.41421356237310542
10
-77.930750000000003
20
73.67500000000004
10
-83.930750000000032
20
73.675000000000026
42
0.41421356237308982
0
LWPOLYLINE
5
113
100
AcDbEntity
8
0
100
AcDbPolyline
90
8
70
1
43
0.0
10
-167.33125000000001
20
59.675000000000018
42
0.41421356237313145
10
-166.83125000000001
20
60.175000000000018
10
-166.83124999999995
20
73.175000000000026
42
0.41421356237312623
10
-167.33125000000001
20
73.67500000000004
10
-180.33125000000001
20
73.67500000000004
42
0.41421356237309503
10
-180.83125000000001
20
73.175000000000026
10
-180.83125000000001
20
60.175000000000018
42
0.41421356237314705
10
-180.33125000000001
20
59.675000000000011
0
LWPOLYLINE
5
114
100
AcDbEntity
8
0
100
AcDbPolyline
90
8
70
1
43
0.0
10
-101.30674999999999
20
59.175000000000011
10
-101.30674999999998
20
73.175000000000026
42
0.41421356237310542
10
-101.80675000000001
20
73.67500000000004
10
-107.80675000000002
20
73.67500000000004
42
0.41421356237307944
10
-108.30674999999999
20
73.175000000000026
10
-108.30674999999999
20
59.175000000000011
42
0.41421356237311585
10
-107.80675000000001
20
58.675000000000026
10
-101.80675000000001
20
58.675000000000011
42
0.41421356237308982
0
LWPOLYLINE
5
115
100
AcDbEntity
8
0
100
AcDbPolyline
90
8
70
1
43
0.0
10
-148.93174999999999
20
59.175000000000026
10
-148.93174999999999
20
73.175000000000026
42
0.41421356237310025
10
-149.43174999999999
20
73.67500000000004
10
-155.43174999999997
20
73.67500000000004
42
0.41421356237310542
10
-155.93174999999999
20
73.175000000000026
10
-155.93174999999999
20
59.175000000000026
42
0.41421356237307944
10
-155.43174999999999
20
58.675000000000011
10
-149.43174999999999
20
58.675000000000004
42
0.41421356237310025
0
LWPOLYLINE
5
116
100
AcDbEntity
8
0
100
AcDbPolyline
90
8
70
1
43
0.0
10
-133.99375000000001
20
59.675000000000026
42
0.41421356237310542
10
-133.49375000000003
20
60.175000000000018
10
-133.49374999999998
20
73.175000000000026
42
0.41421356237310025
10
-133.99374999999998
20
73.67500000000004
10
-146.99375000000003
20
73.67500000000004
42
0.41421356237307944
10
-147.49375000000001
20
73.175000000000026
10
-147.49375000000001
20
60.175000000000018
42
0.41421356237310542
10
-146.99375000000001
20
59.675000000000018
0
LWPOLYLINE
5
117
100
AcDbEntity
8
0
100
AcDbPolyline
90
8
70
1
43
0.0
10
-132.05574999999999
20
59.175000000000026
42
0.4142135623730846
10
-131.55574999999999
20
58.675000000000033
10
-125.55575000000005
20
58.675000000000026
42
0.41421356237312101
10
-125.05575
20
59.175000000000026
10
-125.05575
20
73.175000000000026
42
0.41421356237310025
10
-125.55575000000002
20
73.67500000000004
10
-131.55574999999996
20
73.67500000000004
42
0.41421356237308982
10
-132.05574999999996
20
73.175000000000026
0
LWPOLYLINE
5
118
100
AcDbEntity
8
0
100
AcDbPolyline
90
8
70
1
43
0.0
10
-99.368750000000006
20
73.675000000000026
42
0.41421356237308982
10
-99.868749999999977
20
73.175000000000026
10
-99.868750000000006
20
60.175000000000018
42
0.41421356237310542
10
-99.368750000000006
20
59.675000000000018
10
-86.368750000000034
20
59.675000000000018
42
0.41421356237308982
10
-85.868750000000048
20
60.175000000000018
10
-85.868749999999991
20
73.175000000000026
42
0.41421356237307944
10
-86.36875000000002
20
73.67500000000004
0
LWPOLYLINE
5
119
100
AcDbEntity
8
0
100
AcDbPolyline
90
8
70
1
43
0.0
10
-220.8125
20
59.675000000000018
10
-207.8125
20
59.675000000000011
42
0.41421356237307422
10
-207.31250000000003
20
60.175000000000018
10
-207.31250000000003
20
73.175000000000026
42
0.41421356237305862
10
-207.8125
20
73.675000000000054
10
-220.8125
20
73.67500000000004
42
0.41421356237309503
10
-221.3125
20
73.175000000000026
10
-221.3125
20
60.175000000000018
42
0.41421356237314183
0
LWPOLYLINE
5
120
100
AcDbEntity
8
0
100
AcDbPolyline
90
8
70
1
43
0.0
10
-202.26249999999999
20
73.175000000000026
10
-202.26249999999999
20
60.175000000000018
42
0.41421356237314183
10
-201.76249999999999
20
59.675000000000018
10
-188.76249999999999
20
59.675000000000018
42
0.41421356237313145
10
-188.26249999999999
20
60.175000000000018
10
-188.26250000000002
20
73.175000000000026
42
0.41421356237300139
10
-188.76249999999999
20
73.675000000000054
10
-201.76249999999999
20
73.67500000000004
42
0.41421356237309503
0
LWPOLYLINE
5
121
100
AcDbEntity
8
0
100
AcDbPolyline
90
8
70
1
43
0.0
10
-226.36250000000004
20
73.175000000000026
42
0.41421356237305862
10
-226.86250000000001
20
73.675000000000054
10
-239.86250000000001
20
73.67500000000004
42
0.41421356237309503
10
-240.36250000000001
20
73.175000000000026
10
-240.36250000000001
20
60.175000000000018
42
0.41421356237314183
10
-239.86250000000001
20
59.675000000000018
10
-226.86250000000001
20
59.675000000000011
42
0.41421356237307422
10
-226.36250000000004
20
60.175000000000018
0
ENDSEC
0
SECTION
2
OBJECTS
0
DICTIONARY
5
C
100
AcDbDictionary
3
ACAD_GROUP
350
D
3
ACAD_MLINESTYLE
350
17
0
DICTIONARY
5
D
100
AcDbDictionary
0
DICTIONARY
5
1A
330
C
100
AcDbDictionary
0
DICTIONARY
5
17
100
AcDbDictionary
0
ENDSEC
0
EOF
