0
SECTION
2
HEADER
9
$INSUNITS
70
4
9
$ACADVER
1
AC1014
9
$HANDSEED
5
FFFF
0
ENDSEC
0
SECTION
2
TABLES
0
TABLE
2
VPORT
5
8
100
AcDbSymbolTable
0
ENDTAB
0
TABLE
2
LTYPE
5
5
100
AcDbSymbolTable
0
LTYPE
5
14
100
AcDbSymbolTableRecord
100
AcDbLinetypeTableRecord
2
BYBLOCK
70
0
0
LTYPE
5
15
100
AcDbSymbolTableRecord
100
AcDbLinetypeTableRecord
2
BYLAYER
70
0
0
ENDTAB
0
TABLE
2
LAYER
5
2
100
AcDbSymbolTable
70
2
0
LAYER
5
50
100
AcDbSymbolTableRecord
100
AcDbLayerTableRecord
2
0
70
0
6
CONTINUOUS
0
ENDTAB
0
TABLE
2
STYLE
5
3
100
AcDbSymbolTable
70
1
0
STYLE
5
11
100
AcDbSymbolTableRecord
100
AcDbTextStyleTableRecord
2
STANDARD
70
0
0
ENDTAB
0
TABLE
2
VIEW
5
6
100
AcDbSymbolTable
70
0
0
ENDTAB
0
TABLE
2
UCS
5
7
100
AcDbSymbolTable
70
0
0
ENDTAB
0
TABLE
2
APPID
5
9
100
AcDbSymbolTable
70
2
0
APPID
5
12
100
AcDbSymbolTableRecord
100
AcDbRegAppTableRecord
2
ACAD
70
0
0
ENDTAB
0
TABLE
2
DIMSTYLE
5
A
100
AcDbSymbolTable
70
1
0
ENDTAB
0
TABLE
2
BLOCK_RECORD
5
1
100
AcDbSymbolTable
70
1
0
BLOCK_RECORD
5
1F
100
AcDbSymbolTableRecord
100
AcDbBlockTableRecord
2
*MODEL_SPACE
0
BLOCK_RECORD
5
1B
100
AcDbSymbolTableRecord
100
AcDbBlockTableRecord
2
*PAPER_SPACE
0
ENDTAB
0
ENDSEC
0
SECTION
2
BLOCKS
0
BLOCK
5
20
100
AcDbEntity
100
AcDbBlockBegin
2
*MODEL_SPACE
0
ENDBLK
5
21
100
AcDbEntity
100
AcDbBlockEnd
0
BLOCK
5
1C
100
AcDbEntity
100
AcDbBlockBegin
2
*PAPER_SPACE
0
ENDBLK
5
1D
100
AcDbEntity
100
AcDbBlockEnd
0
ENDSEC
0
SECTION
2
ENTITIES
0
LWPOLYLINE
5
100
100
AcDbEntity
8
0
100
AcDbPolyline
90
8
70
1
43
0.0
10
-4.9062500000000071
20
73.174999999999983
42
0.41421356237309698
10
-5.4062500000000107
20
73.674999999999983
10
-18.406250000000007
20
73.674999999999983
42
0.41421356237309631
10
-18.906250000000007
20
73.174999999999983
10
-18.906250000000007
20
60.174999999999997
42
0.41421356237309764
10
-18.406250000000007
20
59.675000000000004
10
-5.4062500000000044
20
59.675000000000004
42
0.41421356237310414
10
-4.9062500000000098
20
60.174999999999997
0
LWPOLYLINE
5
101
100
AcDbEntity
8
0
100
AcDbPolyline
90
8
70
1
43
0.0
10
-16.524999999999999
20
3.0249999999999999
42
0.4142135623730957
10
-16.024999999999999
20
2.5250000000000004
10
-3.0249999999999999
20
2.5250000000000004
42
0.41421356237309309
10
-2.5250000000000004
20
3.0249999999999999
10
-2.5250000000000017
20
16.024999999999999
42
0.4142135623730937
10
-3.0250000000000021
20
16.525000000000002
10
-16.025000000000002
20
16.525000000000002
42
0.41421356237308854
10
-16.525000000000002
20
16.024999999999999
0
LWPOLYLINE
5
102
100
AcDbEntity
8
0
100
AcDbPolyline
90
8
70
1
43
0.0
10
-36.362499999999997
20
40.625
42
0.41421356237310542
10
-35.862500000000011
20
41.125
10
-35.862500000000011
20
54.125000000000014
42
0.41421356237308204
10
-36.362499999999997
20
54.625
10
-49.362500000000011
20
54.624999999999993
42
0.41421356237309503
10
-49.862500000000018
20
54.125000000000007
10
-49.862500000000026
20
41.125
42
0.41421356237311063
10
-49.362500000000011
20
40.624999999999993
0
LWPOLYLINE
5
103
100
AcDbEntity
8
0
100
AcDbPolyline
90
32
70
1
43
0.0
10
-1.0250000000005299
20
75.675000000000011
42
-0.41421356237338469
10
-0.52499999999999947
20
75.174999999999983
10
-0.52499999999999702
20
1.0250000000000006
42
-0.41421356237309515
10
-1.0249999999999999
20
0.52499999999999702
10
-1.0916497308103204
20
0.52500000000000013
42
0.2679491924311293
10
-2.8237005383792511
20
-0.47499999999999987
10
-5.1331016151377504
20
-4.4749999999999996
10
-13.204898384862304
20
-4.4750000000000094
10
-15.514299461620736
20
-0.4750000000000224
42
0.26794919243112986
10
-17.246350269189605
20
0.52499999999999991
10
-225.64114973081004
20
0.52499999999996827
42
0.26794919243111381
10
-227.37320053837905
20
-0.47499999999994769
10
-229.68260161513803
20
-4.4750000000000085
10
-237.75439838486199
20
-4.4750000000000112
10
-240.06379946162116
20
-0.47500000000007309
42
0.26794919243115722
10
-241.79585026919
20
0.5250000000000008
10
-241.86250000000001
20
0.52500000000001101
42
-0.41421356237312645
10
-242.36250000000001
20
1.0250000000000004
10
-242.36250000000001
20
75.174999999999983
42
-0.41421356237301699
10
-241.86250000000001
20
75.674999999999983
10
-241.795850269189
20
75.674999999999983
42
0.26794919243100146
10
-240.06379946162099
20
76.675000000000026
10
-237.75439838486199
20
80.675000000000026
10
-229.68260161513803
20
80.675000000000026
10
-227.37320053837891
20
76.675000000000068
42
0.26794919243112497
10
-225.64114973081004
20
75.674999999999983
10
-17.246350269189605
20
75.675000000000026
42
0.26794919243112914
10
-15.514299461620702
20
76.675000000000026
10
-13.204898384862208
20
80.675000000000026
10
-5.1331016151377504
20
80.675000000000026
10
-2.8237005383792493
20
76.675000000000026
42
0.26794919243112453
10
-1.0916497308103701
20
75.674999999999983
0
LWPOLYLINE
5
104
100
AcDbEntity
8
0
100
AcDbPolyline
90
8
70
1
43
0.0
10
-22.074999999999996
20
2.5249999999999977
42
0.41421356237308593
10
-21.575000000000006
20
3.0249999999999977
10
-21.575000000000006
20
16.024999999999999
42
0.41421356237309243
10
-22.07500000000001
20
16.524999999999999
10
-35.075000000000003
20
16.524999999999999
42
0.41421356237309243
10
-35.57500000000001
20
16.024999999999995
10
-35.575000000000003
20
3.0249999999999955
42
0.41421356237309309
10
-35.075000000000003
20
2.5249999999999946
0
LWPOLYLINE
5
105
100
AcDbEntity
8
0
100
AcDbPolyline
90
8
70
1
43
0.0
10
-5.4062500000000027
20
21.575000000000006
42
0.4142135623730937
10
-4.90625
20
22.074999999999999
10
-4.9062500000000009
20
35.075000000000003
42
0.4142135623730937
10
-5.4062500000000053
20
35.57500000000001
10
-18.406250000000007
20
35.575000000000003
42
0.41421356237310153
10
-18.906250000000004
20
35.075000000000003
10
-18.906250000000007
20
22.074999999999999
42
0.41421356237309243
10
-18.406250000000007
20
21.575000000000003
0
LWPOLYLINE
5
106
100
AcDbEntity
8
0
100
AcDbPolyline
90
8
70
1
43
0.0
10
-26.837499999999999
20
21.575000000000003
42
0.41421356237308982
10
-26.337500000000009
20
22.074999999999999
10
-26.337500000000006
20
35.075000000000003
42
0.41421356237309503
10
-26.837499999999999
20
35.575000000000003
10
-39.837500000000013
20
35.575000000000003
42
0.41421356237309243
10
-40.337500000000013
20
35.075000000000003
10
-40.337500000000013
20
22.074999999999999
42
0.4142135623730846
10
-39.837500000000013
20
21.575000000000003
0
LWPOLYLINE
5
107
100
AcDbEntity
8
0
100
AcDbPolyline
90
8
70
1
43
0.0
10
-23.16875000000001
20
54.625
42
0.41421356237311063
10
-23.668750000000006
20
54.125000000000014
10
-23.668750000000006
20
41.125
42
0.41421356237310542
10
-23.16875000000001
20
40.625
10
-10.168750000000005
20
40.625
42
0.41421356237309503
10
-9.6687500000000064
20
41.125
10
-9.6687500000000028
20
54.125000000000014
42
0.41421356237308204
10
-10.168750000000006
20
54.625
0
LWPOLYLINE
5
108
100
AcDbEntity
8
0
100
AcDbPolyline
90
8
70
1
43
0.0
10
-101.30675000000004
20
73.174999999999983
42
0.41421356237310542
10
-101.80675000000002
20
73.674999999999983
10
-107.80675000000002
20
73.674999999999997
42
0.41421356237311585
10
-108.30675000000002
20
73.174999999999983
10
-108.30674999999999
20
59.175000000000004
42
0.41421356237311063
10
-107.80675000000001
20
58.674999999999997
10
-101.80675000000001
20
58.67499999999999
42
0.41421356237310025
10
-101.30674999999999
20
59.175000000000004
0
LWPOLYLINE
5
109
100
AcDbEntity
8
0
100
AcDbPolyline
90
8
70
1
43
0.0
10
-125.55575000000005
20
73.674999999999983
10
-131.55575000000002
20
73.674999999999983
42
0.41421356237310542
10
-132.05574999999999
20
73.174999999999983
10
-132.05575000000005
20
59.174999999999983
42
0.41421356237306384
10
-131.55574999999999
20
58.674999999999962
10
-125.55575000000002
20
58.67499999999999
42
0.41421356237311063
10
-125.05575
20
59.174999999999983
10
-125.05575
20
73.174999999999983
42
0.41421356237311585
0
LWPOLYLINE
5
110
100
AcDbEntity
8
0
100
AcDbPolyline
90
8
70
1
43
0.0
10
-133.49375000000006
20
73.174999999999983
42
0.41421356237307422
10
-133.99375000000003
20
73.674999999999983
10
-146.99375000000003
20
73.674999999999997
42
0.41421356237311585
10
-147.49375000000003
20
73.174999999999983
10
-147.49375000000003
20
60.174999999999983
42
0.41421356237309503
10
-146.99375000000001
20
59.674999999999969
10
-133.99375000000001
20
59.674999999999997
42
0.41421356237310542
10
-133.49375000000003
20
60.174999999999983
0
LWPOLYLINE
5
111
100
AcDbEntity
8
0
100
AcDbPolyline
90
8
70
1
43
0.0
10
-26.837500000000013
20
73.674999999999983
10
-39.837500000000013
20
73.674999999999983
42
0.41421356237309764
10
-40.337500000000013
20
73.174999999999983
10
-40.337500000000013
20
60.174999999999983
42
0.41421356237309243
10
-39.837500000000013
20
59.675000000000004
10
-26.837500000000013
20
59.675000000000011
42
0.41421356237310281
10
-26.337500000000009
20
60.174999999999997
10
-26.337500000000013
20
73.174999999999983
42
0.41421356237309503
0
LWPOLYLINE
5
112
100
AcDbEntity
8
0
100
AcDbPolyline
90
8
70
1
43
0.0
10
-61.268750000000018
20
73.674999999999983
42
0.41421356237310542
10
-61.768750000000018
20
73.174999999999983
10
-61.768750000000018
20
60.17499999999999
42
0.41421356237311063
10
-61.268750000000018
20
59.675000000000004
10
-48.268750000000011
20
59.675000000000004
42
0.41421356237310025
10
-47.768750000000011
20
60.17499999999999
10
-47.768750000000011
20
73.174999999999983
42
0.41421356237310542
10
-48.268750000000011
20
73.674999999999983
0
LWPOLYLINE
5
113
100
AcDbEntity
8
0
100
AcDbPolyline
90
8
70
1
43
0.0
10
-85.868750000000034
20
73.174999999999983
42
0.4142135623730534
10
-86.368750000000034
20
73.674999999999983
10
-99.36875000000002
20
73.674999999999997
42
0.41421356237310542
10
-99.868750000000006
20
73.174999999999983
10
-99.868750000000048
20
60.17499999999999
42
0.41421356237310542
10
-99.368750000000006
20
59.674999999999976
10
-86.36875000000002
20
59.675000000000004
42
0.41421356237310542
10
-85.868750000000048
20
60.17499999999999
0
LWPOLYLINE
5
114
100
AcDbEntity
8
0
100
AcDbPolyline
90
8
70
1
43
0.0
10
-83.930750000000032
20
58.674999999999969
10
-77.930750000000003
20
58.674999999999997
42
0.4142135623730846
10
-77.430750000000032
20
59.175000000000004
10
-77.430750000000032
20
73.174999999999983
42
0.41421356237310542
10
-77.930750000000032
20
73.674999999999983
10
-83.930750000000032
20
73.674999999999997
42
0.41421356237311585
10
-84.430750000000046
20
73.174999999999983
10
-84.430750000000046
20
59.175000000000004
42
0.4142135623730846
0
LWPOLYLINE
5
115
100
AcDbEntity
8
0
100
AcDbPolyline
90
8
70
1
43
0.0
10
-201.76249999999999
20
40.624999999999964
10
-188.76249999999999
20
40.624999999999986
42
0.41421356237312101
10
-188.26249999999999
20
41.124999999999964
10
-188.26249999999999
20
54.124999999999979
42
0.41421356237301699
10
-188.76249999999999
20
54.624999999999993
10
-201.76249999999999
20
54.624999999999986
42
0.41421356237309503
10
-202.26249999999999
20
54.124999999999979
10
-202.26249999999999
20
41.124999999999964
42
0.41421356237313667
0
LWPOLYLINE
5
116
100
AcDbEntity
8
0
100
AcDbPolyline
90
8
70
1
43
0.0
10
-148.93175000000008
20
73.174999999999983
42
0.41421356237310542
10
-149.43175000000005
20
73.674999999999983
10
-155.43175000000005
20
73.674999999999997
42
0.41421356237311585
10
-155.93175000000005
20
73.174999999999983
10
-155.93175000000005
20
59.174999999999983
42
0.41421356237309503
10
-155.43174999999999
20
58.674999999999962
10
-149.43174999999999
20
58.674999999999997
42
0.41421356237310542
10
-148.93174999999999
20
59.174999999999983
0
LWPOLYLINE
5
117
100
AcDbEntity
8
0
100
AcDbPolyline
90
8
70
1
43
0.0
10
-183.21250000000003
20
54.124999999999979
10
-183.21250000000003
20
41.124999999999964
42
0.41421356237310542
10
-182.71250000000006
20
40.624999999999964
10
-169.71250000000001
20
40.624999999999943
42
0.41421356237311063
10
-169.21250000000001
20
41.124999999999979
10
-169.21250000000001
20
54.125
42
0.41421356237314183
10
-169.71250000000001
20
54.624999999999993
10
-182.71250000000006
20
54.624999999999979
42
0.41421356237311063
0
LWPOLYLINE
5
118
100
AcDbEntity
8
0
100
AcDbPolyline
90
8
70
1
43
0.0
10
-226.86250000000001
20
40.624999999999929
42
0.41421356237304818
10
-226.36250000000004
20
41.124999999999964
10
-226.36250000000007
20
54.124999999999979
42
0.4142135623730534
10
-226.86250000000001
20
54.624999999999993
10
-239.86250000000001
20
54.624999999999986
42
0.41421356237309503
10
-240.36250000000001
20
54.124999999999979
10
-240.36250000000001
20
41.124999999999964
42
0.41421356237313667
10
-239.86250000000001
20
40.624999999999964
0
LWPOLYLINE
5
119
100
AcDbEntity
8
0
100
AcDbPolyline
90
8
70
1
43
0.0
10
-226.86250000000001
20
73.674999999999983
10
-239.86250000000001
20
73.675000000000011
42
0.41421356237310025
10
-240.36250000000001
20
73.174999999999983
10
-240.36250000000001
20
60.174999999999983
42
0.41421356237314705
10
-239.86250000000001
20
59.674999999999976
10
-226.86250000000001
20
59.674999999999976
42
0.41421356237307422
10
-226.36250000000004
20
60.174999999999983
10
-226.36250000000007
20
73.174999999999983
42
0.4142135623730846
0
LWPOLYLINE
5
120
100
AcDbEntity
8
0
100
AcDbPolyline
90
8
70
1
43
0.0
10
-207.31250000000003
20
41.124999999999964
10
-207.31250000000006
20
54.124999999999979
42
0.4142135623730534
10
-207.8125
20
54.624999999999993
10
-220.8125
20
54.624999999999986
42
0.41421356237309503
10
-221.3125
20
54.124999999999979
10
-221.3125
20
41.124999999999964
42
0.41421356237313667
10
-220.8125
20
40.624999999999964
10
-207.8125
20
40.624999999999929
42
0.41421356237304818
0
LWPOLYLINE
5
121
100
AcDbEntity
8
0
100
AcDbPolyline
90
8
70
1
43
0.0
10
-167.33125000000001
20
59.674999999999983
42
0.41421356237313145
10
-166.83125000000001
20
60.174999999999983
10
-166.83125000000004
20
73.174999999999983
42
0.4142135623730222
10
-167.33125000000001
20
73.674999999999983
10
-180.33125000000001
20
73.675000000000011
42
0.41421356237310025
10
-180.83125000000001
20
73.174999999999983
10
-180.83125000000001
20
60.174999999999983
42
0.41421356237314183
10
-180.33125000000001
20
59.674999999999983
0
LWPOLYLINE
5
122
100
AcDbEntity
8
0
100
AcDbPolyline
90
8
70
1
43
0.0
10
-188.26250000000002
20
73.174999999999983
42
0.4142135623730222
10
-188.76249999999999
20
73.674999999999983
10
-201.76249999999999
20
73.675000000000011
42
0.41421356237310025
10
-202.26249999999999
20
73.174999999999983
10
-202.26249999999999
20
60.174999999999983
42
0.41421356237314705
10
-201.76249999999999
20
59.674999999999976
10
-188.76249999999999
20
59.674999999999983
42
0.41421356237313145
10
-188.26249999999999
20
60.174999999999983
0
LWPOLYLINE
5
123
100
AcDbEntity
8
0
100
AcDbPolyline
90
8
70
1
43
0.0
10
-220.8125
20
59.674999999999976
10
-207.8125
20
59.674999999999976
42
0.41421356237307422
10
-207.31250000000003
20
60.174999999999983
10
-207.31250000000006
20
73.174999999999983
42
0.4142135623730846
10
-207.8125
20
73.674999999999983
10
-220.8125
20
73.675000000000011
42
0.41421356237310025
10
-221.3125
20
73.174999999999983
10
-221.3125
20
60.174999999999983
42
0.41421356237314705
0
LWPOLYLINE
5
124
100
AcDbEntity
8
0
100
AcDbPolyline
90
8
70
1
43
0.0
10
-163.66250000000005
20
40.624999999999964
10
-150.66249999999999
20
40.624999999999993
42
0.41421356237310542
10
-150.16249999999999
20
41.124999999999979
10
-150.16249999999999
20
54.125
42
0.41421356237310542
10
-150.66249999999999
20
54.624999999999993
10
-163.66250000000005
20
54.625000000000014
42
0.41421356237310025
10
-164.16250000000005
20
54.125
10
-164.16250000000005
20
41.124999999999979
42
0.41421356237311063
0
LWPOLYLINE
5
125
100
AcDbEntity
8
0
100
AcDbPolyline
90
8
70
1
43
0.0
10
-58.887500000000017
20
35.574999999999989
42
0.41421356237308204
10
-59.387500000000003
20
35.075000000000003
10
-59.387500000000003
20
22.074999999999992
42
0.41421356237311063
10
-58.887500000000017
20
21.574999999999992
10
-45.887499999999989
20
21.574999999999989
42
0.41421356237308721
10
-45.387500000000003
20
22.074999999999999
10
-45.387500000000003
20
35.075000000000003
42
0.41421356237307683
10
-45.887500000000003
20
35.575000000000003
0
LWPOLYLINE
5
126
100
AcDbEntity
8
0
100
AcDbPolyline
90
8
70
1
43
0.0
10
-131.61250000000001
20
40.624999999999993
42
0.41421356237310542
10
-131.11250000000001
20
41.124999999999979
10
-131.11250000000001
20
54.125
42
0.41421356237310542
10
-131.61250000000001
20
54.624999999999993
10
-144.61250000000001
20
54.625
42
0.41421356237309503
10
-145.11250000000001
20
54.125
10
-145.11250000000001
20
41.124999999999979
42
0.41421356237305862
10
-144.61250000000001
20
40.624999999999964
0
LWPOLYLINE
5
127
100
AcDbEntity
8
0
100
AcDbPolyline
90
8
70
1
43
0.0
10
-126.06250000000001
20
54.125
10
-126.06250000000001
20
41.124999999999979
42
0.41421356237305862
10
-125.5625
20
40.624999999999964
10
-112.56250000000001
20
40.624999999999993
42
0.41421356237310542
10
-112.0625
20
41.124999999999979
10
-112.0625
20
54.125
42
0.41421356237310542
10
-112.56250000000001
20
54.624999999999993
10
-125.5625
20
54.625
42
0.41421356237309503
0
LWPOLYLINE
5
128
100
AcDbEntity
8
0
100
AcDbPolyline
90
8
70
1
43
0.0
10
-106.51250000000003
20
40.624999999999993
10
-93.512500000000003
20
40.625
42
0.41421356237312101
10
-93.012500000000017
20
41.125
10
-93.012500000000017
20
54.125000000000007
42
0.41421356237305862
10
-93.512500000000003
20
54.625
10
-106.51250000000002
20
54.625
42
0.41421356237310025
10
-107.01250000000002
20
54.125000000000007
10
-107.01250000000002
20
41.125
42
0.41421356237310542
0
LWPOLYLINE
5
129
100
AcDbEntity
8
0
100
AcDbPolyline
90
8
70
1
43
0.0
10
-55.412500000000016
20
54.624999999999993
10
-68.412500000000009
20
54.624999999999993
42
0.41421356237310025
10
-68.912500000000009
20
54.125000000000007
10
-68.912500000000009
20
41.125
42
0.41421356237307944
10
-68.412500000000009
20
40.624999999999993
10
-55.412500000000016
20
40.624999999999993
42
0.41421356237310025
10
-54.912500000000016
20
41.125
10
-54.912500000000016
20
54.125000000000007
42
0.41421356237311063
0
LWPOLYLINE
5
130
100
AcDbEntity
8
0
100
AcDbPolyline
90
8
70
1
43
0.0
10
-74.462500000000034
20
54.624999999999993
10
-87.462500000000006
20
54.625
42
0.41421356237310025
10
-87.962500000000006
20
54.125000000000007
10
-87.96250000000002
20
41.125
42
0.41421356237307422
10
-87.46250000000002
20
40.624999999999993
10
-74.462500000000006
20
40.624999999999993
42
0.41421356237307422
10
-73.96250000000002
20
41.125
10
-73.96250000000002
20
54.125000000000007
42
0.41421356237309503
0
LWPOLYLINE
5
131
100
AcDbEntity
8
0
100
AcDbPolyline
90
8
70
1
43
0.0
10
-78.4375
20
35.075000000000003
10
-78.4375
20
22.074999999999992
42
0.41421356237307161
10
-77.9375
20
21.574999999999992
10
-64.9375
20
21.574999999999989
42
0.41421356237309764
10
-64.4375
20
22.074999999999992
10
-64.437500000000014
20
35.075000000000003
42
0.41421356237310281
10
-64.9375
20
35.574999999999989
10
-77.9375
20
35.574999999999989
42
0.41421356237310025
0
LWPOLYLINE
5
132
100
AcDbEntity
8
0
100
AcDbPolyline
90
8
70
1
43
0.0
10
-141.13749999999999
20
21.574999999999985
42
0.41421356237309243
10
-140.63749999999999
20
22.074999999999989
10
-140.63749999999999
20
35.074999999999989
42
0.41421356237310802
10
-141.13749999999999
20
35.574999999999989
10
-154.13749999999999
20
35.575000000000003
42
0.41421356237307683
10
-154.63750000000005
20
35.074999999999989
10
-154.63750000000002
20
22.074999999999989
42
0.41421356237310802
10
-154.13749999999999
20
21.574999999999971
0
LWPOLYLINE
5
133
100
AcDbEntity
8
0
100
AcDbPolyline
90
8
70
1
43
0.0
10
-160.1875
20
35.574999999999989
10
-173.1875
20
35.574999999999974
42
0.41421356237312362
10
-173.68750000000003
20
35.074999999999989
10
-173.68750000000003
20
22.074999999999974
42
0.41421356237310281
10
-173.1875
20
21.574999999999967
10
-160.1875
20
21.574999999999985
42
0.41421356237309243
10
-159.6875
20
22.074999999999989
10
-159.6875
20
35.074999999999989
42
0.41421356237309764
0
LWPOLYLINE
5
134
100
AcDbEntity
8
0
100
AcDbPolyline
90
8
70
1
43
0.0
10
-211.28749999999999
20
35.574999999999982
42
0.41421356237310025
10
-211.78750000000002
20
35.074999999999967
10
-211.78750000000002
20
22.074999999999974
42
0.41421356237314444
10
-211.28749999999999
20
21.574999999999967
10
-198.28749999999999
20
21.574999999999967
42
0.41421356237307422
10
-197.78750000000002
20
22.074999999999974
10
-197.78750000000002
20
35.074999999999989
42
0.41421356237309503
10
-198.28749999999999
20
35.57499999999996
0
LWPOLYLINE
5
135
100
AcDbEntity
8
0
100
AcDbPolyline
90
8
70
1
43
0.0
10
-192.73750000000007
20
35.074999999999989
10
-192.73750000000007
20
22.074999999999974
42
0.41421356237307422
10
-192.23750000000001
20
21.574999999999967
10
-179.23750000000001
20
21.574999999999989
42
0.41421356237312362
10
-178.73750000000001
20
22.074999999999974
10
-178.73750000000001
20
35.074999999999989
42
0.41421356237314183
10
-179.23750000000001
20
35.574999999999989
10
-192.23750000000001
20
35.574999999999996
42
0.41421356237307422
0
LWPOLYLINE
5
136
100
AcDbEntity
8
0
100
AcDbPolyline
90
8
70
1
43
0.0
10
-116.53750000000001
20
22.074999999999992
42
0.41421356237307422
10
-116.03749999999999
20
21.574999999999985
10
-103.03750000000001
20
21.574999999999996
42
0.41421356237310802
10
-102.53749999999999
20
22.074999999999992
10
-102.53749999999999
20
35.074999999999989
42
0.41421356237311846
10
-103.03750000000001
20
35.575000000000003
10
-116.03749999999999
20
35.575000000000003
42
0.41421356237307683
10
-116.53750000000001
20
35.074999999999989
0
LWPOLYLINE
5
137
100
AcDbEntity
8
0
100
AcDbPolyline
90
8
70
1
43
0.0
10
-122.08750000000002
20
35.575000000000003
10
-135.08750000000001
20
35.575000000000003
42
0.41421356237307683
10
-135.58750000000001
20
35.074999999999989
10
-135.58750000000001
20
22.074999999999989
42
0.41421356237312362
10
-135.08750000000001
20
21.574999999999971
10
-122.08750000000002
20
21.574999999999985
42
0.41421356237309503
10
-121.58750000000001
20
22.074999999999992
10
-121.58750000000001
20
35.074999999999989
42
0.41421356237311846
0
LWPOLYLINE
5
138
100
AcDbEntity
8
0
100
AcDbPolyline
90
8
70
1
43
0.0
10
-83.487499999999983
20
22.074999999999992
10
-83.487500000000011
20
35.075000000000003
42
0.41421356237309243
10
-83.987499999999983
20
35.57500000000001
10
-96.987500000000011
20
35.574999999999982
42
0.41421356237310802
10
-97.487500000000011
20
35.074999999999989
10
-97.487500000000011
20
22.074999999999992
42
0.41421356237309503
10
-96.987500000000011
20
21.574999999999985
10
-83.987499999999983
20
21.574999999999985
42
0.4142135623730846
0
LWPOLYLINE
5
139
100
AcDbEntity
8
0
100
AcDbPolyline
90
8
70
1
43
0.0
10
-130.82499999999999
20
3.0249999999999866
42
0.4142135623730947
10
-130.32499999999999
20
2.5249999999999777
10
-117.32500000000002
20
2.5249999999999888
42
0.41421356237312074
10
-116.82500000000003
20
3.0249999999999866
10
-116.82500000000003
20
16.024999999999988
42
0.41421356237310153
10
-117.32500000000002
20
16.524999999999995
10
-130.32499999999999
20
16.524999999999981
42
0.41421356237310675
10
-130.82499999999999
20
16.024999999999988
0
LWPOLYLINE
5
140
100
AcDbEntity
8
0
100
AcDbPolyline
90
8
70
1
43
0.0
10
-193.52500000000006
20
16.524999999999984
10
-206.52500000000003
20
16.524999999999956
42
0.41421356237312101
10
-207.02500000000003
20
16.024999999999974
10
-207.02500000000001
20
3.0249999999999777
42
0.41421356237309731
10
-206.52500000000003
20
2.5250000000000039
10
-193.52500000000006
20
2.5249999999999941
42
0.41421356237312301
10
-193.02500000000006
20
3.0249999999999777
10
-193.02500000000006
20
16.024999999999974
42
0.4142135623730131
0
LWPOLYLINE
5
141
100
AcDbEntity
8
0
100
AcDbPolyline
90
8
70
1
43
0.0
10
-235.60000000000002
20
22.074999999999974
42
0.41421356237314444
10
-235.10000000000002
20
21.574999999999967
10
-222.10000000000002
20
21.574999999999989
42
0.41421356237312362
10
-221.59999999999999
20
22.074999999999974
10
-221.60000000000002
20
35.074999999999967
42
0.41421356237299356
10
-222.10000000000002
20
35.574999999999989
10
-235.10000000000002
20
35.574999999999982
42
0.41421356237310025
10
-235.60000000000002
20
35.074999999999967
0
LWPOLYLINE
5
142
100
AcDbEntity
8
0
100
AcDbPolyline
90
8
70
1
43
0.0
10
-155.42500000000001
20
2.524999999999975
42
0.41421356237307422
10
-154.92500000000001
20
3.0249999999999821
10
-154.92500000000001
20
16.024999999999984
42
0.41421356237307422
10
-155.42500000000001
20
16.524999999999991
10
-168.42500000000001
20
16.52499999999997
42
0.41421356237312495
10
-168.92500000000001
20
16.024999999999984
10
-168.92500000000001
20
3.0249999999999821
42
0.41421356237301277
10
-168.42500000000001
20
2.5249999999999733
0
LWPOLYLINE
5
143
100
AcDbEntity
8
0
100
AcDbPolyline
90
8
70
1
43
0.0
10
-173.97500000000005
20
16.024999999999984
42
0.41421356237309892
10
-174.47500000000005
20
16.524999999999984
10
-187.47499999999999
20
16.524999999999991
42
0.41421356237310025
10
-187.97499999999999
20
16.024999999999974
10
-187.97499999999999
20
3.0249999999999777
42
0.41421356237313273
10
-187.47499999999999
20
2.5249999999999706
10
-174.47500000000005
20
2.5249999999999955
42
0.41421356237312335
10
-173.97500000000005
20
3.0249999999999799
0
LWPOLYLINE
5
144
100
AcDbEntity
8
0
100
AcDbPolyline
90
8
70
1
43
0.0
10
-136.375
20
16.524999999999991
10
-149.375
20
16.524999999999977
42
0.41421356237310675
10
-149.875
20
16.024999999999984
10
-149.875
20
3.0249999999999821
42
0.4142135623730947
10
-149.375
20
2.5249999999999755
10
-136.375
20
2.5249999999999773
42
0.41421356237307422
10
-135.875
20
3.0249999999999844
10
-135.875
20
16.024999999999984
42
0.41421356237307422
0
LWPOLYLINE
5
145
100
AcDbEntity
8
0
100
AcDbPolyline
90
8
70
1
43
0.0
10
-111.27500000000001
20
16.524999999999981
42
0.41421356237310675
10
-111.77500000000002
20
16.024999999999988
10
-111.77500000000002
20
3.0249999999999866
42
0.4142135623730947
10
-111.27500000000001
20
2.5249999999999799
10
-98.275000000000006
20
2.524999999999991
42
0.41421356237312074
10
-97.77500000000002
20
3.0249999999999888
10
-97.775000000000034
20
16.024999999999988
42
0.4142135623730846
10
-98.275000000000006
20
16.524999999999981
0
LWPOLYLINE
5
146
100
AcDbEntity
8
0
100
AcDbPolyline
90
8
70
1
43
0.0
10
-219.21875
20
16.024999999999974
42
0.41421356237314577
10
-219.71875
20
16.524999999999981
10
-232.71875
20
16.524999999999977
42
0.41421356237307294
10
-233.21875000000006
20
16.024999999999974
10
-233.21875000000006
20
3.0249999999999733
42
0.41421356237307261
10
-232.71875
20
2.5249999999999657
10
-219.71875
20
2.5249999999999586
42
0.41421356237310053
10
-219.21875
20
3.0249999999999755
0
LWPOLYLINE
5
147
100
AcDbEntity
8
0
100
AcDbPolyline
90
8
70
1
43
0.0
10
-41.125
20
16.524999999999995
10
-54.125000000000014
20
16.524999999999999
42
0.41421356237308204
10
-54.625
20
16.024999999999995
10
-54.625
20
3.0249999999999955
42
0.41421356237310969
10
-54.125000000000014
20
2.5249999999999959
10
-41.125
20
2.5249999999999946
42
0.41421356237309698
10
-40.625
20
3.0249999999999955
10
-40.625
20
16.024999999999995
42
0.41421356237307555
0
LWPOLYLINE
5
148
100
AcDbEntity
8
0
100
AcDbPolyline
90
8
70
1
43
0.0
10
-79.22499999999998
20
2.5249999999999901
42
0.41421356237309698
10
-78.724999999999994
20
3.024999999999991
10
-78.724999999999994
20
16.024999999999991
42
0.41421356237307555
10
-79.22499999999998
20
16.524999999999991
10
-92.224999999999994
20
16.524999999999988
42
0.41421356237309892
10
-92.725000000000023
20
16.024999999999991
10
-92.725000000000023
20
3.024999999999991
42
0.41421356237310414
10
-92.224999999999994
20
2.5249999999999826
0
LWPOLYLINE
5
149
100
AcDbEntity
8
0
100
AcDbPolyline
90
8
70
1
43
0.0
10
-59.675000000000004
20
3.0249999999999932
10
-59.675000000000004
20
16.024999999999995
42
0.41421356237309631
10
-60.174999999999997
20
16.524999999999995
10
-73.174999999999983
20
16.524999999999991
42
0.41421356237309631
10
-73.674999999999983
20
16.024999999999991
10
-73.674999999999983
20
3.024999999999991
42
0.41421356237312362
10
-73.174999999999983
20
2.5249999999999946
10
-60.174999999999997
20
2.5249999999999932
42
0.41421356237309598
0
ENDSEC
0
SECTION
2
OBJECTS
0
DICTIONARY
5
C
100
AcDbDictionary
3
ACAD_GROUP
350
D
3
ACAD_MLINESTYLE
350
17
0
DICTIONARY
5
D
100
AcDbDictionary
0
DICTIONARY
5
1A
330
C
100
AcDbDictionary
0
DICTIONARY
5
17
100
AcDbDictionary
0
ENDSEC
0
EOF
