  0
SECTION
  2
HEADER
  9
$ACADVER
  1
AC1009
  9
$INSBASE
 10
0.0
 20
0.0
 30
0.0
  9
$EXTMIN
 10
0.0
 20
0.0
 30
0.0
  9
$EXTMAX
 10
0.0
 20
0.0
 30
0.0
  0
ENDSEC
  0
SECTION
  2
TABLES
  0
TABLE
  2
VPORT
 70
0
  0
ENDTAB
  0
TABLE
  2
LTYPE
 70
1
  0
LTYPE
  2
CONTINUOUS
 70
0
  3
Solid line
 72
65
 73
0
 40
0.0
  0
ENDTAB
  0
TABLE
  2
LAYER
 70
1
  0
LAYER
  2
0
 70
64
 62
7
  6
continuous
  0
ENDTAB
  0
TABLE
  2
STYLE
 70
1
  0
STYLE
  2
STANDARD
 70
0
 40
0
 41
1.0
 50
0.0
 71
0
 42
1
 3
ARIAL.TTF
 4

  0
ENDTAB
  0
TABLE
  2
VIEW
 70
0
  0
ENDTAB
  0
ENDSEC
  0
SECTION
  2
BLOCKS
  0
ENDSEC
  0
SECTION
  2
ENTITIES
  0
ARC
  8
0
 62
0
 10
-233.219
 20
3.525
 30
0.0
 40
0.5
 50
-180.0
 51
-90.0
  0
ARC
  8
0
 62
0
 10
-236.572
 20
80.025
 30
0.0
 40
2.674999999999997
 50
90.0
 51
135.0
  0
LINE
  8
0
 62
0
 10
-221.613
 20
39.1
 30
0.0
 11
-218.848
 21
39.1
 31
0.0
  0
ARC
  8
0
 62
0
 10
-229.203
 20
-2.825
 30
0.0
 40
2.675
 50
-90.0
 51
-45.00000000000011
  0
ARC
  8
0
 62
0
 10
-227.363
 20
60.675
 30
0.0
 40
0.5
 50
-90.0
 51
-0.0
  0
LINE
  8
0
 62
0
 10
-215.446
 20
19.05
 30
0.0
 11
-215.446
 21
1.5
 31
0.0
  0
LINE
  8
0
 62
0
 10
-216.848
 20
20.05
 30
0.0
 11
-216.446
 21
20.05
 31
0.0
  0
ARC
  8
0
 62
0
 10
-222.6
 20
22.575
 30
0.0
 40
0.5
 50
-90.0
 51
-0.0
  0
ARC
  8
0
 62
0
 10
-216.848
 20
21.05
 30
0.0
 40
1.0
 50
-180.0
 51
-90.0
  0
ARC
  8
0
 62
0
 10
-216.446
 20
1.5
 30
0.0
 40
1.0
 50
-90.0
 51
-0.0
  0
ARC
  8
0
 62
0
 10
-225.288
 20
76.1099
 30
0.0
 40
2.6750000000000114
 50
0.0
 51
45.00000000000001
  0
ARC
  8
0
 62
0
 10
-227.363
 20
73.675
 30
0.0
 40
0.5
 50
-0.0
 51
90.0
  0
ARC
  8
0
 62
0
 10
-216.446
 20
19.05
 30
0.0
 40
1.0
 50
-0.0
 51
90.0
  0
LINE
  8
0
 62
0
 10
-217.848
 20
21.05
 30
0.0
 11
-217.848
 21
38.1
 31
0.0
  0
ARC
  8
0
 62
0
 10
-222.6
 20
35.575
 30
0.0
 40
0.5
 50
-0.0
 51
90.0
  0
LINE
  8
0
 62
0
 10
-227.311
 20
81.9165
 30
0.0
 11
-223.396
 21
78.0014
 31
0.0
  0
LINE
  8
0
 62
0
 10
-220.572
 20
0.5
 30
0.0
 11
-216.446
 21
0.5
 31
0.0
  0
ARC
  8
0
 62
0
 10
-235.6
 20
22.575
 30
0.0
 40
0.5
 50
-180.0
 51
-90.0
  0
ARC
  8
0
 62
0
 10
-221.613
 20
40.1
 30
0.0
 40
1.0
 50
-180.0
 51
-90.0
  0
ARC
  8
0
 62
0
 10
-229.203
 20
80.025
 30
0.0
 40
2.6749999999999936
 50
45.00000000000001
 51
90.0
  0
LINE
  8
0
 62
0
 10
-240.363
 20
60.175
 30
0.0
 11
-227.363
 21
60.175
 31
0.0
  0
ARC
  8
0
 62
0
 10
-227.363
 20
54.625
 30
0.0
 40
0.5
 50
-0.0
 51
90.0
  0
ARC
  8
0
 62
0
 10
-220.562
 20
0.175
 30
0.0
 40
2.6750000000000043
 50
-164.4
 51
-164.39300000000003
  0
ARC
  8
0
 62
0
 10
-240.362
 20
41.625
 30
0.0
 40
0.5
 50
-180.0
 51
-90.0
  0
LINE
  8
0
 62
0
 10
-226.863
 20
73.675
 30
0.0
 11
-226.863
 21
60.675
 31
0.0
  0
ARC
  8
0
 62
0
 10
-240.362
 20
73.675
 30
0.0
 40
0.5
 50
90.0
 51
-180.0
  0
ARC
  8
0
 62
0
 10
-220.572
 20
-3.175
 30
0.0
 40
3.675
 50
90.0
 51
134.2960000000002
  0
ARC
  8
0
 62
0
 10
-220.219
 20
16.525
 30
0.0
 40
0.5
 50
-0.0
 51
90.0
  0
LINE
  8
0
 62
0
 10
-222.1
 20
35.575
 30
0.0
 11
-222.1
 21
22.575
 31
0.0
  0
LINE
  8
0
 62
0
 10
-238.464
 20
-4.71651
 30
0.0
 11
-242.604
 21
-0.576383
 31
0.0
  0
ARC
  8
0
 62
0
 10
-240.362
 20
60.675
 30
0.0
 40
0.5
 50
-180.0
 51
-90.0
  0
ARC
  8
0
 62
0
 10
-235.6
 20
35.575
 30
0.0
 40
0.5
 50
90.0
 51
-180.0
  0
LINE
  8
0
 62
0
 10
-233.219
 20
3.025
 30
0.0
 11
-220.219
 21
3.025
 31
0.0
  0
ARC
  8
0
 62
0
 10
-240.362
 20
54.625
 30
0.0
 40
0.5
 50
90.0
 51
-180.0
  0
LINE
  8
0
 62
0
 10
-223.139
 20
-0.544355
 30
0.0
 11
-227.311
 21
-4.71651
 31
0.0
  0
LINE
  8
0
 62
0
 10
-227.363
 20
41.125
 30
0.0
 11
-240.363
 21
41.125
 31
0.0
  0
LINE
  8
0
 62
0
 10
-229.203
 20
-5.5
 30
0.0
 11
-236.572
 21
-5.5
 31
0.0
  0
LINE
  8
0
 62
0
 10
-222.6
 20
22.075
 30
0.0
 11
-235.6
 21
22.075
 31
0.0
  0
LINE
  8
0
 62
0
 10
-236.1
 20
35.575
 30
0.0
 11
-236.1
 21
22.575
 31
0.0
  0
ARC
  8
0
 62
0
 10
-236.572
 20
-2.825
 30
0.0
 40
2.6749999999999967
 50
-134.99999999999994
 51
-90.0
  0
ARC
  8
0
 62
0
 10
-240.713
 20
75.8849
 30
0.0
 40
2.6749999999999936
 50
135.0
 51
-180.0
  0
ARC
  8
0
 62
0
 10
-233.219
 20
16.525
 30
0.0
 40
0.5
 50
90.0
 51
-180.0
  0
LINE
  8
0
 62
0
 10
-233.719
 20
16.525
 30
0.0
 11
-233.719
 21
3.525
 31
0.0
  0
LINE
  8
0
 62
0
 10
-240.863
 20
73.675
 30
0.0
 11
-240.863
 21
60.675
 31
0.0
  0
ARC
  8
0
 62
0
 10
-240.713
 20
1.31513
 30
0.0
 40
2.6750000000000114
 50
180.0
 51
-134.9999999999998
  0
LINE
  8
0
 62
0
 10
-240.363
 20
55.125
 30
0.0
 11
-227.363
 21
55.125
 31
0.0
  0
LINE
  8
0
 62
0
 10
-226.863
 20
54.625
 30
0.0
 11
-226.863
 21
41.625
 31
0.0
  0
LINE
  8
0
 62
0
 10
-240.863
 20
54.625
 30
0.0
 11
-240.863
 21
41.625
 31
0.0
  0
LINE
  8
0
 62
0
 10
-233.219
 20
17.025
 30
0.0
 11
-220.219
 21
17.025
 31
0.0
  0
LINE
  8
0
 62
0
 10
-240.363
 20
74.175
 30
0.0
 11
-227.363
 21
74.175
 31
0.0
  0
ARC
  8
0
 62
0
 10
-227.363
 20
41.625
 30
0.0
 40
0.5
 50
-90.0
 51
-0.0
  0
LINE
  8
0
 62
0
 10
-235.6
 20
36.075
 30
0.0
 11
-222.6
 21
36.075
 31
0.0
  0
LINE
  8
0
 62
0
 10
-243.388
 20
1.31513
 30
0.0
 11
-243.388
 21
75.8849
 31
0.0
  0
LINE
  8
0
 62
0
 10
-242.604
 20
77.7764
 30
0.0
 11
-238.464
 21
81.9165
 31
0.0
  0
ARC
  8
0
 62
0
 10
-220.219
 20
3.525
 30
0.0
 40
0.5
 50
-90.0
 51
-0.0
  0
LINE
  8
0
 62
0
 10
-219.719
 20
16.525
 30
0.0
 11
-219.719
 21
3.525
 31
0.0
  0
CIRCLE
  8
0
 62
0
 10
-232.888
 20
79.95
 30
0.0
 40
1.25
  0
LINE
  8
0
 62
0
 10
-236.572
 20
82.7
 30
0.0
 11
-229.203
 21
82.7
 31
0.0
  0
CIRCLE
  8
0
 62
0
 10
-232.887
 20
-2.75
 30
0.0
 40
1.25
  0
ARC
  8
0
 62
0
 10
-218.848
 20
38.1
 30
0.0
 40
1.0
 50
-0.0
 51
90.0
  0
POLYLINE
  8
0
 62
0
 70
0
 66
1
 10
0.0
 20
0.0
 30
0.0
  0
VERTEX
  8
0
 10
-222.613
 20
40.1
 30
0.0
  0
VERTEX
  8
0
 10
-222.613
 20
76.1099
 30
0.0
  0
SEQEND
  8
0
  0
ENDSEC
  0
EOF
