0
SECTION
2
HEADER
9
$INSUNITS
70
4
9
$ACADVER
1
AC1014
9
$HANDSEED
5
FFFF
0
ENDSEC
0
SECTION
2
TABLES
0
TABLE
2
VPORT
5
8
100
AcDbSymbolTable
0
ENDTAB
0
TABLE
2
LTYPE
5
5
100
AcDbSymbolTable
0
LTYPE
5
14
100
AcDbSymbolTableRecord
100
AcDbLinetypeTableRecord
2
BYBLOCK
70
0
0
LTYPE
5
15
100
AcDbSymbolTableRecord
100
AcDbLinetypeTableRecord
2
BYLAYER
70
0
0
ENDTAB
0
TABLE
2
LAYER
5
2
100
AcDbSymbolTable
70
2
0
LAYER
5
50
100
AcDbSymbolTableRecord
100
AcDbLayerTableRecord
2
0
70
0
6
CONTINUOUS
0
ENDTAB
0
TABLE
2
STYLE
5
3
100
AcDbSymbolTable
70
1
0
STYLE
5
11
100
AcDbSymbolTableRecord
100
AcDbTextStyleTableRecord
2
STANDARD
70
0
0
ENDTAB
0
TABLE
2
VIEW
5
6
100
AcDbSymbolTable
70
0
0
ENDTAB
0
TABLE
2
UCS
5
7
100
AcDbSymbolTable
70
0
0
ENDTAB
0
TABLE
2
APPID
5
9
100
AcDbSymbolTable
70
2
0
APPID
5
12
100
AcDbSymbolTableRecord
100
AcDbRegAppTableRecord
2
ACAD
70
0
0
ENDTAB
0
TABLE
2
DIMSTYLE
5
A
100
AcDbSymbolTable
70
1
0
ENDTAB
0
TABLE
2
BLOCK_RECORD
5
1
100
AcDbSymbolTable
70
1
0
BLOCK_RECORD
5
1F
100
AcDbSymbolTableRecord
100
AcDbBlockTableRecord
2
*MODEL_SPACE
0
BLOCK_RECORD
5
1B
100
AcDbSymbolTableRecord
100
AcDbBlockTableRecord
2
*PAPER_SPACE
0
ENDTAB
0
ENDSEC
0
SECTION
2
BLOCKS
0
BLOCK
5
20
100
AcDbEntity
100
AcDbBlockBegin
2
*MODEL_SPACE
0
ENDBLK
5
21
100
AcDbEntity
100
AcDbBlockEnd
0
BLOCK
5
1C
100
AcDbEntity
100
AcDbBlockBegin
2
*PAPER_SPACE
0
ENDBLK
5
1D
100
AcDbEntity
100
AcDbBlockEnd
0
ENDSEC
0
SECTION
2
ENTITIES
0
LWPOLYLINE
5
100
100
AcDbEntity
8
0
100
AcDbPolyline
90
8
70
1
43
0.0
10
-58.874500000000005
20
-70.543750000000017
10
-58.874500000000005
20
-58.543750000000003
42
0.41421356237309503
10
-59.874499999999998
20
-57.543750000000003
10
-73.474500000000006
20
-57.543750000000003
42
0.41421356237309503
10
-74.474500000000006
20
-58.543750000000003
10
-74.474500000000006
20
-70.543750000000017
42
0.41421356237309503
10
-73.474500000000006
20
-71.543750000000003
10
-59.874499999999998
20
-71.543750000000003
42
0.41421356237309503
0
LWPOLYLINE
5
101
100
AcDbEntity
8
0
100
AcDbPolyline
90
8
70
1
43
0.0
10
-73.474500000000035
20
-240.61250000000001
10
-59.87450000000004
20
-240.61250000000001
42
0.41421356237308982
10
-58.874500000000047
20
-239.61250000000001
10
-58.874500000000047
20
-227.61250000000004
42
0.41421356237308982
10
-59.87450000000004
20
-226.61250000000001
10
-73.474500000000049
20
-226.61250000000001
42
0.41421356237308721
10
-74.474500000000035
20
-227.61250000000004
10
-74.474500000000049
20
-239.61250000000001
42
0.41421356237308982
0
LWPOLYLINE
5
102
100
AcDbEntity
8
0
100
AcDbPolyline
90
8
70
1
43
0.0
10
-73.474500000000006
20
-45.350000000000001
10
-59.874499999999998
20
-45.350000000000001
42
0.41421356237309503
10
-58.874500000000005
20
-44.350000000000009
10
-58.874500000000005
20
-32.350000000000001
42
0.4142135623730937
10
-59.874499999999991
20
-31.350000000000001
10
-73.474500000000006
20
-31.350000000000001
42
0.41421356237309631
10
-74.474500000000006
20
-32.350000000000001
10
-74.474500000000006
20
-44.350000000000009
42
0.41421356237309503
0
LWPOLYLINE
5
103
100
AcDbEntity
8
0
100
AcDbPolyline
90
8
70
1
43
0.0
10
-74.474500000000049
20
-165.69999999999999
10
-74.474500000000063
20
-177.69999999999996
42
0.41421356237308721
10
-73.474500000000063
20
-178.69999999999999
10
-59.874500000000062
20
-178.69999999999999
42
0.41421356237308982
10
-58.874500000000069
20
-177.69999999999996
10
-58.874500000000069
20
-165.69999999999999
42
0.41421356237308982
10
-59.874500000000062
20
-164.69999999999999
10
-73.474500000000063
20
-164.69999999999999
42
0.41421356237308721
0
LWPOLYLINE
5
104
100
AcDbEntity
8
0
100
AcDbPolyline
90
8
70
1
43
0.0
10
-74.474500000000049
20
-208.56250000000003
10
-74.474500000000049
20
-220.5625
42
0.41421356237308982
10
-73.474500000000063
20
-221.5625
10
-59.87450000000004
20
-221.5625
42
0.41421356237308982
10
-58.874500000000047
20
-220.5625
10
-58.874500000000047
20
-208.56250000000003
42
0.41421356237308982
10
-59.87450000000004
20
-207.5625
10
-73.474500000000063
20
-207.5625
42
0.41421356237308982
0
LWPOLYLINE
5
105
100
AcDbEntity
8
0
100
AcDbPolyline
90
8
70
1
43
0.0
10
-73.474500000000006
20
-19.15625
10
-59.874499999999998
20
-19.15625
42
0.41421356237309698
10
-58.874500000000005
20
-18.15625
10
-58.874500000000005
20
-6.1562499999999982
42
0.41421356237309598
10
-59.874499999999998
20
-5.1562499999999991
10
-73.474500000000006
20
-5.15625
42
0.41421356237309698
10
-74.474500000000006
20
-6.1562500000000009
10
-74.474500000000006
20
-18.156250000000004
42
0.4142135623730957
0
LINE
5
106
100
AcDbEntity
8
0
100
AcDbLine
10
-60.674501222229068
20
-113.98029216804198
30
0
11
-72.674990000000008
21
-113.98030170478515
31
0
0
ARC
5
107
100
AcDbEntity
8
0
100
AcDbCircle
10
-72.674990000000008
20
-112.98029339999999
30
0
40
0.99999999999999645
100
AcDbArc
50
180
51
270
0
LINE
5
108
100
AcDbEntity
8
0
100
AcDbLine
10
-73.674990000000008
20
-112.98029339999999
30
0
11
-73.674988583984415
21
-104.88129339999999
31
0
0
LINE
5
109
100
AcDbEntity
8
0
100
AcDbLine
10
-73.674988583984415
20
-104.88129339999999
30
0
11
-73.675340000000034
21
-104.88129339999999
31
4.4408920985006262e-15
0
LINE
5
110
100
AcDbEntity
8
0
100
AcDbLine
10
-73.675340000000034
20
-104.88129339999999
30
4.4408920985006262e-15
11
-73.675340000000034
21
-90.880893399999977
31
6.6613381477509392e-15
0
LINE
5
111
100
AcDbEntity
8
0
100
AcDbLine
10
-73.675340000000034
20
-90.880893399999977
30
6.6613381477509392e-15
11
-73.674988583984415
21
-90.880893399999977
31
0
0
LINE
5
112
100
AcDbEntity
8
0
100
AcDbLine
10
-73.674988583984415
20
-90.880893399999977
30
0
11
-73.674983815612819
21
-82.78169339999998
31
0
0
ARC
5
113
100
AcDbEntity
8
0
100
AcDbCircle
10
-72.674988583984415
20
-82.78169339999998
30
0
40
0.99999999999999645
100
AcDbArc
50
90
51
180
0
LINE
5
114
100
AcDbEntity
8
0
100
AcDbLine
10
-72.674988583984415
20
-81.78169339999998
30
0
11
-60.674501222229068
21
-81.781689662548814
31
0
0
ARC
5
115
100
AcDbEntity
8
0
100
AcDbCircle
10
-60.674501222229068
20
-82.78169339999998
30
0
40
0.99999999999999645
100
AcDbArc
50
0
51
90
0
LINE
5
116
100
AcDbEntity
8
0
100
AcDbLine
10
-59.674501222229068
20
-82.78169339999998
30
0
11
-59.674501222229104
21
-112.98029339999999
31
0
0
ARC
5
117
100
AcDbEntity
8
0
100
AcDbCircle
10
-60.674501222229068
20
-112.98029339999999
30
0
40
0.99999876804199417
100
AcDbArc
50
-90
51
0
0
LINE
5
118
100
AcDbEntity
8
0
100
AcDbLine
10
-54.125300000000003
20
-9.1190737932556427
30
0
11
-50.62450000000004
21
-9.1190737932556427
31
0
0
ARC
5
119
100
AcDbEntity
8
0
100
AcDbCircle
10
-50.62450000000004
20
-9.6190734000000226
30
0
40
0.49999999999999822
100
AcDbArc
50
0
51
90
0
LINE
5
120
100
AcDbEntity
8
0
100
AcDbLine
10
-50.12450000000004
20
-9.6190734000000226
30
0
11
-50.12450000000004
21
-9.9190737932556434
31
0
0
LINE
5
121
100
AcDbEntity
8
0
100
AcDbLine
10
-50.12450000000004
20
-9.9190737932556434
30
0
11
-45.12450000000004
21
-9.9190737932556434
31
0
0
LINE
5
122
100
AcDbEntity
8
0
100
AcDbLine
10
-45.12450000000004
20
-9.9190737932556434
30
0
11
-45.12450000000004
21
-9.6190734000000244
31
0
0
ARC
5
123
100
AcDbEntity
8
0
100
AcDbCircle
10
-44.62450000000004
20
-9.6190734000000244
30
0
40
0.50000000000000044
100
AcDbArc
50
90
51
180
0
LINE
5
124
100
AcDbEntity
8
0
100
AcDbLine
10
-44.62450000000004
20
-9.1190734000000244
30
0
11
-41.124500000000026
21
-9.1190737932556427
31
0
0
ARC
5
125
100
AcDbEntity
8
0
100
AcDbCircle
10
-41.124500000000026
20
-9.6190734000000262
30
0
40
0.49999999999999822
100
AcDbArc
50
0
51
90
0
LINE
5
126
100
AcDbEntity
8
0
100
AcDbLine
10
-40.624500000000026
20
-9.6190734000000262
30
0
11
-40.624500000000019
21
-24.218493400000018
31
6.6613381477509392e-15
0
ARC
5
127
100
AcDbEntity
8
0
100
AcDbCircle
10
-41.124500000000026
20
-24.218493400000018
30
0
40
0.49999999999999822
100
AcDbArc
50
-90
51
0
0
LINE
5
128
100
AcDbEntity
8
0
100
AcDbLine
10
-41.124500000000026
20
-24.718493400000018
30
0
11
-44.62450000000004
21
-24.718493400000018
31
4.4408920985006262e-15
0
ARC
5
129
100
AcDbEntity
8
0
100
AcDbCircle
10
-44.62450000000004
20
-24.218493400000018
30
0
40
0.49999999999999822
100
AcDbArc
50
180
51
270
0
LINE
5
130
100
AcDbEntity
8
0
100
AcDbLine
10
-45.12450000000004
20
-24.218493400000018
30
0
11
-45.12450000000004
21
-23.918491502481235
31
0
0
LINE
5
131
100
AcDbEntity
8
0
100
AcDbLine
10
-45.12450000000004
20
-23.918491502481235
30
0
11
-50.12450000000004
21
-23.918491502481235
31
0
0
LINE
5
132
100
AcDbEntity
8
0
100
AcDbLine
10
-50.12450000000004
20
-23.918491502481235
30
0
11
-50.12450000000004
21
-24.218493400000018
31
0
0
ARC
5
133
100
AcDbEntity
8
0
100
AcDbCircle
10
-50.62450000000004
20
-24.218493400000018
30
0
40
0.49999999999999822
100
AcDbArc
50
-90
51
0
0
LINE
5
134
100
AcDbEntity
8
0
100
AcDbLine
10
-50.62450000000004
20
-24.718493400000018
30
0
11
-54.125300000000003
21
-24.718490671154804
31
0
0
ARC
5
135
100
AcDbEntity
8
0
100
AcDbCircle
10
-54.125300000000003
20
-24.218493400000014
30
0
40
0.49999999999999822
100
AcDbArc
50
180
51
270
0
LINE
5
136
100
AcDbEntity
8
0
100
AcDbLine
10
-54.625300000000003
20
-24.218493400000018
30
0
11
-54.62530000000001
21
-9.6190734000000173
31
0
0
ARC
5
137
100
AcDbEntity
8
0
100
AcDbCircle
10
-54.125300000000003
20
-9.6190734000000226
30
0
40
0.49999960674437904
100
AcDbArc
50
90
51
180
0
LINE
5
138
100
AcDbEntity
8
0
100
AcDbLine
10
-35.075200000000002
20
-4.356573569256617
30
0
11
-22.074500000000008
21
-4.356573569256617
31
0
0
ARC
5
139
100
AcDbEntity
8
0
100
AcDbCircle
10
-22.074500000000008
20
-4.8565734000000216
30
0
40
0.49999999999999822
100
AcDbArc
50
0
51
90
0
LINE
5
140
100
AcDbEntity
8
0
100
AcDbLine
10
-21.574500000000008
20
-4.8565734000000242
30
0
11
-21.574500000000011
21
-19.455993400000015
31
6.6613381477509392e-15
0
ARC
5
141
100
AcDbEntity
8
0
100
AcDbCircle
10
-22.074500000000008
20
-19.455993400000015
30
0
40
0.50000000000000044
100
AcDbArc
50
-90
51
0
0
LINE
5
142
100
AcDbEntity
8
0
100
AcDbLine
10
-22.074500000000008
20
-19.955993400000015
30
0
11
-35.075200000000002
21
-19.955992387768568
31
0
0
ARC
5
143
100
AcDbEntity
8
0
100
AcDbCircle
10
-35.075200000000002
20
-19.455993400000011
30
0
40
0.49999999999999822
100
AcDbArc
50
180
51
270
0
LINE
5
144
100
AcDbEntity
8
0
100
AcDbLine
10
-35.575200000000002
20
-19.455993400000015
30
0
11
-35.575200000000002
21
-4.8565734000000154
31
0
0
ARC
5
145
100
AcDbEntity
8
0
100
AcDbCircle
10
-35.075200000000002
20
-4.8565734000000198
30
0
40
0.49999983074340226
100
AcDbArc
50
90
51
180
0
LINE
5
146
100
AcDbEntity
8
0
100
AcDbLine
10
-16.025199999999987
20
-1.9753033682601842
30
0
11
-12.524499999999998
21
-1.9753033682601842
31
0
0
ARC
5
147
100
AcDbEntity
8
0
100
AcDbCircle
10
-12.524499999999998
20
-2.4753033999999978
30
0
40
0.50000000000000044
100
AcDbArc
50
0
51
90
0
LINE
5
148
100
AcDbEntity
8
0
100
AcDbLine
10
-12.024499999999998
20
-2.4753033999999978
30
0
11
-12.024499999999998
21
-2.7753033902344293
31
0
0
LINE
5
149
100
AcDbEntity
8
0
100
AcDbLine
10
-12.024499999999998
20
-2.7753033902344293
30
0
11
-7.0244999999999971
21
-2.7753033902344293
31
0
0
LINE
5
150
100
AcDbEntity
8
0
100
AcDbLine
10
-7.0244999999999971
20
-2.7753033902344293
30
0
11
-7.0244999999999971
21
-2.4753033999999987
31
0
0
ARC
5
151
100
AcDbEntity
8
0
100
AcDbCircle
10
-6.5244999999999962
20
-2.4753033999999987
30
0
40
0.50000000000000022
100
AcDbArc
50
89.999999999999901
51
180
0
LINE
5
152
100
AcDbEntity
8
0
100
AcDbLine
10
-6.5244999999999953
20
-1.9753033999999987
30
0
11
-3.0244999999999966
21
-1.9753034
31
8.8817841970012523e-15
0
ARC
5
153
100
AcDbEntity
8
0
100
AcDbCircle
10
-3.0244999999999966
20
-2.4753033999999996
30
0
40
0.49999999999999989
100
AcDbArc
50
0
51
90
0
LINE
5
154
100
AcDbEntity
8
0
100
AcDbLine
10
-2.5244999999999966
20
-2.4753034000000023
30
0
11
-2.5244999999999962
21
-17.074693399999997
31
0
0
ARC
5
155
100
AcDbEntity
8
0
100
AcDbCircle
10
-3.0244999999999993
20
-17.074693399999997
30
0
40
0.50000000000000044
100
AcDbArc
50
-89.999999999999943
51
0
0
LINE
5
156
100
AcDbEntity
8
0
100
AcDbLine
10
-3.0244999999999989
20
-17.574693399999997
30
0
11
-6.5244999999999953
21
-17.574693178173838
31
0
0
ARC
5
157
100
AcDbEntity
8
0
100
AcDbCircle
10
-6.5244999999999962
20
-17.074693399999997
30
0
40
0.50000000000000044
100
AcDbArc
50
180
51
270.00000000000011
0
LINE
5
158
100
AcDbEntity
8
0
100
AcDbLine
10
-7.0244999999999971
20
-17.074693399999997
30
0
11
-7.0244999999999971
21
-16.774693246436307
31
0
0
LINE
5
159
100
AcDbEntity
8
0
100
AcDbLine
10
-7.0244999999999971
20
-16.774693246436307
30
0
11
-12.024499999999998
21
-16.774693246436307
31
0
0
LINE
5
160
100
AcDbEntity
8
0
100
AcDbLine
10
-12.024499999999998
20
-16.774693246436307
30
0
11
-12.024499999999998
21
-17.074693399999994
31
0
0
ARC
5
161
100
AcDbEntity
8
0
100
AcDbCircle
10
-12.524499999999998
20
-17.074693399999994
30
0
40
0.50000000000000044
100
AcDbArc
50
-90
51
0
0
LINE
5
162
100
AcDbEntity
8
0
100
AcDbLine
10
-12.524499999999998
20
-17.574693399999994
30
0
11
-16.025199999999991
21
-17.574693178173838
31
0
0
ARC
5
163
100
AcDbEntity
8
0
100
AcDbCircle
10
-16.025199999999991
20
-17.074693399999994
30
0
40
0.50000000000000044
100
AcDbArc
50
180
51
270
0
LINE
5
164
100
AcDbEntity
8
0
100
AcDbLine
10
-16.525199999999991
20
-17.074693399999997
30
0
11
-16.525199999999991
21
-2.4753033999999934
31
0
0
ARC
5
165
100
AcDbEntity
8
0
100
AcDbCircle
10
-16.025199999999987
20
-2.475303399999996
30
0
40
0.50000003173981211
100
AcDbArc
50
90
51
180
0
LINE
5
166
100
AcDbEntity
8
0
100
AcDbLine
10
-16.025200000000005
20
-21.025293255993653
30
0
11
-3.0245000000000122
21
-21.025293255993653
31
0
0
ARC
5
167
100
AcDbEntity
8
0
100
AcDbCircle
10
-3.0245000000000144
20
-21.525293400000002
30
0
40
0.49999999999999989
100
AcDbArc
50
0
51
89.999999999999744
0
LINE
5
168
100
AcDbEntity
8
0
100
AcDbLine
10
-2.5245000000000144
20
-21.525293399999995
30
0
11
-2.5245000000000175
21
-36.124693400000012
31
2.2204460492503131e-15
0
ARC
5
169
100
AcDbEntity
8
0
100
AcDbCircle
10
-3.0245000000000171
20
-36.124693400000012
30
0
40
0.49999999999999822
100
AcDbArc
50
-89.999999999999943
51
0
0
LINE
5
170
100
AcDbEntity
8
0
100
AcDbLine
10
-3.0245000000000166
20
-36.624693400000005
30
0
11
-16.025200000000009
21
-36.624691351696818
31
0
0
ARC
5
171
100
AcDbEntity
8
0
100
AcDbCircle
10
-16.025200000000009
20
-36.124693400000005
30
0
40
0.50000000000000044
100
AcDbArc
50
180
51
270
0
LINE
5
172
100
AcDbEntity
8
0
100
AcDbLine
10
-16.525200000000009
20
-36.124693400000012
30
0
11
-16.525200000000009
21
-32.849583906956596
31
2.2204460492503131e-15
0
LINE
5
173
100
AcDbEntity
8
0
100
AcDbLine
10
-16.525200000000009
20
-32.849583906956596
30
2.2204460492503131e-15
11
-16.856601164819622
21
-32.849583906956596
31
2.2204460492503131e-15
0
ARC
5
174
100
AcDbEntity
8
0
100
AcDbCircle
10
-19.050000000000011
20
-31.649999999999988
30
2.2204460492503131e-15
40
2.4999999999999973
100
AcDbArc
50
208.67453230275009
51
331.32546769725002
0
LINE
5
175
100
AcDbEntity
8
0
100
AcDbLine
10
-21.2433988351804
20
-32.849583906956603
30
2.2204460492503131e-15
11
-21.574500000000008
21
-32.849583906956596
31
2.2204460492503131e-15
0
LINE
5
176
100
AcDbEntity
8
0
100
AcDbLine
10
-21.574500000000008
20
-32.849583906956596
30
2.2204460492503131e-15
11
-21.574500000000011
21
-40.887193400000008
31
2.2204460492503131e-15
0
ARC
5
177
100
AcDbEntity
8
0
100
AcDbCircle
10
-22.074500000000008
20
-40.887193400000008
30
0
40
0.49999999999999822
100
AcDbArc
50
-90
51
0
0
LINE
5
178
100
AcDbEntity
8
0
100
AcDbLine
10
-22.074500000000008
20
-41.387193400000008
30
0
11
-35.075200000000002
21
-41.387191536328139
31
0
0
ARC
5
179
100
AcDbEntity
8
0
100
AcDbCircle
10
-35.075200000000002
20
-40.887193400000008
30
0
40
0.49999999999999822
100
AcDbArc
50
180
51
270
0
LINE
5
180
100
AcDbEntity
8
0
100
AcDbLine
10
-35.575200000000002
20
-40.887193400000008
30
0
11
-35.575200000000002
21
-26.286393400000016
31
0
0
ARC
5
181
100
AcDbEntity
8
0
100
AcDbCircle
10
-35.075200000000002
20
-26.286393400000016
30
-2.2204460492503131e-15
40
0.49999999999999822
100
AcDbArc
50
90
51
180
0
LINE
5
182
100
AcDbEntity
8
0
100
AcDbLine
10
-35.075200000000002
20
-25.786393400000019
30
-2.2204460492503131e-15
11
-22.074500000000008
21
-25.786393923565697
31
-2.2204460492503131e-15
0
ARC
5
183
100
AcDbEntity
8
0
100
AcDbCircle
10
-22.074500000000008
20
-26.286393400000023
30
-2.2204460492503131e-15
40
0.49999999999999822
100
AcDbArc
50
0
51
90
0
LINE
5
184
100
AcDbEntity
8
0
100
AcDbLine
10
-21.574500000000008
20
-26.286393400000016
30
-2.2204460492503131e-15
11
-21.574500000000008
21
-30.450416093043376
31
2.2204460492503131e-15
0
LINE
5
185
100
AcDbEntity
8
0
100
AcDbLine
10
-21.574500000000008
20
-30.450416093043376
30
2.2204460492503131e-15
11
-21.2433988351804
21
-30.450416093043376
31
2.2204460492503131e-15
0
ARC
5
186
100
AcDbEntity
8
0
100
AcDbCircle
10
-19.050000000000011
20
-31.649999999999988
30
2.2204460492503131e-15
40
2.4999999999999973
100
AcDbArc
50
28.674532302750123
51
151.32546769724996
0
LINE
5
187
100
AcDbEntity
8
0
100
AcDbLine
10
-16.856601164819622
20
-30.450416093043373
30
2.2204460492503131e-15
11
-16.525200000000009
21
-30.450416093043376
31
2.2204460492503131e-15
0
LINE
5
188
100
AcDbEntity
8
0
100
AcDbLine
10
-16.525200000000009
20
-30.450416093043376
30
2.2204460492503131e-15
11
-16.525200000000005
21
-21.525293399999995
31
2.2204460492503131e-15
0
ARC
5
189
100
AcDbEntity
8
0
100
AcDbCircle
10
-16.025200000000005
20
-21.525293399999995
30
0
40
0.50000014400634285
100
AcDbArc
50
90
51
180
0
LINE
5
190
100
AcDbEntity
8
0
100
AcDbLine
10
-54.125300000000003
20
-35.311392874523925
30
-2.2204460492503131e-15
11
-41.124500000000026
21
-35.311392874523925
31
-2.2204460492503131e-15
0
ARC
5
191
100
AcDbEntity
8
0
100
AcDbCircle
10
-41.124500000000026
20
-35.811393399999993
30
-2.2204460492503131e-15
40
0.49999999999999822
100
AcDbArc
50
0
51
90
0
LINE
5
192
100
AcDbEntity
8
0
100
AcDbLine
10
-40.624500000000026
20
-35.811393399999986
30
-2.2204460492503131e-15
11
-40.624500000000019
21
-50.412193400000014
31
0
0
ARC
5
193
100
AcDbEntity
8
0
100
AcDbCircle
10
-41.124500000000026
20
-50.412193400000014
30
0
40
0.49999999999999822
100
AcDbArc
50
-90
51
0
0
LINE
5
194
100
AcDbEntity
8
0
100
AcDbLine
10
-41.124500000000026
20
-50.912193400000014
30
0
11
-54.125300000000003
21
-50.912192871472186
31
0
0
ARC
5
195
100
AcDbEntity
8
0
100
AcDbCircle
10
-54.125300000000003
20
-50.412193400000014
30
0
40
0.49999999999999822
100
AcDbArc
50
180
51
270
0
LINE
5
196
100
AcDbEntity
8
0
100
AcDbLine
10
-54.625300000000003
20
-50.412193400000014
30
0
11
-54.62530000000001
21
-35.811393399999986
31
-2.2204460492503131e-15
0
ARC
5
197
100
AcDbEntity
8
0
100
AcDbCircle
10
-54.125300000000003
20
-35.811393399999986
30
-2.2204460492503131e-15
40
0.50000052547606089
100
AcDbArc
50
90
51
180
0
LINE
5
198
100
AcDbEntity
8
0
100
AcDbLine
10
-16.025200000000005
20
-40.07519115791019
30
0
11
-3.0245000000000122
21
-40.07519115791019
31
0
0
ARC
5
199
100
AcDbEntity
8
0
100
AcDbCircle
10
-3.0245000000000144
20
-40.575193400000003
30
0
40
0.49999999999999989
100
AcDbArc
50
0
51
89.999999999999744
0
LINE
5
200
100
AcDbEntity
8
0
100
AcDbLine
10
-2.5245000000000144
20
-40.575193400000003
30
0
11
-2.5245000000000175
21
-55.174693400000017
31
-2.2204460492503131e-15
0
ARC
5
201
100
AcDbEntity
8
0
100
AcDbCircle
10
-3.0245000000000171
20
-55.174693400000017
30
-2.2204460492503131e-15
40
0.49999999999999822
100
AcDbArc
50
-89.999999999999943
51
0
0
LINE
5
202
100
AcDbEntity
8
0
100
AcDbLine
10
-3.0245000000000166
20
-55.674693400000017
30
-2.2204460492503131e-15
11
-16.025200000000009
21
-55.674694021984898
31
-2.2204460492503131e-15
0
ARC
5
203
100
AcDbEntity
8
0
100
AcDbCircle
10
-16.025200000000009
20
-55.174693400000017
30
-2.2204460492503131e-15
40
0.50000000000000044
100
AcDbArc
50
180
51
270
0
LINE
5
204
100
AcDbEntity
8
0
100
AcDbLine
10
-16.525200000000009
20
-55.174693400000017
30
-2.2204460492503131e-15
11
-16.525200000000009
21
-40.575193400000003
31
0
0
ARC
5
205
100
AcDbEntity
8
0
100
AcDbCircle
10
-16.025200000000005
20
-40.575193400000003
30
0
40
0.50000224208981869
100
AcDbArc
50
90
51
180
0
LINE
5
206
100
AcDbEntity
8
0
100
AcDbLine
10
-35.075200000000002
20
-44.837692308422852
30
0
11
-22.074500000000008
21
-44.837692308422852
31
0
0
ARC
5
207
100
AcDbEntity
8
0
100
AcDbCircle
10
-22.074500000000008
20
-45.337693400000006
30
-2.2204460492503131e-15
40
0.49999999999999822
100
AcDbArc
50
0
51
90
0
LINE
5
208
100
AcDbEntity
8
0
100
AcDbLine
10
-21.574500000000008
20
-45.337693400000006
30
-2.2204460492503131e-15
11
-21.574500000000011
21
-59.938593400000002
31
-2.2204460492503131e-15
0
ARC
5
209
100
AcDbEntity
8
0
100
AcDbCircle
10
-22.074500000000008
20
-59.938593400000002
30
0
40
0.49999999999999822
100
AcDbArc
50
-90
51
0
0
LINE
5
210
100
AcDbEntity
8
0
100
AcDbLine
10
-22.074500000000008
20
-60.438593400000002
30
0
11
-35.075200000000002
21
-60.438597073742677
31
0
0
ARC
5
211
100
AcDbEntity
8
0
100
AcDbCircle
10
-35.075200000000002
20
-59.938593400000002
30
0
40
0.49999999999999822
100
AcDbArc
50
180
51
270
0
LINE
5
212
100
AcDbEntity
8
0
100
AcDbLine
10
-35.575200000000002
20
-59.938593400000002
30
0
11
-35.575200000000002
21
-45.337693400000006
31
-2.2204460492503131e-15
0
ARC
5
213
100
AcDbEntity
8
0
100
AcDbCircle
10
-35.075200000000002
20
-45.337693400000006
30
-2.2204460492503131e-15
40
0.50000109157715578
100
AcDbArc
50
90
51
180
0
LINE
5
214
100
AcDbEntity
8
0
100
AcDbLine
10
-54.125300000000003
20
-54.361290776440434
30
0
11
-41.124500000000026
21
-54.361290776440434
31
0
0
ARC
5
215
100
AcDbEntity
8
0
100
AcDbCircle
10
-41.124500000000026
20
-54.861293399999994
30
0
40
0.49999999999999822
100
AcDbArc
50
0
51
90
0
LINE
5
216
100
AcDbEntity
8
0
100
AcDbLine
10
-40.624500000000026
20
-54.861293399999994
30
0
11
-40.624500000000019
21
-69.46219339999999
31
1.3322676295501878e-14
0
ARC
5
217
100
AcDbEntity
8
0
100
AcDbCircle
10
-41.124500000000026
20
-69.46219339999999
30
0
40
0.49999999999999822
100
AcDbArc
50
-90
51
0
0
LINE
5
218
100
AcDbEntity
8
0
100
AcDbLine
10
-41.124500000000026
20
-69.96219339999999
30
0
11
-54.125300000000003
21
-69.962190773388656
31
0
0
ARC
5
219
100
AcDbEntity
8
0
100
AcDbCircle
10
-54.125300000000003
20
-69.46219339999999
30
0
40
0.49999999999999822
100
AcDbArc
50
180
51
270
0
LINE
5
220
100
AcDbEntity
8
0
100
AcDbLine
10
-54.625300000000003
20
-69.46219339999999
30
0
11
-54.62530000000001
21
-54.861293399999994
31
0
0
ARC
5
221
100
AcDbEntity
8
0
100
AcDbCircle
10
-54.125300000000003
20
-54.861293399999994
30
0
40
0.50000262355956338
100
AcDbArc
50
90
51
180
0
LINE
5
222
100
AcDbEntity
8
0
100
AcDbLine
10
-16.025200000000023
20
-59.125193828198242
30
0
11
-3.0245000000000299
21
-59.125193828198242
31
0
0
ARC
5
223
100
AcDbEntity
8
0
100
AcDbCircle
10
-3.0245000000000322
20
-59.625193400000001
30
0
40
0.49999999999999989
100
AcDbArc
50
0
51
89.999999999999744
0
LINE
5
224
100
AcDbEntity
8
0
100
AcDbLine
10
-2.5245000000000322
20
-59.625193400000001
30
0
11
-2.5245000000000175
21
-74.224693400000007
31
1.3322676295501878e-14
0
ARC
5
225
100
AcDbEntity
8
0
100
AcDbCircle
10
-3.0245000000000348
20
-74.224693400000007
30
0
40
0.49999999999999822
100
AcDbArc
50
-89.999999999999943
51
0
0
LINE
5
226
100
AcDbEntity
8
0
100
AcDbLine
10
-3.0245000000000344
20
-74.724693400000007
30
0
11
-16.025200000000027
21
-74.724691923901375
31
0
0
ARC
5
227
100
AcDbEntity
8
0
100
AcDbCircle
10
-16.025200000000027
20
-74.224693400000007
30
0
40
0.50000000000000044
100
AcDbArc
50
180
51
270
0
LINE
5
228
100
AcDbEntity
8
0
100
AcDbLine
10
-16.525200000000027
20
-74.224693400000007
30
0
11
-16.525200000000027
21
-59.625193400000001
31
0
0
ARC
5
229
100
AcDbEntity
8
0
100
AcDbCircle
10
-16.025200000000023
20
-59.625193400000001
30
0
40
0.49999957180175691
100
AcDbArc
50
90
51
180
0
LINE
5
230
100
AcDbEntity
8
0
100
AcDbLine
10
-35.075200000000038
20
-63.887694978710954
30
0
11
-22.074500000000022
21
-63.887694978710954
31
0
0
ARC
5
231
100
AcDbEntity
8
0
100
AcDbCircle
10
-22.074500000000022
20
-64.387693400000003
30
0
40
0.49999999999999822
100
AcDbArc
50
0
51
90
0
LINE
5
232
100
AcDbEntity
8
0
100
AcDbLine
10
-21.574500000000025
20
-64.387693400000003
30
0
11
-21.574500000000029
21
-78.987193399999995
31
1.1102230246251565e-14
0
ARC
5
233
100
AcDbEntity
8
0
100
AcDbCircle
10
-22.074500000000022
20
-78.987193399999995
30
0
40
0.49999999999999822
100
AcDbArc
50
-90
51
0
0
LINE
5
234
100
AcDbEntity
8
0
100
AcDbLine
10
-22.074500000000022
20
-79.487193399999995
30
0
11
-35.075200000000038
21
-79.487194975659165
31
0
0
ARC
5
235
100
AcDbEntity
8
0
100
AcDbCircle
10
-35.075200000000038
20
-78.987193399999995
30
0
40
0.49999999999999822
100
AcDbArc
50
180
51
270
0
LINE
5
236
100
AcDbEntity
8
0
100
AcDbLine
10
-35.575200000000038
20
-78.987193399999995
30
0
11
-35.575200000000038
21
-64.387693400000003
31
0
0
ARC
5
237
100
AcDbEntity
8
0
100
AcDbCircle
10
-35.075200000000038
20
-64.387693400000003
30
0
40
0.49999842128904959
100
AcDbArc
50
90
51
180
0
LINE
5
238
100
AcDbEntity
8
0
100
AcDbLine
10
-54.125300000000003
20
-73.411293446728521
30
0
11
-41.124500000000026
21
-73.411293446728521
31
0
0
ARC
5
239
100
AcDbEntity
8
0
100
AcDbCircle
10
-41.124500000000026
20
-73.911293400000005
30
0
40
0.49999999999999822
100
AcDbArc
50
0
51
90
0
LINE
5
240
100
AcDbEntity
8
0
100
AcDbLine
10
-40.624500000000026
20
-73.911293400000005
30
0
11
-40.624500000000019
21
-88.512193399999987
31
8.8817841970012523e-15
0
ARC
5
241
100
AcDbEntity
8
0
100
AcDbCircle
10
-41.124500000000026
20
-88.512193399999987
30
0
40
0.50000000000000711
100
AcDbArc
50
-90
51
0
0
LINE
5
242
100
AcDbEntity
8
0
100
AcDbLine
10
-41.124500000000026
20
-89.012193399999987
30
0
11
-54.125300000000003
21
-89.01219344367675
31
0
0
ARC
5
243
100
AcDbEntity
8
0
100
AcDbCircle
10
-54.125300000000003
20
-88.512193399999987
30
0
40
0.49999999999999822
100
AcDbArc
50
180
51
270
0
LINE
5
244
100
AcDbEntity
8
0
100
AcDbLine
10
-54.625300000000003
20
-88.512193399999987
30
0
11
-54.62530000000001
21
-73.911293400000005
31
0
0
ARC
5
245
100
AcDbEntity
8
0
100
AcDbCircle
10
-54.125300000000003
20
-73.911293400000005
30
0
40
0.49999995327149271
100
AcDbArc
50
90
51
180
0
LINE
5
246
100
AcDbEntity
8
0
100
AcDbLine
10
-16.025200000000023
20
-78.175196498486329
30
0
11
-3.0245000000000322
21
-78.175196498486329
31
0
0
ARC
5
247
100
AcDbEntity
8
0
100
AcDbCircle
10
-3.0245000000000322
20
-78.675193399999998
30
0
40
0.49999999999999989
100
AcDbArc
50
0
51
90
0
LINE
5
248
100
AcDbEntity
8
0
100
AcDbLine
10
-2.5245000000000322
20
-78.675193399999998
30
0
11
-2.5245000000000353
21
-93.27469339999999
31
8.8817841970012523e-15
0
ARC
5
249
100
AcDbEntity
8
0
100
AcDbCircle
10
-3.0245000000000348
20
-93.27469339999999
30
0
40
0.50000000000000711
100
AcDbArc
50
-89.999999999999943
51
0
0
LINE
5
250
100
AcDbEntity
8
0
100
AcDbLine
10
-3.0245000000000344
20
-93.77469339999999
30
0
11
-16.025200000000027
21
-93.774694594189469
31
0
0
ARC
5
251
100
AcDbEntity
8
0
100
AcDbCircle
10
-16.025200000000027
20
-93.27469339999999
30
0
40
0.50000000000000044
100
AcDbArc
50
180
51
270
0
LINE
5
252
100
AcDbEntity
8
0
100
AcDbLine
10
-16.525200000000027
20
-93.27469339999999
30
0
11
-16.525200000000027
21
-78.675193399999998
31
0
0
ARC
5
253
100
AcDbEntity
8
0
100
AcDbCircle
10
-16.025200000000023
20
-78.675193399999998
30
0
40
0.49999690151365961
100
AcDbArc
50
90
51
180
0
LINE
5
254
100
AcDbEntity
8
0
100
AcDbLine
10
-35.075200000000038
20
-82.937690013500969
30
0
11
-22.074500000000022
21
-82.937690013500969
31
0
0
ARC
5
255
100
AcDbEntity
8
0
100
AcDbCircle
10
-22.074500000000022
20
-83.437693400000001
30
0
40
0.49999999999999822
100
AcDbArc
50
0
51
90
0
LINE
5
256
100
AcDbEntity
8
0
100
AcDbLine
10
-21.574500000000025
20
-83.437693400000001
30
0
11
-21.574500000000029
21
-98.037193400000021
31
6.6613381477509392e-15
0
ARC
5
257
100
AcDbEntity
8
0
100
AcDbCircle
10
-22.074500000000022
20
-98.037193400000021
30
0
40
0.50000000000000711
100
AcDbArc
50
-90
51
0
0
LINE
5
258
100
AcDbEntity
8
0
100
AcDbLine
10
-22.074500000000022
20
-98.537193400000035
30
0
11
-35.075200000000038
21
-98.537190010449251
31
0
0
ARC
5
259
100
AcDbEntity
8
0
100
AcDbCircle
10
-35.075200000000038
20
-98.037193400000021
30
0
40
0.49999999999999822
100
AcDbArc
50
180
51
270
0
LINE
5
260
100
AcDbEntity
8
0
100
AcDbLine
10
-35.575200000000038
20
-98.037193400000021
30
0
11
-35.575200000000038
21
-83.437693400000001
31
0
0
ARC
5
261
100
AcDbEntity
8
0
100
AcDbCircle
10
-35.075200000000038
20
-83.437693400000001
30
0
40
0.50000338649903497
100
AcDbArc
50
90
51
180
0
LINE
5
262
100
AcDbEntity
8
0
100
AcDbLine
10
-54.125300000000003
20
-92.461296117016616
30
0
11
-41.124500000000026
21
-92.461296117016616
31
0
0
ARC
5
263
100
AcDbEntity
8
0
100
AcDbCircle
10
-41.124500000000026
20
-92.961293400000017
30
0
40
0.49999999999999822
100
AcDbArc
50
0
51
90
0
LINE
5
264
100
AcDbEntity
8
0
100
AcDbLine
10
-40.624500000000026
20
-92.961293400000017
30
0
11
-40.624500000000019
21
-107.56229339999999
31
4.4408920985006262e-15
0
ARC
5
265
100
AcDbEntity
8
0
100
AcDbCircle
10
-41.124500000000026
20
-107.56229339999999
30
0
40
0.50000000000000711
100
AcDbArc
50
-90
51
0
0
LINE
5
266
100
AcDbEntity
8
0
100
AcDbLine
10
-41.124500000000026
20
-108.0622934
30
0
11
-54.125300000000003
21
-108.0622914813965
31
0
0
ARC
5
267
100
AcDbEntity
8
0
100
AcDbCircle
10
-54.125300000000003
20
-107.56229339999999
30
0
40
0.49999999999999822
100
AcDbArc
50
180
51
270
0
LINE
5
268
100
AcDbEntity
8
0
100
AcDbLine
10
-54.625300000000003
20
-107.56229339999999
30
0
11
-54.62530000000001
21
-92.961293400000017
31
0
0
ARC
5
269
100
AcDbEntity
8
0
100
AcDbCircle
10
-54.125300000000003
20
-92.961293400000017
30
0
40
0.49999728298340429
100
AcDbArc
50
90
51
180
0
LINE
5
270
100
AcDbEntity
8
0
100
AcDbLine
10
-16.025200000000023
20
-97.225189632031316
30
0
11
-3.0245000000000322
21
-97.225189632031316
31
0
0
ARC
5
271
100
AcDbEntity
8
0
100
AcDbCircle
10
-3.0245000000000322
20
-97.725193400000038
30
0
40
0.49999999999999989
100
AcDbArc
50
0
51
90
0
LINE
5
272
100
AcDbEntity
8
0
100
AcDbLine
10
-2.5245000000000322
20
-97.725193400000038
30
0
11
-2.5245000000000353
21
-112.32429340000002
31
4.4408920985006262e-15
0
ARC
5
273
100
AcDbEntity
8
0
100
AcDbCircle
10
-3.0245000000000348
20
-112.32429340000002
30
0
40
0.50000000000000711
100
AcDbArc
50
-89.999999999999943
51
0
0
LINE
5
274
100
AcDbEntity
8
0
100
AcDbLine
10
-3.0245000000000344
20
-112.82430680122074
30
0
11
-3.1253000000000242
21
-112.82430680122074
31
0
0
LINE
5
275
100
AcDbEntity
8
0
100
AcDbLine
10
-3.1253000000000242
20
-112.82429340000002
30
2.2204460492503131e-15
11
-15.924400000000034
21
-112.82429340000002
31
2.2204460492503131e-15
0
LINE
5
276
100
AcDbEntity
8
0
100
AcDbLine
10
-15.924400000000034
20
-112.82430680122074
30
0
11
-16.025200000000023
21
-112.82430680122074
31
0
0
ARC
5
277
100
AcDbEntity
8
0
100
AcDbCircle
10
-16.025200000000027
20
-112.32429340000002
30
0
40
0.50000000000000044
100
AcDbArc
50
180
51
270.0000000000004
0
LINE
5
278
100
AcDbEntity
8
0
100
AcDbLine
10
-16.525200000000027
20
-112.32429340000002
30
0
11
-16.525200000000027
21
-108.87520267518398
31
2.2204460492503131e-15
0
LINE
5
279
100
AcDbEntity
8
0
100
AcDbLine
10
-16.525200000000027
20
-108.87520267518398
30
2.2204460492503131e-15
11
-16.769877311459886
21
-108.87520267518398
31
2.2204460492503131e-15
0
ARC
5
280
100
AcDbEntity
8
0
100
AcDbCircle
10
-19.050000000000047
20
-107.84999999999998
30
2.2204460492503131e-15
40
2.5000000000000018
100
AcDbArc
50
204.20992759786154
51
335.79007240213861
0
LINE
5
281
100
AcDbEntity
8
0
100
AcDbLine
10
-21.3301226885402
20
-108.87520267518398
30
2.2204460492503131e-15
11
-21.574500000000043
21
-108.87520267518398
31
2.2204460492503131e-15
0
LINE
5
282
100
AcDbEntity
8
0
100
AcDbLine
10
-21.574500000000043
20
-108.87520267518398
30
2.2204460492503131e-15
11
-21.574500000000047
21
-117.08729339999999
31
2.2204460492503131e-15
0
ARC
5
283
100
AcDbEntity
8
0
100
AcDbCircle
10
-22.074500000000043
20
-117.08729339999999
30
0
40
0.50000000000000711
100
AcDbArc
50
-90
51
0
0
LINE
5
284
100
AcDbEntity
8
0
100
AcDbLine
10
-22.074500000000043
20
-117.58729340000001
30
0
11
-35.075200000000038
21
-117.58729758491211
31
0
0
ARC
5
285
100
AcDbEntity
8
0
100
AcDbCircle
10
-35.075200000000038
20
-117.08729339999999
30
0
40
0.49999999999999822
100
AcDbArc
50
180
51
270
0
LINE
5
286
100
AcDbEntity
8
0
100
AcDbLine
10
-35.575200000000038
20
-117.08729339999999
30
0
11
-35.575200000000038
21
-102.48629339999999
31
0
0
ARC
5
287
100
AcDbEntity
8
0
100
AcDbCircle
10
-35.075200000000038
20
-102.48629339999999
30
0
40
0.50000000000000711
100
AcDbArc
50
90
51
180
0
LINE
5
288
100
AcDbEntity
8
0
100
AcDbLine
10
-35.075200000000038
20
-101.98629339999998
30
0
11
-22.074500000000043
21
-101.98629241218259
31
0
0
ARC
5
289
100
AcDbEntity
8
0
100
AcDbCircle
10
-22.074500000000043
20
-102.48629339999999
30
0
40
0.49999999999999822
100
AcDbArc
50
0
51
90
0
LINE
5
290
100
AcDbEntity
8
0
100
AcDbLine
10
-21.574500000000043
20
-102.48629339999999
30
0
11
-21.574500000000043
21
-106.82479732481598
31
2.2204460492503131e-15
0
LINE
5
291
100
AcDbEntity
8
0
100
AcDbLine
10
-21.574500000000043
20
-106.82479732481598
30
2.2204460492503131e-15
11
-21.33012268854019
21
-106.82479732481598
31
2.2204460492503131e-15
0
ARC
5
292
100
AcDbEntity
8
0
100
AcDbCircle
10
-19.050000000000047
20
-107.84999999999998
30
2.2204460492503131e-15
40
2.5000000000000018
100
AcDbArc
50
24.20992759786153
51
155.79007240213838
0
LINE
5
293
100
AcDbEntity
8
0
100
AcDbLine
10
-16.769877311459894
20
-106.82479732481598
30
2.2204460492503131e-15
11
-16.525200000000027
21
-106.82479732481598
31
2.2204460492503131e-15
0
LINE
5
294
100
AcDbEntity
8
0
100
AcDbLine
10
-16.525200000000027
20
-106.82479732481598
30
2.2204460492503131e-15
11
-16.525200000000023
21
-97.725193400000038
31
2.2204460492503131e-15
0
ARC
5
295
100
AcDbEntity
8
0
100
AcDbCircle
10
-16.025200000000023
20
-97.725193400000038
30
0
40
0.50000376796871748
100
AcDbArc
50
90
51
180
0
LINE
5
296
100
AcDbEntity
8
0
100
AcDbLine
10
-54.125300000000038
20
-111.51128897895506
30
0
11
-41.124500000000026
21
-111.51128897895506
31
0
0
ARC
5
297
100
AcDbEntity
8
0
100
AcDbCircle
10
-41.124500000000026
20
-112.0112934
30
0
40
0.49999999999999822
100
AcDbArc
50
0
51
90
0
LINE
5
298
100
AcDbEntity
8
0
100
AcDbLine
10
-40.624500000000026
20
-112.0112934
30
0
11
-40.624500000000019
21
-126.6122934
31
0
0
ARC
5
299
100
AcDbEntity
8
0
100
AcDbCircle
10
-41.124500000000026
20
-126.6122934
30
-2.2204460492503131e-15
40
0.50000000000000711
100
AcDbArc
50
-90
51
0
0
LINE
5
300
100
AcDbEntity
8
0
100
AcDbLine
10
-41.124500000000026
20
-127.11229340000001
30
-2.2204460492503131e-15
11
-54.125300000000038
21
-127.11229415168461
31
0
0
ARC
5
301
100
AcDbEntity
8
0
100
AcDbCircle
10
-54.125300000000038
20
-126.6122934
30
-2.2204460492503131e-15
40
0.49999999999999822
100
AcDbArc
50
180
51
270
0
LINE
5
302
100
AcDbEntity
8
0
100
AcDbLine
10
-54.625300000000038
20
-126.6122934
30
-2.2204460492503131e-15
11
-54.625300000000045
21
-112.0112934
31
0
0
ARC
5
303
100
AcDbEntity
8
0
100
AcDbCircle
10
-54.125300000000038
20
-112.0112934
30
0
40
0.50000442104492393
100
AcDbArc
50
90
51
180
0
LINE
5
304
100
AcDbEntity
8
0
100
AcDbLine
10
-40.624500000000019
20
-131.06129340000001
30
-2.2204460492503131e-15
11
-40.624500000000019
21
-137.16295025261348
31
1.3322676295501878e-14
0
LINE
5
305
100
AcDbEntity
8
0
100
AcDbLine
10
-40.624500000000019
20
-137.16295025261348
30
1.3322676295501878e-14
11
-40.357015671033274
21
-137.16295025261348
31
1.3322676295501878e-14
0
ARC
5
306
100
AcDbEntity
8
0
100
AcDbCircle
10
-38.150000000000048
20
-138.33729340000002
30
1.3322676295501878e-14
40
2.5000000000000004
100
AcDbArc
50
-151.98275720153336
51
151.98275720153327
0
LINE
5
307
100
AcDbEntity
8
0
100
AcDbLine
10
-40.357015671033281
20
-139.51163654738656
30
1.3322676295501878e-14
11
-40.624500000000019
21
-139.51163654738656
31
1.3322676295501878e-14
0
LINE
5
308
100
AcDbEntity
8
0
100
AcDbLine
10
-40.624500000000019
20
-139.51163654738656
30
1.3322676295501878e-14
11
-40.624500000000019
21
-145.66229340000001
31
1.3322676295501878e-14
0
ARC
5
309
100
AcDbEntity
8
0
100
AcDbCircle
10
-41.124500000000026
20
-145.66229340000001
30
-2.2204460492503131e-15
40
0.50000000000000711
100
AcDbArc
50
-90
51
0
0
LINE
5
310
100
AcDbEntity
8
0
100
AcDbLine
10
-41.124500000000026
20
-146.16229340000001
30
-2.2204460492503131e-15
11
-54.125300000000038
21
-146.16228728522952
31
-2.2204460492503131e-15
0
ARC
5
311
100
AcDbEntity
8
0
100
AcDbCircle
10
-54.125300000000038
20
-145.66229340000001
30
-2.2204460492503131e-15
40
0.49999999999999822
100
AcDbArc
50
180
51
270
0
LINE
5
312
100
AcDbEntity
8
0
100
AcDbLine
10
-54.625300000000038
20
-145.66229340000001
30
-2.2204460492503131e-15
11
-54.625300000000045
21
-131.06129340000001
31
0
0
ARC
5
313
100
AcDbEntity
8
0
100
AcDbCircle
10
-54.125300000000038
20
-131.06129340000001
30
0
40
0.50000000000000711
100
AcDbArc
50
90
51
180
0
LINE
5
314
100
AcDbEntity
8
0
100
AcDbLine
10
-54.125300000000053
20
-130.56128211250007
30
0
11
-54.024500000000053
21
-130.56128211250007
31
0
0
LINE
5
315
100
AcDbEntity
8
0
100
AcDbLine
10
-54.024500000000053
20
-130.56129340000001
30
1.5543122344752192e-14
11
-41.225300000000047
21
-130.56129340000001
31
1.5543122344752192e-14
0
LINE
5
316
100
AcDbEntity
8
0
100
AcDbLine
10
-41.225300000000011
20
-130.56128211250007
30
0
11
-41.12450000000004
21
-130.56128211250007
31
0
0
ARC
5
317
100
AcDbEntity
8
0
100
AcDbCircle
10
-41.124500000000026
20
-131.06129340000001
30
0
40
0.50000000000000711
100
AcDbArc
50
0
51
90
0
LINE
5
318
100
AcDbEntity
8
0
100
AcDbLine
10
-21.574500000000043
20
-121.53729340000001
30
0
11
-21.574500000000047
21
-136.13829340000001
31
-2.2204460492503131e-15
0
ARC
5
319
100
AcDbEntity
8
0
100
AcDbCircle
10
-22.074500000000043
20
-136.13829340000001
30
0
40
0.50000000000000711
100
AcDbArc
50
-90
51
0
0
LINE
5
320
100
AcDbEntity
8
0
100
AcDbLine
10
-22.074500000000043
20
-136.63830707587894
30
-2.2204460492503131e-15
11
-22.175300000000036
21
-136.63830707587897
31
-2.2204460492503131e-15
0
LINE
5
321
100
AcDbEntity
8
0
100
AcDbLine
10
-22.175300000000036
20
-136.63829340000004
30
1.3322676295501878e-14
11
-34.974400000000031
21
-136.63829340000004
31
1.3322676295501878e-14
0
LINE
5
322
100
AcDbEntity
8
0
100
AcDbLine
10
-34.97440000000001
20
-136.63830707587897
30
-2.2204460492503131e-15
11
-35.075200000000038
21
-136.63830707587897
31
-2.2204460492503131e-15
0
ARC
5
323
100
AcDbEntity
8
0
100
AcDbCircle
10
-35.075200000000038
20
-136.13829340000001
30
0
40
0.49999999999999822
100
AcDbArc
50
180
51
270
0
LINE
5
324
100
AcDbEntity
8
0
100
AcDbLine
10
-35.575200000000038
20
-136.13829340000001
30
0
11
-35.575200000000038
21
-121.53729340000001
31
0
0
ARC
5
325
100
AcDbEntity
8
0
100
AcDbCircle
10
-35.075200000000038
20
-121.53729340000001
30
0
40
0.50000000000000711
100
AcDbArc
50
90
51
180
0
LINE
5
326
100
AcDbEntity
8
0
100
AcDbLine
10
-35.075200000000038
20
-121.03729340000001
30
0
11
-22.074500000000043
21
-121.03729372443851
31
0
0
ARC
5
327
100
AcDbEntity
8
0
100
AcDbCircle
10
-22.074500000000043
20
-121.53729340000001
30
0
40
0.49999999999999822
100
AcDbArc
50
0
51
90
0
LINE
5
328
100
AcDbEntity
8
0
100
AcDbLine
10
-16.025200000000023
20
-116.27529747810061
30
-2.2204460492503131e-15
11
-3.0245000000000322
21
-116.27529747810061
31
-2.2204460492503131e-15
0
ARC
5
329
100
AcDbEntity
8
0
100
AcDbCircle
10
-3.0245000000000322
20
-116.77529340000001
30
0
40
0.49999999999999989
100
AcDbArc
50
0
51
90
0
LINE
5
330
100
AcDbEntity
8
0
100
AcDbLine
10
-2.5245000000000322
20
-116.77529340000001
30
0
11
-2.5245000000000353
21
-131.3742934
31
0
0
ARC
5
331
100
AcDbEntity
8
0
100
AcDbCircle
10
-3.0245000000000348
20
-131.3742934
30
0
40
0.50000000000000711
100
AcDbArc
50
-89.999999999999943
51
0
0
LINE
5
332
100
AcDbEntity
8
0
100
AcDbLine
10
-3.0245000000000344
20
-131.8742934
30
0
11
-16.025200000000027
21
-131.87429039802248
31
0
0
ARC
5
333
100
AcDbEntity
8
0
100
AcDbCircle
10
-16.025200000000027
20
-131.3742934
30
0
40
0.50000000000000044
100
AcDbArc
50
180
51
270
0
LINE
5
334
100
AcDbEntity
8
0
100
AcDbLine
10
-16.525200000000027
20
-131.3742934
30
0
11
-16.525200000000027
21
-116.77529340000001
31
-2.2204460492503131e-15
0
ARC
5
335
100
AcDbEntity
8
0
100
AcDbCircle
10
-16.025200000000023
20
-116.77529340000001
30
0
40
0.49999592189939435
100
AcDbArc
50
90
51
180
0
LINE
5
336
100
AcDbEntity
8
0
100
AcDbLine
10
-16.025200000000023
20
-135.32529061164553
30
-2.2204460492503131e-15
11
-3.0245000000000322
21
-135.32529061164553
31
-2.2204460492503131e-15
0
ARC
5
337
100
AcDbEntity
8
0
100
AcDbCircle
10
-3.0245000000000322
20
-135.82529340000002
30
-2.2204460492503131e-15
40
0.49999999999999989
100
AcDbArc
50
0
51
90
0
LINE
5
338
100
AcDbEntity
8
0
100
AcDbLine
10
-2.5245000000000322
20
-135.82529340000002
30
-2.2204460492503131e-15
11
-2.5245000000000353
21
-150.42429340000001
31
1.3322676295501878e-14
0
ARC
5
339
100
AcDbEntity
8
0
100
AcDbCircle
10
-3.0245000000000348
20
-150.42429340000001
30
0
40
0.50000000000000711
100
AcDbArc
50
-89.999999999999943
51
0
0
LINE
5
340
100
AcDbEntity
8
0
100
AcDbLine
10
-3.0245000000000344
20
-150.92429340000001
30
0
11
-16.025200000000027
21
-150.92429306831059
31
0
0
ARC
5
341
100
AcDbEntity
8
0
100
AcDbCircle
10
-16.025200000000027
20
-150.42429340000001
30
0
40
0.50000000000000044
100
AcDbArc
50
180
51
270
0
LINE
5
342
100
AcDbEntity
8
0
100
AcDbLine
10
-16.525200000000027
20
-150.42429340000001
30
0
11
-16.525200000000027
21
-135.82529340000002
31
-2.2204460492503131e-15
0
ARC
5
343
100
AcDbEntity
8
0
100
AcDbCircle
10
-16.025200000000023
20
-135.82529340000002
30
-2.2204460492503131e-15
40
0.50000278835449663
100
AcDbArc
50
90
51
180
0
LINE
5
344
100
AcDbEntity
8
0
100
AcDbLine
10
-35.075200000000038
20
-140.08729639472659
30
0
11
-22.074500000000043
21
-140.08729639472662
31
0
0
ARC
5
345
100
AcDbEntity
8
0
100
AcDbCircle
10
-22.074500000000043
20
-140.58729340000002
30
0
40
0.49999999999999822
100
AcDbArc
50
0
51
90
0
LINE
5
346
100
AcDbEntity
8
0
100
AcDbLine
10
-21.574500000000043
20
-140.58729340000002
30
0
11
-21.574500000000047
21
-155.18829340000002
31
1.1102230246251565e-14
0
ARC
5
347
100
AcDbEntity
8
0
100
AcDbCircle
10
-22.074500000000043
20
-155.18829340000002
30
-2.2204460492503131e-15
40
0.50000000000000711
100
AcDbArc
50
-90
51
0
0
LINE
5
348
100
AcDbEntity
8
0
100
AcDbLine
10
-22.074500000000043
20
-155.68828113593756
30
-2.2204460492503131e-15
11
-22.175300000000036
21
-155.68828113593756
31
-2.2204460492503131e-15
0
LINE
5
349
100
AcDbEntity
8
0
100
AcDbLine
10
-22.175300000000036
20
-155.68829340000005
30
8.8817841970012523e-15
11
-34.974400000000031
21
-155.68829340000005
31
8.8817841970012523e-15
0
LINE
5
350
100
AcDbEntity
8
0
100
AcDbLine
10
-34.974400000000045
20
-155.68828113593753
30
-2.2204460492503131e-15
11
-35.075200000000038
21
-155.68828113593753
31
-2.2204460492503131e-15
0
ARC
5
351
100
AcDbEntity
8
0
100
AcDbCircle
10
-35.075200000000038
20
-155.18829340000002
30
-2.2204460492503131e-15
40
0.49999999999999822
100
AcDbArc
50
180
51
270
0
LINE
5
352
100
AcDbEntity
8
0
100
AcDbLine
10
-35.575200000000038
20
-155.18829340000002
30
-2.2204460492503131e-15
11
-35.575200000000038
21
-140.58729340000002
31
0
0
ARC
5
353
100
AcDbEntity
8
0
100
AcDbCircle
10
-35.075200000000038
20
-140.58729340000002
30
0
40
0.4999970052734426
100
AcDbArc
50
90
51
180
0
LINE
5
354
100
AcDbEntity
8
0
100
AcDbLine
10
-54.125300000000038
20
-149.61129431953128
30
0
11
-41.124500000000026
21
-149.61129431953128
31
0
0
ARC
5
355
100
AcDbEntity
8
0
100
AcDbCircle
10
-41.124500000000026
20
-150.11129340000002
30
0
40
0.49999999999999822
100
AcDbArc
50
0
51
90
0
LINE
5
356
100
AcDbEntity
8
0
100
AcDbLine
10
-40.624500000000026
20
-150.11129340000002
30
0
11
-40.624500000000019
21
-164.71329340000005
31
1.1102230246251565e-14
0
ARC
5
357
100
AcDbEntity
8
0
100
AcDbCircle
10
-41.124500000000026
20
-164.71329340000005
30
0
40
0.50000000000000711
100
AcDbArc
50
-90
51
0
0
LINE
5
358
100
AcDbEntity
8
0
100
AcDbLine
10
-41.124500000000026
20
-165.21329340000005
30
-2.2204460492503131e-15
11
-54.125300000000038
21
-165.21328995551761
31
-2.2204460492503131e-15
0
ARC
5
359
100
AcDbEntity
8
0
100
AcDbCircle
10
-54.125300000000038
20
-164.71329340000005
30
0
40
0.49999999999999822
100
AcDbArc
50
180
51
270
0
LINE
5
360
100
AcDbEntity
8
0
100
AcDbLine
10
-54.625300000000038
20
-164.71329340000005
30
0
11
-54.625300000000045
21
-150.11129340000002
31
0
0
ARC
5
361
100
AcDbEntity
8
0
100
AcDbCircle
10
-54.125300000000038
20
-150.11129340000002
30
0
40
0.49999908046874708
100
AcDbArc
50
90
51
180
0
LINE
5
362
100
AcDbEntity
8
0
100
AcDbLine
10
-16.025200000000023
20
-154.37529328193364
30
0
11
-3.0245000000000299
21
-154.37529328193364
31
0
0
ARC
5
363
100
AcDbEntity
8
0
100
AcDbCircle
10
-3.0245000000000322
20
-154.87529340000003
30
0
40
0.49999999999999989
100
AcDbArc
50
0
51
89.999999999999744
0
LINE
5
364
100
AcDbEntity
8
0
100
AcDbLine
10
-2.5245000000000322
20
-154.87529340000003
30
0
11
-2.5245000000000353
21
-169.47429339999999
31
8.8817841970012523e-15
0
ARC
5
365
100
AcDbEntity
8
0
100
AcDbCircle
10
-3.0245000000000348
20
-169.47429339999999
30
0
40
0.50000000000000711
100
AcDbArc
50
-89.999999999999943
51
0
0
LINE
5
366
100
AcDbEntity
8
0
100
AcDbLine
10
-3.0245000000000344
20
-169.97429339999999
30
0
11
-16.025200000000027
21
-169.97428620185553
31
0
0
ARC
5
367
100
AcDbEntity
8
0
100
AcDbCircle
10
-16.025200000000027
20
-169.47429339999999
30
0
40
0.50000000000000044
100
AcDbArc
50
180
51
270
0
LINE
5
368
100
AcDbEntity
8
0
100
AcDbLine
10
-16.525200000000027
20
-169.47429339999999
30
0
11
-16.525200000000027
21
-154.87529340000003
31
0
0
ARC
5
369
100
AcDbEntity
8
0
100
AcDbCircle
10
-16.025200000000023
20
-154.87529340000003
30
0
40
0.50000011806639932
100
AcDbArc
50
90
51
180
0
LINE
5
370
100
AcDbEntity
8
0
100
AcDbLine
10
-35.075200000000038
20
-159.13728952827148
30
0
11
-22.074500000000043
21
-159.13728952827148
31
0
0
ARC
5
371
100
AcDbEntity
8
0
100
AcDbCircle
10
-22.074500000000043
20
-159.6372934
30
0
40
0.49999999999999822
100
AcDbArc
50
0
51
90
0
LINE
5
372
100
AcDbEntity
8
0
100
AcDbLine
10
-21.574500000000043
20
-159.6372934
30
0
11
-21.574500000000047
21
-174.23829340000003
31
8.8817841970012523e-15
0
ARC
5
373
100
AcDbEntity
8
0
100
AcDbCircle
10
-22.074500000000043
20
-174.23829340000003
30
0
40
0.50000000000000711
100
AcDbArc
50
-90
51
0
0
LINE
5
374
100
AcDbEntity
8
0
100
AcDbLine
10
-22.074500000000043
20
-174.73829340000006
30
0
11
-35.075200000000038
21
-174.73829334296886
31
0
0
ARC
5
375
100
AcDbEntity
8
0
100
AcDbCircle
10
-35.075200000000038
20
-174.23829340000003
30
0
40
0.49999999999999822
100
AcDbArc
50
180
51
270
0
LINE
5
376
100
AcDbEntity
8
0
100
AcDbLine
10
-35.575200000000038
20
-174.23829340000003
30
0
11
-35.575200000000038
21
-159.6372934
31
0
0
ARC
5
377
100
AcDbEntity
8
0
100
AcDbCircle
10
-35.075200000000038
20
-159.6372934
30
0
40
0.50000387172850935
100
AcDbArc
50
90
51
180
0
LINE
5
378
100
AcDbEntity
8
0
100
AcDbLine
10
-54.125300000000038
20
-168.66129563178717
30
0
11
-41.124500000000062
21
-168.66129563178717
31
0
0
ARC
5
379
100
AcDbEntity
8
0
100
AcDbCircle
10
-41.124500000000062
20
-169.16129340000003
30
0
40
0.49999999999999822
100
AcDbArc
50
0
51
90
0
LINE
5
380
100
AcDbEntity
8
0
100
AcDbLine
10
-40.624500000000062
20
-169.16129340000003
30
0
11
-40.624500000000019
21
-183.76329340000007
31
6.6613381477509392e-15
0
ARC
5
381
100
AcDbEntity
8
0
100
AcDbCircle
10
-41.124500000000062
20
-183.76329340000007
30
0
40
0.50000000000000711
100
AcDbArc
50
-90
51
0
0
LINE
5
382
100
AcDbEntity
8
0
100
AcDbLine
10
-41.124500000000062
20
-184.26329340000007
30
0
11
-54.125300000000038
21
-184.2632994464845
31
0
0
ARC
5
383
100
AcDbEntity
8
0
100
AcDbCircle
10
-54.125300000000038
20
-183.76329340000007
30
0
40
0.49999999999999822
100
AcDbArc
50
180
51
270
0
LINE
5
384
100
AcDbEntity
8
0
100
AcDbLine
10
-54.625300000000038
20
-183.76329340000007
30
0
11
-54.625300000000045
21
-169.16129340000003
31
0
0
ARC
5
385
100
AcDbEntity
8
0
100
AcDbCircle
10
-54.125300000000038
20
-169.16129340000003
30
0
40
0.49999776821287867
100
AcDbArc
50
90
51
180
0
LINE
5
386
100
AcDbEntity
8
0
100
AcDbLine
10
-16.025200000000041
20
-173.42528641547858
30
0
11
-3.0245000000000322
21
-173.42528641547858
31
0
0
ARC
5
387
100
AcDbEntity
8
0
100
AcDbCircle
10
-3.0245000000000322
20
-173.92529340000004
30
0
40
0.49999999999999989
100
AcDbArc
50
0
51
90
0
LINE
5
388
100
AcDbEntity
8
0
100
AcDbLine
10
-2.5245000000000322
20
-173.92529340000004
30
0
11
-2.5245000000000353
21
-188.5242934
31
4.4408920985006262e-15
0
ARC
5
389
100
AcDbEntity
8
0
100
AcDbCircle
10
-3.0245000000000348
20
-188.5242934
30
0
40
0.50000000000000711
100
AcDbArc
50
-89.999999999999943
51
0
0
LINE
5
390
100
AcDbEntity
8
0
100
AcDbLine
10
-3.0245000000000344
20
-189.0242934
30
0
11
-16.025200000000044
21
-189.02429840888681
31
0
0
ARC
5
391
100
AcDbEntity
8
0
100
AcDbCircle
10
-16.025200000000044
20
-188.5242934
30
0
40
0.50000000000000044
100
AcDbArc
50
180
51
270
0
LINE
5
392
100
AcDbEntity
8
0
100
AcDbLine
10
-16.525200000000044
20
-188.5242934
30
0
11
-16.525200000000044
21
-173.92529340000004
31
0
0
ARC
5
393
100
AcDbEntity
8
0
100
AcDbCircle
10
-16.025200000000041
20
-173.92529340000004
30
0
40
0.50000698452144832
100
AcDbArc
50
90
51
180
0
LINE
5
394
100
AcDbEntity
8
0
100
AcDbLine
10
-35.075200000000038
20
-178.18730173530275
30
0
11
-22.074500000000043
21
-178.18730173530275
31
0
0
ARC
5
395
100
AcDbEntity
8
0
100
AcDbCircle
10
-22.074500000000043
20
-178.68729340000002
30
0
40
0.49999999999999822
100
AcDbArc
50
0
51
90
0
LINE
5
396
100
AcDbEntity
8
0
100
AcDbLine
10
-21.574500000000043
20
-178.68729340000002
30
0
11
-21.574500000000047
21
-193.28829340000004
31
4.4408920985006262e-15
0
ARC
5
397
100
AcDbEntity
8
0
100
AcDbCircle
10
-22.074500000000043
20
-193.28829340000004
30
0
40
0.50000000000000711
100
AcDbArc
50
-90
51
0
0
LINE
5
398
100
AcDbEntity
8
0
100
AcDbLine
10
-22.074500000000043
20
-193.78829340000007
30
0
11
-35.075200000000038
21
-193.78828647651375
31
0
0
ARC
5
399
100
AcDbEntity
8
0
100
AcDbCircle
10
-35.075200000000038
20
-193.28829340000004
30
0
40
0.49999999999999822
100
AcDbArc
50
180
51
270
0
LINE
5
400
100
AcDbEntity
8
0
100
AcDbLine
10
-35.575200000000038
20
-193.28829340000004
30
0
11
-35.575200000000038
21
-178.68729340000002
31
0
0
ARC
5
401
100
AcDbEntity
8
0
100
AcDbCircle
10
-35.075200000000038
20
-178.68729340000002
30
0
40
0.49999166469724798
100
AcDbArc
50
90
51
180
0
LINE
5
402
100
AcDbEntity
8
0
100
AcDbLine
10
-54.125300000000038
20
-187.71228876533206
30
0
11
-41.124500000000062
21
-187.71228876533206
31
0
0
ARC
5
403
100
AcDbEntity
8
0
100
AcDbCircle
10
-41.124500000000062
20
-188.21229340000002
30
0
40
0.49999999999999822
100
AcDbArc
50
0
51
90
0
LINE
5
404
100
AcDbEntity
8
0
100
AcDbLine
10
-40.624500000000062
20
-188.21229340000002
30
0
11
-40.624500000000054
21
-202.81329340000002
31
0
0
ARC
5
405
100
AcDbEntity
8
0
100
AcDbCircle
10
-41.124500000000062
20
-202.81329340000002
30
0
40
0.50000000000000711
100
AcDbArc
50
-90
51
0
0
LINE
5
406
100
AcDbEntity
8
0
100
AcDbLine
10
-41.124500000000062
20
-203.31331165351565
30
0
11
-41.225300000000047
21
-203.31331165351565
31
0
0
LINE
5
407
100
AcDbEntity
8
0
100
AcDbLine
10
-41.225300000000047
20
-203.31329340000002
30
0
11
-54.024500000000053
21
-203.31329340000002
31
0
0
LINE
5
408
100
AcDbEntity
8
0
100
AcDbLine
10
-54.024500000000053
20
-203.31331165351565
30
0
11
-54.125300000000053
21
-203.31331165351565
31
0
0
ARC
5
409
100
AcDbEntity
8
0
100
AcDbCircle
10
-54.125300000000038
20
-202.81329340000002
30
0
40
0.49999999999999822
100
AcDbArc
50
180
51
270
0
LINE
5
410
100
AcDbEntity
8
0
100
AcDbLine
10
-54.625300000000038
20
-202.81329340000002
30
0
11
-54.625300000000045
21
-188.21229340000002
31
0
0
ARC
5
411
100
AcDbEntity
8
0
100
AcDbCircle
10
-54.125300000000038
20
-188.21229340000002
30
0
40
0.50000463466794542
100
AcDbArc
50
90
51
180
0
LINE
5
412
100
AcDbEntity
8
0
100
AcDbLine
10
-16.025200000000041
20
-192.47529862250985
30
0
11
-3.0245000000000499
21
-192.47529862250985
31
0
0
ARC
5
413
100
AcDbEntity
8
0
100
AcDbCircle
10
-3.0245000000000499
20
-192.97529340000006
30
0
40
0.49999999999999989
100
AcDbArc
50
0
51
90
0
LINE
5
414
100
AcDbEntity
8
0
100
AcDbLine
10
-2.5245000000000499
20
-192.97529340000006
30
0
11
-2.524500000000053
21
-207.57429340000002
31
0
0
ARC
5
415
100
AcDbEntity
8
0
100
AcDbCircle
10
-3.0245000000000526
20
-207.57429340000002
30
0
40
0.50000000000000711
100
AcDbArc
50
-89.999999999999943
51
0
0
LINE
5
416
100
AcDbEntity
8
0
100
AcDbLine
10
-3.0245000000000521
20
-208.07429340000002
30
0
11
-16.025200000000044
21
-208.07430134257822
31
0
0
ARC
5
417
100
AcDbEntity
8
0
100
AcDbCircle
10
-16.025200000000044
20
-207.57429340000002
30
0
40
0.50000000000000044
100
AcDbArc
50
180
51
270
0
LINE
5
418
100
AcDbEntity
8
0
100
AcDbLine
10
-16.525200000000044
20
-207.57429340000002
30
0
11
-16.525200000000044
21
-192.97529340000006
31
0
0
ARC
5
419
100
AcDbEntity
8
0
100
AcDbCircle
10
-16.025200000000041
20
-192.97529340000006
30
0
40
0.49999477749018695
100
AcDbArc
50
90
51
180
0
LINE
5
420
100
AcDbEntity
8
0
100
AcDbLine
10
-35.075200000000073
20
-197.2372948688477
30
0
11
-22.074500000000043
21
-197.2372948688477
31
0
0
ARC
5
421
100
AcDbEntity
8
0
100
AcDbCircle
10
-22.074500000000043
20
-197.73729340000003
30
0
40
0.49999999999999822
100
AcDbArc
50
0
51
90
0
LINE
5
422
100
AcDbEntity
8
0
100
AcDbLine
10
-21.574500000000043
20
-197.73729340000003
30
0
11
-21.574500000000047
21
-212.33829340000003
31
0
0
ARC
5
423
100
AcDbEntity
8
0
100
AcDbCircle
10
-22.074500000000043
20
-212.33829340000003
30
0
40
0.50000000000000711
100
AcDbArc
50
-90
51
0
0
LINE
5
424
100
AcDbEntity
8
0
100
AcDbLine
10
-22.074500000000036
20
-212.83827961005863
30
0
11
-22.175300000000053
21
-212.83827961005863
31
0
0
LINE
5
425
100
AcDbEntity
8
0
100
AcDbLine
10
-22.175300000000053
20
-212.83829340000005
30
1.5543122344752192e-14
11
-34.974400000000045
21
-212.83829340000005
31
1.5543122344752192e-14
0
LINE
5
426
100
AcDbEntity
8
0
100
AcDbLine
10
-34.974400000000045
20
-212.83827961005863
30
0
11
-35.075200000000073
21
-212.83827961005863
31
0
0
ARC
5
427
100
AcDbEntity
8
0
100
AcDbCircle
10
-35.075200000000073
20
-212.33829340000003
30
0
40
0.49999999999999822
100
AcDbArc
50
180
51
270
0
LINE
5
428
100
AcDbEntity
8
0
100
AcDbLine
10
-35.575200000000073
20
-212.33829340000003
30
0
11
-35.575200000000073
21
-197.73729340000003
31
0
0
ARC
5
429
100
AcDbEntity
8
0
100
AcDbCircle
10
-35.075200000000073
20
-197.73729340000003
30
0
40
0.49999853115231474
100
AcDbArc
50
90
51
180
0
LINE
5
430
100
AcDbEntity
8
0
100
AcDbLine
10
-54.125300000000053
20
-206.76228189887701
30
0
11
-54.024500000000053
21
-206.76228189887701
31
0
0
LINE
5
431
100
AcDbEntity
8
0
100
AcDbLine
10
-54.024500000000053
20
-206.76229340000003
30
-2.2204460492503131e-15
11
-41.225300000000047
21
-206.76229340000003
31
-2.2204460492503131e-15
0
LINE
5
432
100
AcDbEntity
8
0
100
AcDbLine
10
-41.225300000000047
20
-206.76228189887701
30
0
11
-41.124500000000062
21
-206.76228189887701
31
0
0
ARC
5
433
100
AcDbEntity
8
0
100
AcDbCircle
10
-41.124500000000062
20
-207.26229340000003
30
-2.2204460492503131e-15
40
0.49999999999999822
100
AcDbArc
50
0
51
90
0
LINE
5
434
100
AcDbEntity
8
0
100
AcDbLine
10
-40.624500000000062
20
-207.26229340000003
30
-2.2204460492503131e-15
11
-40.624500000000054
21
-221.8632934
31
1.5543122344752192e-14
0
ARC
5
435
100
AcDbEntity
8
0
100
AcDbCircle
10
-41.124500000000062
20
-221.8632934
30
0
40
0.50000000000000711
100
AcDbArc
50
-90
51
0
0
LINE
5
436
100
AcDbEntity
8
0
100
AcDbLine
10
-41.124500000000062
20
-222.3632934
30
0
11
-54.125300000000038
21
-222.36328571357427
31
0
0
ARC
5
437
100
AcDbEntity
8
0
100
AcDbCircle
10
-54.125300000000038
20
-221.8632934
30
0
40
0.49999999999999822
100
AcDbArc
50
180
51
270
0
LINE
5
438
100
AcDbEntity
8
0
100
AcDbLine
10
-54.625300000000038
20
-221.8632934
30
0
11
-54.625300000000045
21
-207.26229340000003
31
0
0
ARC
5
439
100
AcDbEntity
8
0
100
AcDbCircle
10
-54.125300000000038
20
-207.26229340000003
30
-2.2204460492503131e-15
40
0.50000000000000711
100
AcDbArc
50
90
51
180
0
LINE
5
440
100
AcDbEntity
8
0
100
AcDbLine
10
-54.125300000000053
20
-225.81227503242189
30
-2.2204460492503131e-15
11
-54.024500000000053
21
-225.81227503242189
31
-2.2204460492503131e-15
0
LINE
5
441
100
AcDbEntity
8
0
100
AcDbLine
10
-54.024500000000053
20
-225.81229339999999
30
1.1102230246251565e-14
11
-41.225300000000047
21
-225.81229339999999
31
1.1102230246251565e-14
0
LINE
5
442
100
AcDbEntity
8
0
100
AcDbLine
10
-41.225300000000047
20
-225.81227503242189
30
-2.2204460492503131e-15
11
-41.124500000000062
21
-225.81227503242189
31
-2.2204460492503131e-15
0
ARC
5
443
100
AcDbEntity
8
0
100
AcDbCircle
10
-41.124500000000062
20
-226.31229340000002
30
-2.2204460492503131e-15
40
0.49999999999999822
100
AcDbArc
50
0
51
90
0
LINE
5
444
100
AcDbEntity
8
0
100
AcDbLine
10
-40.624500000000062
20
-226.31229340000002
30
-2.2204460492503131e-15
11
-40.624500000000054
21
-240.91329340000001
31
1.1102230246251565e-14
0
ARC
5
445
100
AcDbEntity
8
0
100
AcDbCircle
10
-41.124500000000062
20
-240.91329340000001
30
0
40
0.50000000000000711
100
AcDbArc
50
-90
51
0
0
LINE
5
446
100
AcDbEntity
8
0
100
AcDbLine
10
-41.124500000000062
20
-241.41329340000001
30
0
11
-54.125300000000038
21
-241.41329792060554
31
0
0
ARC
5
447
100
AcDbEntity
8
0
100
AcDbCircle
10
-54.125300000000038
20
-240.91329340000001
30
0
40
0.49999999999999822
100
AcDbArc
50
180
51
270
0
LINE
5
448
100
AcDbEntity
8
0
100
AcDbLine
10
-54.625300000000038
20
-240.91329340000001
30
0
11
-54.625300000000045
21
-226.31229340000002
31
0
0
ARC
5
449
100
AcDbEntity
8
0
100
AcDbCircle
10
-54.125300000000038
20
-226.31229340000002
30
-2.2204460492503131e-15
40
0.50000000000000711
100
AcDbArc
50
90
51
180
0
LINE
5
450
100
AcDbEntity
8
0
100
AcDbLine
10
-35.075200000000073
20
-221.05029785957038
30
0
11
-22.074500000000057
21
-221.05029785957038
31
0
0
ARC
5
451
100
AcDbEntity
8
0
100
AcDbCircle
10
-22.074500000000057
20
-221.55029340000002
30
0
40
0.49999999999999822
100
AcDbArc
50
0
51
90
0
LINE
5
452
100
AcDbEntity
8
0
100
AcDbLine
10
-21.574500000000061
20
-221.55029340000002
30
0
11
-21.574500000000064
21
-236.1492934
31
1.1102230246251565e-14
0
ARC
5
453
100
AcDbEntity
8
0
100
AcDbCircle
10
-22.074500000000057
20
-236.1492934
30
0
40
0.50000000000000711
100
AcDbArc
50
-90
51
0
0
LINE
5
454
100
AcDbEntity
8
0
100
AcDbLine
10
-22.074500000000057
20
-236.6492934
30
0
11
-35.075200000000073
21
-236.64929981669923
31
0
0
ARC
5
455
100
AcDbEntity
8
0
100
AcDbCircle
10
-35.075200000000073
20
-236.1492934
30
0
40
0.49999999999999822
100
AcDbArc
50
180
51
270
0
LINE
5
456
100
AcDbEntity
8
0
100
AcDbLine
10
-35.575200000000073
20
-236.1492934
30
0
11
-35.575200000000073
21
-221.55029340000002
31
0
0
ARC
5
457
100
AcDbEntity
8
0
100
AcDbCircle
10
-35.075200000000073
20
-221.55029340000002
30
0
40
0.49999554042965855
100
AcDbArc
50
90
51
180
0
LINE
5
458
100
AcDbEntity
8
0
100
AcDbLine
10
-16.025200000000059
20
-218.66928748359379
30
0
11
-12.524500000000296
21
-218.66929340000002
31
1.3322676295501878e-14
0
ARC
5
459
100
AcDbEntity
8
0
100
AcDbCircle
10
-12.524500000000296
20
-219.16929340000002
30
0
40
0.50000000000000044
100
AcDbArc
50
0
51
90
0
LINE
5
460
100
AcDbEntity
8
0
100
AcDbLine
10
-12.024500000000295
20
-219.16929340000002
30
0
11
-12.024500000000295
21
-219.46929159758804
31
0
0
LINE
5
461
100
AcDbEntity
8
0
100
AcDbLine
10
-12.024500000000295
20
-219.46929159758804
30
0
11
-7.0245000000002928
21
-219.46929159758804
31
0
0
LINE
5
462
100
AcDbEntity
8
0
100
AcDbLine
10
-7.0245000000002928
20
-219.46929159758804
30
0
11
-7.0245000000002928
21
-219.16929340000002
31
0
0
ARC
5
463
100
AcDbEntity
8
0
100
AcDbCircle
10
-6.5245000000002928
20
-219.16929340000002
30
0
40
0.50000000000000711
100
AcDbArc
50
90
51
180
0
LINE
5
464
100
AcDbEntity
8
0
100
AcDbLine
10
-6.5245000000002928
20
-218.66929340000002
30
0
11
-3.0245000000000677
21
-218.66928748359379
31
0
0
ARC
5
465
100
AcDbEntity
8
0
100
AcDbCircle
10
-3.0245000000000677
20
-219.16929340000002
30
0
40
0.49999999999999989
100
AcDbArc
50
0
51
90
0
LINE
5
466
100
AcDbEntity
8
0
100
AcDbLine
10
-2.5245000000000677
20
-219.16929340000002
30
0
11
-2.524500000000053
21
-233.7682934
31
1.3322676295501878e-14
0
ARC
5
467
100
AcDbEntity
8
0
100
AcDbCircle
10
-3.0245000000000704
20
-233.7682934
30
0
40
0.50000000000000711
100
AcDbArc
50
-89.999999999999943
51
0
0
LINE
5
468
100
AcDbEntity
8
0
100
AcDbLine
10
-3.0245000000000699
20
-234.2682934
30
0
11
-6.5245000000002928
21
-234.26829129829102
31
0
0
ARC
5
469
100
AcDbEntity
8
0
100
AcDbCircle
10
-6.5245000000002928
20
-233.7682934
30
0
40
0.50000000000000044
100
AcDbArc
50
180
51
270
0
LINE
5
470
100
AcDbEntity
8
0
100
AcDbLine
10
-7.0245000000002928
20
-233.7682934
30
0
11
-7.0245000000002928
21
-233.4682927533552
31
0
0
LINE
5
471
100
AcDbEntity
8
0
100
AcDbLine
10
-7.0245000000002928
20
-233.4682927533552
30
0
11
-12.024500000000293
21
-233.4682927533552
31
0
0
LINE
5
472
100
AcDbEntity
8
0
100
AcDbLine
10
-12.024500000000293
20
-233.4682927533552
30
0
11
-12.024500000000293
21
-233.7682934
31
0
0
ARC
5
473
100
AcDbEntity
8
0
100
AcDbCircle
10
-12.524500000000295
20
-233.7682934
30
0
40
0.50000000000000711
100
AcDbArc
50
-90
51
0
0
LINE
5
474
100
AcDbEntity
8
0
100
AcDbLine
10
-12.524500000000295
20
-234.2682934
30
0
11
-16.025200000000062
21
-234.26829129829102
31
0
0
ARC
5
475
100
AcDbEntity
8
0
100
AcDbCircle
10
-16.025200000000062
20
-233.7682934
30
0
40
0.50000000000000044
100
AcDbArc
50
180
51
270
0
LINE
5
476
100
AcDbEntity
8
0
100
AcDbLine
10
-16.525200000000062
20
-233.7682934
30
0
11
-16.525200000000062
21
-219.16929340000002
31
0
0
ARC
5
477
100
AcDbEntity
8
0
100
AcDbCircle
10
-16.025200000000059
20
-219.16929340000002
30
0
40
0.50000591640625203
100
AcDbArc
50
90
51
180
0
LWPOLYLINE
5
478
100
AcDbEntity
8
0
100
AcDbPolyline
90
12
70
1
43
0.0
10
-72.674988583984458
20
-154.46329340000005
10
-60.674501222229111
20
-154.46329340000005
42
0.41421356237309503
10
-59.674501222229104
20
-153.46329340000003
10
-59.674501222229111
20
-123.26329340000002
42
0.41421356237309503
10
-60.674501222229111
20
-122.26329340000004
10
-72.674988583984458
20
-122.26329340000004
42
0.41421356237309503
10
-73.674988583984444
20
-123.26329340000002
10
-73.674988583984458
20
-131.3632934
10
-73.675340000000034
20
-131.3632934
10
-73.675340000000034
20
-145.3632934
10
-73.674988583984458
20
-145.3632934
10
-73.674988583984458
20
-153.46329340000003
42
0.41421356237309503
0
LINE
5
479
100
AcDbEntity
8
0
100
AcDbLine
10
-73.175340000000062
20
-187.71228876533206
30
0
11
-69.674500000000151
21
-187.71229340000002
31
2.2204460492503131e-15
0
ARC
5
480
100
AcDbEntity
8
0
100
AcDbCircle
10
-69.674500000000151
20
-188.21229340000005
30
0
40
0.49999999999999822
100
AcDbArc
50
0
51
90
0
LINE
5
481
100
AcDbEntity
8
0
100
AcDbLine
10
-69.174500000000151
20
-188.21229340000005
30
0
11
-69.174500000000151
21
-188.51229198807712
31
0
0
LINE
5
482
100
AcDbEntity
8
0
100
AcDbLine
10
-69.174500000000151
20
-188.51229198807712
30
0
11
-64.174500000000151
21
-188.51229198807712
31
0
0
LINE
5
483
100
AcDbEntity
8
0
100
AcDbLine
10
-64.174500000000151
20
-188.51229198807712
30
0
11
-64.174500000000151
21
-188.21229340000005
31
0
0
ARC
5
484
100
AcDbEntity
8
0
100
AcDbCircle
10
-63.674500000000158
20
-188.21229340000005
30
0
40
0.50000000000000711
100
AcDbArc
50
90
51
180
0
LINE
5
485
100
AcDbEntity
8
0
100
AcDbLine
10
-63.674500000000158
20
-187.71229340000005
30
0
11
-60.174500000000037
21
-187.71228876533206
31
0
0
ARC
5
486
100
AcDbEntity
8
0
100
AcDbCircle
10
-60.174500000000037
20
-188.21229340000002
30
0
40
0.49999999999999822
100
AcDbArc
50
0
51
90
0
LINE
5
487
100
AcDbEntity
8
0
100
AcDbLine
10
-59.674500000000037
20
-188.21229340000002
30
0
11
-59.67450000000003
21
-202.81329340000002
31
0
0
ARC
5
488
100
AcDbEntity
8
0
100
AcDbCircle
10
-60.174500000000037
20
-202.81329340000002
30
0
40
0.50000000000000711
100
AcDbArc
50
-90
51
0
0
LINE
5
489
100
AcDbEntity
8
0
100
AcDbLine
10
-60.174500000000037
20
-203.31331165351565
30
0
11
-60.275300000000058
21
-203.31331165351565
31
0
0
LINE
5
490
100
AcDbEntity
8
0
100
AcDbLine
10
-60.275300000000058
20
-203.31329340000002
30
0
11
-63.674500000000158
21
-203.31329340000002
31
0
0
ARC
5
491
100
AcDbEntity
8
0
100
AcDbCircle
10
-63.674500000000158
20
-202.81329340000002
30
0
40
0.49999999999999822
100
AcDbArc
50
180
51
270
0
LINE
5
492
100
AcDbEntity
8
0
100
AcDbLine
10
-64.174500000000151
20
-202.81329340000002
30
0
11
-64.174500000000151
21
-202.51329340000007
31
0
0
LINE
5
493
100
AcDbEntity
8
0
100
AcDbLine
10
-64.174500000000151
20
-202.51329340000007
30
0
11
-69.174500000000151
21
-202.51329340000007
31
0
0
LINE
5
494
100
AcDbEntity
8
0
100
AcDbLine
10
-69.174500000000151
20
-202.51329340000007
30
0
11
-69.174500000000151
21
-202.81329340000002
31
0
0
ARC
5
495
100
AcDbEntity
8
0
100
AcDbCircle
10
-69.674500000000151
20
-202.81329340000002
30
0
40
0.50000000000000711
100
AcDbArc
50
-90
51
0
0
LINE
5
496
100
AcDbEntity
8
0
100
AcDbLine
10
-69.674500000000151
20
-203.31329340000002
30
0
11
-73.07451000000006
21
-203.31329340000002
31
0
0
LINE
5
497
100
AcDbEntity
8
0
100
AcDbLine
10
-73.074510000000032
20
-203.31331165351565
30
0
11
-73.175340000000062
21
-203.31331165351565
31
0
0
ARC
5
498
100
AcDbEntity
8
0
100
AcDbCircle
10
-73.175340000000062
20
-202.81329340000002
30
0
40
0.49999999999999822
100
AcDbArc
50
180
51
270
0
LINE
5
499
100
AcDbEntity
8
0
100
AcDbLine
10
-73.675340000000048
20
-202.81329340000002
30
0
11
-73.675340000000062
21
-188.21229340000002
31
0
0
ARC
5
500
100
AcDbEntity
8
0
100
AcDbCircle
10
-73.175340000000062
20
-188.21229340000002
30
0
40
0.50000463466794542
100
AcDbArc
50
90
51
180
0
LWPOLYLINE
5
501
100
AcDbEntity
8
0
100
AcDbPolyline
90
8
70
1
43
0.0
10
-73.199901000000011
20
3.9690473130349338e-15
10
-3.0000000000000071
20
3.8857805861880479e-15
42
-0.4142135623730957
10
0
20
-3.0000000000000071
10
-7.1054273576010019e-14
20
-240.3872934
42
-0.41421356237309503
10
-3.0000000000000782
20
-243.3872934
10
-73.199901000000054
20
-243.3872934
42
-0.41421356237309503
10
-76.19990100000004
20
-240.3872934
10
-76.199901000000025
20
-3.0000000000000022
42
-0.41421356237309492
0
CIRCLE
5
502
100
AcDbEntity
8
0
100
AcDbCircle
10
-9.5248500000000096
20
-38.349693876519986
30
8.8817841970012523e-15
40
0.74999999999999734
0
CIRCLE
5
503
100
AcDbEntity
8
0
100
AcDbCircle
10
-9.5248500000000096
20
-57.399693255300626
30
6.6613381477509392e-15
40
0.75000000000000178
0
CIRCLE
5
504
100
AcDbEntity
8
0
100
AcDbCircle
10
-9.5248500000000096
20
-19.299694028558481
30
2.2204460492503131e-14
40
0.7500000111758709
0
CIRCLE
5
505
100
AcDbEntity
8
0
100
AcDbCircle
10
-65.349901000000017
20
-76.999999999999986
30
8.8817841970012523e-15
40
2.5
0
CIRCLE
5
506
100
AcDbEntity
8
0
100
AcDbCircle
10
-53.799901000000006
20
-30.099999999999977
30
2.2204460492503131e-15
40
2.5
0
CIRCLE
5
507
100
AcDbEntity
8
0
100
AcDbCircle
10
-16.750000000000043
20
-210.8872934
30
1.5543122344752192e-14
40
2.5
0
CIRCLE
5
508
100
AcDbEntity
8
0
100
AcDbCircle
10
-65.549901000000048
20
-182.58729340000005
30
4.4408920985006262e-15
40
2.5
0
ENDSEC
0
SECTION
2
OBJECTS
0
DICTIONARY
5
C
100
AcDbDictionary
3
ACAD_GROUP
350
D
3
ACAD_MLINESTYLE
350
17
0
DICTIONARY
5
D
100
AcDbDictionary
0
DICTIONARY
5
1A
330
C
100
AcDbDictionary
0
DICTIONARY
5
17
100
AcDbDictionary
0
ENDSEC
0
EOF
